<?xml version="1.0" encoding="UTF-8"?>
<svg width="960px" height="960px" viewBox="0 0 960 960" version="1.1" xmlns="http://www.w3.org/2000/svg" xmlns:xlink="http://www.w3.org/1999/xlink">
    <title>smart-mi-fan-3</title>
    <g id="smart-mi-fan-3" stroke="none" stroke-width="1" fill="none" fill-rule="evenodd">
        <path d="M681.81362,149.752736 C721.575344,258.997175 677.567935,376.371638 581.717284,411.258422 C558.456576,419.724627 533.917489,422.640561 509.327511,420.135755 L509.327485,823.571195 L510.214858,823.617267 L513.032581,823.795019 L515.843652,823.979329 C535.961518,825.323557 555.427978,827.167771 571.255442,829.398245 L573.488398,829.718844 L575.482619,830.014682 C588.995697,832.050083 600.167793,834.371182 608.876613,837.091264 C615.14827,839.050131 620.506306,841.289557 625.377693,844.342301 C629.423403,846.87762 633.077337,849.925783 636.300669,853.949178 C641.370971,860.27798 644.597433,868.172004 644.732433,877.125587 L644.736842,877.895053 C644.736842,895.741935 637.352663,911.791127 624.06163,924.113289 C613.34614,934.047656 599.269076,941.264237 581.860088,946.594118 C552.560667,955.564337 511.38162,959.788065 456.980066,959.872909 L455.327485,959.872909 C400.675119,959.872909 358.852744,955.729296 328.956079,946.901785 C311.509214,941.750294 297.333156,934.819825 286.413727,925.335185 C272.685719,913.411006 264.632407,897.699215 264.035293,879.892079 L264.026657,879.597518 L264,878.073902 L264,877.782 C264,869.361222 266.758774,861.783398 271.266436,855.551526 C274.207972,851.484832 277.621036,848.3184 281.423473,845.655344 C286.06006,842.408087 291.163398,839.994355 297.17178,837.835667 C314.066874,831.765608 359.255876,826.473304 405.753269,823.663387 L407.327485,823.589195 L407.327166,376.12591 C400.567725,370.559183 394.100902,364.543644 387.968228,358.115698 L387.252112,357.360664 L386.464474,357.457224 C356.156873,360.825136 325.16251,335.260671 311.075295,297.884571 L310.601625,296.605835 C298.277862,262.746576 302.525288,226.984655 322.147752,207.409626 L322.712112,206.856664 L322.641895,205.660554 C318.06957,119.60321 361.757391,42.4565255 434.728694,14.630711 L437.042763,13.768443 C532.893415,-21.118341 642.051895,40.5082965 681.81362,149.752736 Z M301.840921,889.61785 L302.00738,889.939098 C314.457541,913.228305 365.564243,924.872909 455.327485,924.872909 C539.436911,924.872909 588.356735,914.671803 604.103508,894.273808 C596.157991,896.573357 586.275316,898.635692 574.706084,900.432157 C544.157242,905.175766 503.090895,907.872909 459.327485,907.872909 L456.381318,907.86883 L453.443855,907.856624 C411.893963,907.626335 373.124747,904.96257 343.948887,900.432157 L342.093622,900.139475 C327.676389,897.828725 315.984788,895.094127 307.53335,891.991418 C305.466487,891.232627 303.569977,890.445131 301.840921,889.61785 Z M493.144884,857.740763 L493.119329,857.817805 C491.500682,862.612416 488.321877,866.809172 483.986961,869.660266 C477.087424,874.208753 468.710442,875.872909 458.327485,875.872909 C447.944529,875.872909 439.567547,874.208753 432.665238,869.658438 C428.318504,866.791838 425.137479,862.58359 423.523703,857.78057 L420.64901,857.921923 L417.853619,858.065802 C372.149559,860.46955 324.428017,865.488378 309.467179,870.612539 L308.955714,870.791216 C310.185723,871.489304 311.890527,872.267321 314.023944,873.06748 L314.425977,873.216656 L315.327966,873.540456 C322.534843,876.071308 333.052352,878.468259 346.176458,880.537376 L347.0177,880.669 C376.465849,885.241694 416.52839,887.872909 459.327485,887.872909 L462.208583,887.86893 L465.080852,887.857027 C505.228322,887.635115 542.622682,885.09694 570.640627,880.822399 L571.637271,880.669 C585.435156,878.526471 596.416167,876.023129 603.782516,873.378732 L604.228993,873.216656 C604.443203,873.138015 604.653327,873.059552 604.85932,872.981321 C590.118887,865.895894 543.92784,860.160712 493.144884,857.740763 Z M442.327021,399.499556 L442.327485,850.456954 C442.327485,851.465661 442.833998,852.406951 443.676074,852.962286 C446.619463,854.902701 451.503267,855.872909 458.327485,855.872909 C465.151704,855.872909 470.035508,854.902701 472.978896,852.962286 C473.820296,852.408892 474.326506,851.469497 474.327485,850.462425 L474.328225,530.213936 C473.090563,533.031938 470.275114,535 467,535 C462.581722,535 459,531.418278 459,527 L459,457 C459,452.581722 462.581722,449 467,449 C470.275114,449 473.090563,450.968062 474.328225,453.786064 L474.327485,412.888251 C463.396961,409.4561 452.686789,404.970462 442.327021,399.499556 Z M446.680373,50.2222418 L445.412133,50.7270917 C373.403672,80.135321 339.763224,173.370547 372.184901,262.448373 C405.268245,353.344114 493.827276,403.341102 568.891529,376.019948 C573.929254,374.186366 578.789693,372.046944 583.463951,369.623517 C507.963627,393.936106 421.966943,343.273861 389.61975,254.400679 C359.944449,172.86846 385.529551,86.9480662 446.680373,50.2222418 Z M531.514685,72.2428077 C530.618386,74.5558227 529.729101,76.9212654 528.856017,79.3079774 L528.066239,81.4848868 L527.269944,83.7163419 L526.499871,85.9098926 C521.919003,99.0642384 518.07843,111.998269 516.491664,119.578443 L515.880326,122.620094 C514.88635,127.541241 513.634993,133.450161 512.308033,139.659211 L509.137875,154.472439 C508.248631,158.643976 507.389071,162.7095 506.613055,166.465265 C505.711983,167.130987 504.845275,167.847979 504.002736,168.595888 C501.412728,165.309266 499.074746,161.709802 497.769379,158.171908 L497.532616,157.519873 L497.277451,156.795066 C495.200793,150.810851 492.289419,140.425699 489.504905,129.757669 L488.939467,127.580852 C486.283692,117.307552 483.805495,107.031371 482.358941,100.409933 L481.898396,98.260263 L481.340743,95.5560035 C478.982203,83.9773352 477.899419,77.8142317 470.128461,82.5131112 C452.182097,93.3622049 440.687214,109.009865 440.687214,109.009865 C439.092372,110.836351 438.744258,113.726388 439.829926,116.168172 L440.723595,118.165739 C442.043868,121.096484 443.417419,124.057723 444.814516,126.994572 L445.460893,128.348109 L446.435308,130.369297 C452.72969,143.352232 459.265109,155.429486 463.400946,161.726877 L464.839207,163.901202 C467.766862,168.344358 471.285019,173.801572 474.958097,179.518855 L483.328202,192.547005 C485.344698,195.677739 487.308706,198.715156 489.14735,201.53311 C489.093398,202.607115 489.068369,203.689049 489.077826,204.779234 C485.378855,204.950682 481.614935,204.678861 478.493374,203.504201 L477.872597,203.265359 L477.196718,202.994961 C472.207348,200.964332 464.132471,196.964108 455.827217,192.615338 L454.498453,191.917653 L452.535259,190.880006 L450.640473,189.871024 L447.243762,188.044296 C440.745854,184.527812 434.732532,181.147123 430.665295,178.732023 L428.962709,177.709226 L424.935094,175.239807 C417.277335,170.571143 413.1986,168.739806 411.948552,178.136992 C408.79146,201.844086 412.577877,222.855846 412.577877,222.855846 C412.874088,225.541067 414.601637,227.795403 416.861941,228.437889 C419.395389,229.158054 421.984972,229.855091 424.585968,230.52109 L426.005557,230.881236 L427.40213,231.2291 L428.797798,231.570464 C441.5826,234.669009 454.060189,236.914073 460.915251,237.365337 L463.222111,237.505946 L465.522775,237.656743 C469.476259,237.924202 473.999564,238.268744 478.711672,238.636879 L491.957579,239.675659 L495.585685,239.953056 C497.973924,240.133318 500.292431,240.303016 502.488777,240.454788 C503.171626,241.217768 503.872889,241.954049 504.593856,242.664705 C502.560653,246.176298 500.192206,249.453845 497.592419,251.531796 C496.063105,252.753976 493.945918,254.264791 491.441593,255.952085 L490.097527,256.850082 C486.416228,259.290227 482.046678,262.03708 477.537376,264.784186 L476.257624,265.561578 L474.973171,266.337438 L472.401223,267.878386 L469.881049,269.372611 L466.727949,271.220592 C461.75171,274.118054 457.161119,276.699673 453.759505,278.516615 L452.298075,279.288459 L447.343417,281.826763 C440.015354,285.617903 436.615073,288.161862 442.082914,295.492798 C453.912217,311.352997 467.327553,321.385858 471.20674,324.118033 L472.305352,324.872324 C474.275294,326.403915 476.782622,326.330534 478.521634,324.691004 L479.586384,323.681907 L480.653403,322.660823 C492.754892,311.025484 505.076643,297.328728 510.245472,289.996354 L511.534293,288.177784 C513.142194,285.919771 514.956981,283.407207 516.892969,280.744606 L530.308194,262.393249 C532.359085,259.582159 534.346089,256.846801 536.184534,254.290451 C536.757746,254.219346 537.333048,254.141357 537.907543,254.040058 C538.230028,253.983196 538.545746,253.906679 538.865604,253.841159 C540.035977,258.062138 540.854166,262.433815 540.734327,266.212588 L540.691375,267.290775 L540.649387,268.10182 C540.329567,273.803782 539.342507,282.736853 538.133289,292.12112 L537.78967,294.755174 L537.479176,297.083691 L536.981417,300.726404 L536.642067,303.152096 C535.544192,310.928259 534.412566,318.262391 533.506296,323.536139 L533.166591,325.475134 L532.725433,327.872819 C530.438136,340.030989 528.62945,346.485566 537.623654,346.512354 L537.917358,346.512354 C556.728427,346.284274 572.084266,339.8315 574.674075,338.682129 L575.058901,338.507867 C577.216531,337.731329 578.62293,335.385629 578.534956,332.694962 C578.408606,328.79366 578.224152,324.791369 577.993967,320.801483 L577.905528,319.306079 L577.713189,316.276117 L577.55844,314.017109 C576.604156,300.508657 575.194922,287.905662 573.829818,280.781673 L573.212732,277.608796 L572.740872,275.135903 C571.991835,271.181576 571.175393,266.745249 570.329893,262.108925 L566.773253,242.561995 L565.844139,237.520751 C565.538911,235.875115 565.238795,234.268928 564.945698,232.716204 C565.39477,231.816177 565.819764,230.898245 566.214675,229.959559 C569.705168,231.715418 573.092589,233.892057 575.54262,236.528444 L576.001237,237.028116 C579.53483,240.921931 585.155065,248.067834 591.001685,255.82384 L593.399074,259.020975 L594.997403,261.17035 L595.925818,262.425147 C598.45185,265.845414 600.922539,269.241304 603.186377,272.397642 L604.663296,274.464017 C606.90411,277.610529 608.887127,280.449029 610.444225,282.740745 L611.856373,284.842883 C618.873938,295.396171 622.145102,301.614525 627.532906,292.904914 C639.336735,273.820379 643.714661,253.52146 643.714661,253.52146 C644.446829,251.023637 643.694986,248.164686 641.84762,246.442225 L640.786074,245.456291 C639.872705,244.611466 638.949026,243.765965 638.018234,242.922277 L636.898076,241.910883 L635.772319,240.902188 C623.926769,230.328409 611.358383,220.35925 604.465421,215.98016 L602.454572,214.714637 L600.51291,213.482054 C598.293614,212.06766 595.876212,210.509737 593.342717,208.868259 L575.533447,197.280825 L571.287481,194.531993 C569.900938,193.637158 568.547596,192.766997 567.240712,191.931207 C566.894664,190.899069 566.525839,189.88137 566.126807,188.885936 C569.314659,186.871067 572.721173,185.23458 575.89493,184.757045 C581.08265,183.977864 591.276396,183.584601 601.629206,183.46464 L603.90243,183.442652 L606.169371,183.42918 C614.456043,183.395067 622.38625,183.527329 627.432671,183.767244 L628.519239,183.822789 C640.070548,184.45083 646.425068,185.892791 643.675623,174.903193 C637.77268,151.304383 626.753548,133.695625 626.753548,133.695625 C625.512039,131.350376 623.167394,130.123414 620.94585,130.662363 L619.544465,131.005897 L618.136161,131.359263 C602.612846,135.29821 586.134432,140.914269 578.621597,144.652937 L577.424033,145.246296 L574.859606,146.501547 C570.188782,148.772424 564.607324,151.412593 558.911045,154.104039 L550.093903,158.275697 L545.602529,160.415148 C544.138057,161.11565 542.71158,161.801367 541.339135,162.465892 C540.445838,162.089204 539.537469,161.758171 538.623501,161.451577 C539.127559,157.185513 540.007704,152.973004 541.528043,149.749888 L541.827542,149.124981 L542.175151,148.420911 C544.892954,142.989714 550.069374,134.218075 555.488648,125.458889 L557.029227,122.979499 L558.667794,120.364866 C563.028056,113.437134 567.266512,106.938725 570.235768,102.605874 L571.182843,101.235793 L574.79107,96.1327431 C579.712637,89.0942649 581.631895,85.0728013 574.232589,81.0596211 C555.052788,70.6578691 536.906666,68.9533015 536.906666,68.9533015 C534.620699,68.5212026 532.443238,69.8471644 531.514685,72.2428077 Z M344.017178,235.806249 L343.846139,236.082072 C337.61328,246.303056 336.372374,265.077233 343.490867,284.63513 C352.136515,308.388854 369.098297,322.85479 381.373112,322.693942 C370.035934,306.79075 360.522424,288.88207 353.391049,269.288776 C349.343645,258.168627 346.232836,246.97094 344.017178,235.806249 Z M565.035805,193.876143 C573.535968,217.230149 564.439552,241.981161 544.718392,249.159077 C524.997231,256.336992 502.119329,243.22368 493.619166,219.869674 C485.119003,196.515669 494.215419,171.764656 513.936579,164.586741 C533.657739,157.408826 556.535642,170.522138 565.035805,193.876143 Z M519.066881,178.68213 C507.708241,182.816337 501.873728,198.691831 507.714555,214.739372 C513.555382,230.786913 528.229449,239.197895 539.58809,235.063687 C550.94673,230.92948 556.781243,215.053986 550.940416,199.006446 C545.099588,182.958905 530.425522,174.547923 519.066881,178.68213 Z" id="Shape" fill="#000000"></path>
    </g>
</svg>