<?xml version="1.0" encoding="utf-8"?>
<!-- Generator: Adobe Illustrator 22.1.0, SVG Export Plug-In . SVG Version: 6.00 Build 0)  -->
<svg version="1.1" baseProfile="tiny" id="Layer_1" xmlns="http://www.w3.org/2000/svg" xmlns:xlink="http://www.w3.org/1999/xlink"
	 x="0px" y="0px" viewBox="0 0 512 512" xml:space="preserve">
<g>
	<path d="M389,1c4,1,8.1,1.8,12,3c29.1,8.6,49.8,35.5,49.9,65.8c0.1,124.8,0.2,249.6,0,374.4c0,33.7-25.5,62.6-58.6,67.9
		c-1.1,0.2-2.2,0.6-3.3,0.9c-87.7,0-175.3,0-263,0c-3.9-1-7.7-1.8-11.6-2.9c-29.7-8.6-50.4-35.5-50.4-66.4
		c-0.1-124.5-0.1-248.9,0-373.4c0-34.3,25.2-62.9,59.1-68.4c1-0.2,1.9-0.6,2.8-0.9C213.7,1,301.3,1,389,1z M441,257
		c0-61.3,0-122.6,0-184c0-36-26-62-62.2-62c-80.8,0-161.6,0-242.5,0C99.9,11,74,36.9,74,73.3c0,122.5,0,245,0,367.4
		c0,36.4,26,62.3,62.4,62.3c80.7,0,161.3,0,242,0c36.8,0,62.6-25.8,62.6-62.6C441,379.3,441,318.1,441,257z"/>
	<path d="M186.8,127.9c0-4.1,0-7.2,0-10.6c9.4,0,18.5,0,27.9,0c0,27.7,0,55.4,0,83.4c-9.2,0-18.2,0-27.7,0
		c-0.1-3.1-0.3-6.2-0.5-10.1c-4.6,0-9.1,0-13.5,0c-18.7,0-33.1-13.7-33-31.5c0.1-17.6,14.4-31.2,32.8-31.2
		C177.3,127.9,181.7,127.9,186.8,127.9z M197.9,139.6c-7.4,0-14.5,0-21.6,0c-0.8,0-1.6,0-2.5,0c-12.3-0.6-21.8,7.7-22,19.3
		c-0.2,11.9,9.1,20.4,21.8,20.1c8.1-0.2,16.2,0,24.1,0c1.1,10.5,1.1,10.5,4.9,9.7c0-19.7,0-39.5,0-59.2
		C198.6,129.2,198.6,129.2,197.9,139.6z"/>
	<path d="M328.3,190.7c0,3.8,0,6.7,0,10c-9.4,0-18.5,0-28,0c0-27.6,0-55.3,0-83.3c9,0,18.1,0,27.7,0c0,3.2,0,6.4,0,10.6
		c5.6,0,10.6,0,15.7,0c17.2,0.1,31.4,14.5,31.2,31.8c-0.1,16.3-14.1,30.6-30.6,31C339.3,190.8,334.1,190.7,328.3,190.7z M318.4,179
		c7,0,15.1-0.2,23.2,0c12.3,0.3,21.6-8.2,21.5-19.9c0-11.6-9.6-20.1-21.8-19.6c-8.1,0.3-16.1,0.1-24.1,0.1c-1.1-10.5-1.1-10.5-5-9.9
		c0,19.7,0,39.5,0,59.8C320.2,189,314.7,182.2,318.4,179z"/>
	<path d="M271.6,200.8c-9.2,0-18.1,0-27.3,0c0-27.9,0-55.6,0-83.5c9.1,0,18,0,27.3,0C271.6,144.9,271.6,172.6,271.6,200.8z
		 M261.8,127.3c-2.8,0-5.1,0-7.4,0c0,21.3,0,42.3,0,63.3c2.7,0,5,0,7.4,0C261.8,169.3,261.8,148.4,261.8,127.3z"/>
	<path d="M166,276c8.7-3.3,17-6.6,26-10c10,25.9,19.9,51.7,30,78c-8.7,3.3-17,6.6-26,10C186,328.1,176.1,302.3,166,276z
		 M178.9,281.7c7.7,20,15.2,39.5,22.8,59.4c2.6-1,4.8-1.9,7.3-2.8c-7.7-19.9-15.2-39.4-22.8-59.2
		C183.8,279.9,181.7,280.7,178.9,281.7z"/>
	<path d="M312,354c-8.8-3.4-17.2-6.6-26-10c10-26,19.8-51.7,29.9-77.9c8.7,3.3,17.1,6.5,26,9.9C332,302,322.1,327.7,312,354z
		 M306.3,341.1c7.7-20,15.2-39.5,22.8-59.4c-2.6-1-4.9-1.8-7.4-2.8c-7.7,20-15.2,39.5-22.8,59.3C301.4,339.2,303.5,340,306.3,341.1z
		"/>
	<path d="M251.1,462c2-1.7,3.9-4.2,6.2-4.7c3.4-0.8,5.5,1.8,5.7,5.3c0.2,3.7-1.7,6.6-5.4,6.2c-2.3-0.3-4.3-2.9-6.4-4.4
		C251.1,463.5,251.1,462.8,251.1,462z"/>
</g>
</svg>
