<?xml version="1.0" encoding="utf-8"?>
<!-- Generator: Adobe Illustrator 22.1.0, SVG Export Plug-In . SVG Version: 6.00 Build 0)  -->
<svg version="1.1" baseProfile="tiny" id="Layer_1" xmlns="http://www.w3.org/2000/svg" xmlns:xlink="http://www.w3.org/1999/xlink"
	 x="0px" y="0px" viewBox="0 0 512 512" xml:space="preserve">
<g>
	<path d="M365,400.5c0,2.4,0,4.3,0,6.3c-0.1,28.3-0.3,56.7-0.5,85c-0.1,9.5-4.3,14.2-13.8,15.6c-9.1,1.4-18.1,2.5-27.1,4.2
		c-7.8,1.5-14.4-1.5-20.9-5.1c-3-1.7-5.2-2.3-8.3,0.4c-4.2,3.6-9,2-13.5-0.4c-29.1-15.4-58.3-30.7-87.5-46.1
		c-31.2-16.4-62.4-33-93.7-49.2c-7.3-3.8-10.1-9.1-9.7-16.8c1.5-31.3,2.9-62.6,4.3-93.9c1.9-40.1,3.7-80.2,5.6-120.3
		c2-42.3,3.9-84.5,6-126.8c0.4-8,4.2-12,12.1-13.5c65.1-12.1,130.2-24.4,195.3-36.3c7.6-1.4,15.6-0.3,23.4-0.1c6,0.2,12,0.8,18,1.1
		c7.8,0.5,13.3,6.1,13.3,14c-0.1,20.3-0.2,40.7-0.4,61c0,1.9,0,3.9,0,5.9c14.5,1.9,28.3,3.7,42.2,5.4c9.3,1.2,15.3,7.3,15.2,16.6
		c-0.5,36.3-1.3,72.6-2,108.9c-0.1,4.4-2.4,6.3-6.7,6.3c-7,0-9.9,2.4-10.2,9.5c-0.5,13-0.6,26-0.6,39c0,4.5,4,8.2,8.8,8.6
		c6.3,0.5,7.5,1.8,7.4,8c-0.6,30.7-1.1,61.3-1.8,92c-0.2,10-5,15.4-15,16.6C391.9,397.9,378.9,399.1,365,400.5z M217,31
		c-0.1,1.6-0.2,2.7-0.3,3.8c-1.6,28.9-3.2,57.9-4.8,86.8c-3,53.4-5.9,106.8-8.8,160.2c-2.9,54.6-5.8,109.1-8.7,163.7
		c-0.2,3.5,0.6,5.3,3.9,7c28.8,15,57.5,30.2,86.2,45.3c5.3,2.8,6.4,2.2,6.8-3.6c2.7-44.1,5.3-88.1,7.9-132.2
		c2.1-35.1,4.2-70.2,6.3-105.2c2.6-42.9,5.1-85.8,7.7-128.7c2.1-35.6,4.2-71.2,6.4-106.7c0.5-8.5-0.4-9.4-8.7-7.9
		c-19.1,3.6-38.3,7.1-57.4,10.7C241.3,26.4,229.2,28.7,217,31z M208.4,32.9c-2,0.2-3.3,0.3-4.6,0.5c-27.5,5.1-54.9,10.4-82.4,15.3
		c-4.6,0.8-6.1,2.8-6.3,7.1c-2.2,49.3-4.6,98.5-6.8,147.7c-2.9,63.6-5.8,127.1-8.8,190.7c-0.2,4.4,1.2,6.9,5.2,9
		c25.4,13.1,50.7,26.6,76,39.9c1.6,0.8,3.2,1.6,5.5,2.7C193.5,307.9,200.9,170.8,208.4,32.9z M332.9,15
		c-3.5,162.4-6.9,324.2-10.4,486.5c9-1.3,17.1-2.7,25.1-3.4c4.9-0.5,6.6-2,6.6-7.3c0.7-140.8,1.6-281.5,2.4-422.3
		c0.1-15.8,0.2-31.7,0.3-47.5c0-2.5,0.1-4.7-3.4-4.8C347,15.9,340.3,15.4,332.9,15z M409.5,382.4c-0.3-0.6-0.6-1.2-0.8-1.7
		c-8.9,1-17.8,2.1-26.7,3.1c-4.9,0.5-7.7-1.3-7.9-5.3c-0.3-4.4,2.3-6.2,6.4-6.6c7.1-0.7,14.2-1.6,21.3-2.5c8-1.1,8-1.1,7.7-9.4
		c0-0.5-0.3-0.9-0.6-1.6c-1.4,0.1-2.9,0.1-4.4,0.2c-8.2,0.5-16.3,1-24.5,1.3c-3.8,0.2-5.9-2.1-6-5.9c-0.1-3.5,1.8-5.6,5.3-6
		c1.2-0.1,2.3-0.1,3.5-0.2c8.9-0.6,17.8-1.2,26.7-1.7c0-4.4,0-8.1,0-11.9c-9.9,0.6-19.4,1.2-28.9,1.6c-4.7,0.2-7.5-3-6.6-7.2
		c0.7-3.5,3.2-4.7,6.6-4.8c9.7-0.5,19.5-1.2,29.4-1.8c0-4.3,0-7.9,0-12c-2.1,0-4.1-0.1-6,0c-8,0.2-16,0.6-24,0.8
		c-3.8,0.1-5.9-2-6-5.8c-0.1-3.8,2-5.9,5.8-6.1c2.3-0.1,4.7-0.1,7-0.2c7.9-0.3,15.8-0.6,23.8-0.9c0-3,0-5.3,0-7.3
		c-8.3-3.6-15.4-8.2-15.7-17.9c-0.3-13.2-0.1-26.3,0.4-39.5c0.4-10.5,5.3-20.5,16.9-22.3c0-5.2,0-10.4,0-15.8
		c-1.5-0.1-2.6-0.2-3.7-0.2c-8.7,0-17.3,0-26,0c-4,0-6.4-1.8-6.5-5.9c-0.1-4,2.2-6.1,6.3-6.1c1.8,0,3.7,0,5.5,0c8.3,0,16.5,0,25,0
		c0-5,0-9.2,0-14c-1.8,0-3.4,0-5.1,0c-8.5,0-17,0-25.5,0c-3.3,0-5.9-1.5-6-4.7c0-2.2,1.5-4.8,3.1-6.6c0.8-0.9,3.1-0.6,4.8-0.7
		c9.6-0.1,19.2,0,29,0c0-4.7,0-8.7,0-13c-10.2,0-20,0.2-29.9-0.1c-2.3-0.1-5.3-1.4-6.5-3.2c-2.7-4,0.6-8.5,5.8-8.6
		c10.3-0.1,20.6,0,31.1,0c0-5,0-9.3,0-14c-10,0-19.6,0-29.3,0c-4,0-6.4-2-6.3-6c0-4.1,2.4-6,6.4-6c2.5,0,5,0,7.5,0
		c7.2,0,14.4,0,22,0c-2.8-4.5-37-10.2-46.7-8.2c0,2,0,4.2,0,6.3c-0.5,64.5-1,129-1.4,193.5c-0.2,28.8-0.2,57.7-0.4,86.5
		c0,3.8,1.2,5.4,5.3,5c11.1-1.2,22.2-2,33.3-3.3C406,385.5,407.7,383.6,409.5,382.4z M311.7,498.6c2-94.7,4-188.4,6.1-282.7
		c-0.5,5.2-1.1,9.6-1.4,14.1c-2.1,35.4-4.2,70.8-6.3,106.2c-1.9,31.1-3.8,62.2-5.6,93.2c-1.2,19.8-2.3,39.6-3.4,59.4
		c-0.1,1.7,0.4,4.2,1.6,5.2C305,495.7,308.1,496.8,311.7,498.6z"/>
</g>
<g>
	<path d="M341.6,482.2l5.9,1.5v2l-18.6-5v-2.3l18.6-5v2l-5.9,1.6V482.2z M339.7,477.3l-5.4,1.4c-1.2,0.3-2.3,0.5-3.4,0.8v0
		c1.1,0.2,2.2,0.5,3.4,0.7l5.4,1.4V477.3z"/>
	<path d="M350.2,459.3c-0.7,2-1.4,3.9-2.2,5.7c-0.1,0.3-0.3,0.6-0.3,0.9c-0.2,3.5-3.4,6.5-9.4,6.5c-6,0-9.8-2.9-9.8-6.9
		c0-4,3.9-6.6,9.4-6.6c4.8,0,7.8,1.8,8.9,4.2h0.1c0.5-1.5,0.9-3.1,1.2-4.3L350.2,459.3z M345.8,465.6c0-3-3.5-4.7-7.7-4.7
		c-3.7,0-7.6,1.5-7.6,4.7c0,3.2,3.8,4.8,7.8,4.8C342.2,470.3,345.8,468.6,345.8,465.6L345.8,465.6z"/>
	<path d="M341.6,454.3l5.9,1.5v2l-18.6-5v-2.3l18.6-5v2l-5.9,1.6V454.3z M339.7,449.4l-5.4,1.4c-1.2,0.3-2.3,0.5-3.4,0.8v0
		c1.1,0.2,2.2,0.5,3.4,0.7l5.4,1.4V449.4z"/>
	<path d="M329.1,443.2c-0.2-1-0.4-2.3-0.4-3.7c0-2,0.5-3.4,1.5-4.3c0.8-0.7,2.1-1.2,3.5-1.2c2.5,0,4.1,1.2,4.8,2.8h0.1
		c0.5-1.1,1.8-1.8,3.8-2.2c2.6-0.5,4.4-0.8,5.1-1.1v2c-0.6,0.2-2.1,0.6-4.4,1c-2.6,0.4-3.5,1.2-3.6,3v1.8h8.1v1.9H329.1z
		 M337.6,441.3v-2c0-2-1.4-3.3-3.5-3.3c-2.4,0-3.5,1.4-3.5,3.4c0,0.9,0.1,1.6,0.2,1.9H337.6z"/>
	<path d="M341.6,428.9l5.9,1.5v2l-18.6-5v-2.3l18.6-5v2l-5.9,1.6V428.9z M339.7,424.1l-5.4,1.4c-1.2,0.3-2.3,0.5-3.4,0.8v0
		c1.1,0.2,2.2,0.5,3.4,0.7l5.4,1.4V424.1z"/>
</g>
</svg>
