<?xml version="1.0" encoding="utf-8"?>
<!-- Generator: Adobe Illustrator 22.1.0, SVG Export Plug-In . SVG Version: 6.00 Build 0)  -->
<svg version="1.1" baseProfile="tiny" id="Layer_1" xmlns="http://www.w3.org/2000/svg" xmlns:xlink="http://www.w3.org/1999/xlink"
	 x="0px" y="0px" viewBox="0 0 512 512" xml:space="preserve">
<g>
	<path d="M370.9,255.5c0,66.5,0,132.9,0,199.4c0,9.5-3.1,13.1-12.6,14.6c-9,1.4-18.1,3.2-27.2,3.8c-3.4,0.2-7.1-1.9-10.4-3.5
		c-3.1-1.4-5.2-2.3-8.2,0.7c-3.9,3.8-8.8,2.8-13.4,0.4c-27.5-14.5-55.1-29-82.6-43.4c-24-12.6-48-25.3-72.1-37.7
		c-6.9-3.5-9.7-8.5-9.3-16c1.8-38.6,3.6-77.2,5.4-115.8c1.9-39.9,3.7-79.9,5.6-119.8c0.8-17.3,1.5-34.6,2.4-51.9
		c0.6-11.5,3.3-14.2,14.8-16.3c54.2-10,108.3-20.3,162.5-29.9c8.5-1.5,17.5,0.2,26.3,0.5c3,0.1,6,0.5,9,0.6
		c8.6,0.3,13.1,4.9,13,13.5c-0.5,67-1.1,133.9-1.6,200.9C371.9,255.5,371.4,255.5,370.9,255.5z M244.8,64.2
		c-1.3,22.7-2.6,44.8-3.7,67c-2.1,40.1-4.2,80.2-6.3,120.3c-3,55.2-5.9,110.5-9,165.7c-0.2,3.6,1,5.3,4,6.9
		c24.1,12.5,48.1,25.2,72.1,37.8c5.4,2.8,6,2.6,6.4-3.8c1.3-20.1,2.5-40.2,3.7-60.4c2.1-35.8,4.2-71.5,6.4-107.3
		c2.5-41.9,5.1-83.8,7.6-125.7c2.2-36.3,4.3-72.5,6.5-108.8c0.4-6.6-0.7-7.8-7.3-6.7c-6.7,1.2-13.4,2.5-20.1,3.8
		C285.2,56.7,265.2,60.4,244.8,64.2z M218.7,418c6.4-117.9,12.7-234.8,19-352c-1.4,0-2.3-0.1-3.1,0c-24,4.5-48.1,9-72.1,13.4
		c-3.6,0.7-4.5,2.4-4.7,5.7c-0.6,15.1-1.3,30.3-2.1,45.4c-3.8,81-7.6,162.1-11.5,243.1c-0.2,3.8,1.1,6.1,4.6,7.8
		c14.2,7.3,28.3,14.8,42.5,22.2C200.2,408.4,209,413,218.7,418z M335.1,464.4c7.8-1.1,14.8-2.4,21.9-3c4.1-0.4,5.1-2,5.1-5.9
		c0.7-133,1.6-266,2.4-398.9c0-1,0.2-2.1-0.1-3c-0.3-0.9-1.2-2.3-1.9-2.4c-6.1-0.5-12.1-0.8-18.6-1.2
		C341,188.3,338.1,325.9,335.1,464.4z M325.8,461.3c1.4-65.9,2.8-131.5,4.2-197c-1.6,15.1-2.4,30.2-3.4,45.4
		c-2.9,47.2-5.8,94.4-8.6,141.6C317.7,458.7,317.8,458.7,325.8,461.3z"/>
</g>
<g>
	<path d="M351.5,448.3l5.2,1.5v2l-16.5-5v-2.3l16.5-5v2l-5.2,1.6V448.3z M349.9,443.5l-4.8,1.4c-1.1,0.3-2.1,0.5-3,0.8v0
		c1,0.2,2,0.5,3,0.7l4.8,1.4V443.5z"/>
	<path d="M359.2,425.4c-0.6,2-1.3,3.9-1.9,5.7c-0.1,0.3-0.2,0.6-0.2,0.9c-0.1,3.5-3,6.5-8.4,6.5c-5.3,0-8.7-2.9-8.7-6.9
		c0-4,3.5-6.6,8.4-6.6c4.2,0,7,1.8,7.9,4.2h0.1c0.4-1.5,0.8-3.1,1.1-4.3L359.2,425.4z M355.3,431.8c0-3-3.1-4.7-6.9-4.7
		c-3.3,0-6.7,1.5-6.7,4.7c0,3.2,3.3,4.8,6.9,4.8C352.1,436.5,355.3,434.8,355.3,431.8L355.3,431.8z"/>
	<path d="M351.5,420.4l5.2,1.5v2l-16.5-5v-2.3l16.5-5v2l-5.2,1.6V420.4z M349.9,415.6l-4.8,1.4c-1.1,0.3-2.1,0.5-3,0.8v0
		c1,0.2,2,0.5,3,0.7l4.8,1.4V415.6z"/>
	<path d="M340.4,409.4c-0.2-1-0.3-2.3-0.3-3.7c0-2,0.4-3.4,1.3-4.3c0.7-0.7,1.9-1.2,3.1-1.2c2.2,0,3.6,1.2,4.2,2.8h0.1
		c0.4-1.1,1.6-1.8,3.3-2.2c2.3-0.5,3.9-0.8,4.5-1.1v2c-0.5,0.2-1.9,0.6-3.9,1c-2.3,0.4-3.1,1.2-3.2,3v1.8h7.2v1.9H340.4z M348,407.5
		v-2c0-2-1.3-3.3-3.1-3.3c-2.1,0-3.1,1.4-3.1,3.4c0,0.9,0.1,1.6,0.2,1.9H348z"/>
	<path d="M351.5,395.1l5.2,1.5v2l-16.5-5v-2.3l16.5-5v2l-5.2,1.6V395.1z M349.9,390.2l-4.8,1.4c-1.1,0.3-2.1,0.5-3,0.8v0
		c1,0.2,2,0.5,3,0.7l4.8,1.4V390.2z"/>
</g>
</svg>
