<?xml version="1.0" encoding="utf-8"?>
<!-- Generator: Adobe Illustrator 22.1.0, SVG Export Plug-In . SVG Version: 6.00 Build 0)  -->
<svg version="1.1" id="Слой_1" xmlns="http://www.w3.org/2000/svg" xmlns:xlink="http://www.w3.org/1999/xlink" x="0px" y="0px"
	 viewBox="0 0 725.7 725.7" style="enable-background:new 0 0 725.7 725.7;" xml:space="preserve">
<style type="text/css">
	.st0{fill:none;stroke:#000000;stroke-width:10;stroke-miterlimit:10;}
	.st1{fill:none;stroke:#000000;stroke-width:40;stroke-linecap:round;stroke-miterlimit:10;}
	.st2{fill:none;stroke:#000000;stroke-width:5;stroke-miterlimit:10;}
	.st3{fill:none;stroke:#000000;stroke-miterlimit:10;}
	.st4{stroke:#000000;stroke-width:5;stroke-miterlimit:10;}
</style>
<g>
	<g>
		<path class="st0" d="M291.4,142.7c-138,14.7-240.5,70.9-240.5,138c0,78.4,140.3,142,313.3,142s313.3-63.6,313.3-142
			c0.1-66.7-101.2-122.6-237.7-137.9"/>
	</g>
	<path class="st0" d="M439.8,142.8c-37.8-4-81.2-7.4-148.6-0.3"/>
</g>
<path class="st0" d="M721,392.6c0,92.8-159.7,168-356.8,168S7.5,485.3,7.5,392.6"/>
<path class="st0" d="M417.2,226.4"/>
<path class="st0" d="M321.2,122.5"/>
<path class="st0" d="M321.3,122.6l96.6,0.5c171.9,12.1,303.8,81.9,303.8,166.1c0,92.8-159.7,168-356.8,168S8.2,382,8.2,289.3
	C8.2,203.5,149.7,127.8,321.3,122.6"/>
<path class="st1" d="M705.2,386.4c-70.8,70.4-190.6,117.7-340.3,117.7c-158.2,0-266.1-33.6-342.8-125"/>
<line class="st0" x1="8.2" y1="289.3" x2="7.5" y2="392.6"/>
<line class="st0" x1="721.7" y1="289.3" x2="721" y2="392.6"/>
<path class="st2" d="M368.4,401.2H361c-6.2,0-13.6-5-13.6-11.2l-1.2-17.4c0-6.2,6.2-11.2,12.4-11.2h12.1c6.2,0,11.2,5,12.4,11.2
	L382,390C380.8,396.2,374.6,401.2,368.4,401.2z"/>
<path class="st2" d="M370.3,374.5c0,3.2-2.3,4.6-5.6,4.6c-3.2,0-6.1-1.4-6.1-4.6s2.9-4.5,6.1-4.5S370.3,371.3,370.3,374.5z"/>
<path class="st2" d="M370.1,390.5c0,3.2-1.9,4.4-5.2,4.4c-3.2,0-6.5-1.2-6.5-4.4s2.6-4.1,5.9-4.1
	C367.5,386.4,370.1,387.3,370.1,390.5z"/>
<line class="st0" x1="8.2" y1="269.1" x2="33" y2="269.1"/>
<line class="st0" x1="31.8" y1="280.7" x2="50.9" y2="280.7"/>
<line class="st0" x1="716.6" y1="270.1" x2="697.5" y2="270.1"/>
<line class="st0" x1="700.2" y1="281.4" x2="681.1" y2="281.4"/>
<line class="st0" x1="136.9" y1="540.4" x2="135" y2="521.3"/>
<line class="st0" x1="41.3" y1="496.5" x2="61.2" y2="481.3"/>
<line class="st3" x1="134.6" y1="540" x2="141" y2="580.2"/>
<line class="st3" x1="143.7" y1="579.4" x2="135.6" y2="538.6"/>
<line class="st3" x1="146" y1="578.2" x2="136.8" y2="538.9"/>
<line class="st3" x1="148" y1="576.5" x2="137.8" y2="538.2"/>
<line class="st3" x1="149.7" y1="575.8" x2="139.8" y2="539.6"/>
<path class="st3" d="M41.3,494.4c0,1-17.6,7.6-40.2,2"/>
<path class="st3" d="M41.1,493.3c0,1-17.3,6.9-40,1.3"/>
<path class="st3" d="M41.7,495.3c0,1-17.9,8.8-40.6,3.2"/>
<path class="st3" d="M43.1,497.6c0,1-19.3,10.3-42,4.7"/>
<path class="st3" d="M42.8,496.1c0,1-19,10-41.7,4.5"/>
<path class="st2" d="M426.7,128.6c155.6,13.4,273.5,77.3,273.5,154.2c0,86.6-149.6,156.8-334.2,156.8S31.8,369.3,31.8,282.8
	c0-67.2,91.5-118,216.8-146.8C277.9,129.3,420.2,126.2,426.7,128.6L426.7,128.6z"/>
<path d="M349.2,155.1c-0.2,0.3-0.1,14.2,0.2,14.3c0.1,0.1,1.3-0.2,2.8-0.6l2.6-0.8l-0.1-4.3c-0.1-5.1-0.3-4.9,3.5-3.7
	c6.9,2.2,5.7,2.1,11,0.5c2.3-0.7,4.3-1.3,4.4-1.3c0.3,0,0.4,0.1,0.3,1.8c-0.1,1.3,0,1.4,1.4,0.9c0.5-0.2,1.6-0.5,2.5-0.8l1.6-0.5
	v-2.9v-2.9h-2.7c-2.1,0-3,0.1-4.4,0.5c-9.1,2.7-6.9,2.6-14,0.6C354.5,154.9,349.8,154.4,349.2,155.1"/>
<path d="M377.1,164.4c-1.2,0.3-2.3,0.7-2.6,0.8c-0.4,0.1-0.5,0.7-0.6,2.5c-0.2,2.7-0.8,3.8-2.7,5.2c-4.2,2.9-11.8,2.5-14.7-0.9
	c-1-1.1-1-1.1-3.5-0.4c-2.6,0.8-2.5,0.7-1.8,1.8c4.3,6,16.9,7.1,23.9,2.2c3.3-2.3,4.3-4.6,4.2-9l-0.1-2.8L377.1,164.4"/>
<ellipse class="st4" cx="362.6" cy="326.5" rx="18.4" ry="10.5"/>
</svg>
