<?xml version="1.0" encoding="utf-8"?>
<!-- Generator: Adobe Illustrator 21.0.0, SVG Export Plug-In . SVG Version: 6.00 Build 0)  -->
<svg version="1.1" id="Layer_1" xmlns="http://www.w3.org/2000/svg" xmlns:xlink="http://www.w3.org/1999/xlink" x="0px" y="0px"
	 viewBox="0 0 130 146.2" style="enable-background:new 0 0 130 146.2;" xml:space="preserve">
<style type="text/css">
	.st0{fill-rule:evenodd;clip-rule:evenodd;}
</style>
<path class="st0" d="M129,81.3v-28l-5.4,2.3l-18.7,8v17.6v1.5h0c0,0.3,0,0.7-0.1,1c-1.3,20.9-18.7,37.4-39.8,37.4
	c-16.7,0-30.9-10.2-36.9-24.7l-22.2,9.5c9.6,23.1,32.5,39.4,59.1,39.4c34.5,0,62.7-27.3,63.9-61.6C129,82.9,129,82.1,129,81.3 M1,1
	v25.3v54.9c0,0.8,0,1.6,0,2.4c0.1,2.2,0.3,4.4,0.6,6.6L17,83.7l8.1-3.5v-49v-4.9l4.2,1.8L65.9,44l34.9-15.8l4.1-1.9v4.9v14.9
	l10.4-4.4l13.7-5.9v-9.5V1h-24l-0.1,0l-39,16.3L25.2,1h-0.1H1z"/>
</svg>
