<?xml version="1.0" encoding="utf-8"?>
<!-- Generator: Adobe Illustrator 22.1.0, SVG Export Plug-In . SVG Version: 6.00 Build 0)  -->
<svg version="1.1" baseProfile="tiny" id="Слой_1"
	 xmlns="http://www.w3.org/2000/svg" xmlns:xlink="http://www.w3.org/1999/xlink" x="0px" y="0px" viewBox="0 0 1451.3 1451.3"
	 xml:space="preserve">
<g>
	<path fill="#020202" d="M2.8,1207.6c0-319.4,0-638.7,0-958.1c5.3-3.9,3.7-10.2,4.8-15.3c25-113.8,93.6-187.1,204.4-221.6
		c13.2-4.1,27.5-3.8,40.2-9.7c316.5,0,633.1,0,949.6,0c0.5,2.3,2.2,2.5,4.2,2.7c111,12.8,206,93.5,236.7,201.2
		c4.3,15.1,7.6,30.4,11.4,45.6c0,318.4,0,636.9,0,955.3c-5.3,3.9-3.7,10.2-4.8,15.3c-24.9,113.8-93.5,187.3-204.5,221.4
		c-14,4.3-28.6,6.7-43,10c-317.5,0-635,0-952.4,0c-3.3-5.4-9.3-3.5-13.9-4.5c-119.1-26.1-194-98.2-225.7-215.7
		C7.5,1225.1,8.9,1215.3,2.8,1207.6z M1425.8,729.4c0-146.9,0.2-293.8-0.1-440.7c-0.3-144.2-112.7-257.2-256.7-257.4
		c-293.8-0.3-587.7-0.4-881.5,0C143.7,31.5,31.3,145,31.2,289c-0.1,292.9-0.1,585.8,0,878.7c0,144.8,112.7,258,257.4,258.1
		c293.4,0.2,586.7,0,880.1,0.1c16.1,0,32.1-1.1,47.9-4.3c125.3-25.1,209.1-127.6,209.2-255.7
		C1425.9,1020.4,1425.8,874.9,1425.8,729.4z"/>
	<path fill="#060606" d="M727.1,1145.2c-229.1,0-415.2-185.9-415.3-414.9c-0.1-229.7,186.2-416,416-415.7
		c229,0.3,414.7,186.5,414.6,415.7C1142.3,959.3,956.2,1145.2,727.1,1145.2z M727.7,343c-213-0.3-386.7,172.5-387.5,385.5
		c-0.8,213.4,172.9,388,386.2,388.3c213,0.2,387-172.9,387.5-385.5C1114.5,517.6,941.1,343.3,727.7,343z"/>
</g>
</svg>
