<?xml version="1.0" encoding="utf-8"?>
<!-- Generator: Adobe Illustrator 22.1.0, SVG Export Plug-In . SVG Version: 6.00 Build 0)  -->
<svg version="1.1" baseProfile="tiny" id="Слой_1"
	 xmlns="http://www.w3.org/2000/svg" xmlns:xlink="http://www.w3.org/1999/xlink" x="0px" y="0px" viewBox="0 0 512 512"
	 xml:space="preserve">
<g>
	<path d="M512,90c0,110.7,0,221.3,0,332c-0.3,0.9-0.8,1.8-0.9,2.8c-5.4,40.3-33.5,72.8-72.7,83.6c-5.4,1.5-10.9,2.4-16.4,3.6
		c-110.7,0-221.3,0-332,0c-0.9-0.3-1.8-0.7-2.8-0.9c-40.4-5.4-73.2-33.9-83.8-73.2C2,432.7,1.1,427.3,0,422C0,311.3,0,200.7,0,90
		c0.3-0.9,0.7-1.8,0.9-2.8C6.5,45.3,36.3,12.5,77.4,2.6c4.2-1,8.4-1.8,12.6-2.6c110.7,0,221.3,0,332,0c0.9,0.3,1.8,0.8,2.8,0.9
		c40,5.2,72.6,33.3,83.4,72.2C509.8,78.7,510.8,84.4,512,90z M502,256.1c0-51.5,0-103,0-154.5c-0.1-51.9-39.5-91.6-91.4-91.6
		c-103.2-0.1-206.3,0-309.5,0c-6,0-12,0.5-17.9,1.6C39.6,20.5,10,56.7,10,101.4c0,103,0,206,0,309c0,51.9,39.6,91.6,91.4,91.6
		c103.2,0.1,206.3,0,309.5,0c5.8,0,11.7-0.4,17.4-1.5c43.9-8.6,73.7-44.9,73.8-89.8C502,359.1,502,307.6,502,256.1z"/>
	<path d="M189.8,271c-7.3-10.1-7.7-20.3-0.1-30.6c-0.6-1-1.1-2-1.7-3c-5-8.5-5.3-17,0-25.5c1.3-2.1,1.4-3.4,0-5.7
		c-6.8-11.5-4.4-20.9,3.2-29.2c2-2.1,5.1-3.2,8.4-5.2c0.5,5.8,1.2,10-2.3,14.1c-4.1,4.9-3.5,10.9,0.4,16.1c3.1,4.1,3.2,9.5,0.3,13.4
		c-4.7,6.3-4.6,11.8,0.3,18.2c2.3,3,2.3,9.3,0.1,12.4c-5.2,6.9-5.2,11.8-0.1,18.5c2.3,3.1,2.4,9.4,0.1,12.4
		c-5.1,6.7-5.2,12.1-0.1,18.6c2.5,3.2,2.4,9.3-0.2,12.7c-4.2,5.4-5.1,11.2-1.1,16.1c3.4,4.2,3.1,8.4,2.8,14.4
		c-3.2-1.7-6.3-2.6-8.3-4.6c-6.8-6.7-10.8-17.1-3.9-28.6c1.7-2.8,1.6-4.7-0.1-7.5C181.7,288.8,183.7,279.8,189.8,271z"/>
	<path d="M310.1,173.2c14.5,1.3,19.7,20,10.2,36c7.3,10,7.5,20.4-0.2,30.7c7.4,10.2,7.7,20.4,0.2,30.5c1.3,2.8,2.6,5.5,3.8,8.1
		c3.5,7.3,1.3,14-2.3,20.4c-1.2,2.2-1.3,3.5,0,5.7c6.8,11.5,4.4,21-3.2,29.2c-2,2.1-5.1,3.2-8.4,5.1c-0.4-5.8-1.2-10,2.3-14.2
		c4.1-4.8,3.5-10.6-0.2-15.7c-3.5-4.9-3.6-9.5-0.2-14.2c4.2-5.8,4.1-11.7-0.3-17.5c-2.8-3.6-2.8-9.4,0-13.1c4.6-6.1,4.6-11.7,0-17.8
		c-2.8-3.7-2.8-9.5,0-13.1c4.6-5.9,4.6-12,0.1-17.8c-3-3.9-2.9-9.3,0.2-13.4c3.9-5.2,4.7-11,0.8-15.7
		C309.5,182.4,309.8,178.2,310.1,173.2z"/>
	<path d="M232.7,338.2c-7.9-1.4-11.7-5.8-13.7-11.7c-2.7-7.9-2.5-15.6,2.4-22.9c0.6-0.8,0.5-2.6,0-3.5c-5.4-9.1-5.5-18.1-0.2-27.2
		c0.6-1,0.6-2.9,0-3.9c-5.3-9-5.2-17.8-0.1-26.9c0.6-1.1,0.5-3.2-0.1-4.3c-5-8.9-4.9-17.6,0-26.5c0.7-1.2,0.5-3.5-0.2-4.7
		c-5.3-8.6-4.6-21.4,2.2-28.8c2.1-2.3,5.2-3.6,8.7-6c0.1,5.9,1,10-2,14.5c-3.3,4.8-2.7,10.6,0.4,15.6c2.6,4.2,2.7,10.1,0.1,14.2
		c-3.2,4.8-3.1,12.3,0.1,17c2.4,3.5,2.4,10.3,0,13.8c-3.4,5-3.4,12.3,0.2,17.4c2.2,3.2,2.2,10.3,0,13.4c-3.5,5-3.6,12.3-0.1,17.4
		c2.3,3.4,2.4,10.2,0.2,13.4c-3.7,5.3-3.2,12.2-0.1,17.9C232.1,329.6,231.9,333.8,232.7,338.2z"/>
	<path d="M278,337.3c1.2-4.2,2.1-8.6,3.6-12.7c2.1-5.7,1.6-10.6-0.9-16.3c-1.6-3.7-1.7-9.2-0.1-12.8c2.8-6.3,2.8-12.1-0.1-18.4
		c-1.6-3.5-1.7-9,0-12.5c3-6.5,3-12.2,0.2-18.4c-1.6-3.6-1.6-9.2,0-12.8c2.6-5.9,2.7-12.2,0.1-18c-1.6-3.7-1.8-9.2-0.2-12.8
		c2.8-6.3,3.2-12.3-0.1-18.3c-1.7-3.1-1.4-7.2-2-11c6.2,0.3,11.7,4.6,13.5,10.2c2.5,8.1,2.8,16-2.1,23.4c-0.6,0.9-0.6,2.9,0,3.9
		c5.4,9,5.2,17.8,0.2,26.9c-0.6,1.1-0.6,3.2,0,4.3c5,8.9,5,17.6,0.1,26.5c-0.6,1.2-0.8,3.2-0.2,4.3c5.1,9,5.2,17.9,0,26.9
		c-0.6,1.1-0.5,3.2,0.2,4.3c5.4,9,4.9,21.2-1.9,28.8c-2.2,2.4-5.4,3.8-8.1,5.7C279.3,338.1,278.7,337.7,278,337.3z"/>
	<path d="M254.4,398.7c-1.5-2-3.8-3.9-4.1-6.1c-0.5-3.4,2-5.6,5.5-5.4c3.2,0.1,5.6,2.3,5,5.5c-0.4,2.2-2.7,4.1-4.2,6.1
		C255.9,398.7,255.1,398.7,254.4,398.7z"/>
</g>
</svg>
