<?xml version="1.0" encoding="utf-8"?>
<!-- Generator: Adobe Illustrator 22.1.0, SVG Export Plug-In . SVG Version: 6.00 Build 0)  -->
<svg version="1.1" id="Слой_1" xmlns="http://www.w3.org/2000/svg" xmlns:xlink="http://www.w3.org/1999/xlink" x="0px" y="0px"
	 viewBox="0 0 725.7 725.7" style="enable-background:new 0 0 725.7 725.7;" xml:space="preserve">
<style type="text/css">
	.st0{fill:none;stroke:#000000;stroke-width:10;stroke-miterlimit:10;}
</style>
<path class="st0" d="M371.7,689.3c-53.1-0.2-108.3-5.7-145.9-16.5c-4.9-1.4-8.2-6-8.2-11.1l10.5-610.5c0.2-11.2,7.6-20.9,18.3-24
	c75.6-21.7,169.9-28.1,259,2.3c8.9,3,15,11.3,15.2,20.7l13.7,612.2c0.1,4.6-3,8.7-7.4,9.8c-41.1,10.4-94,16.2-144.7,17.1"/>
<path class="st0" d="M222.8,671.2v22.9c0,13,69.1,23.5,154.4,23.5s152.2-10.5,152.2-23.5v-22.9"/>
<circle class="st0" cx="377" cy="696.7" r="9.1"/>
<g>
	<path d="M333.3,637.1v7.5H331v-19.8h5.4c2.1,0,3.8,0.5,4.9,1.5c1.2,1,1.7,2.5,1.7,4.4c0,1.9-0.6,3.4-1.9,4.6
		c-1.3,1.2-3,1.8-5.2,1.8H333.3z M333.3,626.9v8.1h2.4c1.6,0,2.8-0.4,3.7-1.1c0.8-0.7,1.3-1.8,1.3-3.1c0-2.6-1.5-3.9-4.6-3.9H333.3z
		"/>
	<path d="M361.7,644.6h-2.3v-9h-10.3v9h-2.3v-19.8h2.3v8.7h10.3v-8.7h2.3V644.6z"/>
	<path d="M369.2,644.6h-2.3v-19.8h2.3V644.6z"/>
	<path d="M384.7,644.6h-10.3v-19.8h2.3v17.7h8V644.6z"/>
	<path d="M390.1,644.6h-2.3v-19.8h2.3V644.6z"/>
	<path d="M397.6,637.1v7.5h-2.3v-19.8h5.4c2.1,0,3.8,0.5,4.9,1.5c1.2,1,1.7,2.5,1.7,4.4c0,1.9-0.6,3.4-1.9,4.6
		c-1.3,1.2-3,1.8-5.2,1.8H397.6z M397.6,626.9v8.1h2.4c1.6,0,2.8-0.4,3.7-1.1c0.8-0.7,1.3-1.8,1.3-3.1c0-2.6-1.5-3.9-4.6-3.9H397.6z
		"/>
	<path d="M410.2,643.8v-2.7c0.3,0.3,0.7,0.5,1.1,0.7c0.4,0.2,0.9,0.4,1.4,0.6c0.5,0.2,1,0.3,1.5,0.4c0.5,0.1,0.9,0.1,1.4,0.1
		c1.4,0,2.5-0.3,3.2-0.8c0.7-0.5,1.1-1.3,1.1-2.3c0-0.5-0.1-1-0.4-1.4c-0.2-0.4-0.6-0.8-1-1.1c-0.4-0.3-0.9-0.6-1.5-0.9
		c-0.6-0.3-1.2-0.6-1.8-0.9c-0.7-0.4-1.3-0.7-1.9-1.1c-0.6-0.4-1.1-0.8-1.6-1.2c-0.4-0.4-0.8-0.9-1-1.5c-0.3-0.5-0.4-1.2-0.4-1.9
		c0-0.9,0.2-1.7,0.6-2.4c0.4-0.7,0.9-1.2,1.6-1.6c0.6-0.4,1.4-0.8,2.2-1c0.8-0.2,1.7-0.3,2.5-0.3c2,0,3.4,0.2,4.3,0.7v2.6
		c-1.2-0.8-2.7-1.2-4.5-1.2c-0.5,0-1,0.1-1.5,0.2c-0.5,0.1-1,0.3-1.4,0.5c-0.4,0.2-0.7,0.5-1,0.9c-0.2,0.4-0.4,0.8-0.4,1.4
		c0,0.5,0.1,0.9,0.3,1.3c0.2,0.4,0.5,0.7,0.8,1c0.4,0.3,0.8,0.6,1.3,0.9c0.5,0.3,1.1,0.6,1.8,0.9c0.7,0.4,1.4,0.7,2,1.1
		s1.2,0.8,1.7,1.3c0.5,0.5,0.9,1,1.1,1.6s0.4,1.2,0.4,2c0,1-0.2,1.8-0.6,2.5c-0.4,0.7-0.9,1.2-1.5,1.6c-0.6,0.4-1.4,0.7-2.2,0.9
		s-1.7,0.3-2.7,0.3c-0.3,0-0.7,0-1.2-0.1c-0.5-0.1-0.9-0.1-1.4-0.2c-0.5-0.1-0.9-0.2-1.4-0.4C410.8,644.2,410.5,644,410.2,643.8z"/>
</g>
</svg>
