<?xml version="1.0" encoding="UTF-8"?>
<svg width="2451px" height="1418px" viewBox="0 0 2451 1418" version="1.1" xmlns="http://www.w3.org/2000/svg" xmlns:xlink="http://www.w3.org/1999/xlink">
    <!-- Generator: Sketch 57 (83077) - https://sketch.com -->
    <title>Artboard Copy</title>
    <desc>Created with Sketch.</desc>
    <g id="Artboard-Copy" stroke="none" stroke-width="1" fill="none" fill-rule="evenodd">
        <path d="M235.5,41.0002919 L357.582331,41.2972654 C359.126089,41.2166891 360.680381,41.175898 362.244199,41.175898 C362.793041,41.175898 363.341872,41.175898 363.890618,41.191301 L2209.64642,75.7301533 C2257.59732,76.6274383 2296,115.755458 2296,163.71475 L2296,1209.41816 C2296,1257.41691 2257.53637,1296.56188 2209.54501,1297.40459 L363.789213,1329.81549 C361.197102,1329.86101 358.629203,1329.79397 356.090177,1329.61889 L356.088459,1329.89997 L235.474317,1329.00026 C163.066267,1329.00026 104.162906,1271.76956 102.99208,1200.64877 L102.974317,1198.48939 L102.974317,171.51113 C102.974317,99.3929804 162.334872,41.0002919 235.5,41.0002919 Z M363.497722,62.175898 L362.244199,62.175898 C325.241121,62.175898 295.244199,92.1728198 295.244199,129.175898 L295.244199,1243.00537 C295.904188,1280.00275 326.423142,1309.46839 363.420517,1308.81873 L2209.17632,1276.40783 C2245.71519,1275.76622 2275,1245.96266 2275,1209.41816 L2275,163.71475 C2275,127.200289 2245.76159,97.4096377 2209.25352,96.7264775 L363.497722,62.175898 Z M235.474317,62.0002605 C174.472464,62.0002605 124.97313,110.092467 123.989244,169.701314 L123.974317,171.51113 L123.974317,1198.48939 C123.974317,1258.32717 172.863632,1307.01775 233.705306,1307.98586 L235.552613,1308.00055 L304.827204,1308.51937 C286.490522,1292.72301 274.70982,1269.47562 274.244199,1243.37407 L274.244199,129.175898 C274.244199,102.608753 286.017084,78.7913126 304.630447,62.6559823 L305.196577,62.1693894 L235.474317,62.0002605 Z M483.590197,141.463484 L2132.93617,166.009597 L2122.98487,1212 L474.54899,1232.78564 L483.590197,141.463484 Z M493.506462,151.612169 L484.63324,1222.65769 L2113.07837,1202.12412 L2122.842,175.860479 L493.506462,151.612169 Z M546.030155,1172.80357 C546.21087,1179.70477 540.762844,1185.44579 533.861651,1185.6265 C526.960457,1185.80721 521.219436,1180.35919 521.038722,1173.458 C520.858008,1166.5568 526.306033,1160.81578 533.207227,1160.63507 C540.108421,1160.45435 545.849441,1165.90238 546.030155,1172.80357 Z M586.016448,1171.75649 C586.197163,1178.65769 580.749137,1184.39871 573.847944,1184.57942 C566.94675,1184.76014 561.205729,1179.31211 561.025015,1172.41092 C560.844301,1165.50972 566.292326,1159.7687 573.19352,1159.58799 C580.094714,1159.40727 585.835734,1164.8553 586.016448,1171.75649 Z M626.002741,1170.70942 C626.183456,1177.61061 620.73543,1183.35163 613.834237,1183.53234 C606.933043,1183.71306 601.192022,1178.26503 601.011308,1171.36384 C600.830594,1164.46265 606.278619,1158.72162 613.179813,1158.54091 C620.081007,1158.3602 625.822027,1163.80822 626.002741,1170.70942 Z M666.988692,1169.63616 C667.169406,1176.53735 661.721381,1182.27838 654.820187,1182.45909 C647.918993,1182.6398 642.177973,1177.19178 641.997259,1170.29058 C641.816544,1163.38939 647.26457,1157.64837 654.165763,1157.46766 C661.066957,1157.28694 666.807978,1162.73497 666.988692,1169.63616 Z M706.974985,1168.58908 C707.155699,1175.49028 701.707674,1181.2313 694.80648,1181.41201 C687.905286,1181.59273 682.164266,1176.1447 681.983552,1169.24351 C681.802837,1162.34231 687.250863,1156.60129 694.152056,1156.42058 C701.05325,1156.23986 706.794271,1161.68789 706.974985,1168.58908 Z M746.961278,1167.542 C747.141992,1174.4432 741.693967,1180.18422 734.792773,1180.36493 C727.891579,1180.54565 722.150559,1175.09762 721.969845,1168.19643 C721.78913,1161.29523 727.237156,1155.55421 734.138349,1155.3735 C741.039543,1155.19279 746.780564,1160.64081 746.961278,1167.542 Z M2032,1076 C2050.77768,1076 2066,1093.01318 2066,1114 C2066,1134.98682 2050.77768,1152 2032,1152 C2013.22232,1152 1998,1134.98682 1998,1114 C1998,1093.01318 2013.22232,1076 2032,1076 Z M2032,1084 C2017.85115,1084 2006,1097.2454 2006,1114 C2006,1130.7546 2017.85115,1144 2032,1144 C2046.14885,1144 2058,1130.7546 2058,1114 C2058,1097.2454 2046.14885,1084 2032,1084 Z M2033.257,1107.45 C2033.052,1108.926 2032.97,1110.115 2032.97,1112.329 L2032.97,1125.162 C2032.97,1127.13 2033.052,1128.278 2033.257,1130 L2028.911,1130 C2029.116,1128.196 2029.198,1127.048 2029.198,1125.162 L2029.198,1112.288 C2029.198,1110.238 2029.116,1108.885 2028.911,1107.45 L2033.257,1107.45 Z M2033.38,1098.389 L2033.38,1102.489 L2028.829,1102.489 L2028.829,1098.389 L2033.38,1098.389 Z M1107,541 L1107,1043 L1100,1043 L1100,541 L1107,541 Z M1611.5,540.5 L1611.5,1042.5 L1604.5,1042.5 L1604.5,540.5 L1611.5,540.5 Z M205.5,324 C215.717268,324 224,332.282732 224,342.5 L224,1020.5 C224,1030.71727 215.717268,1039 205.5,1039 L178.5,1039 C168.282732,1039 160,1030.71727 160,1020.5 L160,342.5 C160,332.282732 168.282732,324 178.5,324 L205.5,324 Z M1343.108,990.95 C1350.758,990.95 1355.399,996.254 1355.399,1004.975 C1355.399,1013.492 1350.656,1018.949 1343.159,1018.949 C1338.569,1018.949 1334.744,1016.807 1332.704,1013.033 C1332.857,1014.461 1332.908,1015.583 1332.908,1016.96 L1332.908,1023.845 C1332.908,1026.089 1333.01,1027.517 1333.265,1029.353 L1329.491,1029.353 C1329.746,1027.415 1329.848,1025.885 1329.848,1023.896 L1329.848,997.019 C1329.848,994.673 1329.746,993.347 1329.491,991.409 L1332.857,991.409 L1332.857,994.214 C1332.857,995.081 1332.806,995.744 1332.704,996.917 C1333.316,995.693 1333.775,995.132 1334.642,994.265 C1336.988,992.021 1339.691,990.95 1343.108,990.95 Z M1369.543,990.95 C1377.193,990.95 1381.834,996.254 1381.834,1004.975 C1381.834,1013.492 1377.091,1018.949 1369.594,1018.949 C1365.004,1018.949 1361.179,1016.807 1359.139,1013.033 C1359.292,1014.461 1359.343,1015.583 1359.343,1016.96 L1359.343,1023.845 C1359.343,1026.089 1359.445,1027.517 1359.7,1029.353 L1355.926,1029.353 C1356.181,1027.415 1356.283,1025.885 1356.283,1023.896 L1356.283,997.019 C1356.283,994.673 1356.181,993.347 1355.926,991.409 L1359.292,991.409 L1359.292,994.214 C1359.292,995.081 1359.241,995.744 1359.139,996.917 C1359.751,995.693 1360.21,995.132 1361.077,994.265 C1363.423,992.021 1366.126,990.95 1369.543,990.95 Z M205.5,334 L178.5,334 C173.80558,334 170,337.80558 170,342.5 L170,1020.5 C170,1025.19442 173.80558,1029 178.5,1029 L205.5,1029 C210.19442,1029 214,1025.19442 214,1020.5 L214,342.5 C214,337.80558 210.19442,334 205.5,334 Z M1290.98667,948.6 C1298.46667,948.6 1304.89067,951.064 1309.55467,955.728 C1312.19467,958.368 1314.21867,961.448 1315.36267,964.616 C1317.65067,970.776 1318.79467,977.816 1318.79467,985.032 C1318.79467,995.856 1316.41867,1005.36 1312.28267,1011.08 C1307.35467,1017.944 1300.05067,1021.464 1290.89867,1021.464 C1283.41867,1021.464 1277.08267,1019 1272.41867,1014.336 C1269.77867,1011.696 1267.75467,1008.616 1266.61067,1005.448 C1265.81867,1003.28523 1265.16374,1001.04865 1264.6459,998.75286 L1264.59632,998.528292 L1264.62414,998.406683 C1265.4624,994.525265 1265.92414,990.212499 1265.9627,985.65498 L1265.96533,985.032 C1265.96533,980.488593 1265.51181,976.014957 1264.60477,971.786817 L1264.59532,971.747292 L1264.64167,971.535 C1265.57667,967.278 1266.91867,963.516 1268.54667,960.832 C1273.29867,952.912 1281.21867,948.6 1290.98667,948.6 Z M1238.15733,948.6 C1245.63733,948.6 1252.06133,951.064 1256.72533,955.728 C1259.36533,958.368 1261.38933,961.448 1262.53333,964.616 C1263.296,966.669333 1263.93156,968.820444 1264.44,971.043259 L1264.59532,971.747292 L1264.52692,972.069661 C1263.70112,976.008796 1263.22155,980.343456 1263.18141,984.624584 L1263.17867,985.208 C1263.17867,989.594462 1263.6119,993.880947 1264.47836,997.985424 L1264.59632,998.528292 L1264.50751,998.933276 C1263.39719,1003.82286 1261.68041,1008 1259.45333,1011.08 C1254.52533,1017.944 1247.22133,1021.464 1238.06933,1021.464 C1230.58933,1021.464 1224.25333,1019 1219.58933,1014.336 C1216.94933,1011.696 1214.92533,1008.616 1213.78133,1005.448 C1212.46133,1001.84338 1211.5221,998.03374 1210.96364,994.086657 L1210.93832,993.900292 C1211.37219,990.910715 1211.61092,987.758067 1211.63751,984.500089 L1211.64,983.888 C1211.64,980.761067 1211.47476,977.815902 1211.15143,975.09547 L1211.14832,975.068292 L1211.18929,974.811453 C1212.09421,969.226375 1213.68233,964.187 1215.71733,960.832 C1220.46933,952.912 1228.38933,948.6 1238.15733,948.6 Z M1184.888,948.336 C1196.152,948.336 1205.392,954.936 1209.088,965.672 C1209.97973,968.2064 1210.64619,971.166329 1211.07401,974.471687 L1211.14832,975.068292 L1211.10108,975.371738 C1210.64289,978.369174 1210.38127,981.511036 1210.35207,984.624584 L1210.34933,985.208 C1210.34933,987.949538 1210.51856,990.652024 1210.85703,993.295428 L1210.93832,993.900292 L1210.85635,994.451032 C1209.515,1003.15059 1206.51163,1010.35163 1202.312,1014.424 C1197.648,1019.088 1191.928,1021.112 1183.568,1021.112 C1176.176,1021.112 1170.984,1019.528 1166.584,1016.008 C1163.592,1013.632 1161.92,1011.344 1159.368,1006.24 L1171.512,1003.072 C1172.568,1005.624 1173.184,1006.768 1174.24,1007.912 C1176.44,1010.288 1179.872,1011.52 1184.36,1011.52 C1188.584,1011.52 1191.84,1010.376 1194.304,1007.912 C1198.704,1003.688 1200.728,997.352 1201.168,986.968 C1199.496,989.432 1198.528,990.488 1196.504,991.984 C1192.544,994.712 1188.056,996.032 1182.248,996.032 C1167.64,996.032 1158.312,987.056 1158.312,972.888 C1158.312,963.912 1162.272,956.608 1169.488,952.208 C1173.536,949.656 1178.816,948.336 1184.888,948.336 Z M664.269333,946.688 C671.837333,946.688 678.085333,948.976 682.309333,953.376 C684.597333,955.752 685.917333,957.776 687.853333,962.352 L675.973333,965.168 C673.685333,958.744 670.429333,956.28 664.181333,956.28 C657.933333,956.28 653.357333,959.36 650.365333,965.432 C648.165333,970.008 647.197333,974.232 646.757333,981.008 C651.509333,974.584 656.701333,972.208 665.589333,972.208 C674.565333,972.208 682.133333,976.08 686.005333,982.68 C688.117333,986.112 689.173333,990.688 689.173333,995.88 C689.173333,1009.784 678.613333,1019.64 663.653333,1019.64 C656.613333,1019.64 650.101333,1017.528 645.789333,1013.832 C642.635083,1011.104 640.141521,1007.2198 638.408652,1002.42941 L638.387317,1002.37129 L638.041121,1002.3254 C635.088355,1001.94274 633.245474,1001.85937 629.744,1001.776 L626.576,1001.776 L626.576,1008.024 C626.576,1012.512 626.752,1014.8 627.28,1018.056 L614.784,1018.056 C615.312,1014.976 615.488,1012.248 615.488,1007.848 L615.488,1001.776 L591.112,1001.776 C585.92,1001.776 583.104,1001.864 580.112,1002.128 L580.112,991.304 C583.104,988.048 584.072,986.904 587.152,983.208 L608.008,957.688 C611.88,953.024 613.288,951.176 615.312,948.008 L627.192,948.008 C626.681032,952.947355 626.582135,955.991184 626.576287,962.243848 L626.576,991.744 L629.656,991.744 C632.076,991.744 633.8305,991.660812 635.748775,991.465842 L635.956317,991.443292 L635.904416,990.950691 C635.690517,988.839162 635.581333,986.635875 635.581333,984.352 C635.581333,973.528 638.309333,963.144 642.797333,957.16 C647.989333,950.12 655.029333,946.688 664.269333,946.688 Z M1412.145,990.848 C1418.061,990.848 1421.019,994.01 1421.019,1000.283 L1421.019,1012.982 C1421.019,1015.481 1421.121,1016.756 1421.376,1018.439 L1417.5,1018.439 C1417.755,1016.654 1417.857,1015.43 1417.857,1012.931 L1417.857,1000.742 C1417.857,995.744 1415.97,993.551 1411.635,993.551 C1407.147,993.551 1403.373,997.835 1403.373,1002.935 L1403.373,1012.982 C1403.373,1015.43 1403.475,1016.756 1403.73,1018.439 L1399.905,1018.439 C1400.16,1016.756 1400.262,1015.43 1400.262,1012.931 L1400.262,1000.742 C1400.262,996.101 1398.12,993.551 1394.295,993.551 C1391.439,993.551 1388.889,995.03 1387.308,997.58 C1386.39,999.059 1385.778,1001.201 1385.778,1002.935 L1385.778,1012.931 C1385.778,1015.175 1385.88,1016.45 1386.135,1018.439 L1382.361,1018.439 C1382.616,1016.654 1382.718,1015.175 1382.718,1012.931 L1382.718,996.917 C1382.718,994.52 1382.616,993.194 1382.361,991.409 L1385.778,991.409 L1385.77776,994.64438 C1385.77619,995.01232 1385.7644,995.3394 1385.676,996.356 C1386.033,995.438 1386.492,994.775 1387.41,993.755 C1389.144,991.868 1391.643,990.848 1394.703,990.848 C1397.559,990.848 1399.752,991.715 1401.231,993.5 C1401.945,994.367 1402.251,995.03 1402.71,996.662 C1405.056,992.582 1407.861,990.848 1412.145,990.848 Z M701.962667,1005.208 L701.962667,1018.056 L689.114667,1018.056 L689.114667,1005.208 L701.962667,1005.208 Z M746.784,948.008 C746.273032,952.947355 746.174135,955.991184 746.168287,962.243848 L746.168,991.744 L749.248,991.744 C752.768,991.744 754.88,991.568 758.136,991.128 L758.136,1002.392 C754.88,1001.952 753.032,1001.864 749.336,1001.776 L746.168,1001.776 L746.168,1008.024 C746.168,1012.512 746.344,1014.8 746.872,1018.056 L734.376,1018.056 C734.904,1014.976 735.08,1012.248 735.08,1007.848 L735.08,1001.776 L710.704,1001.776 C705.512,1001.776 702.696,1001.864 699.704,1002.128 L699.704,991.304 C702.696,988.048 703.664,986.904 706.744,983.208 L727.6,957.688 C731.472,953.024 732.88,951.176 734.904,948.008 L746.784,948.008 Z M800.064333,977.169 L802.104333,978.75 L771.504333,1017.306 L769.464333,1015.776 L800.064333,977.169 Z M797.055333,995.682 C802.461333,995.682 805.623333,999.609 805.623333,1006.392 C805.623333,1010.166 804.654333,1013.124 802.818333,1014.909 C801.390333,1016.337 799.350333,1017.102 797.055333,1017.102 C794.709333,1017.102 792.720333,1016.337 791.190333,1014.909 C789.405333,1013.124 788.436333,1010.166 788.436333,1006.392 C788.436333,999.66 791.598333,995.682 797.055333,995.682 Z M1369.441,993.704 C1363.321,993.704 1359.343,998.141 1359.343,1005.026 C1359.343,1008.545 1360.465,1011.656 1362.352,1013.492 C1364.188,1015.277 1366.687,1016.246 1369.441,1016.246 C1375.153,1016.246 1378.621,1012.013 1378.621,1005.026 C1378.621,997.835 1375.306,993.704 1369.441,993.704 Z M1343.006,993.704 C1336.886,993.704 1332.908,998.141 1332.908,1005.026 C1332.908,1008.545 1334.03,1011.656 1335.917,1013.492 C1337.753,1015.277 1340.252,1016.246 1343.006,1016.246 C1348.718,1016.246 1352.186,1012.013 1352.186,1005.026 C1352.186,997.835 1348.871,993.704 1343.006,993.704 Z M797.055333,998.283 C793.383333,998.283 791.343333,1001.241 791.343333,1006.443 C791.343333,1011.594 793.434333,1014.552 797.055333,1014.552 C800.676333,1014.552 802.716333,1011.594 802.716333,1006.392 C802.716333,1001.19 800.676333,998.283 797.055333,998.283 Z M1238.06933,958.72 C1233.84533,958.72 1230.76533,960.128 1228.21333,963.208 C1224.34133,967.784 1222.40533,975 1222.40533,984.592 C1222.40533,993.832 1224.07733,1001.488 1226.89333,1005.536 C1229.62133,1009.408 1233.31733,1011.256 1238.15733,1011.256 C1242.02933,1011.256 1245.46133,1009.936 1247.66133,1007.56 C1251.62133,1003.424 1253.82133,995.24 1253.82133,984.944 C1253.82133,974.736 1251.62133,966.728 1247.66133,962.416 C1245.54933,960.04 1242.02933,958.72 1238.06933,958.72 Z M1290.89867,958.72 C1286.67467,958.72 1283.59467,960.128 1281.04267,963.208 C1277.17067,967.784 1275.23467,975 1275.23467,984.592 C1275.23467,993.832 1276.90667,1001.488 1279.72267,1005.536 C1282.45067,1009.408 1286.14667,1011.256 1290.98667,1011.256 C1294.85867,1011.256 1298.29067,1009.936 1300.49067,1007.56 C1304.45067,1003.424 1306.65067,995.24 1306.65067,984.944 C1306.65067,974.736 1304.45067,966.728 1300.49067,962.416 C1298.37867,960.04 1294.85867,958.72 1290.89867,958.72 Z M663.565333,981.8 C654.941333,981.8 648.517333,987.784 648.517333,995.88 C648.517333,1003.888 654.765333,1009.784 663.389333,1009.784 C668.493333,1009.784 672.981333,1007.496 675.445333,1003.624 C676.765333,1001.6 677.469333,998.696 677.469333,995.616 C677.469333,986.904 672.277333,981.8 663.565333,981.8 Z M638.544,991.128 C637.73,991.238 636.9875,991.3315 636.276625,991.409875 L635.956317,991.443292 L635.965345,991.524279 C636.388802,995.332922 637.157083,998.834875 638.243333,1001.963 L638.387317,1002.37129 L638.544,1002.392 L638.544,991.128 Z M774.564333,977.475 C779.970333,977.475 783.132333,981.402 783.132333,988.185 C783.132333,991.959 782.163333,994.917 780.327333,996.702 C778.899333,998.13 776.859333,998.895 774.564333,998.895 C772.218333,998.895 770.229333,998.13 768.699333,996.702 C766.914333,994.917 765.945333,991.959 765.945333,988.185 C765.945333,981.453 769.107333,977.475 774.564333,977.475 Z M774.564333,980.076 C770.892333,980.076 768.852333,983.034 768.852333,988.185 C768.852333,993.336 770.943333,996.294 774.564333,996.294 C778.185333,996.294 780.225333,993.336 780.225333,988.185 C780.225333,982.983 778.185333,980.076 774.564333,980.076 Z M735.608,963.056 C733.848,965.608 732.792,967.016 729.624,970.888 L712.728,991.832 L735.168,991.832 L735.168,973.616 C735.168,969.48 735.256,966.664 735.608,963.056 Z M616.016,963.056 C614.256,965.608 613.2,967.016 610.032,970.888 L593.136,991.832 L615.576,991.832 L615.576,973.616 C615.576,969.48 615.664,966.664 616.016,963.056 Z M1184.36,958.016 C1175.912,958.016 1170.016,964 1170.016,972.448 C1170.016,980.984 1175.472,986.528 1184.008,986.528 C1192.632,986.528 1199.144,980.368 1199.144,972.184 C1199.144,963.912 1193.072,958.016 1184.36,958.016 Z M794.02,864 C794.32,865.68 795.1,868.2 796.12,870.54 L804.46,889.8 L811.9,870.6 C813.16,867.3 813.64,865.74 813.94,864 L820.42,864 C820.12,864.78 819.1,867.18 817.42,871.14 L803.92,903.72 C802.24,907.74 799.36,909.6 794.74,909.6 C793.3,909.6 791.8,909.42 789.46,908.94 L790.78,903.72 C792.46,904.5 793.48,904.8 794.68,904.8 C796.66,904.8 798.16,903.66 799.06,901.56 L801.64,895.56 L790.6,871.14 C790,869.833333 789.533333,868.817037 789.163128,868.012757 L789.079317,867.830292 L789.079317,863.999292 L794.02,864 Z M1217.5,851.84 C1230.46,851.84 1238.68,861.14 1238.68,875.84 C1238.68,890.48 1230.4,899.9 1217.44,899.9 C1204.54,899.9 1196.26,890.54 1196.26,875.84 C1196.26,861.26 1204.6,851.84 1217.5,851.84 Z M1178,851.84 C1183.76,851.84 1188.32,853.46 1191.74,856.76 C1194.02,858.98 1195.16,860.9 1196.6,864.74 L1190.78,866.3 C1189.94,863.72 1189.28,862.52 1188.02,861.02 C1185.74,858.32 1182.26,856.88 1178.12,856.88 C1168.7,856.88 1162.88,864.14 1162.88,875.78 C1162.88,887.42 1168.82,894.8 1178.12,894.8 C1182.74,894.8 1186.58,893.06 1188.86,889.94 C1190.12,888.2 1190.66,886.76 1191.2,884.06 L1197.2,885.32 C1196.12,889.04 1195.28,890.96 1193.72,893 C1190.36,897.38 1184.72,899.84 1177.94,899.84 C1172,899.84 1167.02,897.98 1163.54,894.38 C1159.34,890.12 1157,883.52 1157,875.96 C1157,868.1 1159.52,861.44 1164.08,857 C1167.62,853.58 1172.24,851.84 1178,851.84 Z M1716.095,860.899 C1720.94,860.899 1724.306,862.786 1726.346,866.764 C1726.244,865.948 1726.193,865.336 1726.193,864.622 L1726.193,861.409 L1729.508,861.409 C1729.253,863.296 1729.151,864.571 1729.151,866.968 L1729.151,885.583 C1729.151,890.071 1728.284,893.437 1726.499,895.681 C1724.459,898.333 1720.838,899.761 1716.197,899.761 C1711.352,899.761 1708.343,898.384 1705.079,894.661 L1707.782,892.774 C1708.445,893.692 1708.751,894.049 1709.312,894.559 C1711.352,896.293 1713.494,897.058 1716.35,897.058 C1721.093,897.058 1724.153,895.018 1725.428,890.938 C1725.938,889.255 1725.938,889.255 1726.346,882.88 C1725.53,884.308 1725.02,885.022 1724.102,885.889 C1722.113,887.725 1719.257,888.745 1716.044,888.745 C1708.445,888.745 1703.753,883.441 1703.753,874.975 C1703.753,866.458 1708.649,860.899 1716.095,860.899 Z M1287.2,865.04 C1291.76,865.04 1295.06,866.06 1297.22,868.16 C1299.02,869.84 1299.8,872.12 1299.8,875.42 L1299.8,892.1 C1299.8,895.04 1299.92,896.48 1300.28,899 L1294.58,899 L1294.58,894.98 C1292.3,896.96 1291.22,897.68 1289.24,898.4 C1287.2,899.18 1284.98,899.54 1282.64,899.54 C1275.92,899.54 1271.78,896 1271.78,890.18 C1271.78,885.56 1274.72,881.96 1279.88,880.28 C1283.48,879.14 1286.78,878.72 1294.58,878.54 L1294.58,875.42 C1294.58,871.34 1292.24,869.42 1287.14,869.42 C1283.9,869.42 1281.5,870.26 1279.88,871.94 C1279.1,872.78 1278.68,873.56 1278.14,875.18 L1272.56,874.1 C1273.64,871.1 1274.54,869.72 1276.28,868.34 C1278.92,866.12 1282.58,865.04 1287.2,865.04 Z M1255.62,851.84 C1264.98,851.84 1271.04,856.58 1271.04,863.9 C1271.04,866.72 1270.02,869.54 1268.22,871.7 C1266.3,874.1 1264.8,875.3 1257.96,879.86 C1250.04,885.14 1246.98,888.56 1245.42,893.9 L1263.96,893.9 C1267.14,893.9 1269.6,893.78 1271.7,893.48 L1271.7,899.3 C1269.12,899.06 1267.08,899 1263.84,899 L1245.36,899 C1241.34,899 1240.38,899.06 1238.4,899.24 C1239,894.68 1239.18,893.72 1240.08,891.44 C1241.64,887.48 1244.16,884.06 1248,880.7 C1249.98,878.96 1251.42,877.94 1257.36,873.92 C1263.06,870.08 1265.04,867.5 1265.04,863.9 C1265.04,859.52 1261.38,856.76 1255.68,856.76 C1251.78,856.76 1248.96,858.02 1247.22,860.54 C1246.14,862.1 1245.66,863.54 1245.18,866.48 L1239.12,865.58 C1239.96,861.26 1240.98,858.98 1243.02,856.64 C1245.84,853.46 1250.1,851.84 1255.62,851.84 Z M780.62,855 C780.38,856.92 780.2,859.26 780.2,861.84 L780.2,864 L782.96,864 C785.78,864 787.1,863.94 789.08,863.64 L789.079317,863.999292 L787.24,864 C787.741111,864.956667 787.861749,865.186975 789.072564,867.816059 L789.079317,867.830292 L789.08,868.92 C787.16,868.62 785.78,868.56 783.02,868.56 L780.2,868.56 L780.2,888.72 C780.2,890.46 780.44,891.3 781.04,891.9 C781.64,892.44 782.66,892.8 783.92,892.8 C785.54,892.8 786.74,892.44 788.6,891.36 L789.92,896.22 C787.4,897.24 785.48,897.6 782.96,897.6 C780.08,897.6 777.92,896.94 776.6,895.74 C775.28,894.48 774.74,892.68 774.74,889.62 L774.74,868.56 L772.34,868.56 C770.24,868.56 768.92,868.68 767,868.92 L767,863.64 C768.586667,863.923333 769.745185,863.992593 771.991914,863.999414 L774.74,864 L774.74,861.84 C774.74,859.44 774.56,857.04 774.32,855 L780.62,855 Z M755.32,850.74 C755.02,853.26 754.9,855.12 754.9,857.88 L754.9,889.74 C754.9,892.86 755.02,894.66 755.32,897 L749.56,897 L749.56,894.3 C749.56,893.58 749.68,892.5 749.74,891.72 C746.68,895.8 742.96,897.6 737.62,897.6 C733.24,897.6 729.7,896.34 727.12,893.82 C724,890.7 722.32,886.02 722.32,880.44 C722.32,869.94 728.2,863.28 737.5,863.28 C742.84,863.28 747.04,865.32 749.74,869.16 C749.68,868.5 749.68,868.5 749.62,867.48 C749.57,867.13 749.561667,866.405 749.560278,865.6175 L749.56,857.88 C749.56,854.94 749.44,853.02 749.14,850.74 L755.32,850.74 Z M631.84,864 C631.54,866.52 631.42,868.26 631.42,871.08 L631.42,884.94 C631.42,890.22 633.76,892.92 638.32,892.92 C641.44,892.92 644.02,891.6 646.48,888.66 C648.1,886.74 648.88,885.3 649.54,882.84 L649.54,871.08 C649.54,868.44 649.42,866.4 649.12,864 L655.42,864 C655.06,866.4 654.94,868.02 654.94,871.08 L654.94,889.92 C654.94,892.86 655.06,894.6 655.42,897 L649.54,897 L649.540195,893.201901 C649.541661,892.592803 649.554118,892.203529 649.66,890.88 C646.66,895.44 642.82,897.54 637.54,897.54 C633.16,897.54 629.74,895.98 627.76,893.1 C626.56,891.3 625.96,888.96 625.96,885.78 L625.96,871.02 C625.96,867.9 625.84,866.04 625.54,864 L631.84,864 Z M697.2,863.34 C701.16,863.34 704.16,864.54 706.02,866.94 C707.64,868.92 708.3,871.38 708.3,875.1 L708.3,889.98 C708.3,893.1 708.42,894.84 708.72,897 L702.42,897 C702.763636,894.709091 702.833926,893.347562 702.839606,890.358375 L702.84,875.94 C702.84,872.28 702.18,870.36 700.38,869.1 C699.36,868.38 697.98,868.02 696.3,868.02 C693.48,868.02 690.84,869.52 689.04,872.16 C687.96,873.72 686.94,876.6 686.94,878.1 L686.94,889.98 C686.94,893.1 687.06,894.84 687.36,897 L681.06,897 C681.36,894.84 681.48,893.04 681.48,889.92 L681.48,875.94 C681.48,870.72 679.26,868.02 675,868.02 C672.3,868.02 669.48,869.7 667.62,872.4 C666.6,873.9 665.52,876.9 665.52,878.1 L665.52,889.92 C665.52,892.86 665.64,894.54 665.94,897 L659.7,897 C660,894.72 660.12,892.92 660.12,889.92 L660.12,871.08 C660.12,867.78 660,866.16 659.7,864 L665.52,864 L665.52,867 C665.52,867.18 665.46,868.08 665.46,868.26 C665.4,868.8 665.4,868.8 665.4,869.16 C667.56,865.38 671.4,863.34 676.2,863.34 C679.62,863.34 682.2,864.3 684,866.28 C684.9,867.18 685.26,867.9 685.86,869.58 C688.86,865.14 692.1,863.34 697.2,863.34 Z M589.04,850.74 C588.68,853.02 588.56,854.7 588.56,857.64 L588.56,870.12 L614.9,870.12 L614.9,857.76 C614.9,854.76 614.78,852.84 614.42,850.74 L620.96,850.74 C620.6,853.08 620.48,854.64 620.48,857.64 L620.48,889.98 C620.48,893.1 620.6,894.66 620.96,897 L614.42,897 C614.78,894.78 614.9,893.04 614.9,889.98 L614.9,875.22 L588.56,875.22 L588.56,889.98 C588.56,893.1 588.68,894.78 589.04,897 L582.5,897 C582.86,894.96 582.98,893.1 582.98,889.98 L582.98,857.76 C582.98,854.64 582.86,852.96 582.5,850.74 L589.04,850.74 Z M766.08,864 C765.78,866.16 765.66,867.9 765.66,871.14 L765.66,889.92 C765.66,892.8 765.78,894.48 766.08,897 L759.72,897 C760.02,894.36 760.14,892.68 760.14,889.92 L760.14,871.08 C760.14,868.08 760.02,866.1 759.72,864 L766.08,864 Z M719.42,864 C719.12,866.16 719,867.9 719,871.14 L719,889.92 C719,892.8 719.12,894.48 719.42,897 L713.06,897 C713.36,894.36 713.48,892.68 713.48,889.92 L713.48,871.08 C713.48,868.08 713.36,866.1 713.06,864 L719.42,864 Z M1750.129,850.138 L1731.769,896.446 L1728.607,896.446 L1746.967,850.138 L1750.129,850.138 Z M1294.58,882.62 C1287.74,882.8 1284.38,883.22 1281.74,884.3 C1278.74,885.5 1277.24,887.42 1277.24,890.18 C1277.24,893.3 1279.58,895.28 1283.36,895.28 C1286.66,895.28 1290.26,893.78 1292.6,891.38 C1294.04,889.88 1294.58,888.44 1294.58,886.22 L1294.58,882.62 Z M1676.655,861.715 C1675.992,863.194 1675.431,864.826 1674.819,867.223 L1672.371,876.097 C1672.014,877.321 1671.861,878.545 1671.861,879.769 C1671.861,884.053 1674.054,886.45 1678.083,886.45 C1680.633,886.45 1682.877,885.43 1685.019,883.339 C1686.549,881.758 1687.518,879.922 1688.334,876.811 L1690.935,867.223 C1691.751,864.214 1691.853,863.5 1692.057,861.715 L1696.035,861.715 C1695.321,863.143 1695.066,863.959 1694.148,867.223 L1690.017,882.319 C1689.813,882.982 1689.711,883.645 1689.711,884.155 C1689.711,885.634 1690.629,886.501 1692.057,886.501 C1693.434,886.501 1694.505,885.889 1695.729,884.41 L1697.208,886.858 C1695.321,888.541 1693.689,889.255 1691.547,889.255 C1688.895,889.255 1687.314,887.725 1687.314,885.277 C1687.314,884.767 1687.416,884.308 1687.62,883.339 C1685.682,887.113 1682.163,889.255 1677.726,889.255 C1675.38,889.255 1673.697,888.643 1672.269,887.317 C1671.3,886.348 1670.943,885.685 1670.331,883.849 L1668.648,889.816 C1667.985,892.366 1667.73,893.488 1667.628,895.069 L1663.65,895.069 C1664.262,893.692 1664.874,891.958 1665.486,889.612 L1671.555,867.172 C1672.371,864.214 1672.575,863.245 1672.677,861.715 L1676.655,861.715 Z M1217.5,856.88 C1208.14,856.88 1202.08,864.32 1202.08,875.84 C1202.08,887.3 1208.2,894.86 1217.56,894.86 C1226.86,894.86 1232.8,887.48 1232.8,875.9 C1232.8,869.42 1231,864.26 1227.64,860.9 C1225,858.26 1221.46,856.88 1217.5,856.88 Z M738.16,867.96 C731.8,867.96 727.96,872.64 727.96,880.26 C727.96,885 729.28,888.66 731.62,890.7 C733.36,892.2 735.7,892.98 738.22,892.98 C745.06,892.98 749.5,887.94 749.5,880.26 C749.5,876.48 748.36,873.18 746.32,871.2 C744.22,869.1 741.34,867.96 738.16,867.96 Z M1778.961,860.848 C1784.877,860.848 1787.835,864.01 1787.835,870.283 L1787.835,882.982 C1787.835,885.481 1787.937,886.756 1788.192,888.439 L1784.316,888.439 C1784.571,886.654 1784.673,885.43 1784.673,882.931 L1784.673,870.742 C1784.673,865.744 1782.786,863.551 1778.451,863.551 C1773.963,863.551 1770.189,867.835 1770.189,872.935 L1770.189,882.982 C1770.189,885.43 1770.291,886.756 1770.546,888.439 L1766.721,888.439 C1766.976,886.756 1767.078,885.43 1767.078,882.931 L1767.078,870.742 C1767.078,866.101 1764.936,863.551 1761.111,863.551 C1758.255,863.551 1755.705,865.03 1754.124,867.58 C1753.206,869.059 1752.594,871.201 1752.594,872.935 L1752.594,882.931 C1752.594,885.175 1752.696,886.45 1752.951,888.439 L1749.177,888.439 C1749.432,886.654 1749.534,885.175 1749.534,882.931 L1749.534,866.917 C1749.534,864.52 1749.432,863.194 1749.177,861.409 L1752.594,861.409 L1752.59376,864.64438 C1752.59219,865.01232 1752.5804,865.3394 1752.492,866.356 C1752.849,865.438 1753.308,864.775 1754.226,863.755 C1755.96,861.868 1758.459,860.848 1761.519,860.848 C1764.375,860.848 1766.568,861.715 1768.047,863.5 C1768.761,864.367 1769.067,865.03 1769.526,866.662 C1771.872,862.582 1774.677,860.848 1778.961,860.848 Z M1716.401,863.602 C1710.587,863.602 1706.966,867.937 1706.966,874.975 C1706.966,881.86 1710.434,886.042 1716.095,886.042 C1722.113,886.042 1726.091,881.503 1726.091,874.516 C1726.091,867.835 1722.317,863.602 1716.401,863.602 Z M1795.808,849.679 C1799.939,849.679 1802.54,851.872 1802.54,855.442 C1802.54,858.298 1801.01,860.083 1798.103,860.593 C1801.622,861.001 1803.458,862.888 1803.458,866.152 C1803.458,870.028 1800.5,872.476 1795.757,872.476 C1793.207,872.476 1791.218,871.762 1789.79,870.385 C1788.974,869.569 1788.515,868.855 1787.903,867.223 L1790.912,866.407 C1791.32,867.784 1791.575,868.243 1792.289,868.753 C1793.258,869.518 1794.38,869.875 1795.808,869.875 C1798.919,869.875 1800.704,868.396 1800.704,865.846 C1800.704,863.296 1798.766,861.868 1795.196,861.868 C1794.38,861.868 1793.564,861.919 1792.799,862.021 L1792.799,859.267 C1793.411,859.369 1793.921,859.42 1794.992,859.42 C1798.103,859.42 1799.786,858.043 1799.786,855.544 C1799.786,853.351 1798.409,852.229 1795.859,852.229 C1793.36,852.229 1792.034,853.249 1791.575,855.493 L1788.617,854.779 C1789.076,853.3 1789.433,852.637 1790.147,851.872 C1791.473,850.444 1793.411,849.679 1795.808,849.679 Z M766.26,850.74 L766.26,856.74 L759.6,856.74 L759.6,850.74 L766.26,850.74 Z M719.6,850.74 L719.6,856.74 L712.94,856.74 L712.94,850.74 L719.6,850.74 Z M1935.456,663.536 L1935.456,681.428 C1929.208,680.576 1923.67,680.292 1915.86,680.292 L1882.49,680.292 L1880.218,705.142 C1880.076,706.278 1879.792,708.266 1879.366,711.106 C1886.324,705.142 1893.85,702.444 1903.648,702.444 C1915.15,702.444 1924.38,705.852 1931.338,713.094 C1938.296,719.91 1941.42,728.43 1941.42,739.79 C1941.42,764.782 1925.09,780.26 1898.678,780.26 C1884.62,780.26 1874.112,776.284 1866.302,767.906 C1862.468,763.788 1860.48,760.38 1857.356,752.428 L1876.952,748.31 C1878.23,752.428 1879.224,754.274 1881.212,756.546 C1885.188,761.374 1891.152,763.788 1898.678,763.788 C1912.736,763.788 1921.966,754.416 1921.966,740.358 C1921.966,726.442 1913.162,717.496 1899.672,717.496 C1892.714,717.496 1886.466,719.768 1882.064,724.028 C1880.076,726.016 1879.082,727.294 1877.804,730.418 L1860.054,728.714 C1861.474,718.632 1861.616,717.922 1861.9,713.946 L1865.166,678.73 C1865.308,676.174 1865.592,671.346 1865.734,664.246 C1869.8875,664.5229 1873.09608,664.664811 1880.22946,664.671734 L1915.718,664.672 C1925.516,664.672 1929.066,664.53 1935.456,663.536 Z M1791.79933,662.4 C1803.86933,662.4 1814.23533,666.376 1821.76133,673.902 C1826.02133,678.162 1829.28733,683.132 1831.13333,688.244 C1834.82533,698.184 1836.67133,709.544 1836.67133,721.188 C1836.67133,738.654 1832.83733,753.99 1826.16333,763.22 C1818.21133,774.296 1806.42533,779.976 1791.65733,779.976 C1779.58733,779.976 1769.36333,776 1761.83733,768.474 C1757.57733,764.214 1754.31133,759.244 1752.46533,754.132 C1748.77333,744.05 1746.92733,732.974 1746.92733,721.472 C1746.92733,706.42 1750.33533,690.8 1755.58933,682.138 C1763.25733,669.358 1776.03733,662.4 1791.79933,662.4 Z M1707.262,662.4 C1732.112,662.4 1747.448,674.328 1747.448,693.782 C1747.448,703.154 1744.324,709.97 1737.366,716.502 C1733.39,720.194 1731.97,721.33 1713.51,733.968 C1707.262,738.37 1700.162,744.334 1696.612,748.168 C1692.352,752.712 1690.648,755.552 1688.518,760.948 L1728.278,760.948 C1737.224,760.948 1744.324,760.522 1749.01,759.812 L1749.01,778.556 C1742.336,777.988 1736.656,777.704 1727.568,777.704 L1681.986,777.704 C1670.91,777.704 1668.638,777.846 1663.668,778.414 C1664.52,770.32 1665.514,765.35 1667.36,760.238 C1671.194,749.872 1677.584,740.784 1686.814,732.406 C1691.784,728.004 1696.044,724.738 1710.244,715.224 C1723.308,706.278 1727.284,701.592 1727.284,694.35 C1727.284,684.694 1719.758,678.73 1707.688,678.73 C1699.452,678.73 1693.204,681.57 1689.654,687.108 C1687.24,690.516 1686.246,693.64 1685.252,700.172 L1664.946,697.758 C1666.934,686.966 1669.49,681.144 1674.744,675.038 C1681.844,666.802 1693.062,662.4 1707.262,662.4 Z M1856.03067,756.972 L1856.03067,777.704 L1835.29867,777.704 L1835.29867,756.972 L1856.03067,756.972 Z M584.503966,769.496038 L1033.00396,770.003966 L1032.99604,777.003962 L584.496038,776.496038 L584.503966,769.496038 Z M1136.75397,769.246038 L1585.25396,769.753966 L1585.24604,776.753962 L1136.74604,776.246038 L1136.75397,769.246038 Z M1791.65733,678.73 C1784.84133,678.73 1779.87133,681.002 1775.75333,685.972 C1769.50533,693.356 1766.38133,705 1766.38133,720.478 C1766.38133,735.388 1769.07933,747.742 1773.62333,754.274 C1778.02533,760.522 1783.98933,763.504 1791.79933,763.504 C1798.04733,763.504 1803.58533,761.374 1807.13533,757.54 C1813.52533,750.866 1817.07533,737.66 1817.07533,721.046 C1817.07533,704.574 1813.52533,691.652 1807.13533,684.694 C1803.72733,680.86 1798.04733,678.73 1791.65733,678.73 Z M1448.03567,678.899 C1452.88067,678.899 1456.24667,680.786 1458.28667,684.764 C1458.18467,683.948 1458.13367,683.336 1458.13367,682.622 L1458.13367,679.409 L1461.44867,679.409 C1461.19367,681.296 1461.09167,682.571 1461.09167,684.968 L1461.09167,703.583 C1461.09167,708.071 1460.22467,711.437 1458.43967,713.681 C1456.39967,716.333 1452.77867,717.761 1448.13767,717.761 C1443.29267,717.761 1440.28367,716.384 1437.01967,712.661 L1439.72267,710.774 C1440.38567,711.692 1440.69167,712.049 1441.25267,712.559 C1443.29267,714.293 1445.43467,715.058 1448.29067,715.058 C1453.03367,715.058 1456.09367,713.018 1457.36867,708.938 C1457.87867,707.255 1457.87867,707.255 1458.28667,700.88 C1457.47067,702.308 1456.96067,703.022 1456.04267,703.889 C1454.05367,705.725 1451.19767,706.745 1447.98467,706.745 C1440.38567,706.745 1435.69367,701.441 1435.69367,692.975 C1435.69367,684.458 1440.58967,678.899 1448.03567,678.899 Z M1482.06967,668.138 L1463.70967,714.446 L1460.54767,714.446 L1478.90767,668.138 L1482.06967,668.138 Z M1357.83733,636.424 C1372.53333,636.424 1382.03733,643.816 1382.03733,655.256 C1382.03733,660.536 1379.74933,665.376 1375.96533,668.192 C1374.02933,669.688 1372.09333,670.392 1367.42933,671.624 C1373.67733,672.592 1376.93333,674.088 1380.01333,677.52 C1382.91733,680.776 1384.23733,684.472 1384.23733,689.664 C1384.23733,694.416 1382.21333,699.256 1378.95733,702.512 C1374.11733,707.176 1366.72533,709.64 1357.30933,709.64 C1347.01333,709.64 1339.97333,707 1334.95733,701.28 C1332.75733,698.816 1331.61333,696.528 1330.02933,691.424 L1342.61333,688.96 C1343.75733,693.008 1344.54933,694.416 1346.74933,696.176 C1349.65333,698.464 1353.17333,699.608 1357.39733,699.608 C1366.10933,699.608 1371.65333,695.12 1371.65333,688.168 C1371.65333,684.12 1369.89333,680.776 1366.72533,678.928 C1364.61333,677.696 1360.47733,676.816 1356.60533,676.816 C1352.73333,676.816 1350.18133,676.904 1347.18933,677.256 L1347.18933,666.344 C1350.00533,666.696 1351.94133,666.784 1355.72533,666.784 C1364.52533,666.784 1369.71733,662.736 1369.71733,655.96 C1369.71733,649.888 1365.58133,646.456 1358.10133,646.456 C1353.78933,646.456 1350.62133,647.424 1348.50933,649.184 C1346.74933,650.856 1345.86933,652.352 1344.81333,655.96 L1332.22933,653.848 C1334.42933,647.336 1336.45333,644.256 1340.58933,641.264 C1345.07733,638.008 1350.79733,636.424 1357.83733,636.424 Z M751.184,637.304 L751.184,648.392 C747.312,647.864 743.88,647.688 739.04,647.688 L718.36,647.688 L716.952,663.088 C716.864,663.792 716.688,665.024 716.424,666.784 C720.736,663.088 725.4,661.416 731.472,661.416 C738.6,661.416 744.32,663.528 748.632,668.016 C752.944,672.24 754.88,677.52 754.88,684.56 C754.88,700.048 744.76,709.64 728.392,709.64 C719.68,709.64 713.168,707.176 708.328,701.984 C705.952,699.432 704.72,697.32 702.784,692.392 L714.928,689.84 C715.72,692.392 716.336,693.536 717.568,694.944 C720.032,697.936 723.728,699.432 728.392,699.432 C737.104,699.432 742.824,693.624 742.824,684.912 C742.824,676.288 737.368,670.744 729.008,670.744 C724.696,670.744 720.824,672.152 718.096,674.792 C716.864,676.024 716.248,676.816 715.456,678.752 L704.456,677.696 C705.336,671.448 705.424,671.008 705.6,668.544 L707.624,646.72 C707.712,645.136 707.888,642.144 707.976,637.744 C710.524966,637.913931 712.499681,638.001826 716.830801,638.007686 L738.952,638.008 C745.024,638.008 747.224,637.92 751.184,637.304 Z M664.269333,636.688 C671.837333,636.688 678.085333,638.976 682.309333,643.376 C684.597333,645.752 685.917333,647.776 687.853333,652.352 L675.973333,655.168 C673.685333,648.744 670.429333,646.28 664.181333,646.28 C657.933333,646.28 653.357333,649.36 650.365333,655.432 C648.165333,660.008 647.197333,664.232 646.757333,671.008 C651.509333,664.584 656.701333,662.208 665.589333,662.208 C674.565333,662.208 682.133333,666.08 686.005333,672.68 C688.117333,676.112 689.173333,680.688 689.173333,685.88 C689.173333,699.784 678.613333,709.64 663.653333,709.64 C656.613333,709.64 650.101333,707.528 645.789333,703.832 C639.277333,698.2 635.581333,687.64 635.581333,674.352 C635.581333,663.528 638.309333,653.144 642.797333,647.16 C647.989333,640.12 655.029333,636.688 664.269333,636.688 Z M1185.328,636.6 C1192.808,636.6 1199.232,639.064 1203.896,643.728 C1206.536,646.368 1208.56,649.448 1209.704,652.616 C1211.992,658.776 1213.136,665.816 1213.136,673.032 C1213.136,683.856 1210.76,693.36 1206.624,699.08 C1201.696,705.944 1194.392,709.464 1185.24,709.464 C1177.76,709.464 1171.424,707 1166.76,702.336 C1164.12,699.696 1162.096,696.616 1160.952,693.448 C1158.664,687.2 1157.52,680.336 1157.52,673.208 C1157.52,663.88 1159.632,654.2 1162.888,648.832 C1167.64,640.912 1175.56,636.6 1185.328,636.6 Z M609.768,636.6 C625.168,636.6 634.672,643.992 634.672,656.048 C634.672,661.856 632.736,666.08 628.424,670.128 C625.96,672.416 625.08,673.12 613.64,680.952 C609.768,683.68 605.368,687.376 603.168,689.752 C600.528,692.568 599.472,694.328 598.152,697.672 L622.792,697.672 C628.336,697.672 632.736,697.408 635.64,696.968 L635.64,708.584 C631.504,708.232 627.984,708.056 622.352,708.056 L594.104,708.056 C587.24,708.056 585.832,708.144 582.752,708.496 C583.28,703.48 583.896,700.4 585.04,697.232 C587.416,690.808 591.376,685.176 597.096,679.984 C600.176,677.256 602.816,675.232 611.616,669.336 C619.712,663.792 622.176,660.888 622.176,656.4 C622.176,650.416 617.512,646.72 610.032,646.72 C604.928,646.72 601.056,648.48 598.856,651.912 C597.36,654.024 596.744,655.96 596.128,660.008 L583.544,658.512 C584.776,651.824 586.36,648.216 589.616,644.432 C594.016,639.328 600.968,636.6 609.768,636.6 Z M1234.31467,637.48 C1236.93774,637.903077 1238.82857,638.00071 1242.64703,638.007594 L1251.21067,638.008 C1255.69867,638.008 1257.01867,637.92 1260.18667,637.568 C1259.65867,642.76 1259.48267,646.808 1259.48267,652.088 L1259.48267,696.616 C1259.48267,701.28 1259.65867,704.448 1260.18667,708.056 L1246.89867,708.056 C1247.42667,704.624 1247.60267,701.192 1247.60267,696.616 L1247.60267,648.128 L1243.37867,648.128 C1240.12267,648.128 1237.57067,648.304 1234.31467,648.656 L1234.31467,637.48 Z M701.962667,695.208 L701.962667,708.056 L689.114667,708.056 L689.114667,695.208 L701.962667,695.208 Z M1278.696,637.392 C1282.744,637.832 1285.56,638.008 1290.752,638.008 L1319.67167,638.007351 C1325.56131,637.998786 1327.77854,637.902829 1330.792,637.568 L1330.792,647.776 C1327.976,650.504 1325.424,654.112 1321.64,660.448 C1312.312,676.024 1307.648,689.488 1305.272,708.056 L1291.368,708.056 C1294.272,693.36 1296.912,684.912 1302.016,674 C1306.064,665.288 1309.672,659.304 1317.416,648.392 L1290.224,648.392 C1285.032,648.392 1282.304,648.568 1278.696,649.008 L1278.696,637.392 Z M1225.13333,695.208 L1225.13333,708.056 L1212.28533,708.056 L1212.28533,695.208 L1225.13333,695.208 Z M799.367333,667.424 C804.008333,667.424 807.833333,668.801 810.536333,671.453 C812.219333,673.136 813.137333,674.564 814.412333,677.624 L811.097333,678.695 C810.281333,676.4 809.720333,675.38 808.649333,674.156 C806.507333,671.657 803.294333,670.331 799.469333,670.331 C790.952333,670.331 785.546333,676.859 785.546333,687.212 C785.546333,697.565 791.003333,704.144 799.469333,704.144 C803.651333,704.144 807.170333,702.563 809.312333,699.707 C810.485333,698.177 811.046333,696.902 811.505333,694.556 L814.922333,695.474 C814.055333,698.228 813.443333,699.554 812.372333,701.084 C809.567333,704.96 804.926333,707.102 799.265333,707.102 C794.522333,707.102 790.493333,705.572 787.688333,702.716 C784.118333,699.146 782.180333,693.74 782.180333,687.365 C782.180333,686.0696 782.259893,684.81296 782.416565,683.602424 L782.459317,683.289292 L782.353239,683.469335 C780.774508,686.056101 778.027057,687.569 774.513333,687.569 C768.750333,687.569 765.078333,683.744 765.078333,677.675 C765.078333,671.606 768.750333,667.73 774.462333,667.73 C780.225333,667.73 783.846333,671.555 783.846333,677.624 L783.843067,677.933402 L783.842317,677.941292 L783.93444,677.71005 C784.877341,675.400017 786.188933,673.38845 787.841333,671.759 C790.748333,668.852 794.573333,667.424 799.367333,667.424 Z M1510.90167,678.848 C1516.81767,678.848 1519.77567,682.01 1519.77567,688.283 L1519.77567,700.982 C1519.77567,703.481 1519.87767,704.756 1520.13267,706.439 L1516.25667,706.439 C1516.51167,704.654 1516.61367,703.43 1516.61367,700.931 L1516.61367,688.742 C1516.61367,683.744 1514.72667,681.551 1510.39167,681.551 C1505.90367,681.551 1502.12967,685.835 1502.12967,690.935 L1502.12967,700.982 C1502.12967,703.43 1502.23167,704.756 1502.48667,706.439 L1498.66167,706.439 C1498.91667,704.756 1499.01867,703.43 1499.01867,700.931 L1499.01867,688.742 C1499.01867,684.101 1496.87667,681.551 1493.05167,681.551 C1490.19567,681.551 1487.64567,683.03 1486.06467,685.58 C1485.14667,687.059 1484.53467,689.201 1484.53467,690.935 L1484.53467,700.931 C1484.53467,703.175 1484.63667,704.45 1484.89167,706.439 L1481.11767,706.439 C1481.37267,704.654 1481.47467,703.175 1481.47467,700.931 L1481.47467,684.917 C1481.47467,682.52 1481.37267,681.194 1481.11767,679.409 L1484.53467,679.409 L1484.53442,682.64438 C1484.53285,683.01232 1484.52107,683.3394 1484.43267,684.356 C1484.78967,683.438 1485.24867,682.775 1486.16667,681.755 C1487.90067,679.868 1490.39967,678.848 1493.45967,678.848 C1496.31567,678.848 1498.50867,679.715 1499.98767,681.5 C1500.70167,682.367 1501.00767,683.03 1501.46667,684.662 C1503.81267,680.582 1506.61767,678.848 1510.90167,678.848 Z M1426.03767,678.848 C1431.95367,678.848 1434.91167,682.01 1434.91167,688.283 L1434.91167,700.982 C1434.91167,703.481 1435.01367,704.756 1435.26867,706.439 L1431.39267,706.439 C1431.64767,704.654 1431.74967,703.43 1431.74967,700.931 L1431.74967,688.742 C1431.74967,683.744 1429.86267,681.551 1425.52767,681.551 C1421.03967,681.551 1417.26567,685.835 1417.26567,690.935 L1417.26567,700.982 C1417.26567,703.43 1417.36767,704.756 1417.62267,706.439 L1413.79767,706.439 C1414.05267,704.756 1414.15467,703.43 1414.15467,700.931 L1414.15467,688.742 C1414.15467,684.101 1412.01267,681.551 1408.18767,681.551 C1405.33167,681.551 1402.78167,683.03 1401.20067,685.58 C1400.28267,687.059 1399.67067,689.201 1399.67067,690.935 L1399.67067,700.931 C1399.67067,703.175 1399.77267,704.45 1400.02767,706.439 L1396.25367,706.439 C1396.50867,704.654 1396.61067,703.175 1396.61067,700.931 L1396.61067,684.917 C1396.61067,682.52 1396.50867,681.194 1396.25367,679.409 L1399.67067,679.409 L1399.67042,682.64438 C1399.66885,683.01232 1399.65707,683.3394 1399.56867,684.356 C1399.92567,683.438 1400.38467,682.775 1401.30267,681.755 C1403.03667,679.868 1405.53567,678.848 1408.59567,678.848 C1411.45167,678.848 1413.64467,679.715 1415.12367,681.5 C1415.83767,682.367 1416.14367,683.03 1416.60267,684.662 C1418.94867,680.582 1421.75367,678.848 1426.03767,678.848 Z M386,673 C394.836556,673 402,680.163444 402,689 C402,697.836556 394.836556,705 386,705 C377.163444,705 370,697.836556 370,689 C370,680.163444 377.163444,673 386,673 Z M1448.34167,681.602 C1442.52767,681.602 1438.90667,685.937 1438.90667,692.975 C1438.90667,699.86 1442.37467,704.042 1448.03567,704.042 C1454.05367,704.042 1458.03167,699.503 1458.03167,692.516 C1458.03167,685.835 1454.25767,681.602 1448.34167,681.602 Z M663.565333,671.8 C654.941333,671.8 648.517333,677.784 648.517333,685.88 C648.517333,693.888 654.765333,699.784 663.389333,699.784 C668.493333,699.784 672.981333,697.496 675.445333,693.624 C676.765333,691.6 677.469333,688.696 677.469333,685.616 C677.469333,676.904 672.277333,671.8 663.565333,671.8 Z M1185.24,646.72 C1181.016,646.72 1177.936,648.128 1175.384,651.208 C1171.512,655.784 1169.576,663 1169.576,672.592 C1169.576,681.832 1171.248,689.488 1174.064,693.536 C1176.792,697.408 1180.488,699.256 1185.328,699.256 C1189.2,699.256 1192.632,697.936 1194.832,695.56 C1198.792,691.424 1200.992,683.24 1200.992,672.944 C1200.992,662.736 1198.792,654.728 1194.832,650.416 C1192.72,648.04 1189.2,646.72 1185.24,646.72 Z M1527.74867,667.679 C1531.87967,667.679 1534.48067,669.872 1534.48067,673.442 C1534.48067,676.298 1532.95067,678.083 1530.04367,678.593 C1533.56267,679.001 1535.39867,680.888 1535.39867,684.152 C1535.39867,688.028 1532.44067,690.476 1527.69767,690.476 C1525.14767,690.476 1523.15867,689.762 1521.73067,688.385 C1520.91467,687.569 1520.45567,686.855 1519.84367,685.223 L1522.85267,684.407 C1523.26067,685.784 1523.51567,686.243 1524.22967,686.753 C1525.19867,687.518 1526.32067,687.875 1527.74867,687.875 C1530.85967,687.875 1532.64467,686.396 1532.64467,683.846 C1532.64467,681.296 1530.70667,679.868 1527.13667,679.868 C1526.32067,679.868 1525.50467,679.919 1524.73967,680.021 L1524.73967,677.267 C1525.35167,677.369 1525.86167,677.42 1526.93267,677.42 C1530.04367,677.42 1531.72667,676.043 1531.72667,673.544 C1531.72667,671.351 1530.34967,670.229 1527.79967,670.229 C1525.30067,670.229 1523.97467,671.249 1523.51567,673.493 L1520.55767,672.779 C1521.01667,671.3 1521.37367,670.637 1522.08767,669.872 C1523.41367,668.444 1525.35167,667.679 1527.74867,667.679 Z M774.564333,670.127 C770.484333,670.127 767.985333,672.983 767.985333,677.675 C767.985333,682.265 770.484333,685.121 774.462333,685.121 C778.491333,685.121 780.939333,682.316 780.939333,677.624 C780.939333,672.983 778.491333,670.127 774.564333,670.127 Z M783.842317,677.941292 L783.780709,678.097804 C783.179476,679.659762 782.742795,681.352306 782.478927,683.150648 L782.459317,683.288292 L782.482086,683.251295 C783.280874,681.854749 783.751001,680.162476 783.833304,678.239017 L783.842317,677.941292 Z M715.7,553.34 C725.24,553.34 731,559.76 731,570.38 C731,580.82 725.06,587.48 715.82,587.48 C710.6,587.48 706.58,585.56 703.52,581.66 C703.64,583.28 703.7,584.18 703.7,585.8 L703.7,592.16 C703.7,595.22 703.82,597.08 704.12,599.3 L697.94,599.3 C698.24,596.9 698.36,594.92 698.36,592.22 L698.36,561.2 C698.36,558.14 698.24,556.28 697.94,554 L703.64,554 L703.639716,557.331787 C703.637867,557.892 703.624,558.308 703.52,559.4 C706.4,555.32 710.36,553.34 715.7,553.34 Z M1835.32,542.26 L1835.32,548.08 C1832.92,547.72 1830.94,547.6 1827.94,547.6 L1813.84,547.6 L1812.64,560.02 C1812.58,561.04 1812.58,561.04 1812.22,562.72 C1815.16,559.96 1818.52,558.64 1822.66,558.64 C1831.78,558.64 1837.78,564.58 1837.78,573.64 C1837.78,583.6 1831.3,589.9 1821.04,589.9 C1816,589.9 1811.98,588.4 1808.98,585.46 C1807.42,583.9 1806.58,582.58 1805.2,579.58 L1811.08,578.02 C1811.68,579.76 1812.1,580.54 1812.94,581.56 C1814.86,583.72 1817.74,584.92 1821.1,584.92 C1827.64,584.92 1831.96,580.54 1831.96,573.88 C1831.96,567.28 1828,563.32 1821.34,563.32 C1818.34,563.32 1815.28,564.58 1813.18,566.74 C1812.4,567.52 1812.1,568 1811.56,569.26 L1806.22,568.78 C1806.7,566.08 1806.88,564.94 1807.06,562.54 L1808.38,548.62 C1808.59176,546.872941 1808.61668,546.340415 1808.61961,545.085215 L1808.61951,544.454952 C1808.61693,544.29472 1808.6008,544.0024 1808.5,542.44 C1810.23333,542.671111 1811.41029,542.735309 1814.54899,542.739747 L1827.88,542.74 C1831.42,542.74 1832.86,542.62 1835.32,542.26 Z M1774.62,541.84 C1783.98,541.84 1790.04,546.58 1790.04,553.9 C1790.04,556.72 1789.02,559.54 1787.22,561.7 C1785.3,564.1 1783.8,565.3 1776.96,569.86 C1769.04,575.14 1765.98,578.56 1764.42,583.9 L1782.96,583.9 C1786.14,583.9 1788.6,583.78 1790.7,583.48 L1790.7,589.3 C1788.12,589.06 1786.08,589 1782.84,589 L1764.36,589 C1760.34,589 1759.38,589.06 1757.4,589.24 C1758,584.68 1758.18,583.72 1759.08,581.44 C1760.64,577.48 1763.16,574.06 1767,570.7 C1768.98,568.96 1770.42,567.94 1776.36,563.92 C1782.06,560.08 1784.04,557.5 1784.04,553.9 C1784.04,549.52 1780.38,546.76 1774.68,546.76 C1770.78,546.76 1767.96,548.02 1766.22,550.54 C1765.14,552.1 1764.66,553.54 1764.18,556.48 L1758.12,555.58 C1758.96,551.26 1759.98,548.98 1762.02,546.64 C1764.84,543.46 1769.1,541.84 1774.62,541.84 Z M1713.16,542.74 C1713.58,544.66 1714.3,546.94 1715.2,549.04 L1729.23932,581.138292 L1743.28,549.04 C1744.36,546.52 1744.96,544.72 1745.32,542.74 L1753.42,542.74 C1753.06,545.2 1752.94,546.94 1752.94,550.36 L1752.94,581.44 C1752.94,585.04 1753.06,586.84 1753.42,589 L1747.12,589 C1747.42,587.02 1747.6,584.5 1747.6,581.44 L1747.6,559.9 C1747.6,557.74 1747.84,551.98 1748.02,549.28 C1747.06,552.94 1746.34,554.8 1744.3,559.42 L1734.1,582.28 C1732.84,585.04 1732.3,586.66 1731.7,589 L1726.66,589 C1726.36,587.26 1725.58,584.92 1724.32,582.22 L1714.42,559.78 C1712.68,555.88 1712.2,554.62 1710.46,549.22 C1710.69273,553.467273 1710.86904,558.222314 1710.87951,560.14787 L1710.88,581.44 C1710.88,584.86 1711,586.9 1711.36,589 L1705.06,589 C1705.42,586.72 1705.54,584.86 1705.54,581.44 L1705.54,550.36 C1705.54,547.12 1705.42,545.02 1705.06,542.74 L1713.16,542.74 Z M1668.5,542.56 C1670.66,542.68 1672.52,542.74 1675.34,542.74 L1687.7,542.74 C1697.36,542.74 1702.7,547.6 1702.7,556.24 C1702.7,565.36 1697.12,570.58 1687.4,570.58 L1674.56,570.58 L1674.56,581.92 C1674.56,584.92 1674.68,586.84 1675.04,589 L1668.5,589 C1668.86,586.72 1668.98,584.98 1668.98,581.98 L1668.98,549.64 C1668.98,547 1668.86,545.14 1668.5,542.56 Z M1801.28,582.22 L1801.28,589 L1794.5,589 L1794.5,582.22 L1801.28,582.22 Z M747.76,553.16 C755.86,553.16 761.56,558.26 762.76,566.66 C762.88,567.26 763,568.52 763.18,571.52 L737.68,571.52 C737.92,575.42 738.52,577.4 740.08,579.5 C741.94,582.02 744.76,583.34 748.24,583.34 C751.42,583.34 754.06,582.2 755.92,580.04 C756.82,579.08 757.24,578.3 757.84,576.56 L762.88,578.42 C761.74,580.94 760.96,582.14 759.52,583.52 C756.64,586.4 752.8,587.9 748.18,587.9 C738.46,587.9 732.28,581.18 732.28,570.5 C732.28,560 738.4,553.16 747.76,553.16 Z M911.38,553.16 C919.48,553.16 925.18,558.26 926.38,566.66 C926.5,567.26 926.62,568.52 926.8,571.52 L901.3,571.52 C901.54,575.42 902.14,577.4 903.7,579.5 C905.56,582.02 908.38,583.34 911.86,583.34 C915.04,583.34 917.68,582.2 919.54,580.04 C920.44,579.08 920.86,578.3 921.46,576.56 L926.5,578.42 C925.36,580.94 924.58,582.14 923.14,583.52 C920.26,586.4 916.42,587.9 911.8,587.9 C902.08,587.9 895.9,581.18 895.9,570.5 C895.9,560 902.02,553.16 911.38,553.16 Z M626.56,553.16 C634.66,553.16 640.36,558.26 641.56,566.66 C641.68,567.26 641.8,568.52 641.98,571.52 L616.48,571.52 C616.72,575.42 617.32,577.4 618.88,579.5 C620.74,582.02 623.56,583.34 627.04,583.34 C630.22,583.34 632.86,582.2 634.72,580.04 C635.62,579.08 636.04,578.3 636.64,576.56 L641.68,578.42 C640.54,580.94 639.76,582.14 638.32,583.52 C635.44,586.4 631.6,587.9 626.98,587.9 C617.26,587.9 611.08,581.18 611.08,570.5 C611.08,560 617.2,553.16 626.56,553.16 Z M1290.32,539.84 C1296.08,539.84 1300.64,541.46 1304.06,544.76 C1306.34,546.98 1307.48,548.9 1308.92,552.74 L1303.1,554.3 C1302.26,551.72 1301.6,550.52 1300.34,549.02 C1298.06,546.32 1294.58,544.88 1290.44,544.88 C1281.02,544.88 1275.2,552.14 1275.2,563.78 C1275.2,575.42 1281.14,582.8 1290.44,582.8 C1295.06,582.8 1298.9,581.06 1301.18,577.94 C1302.44,576.2 1302.98,574.76 1303.52,572.06 L1309.52,573.32 C1308.44,577.04 1307.6,578.96 1306.04,581 C1302.68,585.38 1297.04,587.84 1290.26,587.84 C1284.32,587.84 1279.34,585.98 1275.86,582.38 C1272.68667,579.161333 1270.57514,574.606844 1269.73246,569.311754 L1269.66732,568.883292 L1269.60811,569.275719 C1267.78811,580.770002 1260.0552,587.9 1248.78,587.9 C1235.88,587.9 1227.6,578.54 1227.6,563.84 C1227.6,549.26 1235.94,539.84 1248.84,539.84 C1260.2448,539.84 1267.97894,547.04192 1269.67091,558.788019 L1269.68732,558.912292 L1269.74574,558.541112 C1270.64187,553.04173 1272.93043,548.378261 1276.4,545 C1279.94,541.58 1284.56,539.84 1290.32,539.84 Z M830.38,545 C830.14,546.92 829.96,549.26 829.96,551.84 L829.96,554 L832.72,554 C835.54,554 836.86,553.94 838.84,553.64 L838.84,558.92 C836.92,558.62 835.54,558.56 832.78,558.56 L829.96,558.56 L829.96,578.72 C829.96,580.46 830.2,581.3 830.8,581.9 C831.4,582.44 832.42,582.8 833.68,582.8 C835.3,582.8 836.5,582.44 838.36,581.36 L839.68,586.22 C837.16,587.24 835.24,587.6 832.72,587.6 C829.84,587.6 827.68,586.94 826.36,585.74 C825.04,584.48 824.5,582.68 824.5,579.62 L824.5,558.56 L822.1,558.56 C820,558.56 818.68,558.68 816.76,558.92 L816.76,553.64 C818.346667,553.923333 819.505185,553.992593 821.751914,553.999414 L824.5,554 L824.5,551.84 C824.5,549.44 824.32,547.04 824.08,545 L830.38,545 Z M803.12,553.04 C807.68,553.04 810.98,554.06 813.14,556.16 C814.94,557.84 815.72,560.12 815.72,563.42 L815.72,580.1 C815.72,583.04 815.84,584.48 816.2,587 L810.5,587 L810.5,582.98 C808.22,584.96 807.14,585.68 805.16,586.4 C803.12,587.18 800.9,587.54 798.56,587.54 C791.84,587.54 787.7,584 787.7,578.18 C787.7,573.56 790.64,569.96 795.8,568.28 C799.4,567.14 802.7,566.72 810.5,566.54 L810.5,563.42 C810.5,559.34 808.16,557.42 803.06,557.42 C799.82,557.42 797.42,558.26 795.8,559.94 C795.02,560.78 794.6,561.56 794.06,563.18 L788.48,562.1 C789.56,559.1 790.46,557.72 792.2,556.34 C794.84,554.12 798.5,553.04 803.12,553.04 Z M846.72,554 C846.42,556.52 846.3,558.26 846.3,561.08 L846.3,574.94 C846.3,580.22 848.64,582.92 853.2,582.92 C856.32,582.92 858.9,581.6 861.36,578.66 C862.98,576.74 863.76,575.3 864.42,572.84 L864.42,561.08 C864.42,558.44 864.3,556.4 864,554 L870.3,554 C869.94,556.4 869.82,558.02 869.82,561.08 L869.82,579.92 C869.82,582.86 869.94,584.6 870.3,587 L864.42,587 L864.420195,583.201901 C864.421661,582.592803 864.434118,582.203529 864.54,580.88 C861.54,585.44 857.7,587.54 852.42,587.54 C848.04,587.54 844.62,585.98 842.64,583.1 C841.44,581.3 840.84,578.96 840.84,575.78 L840.84,561.02 C840.84,557.9 840.72,556.04 840.42,554 L846.72,554 Z M682.2,553.34 C686.16,553.34 689.16,554.54 691.02,556.94 C692.64,558.92 693.3,561.38 693.3,565.1 L693.3,579.98 C693.3,583.1 693.42,584.84 693.72,587 L687.42,587 C687.763636,584.709091 687.833926,583.347562 687.839606,580.358375 L687.84,565.94 C687.84,562.28 687.18,560.36 685.38,559.1 C684.36,558.38 682.98,558.02 681.3,558.02 C678.48,558.02 675.84,559.52 674.04,562.16 C672.96,563.72 671.94,566.6 671.94,568.1 L671.94,579.98 C671.94,583.1 672.06,584.84 672.36,587 L666.06,587 C666.36,584.84 666.48,583.04 666.48,579.92 L666.48,565.94 C666.48,560.72 664.26,558.02 660,558.02 C657.3,558.02 654.48,559.7 652.62,562.4 C651.6,563.9 650.52,566.9 650.52,568.1 L650.52,579.92 C650.52,582.86 650.64,584.54 650.94,587 L644.7,587 C645,584.72 645.12,582.92 645.12,579.92 L645.12,561.08 C645.12,557.78 645,556.16 644.7,554 L650.52,554 L650.52,557 C650.52,557.18 650.46,558.08 650.46,558.26 C650.4,558.8 650.4,558.8 650.4,559.16 C652.56,555.38 656.4,553.34 661.2,553.34 C664.62,553.34 667.2,554.3 669,556.28 C669.9,557.18 670.26,557.9 670.86,559.58 C673.86,555.14 677.1,553.34 682.2,553.34 Z M782.34,553.46 C784.2,553.46 785.4,553.58 787.86,554 L786.3,559.46 C784.08,558.74 782.94,558.56 781.38,558.56 C778.26,558.56 775.86,559.7 774.06,561.98 C772.62,563.84 772.08,565.28 771.78,568.04 L771.78,579.92 C771.78,582.8 771.9,584.54 772.2,587 L765.9,587 C766.26,584.06 766.32,582.62 766.32,579.92 L766.32,561.08 C766.32,557.9 766.2,556.22 765.9,554 L771.78,554 L771.78,558.08 C771.72,558.5 771.72,558.62 771.66,559.1 C772.68,557.54 773.4,556.64 774.42,555.92 C776.46,554.3 779.22,553.46 782.34,553.46 Z M891.02,553.46 C892.88,553.46 894.08,553.58 896.54,554 L894.98,559.46 C892.76,558.74 891.62,558.56 890.06,558.56 C886.94,558.56 884.54,559.7 882.74,561.98 C881.3,563.84 880.76,565.28 880.46,568.04 L880.46,579.92 C880.46,582.8 880.58,584.54 880.88,587 L874.58,587 C874.94,584.06 875,582.62 875,579.92 L875,561.08 C875,557.9 874.88,556.22 874.58,554 L880.46,554 L880.46,558.08 C880.4,558.5 880.4,558.62 880.34,559.1 C881.36,557.54 882.08,556.64 883.1,555.92 C885.14,554.3 887.9,553.46 891.02,553.46 Z M617.06,540.32 L617.06,546.2 C615.02,545.9 613.1,545.78 609.44,545.78 L600.68,545.78 L600.68,579.92 C600.68,582.92 600.8,584.78 601.16,587 L594.56,587 C594.86,585.2 595.04,582.92 595.04,579.92 L595.04,545.78 L586.04,545.78 C582.86,545.78 580.76,545.9 578.78,546.2 L578.78,540.32 C581.12,540.62 582.68,540.74 585.98,540.74 L609.44,540.74 C613.28,540.74 615.08,540.62 617.06,540.32 Z M1193.06,540.32 L1193.05932,540.739292 L1187.92,540.74 C1188.49,541.7375 1189.24802,543.411875 1190.19406,545.763125 L1190.24932,545.901292 L1190.15154,545.895161 C1188.89448,545.815208 1187.4225,545.78 1185.44,545.78 L1176.68,545.78 L1176.68,579.92 C1176.68,582.92 1176.8,584.78 1177.16,587 L1170.56,587 C1170.86,585.2 1171.04,582.92 1171.04,579.92 L1171.04,545.78 L1162.04,545.78 C1158.86,545.78 1156.76,545.9 1154.78,546.2 L1154.78,540.32 C1157.12,540.62 1158.68,540.74 1161.98,540.74 L1185.44,540.74 C1189.28,540.74 1191.08,540.62 1193.06,540.32 Z M1195.18,540.74 C1195.54,542.66 1196.08,544.76 1196.86,546.92 L1207.9,577.34 C1208.14,578.06 1208.62,579.5 1209.28,581.66 C1210,579.32 1210.24,578.6 1210.72,577.34 L1221.58,546.92 C1222.66,543.98 1223.08,542.42 1223.32,540.74 L1230.58,540.74 C1229.68,542.3 1229.02,543.8 1227.52,547.76 L1214.68,581.24 C1213.66,583.94 1213.12,585.68 1212.82,587 L1205.74,587 C1205.44,585.68 1204.96,584.3 1203.82,581.24 L1190.98,547.76 C1190.76,547.19 1190.54833,546.65 1190.345,546.14 L1190.24932,545.901292 L1190.43795,545.91441 C1191.28655,545.974566 1192.04303,546.056519 1192.80549,546.163433 L1193.06,546.2 L1193.05932,540.739292 L1195.18,540.74 Z M810.5,570.62 C803.66,570.8 800.3,571.22 797.66,572.3 C794.66,573.5 793.16,575.42 793.16,578.18 C793.16,581.3 795.5,583.28 799.28,583.28 C802.58,583.28 806.18,581.78 808.52,579.38 C809.96,577.88 810.5,576.44 810.5,574.22 L810.5,570.62 Z M1248.84,544.88 C1239.48,544.88 1233.42,552.32 1233.42,563.84 C1233.42,575.3 1239.54,582.86 1248.9,582.86 C1258.2,582.86 1264.14,575.48 1264.14,563.9 C1264.14,557.42 1262.34,552.26 1258.98,548.9 C1256.34,546.26 1252.8,544.88 1248.84,544.88 Z M715.16,558.02 C708.38,558.02 703.76,563.12 703.76,570.44 C703.76,574.1 705.02,577.58 707.12,579.68 C709.04,581.66 712.1,582.86 715.1,582.86 C721.52,582.86 725.42,578.18 725.42,570.38 C725.42,562.52 721.7,558.02 715.16,558.02 Z M1269.68732,558.914292 L1269.67235,559.014525 C1269.46242,560.44084 1269.34496,561.921579 1269.32357,563.449103 L1269.32,563.96 C1269.32,565.64 1269.43556,567.272593 1269.6614,568.842634 L1269.66732,568.883292 C1269.88141,567.411699 1269.99934,565.8765 1270.01752,564.27763 L1270.02,563.84 C1270.02,562.223 1269.92054,560.67134 1269.72625,559.190211 L1269.68732,558.914292 Z M626.44,557.66 C622.9,557.66 619.96,559.4 618.16,562.58 C617.32,564.02 617.02,564.98 616.66,567.14 L636.34,567.14 C635.98,564.02 635.08,561.98 633.34,560.24 C631.54,558.5 629.26,557.66 626.44,557.66 Z M747.64,557.66 C744.1,557.66 741.16,559.4 739.36,562.58 C738.52,564.02 738.22,564.98 737.86,567.14 L757.54,567.14 C757.18,564.02 756.28,561.98 754.54,560.24 C752.74,558.5 750.46,557.66 747.64,557.66 Z M911.26,557.66 C907.72,557.66 904.78,559.4 902.98,562.58 C902.14,564.02 901.84,564.98 901.48,567.14 L921.16,567.14 C920.8,564.02 919.9,561.98 918.16,560.24 C916.36,558.5 914.08,557.66 911.26,557.66 Z M1687.4,547.66 L1674.56,547.66 L1674.56,565.66 L1687.4,565.66 C1693.46,565.66 1696.88,562.36 1696.88,556.48 C1696.88,550.72 1693.64,547.66 1687.4,547.66 Z M875.476667,367.4 C882.336667,367.4 887.796667,370.06 891.156667,374.96 C892.066667,376.36 892.626667,377.48 893.606667,380.07 L885.066667,382.1 C884.296667,379.93 883.806667,378.95 882.896667,377.83 C881.216667,375.73 878.766667,374.61 875.686667,374.61 C868.826667,374.61 864.556667,380 864.556667,388.68 C864.556667,397.43 868.896667,402.82 875.966667,402.82 C879.466667,402.82 882.266667,401.42 884.016667,398.9 C884.646667,397.92 884.996667,397.15 885.416667,395.4 L894.096667,397.15 C893.116667,399.95 892.416667,401.42 891.156667,403.1 C887.796667,407.72 882.406667,410.17 875.756667,410.17 C863.436667,410.17 855.456667,401.84 855.456667,388.89 C855.456667,382.31 857.556667,376.64 861.406667,372.72 C864.836667,369.22 869.736667,367.4 875.476667,367.4 Z M1362.46667,367.47 C1375.13667,367.47 1383.18667,375.73 1383.18667,388.68 C1383.18667,401.63 1374.99667,410.17 1362.53667,410.17 C1349.72667,410.17 1341.60667,401.91 1341.60667,388.82 C1341.60667,375.8 1349.72667,367.47 1362.46667,367.47 Z M1237.77333,367.47 C1250.44333,367.47 1258.49333,375.73 1258.49333,388.68 C1258.49333,401.63 1250.30333,410.17 1237.84333,410.17 C1225.03333,410.17 1216.91333,401.91 1216.91333,388.82 C1216.91333,375.8 1225.03333,367.47 1237.77333,367.47 Z M955.416667,367.47 C968.086667,367.47 976.136667,375.73 976.136667,388.68 C976.136667,401.63 967.946667,410.17 955.486667,410.17 C942.676667,410.17 934.556667,401.91 934.556667,388.82 C934.556667,375.8 942.676667,367.47 955.416667,367.47 Z M910.92,357.88 C910.64,360.33 910.43,363.34 910.43,366.49 L910.43,368.66 L913.37,368.66 C916.66,368.66 918.2,368.59 920.44,368.24 L920.44,376.5 C918.13,376.15 916.8,376.08 913.58,376.08 L910.43,376.08 L910.43,397.78 C910.43,401.21 911.69,402.47 915.05,402.47 C916.87,402.47 917.99,402.12 920.16,400.93 L921.42,408.35 C918.41,409.47 916.31,409.82 912.67,409.82 C904.62,409.82 901.4,406.95 901.4,399.6 L901.4,376.08 L898.74,376.08 C896.15,376.08 894.82,376.15 892.51,376.5 L892.51,368.24 C894.4385,368.5725 895.73525,368.6523 898.380786,368.659449 L901.4,368.66 L901.4,366.49 C901.4,363.48 901.19,360.4 900.91,357.88 L910.92,357.88 Z M1332.27333,357.88 C1331.99333,360.33 1331.78333,363.34 1331.78333,366.49 L1331.78333,368.66 L1334.72333,368.66 C1338.01333,368.66 1339.55333,368.59 1341.79333,368.24 L1341.79333,376.5 C1339.48333,376.15 1338.15333,376.08 1334.93333,376.08 L1331.78333,376.08 L1331.78333,397.78 C1331.78333,401.21 1333.04333,402.47 1336.40333,402.47 C1338.22333,402.47 1339.34333,402.12 1341.51333,400.93 L1342.77333,408.35 C1339.76333,409.47 1337.66333,409.82 1334.02333,409.82 C1325.97333,409.82 1322.75333,406.95 1322.75333,399.6 L1322.75333,376.08 L1320.09333,376.08 C1317.50333,376.08 1316.17333,376.15 1313.86333,376.5 L1313.86333,368.24 C1315.79183,368.5725 1317.08858,368.6523 1319.73412,368.659449 L1322.75333,368.66 L1322.75333,366.49 C1322.75333,363.48 1322.54333,360.4 1322.26333,357.88 L1332.27333,357.88 Z M718.21,357.88 C717.93,360.33 717.72,363.34 717.72,366.49 L717.72,368.66 L720.66,368.66 C723.95,368.66 725.49,368.59 727.73,368.24 L727.73,376.5 C725.42,376.15 724.09,376.08 720.87,376.08 L717.72,376.08 L717.72,397.78 C717.72,401.21 718.98,402.47 722.34,402.47 C724.16,402.47 725.28,402.12 727.45,400.93 L728.71,408.35 C725.7,409.47 723.6,409.82 719.96,409.82 C711.91,409.82 708.69,406.95 708.69,399.6 L708.69,376.08 L706.03,376.08 C703.44,376.08 702.11,376.15 699.8,376.5 L699.8,368.24 C701.7285,368.5725 703.02525,368.6523 705.670786,368.659449 L708.69,368.66 L708.69,366.49 C708.69,363.48 708.48,360.4 708.2,357.88 L718.21,357.88 Z M782.33,368.66 C781.91,371.81 781.84,374.19 781.84,377.76 L781.84,393.3 C781.84,397.36 782.89,399.95 785.06,401.28 C786.11,401.84 787.58,402.26 788.91,402.26 C793.95,402.26 797.94,398.83 801.09,391.9 L801.09,377.76 C801.09,374.33 800.88,371.67 800.53,368.66 L810.61,368.66 C810.12,371.67 810.05,373.84 810.05,377.76 L810.05,399.74 C810.05,403.59 810.19,405.97 810.61,408.84 L801.09,408.84 L801.090096,404.807846 C801.090864,404.014321 801.097778,403.675556 801.16,402.12 C797.31,407.58 793.46,409.61 786.81,409.61 C783.24,409.61 780.72,408.98 778.41,407.58 C774.56,405.13 772.74,401.21 772.74,395.47 L772.74,377.76 C772.74,373.91 772.53,371.25 772.18,368.66 L782.33,368.66 Z M656.843333,368.66 C656.449583,371.613125 656.363451,373.889492 656.354222,377.104092 L656.353333,393.3 C656.353333,397.36 657.403333,399.95 659.573333,401.28 C660.623333,401.84 662.093333,402.26 663.423333,402.26 C668.463333,402.26 672.453333,398.83 675.603333,391.9 L675.603333,377.76 C675.603333,374.33 675.393333,371.67 675.043333,368.66 L685.123333,368.66 C684.655606,371.533182 684.570565,373.640992 684.5638,377.236058 L684.563333,399.74 C684.563333,403.59 684.703333,405.97 685.123333,408.84 L675.603333,408.84 L675.604102,404.528326 C675.60679,403.910617 675.618889,403.481111 675.673333,402.12 C671.823333,407.58 667.973333,409.61 661.323333,409.61 C657.753333,409.61 655.233333,408.98 652.923333,407.58 C649.073333,405.13 647.253333,401.21 647.253333,395.47 L647.253333,377.76 C647.253333,373.91 647.043333,371.25 646.693333,368.66 L656.843333,368.66 Z M1101.67,368.66 C1101.32,371.25 1101.18,373.56 1101.18,377.83 L1101.18,399.67 C1101.18,403.52 1101.32,405.9 1101.67,408.84 L1091.45,408.84 C1091.87,405.69 1092.01,403.24 1092.01,399.74 L1092.01,377.76 C1092.01,373.91 1091.87,371.53 1091.45,368.66 L1101.67,368.66 Z M1284.48667,367.96 C1289.87667,367.96 1293.86667,369.71 1296.38667,373.14 C1298.06667,375.45 1298.76667,378.25 1298.76667,382.94 L1298.76667,399.74 C1298.76667,403.59 1298.90667,406.25 1299.32667,408.84 L1289.17667,408.84 C1289.52667,405.69 1289.66667,403.31 1289.66667,399.74 L1289.66667,384.2 C1289.66667,381.26 1289.31667,379.37 1288.47667,378.04 C1287.35667,376.22 1285.25667,375.17 1282.59667,375.17 C1277.55667,375.17 1273.42667,378.67 1270.34667,385.6 L1270.34667,399.74 C1270.34667,403.17 1270.48667,405.83 1270.90667,408.84 L1260.82667,408.84 C1261.24667,405.83 1261.38667,403.66 1261.38667,399.74 L1261.38667,377.76 C1261.38667,373.91 1261.24667,371.53 1260.82667,368.66 L1270.34667,368.66 L1270.34647,372.692154 C1270.34494,373.485679 1270.33111,373.824444 1270.20667,375.38 C1274.47667,369.92 1278.18667,367.96 1284.48667,367.96 Z M1167.61,353.12 C1168.1,355.57 1169.01,358.51 1170.2,361.45 L1184.41,396.17 L1198.55,361.45 C1199.95,358.02 1200.58,355.78 1201.07,353.12 L1213.95,353.12 C1213.53,356.48 1213.39,358.79 1213.39,363.48 L1213.39,398.62 C1213.39,403.73 1213.53,406.25 1213.95,408.84 L1204.15,408.84 C1204.555,406.0725 1204.69964,403.630446 1204.70946,399.128782 L1204.71,375.38 C1204.99,369.29 1205.2,365.72 1205.27,364.67 C1204.36,368.45 1203.03,372.37 1202.05,374.89 L1191.55,399.53 C1190.15,402.82 1188.89,406.74 1188.47,408.84 L1180.21,408.84 C1179.86,406.6 1178.74,403.31 1177.13,399.39 L1167.05,375.38 C1165.72,372.23 1165.09,370.34 1163.48,364.67 C1163.752,368.274 1164.024,373.793657 1164.03932,375.51786 L1164.04,398.62 C1164.04,403.45 1164.18,406.11 1164.6,408.84 L1154.8,408.84 C1155.20444,406.143704 1155.34925,403.512318 1155.35942,399.133148 L1155.36,363.48 C1155.36,358.93 1155.22,355.99 1154.8,353.12 L1167.61,353.12 Z M1002.13,367.96 C1007.52,367.96 1011.51,369.71 1014.03,373.14 C1015.71,375.45 1016.41,378.25 1016.41,382.94 L1016.41,399.74 C1016.41,403.59 1016.55,406.25 1016.97,408.84 L1006.82,408.84 C1007.17,405.69 1007.31,403.31 1007.31,399.74 L1007.31,384.2 C1007.31,381.26 1006.96,379.37 1006.12,378.04 C1005,376.22 1002.9,375.17 1000.24,375.17 C995.2,375.17 991.07,378.67 987.99,385.6 L987.99,399.74 C987.99,403.17 988.13,405.83 988.55,408.84 L978.47,408.84 C978.89,405.83 979.03,403.66 979.03,399.74 L979.03,377.76 C979.03,373.91 978.89,371.53 978.47,368.66 L987.99,368.66 L987.989352,372.836019 C987.986111,373.532778 987.966667,373.921667 987.85,375.38 C992.12,369.92 995.83,367.96 1002.13,367.96 Z M699.356667,353.12 C699.006667,355.85 698.866667,358.09 698.866667,362.29 L698.866667,399.74 C698.866667,403.45 699.006667,405.76 699.356667,408.84 L689.206667,408.84 C689.556667,405.83 689.696667,403.8 689.696667,399.74 L689.696667,362.22 C689.696667,358.02 689.556667,355.78 689.206667,353.12 L699.356667,353.12 Z M1069.51667,353.12 C1069.86667,354.8 1070.28667,355.92 1071.89667,360.19 L1087.43667,400.58 C1089.18667,405.06 1090.02667,407.02 1091.00667,408.84 L1079.52667,408.84 C1079.10667,406.53 1078.33667,403.52 1077.56667,401.49 L1074.76667,393.86 L1052.36667,393.86 L1049.56667,401.49 C1048.30667,404.85 1048.02667,405.9 1047.46667,408.84 L1035.98667,408.84 C1037.03667,406.95 1038.43667,403.8 1039.69667,400.58 L1055.09667,360.19 C1056.42667,356.69 1056.98667,354.94 1057.33667,353.12 L1069.51667,353.12 Z M838.353333,367.96 C843.743333,367.96 847.733333,369.71 850.253333,373.14 C851.933333,375.45 852.633333,378.25 852.633333,382.94 L852.633333,399.74 C852.633333,403.59 852.773333,406.25 853.193333,408.84 L843.043333,408.84 C843.393333,405.69 843.533333,403.31 843.533333,399.74 L843.533333,384.2 C843.533333,381.26 843.183333,379.37 842.343333,378.04 C841.223333,376.22 839.123333,375.17 836.463333,375.17 C831.423333,375.17 827.293333,378.67 824.213333,385.6 L824.213333,399.74 C824.213333,403.17 824.353333,405.83 824.773333,408.84 L814.693333,408.84 C815.113333,405.83 815.253333,403.66 815.253333,399.74 L815.253333,377.76 C815.253333,373.91 815.113333,371.53 814.693333,368.66 L824.213333,368.66 L824.213333,372.37 C824.213333,373.42 824.213333,373.63 824.073333,375.38 C828.343333,369.92 832.053333,367.96 838.353333,367.96 Z M1128.57333,367.89 C1130.25333,367.89 1131.93333,368.1 1135.08333,368.66 L1132.63333,377.48 C1129.69333,376.64 1128.22333,376.36 1126.40333,376.36 C1122.90333,376.36 1120.24333,377.48 1118.28333,379.79 C1116.53333,381.82 1115.83333,383.43 1115.41333,386.79 L1115.41333,399.74 C1115.41333,403.52 1115.55333,405.55 1115.90333,408.84 L1105.89333,408.84 C1106.24333,405.41 1106.38333,403.38 1106.38333,399.74 L1106.38333,377.76 C1106.38333,373.49 1106.31333,371.53 1105.89333,368.66 L1115.41333,368.66 L1115.41333,375.24 C1117.93333,370.27 1122.27333,367.89 1128.57333,367.89 Z M1313.49,368.66 C1313.14,371.25 1313,373.56 1313,377.83 L1313,399.67 C1313,403.52 1313.14,405.9 1313.49,408.84 L1303.27,408.84 C1303.69,405.69 1303.83,403.24 1303.83,399.74 L1303.83,377.76 C1303.83,373.91 1303.69,371.53 1303.27,368.66 L1313.49,368.66 Z M739.443333,368.66 C739.106795,371.150385 738.964413,373.381893 738.953959,377.345878 L738.953333,399.67 C738.953333,403.52 739.093333,405.9 739.443333,408.84 L729.223333,408.84 C729.643333,405.69 729.783333,403.24 729.783333,399.74 L729.783333,377.76 C729.783333,373.91 729.643333,371.53 729.223333,368.66 L739.443333,368.66 Z M763.266667,352.21 C766.416667,352.21 768.726667,352.56 771.946667,353.61 L770.056667,360.96 C767.956667,359.77 766.206667,359.28 763.826667,359.28 C759.766667,359.28 758.366667,360.96 758.366667,365.79 L758.366667,368.66 L761.656667,368.66 C764.456667,368.66 766.626667,368.52 769.566667,368.24 L769.566667,376.43 C767.116667,376.15 765.226667,376.01 761.796667,376.01 L758.366667,376.01 L758.366667,399.74 C758.366667,403.73 758.506667,405.76 758.856667,408.84 L748.846667,408.84 C749.196667,405.55 749.336667,403.38 749.336667,399.74 L749.336667,376.01 L746.536667,376.01 C743.876667,376.01 742.056667,376.15 739.886667,376.43 L739.886667,368.24 C741.846667,368.52 743.946667,368.66 746.466667,368.66 L749.336667,368.66 L749.336667,364.95 C749.336667,356.27 753.746667,352.21 763.266667,352.21 Z M595.78,353.12 C596.27,355.57 597.18,358.51 598.37,361.45 L612.58,396.17 L626.72,361.45 C628.12,358.02 628.75,355.78 629.24,353.12 L642.12,353.12 C641.7,356.48 641.56,358.79 641.56,363.48 L641.56,398.62 C641.56,403.73 641.7,406.25 642.12,408.84 L632.32,408.84 C632.725,406.0725 632.869643,403.630446 632.879458,399.128782 L632.88,375.38 C633.16,369.29 633.37,365.72 633.44,364.67 C632.53,368.45 631.2,372.37 630.22,374.89 L619.72,399.53 C618.32,402.82 617.06,406.74 616.64,408.84 L608.38,408.84 C608.03,406.6 606.91,403.31 605.3,399.39 L595.22,375.38 C593.89,372.23 593.26,370.34 591.65,364.67 C591.922,368.274 592.194,373.793657 592.209321,375.51786 L592.21,398.62 C592.21,403.45 592.35,406.11 592.77,408.84 L582.97,408.84 C583.374444,406.143704 583.519246,403.512318 583.529417,399.133148 L583.53,363.48 C583.53,358.93 583.39,355.99 582.97,353.12 L595.78,353.12 Z M932.153333,368.66 C931.816795,371.150385 931.674413,373.381893 931.663959,377.345878 L931.663333,399.67 C931.663333,403.52 931.803333,405.9 932.153333,408.84 L921.933333,408.84 C922.353333,405.69 922.493333,403.24 922.493333,399.74 L922.493333,377.76 C922.493333,373.91 922.353333,371.53 921.933333,368.66 L932.153333,368.66 Z M1408.34,367.89 C1410.02,367.89 1411.7,368.1 1414.85,368.66 L1412.4,377.48 C1409.46,376.64 1407.99,376.36 1406.17,376.36 C1402.67,376.36 1400.01,377.48 1398.05,379.79 C1396.3,381.82 1395.6,383.43 1395.18,386.79 L1395.18,399.74 C1395.18,403.52 1395.32,405.55 1395.67,408.84 L1385.66,408.84 C1386.01,405.41 1386.15,403.38 1386.15,399.74 L1386.15,377.76 C1386.15,373.49 1386.08,371.53 1385.66,368.66 L1395.18,368.66 L1395.18,375.24 C1397.7,370.27 1402.04,367.89 1408.34,367.89 Z M1362.46667,374.75 C1355.11667,374.75 1350.63667,380.07 1350.63667,388.82 C1350.63667,397.43 1355.11667,402.75 1362.39667,402.75 C1369.67667,402.75 1374.15667,397.5 1374.15667,388.96 C1374.15667,379.93 1369.88667,374.75 1362.46667,374.75 Z M955.416667,374.75 C948.066667,374.75 943.586667,380.07 943.586667,388.82 C943.586667,397.43 948.066667,402.75 955.346667,402.75 C962.626667,402.75 967.106667,397.5 967.106667,388.96 C967.106667,379.93 962.836667,374.75 955.416667,374.75 Z M1237.77333,374.75 C1230.42333,374.75 1225.94333,380.07 1225.94333,388.82 C1225.94333,397.43 1230.42333,402.75 1237.70333,402.75 C1244.98333,402.75 1249.46333,397.5 1249.46333,388.96 C1249.46333,379.93 1245.19333,374.75 1237.77333,374.75 Z M1063.49667,361.17 C1062.37667,364.46 1062.37667,364.46 1062.16667,365.09 L1054.88667,385.81 L1072.24667,385.81 L1064.75667,365.09 C1064.47667,364.32 1064.26667,363.48 1063.49667,361.17 Z M1313.56,353.12 L1313.56,362.01 L1303.27,362.01 L1303.27,353.12 L1313.56,353.12 Z M1101.74,353.12 L1101.74,362.01 L1091.45,362.01 L1091.45,353.12 L1101.74,353.12 Z M932.223333,353.12 L932.223333,362.01 L921.933333,362.01 L921.933333,353.12 L932.223333,353.12 Z M739.513333,353.12 L739.513333,362.01 L729.223333,362.01 L729.223333,353.12 L739.513333,353.12 Z M826.98,190.72 C835.98,190.72 841.8,195.46 841.8,202.78 C841.8,206.44 840.3,209.68 837.6,211.6 C836.1,212.68 834.84,213.16 831.96,213.76 C836.1,214.3 838.44,215.32 840.48,217.54 C842.4,219.64 843.36,222.28 843.36,225.76 C843.36,229.06 842.1,232.24 839.88,234.4 C836.88,237.34 832.26,238.9 826.56,238.9 C820.2,238.9 815.52,237.16 812.58,233.8 C811.2,232.18 810.48,230.8 809.4,227.68 L815.46,226.3 C816.36,229.3 817.14,230.5 818.88,231.76 C820.92,233.26 823.44,233.98 826.5,233.98 C833.16,233.98 837.36,230.56 837.36,225.1 C837.36,219.34 833.28,216.34 825.54,216.34 C823.74,216.34 822.24,216.46 820.44,216.7 L820.44,211.18 C821.88,211.36 823.44,211.48 825.18,211.48 C829.02,211.48 831.78,210.64 833.64,208.84 C835.08,207.4 835.92,205.36 835.92,203.08 C835.92,198.4 832.5,195.58 826.68,195.58 C823.08,195.58 820.62,196.6 819,198.7 C818.16,199.72 817.74,200.68 817.14,202.78 L811.14,201.52 C812.22,198.28 813,196.84 814.68,195.1 C817.5,192.22 821.7,190.72 826.98,190.72 Z M743.22,190.9 C747.84,190.9 751.86,192.46 754.68,195.34 C756.36,197.02 757.62,199 758.34,200.98 C759.9,205.18 760.68,209.86 760.68,214.9 C760.68,222.1 759.06,228.64 756.42,232.36 C753.3,236.68 748.86,238.84 743.1,238.84 C738.48,238.84 734.64,237.34 731.7,234.4 C730.02,232.72 728.76,230.8 728.04,228.76 C726.48,224.56 725.7,219.82 725.7,214.96 C725.7,208.54 727.08,202.06 729.24,198.58 C732.24,193.54 737.04,190.9 743.22,190.9 Z M863.36,190.9 C867.98,190.9 872,192.46 874.82,195.34 C876.5,197.02 877.76,199 878.48,200.98 C880.04,205.18 880.82,209.86 880.82,214.9 C880.82,222.1 879.2,228.64 876.56,232.36 C873.44,236.68 869,238.84 863.24,238.84 C858.62,238.84 854.78,237.34 851.84,234.4 C850.16,232.72 848.9,230.8 848.18,228.76 C846.62,224.56 845.84,219.82 845.84,214.96 C845.84,208.54 847.22,202.06 849.38,198.58 C852.38,193.54 857.18,190.9 863.36,190.9 Z M779.24,190.78 C785.3,190.78 790.46,193.72 793.22,198.76 C795.14,202.18 796.04,207.04 796.04,213.4 C796.04,222.4 794.18,229.3 790.7,233.44 C787.64,237.04 783.62,238.72 778.16,238.72 C773.84,238.72 770.42,237.7 767.78,235.54 C765.92,234.04 764.84,232.6 763.22,229.24 L769.1,227.5 C769.82,229.42 770.24,230.26 771.14,231.22 C772.76,232.96 775.34,233.92 778.52,233.92 C782.78,233.92 785.78,232.18 787.94,228.52 C789.08,226.6 790.04,223.78 790.46,220.96 C790.64,219.64 790.82,217.48 790.94,214.72 C790.04,216.34 789.5,217 788.3,218.08 C785.3,220.72 782.12,221.86 777.74,221.86 C773.18,221.86 769.22,220.42 766.58,217.78 C763.94,215.14 762.44,211.18 762.44,206.92 C762.44,197.14 769.04,190.78 779.24,190.78 Z M806.68,231.22 L806.68,238 L799.9,238 L799.9,231.22 L806.68,231.22 Z M679.318401,228.8 C681.803682,228.8 683.818401,230.814719 683.818401,233.3 C683.818401,235.785281 681.803682,237.8 679.318401,237.8 C676.833119,237.8 674.818401,235.785281 674.818401,233.3 C674.818401,230.814719 676.833119,228.8 679.318401,228.8 Z M609,192 C621.150264,192 631,201.849736 631,214 L631,215 C631,227.150264 621.150264,237 609,237 L547,237 C534.849736,237 525,227.150264 525,215 L525,214 C525,201.849736 534.849736,192 547,192 L609,192 Z M743.1,195.82 C740.04,195.82 737.7,196.78 735.84,198.88 C734.58,200.26 733.68,201.76 733.2,203.32 C732.06,206.8 731.46,210.76 731.46,215.02 C731.46,220.42 732.6,226.18 734.22,228.88 C736.26,232.24 739.26,233.92 743.16,233.92 C746.04,233.92 748.56,232.96 750.3,231.16 C751.56,229.84 752.58,228.22 753.12,226.42 C754.32,222.82 754.86,219.04 754.86,214.84 C754.86,209.74 753.78,203.98 752.28,201.22 C750.36,197.62 747.3,195.82 743.1,195.82 Z M863.24,195.82 C860.18,195.82 857.84,196.78 855.98,198.88 C854.72,200.26 853.82,201.76 853.34,203.32 C852.2,206.8 851.6,210.76 851.6,215.02 C851.6,220.42 852.74,226.18 854.36,228.88 C856.4,232.24 859.4,233.92 863.3,233.92 C866.18,233.92 868.7,232.96 870.44,231.16 C871.7,229.84 872.72,228.22 873.26,226.42 C874.46,222.82 875,219.04 875,214.84 C875,209.74 873.92,203.98 872.42,201.22 C870.5,197.62 867.44,195.82 863.24,195.82 Z M609,200 L547,200 C539.268014,200 533,206.268014 533,214 L533,215 C533,222.731986 539.268014,229 547,229 L609,229 C616.731986,229 623,222.731986 623,215 L623,214 C623,206.268014 616.731986,200 609,200 Z M687.921433,220.747368 C688.879647,221.484211 689.1192,222.835088 688.40054,223.878947 C687.981321,224.492982 687.322549,224.8 686.663777,224.8 C686.244559,224.8 685.765452,224.677193 685.406121,224.370175 C681.573266,221.545614 676.123424,221.545614 672.290569,224.370175 C671.272466,225.107018 669.954922,224.861404 669.236262,223.878947 C668.517601,222.835088 668.757155,221.484211 669.715369,220.747368 C675.045434,216.817544 682.591368,216.817544 687.921433,220.747368 Z M778.76,195.58 C775.82,195.58 773.06,196.72 771.08,198.7 C769.04,200.68 768.08,203.26 768.08,206.5 C768.08,213.04 772.1,217.18 778.4,217.18 C784.88,217.18 789.68,212.62 789.68,206.44 C789.68,200.2 785,195.58 778.76,195.58 Z M679.309563,204.8 C685.324546,204.8 691.032643,206.760784 695.881456,210.486275 C696.924871,211.205229 697.109003,212.708497 696.372475,213.819608 C695.635946,214.865359 694.224266,215.126797 693.242228,214.342484 C685.079037,208.067974 673.478712,208.067974 665.31552,214.342484 C664.947256,214.669281 664.456237,214.8 664.026595,214.8 C663.351444,214.8 662.676293,214.473203 662.246651,213.819608 C661.510123,212.708497 661.755632,211.270588 662.73767,210.486275 C667.586483,206.760784 673.29458,204.8 679.309563,204.8 Z M806.68,205 L806.68,211.78 L799.9,211.78 L799.9,205 L806.68,205 Z M679.311448,192.8 C687.799614,192.8 695.984631,195.55 702.896424,200.675 C703.8665,201.425 704.109019,202.8 703.442092,203.8625 C703.017683,204.4875 702.350756,204.8 701.683829,204.8 C701.25942,204.8 700.774382,204.675 700.410604,204.3625 C694.286998,199.8 687.011427,197.3625 679.372078,197.3625 C671.732729,197.3625 664.457158,199.8 658.333552,204.3625 C657.302847,205.1125 655.968992,204.8625 655.241435,203.8625 C654.513878,202.8 654.756397,201.425 655.726473,200.675 C662.577635,195.4875 670.762653,192.8 679.311448,192.8 Z" id="Combined-Shape" stroke="#000000" stroke-width="5" fill="#000000" fill-rule="nonzero"></path>
    </g>
</svg>