<?xml version="1.0" encoding="utf-8"?>
<!-- Generator: Adobe Illustrator 21.0.0, SVG Export Plug-In . SVG Version: 6.00 Build 0)  -->
<svg version="1.1" id="Layer_1" xmlns="http://www.w3.org/2000/svg" xmlns:xlink="http://www.w3.org/1999/xlink" x="0px" y="0px"
	 viewBox="0 0 537.1 337.6" style="enable-background:new 0 0 537.1 337.6;" xml:space="preserve">
<style type="text/css">
	.st0{fill:#1A1A18;}
</style>
<g>
	<path class="st0" d="M47.5,144.9c37.3-19,75.2-31,115.7-24.7v0V97.9v-2.3c0-10.5-0.1-8.6-0.1-20.8
		C120.1,79.3,78.3,111.2,47.5,144.9z"/>
	<path class="st0" d="M90.5,144.8c-45.7,13.8-65.2,36.4-85.9,76.2c42.9-38.8,82.6-48.2,131.2-29.3c9.3,3.6,18.4,10,27.5,17.8v-34
		v-32.5C144.4,136.2,121.6,135.4,90.5,144.8z"/>
	<path class="st0" d="M37.7,226.5c-4.9,3.8-11.9,10.1-12.3,11.3c0.6-0.3,2.2-1.1,2.9-1.3c13.3-4.7,30.7-10.4,59.4-8.8
		c30,1.7,50.2,23.9,69,46.2c2.2,2.6,4.3,5.1,6.5,7.5v-9.8v-15.3V242C127.9,210.2,89.1,184.8,37.7,226.5z"/>
	<path class="st0" d="M78.1,85.5c5.5,0,10-4.5,10-10c0-5.5-4.5-10-10-10s-10,4.5-10,10C68,81,72.5,85.5,78.1,85.5z"/>
	<path class="st0" d="M112.5,65.4c5.5,0,10-4.5,10-10s-4.5-10-10-10s-10,4.5-10,10S107,65.4,112.5,65.4z"/>
	<path class="st0" d="M78.1,48.6c5.5,0,10-4.5,10-10s-4.5-10-10-10s-10,4.5-10,10S72.5,48.6,78.1,48.6z"/>
	<path class="st0" d="M58.1,272c-5.9,3.2-8.1,10.7-4.9,16.6c2.2,4.1,6.4,6.4,10.8,6.4c2,0,4-0.5,5.8-1.5c5.9-3.2,8.1-10.7,4.9-16.6
		C71.4,271,64,268.8,58.1,272z"/>
	<path class="st0" d="M109.1,296.4c-3.1-0.9-6.4-0.6-9.3,1c-2.9,1.6-5,4.1-5.9,7.3c-0.9,3.1-0.6,6.4,1,9.3c2.2,4.1,6.4,6.4,10.8,6.4
		c2,0,4-0.5,5.8-1.5c5.9-3.2,8.1-10.7,4.9-16.6C114.9,299.5,112.3,297.4,109.1,296.4z"/>
	<path class="st0" d="M100.2,273c1.2,0.3,2.3,0.5,3.5,0.5c2,0,4-0.5,5.8-1.5c5.9-3.2,8.1-10.7,4.9-16.6c-1.6-2.9-4.1-5-7.3-5.9
		c-3.1-0.9-6.4-0.6-9.3,1c-2.9,1.6-5,4.1-5.9,7.3c-0.9,3.1-0.6,6.4,1,9.3C94.4,269.9,97,272,100.2,273z"/>
	<path class="st0" d="M461,288.7c-8.5,0-15.5,6.9-15.5,15.5s6.9,15.5,15.5,15.5s15.5-6.9,15.5-15.5S469.6,288.7,461,288.7z M461,314
		c-5.4,0-9.8-4.4-9.8-9.8s4.4-9.8,9.8-9.8s9.8,4.4,9.8,9.8S466.4,314,461,314z"/>
	<path class="st0" d="M505.7,262.6c-8.5,0-15.5,7-15.5,15.5c0,8.5,6.9,15.5,15.5,15.5s15.5-6.9,15.5-15.5
		C521.2,269.6,514.3,262.6,505.7,262.6z M505.7,287.9c-5.4,0-9.8-4.4-9.8-9.8c0-5.4,4.4-9.8,9.8-9.8s9.8,4.4,9.8,9.8
		C515.6,283.5,511.2,287.9,505.7,287.9z"/>
	<path class="st0" d="M425,242.4v-30c16-7.3,31.7-18,46.8-32.8c22.7-22.2,34.7-45.6,44.1-79.8c-16.1,33.1-46,52.3-81.1,63.1
		c-3.3,1-6.6,2-9.8,2.9v-22.5c12.9-6.5,23.9-16.9,31.3-32c18.2-36.7-3.6-82.1-38.2-100L408,7c21.8,17.5,37.9,43.5,29.7,72.3
		c-3.1,11-7.3,19.8-12.7,26.5V71.9c0-18.6-10.3-34.8-25.4-43.3c1.6-5.2,1-11-2.2-15.9c-5.7-8.8-17.5-11.3-26.3-5.6
		c-4.3,2.8-7.2,7-8.2,12c-0.2,1.1-0.3,2.1-0.4,3.2H219.9c-27.4,0-49.6,22.3-49.6,49.6v212c0,27.4,22.3,49.6,49.6,49.6h155.5
		c21.8,0,40.3-14.1,47-33.7c7.4-2.3,14.6-5,21.6-8.2c51.3-23.5,76.1-75.6,88.5-146.2C508.9,199,470.5,229.3,425,242.4z M473.4,256.3
		c0,6.8-5.6,12.4-12.4,12.4c-6.8,0-12.4-5.6-12.4-12.4c0-6.8,5.6-12.4,12.4-12.4C467.9,243.9,473.4,249.5,473.4,256.3z M410.8,245.8
		c-3.5,0.7-7.1,1.4-10.6,1.9v-26.9c3.6-0.8,7.1-1.8,10.6-3V245.8z M216.1,281.1c-1.1-0.7-2.2-1.4-3.2-2.2v21.2
		c-6.2-2.7-10.6-9-10.6-16.2v-212c0-9.8,7.9-17.7,17.7-17.7h91.4c-0.5,4.3,0.4,8.7,2.9,12.6c3.6,5.6,9.7,8.6,16,8.6
		c3.5,0,7.1-1,10.3-3.1c4.3-2.8,7.2-7,8.2-12c0.4-2.1,0.5-4.1,0.3-6.1h26.4c8.2,0,15.1,5.6,17.1,13.3c-4.6-0.8-9.5,0-13.7,2.8
		c-8.8,5.7-11.3,17.5-5.6,26.3c3.6,5.6,9.7,8.6,16,8.6c1.3,0,2.6-0.1,3.9-0.4v17.9c-6.7,0.8-14,0.6-22.2-0.6
		c-36.8-5.1-49.3-21.2-74.4-44.3c-5.5-5.1-11.3-9.4-17.3-12.9h-48.3c23.2,10.3,35.8,26.6,65.2,53c24.7,22.1,62.9,36.5,97,34v20.7
		c-63.8,8.6-98.6-19.7-154.1-71.2c-8.5-7.9-17.3-13.9-26.2-18.2V144c9.8,9.2,19.7,19.8,28.7,27c47.2,38.2,100.3,60.3,151.6,51.2
		v26.4c-13.9,1.6-28.2,1.9-42.7,1.1c-73.5-4.3-106.1-41.7-137.6-72.1v80.1c7.4,6,15.6,11.9,24.7,17.3c20.1,11.8,42.5,20.8,65.9,26.6
		h-55.6C237.8,295.8,227.8,288.8,216.1,281.1z M343.2,59.2c-0.7,3.5-2.8,6.5-5.8,8.4c-6.2,4-14.4,2.2-18.5-3.9
		c-4-6.2-2.2-14.4,3.9-18.5c2.2-1.5,4.8-2.1,7.2-2.1c4.4,0,8.7,2.1,11.2,6.1C343.3,52.1,344,55.7,343.2,59.2z M396.5,97.3
		c-6.2,4-14.4,2.2-18.5-3.9c-4-6.2-2.2-14.4,3.9-18.5c2.2-1.5,4.8-2.1,7.2-2.1c4.4,0,8.7,2.1,11.2,6.1c1.9,3,2.6,6.6,1.9,10
		S399.5,95.4,396.5,97.3z M410.8,169.3c-3.6,0.8-7.2,1.5-10.6,2.1V151c3.6-0.5,7.2-1.3,10.6-2.2V169.3z M368.4,20.3
		c0.7-3.5,2.8-6.5,5.8-8.4c2.2-1.5,4.8-2.1,7.2-2.1c4.4,0,8.7,2.1,11.2,6.1c4,6.2,2.2,14.4-3.9,18.5c-3,1.9-6.5,2.6-10,1.9
		c-3.5-0.7-6.5-2.8-8.4-5.8S367.7,23.8,368.4,20.3z M184.5,283.9v-212c0-19.5,15.9-35.4,35.4-35.4H368c2.6,2.6,5.8,4.4,9.5,5.2
		c1.3,0.3,2.7,0.4,4,0.4c3.1,0,6.1-0.8,8.9-2.2c12.1,5.7,20.4,17.9,20.4,32.1v45.6c-3.3,1.7-6.8,3-10.6,3.9v-19.8
		c3.9-2.8,6.6-6.8,7.6-11.5c1.1-5,0.1-10-2.7-14.3c-1.4-2.1-3.1-3.8-5-5.2c-0.7-13.1-11.5-23.5-24.8-23.5h-28.7
		c-0.2-0.4-0.4-0.7-0.6-1.1c-5.7-8.8-17.5-11.3-26.3-5.6c-2.7,1.7-4.8,4-6.2,6.7h-93.7c-13.7,0-24.8,11.1-24.8,24.8v212
		c0,11.6,8,21.4,18.8,24.1c10.1,5.5,23.2,9.3,38.2,11.4h-32.2C200.4,319.3,184.5,303.4,184.5,283.9z M375.4,319.3h-70.9
		c-17.4-1.2-30.8-5-43.1-10.6h97.1c1.8,0,3.6,0,5.3,0h11.5c2.4,0,4.7-0.3,6.8-1c7.4-0.7,14.7-1.8,22-3.3
		C397.8,313.4,387.3,319.3,375.4,319.3z"/>
</g>
</svg>
