<?xml version="1.0" encoding="utf-8"?>
<!-- Generator: Adobe Illustrator 22.1.0, SVG Export Plug-In . SVG Version: 6.00 Build 0)  -->
<svg version="1.1" id="Слой_1" xmlns="http://www.w3.org/2000/svg" xmlns:xlink="http://www.w3.org/1999/xlink" x="0px" y="0px"
	 viewBox="0 0 725.7 725.7" style="enable-background:new 0 0 725.7 725.7;" xml:space="preserve">
<style type="text/css">
	.st0{fill:none;stroke:#000000;stroke-width:10;stroke-miterlimit:10;}
	.st1{fill:none;stroke:#000000;stroke-width:2;stroke-miterlimit:10;}
</style>
<g>
	<path class="st0" d="M366.7,285.2c2.4-79.6,4.7-106.5,49.2-214.8c1.9-4.7-1.9-9.7-6.9-9.1L295.2,75.3c-4.5,0.6-7.9,4.3-8,8.9
		C285.1,225.4,310,313.2,310,313.2"/>
</g>
<g>
	<path class="st0" d="M359.6,289.3c1-1,2.1-2,3.2-3c1.4-1.3,2.8-2.6,4.3-4c1.5-1.4,3.1-2.9,4.8-4.4c0.6-0.5,1.2-1.1,1.8-1.6v0
		c1.2-1.1,2.4-2.1,3.6-3.2c2-1.8,4-3.6,6.1-5.5c2.3-2,4.6-4.1,7-6.2c2.6-2.3,5.4-4.7,8.2-7.2c3.1-2.7,6.4-5.5,9.7-8.3
		c3.8-3.2,7.6-6.5,11.6-9.8c4.6-3.8,9.3-7.7,14.1-11.6c5.7-4.6,11.5-9.3,17.5-14l0,0c0.3-0.3,0.7-0.5,1-0.8c6.8-5.3,13.8-10.7,21-16
		h0c9-6.7,18.2-13.4,27.7-20.1l0,0c10.4-7.3,21.1-14.5,32-21.6c0.9-0.6,1.8-1.2,2.7-1.7c3.8-2.4,7.6-4.8,11.5-7.2
		c3.9-2.4,8.9-1.5,11.8,1.9l0.4,0.5l9.9,11.9l9.8,11.8l9.7,11.7l9.8,11.7l9.8,11.8l9.9,12l10.1,12.2l3.9,4.6
		c3.2,3.9,1.1,9.8-3.9,10.8c-7,1.3-13.7,2.6-20.1,3.9c-11.8,2.5-22.7,5.1-33.1,7.9h0c-21.8,5.8-40.7,12.2-57.9,19.3
		c-0.5,0.2-1,0.4-1.5,0.6h0c-33.5,13.8-60.5,29.8-89.4,47.4h0c-0.3,0.2-0.6,0.4-1,0.6"/>
</g>
<g>
	<path class="st0" d="M425,322.6c0.4,0,0.7,0.1,1.1,0.2c0.1,0,0.3,0,0.4,0.1h0c1.9,0.3,3.9,0.6,5.9,0.9c2.3,0.4,4.7,0.7,7.1,1.1
		c2.7,0.4,5.4,0.8,8.2,1.3c3.1,0.5,6.3,1,9.5,1.6c3.6,0.6,7.4,1.3,11.2,1.9c4.4,0.8,8.8,1.6,13.4,2.4c5.3,1,10.7,2,16.2,3.1
		c6.5,1.3,13.2,2.7,20,4.1c7.3,1.6,14.7,3.2,22.3,5c0.9,0.2,1.8,0.4,2.7,0.6c10.2,2.4,20.7,5,31.3,7.9c12.8,3.4,25.8,7.1,38.8,11.1
		c7,2.1,14,4.4,21,6.7c4.4,1.5,8.9,3,13.3,4.5c2.1,0.7,3.8,2.2,4.8,4c1.1,1.9,1.5,4.2,1.1,6.4l-1.7,8.8l-3,14.9l-3,14.8l-3,14.9
		l-3,15l-3,15.1l-3.1,15.4l-2.7,13.6c-0.2,0.8-0.4,1.4-0.8,2c-2,3.4-6.8,4.5-10.1,1.7c-5.6-4.8-11-9.4-16.4-13.7
		c-1.7-1.4-3.3-2.7-4.9-4c-21.7-17.3-41.4-30.8-60.1-41.9c-4.1-2.4-8.1-4.7-12.1-6.9c-30.9-17.1-59.5-28-90.1-39
		c-1.7-0.6,0,0-1.7-0.6l-3.5-1.3c0,0-0.1,0-0.1,0"/>
</g>
<g>
	<path class="st0" d="M432.6,390.4c0.1,0.1,0.1,0.2,0.2,0.3c1.1,1.8,2.3,3.6,3.5,5.4c0.1,0.2,0.3,0.4,0.4,0.6c1.5,2.3,3,4.6,4.5,7
		c1.7,2.7,3.4,5.5,5.2,8.3c2,3.3,4.1,6.6,6.2,10.1c2.4,4,4.9,8.1,7.4,12.3c3,5,6.1,10.2,9.1,15.5c3.7,6.4,7.5,13,11.3,19.8v0
		c3.4,6,6.7,12.2,10.1,18.5c1.3,2.4,2.6,4.8,3.8,7.2l0,0c5.7,10.8,11.4,22,17,33.5c6.8,13.9,13.5,28.3,19.8,43v0
		c0.4,0.8,0.7,1.7,1.1,2.5c2.8,6.5,5.5,13,8.2,19.6c1.5,3.8,0.3,8.1-2.8,10.6c-0.3,0.3-0.7,0.5-1.1,0.8l-12.4,7.1l-13.4,7.7
		l-13.4,7.7l-13.5,7.8l-13.7,7.9l-13.9,8l-14.2,8.2l-4.9,2.8c-4.4,2.5-9.9-0.6-9.9-5.7c-0.1-10.6-0.4-20.7-0.9-30.3
		c-0.6-12.8-1.6-24.7-2.8-35.9c-2.3-20.6-5.5-38.9-9.6-55.9c-7.5-31.6-17.6-58.6-28.7-87.1c-0.1-0.2-0.2-0.4-0.3-0.6
		c-1.4-3.6-2.8-7.1-4.2-10.7"/>
</g>
<g>
	<path class="st0" d="M389.6,433.5C389.6,433.5,389.6,433.6,389.6,433.5c-0.7,2.1-1.4,4.2-2.1,6.3c-0.8,2.3-1.6,4.7-2.4,7.1
		c0,0,0,0.1,0,0.1c-0.9,2.6-1.8,5.3-2.8,8.1c-1.1,3.1-2.2,6.3-3.4,9.6c-1.3,3.7-2.7,7.5-4.2,11.4c-1.7,4.5-3.4,9.1-5.2,13.8
		c-2.1,5.5-4.3,11.2-6.6,17c-2.7,6.8-5.6,13.9-8.6,21.1l0,0c-1.9,4.5-3.8,9.1-5.8,13.7c-1.8,4.2-3.7,8.5-5.6,12.9
		c-4.9,10.9-10,22.1-15.4,33.3l0,0c-6.5,13.4-13.3,26.9-20.6,40.4c-0.1,0.2-0.2,0.3-0.3,0.5l0,0c-3.5,6.4-7,12.9-10.7,19.3
		c-2.1,3.6-6.3,5.3-10.3,4.3c-0.3-0.1-0.7-0.2-1-0.3l-13.6-5.4l-14.4-5.8l-14.4-5.8l-14.5-5.8l-14.6-5.8l-14.9-5.9l-15.2-6l-5-2
		c-4.7-1.9-5.6-8.1-1.7-11.3c8.1-6.5,15.7-12.9,22.8-19.1c7.9-6.9,15.3-13.7,22.1-20.3l0,0c16.8-16.2,30.5-31.5,42.4-46.6
		c21.4-27,36.8-53.1,53.2-81.3c1.1-1.9,2.2-3.8,3.3-5.8"/>
</g>
<g>
	<path class="st0" d="M325.1,428.2c-1.7,0.5-3.4,1.1-5.1,1.7c-1,0.3-2,0.6-3.1,1c-1.1,0.4-2.3,0.7-3.5,1.1c-2.4,0.8-5,1.5-7.5,2.3h0
		c-2.8,0.9-5.7,1.7-8.7,2.6c-3.3,1-6.8,2-10.3,3c-4,1.2-8.1,2.3-12.3,3.5c-4.8,1.3-9.8,2.7-14.9,4.1c-6,1.6-12.1,3.2-18.4,4.8h0
		c-7.5,1.9-15.2,3.8-23.1,5.6c-2,0.5-3.9,0.9-5.9,1.4c-7.6,1.7-15.4,3.4-23.3,5.1h0c-12,2.5-24.4,4.9-37.1,7.1h0
		c-11.5,2-23.2,3.8-35,5.5c-3.7,0.5-7.3,1-11,1.5h0c-3.7,0.5-7.3,0.9-11,1.3c-4.5,0.5-8.7-2.4-9.8-6.8l-0.5-2.1l-3.9-15.2l-3.9-15.1
		l-3.9-15l-3.9-15.1l-3.9-15.3l-4-15.5l-4.1-15.8l-0.5-2.1c-1.3-4.9,3.3-9.4,8.2-8c9.4,2.5,18.5,4.8,27.2,6.8
		c5.3,1.2,10.5,2.3,15.5,3.3c27.8,5.6,51.9,8.5,74.2,9.5h0.1c1.1,0.1,2.1,0.1,3.2,0.1c36.8,1.5,68.7-1.9,103.6-5.6"/>
</g>
<g>
	<path class="st0" d="M288.3,367.8c-0.1,0-0.1-0.1-0.2-0.1c-2.3-1.3-4.6-2.6-7-3.9c-2.7-1.5-5.4-3.1-8.2-4.7l0,0
		c-3.2-1.9-6.5-3.8-10-5.8l0,0c-3.9-2.3-8-4.7-12.2-7.2l0,0c-4.9-3-10-6.1-15.3-9.3l0,0c-6.3-3.9-12.8-8-19.4-12.3
		c-7.5-4.8-15.3-9.9-23.1-15.2c-0.6-0.4-1.3-0.9-1.9-1.3l-0.1,0c-10.5-7.1-21.2-14.6-32.1-22.4l0,0c-13.2-9.6-26.5-19.6-39.7-30.2
		c-1.3-1.1-2.6-2.1-4-3.2c-4.9-4-9.8-8-14.7-12.1c-3.2-2.7-4.1-7.3-2.3-11c0.1-0.3,0.3-0.5,0.4-0.8l7.8-12.4l8.3-13.1v0l8.3-13.1
		l8.3-13.2l8.4-13.4l8.6-13.6l8.8-14l2.7-4.2c2.7-4.3,9-4,11.4,0.4c4.9,9.1,9.8,17.7,14.6,25.8c7.4,12.5,14.7,23.8,21.9,34.2l0,0.1
		c11.1,16,22,29.8,32.9,42.2c15.6,17.8,31.4,32.8,47.8,47.3l0.1,0c5.3,4.7,10.6,9.3,16.1,14c3,2.6,6,5.1,9,7.7l0,0
		c0.9,0.8,1.9,1.6,2.9,2.4"/>
</g>
<path class="st1" d="M541,354.5c-0.2-3.1-0.4-6.2-0.7-9.3c0-0.3-0.1-0.6-0.1-0.9c-0.3-2.8-0.7-5.6-1.1-8.4c-0.5-3.1-1-6.2-1.7-9.2
	c-0.7-3.1-1.4-6.1-2.2-9.1c-0.8-3-1.7-6-2.6-9c-1-3-2-5.9-3.1-8.8c-1.1-2.9-2.3-5.8-3.6-8.6c-1.3-2.9-2.6-5.7-4-8.4
	c-1.4-2.7-2.8-5.4-4.4-8c0-0.1-0.1-0.1-0.1-0.2c-1.5-2.7-3.2-5.4-4.9-8c-1.7-2.6-3.5-5.2-5.3-7.7c-1.8-2.5-3.7-5-5.7-7.4
	c-2-2.4-4-4.8-6.1-7.1c-2.1-2.3-4.2-4.6-6.4-6.8s-4.5-4.4-6.8-6.4c-2.3-2.1-4.7-4.1-7.1-6.1c-2.4-2-4.9-3.9-7.4-5.7
	c-2.5-1.8-5.1-3.6-7.7-5.3c-2.5-1.6-5-3.2-7.5-4.6c-0.1-0.1-0.3-0.2-0.4-0.3c-2.7-1.6-5.4-3-8.2-4.5c-2.8-1.4-5.6-2.8-8.4-4
	c-2.8-1.3-5.7-2.5-8.6-3.6c-2.9-1.1-5.8-2.2-8.8-3.1c-3-1-5.9-1.8-9-2.6c-3-0.8-6-1.5-9.1-2.2c-3-0.6-6.1-1.2-9.2-1.7
	c-3.1-0.5-6.2-0.9-9.3-1.2c-0.1,0-0.2,0-0.3,0c-3-0.3-6-0.5-9-0.7c-3.1-0.2-6.2-0.2-9.3-0.2s-6.2,0.1-9.3,0.3
	c-3.1,0.1-6.2,0.4-9.3,0.7c-3.1,0.3-6.2,0.7-9.3,1.2c-3.1,0.5-6.1,1-9.2,1.7c-3.1,0.6-6.1,1.4-9.1,2.2c-3,0.8-6,1.7-9,2.7
	c-3,1-5.9,2-8.8,3.1c-2.3,0.9-4.5,1.8-6.7,2.8c-0.6,0.3-1.3,0.5-1.9,0.8c-2.8,1.3-5.7,2.6-8.4,4c-2.8,1.4-5.5,2.9-8.2,4.5
	c-2.7,1.6-5.3,3.2-8,4.9c-2.6,1.7-5.2,3.5-7.7,5.3c-2.5,1.8-5,3.7-7.4,5.7s-4.8,4-7.1,6.1c-1,0.8-1.9,1.7-2.8,2.6
	c-1.3,1.3-2.7,2.6-4,3.9c-2.2,2.2-4.3,4.5-6.4,6.8c-2.1,2.3-4.1,4.7-6.1,7.1s-3.9,4.9-5.7,7.4c-1.8,2.5-3.6,5.1-5.3,7.7
	c-1.7,2.6-3.3,5.3-4.9,8c-1.6,2.7-3,5.4-4.5,8.2c-1.4,2.8-2.8,5.6-4,8.4c-1.3,2.8-2.5,5.7-3.6,8.6c-1.1,2.9-2.1,5.8-3.1,8.8
	c-0.1,0.2-0.1,0.4-0.2,0.6c-0.9,2.8-1.7,5.5-2.5,8.3c-0.8,3-1.5,6-2.2,9.1c-0.6,3-1.2,6.1-1.7,9.2c-0.5,3.1-0.9,6.2-1.2,9.3
	c-0.3,3.1-0.6,6.2-0.7,9.3c-0.2,3.1-0.2,6.2-0.2,9.3c0,3.1,0.1,6.3,0.2,9.3c0,0.1,0,0.2,0,0.3c0.2,3,0.4,6,0.7,9
	c0.3,3.1,0.7,6.2,1.2,9.3c0.5,3.1,1,6.1,1.7,9.2c0.7,3.1,1.4,6.1,2.2,9.1c0.8,3,1.7,6,2.6,9c1,3,2,5.9,3.1,8.8
	c1.1,2.9,2.3,5.8,3.6,8.6c1.3,2.8,2.6,5.7,4,8.4c1.4,2.8,2.9,5.5,4.5,8.2c1.2,2.1,2.5,4.2,3.8,6.2c0.4,0.6,0.7,1.2,1.1,1.8
	c1.7,2.6,3.5,5.2,5.3,7.7c1.8,2.5,3.7,5,5.7,7.4s4,4.8,6.1,7.1c2.1,2.3,4.2,4.6,6.4,6.8s4.5,4.3,6.8,6.4c2.3,2.1,4.7,4.1,7.1,6.1
	s4.9,3.9,7.4,5.7c1.9,1.4,3.8,2.7,5.7,4c0.7,0.4,1.3,0.9,2,1.3c2.6,1.7,5.3,3.3,8,4.9c2.7,1.6,5.4,3,8.2,4.5c2.8,1.4,5.6,2.8,8.4,4
	c2.8,1.3,5.7,2.5,8.6,3.6c2.9,1.1,5.8,2.1,8.8,3.1c3,1,5.9,1.8,9,2.6c3,0.8,6,1.5,9.1,2.2c3,0.6,6.1,1.2,9.2,1.7
	c3.1,0.5,6.2,0.9,9.3,1.2c1.4,0.2,2.8,0.3,4.2,0.4c1.7,0.1,3.4,0.2,5.1,0.3c3.1,0.2,6.2,0.2,9.3,0.2s6.3-0.1,9.3-0.3
	c3.1-0.2,6.2-0.4,9.3-0.7c3.1-0.3,6.2-0.7,9.3-1.2c3.1-0.5,6.2-1,9.2-1.7c3.1-0.6,6.1-1.4,9.1-2.2c1.7-0.5,3.4-0.9,5-1.4
	c1.3-0.4,2.6-0.8,3.9-1.2c3-1,5.9-2,8.8-3.1c2.9-1.1,5.8-2.3,8.6-3.6c2.9-1.3,5.7-2.6,8.4-4c2.8-1.4,5.5-2.9,8.2-4.5
	c2.7-1.6,5.4-3.2,8-4.9c2.6-1.7,5.2-3.5,7.7-5.3c2.5-1.8,5-3.7,7.4-5.7c2.4-2,4.8-4,7.1-6.1c2.3-2.1,4.6-4.2,6.8-6.4
	c0.6-0.6,1.1-1.1,1.7-1.7c1.6-1.7,3.2-3.4,4.8-5.1c2.1-2.3,4.1-4.7,6.1-7.1c2-2.4,3.9-4.9,5.7-7.4c1.8-2.5,3.6-5.1,5.3-7.7
	c1.7-2.6,3.3-5.3,4.9-8c1.6-2.7,3-5.4,4.5-8.2c1.4-2.8,2.8-5.6,4-8.4c0.2-0.4,0.4-0.9,0.6-1.3c1.1-2.4,2.1-4.9,3-7.3
	c1.1-2.9,2.2-5.8,3.1-8.8c1-3,1.8-5.9,2.6-9c0.8-3,1.5-6,2.2-9.1c0.6-3,1.2-6.1,1.7-9.2c0.5-3.1,0.9-6.2,1.2-9.3
	c0.3-3.1,0.6-6.2,0.7-9.3c0.2-3.1,0.2-6.2,0.2-9.3C541.2,360.7,541.2,357.6,541,354.5z M437.1,371.6c-0.1,1.3-0.3,2.6-0.5,3.9
	c-0.2,1.3-0.4,2.6-0.7,3.8c-0.3,1.3-0.6,2.5-0.9,3.8c-0.3,1.3-0.7,2.5-1.1,3.8c-0.4,1.2-0.8,2.3-1.2,3.5c0,0.1,0,0.1-0.1,0.2
	c-0.5,1.2-1,2.4-1.5,3.6l0,0c-0.5,1.2-1.1,2.4-1.7,3.5c-0.6,1.2-1.2,2.3-1.9,3.4c-0.6,1.1-1.3,2.3-2,3.3c-0.7,1.1-1.4,2.2-2.2,3.2
	c-0.8,1.1-1.6,2.1-2.4,3.1c-0.8,1-1.7,2-2.5,3c-0.9,1-1.8,1.9-2.7,2.8c-0.9,0.9-1.8,1.8-2.8,2.7c-1,0.9-2,1.7-3,2.5s-2,1.6-3.1,2.4
	c-1.1,0.8-2.1,1.5-3.2,2.2c-1.1,0.7-2.2,1.4-3.3,2c-1.1,0.7-2.3,1.3-3.4,1.9c-1.1,0.6-2.3,1.2-3.5,1.7c-1.2,0.5-2.4,1-3.6,1.5
	c0,0,0,0,0,0c-1.2,0.5-2.4,0.9-3.7,1.3c-1.2,0.4-2.5,0.8-3.7,1.1c-0.4,0.1-0.9,0.2-1.3,0.3c-0.8,0.2-1.6,0.4-2.5,0.6
	c-1.3,0.3-2.6,0.5-3.8,0.7c-1.3,0.2-2.6,0.4-3.9,0.5c-1.3,0.1-2.6,0.2-3.9,0.3c-1.3,0.1-2.6,0.1-3.9,0.1c-1.3,0-2.6,0-3.9-0.1h0
	c-1.3-0.1-2.6-0.2-3.9-0.3c-1.3-0.1-2.6-0.3-3.9-0.5c-1.3-0.2-2.6-0.4-3.8-0.7c-1.3-0.3-2.5-0.6-3.8-0.9c-1.3-0.3-2.5-0.7-3.8-1.1
	c-1.2-0.4-2.5-0.8-3.7-1.3c-1.2-0.5-2.4-1-3.6-1.5c-1.2-0.5-2.4-1.1-3.5-1.7c-1.2-0.6-2.3-1.2-3.4-1.9c-0.1-0.1-0.3-0.2-0.4-0.3
	c-1-0.6-2-1.2-2.9-1.8c-0.7-0.4-1.3-0.9-2-1.4c-0.4-0.3-0.8-0.6-1.2-0.9c-1.1-0.8-2.1-1.6-3.1-2.4c-1-0.8-2-1.7-3-2.5
	c-1-0.9-1.9-1.8-2.8-2.7s-1.8-1.9-2.7-2.8c-0.9-1-1.7-2-2.5-3s-1.6-2-2.4-3.1c-0.8-1-1.5-2.1-2.2-3.2c-0.7-1.1-1.4-2.2-2-3.3
	c-0.6-1.1-1.3-2.3-1.9-3.4c-0.6-1.2-1.2-2.3-1.7-3.5c-0.5-1.2-1-2.4-1.5-3.6c-0.5-1.2-0.9-2.4-1.3-3.7c-0.4-1.2-0.8-2.5-1.1-3.8
	c-0.3-1.3-0.6-2.5-0.9-3.8c-0.3-1.3-0.5-2.6-0.7-3.8c-0.2-1.3-0.4-2.6-0.5-3.9c-0.1-1.2-0.2-2.5-0.3-3.8v0c0,0,0-0.1,0-0.1
	c-0.1-1.3-0.1-2.6-0.1-3.9c0-1.3,0-2.6,0.1-3.9v0c0.1-1.3,0.2-2.6,0.3-3.9c0.1-1.3,0.3-2.6,0.5-3.9c0.2-1.3,0.4-2.6,0.7-3.8
	c0.3-1.3,0.6-2.5,0.9-3.8c0.3-1.3,0.7-2.5,1.1-3.8c0.4-1.2,0.8-2.5,1.3-3.7c0.5-1.2,1-2.4,1.5-3.6c0.5-1.2,1.1-2.4,1.7-3.5
	c0.6-1.2,1.2-2.3,1.9-3.4c0.6-1.1,1.3-2.2,2-3.3c0.7-1.1,1.5-2.2,2.2-3.2c0.8-1.1,1.6-2.1,2.4-3.1s1.7-2,2.5-3
	c0.1-0.1,0.2-0.2,0.3-0.4c0.8-0.8,1.5-1.7,2.4-2.5c0.9-0.9,1.9-1.8,2.8-2.7c1-0.9,2-1.7,3-2.5c0.2-0.1,0.4-0.3,0.5-0.4
	c0.8-0.7,1.7-1.3,2.6-1.9c1-0.8,2.1-1.5,3.2-2.2c1.1-0.7,2.2-1.4,3.3-2c1.1-0.7,2.3-1.3,3.4-1.9c1.1-0.6,2.3-1.2,3.5-1.7
	c1.2-0.5,2.4-1,3.6-1.5c1.2-0.5,2.4-0.9,3.7-1.3c1.2-0.4,2.5-0.8,3.7-1.1c1.3-0.3,2.5-0.6,3.8-0.9c1.3-0.3,2.6-0.5,3.8-0.7
	c1.3-0.2,2.6-0.4,3.9-0.5c1.3-0.1,2.6-0.2,3.9-0.3c0.2,0,0.4,0,0.7,0c1.1-0.1,2.1-0.1,3.2-0.1c1.3,0,2.6,0,3.9,0.1s2.6,0.2,3.9,0.3
	c0.9,0.1,1.8,0.2,2.7,0.3c0.4,0.1,0.8,0.1,1.2,0.2c1.3,0.2,2.6,0.4,3.8,0.7c1.3,0.3,2.5,0.6,3.8,0.9c1.3,0.3,2.5,0.7,3.8,1.1
	c1.2,0.4,2.5,0.8,3.7,1.3c1.2,0.5,2.4,1,3.6,1.5c1.2,0.5,2.4,1.1,3.5,1.7c1.2,0.6,2.3,1.2,3.4,1.9c1.1,0.6,2.2,1.3,3.3,2
	c1.1,0.7,2.2,1.4,3.2,2.2c1.1,0.8,2.1,1.6,3.1,2.4s2,1.7,3,2.5c1,0.9,1.9,1.8,2.8,2.7c0.9,0.9,1.8,1.8,2.7,2.8c0.9,1,1.7,2,2.5,3
	c0.8,1,1.6,2,2.4,3.1c0.6,0.9,1.2,1.7,1.8,2.6c0.1,0.2,0.3,0.4,0.4,0.6c0,0.1,0.1,0.1,0.1,0.2c0.7,1,1.3,2.1,1.9,3.1
	c0.7,1.1,1.3,2.3,1.9,3.4c0.6,1.2,1.2,2.3,1.7,3.5c0.5,1.2,1,2.4,1.5,3.6c0.5,1.2,0.9,2.4,1.3,3.7c0.4,1.2,0.8,2.5,1.1,3.8
	c0.3,1.3,0.6,2.5,0.9,3.8c0.3,1.3,0.5,2.6,0.7,3.8c0.2,1.3,0.4,2.6,0.5,3.9c0.1,1.3,0.3,2.6,0.3,3.9c0.1,1.3,0.1,2.6,0.1,3.9
	c0,1.3,0,2.6-0.1,3.9S437.2,370.3,437.1,371.6z"/>
<path class="st1" d="M633.7,349.6c-0.2-4.8-0.6-9.5-1-14.2c-0.5-4.7-1.1-9.4-1.8-14.1c-0.7-4.7-1.6-9.4-2.5-14
	c-1-4.7-2-9.3-3.3-13.8c-1.2-4.6-2.5-9.2-4-13.7c-1.5-4.5-3-9-4.7-13.4c-1.7-4.5-3.5-8.8-5.4-13.2c-0.8-1.9-1.7-3.8-2.6-5.6
	c-1.1-2.4-2.3-4.8-3.5-7.2c-2.1-4.2-4.4-8.4-6.8-12.5c-2.4-4.1-4.8-8.2-7.4-12.1c-2.6-4-5.3-7.9-8-11.7c-2.8-3.9-5.7-7.6-8.6-11.3
	c-3-3.7-6.1-7.3-9.2-10.8c-3.2-3.5-6.4-7-9.8-10.3c-3.3-3.4-6.8-6.6-10.3-9.8c-3.5-3.2-7.1-6.3-10.8-9.3c-0.3-0.2-0.5-0.4-0.8-0.6
	c-3.4-2.8-6.9-5.5-10.5-8.1c-3.8-2.8-7.7-5.5-11.7-8.1c-4-2.6-8-5.1-12.1-7.5c-4.1-2.4-8.3-4.7-12.5-6.8c-4.2-2.2-8.5-4.2-12.9-6.2
	c-4.3-1.9-8.7-3.8-13.1-5.5c-4.4-1.7-8.9-3.3-13.4-4.8c-4.5-1.5-9.1-2.8-13.7-4.1c-4.6-1.2-9.2-2.3-13.9-3.3
	c-4.3-0.9-8.7-1.7-13.1-2.5c-0.3,0-0.6-0.1-0.9-0.1c-4.7-0.7-9.4-1.4-14.1-1.8c-4.7-0.5-9.4-0.9-14.2-1.1c-4.7-0.3-9.5-0.4-14.3-0.4
	c-4.8,0-9.5,0.1-14.2,0.4c-4.8,0.2-9.5,0.6-14.2,1.1c-4.8,0.5-9.5,1.1-14.1,1.8c-4.7,0.8-9.4,1.6-14,2.6c-4.7,1-9.3,2.1-13.9,3.3
	c-1.8,0.5-3.5,1-5.3,1.5c-2.8,0.8-5.6,1.7-8.4,2.6c-4.5,1.5-9,3.1-13.4,4.8c-4.4,1.7-8.8,3.5-13.2,5.5c-4.3,1.9-8.6,4-12.8,6.2
	c-4.2,2.2-8.4,4.5-12.5,6.8c-4.1,2.4-8.2,4.9-12.1,7.5c-4,2.6-7.9,5.3-11.7,8.1c-3.8,2.8-7.6,5.7-11.3,8.7c-2,1.6-3.9,3.2-5.8,4.9
	c-1.7,1.4-3.3,2.9-5,4.4c-3.5,3.2-7,6.5-10.3,9.8c-3.3,3.4-6.6,6.8-9.8,10.3c-3.2,3.5-6.2,7.2-9.2,10.8c-3,3.7-5.9,7.5-8.6,11.3
	c-2.8,3.8-5.5,7.8-8,11.7c-2.6,4-5.1,8-7.4,12.1c-2.4,4.1-4.6,8.3-6.8,12.5c-2,3.8-3.8,7.7-5.6,11.7c-0.2,0.4-0.4,0.8-0.5,1.2
	c-1.9,4.3-3.7,8.7-5.4,13.2c-1.7,4.4-3.3,8.9-4.7,13.4c-1.4,4.5-2.8,9-4,13.7c-1.2,4.6-2.3,9.2-3.3,13.8c-1,4.6-1.8,9.3-2.5,14
	c-0.7,4.7-1.3,9.4-1.8,14.1c-0.5,4.7-0.8,9.4-1,14.2c-0.2,3.6-0.3,7.2-0.3,10.8c0,0.8,0,1.6,0,2.3c0,0.3,0,0.7,0,1
	c0,4.8,0.1,9.5,0.4,14.2c0.3,4.8,0.7,9.5,1.2,14.2c0.5,4.7,1.1,9.4,1.9,14.1c0.8,4.7,1.6,9.3,2.6,14c1,4.6,2.1,9.2,3.3,13.8
	c1.2,4.6,2.6,9.1,4.1,13.6c1.5,4.5,3.1,8.9,4.8,13.3c1.7,4.4,3.5,8.8,5.5,13.1c0.4,1,0.9,1.9,1.3,2.9c1.5,3.3,3.2,6.6,4.8,9.9
	c2.2,4.2,4.4,8.4,6.8,12.4c2.4,4.1,4.9,8.1,7.5,12.1c2.6,4,5.3,7.8,8.1,11.6c2.8,3.8,5.7,7.5,8.7,11.2c3,3.7,6.1,7.3,9.2,10.8
	c3.2,3.5,6.4,6.9,9.8,10.3c3.3,3.3,6.8,6.6,10.3,9.7c3.5,3.2,7.1,6.2,10.8,9.2c2.1,1.7,4.3,3.4,6.5,5c1.6,1.2,3.2,2.4,4.8,3.5
	c3.8,2.8,7.7,5.4,11.7,8c4,2.6,8,5,12.1,7.4c4.1,2.4,8.2,4.6,12.5,6.7c4.2,2.1,8.5,4.2,12.8,6.1c4.3,1.9,8.7,3.7,13.1,5.4
	c4.4,1.7,8.8,3.3,13.3,4.7c4.5,1.5,9,2.8,13.6,4c4.5,1.2,9.1,2.3,13.8,3.3l0.1,0c4.6,1,9.1,1.8,13.8,2.5c4.6,0.7,9.3,1.3,14,1.8
	c4.7,0.5,9.4,0.9,14.1,1.1c4.7,0.2,9.4,0.4,14.1,0.4c4.8,0,9.5-0.1,14.1-0.4c4.7-0.2,9.4-0.6,14.1-1.1c4.7-0.5,9.4-1.1,14-1.8
	c4.7-0.7,9.3-1.6,13.9-2.6c2.5-0.5,4.9-1.1,7.4-1.7c2.1-0.5,4.2-1,6.3-1.6c4.6-1.2,9.1-2.5,13.6-4c4.5-1.5,9-3,13.3-4.7
	c4.4-1.7,8.8-3.5,13.1-5.4c4.3-1.9,8.6-3.9,12.8-6.1c4.2-2.1,8.4-4.4,12.4-6.8c4.1-2.3,8.1-4.8,12.1-7.4c4-2.6,7.9-5.2,11.7-8
	c3.6-2.6,7.2-5.3,10.7-8.1c0.2-0.1,0.4-0.3,0.6-0.5c3.7-3,7.3-6,10.8-9.2c3.5-3.1,7-6.4,10.3-9.7c3.3-3.3,6.6-6.8,9.8-10.3
	c3.2-3.5,6.3-7.1,9.2-10.8c3-3.7,5.9-7.4,8.7-11.2c2.8-3.8,5.5-7.7,8.1-11.6c2.6-3.9,5.1-8,7.5-12.1c2.2-3.7,4.2-7.5,6.2-11.3
	c0.2-0.4,0.4-0.8,0.6-1.2c2.2-4.2,4.2-8.5,6.2-12.8c1.9-4.3,3.8-8.7,5.5-13.1c1.7-4.4,3.3-8.8,4.8-13.3c1.5-4.5,2.8-9,4.1-13.6
	c1.2-4.5,2.4-9.2,3.4-13.8c1-4.6,1.9-9.3,2.6-14c0.8-4.7,1.4-9.3,1.9-14.1c0.5-4.7,0.9-9.4,1.2-14.2c0.1-2.5,0.2-5,0.3-7.5
	c0.1-2.2,0.1-4.4,0.1-6.7c0-0.3,0-0.7,0-1C634,358.4,633.9,354,633.7,349.6z M437.4,367.7c-0.1,1.3-0.2,2.6-0.3,3.9
	c-0.1,1.3-0.3,2.6-0.5,3.9c-0.2,1.3-0.4,2.6-0.7,3.8c-0.3,1.3-0.6,2.5-0.9,3.8c-0.3,1.3-0.7,2.5-1.1,3.8c-0.4,1.2-0.8,2.3-1.2,3.5
	c0,0.1,0,0.1-0.1,0.2c-0.5,1.2-1,2.4-1.5,3.6l0,0c-0.5,1.2-1.1,2.4-1.7,3.5c-0.6,1.2-1.2,2.3-1.9,3.4c-0.6,1.1-1.3,2.3-2,3.3
	c-0.7,1.1-1.4,2.2-2.2,3.2c-0.8,1.1-1.6,2.1-2.4,3.1c-0.8,1-1.7,2-2.5,3c-0.9,1-1.8,1.9-2.7,2.8c-0.9,0.9-1.8,1.8-2.8,2.7
	c-1,0.9-2,1.7-3,2.5s-2,1.6-3.1,2.4c-1.1,0.8-2.1,1.5-3.2,2.2c-1.1,0.7-2.2,1.4-3.3,2c-1.1,0.7-2.3,1.3-3.4,1.9
	c-1.1,0.6-2.3,1.2-3.5,1.7c-1.2,0.5-2.4,1-3.6,1.5c0,0,0,0,0,0c-1.2,0.5-2.4,0.9-3.7,1.3c-1.2,0.4-2.5,0.8-3.7,1.1
	c-0.4,0.1-0.9,0.2-1.3,0.3c-0.8,0.2-1.6,0.4-2.5,0.6c-1.3,0.3-2.6,0.5-3.8,0.7c-1.3,0.2-2.6,0.4-3.9,0.5c-1.3,0.1-2.6,0.2-3.9,0.3
	c-1.3,0.1-2.6,0.1-3.9,0.1c-1.3,0-2.6,0-3.9-0.1h0c-1.3-0.1-2.6-0.2-3.9-0.3c-1.3-0.1-2.6-0.3-3.9-0.5c-1.3-0.2-2.6-0.4-3.8-0.7
	c-1.3-0.3-2.5-0.6-3.8-0.9c-1.3-0.3-2.5-0.7-3.8-1.1c-1.2-0.4-2.5-0.8-3.7-1.3c-1.2-0.5-2.4-1-3.6-1.5c-1.2-0.5-2.4-1.1-3.5-1.7
	c-1.2-0.6-2.3-1.2-3.4-1.9c-0.1-0.1-0.3-0.2-0.4-0.3c-1-0.6-2-1.2-2.9-1.8c-0.7-0.4-1.3-0.9-2-1.4c-0.4-0.3-0.8-0.6-1.2-0.9
	c-1.1-0.8-2.1-1.6-3.1-2.4c-1-0.8-2-1.7-3-2.5c-1-0.9-1.9-1.8-2.8-2.7s-1.8-1.9-2.7-2.8c-0.9-1-1.7-2-2.5-3s-1.6-2-2.4-3.1
	c-0.8-1-1.5-2.1-2.2-3.2c-0.7-1.1-1.4-2.2-2-3.3c-0.6-1.1-1.3-2.3-1.9-3.4c-0.6-1.2-1.2-2.3-1.7-3.5c-0.5-1.2-1-2.4-1.5-3.6
	c-0.5-1.2-0.9-2.4-1.3-3.7c-0.4-1.2-0.8-2.5-1.1-3.8c-0.3-1.3-0.6-2.5-0.9-3.8c-0.3-1.3-0.5-2.6-0.7-3.8c-0.2-1.3-0.4-2.6-0.5-3.9
	c-0.1-1.2-0.2-2.5-0.3-3.8v0c0,0,0-0.1,0-0.1c-0.1-1.3-0.1-2.6-0.1-3.9c0-1.3,0-2.6,0.1-3.9v0c0.1-1.3,0.2-2.6,0.3-3.9
	c0.1-1.3,0.3-2.6,0.5-3.9c0.2-1.3,0.4-2.6,0.7-3.8c0.3-1.3,0.6-2.5,0.9-3.8c0.3-1.3,0.7-2.5,1.1-3.8c0.4-1.2,0.8-2.5,1.3-3.7
	c0.5-1.2,1-2.4,1.5-3.6c0.5-1.2,1.1-2.4,1.7-3.5c0.6-1.2,1.2-2.3,1.9-3.4c0.6-1.1,1.3-2.2,2-3.3c0.7-1.1,1.5-2.2,2.2-3.2
	c0.8-1.1,1.6-2.1,2.4-3.1s1.7-2,2.5-3c0.1-0.1,0.2-0.2,0.3-0.4c0.8-0.8,1.5-1.7,2.4-2.5c0.9-0.9,1.9-1.8,2.8-2.7c1-0.9,2-1.7,3-2.5
	c0.2-0.1,0.4-0.3,0.5-0.4c0.8-0.7,1.7-1.3,2.6-1.9c1-0.8,2.1-1.5,3.2-2.2c1.1-0.7,2.2-1.4,3.3-2c1.1-0.7,2.3-1.3,3.4-1.9
	c1.1-0.6,2.3-1.2,3.5-1.7c1.2-0.5,2.4-1,3.6-1.5c1.2-0.5,2.4-0.9,3.7-1.3c1.2-0.4,2.5-0.8,3.7-1.1c1.3-0.3,2.5-0.6,3.8-0.9
	c1.3-0.3,2.6-0.5,3.8-0.7c1.3-0.2,2.6-0.4,3.9-0.5c1.3-0.1,2.6-0.2,3.9-0.3c0.2,0,0.4,0,0.7,0c1.1-0.1,2.1-0.1,3.2-0.1
	c1.3,0,2.6,0,3.9,0.1s2.6,0.2,3.9,0.3c0.9,0.1,1.8,0.2,2.7,0.3c0.4,0.1,0.8,0.1,1.2,0.2c1.3,0.2,2.6,0.4,3.8,0.7
	c1.3,0.3,2.5,0.6,3.8,0.9c1.3,0.3,2.5,0.7,3.8,1.1c1.2,0.4,2.5,0.8,3.7,1.3c1.2,0.5,2.4,1,3.6,1.5c1.2,0.5,2.4,1.1,3.5,1.7
	c1.2,0.6,2.3,1.2,3.4,1.9c1.1,0.6,2.2,1.3,3.3,2c1.1,0.7,2.2,1.4,3.2,2.2c1.1,0.8,2.1,1.6,3.1,2.4s2,1.7,3,2.5
	c1,0.9,1.9,1.8,2.8,2.7c0.9,0.9,1.8,1.8,2.7,2.8c0.9,1,1.7,2,2.5,3c0.8,1,1.6,2,2.4,3.1c0.6,0.9,1.2,1.7,1.8,2.6
	c0.1,0.2,0.3,0.4,0.4,0.6c0,0.1,0.1,0.1,0.1,0.2c0.7,1,1.3,2.1,1.9,3.1c0.7,1.1,1.3,2.3,1.9,3.4c0.6,1.2,1.2,2.3,1.7,3.5
	c0.5,1.2,1,2.4,1.5,3.6c0.5,1.2,0.9,2.4,1.3,3.7c0.4,1.2,0.8,2.5,1.1,3.8c0.3,1.3,0.6,2.5,0.9,3.8c0.3,1.3,0.5,2.6,0.7,3.8
	c0.2,1.3,0.4,2.6,0.5,3.9c0.1,1.3,0.3,2.6,0.3,3.9c0.1,1.3,0.1,2.6,0.1,3.9C437.5,365.1,437.5,366.4,437.4,367.7z"/>
<polyline class="st1" points="362.8,718.8 362.8,715.3 362.8,634 362.8,542.2 362.8,506.9 362.8,438.5 "/>
<polyline class="st1" points="362.8,289.2 362.8,286.2 362.8,185.4 362.8,91.6 362.8,66.9 362.8,12.3 362.8,8.9 "/>
<polyline class="st1" points="381.4,718.3 381.2,714.9 377,633.7 372.2,542 369.4,489.9 366.7,438.4 "/>
<polyline class="st1" points="359,289.9 358.9,289.3 353.5,185.7 348.6,92 347.4,68.9 344.4,12.8 344.3,9.4 "/>
<polyline class="st1" points="399.9,716.8 399.6,713.4 391.1,632.6 381.5,541.3 374.6,476.1 370.6,438.1 "/>
<polyline class="st1" points="355.4,293.2 355,289.6 344.2,186.4 334.4,93.1 332,70.8 326.1,14.2 325.7,10.8 "/>
<polyline class="st1" points="418.4,714.4 417.8,711 405.1,630.8 390.8,540.1 378.8,464.7 374.5,437.6 "/>
<polyline class="st1" points="351.2,290.1 334.9,187.6 320.3,94.9 316.7,72.7 307.8,16.6 307.3,13.3 "/>
<polyline class="st1" points="436.6,711 435.9,707.7 419,628.2 399.9,538.4 382.2,455.1 378.4,436.9 "/>
<polyline class="st1" points="347.3,290.8 325.7,189.3 306.2,97.5 301.4,74.6 289.7,19.9 289,16.6 "/>
<polyline class="st1" points="454.7,706.7 453.8,703.4 442.1,659.7 432.8,624.9 423.6,590.7 409,536.2 385.3,447.7 385.1,446.9 
	382.2,436 "/>
<polyline class="st1" points="343.5,291.7 316.6,191.5 292.4,100.9 287.4,82.4 271.8,24.2 271,21 "/>
<polyline class="st1" points="472.5,701.4 471.5,698.2 456.3,651.5 446.4,620.9 418,533.5 387.5,439.8 385.9,434.8 "/>
<polyline class="st1" points="253.1,26.3 254.2,29.5 278.7,104.9 287.7,132.7 307.7,194.1 339.8,292.8 "/>
<polyline class="st1" points="490,695.2 488.8,692.1 470.2,643.5 459.7,616.2 426.8,530.4 389.6,433.6 389.6,433.5 "/>
<polyline class="st1" points="235.6,32.5 236.8,35.6 265.3,109.7 290,174 290,174 298.9,197.2 336.1,294.1 "/>
<polyline class="st1" points="507.2,688.1 505.8,685 483.9,635.7 472.8,610.8 435.4,526.8 393.2,432 391.4,428.1 "/>
<polyline class="st1" points="332.5,295.6 292.8,206.4 292.8,206.4 292.7,206.4 290.3,200.8 252.1,115.2 219.8,42.7 218.5,39.6 "/>
<polyline class="st1" points="524,680.1 522.4,677.1 497.4,627.9 485.6,604.7 443.8,522.8 396.7,430.4 "/>
<polyline class="st1" points="201.7,47.6 203.2,50.6 239.3,121.3 281.8,204.9 295.5,231.7 295.5,231.7 329,297.3 "/>
<polyline class="st1" points="540.3,671.2 538.6,668.3 510.8,620.2 498,598 452,518.4 400.2,428.5 "/>
<polyline class="st1" points="325.5,299.2 298,251.6 298,251.5 298,251.5 273.6,209.3 226.8,128.2 187.1,59.4 185.4,56.4 "/>
<polyline class="st1" points="556.2,661.5 554.3,658.7 510.1,590.6 460,513.5 403.5,426.4 "/>
<polyline class="st1" points="322.2,301.2 265.7,214.2 214.6,135.6 171.4,69 169.5,66.1 "/>
<polyline class="st1" points="571.5,651 569.5,648.2 521.8,582.6 467.7,508.2 406.7,424.2 "/>
<polyline class="st1" points="319,303.5 258,219.5 202.9,143.8 156.2,79.4 154.2,76.7 "/>
<polyline class="st1" points="586.2,639.7 584,637 533,574 475.1,502.5 409.8,421.9 "/>
<polyline class="st1" points="315.9,305.8 250.6,225.2 191.7,152.5 141.6,90.7 139.4,88 "/>
<polyline class="st1" points="600.3,627.6 598,625 543.8,564.8 482.2,496.4 412.8,419.3 "/>
<polyline class="st1" points="312.9,308.4 243.5,231.3 180.9,161.7 127.6,102.6 125.3,100.1 "/>
<polyline class="st1" points="613.8,614.8 611.4,612.4 554.1,555.1 489,490 415.6,416.6 "/>
<polyline class="st1" points="310,311 236.7,237.7 170.6,171.6 114.3,115.3 111.8,112.8 "/>
<polyline class="st1" points="626.6,601.3 624,599 563.9,544.9 495.4,483.2 418.3,413.8 "/>
<polyline class="st1" points="307.4,313.9 230.3,244.5 160.8,181.9 101.6,128.6 99.1,126.3 "/>
<polyline class="st1" points="638.7,587.2 636,585 573.1,534.1 501.5,476.1 420.9,410.8 "/>
<polyline class="st1" points="304.8,316.9 224.2,251.6 151.6,192.8 89.7,142.6 87,140.4 "/>
<polyline class="st1" points="650,572.5 647.2,570.5 581.8,522.9 507.2,468.7 423.2,407.7 "/>
<polyline class="st1" points="302.4,320 218.5,259 142.9,204.1 78.4,157.2 75.7,155.2 "/>
<polyline class="st1" points="660.5,557.2 657.7,555.3 589.8,511.3 512.5,461 425.4,404.5 "/>
<polyline class="st1" points="300.2,323.2 213.2,266.7 134.9,215.8 68,172.4 65.1,170.5 "/>
<polyline class="st1" points="670.2,541.3 667.3,539.6 597.3,499.2 517.4,453 427.5,401.2 "/>
<polyline class="st1" points="298.2,326.5 208.3,274.6 127.5,228 58.4,188.1 55.4,186.4 "/>
<polyline class="st1" points="679.1,525 676.1,523.4 604.1,486.8 521.8,444.8 429.4,397.7 "/>
<polyline class="st1" points="296.3,329.9 203.8,282.8 120.7,240.5 49.6,204.2 46.6,202.7 "/>
<polyline class="st1" points="687.1,508.2 684,506.8 610.3,474 525.8,436.4 431,394.2 "/>
<polyline class="st1" points="294.6,333.5 199.8,291.3 114.6,253.3 41.7,220.8 38.6,219.5 "/>
<polyline class="st1" points="694.2,491 691.1,489.8 615.8,460.9 529.4,427.8 432.5,390.6 "/>
<polyline class="st1" points="293.1,337.1 196.2,299.9 109.2,266.5 34.6,237.8 31.5,236.6 "/>
<polyline class="st1" points="700.4,473.5 697.2,472.5 620.5,447.6 532.6,419 433.8,386.9 "/>
<polyline class="st1" points="291.8,340.8 193.1,308.7 104.5,279.9 28.4,255.2 25.3,254.1 "/>
<polyline class="st1" points="705.7,455.7 702.4,454.8 624.6,434 535.2,410 435,383.2 "/>
<polyline class="st1" points="290.7,344.5 190.5,317.6 100.6,293.6 23.2,272.8 20,272 "/>
<polyline class="st1" points="710,437.6 706.7,436.9 628,420.2 537.4,400.9 435.9,379.4 "/>
<polyline class="st1" points="289.8,348.3 188.3,326.7 97.3,307.4 19,290.7 15.6,290 "/>
<polyline class="st1" points="713.4,419.4 710,418.8 630.6,406.2 539.1,391.8 436.6,375.5 "/>
<polyline class="st1" points="289.1,352.2 186.6,335.9 94.8,321.4 15.6,308.8 12.3,308.3 "/>
<polyline class="st1" points="715.8,400.9 712.4,400.6 632.5,392.2 540.3,382.5 437.1,371.6 "/>
<polyline class="st1" points="288.6,356 185.4,345.2 93,335.5 13.2,327.1 9.8,326.7 "/>
<polyline class="st1" points="717.3,382.4 713.8,382.2 633.6,378 541,373.2 437.4,367.7 "/>
<polyline class="st1" points="288.3,359.9 184.7,354.5 91.9,349.6 11.8,345.4 8.4,345.3 "/>
<polyline class="st1" points="717.8,363.8 714.3,363.8 634,363.8 541.2,363.8 437.5,363.8 "/>
<polyline class="st1" points="288.2,363.8 184.4,363.8 91.6,363.8 11.3,363.8 7.9,363.8 "/>
<polyline class="st1" points="717.3,345.3 713.8,345.4 633.7,349.6 541,354.5 437.4,359.9 "/>
<polyline class="st1" points="288.3,367.7 184.7,373.2 92.1,378 11.8,382.2 8.4,382.4 "/>
<polyline class="st1" points="715.8,326.7 712.4,327.1 632.7,335.5 540.3,345.2 437.1,356 "/>
<polyline class="st1" points="288.6,371.6 185.4,382.5 93.2,392.2 13.2,400.6 9.8,400.9 "/>
<polyline class="st1" points="713.4,308.3 710,308.8 630.9,321.4 539.1,335.9 436.6,352.2 "/>
<polyline class="st1" points="289.1,375.5 186.6,391.8 95.1,406.2 15.6,418.8 12.3,419.4 "/>
<polyline class="st1" points="710,290 706.7,290.7 628.4,307.4 537.4,326.7 435.9,348.3 "/>
<polyline class="st1" points="289.8,379.4 188.3,400.9 97.7,420.2 19,436.9 15.6,437.6 "/>
<polyline class="st1" points="705.7,272 702.4,272.8 625.1,293.6 535.2,317.6 435,344.5 "/>
<polyline class="st1" points="290.7,383.2 190.5,410 101.1,434 23.2,454.8 20,455.7 "/>
<polyline class="st1" points="700.4,254.1 697.2,255.2 621.1,279.9 532.6,308.7 433.9,340.8 "/>
<polyline class="st1" points="291.8,386.9 193.1,419 105.1,447.6 28.4,472.5 25.3,473.5 "/>
<polyline class="st1" points="694.2,236.6 691.1,237.8 616.4,266.5 529.4,299.9 432.5,337.1 "/>
<polyline class="st1" points="293.1,390.6 196.2,427.8 109.9,460.9 34.6,489.8 31.5,491 "/>
<polyline class="st1" points="687.1,219.5 684,220.8 611,253.3 525.8,291.3 431,333.5 "/>
<polyline class="st1" points="294.6,394.2 199.8,436.4 115.4,474 41.7,506.8 38.6,508.2 "/>
<polyline class="st1" points="679.1,202.7 676.1,204.2 604.9,240.5 521.8,282.8 429.4,329.9 "/>
<polyline class="st1" points="296.3,397.7 203.9,444.8 121.6,486.8 49.6,523.4 46.6,525 "/>
<polyline class="st1" points="670.2,186.4 667.3,188.1 598.2,228 517.4,274.6 427.5,326.5 "/>
<polyline class="st1" points="298.2,401.2 208.3,453 128.4,499.2 58.4,539.6 55.4,541.3 "/>
<polyline class="st1" points="660.5,170.5 657.7,172.4 590.8,215.8 512.5,266.7 425.4,323.2 "/>
<polyline class="st1" points="300.2,404.5 213.2,461 135.8,511.3 68,555.3 65.1,557.2 "/>
<polyline class="st1" points="650,155.2 647.2,157.2 582.7,204.1 507.2,259 423.2,320 "/>
<polyline class="st1" points="302.5,407.7 218.5,468.7 143.9,522.9 78.4,570.5 75.7,572.5 "/>
<polyline class="st1" points="638.7,140.4 636,142.6 574.1,192.8 501.5,251.6 420.8,316.9 "/>
<polyline class="st1" points="304.8,410.8 224.2,476.1 152.6,534.1 89.7,585 87,587.2 "/>
<polyline class="st1" points="626.6,126.3 624,128.6 564.9,181.9 495.4,244.5 418.3,313.9 "/>
<polyline class="st1" points="307.4,413.8 230.3,483.2 161.8,544.9 101.6,599 99.1,601.3 "/>
<polyline class="st1" points="613.8,112.8 611.4,115.3 555.1,171.6 489,237.7 415.6,311.1 "/>
<polyline class="st1" points="310,416.6 236.7,490 171.6,555.1 114.3,612.4 111.8,614.8 "/>
<polyline class="st1" points="600.3,100.1 598,102.6 544.8,161.7 482.2,231.3 412.8,308.4 "/>
<polyline class="st1" points="312.9,419.3 243.5,496.4 181.9,564.8 127.6,625 125.3,627.6 "/>
<polyline class="st1" points="586.2,88 584,90.7 534,152.5 475.1,225.2 409.8,305.8 "/>
<polyline class="st1" points="315.9,421.9 250.6,502.5 192.6,574 141.6,637 139.4,639.7 "/>
<polyline class="st1" points="571.5,76.7 569.5,79.4 522.7,143.8 467.7,219.5 406.7,303.4 "/>
<polyline class="st1" points="319,424.2 258,508.2 203.9,582.6 156.2,648.2 154.2,651 "/>
<polyline class="st1" points="556.2,66.1 554.3,69 511,135.6 460,214.2 403.5,301.2 "/>
<polyline class="st1" points="322.2,426.5 265.7,513.5 215.6,590.6 171.4,658.7 169.5,661.5 "/>
<polyline class="st1" points="540.3,56.4 538.6,59.4 498.9,128.2 452,209.3 400.2,299.2 "/>
<polyline class="st1" points="325.5,428.5 273.6,518.4 227.6,598 187.1,668.3 185.4,671.2 "/>
<polyline class="st1" points="524,47.6 522.4,50.6 486.4,121.3 443.8,204.9 396.7,297.3 "/>
<polyline class="st1" points="328.9,430.4 281.8,522.8 240.1,604.7 203.2,677.1 201.7,680.1 "/>
<polyline class="st1" points="507.2,39.6 505.8,42.7 473.5,115.2 435.4,200.8 393.2,295.6 "/>
<polyline class="st1" points="332.5,432 290.3,526.8 252.9,610.8 219.8,685 218.5,688.1 "/>
<polyline class="st1" points="490,32.5 488.8,35.6 460.4,109.7 426.8,197.2 389.6,294.1 "/>
<polyline class="st1" points="336.1,433.5 298.9,530.4 266,616.2 236.8,692.1 235.6,695.2 "/>
<polyline class="st1" points="472.5,26.3 471.5,29.4 447,104.9 418,194.1 385.9,292.8 "/>
<polyline class="st1" points="339.8,434.8 307.7,533.6 279.3,620.9 254.2,698.2 253.1,701.4 "/>
<polyline class="st1" points="454.7,21 453.8,24.2 433.3,100.9 409,191.5 382.2,291.7 "/>
<polyline class="st1" points="343.5,436 316.6,536.2 292.9,624.9 271.8,703.4 271,706.7 "/>
<polyline class="st1" points="436.6,16.6 435.9,20 419.4,97.6 399.9,189.3 378.4,290.8 "/>
<polyline class="st1" points="347.3,436.9 325.7,538.4 306.6,628.2 289.7,707.7 289,711 "/>
<polyline class="st1" points="418.4,13.3 417.8,16.6 405.4,95 390.8,187.6 374.5,290.1 "/>
<polyline class="st1" points="351.2,437.6 334.9,540.1 320.6,630.8 307.8,711 307.3,714.4 "/>
<polyline class="st1" points="399.9,10.8 399.6,14.2 391.3,93.1 381.5,186.4 370.6,289.6 "/>
<polyline class="st1" points="355,438.1 344.2,541.3 334.6,632.6 326.1,713.4 325.7,716.8 "/>
<polyline class="st1" points="381.4,9.4 381.2,12.8 377.1,92 372.2,185.7 366.7,289.3 "/>
<polyline class="st1" points="358.9,438.4 353.5,542 348.7,633.7 344.4,714.8 344.3,718.3 "/>
<path class="st0" d="M713.8,345.4c-0.3-6.2-0.8-12.3-1.4-18.4c-0.6-6.1-1.4-12.2-2.4-18.3c-1-6.1-2.1-12.1-3.3-18.1
	c-1.3-6-2.7-12-4.3-17.9c-1.6-5.9-3.3-11.8-5.2-17.6c-1.9-5.9-3.9-11.6-6.1-17.4c-2.2-5.8-4.5-11.4-7-17c-2.5-5.6-5.2-11.1-7.9-16.6
	c-2.8-5.5-5.7-10.9-8.8-16.2c-3.1-5.3-6.3-10.5-9.6-15.7c-3.3-5.1-6.8-10.2-10.4-15.2c-3.6-5-7.3-9.8-11.2-14.6
	c-3.9-4.8-7.8-9.4-12-14c-4.1-4.6-8.3-9-12.7-13.4c-4.3-4.3-8.8-8.6-13.3-12.7s-9.2-8.1-14-12c-4.8-3.9-9.6-7.6-14.6-11.2
	c-5-3.6-10-7.1-15.2-10.4c-5.1-3.4-10.4-6.6-15.7-9.6c-5.3-3.1-10.7-6-16.2-8.8c-5.5-2.8-11-5.4-16.6-7.9c-5.6-2.5-11.3-4.8-17-7.1
	c-5.7-2.2-11.5-4.2-17.4-6.1c-5.8-1.9-11.7-3.6-17.6-5.2c-5.9-1.6-11.9-3-17.9-4.3c-6-1.3-12-2.4-18.1-3.3c-6-1-12.1-1.7-18.3-2.4
	c-6.1-0.6-12.2-1.1-18.4-1.4c-6.1-0.3-12.2-0.5-18.4-0.5c-6.2,0-12.3,0.2-18.4,0.5c-6.2,0.3-12.3,0.8-18.3,1.4
	c-6.1,0.6-12.2,1.4-18.3,2.4c-6.1,1-12.1,2.1-18.1,3.3c-6,1.3-12,2.7-17.9,4.3c-6,1.6-11.8,3.3-17.7,5.2c-5.9,1.9-11.7,3.9-17.4,6.1
	c-5.7,2.2-11.4,4.6-17,7.1c-5.6,2.5-11.2,5.1-16.6,7.9c-5.5,2.8-10.9,5.7-16.2,8.8c-5.3,3.1-10.5,6.3-15.7,9.6
	c-5.2,3.3-10.2,6.8-15.2,10.4c-5,3.6-9.8,7.4-14.6,11.2c-4.8,3.9-9.4,7.9-14,12c-4.6,4.1-9,8.3-13.3,12.7
	c-4.3,4.3-8.6,8.8-12.7,13.4c-4.1,4.6-8.1,9.2-12,14c-3.9,4.8-7.6,9.6-11.2,14.6c-3.6,5-7.1,10-10.4,15.2
	c-3.4,5.1-6.6,10.4-9.6,15.7c-3.1,5.3-6,10.7-8.8,16.2c-2.8,5.5-5.4,11-7.9,16.6c-2.5,5.6-4.9,11.3-7.1,17
	c-2.2,5.7-4.3,11.5-6.2,17.4c-1.9,5.8-3.6,11.7-5.2,17.6c-1.6,5.9-3,11.9-4.3,17.9c-1.3,6-2.4,12-3.3,18.1c-1,6-1.8,12.1-2.4,18.3
	c-0.6,6.1-1.1,12.2-1.4,18.4c-0.3,6.1-0.5,12.2-0.5,18.4c0,6.2,0.2,12.3,0.5,18.4c0.3,6.2,0.8,12.3,1.4,18.3
	c0.6,6.1,1.4,12.2,2.4,18.3c1,6.1,2.1,12.1,3.3,18.1c1.3,6,2.7,12,4.3,17.9c1.6,6,3.3,11.8,5.2,17.7c1.9,5.9,4,11.7,6.2,17.4
	c2.2,5.7,4.6,11.4,7.1,17c2.5,5.6,5.1,11.2,7.9,16.6c2.8,5.5,5.7,10.9,8.8,16.2c3.1,5.3,6.3,10.5,9.6,15.7
	c3.3,5.2,6.8,10.2,10.4,15.2c3.6,5,7.3,9.8,11.2,14.6c3.9,4.8,7.9,9.4,12,14s8.3,9,12.7,13.3c4.3,4.3,8.8,8.6,13.4,12.7
	c4.5,4.1,9.2,8.1,14,12c4.8,3.9,9.6,7.6,14.6,11.2c5,3.6,10,7.1,15.2,10.4c5.1,3.4,10.4,6.6,15.7,9.6c5.3,3.1,10.7,6,16.2,8.8
	c5.5,2.8,11,5.4,16.6,7.9c5.6,2.5,11.3,4.9,17,7.1c5.7,2.2,11.5,4.3,17.3,6.1c5.8,1.9,11.7,3.6,17.7,5.2c5.9,1.6,11.9,3,17.9,4.3
	c6,1.3,12,2.4,18.1,3.3c6,1,12.1,1.8,18.3,2.4c6.1,0.6,12.2,1.1,18.3,1.4c6.1,0.3,12.2,0.5,18.4,0.5c6.2,0,12.3-0.2,18.4-0.5
	c6.2-0.3,12.3-0.8,18.4-1.4c6.1-0.6,12.2-1.4,18.3-2.4c6.1-1,12.1-2.1,18.1-3.3c6-1.3,12-2.7,17.9-4.3c6-1.6,11.8-3.3,17.6-5.2
	c5.9-1.9,11.6-3.9,17.4-6.1c5.7-2.2,11.4-4.6,17-7.1c5.6-2.5,11.1-5.1,16.6-7.9c5.5-2.8,10.9-5.7,16.2-8.8
	c5.3-3.1,10.5-6.3,15.7-9.6c5.2-3.3,10.2-6.8,15.2-10.4c5-3.6,9.8-7.3,14.6-11.2c4.8-3.9,9.4-7.9,14-12c4.6-4.1,9-8.3,13.3-12.7
	c4.3-4.3,8.6-8.8,12.7-13.4c4.1-4.6,8.1-9.2,12-14c3.9-4.8,7.6-9.6,11.2-14.6c3.6-5,7.1-10,10.4-15.2c3.3-5.1,6.6-10.4,9.6-15.7
	c3.1-5.3,6-10.7,8.8-16.2c2.8-5.5,5.4-11,7.9-16.6c2.5-5.6,4.8-11.3,7-17c2.2-5.7,4.3-11.5,6.1-17.3c1.9-5.8,3.6-11.7,5.2-17.7
	c1.6-5.9,3-11.9,4.3-17.9c1.3-6,2.4-12,3.3-18.1c1-6,1.8-12.1,2.4-18.3c0.6-6.1,1.1-12.2,1.4-18.3c0.3-6.1,0.5-12.2,0.5-18.4
	C714.3,357.7,714.2,351.5,713.8,345.4z M351.2,437.6c-1.3-0.2-2.6-0.4-3.8-0.7c-1.3-0.3-2.5-0.6-3.8-0.9c-1.3-0.3-2.5-0.7-3.8-1.1
	c-1.2-0.4-2.5-0.8-3.7-1.3c-1.2-0.5-2.4-1-3.6-1.5c-1.2-0.5-2.4-1.1-3.5-1.7c-1.2-0.6-2.3-1.2-3.4-1.9c-0.1-0.1-0.3-0.2-0.4-0.3
	c-1-0.6-2-1.2-2.9-1.8c-0.7-0.4-1.3-0.9-2-1.4c-0.4-0.3-0.8-0.6-1.2-0.9c-1.1-0.8-2.1-1.6-3.1-2.4c-1-0.8-2-1.7-3-2.5
	c-1-0.9-1.9-1.8-2.8-2.7s-1.8-1.9-2.7-2.8c-0.9-1-1.7-2-2.5-3s-1.6-2-2.4-3.1c-0.8-1-1.5-2.1-2.2-3.2c-0.7-1.1-1.4-2.2-2-3.3
	c-0.6-1.1-1.3-2.3-1.9-3.4c-0.6-1.2-1.2-2.3-1.7-3.5c-0.5-1.2-1-2.4-1.5-3.6c-0.5-1.2-0.9-2.4-1.3-3.7c-0.4-1.2-0.8-2.5-1.1-3.8
	c-0.3-1.3-0.6-2.5-0.9-3.8c-0.3-1.3-0.5-2.6-0.7-3.8c-0.2-1.3-0.4-2.6-0.5-3.9c-0.1-1.2-0.2-2.5-0.3-3.8v0c0,0,0-0.1,0-0.1
	c-0.1-1.3-0.1-2.6-0.1-3.9c0-1.3,0-2.6,0.1-3.9v0c0.1-1.3,0.2-2.6,0.3-3.9c0.1-1.3,0.3-2.6,0.5-3.9c0.2-1.3,0.4-2.6,0.7-3.8
	c0.3-1.3,0.6-2.5,0.9-3.8c0.3-1.3,0.7-2.5,1.1-3.8c0.4-1.2,0.8-2.5,1.3-3.7c0.5-1.2,1-2.4,1.5-3.6c0.5-1.2,1.1-2.4,1.7-3.5
	c0.6-1.2,1.2-2.3,1.9-3.4c0.6-1.1,1.3-2.2,2-3.3c0.7-1.1,1.5-2.2,2.2-3.2c0.8-1.1,1.6-2.1,2.4-3.1s1.7-2,2.5-3
	c0.1-0.1,0.2-0.2,0.3-0.4c0.8-0.8,1.5-1.7,2.4-2.5c0.9-0.9,1.9-1.8,2.8-2.7c1-0.9,2-1.7,3-2.5c0.2-0.1,0.4-0.3,0.5-0.4
	c0.8-0.7,1.7-1.3,2.6-1.9c1-0.8,2.1-1.5,3.2-2.2c1.1-0.7,2.2-1.4,3.3-2c1.1-0.7,2.3-1.3,3.4-1.9c1.1-0.6,2.3-1.2,3.5-1.7
	c1.2-0.5,2.4-1,3.6-1.5c1.2-0.5,2.4-0.9,3.7-1.3c1.2-0.4,2.5-0.8,3.7-1.1c1.3-0.3,2.5-0.6,3.8-0.9c1.3-0.3,2.6-0.5,3.8-0.7
	c1.3-0.2,2.6-0.4,3.9-0.5c1.3-0.1,2.6-0.2,3.9-0.3c0.2,0,0.4,0,0.7,0c1.1-0.1,2.1-0.1,3.2-0.1c1.3,0,2.6,0,3.9,0.1s2.6,0.2,3.9,0.3
	c0.9,0.1,1.8,0.2,2.7,0.3c0.4,0.1,0.8,0.1,1.2,0.2c1.3,0.2,2.6,0.4,3.8,0.7c1.3,0.3,2.5,0.6,3.8,0.9c1.3,0.3,2.5,0.7,3.8,1.1
	c1.2,0.4,2.5,0.8,3.7,1.3c1.2,0.5,2.4,1,3.6,1.5c1.2,0.5,2.4,1.1,3.5,1.7c1.2,0.6,2.3,1.2,3.4,1.9c1.1,0.6,2.2,1.3,3.3,2
	c1.1,0.7,2.2,1.4,3.2,2.2c1.1,0.8,2.1,1.6,3.1,2.4s2,1.7,3,2.5c1,0.9,1.9,1.8,2.8,2.7c0.9,0.9,1.8,1.8,2.7,2.8c0.9,1,1.7,2,2.5,3
	c0.8,1,1.6,2,2.4,3.1c0.6,0.9,1.2,1.7,1.8,2.6c0.1,0.2,0.3,0.4,0.4,0.6c0,0.1,0.1,0.1,0.1,0.2c0.7,1,1.3,2.1,1.9,3.1
	c0.7,1.1,1.3,2.3,1.9,3.4c0.6,1.2,1.2,2.3,1.7,3.5c0.5,1.2,1,2.4,1.5,3.6c0.5,1.2,0.9,2.4,1.3,3.7c0.4,1.2,0.8,2.5,1.1,3.8
	c0.3,1.3,0.6,2.5,0.9,3.8c0.3,1.3,0.5,2.6,0.7,3.8c0.2,1.3,0.4,2.6,0.5,3.9c0.1,1.3,0.3,2.6,0.3,3.9c0.1,1.3,0.1,2.6,0.1,3.9
	c0,1.3,0,2.6-0.1,3.9s-0.2,2.6-0.3,3.9c-0.1,1.3-0.3,2.6-0.5,3.9c-0.2,1.3-0.4,2.6-0.7,3.8c-0.3,1.3-0.6,2.5-0.9,3.8
	c-0.3,1.3-0.7,2.5-1.1,3.8c-0.4,1.2-0.8,2.3-1.2,3.5c0,0.1,0,0.1-0.1,0.2c-0.5,1.2-1,2.4-1.5,3.6l0,0c-0.5,1.2-1.1,2.4-1.7,3.5
	c-0.6,1.2-1.2,2.3-1.9,3.4c-0.6,1.1-1.3,2.3-2,3.3c-0.7,1.1-1.4,2.2-2.2,3.2c-0.8,1.1-1.6,2.1-2.4,3.1c-0.8,1-1.7,2-2.5,3
	c-0.9,1-1.8,1.9-2.7,2.8c-0.9,0.9-1.8,1.8-2.8,2.7c-1,0.9-2,1.7-3,2.5s-2,1.6-3.1,2.4c-1.1,0.8-2.1,1.5-3.2,2.2
	c-1.1,0.7-2.2,1.4-3.3,2c-1.1,0.7-2.3,1.3-3.4,1.9c-1.1,0.6-2.3,1.2-3.5,1.7c-1.2,0.5-2.4,1-3.6,1.5c0,0,0,0,0,0
	c-1.2,0.5-2.4,0.9-3.7,1.3c-1.2,0.4-2.5,0.8-3.7,1.1c-0.4,0.1-0.9,0.2-1.3,0.3c-0.8,0.2-1.6,0.4-2.5,0.6c-1.3,0.3-2.6,0.5-3.8,0.7
	c-1.3,0.2-2.6,0.4-3.9,0.5c-1.3,0.1-2.6,0.2-3.9,0.3c-1.3,0.1-2.6,0.1-3.9,0.1c-1.3,0-2.6,0-3.9-0.1h0c-1.3-0.1-2.6-0.2-3.9-0.3
	C353.7,437.9,352.4,437.8,351.2,437.6z"/>
</svg>
