<?xml version="1.0" encoding="utf-8"?>
<!-- Generator: Adobe Illustrator 22.1.0, SVG Export Plug-In . SVG Version: 6.00 Build 0)  -->
<svg version="1.1" id="Layer_1" xmlns="http://www.w3.org/2000/svg" xmlns:xlink="http://www.w3.org/1999/xlink" x="0px" y="0px"
	 viewBox="0 0 512 512" style="enable-background:new 0 0 512 512;" xml:space="preserve">
<style type="text/css">
	.st0{stroke:#000000;stroke-width:0.5;stroke-miterlimit:10;}
</style>
<g>
	<path d="M372.4,255.8c0,66.3-1.5,132.4-1.5,198.7c0,10-3,13.5-12.7,15c-9,1.4-18.1,3.2-27.2,3.8c-3.5,0.2-7.4-2.1-10.9-3.7
		c-2.7-1.3-4.6-1.9-7.3,0.7c-4.1,4-9,3.2-13.8,0.6c-27.5-14.5-55.1-29-82.6-43.4c-24-12.6-48-25.4-72.1-37.7
		c-7.1-3.6-9.7-8.9-9.3-16.5c1.8-38.3,3.6-76.5,5.4-114.8c1.9-39.9,3.8-79.9,5.6-119.8c0.8-17.3,1.5-34.6,2.4-51.9
		c0.6-12,3.2-14.6,14.8-16.7C217.7,60,272.1,49.6,326.7,39.9c8.1-1.4,16.9,0.4,25.3,0.8c3,0.1,6,0.5,9,0.6c8.6,0.3,13.1,4.9,13,13.6
		C373.5,121.9,372.9,188.8,372.4,255.8C371.9,255.6,372.9,255.8,372.4,255.8z M320.5,255.8c1.5-24.3,3-48.6,4.4-72.8
		c2.6-42.6,5.1-85.2,7.6-127.7c0.3-5.7-0.7-6.9-6.5-6.1c-5.4,0.8-10.8,2-16.2,3c-48.8,9.1-97.5,18.1-146.3,27.2
		c-3.5,0.6-5.5,1.7-5.7,5.9c-2.1,48.6-4.5,97.2-6.8,145.8c-2.2,47.3-4.3,94.6-6.7,141.8c-0.2,4.4,1,7,5,9.1
		c50.8,26.5,101.4,53.1,152.1,79.7c5.8,3.1,6.4,2.8,6.8-3.7c2.3-36.9,4.5-73.8,6.7-110.8C316.8,316.7,318.7,286.2,320.5,255.8z
		 M344,50c-3,138.3-5.9,276-8.9,414.3c7.3-1,13.9-2.3,20.7-2.7c5.2-0.3,6.4-2.4,6.4-7.4c0.7-132.3,1.5-264.6,2.3-396.9
		c0-1,0.4-2.2-0.1-2.9c-0.8-1.3-2-3.1-3.2-3.2C355.8,50.5,350.3,50.3,344,50z M325.8,461.1c1.4-65.8,2.8-131.5,4.2-197.1
		c-1.6,15.3-2.5,30.5-3.4,45.8c-2.9,47.2-5.8,94.4-8.6,141.6C317.6,458.9,317.8,459,325.8,461.1z"/>
</g>
<g>
	<path d="M351.6,447.1l5.2,1.5v2l-16.5-5v-2.3l16.5-5v2l-5.2,1.6V447.1z M349.9,442.2l-4.8,1.4c-1.1,0.3-2.1,0.5-3,0.8l0,0
		c1,0.2,2,0.5,3,0.7l4.8,1.4V442.2z"/>
	<path d="M359.2,424.2c-0.6,2-1.3,3.9-1.9,5.7c-0.1,0.3-0.2,0.6-0.2,0.9c-0.1,3.5-3,6.5-8.4,6.5c-5.3,0-8.7-2.9-8.7-6.9
		s3.5-6.6,8.4-6.6c4.2,0,7,1.8,7.9,4.2h0.1c0.4-1.5,0.8-3.1,1.1-4.3L359.2,424.2z M355.3,430.5c0-3-3.1-4.7-6.9-4.7
		c-3.3,0-6.7,1.5-6.7,4.7s3.3,4.8,6.9,4.8C352.1,435.2,355.3,433.5,355.3,430.5L355.3,430.5z"/>
	<path d="M351.6,419.2l5.2,1.5v2l-16.5-5v-2.3l16.5-5v2l-5.2,1.6V419.2z M349.9,414.3l-4.8,1.4c-1.1,0.3-2.1,0.5-3,0.8l0,0
		c1,0.2,2,0.5,3,0.7l4.8,1.4V414.3z"/>
	<path d="M340.5,408.1c-0.2-1-0.3-2.3-0.3-3.7c0-2,0.4-3.4,1.3-4.3c0.7-0.7,1.9-1.2,3.1-1.2c2.2,0,3.6,1.2,4.2,2.8h0.1
		c0.4-1.1,1.6-1.8,3.3-2.2c2.3-0.5,3.9-0.8,4.5-1.1v2c-0.5,0.2-1.9,0.6-3.9,1c-2.3,0.4-3.1,1.2-3.2,3v1.8h7.2v1.9L340.5,408.1
		L340.5,408.1z M348,406.2v-2c0-2-1.3-3.3-3.1-3.3c-2.1,0-3.1,1.4-3.1,3.4c0,0.9,0.1,1.6,0.2,1.9H348z"/>
	<path d="M351.6,393.8l5.2,1.5v2l-16.5-5V390l16.5-5v2l-5.2,1.6V393.8z M349.9,389l-4.8,1.4c-1.1,0.3-2.1,0.5-3,0.8l0,0
		c1,0.2,2,0.5,3,0.7l4.8,1.4V389z"/>
</g>
<g>
	<path class="st0" d="M457.5,86.7c0-2.5-0.4-4.7-1.2-6.5c-0.8-1.8-1.8-3.4-3.2-4.6c-1.3-1.2-2.9-2.1-4.7-2.7
		c-1.8-0.6-3.8-0.9-5.9-0.9c-1.8,0-3.6,0.2-5.3,0.7c-1.7,0.5-3.4,1.2-5.1,2c-1.6,0.9-3.2,1.9-4.8,3.1c-1.5,1.2-3,2.5-4.3,4v-10
		c2.6-2.5,5.5-4.5,8.8-5.8c3.2-1.3,7.2-2,11.8-2c3.3,0,6.4,0.5,9.2,1.4s5.3,2.4,7.4,4.2c2.1,1.9,3.7,4.1,4.9,6.9s1.8,5.8,1.8,9.3
		c0,3.2-0.4,6.1-1.1,8.7s-1.9,5.1-3.3,7.4c-1.5,2.3-3.4,4.5-5.6,6.6c-2.3,2.1-4.9,4.3-8,6.5c-3.8,2.7-7,5-9.4,7
		c-2.5,1.9-4.4,3.7-5.9,5.4c-1.5,1.7-2.5,3.4-3.1,5c-0.6,1.7-0.9,3.6-0.9,5.8h40.4v8.3H420v-4c0-3.5,0.4-6.5,1.1-9.2
		c0.8-2.6,2-5.2,3.7-7.5c1.7-2.4,4-4.8,6.8-7.1c2.8-2.4,6.3-5.1,10.3-8c2.9-2.1,5.4-4.1,7.4-6.1s3.6-3.9,4.8-5.8
		c1.2-1.9,2.1-3.9,2.6-5.9S457.5,88.9,457.5,86.7z"/>
	<path class="st0" d="M471.6,205.7c0,6.8-0.6,12.8-1.8,18.1c-1.2,5.2-3,9.7-5.3,13.3c-2.3,3.6-5.2,6.3-8.6,8.2
		c-3.4,1.9-7.2,2.8-11.5,2.8c-4.1,0-7.7-0.9-10.9-2.7c-3.2-1.8-5.9-4.4-8.1-7.8c-2.2-3.4-3.9-7.7-5-12.7c-1.1-5-1.7-10.7-1.7-17.2
		c0-7.1,0.6-13.4,1.8-18.8s2.9-10,5.2-13.7c2.3-3.7,5.2-6.5,8.6-8.3c3.4-1.9,7.3-2.8,11.8-2.8C463.1,164.1,471.6,177.9,471.6,205.7z
		 M462.1,206.6c0-23.1-5.5-34.7-16.5-34.7c-11.6,0-17.4,11.8-17.4,35.3c0,21.9,5.7,32.9,17,32.9
		C456.5,240.1,462.1,228.9,462.1,206.6z"/>
	<path class="st0" d="M454.8,346.6h-9.3v-70.2c-0.7,0.7-1.8,1.5-3.1,2.5c-1.4,0.9-2.9,1.8-4.6,2.7c-1.7,0.9-3.5,1.8-5.4,2.5
		c-1.9,0.8-3.8,1.4-5.6,1.9v-9.4c2-0.6,4.2-1.3,6.5-2.3c2.3-1,4.5-2,6.7-3.2s4.3-2.4,6.3-3.7c2-1.3,3.7-2.6,5.1-3.8h3.5V346.6z"/>
	<path class="st0" d="M418.9,424c0-2.2,0.3-4.3,1-6.5c0.7-2.2,1.7-4.2,2.9-6.1c1.3-1.9,2.8-3.6,4.7-5.2c1.9-1.5,4-2.8,6.4-3.7
		c-3.5-2-6.3-4.5-8.4-7.6c-2.1-3.1-3.1-6.5-3.1-10.2c0-3,0.6-5.7,1.7-8.3c1.2-2.5,2.7-4.7,4.8-6.6c2-1.8,4.5-3.3,7.3-4.3
		c2.8-1,5.8-1.6,9.1-1.6c3.3,0,6.3,0.5,9.1,1.6c2.8,1.1,5.2,2.5,7.3,4.4c2,1.9,3.6,4,4.8,6.6c1.1,2.5,1.7,5.3,1.7,8.2
		c0,3.7-1,7.1-3.1,10.2c-2.1,3.1-4.8,5.6-8.3,7.6c2.3,0.9,4.4,2.1,6.3,3.7c1.8,1.5,3.4,3.3,4.7,5.2c1.3,1.9,2.2,3.9,2.9,6.1
		c0.7,2.2,1,4.3,1,6.5c0,3.5-0.6,6.8-1.9,9.7c-1.3,2.9-3.1,5.5-5.4,7.6s-5.1,3.7-8.3,4.9s-6.8,1.8-10.7,1.8c-3.9,0-7.4-0.6-10.6-1.8
		c-3.2-1.2-6-2.8-8.3-4.9c-2.3-2.1-4.2-4.6-5.5-7.6S418.9,427.5,418.9,424z M429,423.2c0,2.5,0.4,4.8,1.2,6.9c0.8,2,1.9,3.8,3.3,5.2
		c1.4,1.4,3.1,2.5,5.2,3.3c2,0.8,4.3,1.2,6.7,1.2c2.4,0,4.6-0.4,6.6-1.2c2-0.8,3.7-1.9,5.2-3.3c1.5-1.4,2.6-3.2,3.4-5.2
		c0.8-2,1.2-4.3,1.2-6.8c0-2.3-0.4-4.4-1.2-6.4c-0.8-2-1.9-3.7-3.3-5.2c-1.4-1.5-3.2-2.7-5.2-3.6c-2-0.9-4.2-1.3-6.7-1.3
		c-2.3,0-4.5,0.4-6.5,1.2c-2,0.8-3.7,1.9-5.2,3.4c-1.5,1.5-2.6,3.2-3.4,5.2C429.4,418.6,429,420.8,429,423.2z M431.9,385.5
		c0,1.9,0.3,3.7,1,5.4c0.7,1.6,1.7,3.1,2.9,4.3c1.2,1.2,2.7,2.2,4.3,2.9c1.6,0.7,3.4,1,5.2,1c1.8,0,3.6-0.4,5.2-1.1
		c1.6-0.7,3.1-1.7,4.3-2.9c1.2-1.2,2.2-2.7,2.9-4.3c0.7-1.6,1.1-3.4,1.1-5.3c0-2-0.3-3.8-1-5.4c-0.7-1.7-1.7-3.1-2.9-4.3
		c-1.2-1.2-2.6-2.2-4.3-2.9c-1.6-0.7-3.4-1-5.3-1c-2,0-3.8,0.4-5.5,1.1c-1.6,0.7-3.1,1.7-4.2,2.9c-1.2,1.2-2.1,2.7-2.7,4.3
		C432.2,381.9,431.9,383.6,431.9,385.5z"/>
</g>
</svg>
