<?xml version="1.0" encoding="UTF-8" standalone="no"?>
<svg
   version="1.1"
   x="0px"
   y="0px"
   viewBox="0 0 88.001991 88"
   xml:space="preserve"
   id="svg166"
   sodipodi:docname="icon.svg"
   width="88.001991"
   height="88"
   inkscape:version="1.2.1 (9c6d41e410, 2022-07-14)"
   xmlns:inkscape="http://www.inkscape.org/namespaces/inkscape"
   xmlns:sodipodi="http://sodipodi.sourceforge.net/DTD/sodipodi-0.dtd"
   xmlns="http://www.w3.org/2000/svg"
   xmlns:svg="http://www.w3.org/2000/svg"><defs
     id="defs170" /><sodipodi:namedview
     id="namedview168"
     pagecolor="#ffffff"
     bordercolor="#666666"
     borderopacity="1.0"
     inkscape:showpageshadow="2"
     inkscape:pageopacity="0.0"
     inkscape:pagecheckerboard="0"
     inkscape:deskcolor="#d1d1d1"
     showgrid="false"
     inkscape:zoom="9.328"
     inkscape:cx="44.00729"
     inkscape:cy="-1.0720412"
     inkscape:window-width="2560"
     inkscape:window-height="1369"
     inkscape:window-x="-8"
     inkscape:window-y="-8"
     inkscape:window-maximized="1"
     inkscape:current-layer="svg166" /><g
     id="g160"
     transform="translate(-5.9987401,-6)"><path
       d="M 93.53,47.82 51.7,27.64 C 51.68,27.63 51.67,27.62 51.65,27.61 51.57,27.56 51.5,27.51 51.42,27.44 51.39,27.41 51.36,27.38 51.34,27.35 51.29,27.28 51.25,27.22 51.22,27.14 51.2,27.09 51.18,27.05 51.17,27 c -0.02,-0.07 -0.03,-0.14 -0.03,-0.21 0,-0.01 -0.01,-0.03 -0.01,-0.05 0,-0.05 0.01,-0.1 0.02,-0.15 0,-0.03 -0.01,-0.06 0,-0.09 0,0 0,0 0,-0.01 0.01,-0.04 0.02,-0.09 0.02,-0.12 v -4.02 c 0,-0.03 0.01,-0.05 0.02,-0.08 0,-0.07 0.02,-0.14 0.04,-0.2 0.01,-0.06 0.03,-0.12 0.06,-0.17 0.03,-0.06 0.06,-0.1 0.1,-0.15 0,0 0,-0.01 0.01,-0.01 0.04,-0.05 0.08,-0.1 0.13,-0.14 0.04,-0.04 0.1,-0.07 0.15,-0.1 0.06,-0.04 0.12,-0.07 0.19,-0.09 0.02,-0.01 0.04,-0.03 0.07,-0.03 3.67,-0.86 6.23,-3.96 6.23,-7.55 C 58.19,9.49 54.51,6 50,6 c -4.1,0 -7.55,2.94 -8.1,6.71 0.75,0.04 1.56,0.03 2.38,-0.03 0.52,-2.61 2.87,-4.54 5.72,-4.54 3.22,0 5.84,2.53 5.84,5.63 0,2.51 -1.75,4.74 -4.25,5.41 -0.01,0 -0.01,0 -0.02,0 0,0 -0.01,0 -0.02,0 -0.07,0.02 -0.15,0.03 -0.23,0.03 -0.03,0 -0.06,-0.01 -0.09,-0.01 C 51.19,19.19 51.15,19.19 51.11,19.18 51.06,19.16 51,19.15 50.95,19.13 V 19.12 C 50.9,19.1 50.85,19.09 50.8,19.07 50.71,19.01 50.59,18.98 50.44,18.98 h -0.88 c -0.39,0 -0.73,0.3 -0.73,0.65 v 6.7 c 0,0.02 0,0.07 0.02,0.13 0,0 0,0 0,0.01 0.01,0.03 0,0.06 0.01,0.1 0,0.04 0.01,0.09 0.01,0.14 0,0.02 -0.01,0.04 -0.01,0.06 0,0.06 -0.01,0.12 -0.02,0.18 -0.02,0.06 -0.04,0.12 -0.07,0.18 -0.03,0.06 -0.06,0.11 -0.09,0.16 -0.04,0.05 -0.08,0.1 -0.13,0.14 -0.05,0.05 -0.1,0.09 -0.16,0.12 -0.03,0.02 -0.05,0.05 -0.08,0.06 L 6.47,47.82 c -0.28,0.19 -0.55,0.51 -0.45,1.63 0.34,3.85 3.99,6.86 8.31,6.86 h 1.92 c 0.04,-0.88 0.2,-1.72 0.49,-2.52 h -3.68 c -1.5,0 -2.73,-0.98 -3.06,-2.46 -0.33,-1.46 0.37,-2.89 1.73,-3.53 L 44.31,32.42 c 3.62,-1.72 7.77,-1.72 11.38,0 l 32.58,15.39 c 1.36,0.63 2.06,2.06 1.73,3.52 -0.33,1.47 -1.56,2.46 -3.06,2.46 h -3.69 c 0.29,0.8 0.45,1.64 0.49,2.52 h 1.93 c 4.32,0 7.97,-3.01 8.31,-6.86 0.1,-1.12 -0.18,-1.44 -0.45,-1.63 z"
       id="path152" /><path
       d="M 74.99,49.98 H 25 c -3.7,0 -6.72,3.02 -6.72,6.72 V 75.15 H 81.71 V 56.7 c 0,-3.7 -3.02,-6.72 -6.72,-6.72 z"
       id="path154" /><path
       d="m 18.28,92.87 c 0,0.62 0.51,1.13 1.13,1.13 H 80.6 c 0.3,0 0.58,-0.11 0.8,-0.33 0.2,-0.21 0.32,-0.49 0.32,-0.79 V 87.66 H 18.28 Z"
       id="path156" /><rect
       x="18.280001"
       y="77.199997"
       width="63.439999"
       height="8.4200001"
       id="rect158" /></g></svg>
