<?xml version="1.0" encoding="utf-8"?>
<!-- Generator: Adobe Illustrator 22.1.0, SVG Export Plug-In . SVG Version: 6.00 Build 0)  -->
<svg version="1.1" id="Слой_1" xmlns="http://www.w3.org/2000/svg" xmlns:xlink="http://www.w3.org/1999/xlink" x="0px" y="0px"
	 viewBox="0 0 725.7 725.7" style="enable-background:new 0 0 725.7 725.7;" xml:space="preserve">
<style type="text/css">
	.st0{fill:none;stroke:#000000;stroke-width:10;stroke-miterlimit:10;}
</style>
<path class="st0" d="M725.7,543.7H269.1c-50.9,0-92.5-41.6-92.5-92.5V274.5c0-50.9,41.6-92.5,92.5-92.5h456.6"/>
<rect x="62.2" y="318.8" class="st0" width="114.7" height="71.6"/>
<rect x="5" y="348.2" class="st0" width="57.2" height="18.6"/>
<circle class="st0" cx="310.8" cy="357.5" r="23.7"/>
<path d="M512,282.2c0-3.6,0-6.3,0-9.3c8.1,0,16.2,0,24.6,0c0,24.3,0,48.5,0,72.8c-7.8,0-15.9,0-24.3,0c0-2.7,0-5.4,0-8.7
	c-4.8,0-9,0-13.5,0c-15.6,0-27.8-12.9-27.5-28.4c0.3-13.8,12.6-26.1,26.4-26.4C502.1,282.2,506.9,282.2,512,282.2z M520.7,292.3
	c-6,0-13.2,0.3-20.1,0c-10.5-0.3-18.9,6.9-18.9,16.8c-0.3,10.2,7.8,18,18.3,17.7c7.2,0,14.4,0,22.2,0c0,2.4,0,4.2,0,6.3
	c-0.3,3,1.5,3.3,3.9,2.4c0-17.4,0-34.7,0-52.4C519.2,283.6,524,289.3,520.7,292.3z"/>
<path d="M635.7,272.9c0,3,0,5.7,0,9.3c4.2,0,8.4,0,12.3,0c13.2,0,23.1,6.9,27.2,19.2c6,16.8-7.2,35.3-25.2,35.6c-4.5,0-9,0-14.1,0
	c0,3,0,5.7,0,8.7c-8.4,0-16.5,0-24.6,0c0-24,0-48.2,0-72.8C619.5,272.9,627.3,272.9,635.7,272.9z M627,326.8c6.3,0,13.5,0,20.7,0
	c10.8,0.3,18.9-7.2,18.9-17.4s-8.4-17.7-19.2-17.1c-7.2,0.3-14.1,0-21,0c-0.9-9.3-0.9-9.3-4.5-8.7c0,17.4,0,34.4,0,52.4
	C628.5,335.5,624.3,329.8,627,326.8z"/>
<path d="M562.3,345.9c0-24.6,0-48.5,0-72.8c8.1,0,15.9,0,24,0c0,24.3,0,48.5,0,72.8C578.5,345.9,570.7,345.9,562.3,345.9z
	 M577.6,281.6c-2.4,0-4.5,0-6.3,0c0,18.6,0,37.1,0,55.4c2.4,0,4.2,0,6.3,0C577.6,318.4,577.6,300.1,577.6,281.6z"/>
<path d="M547.3,448.3c-7.2,4.2-14.1,8.1-21,12.3c-12.3-21-24.6-41.9-36.8-63.2c6.9-4.2,13.8-8.1,21-12.3
	C522.8,406.1,535.1,427.1,547.3,448.3z M501.5,400.4c9.6,16.2,18.6,32,28.1,47.9c2.1-1.2,3.9-2.4,6-3.6c-9.3-16.2-18.6-32-27.8-47.9
	C505.1,398.3,503.6,399.2,501.5,400.4z"/>
<path d="M618,457c-6.9-4.5-13.5-9-20.4-13.5c13.5-20.4,26.6-40.4,39.8-61.1c6.9,4.5,13.5,8.7,20.4,13.2
	C644.3,416.3,631.2,436.7,618,457z M615.3,445c10.2-15.6,20.4-30.8,30.5-46.4c-2.1-1.2-3.9-2.4-5.7-3.6
	c-10.2,15.6-20.4,30.8-30.5,46.4C611.4,442.6,613.2,443.5,615.3,445z"/>
</svg>
