<?xml version="1.0" encoding="utf-8"?>
<!-- Generator: Adobe Illustrator 22.1.0, SVG Export Plug-In . SVG Version: 6.00 Build 0)  -->
<svg version="1.1" baseProfile="tiny" id="Слой_1"
	 xmlns="http://www.w3.org/2000/svg" xmlns:xlink="http://www.w3.org/1999/xlink" x="0px" y="0px" viewBox="0 0 725.7 725.7"
	 xml:space="preserve">
<path fill="none" stroke="#000000" stroke-width="10" stroke-miterlimit="10" d="M566.7,708.4H158.9c-22.6,0-41-18.5-41-41V177.5
	c0-22.6,18.4-41,41-41h407.8c22.5,0,41,18.4,41,41v489.9C607.7,689.9,589.3,708.4,566.7,708.4z"/>
<path fill="none" stroke="#000000" stroke-width="10" stroke-miterlimit="10" d="M119.7,164.7L136.8,87
	c5.1-36.9,27.3-69.8,60.6-69.8h332.4c33.3,0,54.4,39.2,60.6,69.8l17.4,90.5"/>
<path d="M282.7,305.2c0-4.4,0-7.9,0-11.7c10.3,0,20.3,0,30.8,0c0,30.5,0,61,0,91.8c-10,0-20,0-30.6,0c0-3.3,0-6.7,0-11
	c-6,0-11.4,0-16.8,0c-19.6-0.2-35.3-16.2-34.8-35.7c0.4-17.5,15.8-33,33.3-33.4C270.3,305.1,276.1,305.2,282.7,305.2z M293.5,318.1
	c-7.7,0-16.5,0.3-25.2-0.1c-13.1-0.5-23.6,8.6-23.9,21.1c-0.3,12.9,9.9,22.7,23.2,22.4c9.1-0.2,18.2,0,27.8,0c0,3.1,0.1,5.5,0,7.8
	c-0.2,4,1.8,4.2,4.8,3.2c0-22,0-43.9,0-66.1C291.6,307.1,297.6,314.1,293.5,318.1z"/>
<path d="M438.5,293.6c0,3.6,0,7.1,0,11.6c5.3,0,10.4,0,15.4,0c16.6,0,28.9,8.7,34.3,24.1c7.4,21-9.1,44.4-31.7,45
	c-5.7,0.1-11.3,0-17.6,0c0,3.8,0,7.2,0,11c-10.6,0-20.6,0-31,0c0-30.3,0-60.8,0-91.7C417.9,293.6,428,293.6,438.5,293.6z
	 M427.4,361.5c8,0,16.9-0.2,25.9,0c13.5,0.3,23.7-9,23.7-21.9c-0.1-12.8-10.6-22.1-24-21.6c-8.9,0.3-17.8,0.1-26.5,0.1
	c-1.3-11.5-1.3-11.5-5.5-10.9c0,21.7,0,43.5,0,66.1C429.3,372.3,423.9,365.2,427.4,361.5z"/>
<path d="M346,385.3c0-30.8,0-61.2,0-91.8c10.1,0,19.9,0,30.2,0c0,30.4,0,60.9,0,91.8C366.4,385.3,356.4,385.3,346,385.3z
	 M365.3,304.5c-3.1,0-5.6,0-8.1,0c0,23.5,0,46.7,0,69.8c2.9,0,5.4,0,8.1,0C365.3,351,365.3,327.9,365.3,304.5z"/>
<path d="M327.1,514.4c-9.1,5.3-17.6,10.2-26.5,15.4c-15.5-26.6-30.8-52.8-46.3-79.5c8.9-5.2,17.5-10.2,26.5-15.5
	C296.3,461.4,311.5,487.6,327.1,514.4z M269.3,454.3c11.9,20.4,23.6,40.4,35.3,60.5c2.8-1.7,5-3,7.4-4.5
	c-11.9-20.4-23.5-40.3-35.2-60.4C274.1,451.5,272,452.7,269.3,454.3z"/>
<path d="M416,525.6c-8.8-5.8-17-11.1-25.7-16.8c16.8-25.7,33.4-51.1,50.4-77c8.6,5.6,16.9,11,25.7,16.8
	C449.5,474.3,432.9,499.7,416,525.6z M412.8,510.4c12.9-19.7,25.5-39,38.3-58.6c-2.6-1.7-4.8-3.1-7.3-4.7
	c-12.9,19.7-25.5,39-38.3,58.6C408,507.3,410.1,508.6,412.8,510.4z"/>
<circle cx="363.8" cy="655.8" r="6.6"/>
</svg>
