<?xml version="1.0" encoding="utf-8"?>
<!-- Generator: Adobe Illustrator 22.1.0, SVG Export Plug-In . SVG Version: 6.00 Build 0)  -->
<svg version="1.1" baseProfile="tiny" id="Layer_1" xmlns="http://www.w3.org/2000/svg" xmlns:xlink="http://www.w3.org/1999/xlink"
	 x="0px" y="0px" viewBox="0 0 512 512" xml:space="preserve">
<g>
	<path d="M241,1c10.7,0,21.3,0,32,0c1.3,0.3,2.5,0.6,3.8,0.8c13.3,2.1,26.8,3.3,39.9,6.3c98.4,22.8,175.9,105.4,192.4,204.7
		c1.5,9.3,2.6,18.7,3.9,28.1c0,10.7,0,21.3,0,32c-0.3,1.5-0.6,2.9-0.9,4.4c-2.1,13.1-3.3,26.5-6.3,39.4
		C483,415.2,400.5,492.5,301.1,509.1c-9.3,1.6-18.7,2.6-28.1,3.9c-10.7,0-21.3,0-32,0c-1.3-0.3-2.6-0.6-3.8-0.8
		c-15.9-2.7-32.1-4.3-47.6-8.4C94.6,478.8,20.8,397.5,4.9,301.1C3.4,291.8,2.3,282.4,1,273c0-10.7,0-21.3,0-32
		c0.3-1.3,0.6-2.6,0.8-3.9c1.7-11.7,2.8-23.5,5.2-35C28.1,101.8,111.7,21.8,212.9,4.9C222.2,3.3,231.6,2.3,241,1z M503,257.1
		C503.1,121.7,392.9,11.3,257.4,11C121.8,10.7,11.1,121.2,11,256.9C10.9,392.3,121.1,502.8,256.6,503
		C392.2,503.2,502.9,392.8,503,257.1z"/>
	<path d="M276.3,232c0,11.8-0.2,23.7,0.2,35.5c0.1,2.6,1.5,5.8,3.3,7.6c9.8,9.6,13.4,21.2,10.4,34.2c-3.1,13.5-12.2,23-25.7,26
		c-27.1,6-46.7-18.7-41.8-41.3c1.6-7.5,5.5-13.8,11.1-19.2c1.6-1.6,2.9-4.5,2.9-6.8c0.2-23.5,0.1-47,0.2-70.5
		c0-11.8,8.7-21.3,19.3-21.5c10.9-0.1,19.9,8.6,20.1,19.9C276.5,208,276.3,220,276.3,232z M261,277.4c2.1,1,3.4,1.7,4.7,2.2
		c10,4.2,15.8,14.3,14,24.5c-1.8,10.4-10.7,18.3-21,18.8c-10.6,0.5-20-6.3-22.8-16.5c-2.9-10.5,1.7-21.1,11.7-25.9
		c3-1.5,3.5-3.2,3.5-6.1c-0.1-17.5-0.1-35-0.1-52.5c0-7.7,1.1-9.9,5.3-9.9c6.2,0,5.6,4.9,5.9,8.9c10.2,0,10.2,0,8.5-7.2
		c-2-0.1-4.2,0.1-6.3-0.4c-1-0.2-1.7-1.7-2.5-2.5c0.8-0.7,1.5-1.9,2.5-2.1c2.2-0.4,4.5-0.4,6.8-0.6c0-2.4,0-4.4,0-7.1
		c-3.7,0-7.1,0.2-10.5-0.1c-1.3-0.1-2.5-1.6-3.7-2.4c1.2-0.8,2.4-2.2,3.8-2.3c3.4-0.3,6.8-0.1,10.4-0.1c-0.1-7.2-3.4-11.4-9-13.9
		c-5.4-2.4-10.4-1.2-14.8,2.6c-4.2,3.5-5.3,8.2-5.3,13.4c0,23.3-0.1,46.6,0.1,70c0,4.4-1.4,7.5-4.8,10.4
		c-12.1,10.4-13.7,28.7-3.8,41c10.2,12.7,27.5,15.4,40.1,6.2c13.3-9.8,16.7-27.8,7.8-41.3C276.1,276.5,270.3,274.2,261,277.4z
		 M262.1,234.3c3.3-2.2,9.3,2.9,9.2-4.4c-0.1-7.5-6.1-2.1-9.2-4.4C262.1,228.5,262.1,230.8,262.1,234.3z M262.3,246.2
		c2.2,0,3.9,0,5.7,0c1,0,1.9-0.2,2.8-0.3c1.5-7.7,1.4-7.8-8.5-7.2C262.3,240.9,262.3,243.1,262.3,246.2z M262.4,251.4
		c0,2.7,0,5.1,0,7.5c10-0.5,10-0.5,8.2-7.5C268.1,251.4,265.4,251.4,262.4,251.4z M262.2,271.3c3.4-1.3,8.5,2.8,9.1-3.4
		c0.8-8-6-2.6-9.1-5C262.2,265.9,262.2,268.2,262.2,271.3z"/>
</g>
</svg>
