<?xml version="1.0" encoding="utf-8"?>
<!-- Generator: Adobe Illustrator 22.1.0, SVG Export Plug-In . SVG Version: 6.00 Build 0)  -->
<svg version="1.1" baseProfile="tiny" id="Layer_1" xmlns="http://www.w3.org/2000/svg" xmlns:xlink="http://www.w3.org/1999/xlink"
	 x="0px" y="0px" viewBox="0 0 512 512" xml:space="preserve">
<g>
	<path d="M424.3,400.5c-0.1,2.1-0.2,4-0.3,6c-0.2,28.5-0.3,57-0.5,85.5c-0.1,9.2-4.5,14.1-13.4,15.5c-9.1,1.3-18.2,2.5-27.1,4.2
		c-8.2,1.6-15-1.6-21.8-5.3c-2.7-1.5-4.7-1.8-7.5,0.5c-4.2,3.6-8.9,2.4-13.5-0.1c-31.6-16.7-63.3-33.3-95-50
		c-28.7-15.1-57.3-30.4-86.2-45.2c-7.4-3.8-10.4-9.2-10-17.2c1.5-31.1,2.9-62.2,4.3-93.4c1.8-39.6,3.7-79.2,5.6-118.8
		c2-42.8,4-85.5,6-128.3c0.4-8.4,4.1-12.3,12.2-13.8c65.1-12.2,130.2-24.5,195.3-36.3c7.6-1.4,15.6-0.3,23.4-0.1
		c5.8,0.2,11.6,0.8,17.5,1.1c8.1,0.4,13.6,6,13.6,14.2c-0.1,20.2-0.2,40.3-0.4,60.5c0,2,0,3.9,0,6.2c11.7,1.5,23,3,34.4,4.4
		c2,0.3,4,0.6,5.9,0.8c12.4,1.6,17.3,7.1,17.1,19.5c-0.6,35.2-1.3,70.3-2,105.4c-0.1,5.2-2,7.1-6.8,7.1c-6.6,0.1-9.5,2-9.9,8.7
		c-0.7,13.5-0.7,27-0.7,40.5c0,4.1,4.3,7.6,8.9,7.9c6.1,0.5,7.4,1.9,7.3,8.1c-0.6,30.7-1.1,61.3-1.8,92c-0.2,9.7-5,15.3-14.6,16.4
		C451.1,397.9,437.9,399.1,424.3,400.5z M364.4,256c2.5-42.2,5-84.5,7.6-126.7c2.2-36.1,4.3-72.2,6.5-108.3c0.5-8-0.6-9.1-8.6-7.6
		c-63.3,11.8-126.6,23.7-190,35.4c-4.1,0.8-5.7,2.5-5.9,6.4c-1.6,36.6-3.3,73.2-5,109.9c-1.9,40.4-3.8,80.9-5.7,121.3
		c-1.7,36.1-3.3,72.2-5,108.4c-0.2,3.4,0.5,5.9,4,7.7c60.6,31.8,121.1,63.6,181.7,95.5c4.5,2.4,5.8,1.7,6.1-3.6
		c2.7-43.6,5.3-87.1,7.9-130.7C360.2,327.8,362.3,291.9,364.4,256z M381.5,501.5c9.2-1.3,17.5-2.7,25.9-3.5c4.3-0.4,5.8-1.9,5.8-6.5
		C414.1,335.7,415,180,416,24.2c0-1.7,0.3-3.4-0.1-5c-0.3-1.1-1.6-2.8-2.6-2.8c-6.9-0.6-13.8-1-21.4-1.4
		C388.5,177.2,385,339,381.5,501.5z M426.3,96.7c0,3.2,0,5.5,0,7.8c-0.5,64.2-1,128.3-1.4,192.5c-0.2,29-0.2,58-0.4,87
		c0,4.3,1.6,5.5,5.7,5.1c10.9-1.2,21.9-2,32.8-3.3c1.9-0.2,3.7-2.1,5.5-3.2c-0.3-0.6-0.5-1.1-0.8-1.7c-2.3,0.2-4.5,0.3-6.8,0.6
		c-6.8,0.8-13.6,1.6-20.3,2.5c-4.1,0.5-7-0.9-7.5-5.3c-0.5-4.4,2.1-6.2,6.2-6.7c7.3-0.8,14.6-1.7,21.8-2.6c7.6-1,7.6-1,7.3-8.7
		c0-0.6-0.2-1.3-0.4-2.3c-9.1,0.5-18,1.1-26.9,1.6c-5.5,0.3-8-1.5-8.1-5.7c-0.1-4.1,2.2-6,7.7-6.3c9.3-0.5,18.5-1.2,27.9-1.7
		c0-4.3,0-8,0-11.9c-9.5,0.6-18.7,1.1-27.8,1.7c-4.2,0.3-7.4-0.8-7.8-5.6c-0.4-4.1,2.1-6.1,7.5-6.4c9.4-0.6,18.8-1.2,28.4-1.8
		c0-4.3,0-8,0-11.9c-3.2,0-6-0.1-8.8,0c-6.7,0.2-13.3,0.4-20,0.7c-4.1,0.2-6.9-1.3-7.2-5.7c-0.3-4,2.2-6.1,7.2-6.2
		c1.5-0.1,3,0,4.5-0.1c8.3-0.3,16.5-0.6,25-0.9c0-2.9,0-5.2,0-7.3c-8.2-3.5-15.4-8.1-15.7-17.8c-0.4-13.3-0.3-26.7,0.4-40
		c0.6-11.7,6.1-20.3,16.9-21.8c0-5.2,0-10.4,0-16.1c-9.8,0-19.5-0.1-29.1,0c-3.3,0-6-0.8-7-4.3c-1.2-4.2,1.6-7.6,6.5-7.7
		c9.9-0.1,19.9,0,30,0c0-5,0-9.4,0-14c-10.2,0-20,0.1-29.8,0c-5.2,0-8.5-3.9-6.4-7.9c1.1-2,4.3-3.8,6.6-3.9
		c9.9-0.4,19.9-0.2,30.2-0.2c0-4.6,0-8.7,0-13c-10.5,0-20.6,0-30.8,0c-4,0-6.4-2-6.4-6c0-4.1,2.4-6,6.4-6c7.2,0,14.3,0,21.5,0
		c3.2,0,6.5,0,9.7,0c0-5.1,0-9.4,0-14c-9.8,0-19.2-0.1-28.7,0c-3.6,0-6.2-1.1-6.9-4.9c-0.8-4.2,1.9-7,6.8-7c9.6-0.1,19.1,0,28.7,0
		c0.2-0.5,0.3-1,0.5-1.5c-1.5-0.9-2.9-2.2-4.6-2.7c-3.1-0.8-6.2-1-9.4-1.4C448.5,99.2,438,98,426.3,96.7z M370.7,498.5
		c2-94.8,4-188.5,6.1-283.1c-0.5,5.5-1.1,10-1.4,14.6c-2.1,35.4-4.2,70.8-6.3,106.2c-1.9,31.1-3.8,62.2-5.6,93.2
		c-1.2,19.8-2.3,39.6-3.4,59.4c-0.1,1.7,0.4,4.2,1.6,5.1C364,495.7,367.1,496.7,370.7,498.5z"/>
	<path d="M106.2,407.2c0-19,0-36.4,0-53.9c0-15.5,0-31,0-46.5c0-6.1,0.8-6.8,7.5-6.8c6.2,0,7.1,0.8,7.1,6.8
		c0,41.1,0.1,82.3-0.1,123.4c0,2.3-1.4,6-2.9,6.5c-3.4,1-7.1,1.5-10.1-2.6c-24-33-48.3-65.7-72.5-98.6c-1.3-1.8-2.7-3.6-5.1-5.3
		c0,1.7,0,3.5,0,5.2c0,31.5,0,63-0.1,94.5c0,2.3-0.8,6.1-2.1,6.4c-3.1,0.9-6.8,0.7-10.1,0c-1.1-0.2-2-3.6-2-5.5
		c-0.2-17-0.1-34-0.1-51c0-24,0-48,0-72c0-2.9-0.8-6.7,3-7.5c3.9-0.8,7.7-1,10.9,3.4c24,33,48.3,65.7,72.5,98.6
		C103.2,403.5,104.2,404.8,106.2,407.2z"/>
	<path d="M53.8,197.5c15.7,0,30.5,0,45.3,0c7,0,10.2,4.5,7.3,10.8c-0.6,1.4-3,2.8-4.6,2.8c-19.2,0.2-38.3,0.1-57.5,0.1
		c-4.7,0-5.2-3-5.2-6.7c0.1-27.7,0-55.3,0-83c0-13.7,0-27.3,0-41c0-5.8,0.9-6.5,7.3-6.5c6.4,0,7.3,0.7,7.3,6.5
		c0,36.8,0,73.6,0,110.5C53.8,193,53.8,194.9,53.8,197.5z"/>
</g>
<g>
	<path d="M402.4,484.7l5.9,1.5v2l-18.6-5v-2.3l18.6-5v2l-5.9,1.6V484.7z M400.5,479.8l-5.4,1.4c-1.2,0.3-2.3,0.5-3.4,0.8v0
		c1.1,0.2,2.2,0.5,3.4,0.7l5.4,1.4V479.8z"/>
	<path d="M411,461.7c-0.7,2-1.4,3.9-2.2,5.7c-0.1,0.3-0.3,0.6-0.3,0.9c-0.2,3.5-3.4,6.5-9.4,6.5c-6,0-9.8-2.9-9.8-6.9
		c0-4,3.9-6.6,9.4-6.6c4.8,0,7.8,1.8,8.9,4.2h0.1c0.5-1.5,0.9-3.1,1.2-4.3L411,461.7z M406.6,468.1c0-3-3.5-4.7-7.7-4.7
		c-3.7,0-7.6,1.5-7.6,4.7c0,3.2,3.8,4.8,7.8,4.8C403,472.8,406.6,471.1,406.6,468.1L406.6,468.1z"/>
	<path d="M402.4,456.7l5.9,1.5v2l-18.6-5v-2.3l18.6-5v2l-5.9,1.6V456.7z M400.5,451.9l-5.4,1.4c-1.2,0.3-2.3,0.5-3.4,0.8v0
		c1.1,0.2,2.2,0.5,3.4,0.7l5.4,1.4V451.9z"/>
	<path d="M389.9,445.7c-0.2-1-0.4-2.3-0.4-3.7c0-2,0.5-3.4,1.5-4.3c0.8-0.7,2.1-1.2,3.5-1.2c2.5,0,4.1,1.2,4.8,2.8h0.1
		c0.5-1.1,1.8-1.8,3.8-2.2c2.6-0.5,4.4-0.8,5.1-1.1v2c-0.6,0.2-2.1,0.6-4.4,1c-2.6,0.4-3.5,1.2-3.6,3v1.8h8.1v1.9H389.9z
		 M398.4,443.8v-2c0-2-1.4-3.3-3.5-3.3c-2.4,0-3.5,1.4-3.5,3.4c0,0.9,0.1,1.6,0.2,1.9H398.4z"/>
	<path d="M402.4,431.4l5.9,1.5v2l-18.6-5v-2.3l18.6-5v2l-5.9,1.6V431.4z M400.5,426.5l-5.4,1.4c-1.2,0.3-2.3,0.5-3.4,0.8v0
		c1.1,0.2,2.2,0.5,3.4,0.7l5.4,1.4V426.5z"/>
</g>
</svg>
