<svg fill="#333333" xmlns="http://www.w3.org/2000/svg" data-name="Layer 1 copy 2" viewBox="0 0 64 64" x="0px" y="0px"><title>Amplifier-player-receiver</title><path d="M61,17H3a1,1,0,0,0-1,1V42a1,1,0,0,0,1,1H7v3a1,1,0,0,0,1,1h5a1,1,0,0,0,1-1V43H50v3a1,1,0,0,0,1,1h5a1,1,0,0,0,1-1V43h4a1,1,0,0,0,1-1V18A1,1,0,0,0,61,17ZM12,45H9V43h3Zm43,0H52V43h3Zm5-4H4V19H60Z"></path><path d="M34,39a8,8,0,1,0-8-8A8.009,8.009,0,0,0,34,39ZM33,25.09V27h2V25.09a6,6,0,1,1-2,0Z"></path><rect x="22" y="21" width="2" height="2"></rect><rect x="22" y="25" width="2" height="2"></rect><rect x="18" y="21" width="2" height="2"></rect><rect x="18" y="25" width="2" height="2"></rect><rect x="14" y="21" width="2" height="2"></rect><rect x="14" y="25" width="2" height="2"></rect><rect x="10" y="21" width="2" height="2"></rect><rect x="10" y="25" width="2" height="2"></rect><rect x="6" y="21" width="2" height="2"></rect><rect x="6" y="25" width="2" height="2"></rect><path d="M48,39a3.992,3.992,0,0,0,1-7.858V29H47v2.142A3.992,3.992,0,0,0,48,39Zm0-6a2,2,0,1,1-2,2A2,2,0,0,1,48,33Z"></path><path d="M20,39a3.992,3.992,0,0,0,1-7.858V29H19v2.142A3.992,3.992,0,0,0,20,39Zm0-6a2,2,0,1,1-2,2A2,2,0,0,1,20,33Z"></path><path d="M10,39a3.992,3.992,0,0,0,1-7.858V29H9v2.142A3.992,3.992,0,0,0,10,39Zm0-6a2,2,0,1,1-2,2A2,2,0,0,1,10,33Z"></path><path d="M53,31h4a1,1,0,0,0,1-1V22a1,1,0,0,0-1-1H53a1,1,0,0,0-1,1v8A1,1,0,0,0,53,31Zm1-8h2v2H54Zm0,4h2v2H54Z"></path><circle cx="55" cy="34" r="1"></circle><circle cx="55" cy="38" r="1"></circle></svg>