<?xml version="1.0" encoding="utf-8"?>
<!-- Generator: Adobe Illustrator 23.0.5, SVG Export Plug-In . SVG Version: 6.00 Build 0)  -->
<svg version="1.1" id="Слой_1" xmlns="http://www.w3.org/2000/svg" xmlns:xlink="http://www.w3.org/1999/xlink" x="0px" y="0px"
	 viewBox="0 0 512 512" style="enable-background:new 0 0 512 512;" xml:space="preserve">
<path d="M496.1,420c4.2,0,7.6-3.4,7.6-7.6v-151c0-18.9-15.4-34.4-34.4-34.4h-60.8v-174c0-29.3-23.8-53.1-53.1-53.1H62.1
	C32.8,0,9,23.8,9,53.1v70.4c0,4.2,3.4,7.6,7.6,7.6s7.6-3.4,7.6-7.6V53.1c0-20.9,17-37.9,37.9-37.9h293.3c20.9,0,37.9,17,37.9,37.9
	v174h-33.2c-18.9,0-34.4,15.4-34.4,34.4v122.8H62.1c-20.9,0-37.9-17-37.9-37.9V153.9c0-4.2-3.4-7.6-7.6-7.6S9,149.7,9,153.9v192.5
	c0,29.3,23.8,53.1,53.1,53.1h263.7v78.2c0,18.9,15.4,34.4,34.4,34.4h109.2c18.9,0,34.4-15.4,34.4-34.4v-34.8c0-4.2-3.4-7.6-7.6-7.6
	s-7.6,3.4-7.6,7.6v34.8c0,10.6-8.6,19.2-19.2,19.2H360.1c-10.6,0-19.2-8.6-19.2-19.2V261.4c0-6.8,3.6-12.8,9-16.2v8.6
	c0,16.6,13.5,30,30,30h69.5c16.6,0,30-13.5,30-30v-8.6c5.4,3.4,9,9.4,9,16.2v151C488.5,416.6,491.9,420,496.1,420z M449.4,268.7H380
	c-8.2,0-14.8-6.6-14.8-14.8v-11.6h99.1v11.6C464.3,262,457.6,268.7,449.4,268.7z"/>
<path d="M352.7,327.2v48c0,15.8,12.8,28.6,28.6,28.6s28.6-12.8,28.6-28.6v-48c0-15.7-12.8-28.6-28.6-28.6S352.7,311.5,352.7,327.2z
	 M381.3,388.6c-7.4,0-13.3-6-13.3-13.4v-16.4h26.7v16.4C394.6,382.6,388.6,388.6,381.3,388.6z M394.6,327.2v16.4h-26.7v-16.4
	c0-7.4,6-13.3,13.3-13.3C388.6,313.9,394.6,319.9,394.6,327.2z"/>
<path d="M448.2,298.7c-15.7,0-28.6,12.8-28.6,28.6v48c0,15.8,12.8,28.6,28.6,28.6s28.6-12.8,28.6-28.6v-48
	C476.7,311.5,463.9,298.7,448.2,298.7z M448.2,313.9c7.4,0,13.3,6,13.3,13.3v16.4h-26.7v-16.4C434.8,319.9,440.8,313.9,448.2,313.9z
	 M448.2,388.6c-7.4,0-13.3-6-13.3-13.4v-16.4h26.7v16.4C461.5,382.6,455.5,388.6,448.2,388.6z"/>
<path d="M161,252.2c3.9,0,7.8-1.8,7.8-5.2v-86.3h22.1c3.6,0,5.2-3.8,5.2-7.3c0-3.3-1.6-6.9-5.2-6.9H131c-3.6,0-5.2,3.7-5.2,7.1
	c0,3.6,1.8,7.2,5.2,7.2h22.2V247C153.3,249.5,155.7,252.2,161,252.2z"/>
<path d="M253,253.1c5.7,0,9-2.7,9.8-5.3l28.6-93.5c0.1-0.4,0.3-0.9,0.3-1.3c0-1.7-1.2-3.4-3.3-4.6c-1.9-1.2-4.3-1.8-6.5-1.8
	c-2.8,0-4.7,1.1-5.3,3.3L253,231.5l-23.7-81.9c-0.7-2.2-2.5-3.3-5.5-3.3c-2.1,0-4.5,0.7-6.4,1.8c-2.1,1.3-3.3,2.9-3.3,4.7
	c0,0.4,0,0.9,0.2,1.3l28.9,93.5C244.3,251,248.1,253.1,253,253.1z"/>
</svg>
