<?xml version="1.0" encoding="iso-8859-1"?>
<!-- Generator: Adobe Illustrator 19.0.0, SVG Export Plug-In . SVG Version: 6.00 Build 0)  -->
<svg version="1.1" id="Capa_1" xmlns="http://www.w3.org/2000/svg" xmlns:xlink="http://www.w3.org/1999/xlink" x="0px" y="0px"
	 viewBox="0 0 512 512" style="enable-background:new 0 0 512 512;" xml:space="preserve">
<g>
	<g>
		<path d="M437.019,74.981C388.668,26.629,324.38,0,256,0c-23.073,0-45.949,3.071-67.99,9.129c-4.049,1.113-6.43,5.298-5.318,9.347
			c1.112,4.048,5.296,6.429,9.347,5.318c20.729-5.697,42.248-8.585,63.96-8.585c98.072,0,182.626,58.941,220.131,143.255
			l-154.35,23.003c-17.546-15.503-40.582-24.928-65.78-24.928c-35.749,0-67.149,18.961-84.683,47.351l-154.334,23
			C25.172,159.932,61.322,98.721,117.15,59.248c3.429-2.425,4.243-7.17,1.819-10.599c-2.425-3.429-7.169-4.243-10.599-1.819
			c-32.782,23.179-60.019,54.148-78.765,89.559C10.237,172.974,0,214.335,0,256c0,68.38,26.629,132.668,74.981,181.019
			S187.62,512,256,512s132.668-26.629,181.019-74.981C485.371,388.668,512,324.38,512,256S485.371,123.332,437.019,74.981z
			 M256,171.745c46.458,0,84.255,37.797,84.255,84.255S302.459,340.255,256,340.255c-46.458,0-84.255-37.797-84.255-84.255
			S209.542,171.745,256,171.745z M15.208,256c0-4.527,0.142-9.038,0.395-13.53l147.492-21.981
			c-4.232,11.034-6.559,23.005-6.559,35.51c0,18.812,5.251,36.421,14.363,51.439L26.518,328.957
			C19.181,305.934,15.208,281.424,15.208,256z M256,496.792c-101.897,0-189.208-63.625-224.308-153.23l149.35-22.258
			c18.247,20.918,45.084,34.159,74.958,34.159c40.396,0,75.243-24.209,90.799-58.88c0.083-0.01,0.165-0.006,0.249-0.018
			l149.049-22.214C486.692,398.584,382.6,496.792,256,496.792z M495.54,259.059l-143.105,21.327
			c1.975-7.806,3.028-15.974,3.028-24.385c0-22.992-7.845-44.186-20.995-61.05l147.563-21.991
			c9.543,25.897,14.761,53.87,14.761,83.04c0,0.998-0.025,1.989-0.038,2.984C496.354,258.98,495.949,258.997,495.54,259.059z"/>
	</g>
</g>
<g>
	<g>
		<path d="M193.576,375.528h-19.115c-3.672,0-6.156,2.052-6.156,4.32v70.307c0,2.269,2.484,4.32,6.156,4.32h19.115
			c14.256,0,25.38-6.697,25.38-24.732V400.26C218.956,382.224,207.831,375.528,193.576,375.528z M204.916,429.743
			c0,8.424-4.213,12.42-11.34,12.42h-11.232V387.84h11.232c7.128,0,11.34,3.996,11.34,12.42V429.743z"/>
	</g>
</g>
<g>
	<g>
		<path d="M276.736,375.528c-2.377,0-4.212,0.756-4.752,2.808l-16.415,58.534l-16.524-58.534c-0.54-2.053-2.375-2.808-4.752-2.808
			c-3.78,0-8.856,2.377-8.856,5.832c0,0.215,0.108,0.648,0.216,1.08l20.843,67.931c1.08,3.24,4.968,4.752,9.072,4.752
			s8.1-1.513,9.072-4.752l20.735-67.931c0.109-0.431,0.216-0.756,0.216-1.08C285.591,378.012,280.515,375.528,276.736,375.528z"/>
	</g>
</g>
<g>
	<g>
		<path d="M318.317,375.528h-19.116c-3.672,0-6.156,2.052-6.156,4.32v70.307c0,2.269,2.484,4.32,6.156,4.32h19.116
			c14.256,0,25.38-6.697,25.38-24.732V400.26C343.697,382.224,332.573,375.528,318.317,375.528z M329.657,429.743
			c0,8.424-4.213,12.42-11.34,12.42h-11.232V387.84h11.232c7.128,0,11.34,3.996,11.34,12.42V429.743z"/>
	</g>
</g>
<g>
	<g>
		<path d="M256,203.285c-29.066,0-52.715,23.647-52.715,52.715s23.648,52.715,52.715,52.715s52.715-23.647,52.715-52.715
			S285.067,203.285,256,203.285z M256,293.507c-20.681,0-37.507-16.825-37.507-37.507c0-20.682,16.826-37.507,37.507-37.507
			c20.681,0,37.507,16.825,37.507,37.507S276.681,293.507,256,293.507z"/>
	</g>
</g>
<g>
	<g>
		<path d="M256,37.517c-31.115,0-61.174,6.408-89.342,19.044c-27.209,12.206-51.279,29.572-71.542,51.616
			c-2.842,3.091-2.64,7.902,0.452,10.744c1.461,1.342,3.305,2.006,5.144,2.006c2.053,0,4.1-0.826,5.6-2.458
			C144.721,76.688,199.28,52.725,256,52.725c4.2,0,7.604-3.405,7.604-7.604C263.604,40.921,260.2,37.517,256,37.517z"/>
	</g>
</g>
<g>
</g>
<g>
</g>
<g>
</g>
<g>
</g>
<g>
</g>
<g>
</g>
<g>
</g>
<g>
</g>
<g>
</g>
<g>
</g>
<g>
</g>
<g>
</g>
<g>
</g>
<g>
</g>
<g>
</g>
</svg>
