<svg xmlns:dc="http://purl.org/dc/elements/1.1/" xmlns:cc="http://creativecommons.org/ns#" xmlns:rdf="http://www.w3.org/1999/02/22-rdf-syntax-ns#" xmlns:svg="http://www.w3.org/2000/svg" xmlns="http://www.w3.org/2000/svg" xmlns:sodipodi="http://sodipodi.sourceforge.net/DTD/sodipodi-0.dtd" xmlns:inkscape="http://www.inkscape.org/namespaces/inkscape" viewBox="0 0 32 40.00000125" version="1.1" x="0px" y="0px"><g transform="translate(0,-1020.3622)"><path style="color:#000000;font-style:normal;font-variant:normal;font-weight:normal;font-stretch:normal;font-size:medium;line-height:normal;font-family:sans-serif;font-variant-ligatures:normal;font-variant-position:normal;font-variant-caps:normal;font-variant-numeric:normal;font-variant-alternates:normal;font-feature-settings:normal;text-indent:0;text-align:start;text-decoration:none;text-decoration-line:none;text-decoration-style:solid;text-decoration-color:#000000;letter-spacing:normal;word-spacing:normal;text-transform:none;writing-mode:lr-tb;direction:ltr;text-orientation:mixed;dominant-baseline:auto;baseline-shift:baseline;text-anchor:start;white-space:normal;shape-padding:0;clip-rule:nonzero;display:inline;overflow:visible;visibility:visible;opacity:1;isolation:auto;mix-blend-mode:normal;color-interpolation:sRGB;color-interpolation-filters:linearRGB;solid-color:#000000;solid-opacity:1;vector-effect:none;fill:#000000;fill-opacity:1;fill-rule:nonzero;stroke:none;stroke-width:1;stroke-linecap:round;stroke-linejoin:round;stroke-miterlimit:4;stroke-dasharray:none;stroke-dashoffset:0;stroke-opacity:1;color-rendering:auto;image-rendering:auto;shape-rendering:auto;text-rendering:auto;enable-background:accumulate" d="m 16,1022.3622 c -5.793042,0 -10.4999645,4.707 -10.5,10.5 -8.04e-5,5.7931 4.706877,10.5 10.5,10.5 5.793123,0 10.50008,-4.7069 10.5,-10.5 -3.5e-5,-5.793 -4.706958,-10.5 -10.5,-10.5 z m 0,1 c 5.252606,0 9.499968,4.2474 9.5,9.5 7.3e-5,5.2527 -4.24732,9.5 -9.5,9.5 -5.25268,0 -9.5000729,-4.2473 -9.5,-9.5 3.21e-5,-5.2526 4.247394,-9.5 9.5,-9.5 z"/><path style="color:#000000;font-style:normal;font-variant:normal;font-weight:normal;font-stretch:normal;font-size:medium;line-height:normal;font-family:sans-serif;font-variant-ligatures:normal;font-variant-position:normal;font-variant-caps:normal;font-variant-numeric:normal;font-variant-alternates:normal;font-feature-settings:normal;text-indent:0;text-align:start;text-decoration:none;text-decoration-line:none;text-decoration-style:solid;text-decoration-color:#000000;letter-spacing:normal;word-spacing:normal;text-transform:none;writing-mode:lr-tb;direction:ltr;text-orientation:mixed;dominant-baseline:auto;baseline-shift:baseline;text-anchor:start;white-space:normal;shape-padding:0;clip-rule:nonzero;display:inline;overflow:visible;visibility:visible;opacity:1;isolation:auto;mix-blend-mode:normal;color-interpolation:sRGB;color-interpolation-filters:linearRGB;solid-color:#000000;solid-opacity:1;vector-effect:none;fill:#000000;fill-opacity:1;fill-rule:nonzero;stroke:none;stroke-width:1;stroke-linecap:round;stroke-linejoin:round;stroke-miterlimit:4;stroke-dasharray:none;stroke-dashoffset:0;stroke-opacity:1;color-rendering:auto;image-rendering:auto;shape-rendering:auto;text-rendering:auto;enable-background:accumulate" d="m 16,1030.8603 c -1.100413,0 -2.003952,0.9015 -2.003906,2.0019 -4.6e-5,1.1005 0.903483,2.004 2.003906,2.0039 1.100413,0 2.003952,-0.9035 2.003906,-2.0039 4.6e-5,-1.1004 -0.903483,-2.0019 -2.003906,-2.0019 z m 0,1 c 0.559963,0 1.003929,0.442 1.003906,1.0019 2.3e-5,0.56 -0.443948,1.0039 -1.003906,1.0039 -0.559963,0 -1.003929,-0.4439 -1.003906,-1.0039 -2.3e-5,-0.5599 0.443948,-1.0019 1.003906,-1.0019 z"/><path style="color:#000000;font-style:normal;font-variant:normal;font-weight:normal;font-stretch:normal;font-size:medium;line-height:normal;font-family:sans-serif;font-variant-ligatures:normal;font-variant-position:normal;font-variant-caps:normal;font-variant-numeric:normal;font-variant-alternates:normal;font-feature-settings:normal;text-indent:0;text-align:start;text-decoration:none;text-decoration-line:none;text-decoration-style:solid;text-decoration-color:#000000;letter-spacing:normal;word-spacing:normal;text-transform:none;writing-mode:lr-tb;direction:ltr;text-orientation:mixed;dominant-baseline:auto;baseline-shift:baseline;text-anchor:start;white-space:normal;shape-padding:0;clip-rule:nonzero;display:inline;overflow:visible;visibility:visible;opacity:1;isolation:auto;mix-blend-mode:normal;color-interpolation:sRGB;color-interpolation-filters:linearRGB;solid-color:#000000;solid-opacity:1;vector-effect:none;fill:#000000;fill-opacity:1;fill-rule:evenodd;stroke:none;stroke-width:1;stroke-linecap:round;stroke-linejoin:round;stroke-miterlimit:4;stroke-dasharray:none;stroke-dashoffset:0;stroke-opacity:1;color-rendering:auto;image-rendering:auto;shape-rendering:auto;text-rendering:auto;enable-background:accumulate" d="m 19.875,1025.9775 c -0.959294,-0.3549 -2.038626,0.1444 -2.388672,1.1054 l -0.726562,1.9942 -0.363282,0.998 a 0.50005,0.50005 0 1 0 0.939454,0.3418 l 0.363281,-0.9961 0.726562,-1.9961 c 0.164454,-0.4515 0.650757,-0.6765 1.101563,-0.5097 l 0.287109,0.1074 c 0.939182,0.3475 1.67986,1.0864 2.027344,2.0254 l 0.105469,0.289 c 0.166733,0.4506 -0.05814,0.9371 -0.509766,1.1016 l -1.994141,0.7266 -0.998047,0.3632 a 0.50005,0.50005 0 1 0 0.341797,0.9395 l 0.998047,-0.3633 1.994141,-0.7265 c 0.961017,-0.3501 1.460396,-1.4295 1.105469,-2.3887 l -0.105469,-0.2871 c -0.448576,-1.2122 -1.404849,-2.1687 -2.617188,-2.6172 z"/><path style="color:#000000;font-style:normal;font-variant:normal;font-weight:normal;font-stretch:normal;font-size:medium;line-height:normal;font-family:sans-serif;font-variant-ligatures:normal;font-variant-position:normal;font-variant-caps:normal;font-variant-numeric:normal;font-variant-alternates:normal;font-feature-settings:normal;text-indent:0;text-align:start;text-decoration:none;text-decoration-line:none;text-decoration-style:solid;text-decoration-color:#000000;letter-spacing:normal;word-spacing:normal;text-transform:none;writing-mode:lr-tb;direction:ltr;text-orientation:mixed;dominant-baseline:auto;baseline-shift:baseline;text-anchor:start;white-space:normal;shape-padding:0;clip-rule:nonzero;display:inline;overflow:visible;visibility:visible;opacity:1;isolation:auto;mix-blend-mode:normal;color-interpolation:sRGB;color-interpolation-filters:linearRGB;solid-color:#000000;solid-opacity:1;vector-effect:none;fill:#000000;fill-opacity:1;fill-rule:evenodd;stroke:none;stroke-width:1;stroke-linecap:round;stroke-linejoin:round;stroke-miterlimit:4;stroke-dasharray:none;stroke-dashoffset:0;stroke-opacity:1;color-rendering:auto;image-rendering:auto;shape-rendering:auto;text-rendering:auto;enable-background:accumulate" d="m 12.125,1025.9775 -0.287109,0.1074 c -1.212329,0.4485 -2.168612,1.405 -2.6171879,2.6172 l -0.1054687,0.2871 c -0.3549285,0.9592 0.1444529,2.0386 1.1054686,2.3887 l 1.994141,0.7265 0.998047,0.3633 a 0.50005,0.50005 0 1 0 0.341797,-0.9395 l -0.998047,-0.3632 -1.994141,-0.7266 c -0.451624,-0.1645 -0.6764972,-0.651 -0.509766,-1.1016 l 0.105469,-0.289 c 0.347484,-0.939 1.088172,-1.6779 2.027344,-2.0254 l 0.287109,-0.1074 c 0.450806,-0.1668 0.937109,0.058 1.101563,0.5097 l 0.726562,1.9961 0.363281,0.9961 a 0.50005,0.50005 0 1 0 0.939454,-0.3418 l -0.363282,-0.998 -0.726562,-1.9942 c -0.350046,-0.961 -1.429378,-1.4603 -2.388672,-1.1054 z"/><path style="color:#000000;font-style:normal;font-variant:normal;font-weight:normal;font-stretch:normal;font-size:medium;line-height:normal;font-family:sans-serif;font-variant-ligatures:normal;font-variant-position:normal;font-variant-caps:normal;font-variant-numeric:normal;font-variant-alternates:normal;font-feature-settings:normal;text-indent:0;text-align:start;text-decoration:none;text-decoration-line:none;text-decoration-style:solid;text-decoration-color:#000000;letter-spacing:normal;word-spacing:normal;text-transform:none;writing-mode:lr-tb;direction:ltr;text-orientation:mixed;dominant-baseline:auto;baseline-shift:baseline;text-anchor:start;white-space:normal;shape-padding:0;clip-rule:nonzero;display:inline;overflow:visible;visibility:visible;opacity:1;isolation:auto;mix-blend-mode:normal;color-interpolation:sRGB;color-interpolation-filters:linearRGB;solid-color:#000000;solid-opacity:1;vector-effect:none;fill:#000000;fill-opacity:1;fill-rule:evenodd;stroke:none;stroke-width:1;stroke-linecap:round;stroke-linejoin:round;stroke-miterlimit:4;stroke-dasharray:none;stroke-dashoffset:0;stroke-opacity:1;color-rendering:auto;image-rendering:auto;shape-rendering:auto;text-rendering:auto;enable-background:accumulate" d="m 18.591797,1033.2275 a 0.50005,0.50005 0 0 0 -0.146485,0.9707 l 0.998047,0.3632 1.994141,0.7266 c 0.451623,0.1645 0.676499,0.651 0.509766,1.1016 l -0.105469,0.289 c -0.347484,0.939 -1.088162,1.678 -2.027344,2.0254 l -0.287109,0.1074 c -0.450806,0.1668 -0.937109,-0.058 -1.101563,-0.5097 l -0.726562,-1.9961 -0.363281,-0.9961 a 0.50005,0.50005 0 1 0 -0.939454,0.3418 l 0.363282,0.998 0.726562,1.9942 c 0.350046,0.9611 1.429378,1.4603 2.388672,1.1054 l 0.287109,-0.1074 c 1.212339,-0.4485 2.168612,-1.405 2.617188,-2.6172 l 0.105469,-0.2871 c 0.354927,-0.9592 -0.144452,-2.0386 -1.105469,-2.3886 l -1.994141,-0.7266 -0.998047,-0.3633 a 0.50005,0.50005 0 0 0 -0.195312,-0.031 z"/><path style="color:#000000;font-style:normal;font-variant:normal;font-weight:normal;font-stretch:normal;font-size:medium;line-height:normal;font-family:sans-serif;font-variant-ligatures:normal;font-variant-position:normal;font-variant-caps:normal;font-variant-numeric:normal;font-variant-alternates:normal;font-feature-settings:normal;text-indent:0;text-align:start;text-decoration:none;text-decoration-line:none;text-decoration-style:solid;text-decoration-color:#000000;letter-spacing:normal;word-spacing:normal;text-transform:none;writing-mode:lr-tb;direction:ltr;text-orientation:mixed;dominant-baseline:auto;baseline-shift:baseline;text-anchor:start;white-space:normal;shape-padding:0;clip-rule:nonzero;display:inline;overflow:visible;visibility:visible;opacity:1;isolation:auto;mix-blend-mode:normal;color-interpolation:sRGB;color-interpolation-filters:linearRGB;solid-color:#000000;solid-opacity:1;vector-effect:none;fill:#000000;fill-opacity:1;fill-rule:evenodd;stroke:none;stroke-width:1px;stroke-linecap:butt;stroke-linejoin:miter;stroke-miterlimit:4;stroke-dasharray:none;stroke-dashoffset:0;stroke-opacity:1;color-rendering:auto;image-rendering:auto;shape-rendering:auto;text-rendering:auto;enable-background:accumulate" d="m 15.5,1042.3622 v 4 h 1 v -4 z"/><path style="color:#000000;font-style:normal;font-variant:normal;font-weight:normal;font-stretch:normal;font-size:medium;line-height:normal;font-family:sans-serif;font-variant-ligatures:normal;font-variant-position:normal;font-variant-caps:normal;font-variant-numeric:normal;font-variant-alternates:normal;font-feature-settings:normal;text-indent:0;text-align:start;text-decoration:none;text-decoration-line:none;text-decoration-style:solid;text-decoration-color:#000000;letter-spacing:normal;word-spacing:normal;text-transform:none;writing-mode:lr-tb;direction:ltr;text-orientation:mixed;dominant-baseline:auto;baseline-shift:baseline;text-anchor:start;white-space:normal;shape-padding:0;clip-rule:nonzero;display:inline;overflow:visible;visibility:visible;opacity:1;isolation:auto;mix-blend-mode:normal;color-interpolation:sRGB;color-interpolation-filters:linearRGB;solid-color:#000000;solid-opacity:1;vector-effect:none;fill:#000000;fill-opacity:1;fill-rule:evenodd;stroke:none;stroke-width:1;stroke-linecap:round;stroke-linejoin:round;stroke-miterlimit:4;stroke-dasharray:none;stroke-dashoffset:0;stroke-opacity:1;color-rendering:auto;image-rendering:auto;shape-rendering:auto;text-rendering:auto;enable-background:accumulate" d="m 13.392578,1033.2255 a 0.50005,0.50005 0 0 0 -0.18164,0.033 l -0.996094,0.3633 -1.994141,0.7266 c -0.9610438,0.3501 -1.4602994,1.4293 -1.1054686,2.3886 l 0.1054687,0.2891 c 0.4487759,1.2116 1.4055609,2.1668 2.6171879,2.6152 l 0.289062,0.1074 c 0.959186,0.3549 2.036632,-0.1444 2.386719,-1.1054 l 0.726562,-1.9961 0.363282,-0.9961 a 0.50005,0.50005 0 1 0 -0.939454,-0.3418 l -0.363281,0.9961 -0.726562,1.9961 c -0.164513,0.4516 -0.650948,0.6765 -1.101563,0.5097 l -0.287109,-0.1074 c -0.939048,-0.3475 -1.679874,-1.0861 -2.027344,-2.0254 l -0.105469,-0.2871 c -0.1667689,-0.4509 0.05821,-0.9371 0.509766,-1.1016 l 1.994141,-0.7266 0.998047,-0.3632 a 0.50005,0.50005 0 0 0 -0.16211,-0.9727 z"/><path style="color:#000000;font-style:normal;font-variant:normal;font-weight:normal;font-stretch:normal;font-size:medium;line-height:normal;font-family:sans-serif;font-variant-ligatures:normal;font-variant-position:normal;font-variant-caps:normal;font-variant-numeric:normal;font-variant-alternates:normal;font-feature-settings:normal;text-indent:0;text-align:start;text-decoration:none;text-decoration-line:none;text-decoration-style:solid;text-decoration-color:#000000;letter-spacing:normal;word-spacing:normal;text-transform:none;writing-mode:lr-tb;direction:ltr;text-orientation:mixed;dominant-baseline:auto;baseline-shift:baseline;text-anchor:start;white-space:normal;shape-padding:0;clip-rule:nonzero;display:inline;overflow:visible;visibility:visible;opacity:1;isolation:auto;mix-blend-mode:normal;color-interpolation:sRGB;color-interpolation-filters:linearRGB;solid-color:#000000;solid-opacity:1;vector-effect:none;fill:#000000;fill-opacity:1;fill-rule:nonzero;stroke:none;stroke-width:1;stroke-linecap:butt;stroke-linejoin:round;stroke-miterlimit:4;stroke-dasharray:none;stroke-dashoffset:0;stroke-opacity:1;color-rendering:auto;image-rendering:auto;shape-rendering:auto;text-rendering:auto;enable-background:accumulate" d="m 9.5,1045.8622 c -0.8223514,0 -1.5,0.6777 -1.5,1.5 v 2.5 a 0.50005,0.50005 0 0 0 0.5,0.5 h 15 a 0.50005,0.50005 0 0 0 0.5,-0.5 v -2.5 c 0,-0.8223 -0.677649,-1.5 -1.5,-1.5 z m 0,1 h 13 c 0.285649,0 0.5,0.2144 0.5,0.5 v 2 H 9 v -2 c 0,-0.2856 0.2143514,-0.5 0.5,-0.5 z"/><path d="m 16.625,1048.1132 -0.625,-0.625 -0.625,0.625 0.625,0.625 z" style="" display="inline" fill="#000000" stroke="none"/></g></svg>
