<?xml version="1.0" encoding="utf-8"?>
<!-- Generator: Adobe Illustrator 21.0.0, SVG Export Plug-In . SVG Version: 6.00 Build 0)  -->
<svg version="1.1" id="Layer_1" xmlns="http://www.w3.org/2000/svg" xmlns:xlink="http://www.w3.org/1999/xlink" x="0px" y="0px"
	 viewBox="0 0 512 512" style="enable-background:new 0 0 512 512;" xml:space="preserve">
<g>
	<path d="M256,91.4c-127.2,0-256,31.4-256,91.4v146.3c0,60,128.8,91.4,256,91.4s256-31.4,256-91.4V182.9
		C512,122.8,383.2,91.4,256,91.4z M256,128c136.1,0,219.4,35.5,219.4,54.9c0,16.9-63.8,46.2-170.9,53.3c-15.3,1-31.5,1.6-48.5,1.6
		c-136.1,0-219.4-35.5-219.4-54.9S119.9,128,256,128z M36.6,232.4l3.6,1.8c4.1,2.3,8.4,4.4,13,6.5c1.8,0.8,3.6,1.6,5.5,2.4
		c6.3,2.6,12.9,5.2,20,7.5c14.9,4.8,31.5,8.8,49,12.1c5.3,1,10.7,1.8,16.2,2.7c15.5,2.5,31.6,4.5,48.1,5.9c21,1.8,42.4,3,64,3
		s42.9-1.2,64-3c16.6-1.4,32.6-3.4,48.1-5.9c5.5-0.9,10.9-1.7,16.2-2.7c17.5-3.4,34.2-7.3,49-12.1c7.1-2.3,13.7-4.8,20-7.5
		c1.9-0.8,3.7-1.6,5.5-2.4c4.6-2.1,8.9-4.2,13-6.5l3.6-1.8v96.8c0,19.3-83.3,54.9-219.4,54.9S36.6,348.5,36.6,329.1V232.4z"/>
</g>
</svg>
