<svg fill="#333333" xmlns="http://www.w3.org/2000/svg" xmlns:xlink="http://www.w3.org/1999/xlink" version="1.1" x="0px" y="0px" viewBox="0 0 90 90" style="enable-background:new 0 0 90 90;" xml:space="preserve"><path d="M33.6723633,34.3950195c-5.847168,0-10.6044922,4.7573242-10.6044922,10.6049805  s4.7573242,10.6049805,10.6044922,10.6049805c5.8476563,0,10.6054688-4.7573242,10.6054688-10.6049805  S39.5200195,34.3950195,33.6723633,34.3950195z M33.6723633,53.6049805c-4.7446289,0-8.6044922-3.8603516-8.6044922-8.6049805  s3.8598633-8.6049805,8.6044922-8.6049805c4.7451172,0,8.6054688,3.8603516,8.6054688,8.6049805  S38.4174805,53.6049805,33.6723633,53.6049805z"></path><path d="M33.6728516,38.9516602v2c2.2324219,0,4.0483398,1.815918,4.0483398,4.0483398h2  C39.7211914,41.6650391,37.0078125,38.9516602,33.6728516,38.9516602z"></path><path d="M72.8125,33.7275391H43.3516235c-2.6044922-2.239502-5.982605-3.6030273-9.678772-3.6030273  s-7.0742798,1.3635254-9.678772,3.6030273h-6.8060913c-2.309082,0-4.1879883,1.878418-4.1879883,4.1875v14.1699219  c0,2.2390137,1.7709351,4.0575562,3.9833984,4.1668091v3.6237183h10.387207V58.454834  c1.916748,0.9016724,4.0475464,1.4206543,6.3022461,1.4206543c3.696167,0,7.0742798-1.3635254,9.678772-3.6030273h19.2782593  v3.6030273h10.387207V56.25177C75.2294922,56.1425171,77,54.3239746,77,52.0849609V37.9150391  C77,35.605957,75.121582,33.7275391,72.8125,33.7275391z M15,52.0849609V37.9150391c0-1.2060547,0.9814453-2.1875,2.1879883-2.1875  h4.8726807C20.0238647,38.2730713,18.7973633,41.4940186,18.7973633,45s1.2265015,6.7269287,3.2633057,9.2724609h-4.8726807  C15.9814453,54.2724609,15,53.2910156,15,52.0849609z M25.3706055,57.8754883h-6.387207v-1.6030273h5.0078125  c0.0057373,0.0049438,0.0122681,0.0087891,0.0180054,0.0137329c0.4351196,0.3731079,0.8850098,0.7290649,1.3613892,1.0507202  V57.8754883z M33.6728516,57.8754883c-2.5101929,0-4.8473511-0.7332153-6.829834-1.9805298  c-0.2774658-0.1741333-0.548645-0.3613281-0.8138428-0.5579834c-0.0532227-0.0394287-0.1063843-0.0787354-0.1589355-0.1189575  c-0.2597656-0.1987915-0.5123291-0.407959-0.756897-0.6265259c-2.6411743-2.3596191-4.315979-5.77948-4.315979-9.5914917  c0-7.0996094,5.7758789-12.8754883,12.8754883-12.8754883S46.5483398,37.9003906,46.5483398,45  S40.7724609,57.8754883,33.6728516,57.8754883z M71.0170898,57.8754883h-6.387207v-1.6030273h6.387207V57.8754883z M75,52.0849609  c0,1.2060547-0.9814453,2.1875-2.1875,2.1875H62.6298828H45.2850342C47.3218384,51.7269287,48.5483398,48.5059814,48.5483398,45  s-1.2265015-6.7269287-3.2633057-9.2724609H72.8125c1.2060547,0,2.1875,0.9814453,2.1875,2.1875V52.0849609z"></path><rect x="52.0180664" y="39.9516602" width="2" height="9.5161133"></rect><rect x="57.2597656" y="39.9516602" width="2" height="9.5161133"></rect><rect x="62.5019531" y="39.9516602" width="2" height="9.5161133"></rect><rect x="67.7441406" y="39.9516602" width="2" height="9.5161133"></rect></svg>