<svg height="512" viewBox="0 0 512 512" width="512" xmlns="http://www.w3.org/2000/svg"><path d="m256 256a40 40 0 1 0 -40-40 40.045 40.045 0 0 0 40 40zm0-64a24 24 0 1 1 -24 24 24.028 24.028 0 0 1 24-24z"/><path d="m196.46 118.055c16.033 6.413 37.178 9.945 59.54 9.945s43.507-3.532 59.54-9.945c18.353-7.341 28.46-18.014 28.46-30.055s-10.107-22.714-28.46-30.055c-16.033-6.413-37.178-9.945-59.54-9.945s-43.507 3.532-59.54 9.945c-18.353 7.341-28.46 18.014-28.46 30.055s10.107 22.714 28.46 30.055zm59.54-54.055c43.952 0 72 14.214 72 24s-28.048 24-72 24-72-14.214-72-24 28.048-24 72-24z"/><path d="m152 416h16v16h-16z"/><path d="m184 416h16v16h-16z"/><path d="m216 416h16v16h-16z"/><path d="m248 416h16v16h-16z"/><path d="m280 416h16v16h-16z"/><path d="m312 416h16v16h-16z"/><path d="m344 416h16v16h-16z"/><path d="m152 384h16v16h-16z"/><path d="m184 384h16v16h-16z"/><path d="m216 384h16v16h-16z"/><path d="m248 384h16v16h-16z"/><path d="m280 384h16v16h-16z"/><path d="m312 384h16v16h-16z"/><path d="m344 384h16v16h-16z"/><path d="m152 352h16v16h-16z"/><path d="m184 352h16v16h-16z"/><path d="m216 352h16v16h-16z"/><path d="m248 352h16v16h-16z"/><path d="m280 352h16v16h-16z"/><path d="m312 352h16v16h-16z"/><path d="m344 352h16v16h-16z"/><path d="m152 320h16v16h-16z"/><path d="m184 320h16v16h-16z"/><path d="m216 320h16v16h-16z"/><path d="m248 320h16v16h-16z"/><path d="m280 320h16v16h-16z"/><path d="m312 320h16v16h-16z"/><path d="m344 320h16v16h-16z"/><path d="m152 288h16v16h-16z"/><path d="m184 288h16v16h-16z"/><path d="m216 288h16v16h-16z"/><path d="m248 288h16v16h-16z"/><path d="m280 288h16v16h-16z"/><path d="m312 288h16v16h-16z"/><path d="m344 288h16v16h-16z"/><path d="m128 456a40.045 40.045 0 0 0 40 40h176a40.045 40.045 0 0 0 40-40v-8.028a39.789 39.789 0 0 0 8-23.972v-368a40.045 40.045 0 0 0 -40-40h-192a40.045 40.045 0 0 0 -40 40v368a39.789 39.789 0 0 0 8 23.972zm8-304.022a39.788 39.788 0 0 0 24 8.022h192a39.788 39.788 0 0 0 24-8.022v272.022a24.027 24.027 0 0 1 -24 24h-192a24.027 24.027 0 0 1 -24-24zm208 328.022h-176a24.04 24.04 0 0 1 -23.5-19.127 39.8 39.8 0 0 0 15.5 3.127h192a39.8 39.8 0 0 0 15.5-3.127 24.04 24.04 0 0 1 -23.5 19.127zm-208-424a24.027 24.027 0 0 1 24-24h192a24.027 24.027 0 0 1 24 24v64a24.028 24.028 0 0 1 -24 24h-192a24.028 24.028 0 0 1 -24-24z"/><path d="m29.871 289.7a77.874 77.874 0 0 1 -12.271-12.9l12.8-9.6a61.923 61.923 0 0 0 9.754 10.239z"/><path d="m66.977 308.465a101.223 101.223 0 0 1 -19.5-7.293l7.14-14.32a85.047 85.047 0 0 0 16.418 6.136z"/><path d="m104 312h-9.352q-3.609 0-7.171-.23l1.046-15.97q3.042.2 6.125.2h9.352z"/><path d="m30.4 460.8-12.8-9.6a77.874 77.874 0 0 1 12.269-12.894l10.281 12.258a61.878 61.878 0 0 0 -9.75 10.236z"/><path d="m54.613 441.148-7.14-14.32a101.223 101.223 0 0 1 19.5-7.293l4.054 15.477a85.047 85.047 0 0 0 -16.414 6.136z"/><path d="m88.523 432.2-1.046-15.97q3.557-.234 7.171-.23h9.352v16h-9.352q-3.081 0-6.125.2z"/><path d="m38.445 346.8q-6.644-1.084-13.16-2.387l-2.851-.57 3.132-15.688 2.86.571q6.228 1.248 12.582 2.277z"/><path d="m71.2 350.723q-8.272-.645-16.418-1.625l1.9-15.883q7.821.932 15.761 1.555z"/><path d="m104 352q-8.18 0-16.309-.316l.625-15.985q7.81.3 15.684.3z"/><path d="m25.566 399.844-3.132-15.688 2.859-.57q6.5-1.307 13.152-2.387l2.563 15.801q-6.352 1.026-12.574 2.277z"/><path d="m56.684 394.785-1.9-15.883q8.139-.978 16.418-1.625l1.242 15.953q-7.932.622-15.76 1.555z"/><path d="m88.316 392.3-.625-15.985q8.127-.315 16.309-.315v16q-7.863 0-15.684.3z"/><path d="m482.129 289.7-10.281-12.257a61.881 61.881 0 0 0 9.752-10.243l12.8 9.6a77.874 77.874 0 0 1 -12.271 12.9z"/><path d="m445.023 308.465-4.054-15.477a85.047 85.047 0 0 0 16.418-6.136l7.14 14.32a101.223 101.223 0 0 1 -19.504 7.293z"/><path d="m417.352 312h-9.352v-16h9.352q3.081 0 6.125-.2l1.046 15.969q-3.556.231-7.171.231z"/><path d="m481.6 460.8a61.837 61.837 0 0 0 -9.754-10.238l10.281-12.258a77.874 77.874 0 0 1 12.273 12.896z"/><path d="m457.387 441.148a85.047 85.047 0 0 0 -16.418-6.136l4.054-15.477a101.223 101.223 0 0 1 19.5 7.293z"/><path d="m423.477 432.2q-3.042-.2-6.125-.2h-9.352v-16h9.352q3.609 0 7.171.23z"/><path d="m473.555 346.8-2.563-15.8q6.352-1.026 12.574-2.277l2.868-.571 3.132 15.688-2.859.57q-6.498 1.311-13.152 2.39z"/><path d="m440.8 350.723-1.242-15.953q7.933-.622 15.761-1.555l1.9 15.883q-8.143.978-16.419 1.625z"/><path d="m408 352v-16q7.863 0 15.684-.3l.625 15.985q-8.127.315-16.309.315z"/><path d="m486.434 399.844-2.86-.571q-6.228-1.248-12.582-2.277l2.563-15.8q6.643 1.084 13.16 2.387l2.851.57z"/><path d="m455.316 394.785q-7.821-.932-15.761-1.555l1.242-15.953q8.274.645 16.418 1.625z"/><path d="m423.684 392.3q-7.811-.3-15.684-.3v-16q8.179 0 16.309.316z"/></svg>