<svg height="477pt" viewBox="-6 0 477 477.614" width="477pt" xmlns="http://www.w3.org/2000/svg"><path d="m193.273438 104.925781c-.964844.96875-2.03125 1.777344-3.109376 2.535157l33.039063 47.9375 20.558594-20.558594-47.949219-33.027344c-.761719 1.082031-1.570312 2.144531-2.539062 3.113281zm0 0"/><path d="m32.308594 469.613281c0 4.417969 3.582031 8 8 8h384c4.414062 0 8-3.582031 8-8v-8h-400zm0 0"/><path d="m96.308594 365.613281h16v48h-16zm0 0"/><path d="m32.308594 365.613281h16v48h-16zm0 0"/><path d="m384.308594 277.613281c0 4.417969-3.582032 8-8 8-4.417969 0-8-3.582031-8-8s3.582031-8 8-8c4.417968 0 8 3.582031 8 8zm0 0"/><path d="m170.652344 82.300781c-3.121094 3.121094-3.121094 8.191407 0 11.3125 3.125 3.128907 8.183594 3.128907 11.3125 0 3.117187-3.121093 3.117187-8.191406 0-11.3125-1.5625-1.558593-3.609375-2.335937-5.65625-2.335937-2.050782 0-4.097656.777344-5.65625 2.335937zm0 0"/><path d="m240.308594 269.613281c32.054687 0 62.183594-12.488281 84.847656-35.152343 22.664062-22.664063 35.152344-52.789063 35.152344-84.847657 0-29.375-10.480469-57.136719-29.679688-79.007812l-169.328125 169.328125c21.871094 19.207031 49.628907 29.679687 79.007813 29.679687zm0-32c23.503906 0 45.605468-9.160156 62.222656-25.785156 16.617188-16.613281 25.777344-38.703125 25.777344-62.214844h16c0 27.785157-10.824219 53.898438-30.464844 73.527344-19.640625 19.648437-45.761719 30.472656-73.535156 30.472656-2.90625 0-5.792969-.121093-8.65625-.351562l1.3125-15.953125c2.429687.210937 4.871094.304687 7.34375.304687zm0 0"/><path d="m311.417969 265.421875 41.472656 41.472656c6.824219 6.824219 16.257813 10.726563 25.886719 10.726563h.914062c20.183594 0 36.609375-16.421875 36.609375-36.605469 0-10.113281-4.242187-19.867187-11.632812-26.769531l-44.066407-41.121094c-6.285156 11.882812-14.367187 22.890625-24.140624 32.664062-7.625 7.625-16.074219 14.105469-25.042969 19.632813zm64.890625-11.808594c13.230468 0 24 10.769531 24 24 0 13.234375-10.769532 24-24 24-13.234375 0-24-10.765625-24-24 0-13.230469 10.765625-24 24-24zm0 0"/><path d="m456.308594 333.613281h-448c-4.417969 0-8 3.585938-8 8v96c0 4.417969 3.582031 8 8 8h448c4.414062 0 8-3.582031 8-8v-96c0-4.40625-3.585938-8-8-8zm-392 96h-48v-80h48zm64 0h-48v-80h48zm32 0h-16v-16h16zm0-32h-16v-16h16zm0-32h-16v-16h16zm160 64h-144v-80h144zm32 0h-16v-16h16zm0-32h-16v-16h16zm0-32h-16v-16h16zm56 64c-22.058594 0-40-17.941406-40-40 0-22.054687 17.941406-40 40-40 22.054687 0 40 17.945313 40 40 0 22.058594-17.945313 40-40 40zm0 0"/><path d="m192.308594 365.613281h112v48h-112zm0 0"/><path d="m408.308594 365.613281c-13.234375 0-24 10.769531-24 24 0 10.417969 6.710937 19.214844 16 22.527344v-30.527344h16v30.527344c9.285156-3.3125 16-12.109375 16-22.527344 0-13.230469-10.769532-24-24-24zm0 0"/><path d="m204.585938 59.671875 11.3125-11.3125c-21.832032-21.832031-57.359376-21.832031-79.183594 0-10.574219 10.574219-16.40625 24.636719-16.40625 39.597656 0 14.960938 5.832031 29.023438 16.40625 39.59375l11.3125-11.3125c-7.550782-7.550781-11.71875-17.601562-11.71875-28.28125 0-10.6875 4.167968-20.734375 11.71875-28.285156 15.589844-15.59375 40.96875-15.59375 56.558594 0zm0 0"/><path d="m125.394531 138.878906c-28.070312-28.082031-28.070312-73.753906 0-101.832031 28.082031-28.082031 73.753907-28.082031 101.832031 0l11.3125-11.3125c-34.3125-34.3125-90.144531-34.3125-124.457031 0s-34.3125 90.144531 0 124.457031zm0 0"/></svg>