<svg height="512" viewBox="0 0 60 60" width="512" xmlns="http://www.w3.org/2000/svg"><g id="009---Remote-Control" transform="translate(0 -1)"><path id="Shape" d="m23.5 58.84 27.57-27.58c1.9519097-1.9524993 1.9519097-5.1175007 0-7.07l-14.14-14.14c-1.9524993-1.95190969-5.1175007-1.95190969-7.07 0l-27.58 27.58c-1.94 1.94-2.61 4.9-1.87 8.31 2.38 10.94 16.8 19.19 23.09 12.9zm7.77-47.38c.5629056-.5648636 1.3275456-.8823657 2.125-.8823657s1.5620944.3175021 2.125.8823657l14.14 14.14c.5648636.5629056.8823657 1.3275456.8823657 2.125s-.3175021 1.5620944-.8823657 2.125l-27.58 27.57c-5 5-17.64-2.34-19.71-11.9-.59-2.73-.12-5 1.33-6.48z"/><path id="Shape" d="m33.4 19.41c1.3571296-.0033337 2.5430001-.9173416 2.8918348-2.2288774s-.2262563-2.6939142-1.4024027-3.3710339c-1.1761465-.6771198-2.6603869-.4803199-3.6194321.4799113-.858173.8592343-1.113691 2.1510836-.6472397 3.2723185.4664512 1.1212349 1.5628528 1.8506645 2.7772397 1.8476815zm-.71-3.7c.3900375-.3877236 1.0199625-.3877236 1.41 0 .1893127.1877666.2957983.4433625.2957983.71s-.1064856.5222334-.2957983.71c-.2443899.2853762-.6281184.4096819-.993419.3218101-.3653005-.0878718-.6505193-.3730906-.7383911-.7383911-.0878718-.3653006.0364339-.7490291.3218101-.993419z"/><path id="Shape" d="m44.71 30.73c1.2169725.0030036 2.3151845-.7294885 2.7799811-1.8542086s.2040757-2.4187984-.6599811-3.2757914c-1.1884135-1.1276288-3.0515865-1.1276288-4.24 0-.8640568.856993-1.1247777 2.1510713-.6599811 3.2757914s1.5630086 1.8572122 2.7799811 1.8542086zm-.71-3.73c.1877666-.1893127.4433625-.2957983.71-.2957983s.5222334.1064856.71.2957983c.3877236.3900375.3877236 1.0199625 0 1.41-.1877666.1893127-.4433625.2957983-.71.2957983s-.5222334-.1064856-.71-.2957983c-.3877236-.3900375-.3877236-1.0199625 0-1.41z"/><path id="Shape" d="m32.69 32.43c1.8097562-.0014242 3.3930995-1.2177832 3.8609063-2.9660328.4678067-1.7482495-.2964804-3.5928011-1.8636773-4.4978499-1.5671968-.9050489-3.5468255-.645096-4.827229.6338827-1.1453208 1.1440463-1.4881603 2.8656305-.8684897 4.3611605.6196705 1.49553 2.079663 2.4701135 3.6984897 2.4688395zm-1.42-5.43c.781278-.7804093 2.0472035-.7799399 2.8279024.0010487.780699.7809885.780699 2.0469141 0 2.8279026-.7806989.7809886-2.0466244.781458-2.8279024.0010487-.3755541-.3751365-.5865733-.8841815-.5865733-1.415s.2110192-1.0398635.5865733-1.415z"/><path id="Shape" d="m32.69 36.43c3.6187545-.0119162 6.7788843-2.451587 7.7064134-5.9494743.927529-3.4978873-.6085439-7.1828425-3.745926-8.9862723-3.1373821-1.8034299-7.0947086-1.2761903-9.6504874 1.2857466-2.2873782 2.2928895-2.9666142 5.7387064-1.7204782 8.7281188s4.171755 4.932546 7.4104782 4.9218812zm-4.24-12.24c1.9198379-1.9222264 4.8917078-2.3146037 7.2446473-.9565138 2.3529395 1.3580898 3.4997375 4.1277152 2.7955959 6.7516277-.7041417 2.6239125-3.083494 4.4472757-5.8002432 4.4448861-2.4251332-.0021331-4.6105261-1.4639604-5.5382958-3.7046119-.9277698-2.2406515-.4154666-4.8194935 1.2982958-6.5353881z"/><path id="Shape" d="m19.25 28.73h1.83v1.82c0 .5522847.4477153 1 1 1s1-.4477153 1-1v-2.82c0-.5522847-.4477153-1-1-1h-2.83c-.5522847 0-1 .4477153-1 1s.4477153 1 1 1z"/><path id="Shape" d="m17.13 33.68h2.87c.5522847 0 1-.4477153 1-1s-.4477153-1-1-1h-1.87v-1.83c0-.5522847-.4477153-1-1-1s-1 .4477153-1 1v2.83c0 .5522847.4477153 1 1 1z"/><path id="Shape" d="m33.4 38h-2.83c-.5522847 0-1 .4477153-1 1s.4477153 1 1 1h1.83v1.83c0 .5522847.4477153 1 1 1s1-.4477153 1-1v-2.83c0-.5522847-.4477153-1-1-1z"/><path id="Shape" d="m31.27 43h-1.82v-1.84c0-.5522847-.4477153-1-1-1s-1 .4477153-1 1v2.84c0 .5522847.4477153 1 1 1h2.82c.5522847 0 1-.4477153 1-1s-.4477153-1-1-1z"/><path id="Shape" d="m15.72 38.33c.2443899.2853762.6281184.4096819.993419.3218101.3653005-.0878718.6505193-.3730906.7383911-.7383911.0878718-.3653006-.0364339-.7490291-.3218101-.993419l-2.83-2.83c-.3967603-.3397768-.9881942-.3169323-1.3575632.0524368-.3693691.369369-.3922136.9608029-.0524368 1.3575632z"/><path id="Shape" d="m21.38 43.58c.4044441-.0016958.7680455-.2468472.9212679-.6211476s.0658935-.8040433-.2212679-1.0888524l-2.83-2.87c-.3967603-.3397768-.9881942-.3169323-1.3575632.0524368-.3693691.369369-.3922136.9608029-.0524368 1.3575632l2.83 2.83c.1802283.2056378.4368023.3285042.71.34z"/><path id="Shape" d="m22.79 45.4 2.83 2.83c.1887188.1871865.444197.2915368.71.29.4000752-.0056201.7582884-.2491743.910632-.6191515.1523435-.3699773.0694877-.7951482-.210632-1.0808485l-2.83-2.82c-.2443899-.2853762-.6281184-.4096819-.993419-.3218101-.3653005.0878718-.6505193.3730906-.7383911.7383911-.0878718.3653006.0364339.7490291.3218101.993419z"/><path id="Shape" d="m12.89 41.16c.2443899.2853762.6281184.4096819.993419.3218101.3653005-.0878718.6505193-.3730906.7383911-.7383911.0878718-.3653006-.0364339-.7490291-.3218101-.993419l-2.82-2.83c-.1877666-.1893127-.4433625-.2957983-.71-.2957983s-.5222334.1064856-.71.2957983c-.38772359.3900375-.38772359 1.0199625 0 1.41z"/><path id="Shape" d="m15 41.87c-.3877236.3900375-.3877236 1.0199625 0 1.41l2.83 2.83c.2443899.2853762.6281184.4096819.993419.3218101.3653005-.0878718.6505193-.3730906.7383911-.7383911.0878718-.3653006-.0364339-.7490291-.3218101-.993419l-2.82-2.83c-.1877666-.1893127-.4433625-.2957983-.71-.2957983s-.5222334.1064856-.71.2957983z"/><path id="Shape" d="m21.38 46.82c-.1877666-.1893127-.4433625-.2957983-.71-.2957983s-.5222334.1064856-.71.2957983c-.3877236.3900375-.3877236 1.0199625 0 1.41l2.83 2.83c.1887188.1871865.444197.2915368.71.29.4000752-.0056201.7582884-.2491743.910632-.6191515.1523435-.3699773.0694877-.7951482-.210632-1.0808485z"/><path id="Shape" d="m10.06 44c.1877666.1893127.4433625.2957983.71.2957983s.5222334-.1064856.71-.2957983c.3877236-.3900375.3877236-1.0199625 0-1.41l-2.83-2.84c-.1877666-.1893127-.44336246-.2957983-.71-.2957983s-.5222334.1064856-.71.2957983c-.38772359.3900375-.38772359 1.0199625 0 1.41z"/><path id="Shape" d="m13.6 44.7c-.1877666-.1893127-.4433625-.2957983-.71-.2957983s-.5222334.1064856-.71.2957983c-.3877236.3900375-.3877236 1.0199625 0 1.41l2.82 2.83c.1887188.1871865.444197.2915368.71.29.4062651.0023626.77358-.2413038.929371-.6165185.1557909-.3752147.0690889-.807391-.219371-1.0934815z"/><path id="Shape" d="m18.55 49.65c-.1877666-.1893127-.4433625-.2957983-.71-.2957983s-.5222334.1064856-.71.2957983c-.3877236.3900375-.3877236 1.0199625 0 1.41l2.87 2.83c.1887188.1871865.444197.2915368.71.29.4062651.0023626.77358-.2413038.929371-.6165185.1557909-.3752147.0690889-.807391-.219371-1.0934815z"/><path id="Shape" d="m43.14 3.15c4.0515001-.5796025 8.1393978.78258141 11.0334082 3.6765918 2.8940104 2.8940104 4.2561943 6.9819081 3.6765918 11.0334082-.0500172.3572656.0943639.7140765.3787564.9360254.2843925.221949.6655904.2753167 1.0000001.1400001.3344096-.1353167.5712263-.4387599.6212435-.7960255.6802833-4.6844504-.8905345-9.41516035-4.2376871-12.76231295s-8.0778625-4.91797039-12.7623129-4.23768705c-.2686189.03675768-.5107999.18101056-.6710499.39970478-.1602501.21869422-.2248329.49308367-.1789501.76029522.0370607.26454827.1784268.50327149.3925821.66294867.2141553.15967719.4832953.22703307.7474179.18705133z"/><path id="Shape" d="m54.74 18.42c.5467395.0772331 1.0526029-.3032837 1.13-.85.4874862-3.4257133-.6653662-6.8811372-3.1121145-9.32788552-2.4467483-2.44674829-5.9021722-3.59960065-9.3278855-3.11211448-.5467163.07739707-.9272331.58326047-.85 1.13.0773971.54671633.5832605.92723305 1.13.85 2.8035074-.39962559 5.6316086.54355569 7.6340265 2.54597352 2.0024178 2.00241788 2.9455991 4.83051908 2.5459735 7.63402648-.0772331.5467395.3032837 1.0526029.85 1.13z"/><path id="Shape" d="m50.78 17.86c.2640752.0369393.5319667-.033117.7441518-.1946029.212185-.161486.3510888-.4010262.3858482-.6653971.3075176-2.1777208-.4263292-4.3733541-1.9814876-5.9285124-1.5551583-1.5551584-3.7507916-2.28900521-5.9285124-1.9814876-.5467163.07739707-.9272331.58326047-.85 1.13.0773971.5467163.5832605.9272331 1.13.85 1.5590957-.2239083 3.1325542.2999295 4.2463124 1.4136876 1.1137581 1.1137582 1.6375959 2.6872167 1.4136876 4.2463124-.0775603.5433631.2973364 1.0476883.84 1.13z"/></g></svg>