<?xml version="1.0" encoding="UTF-8"?>
<svg width="960px" height="960px" viewBox="0 0 960 960" version="1.1" xmlns="http://www.w3.org/2000/svg" xmlns:xlink="http://www.w3.org/1999/xlink">
    <title>mi-airpurifier-3h</title>
    <g id="mi-airpurifier-3h" stroke="none" stroke-width="1" fill="none" fill-rule="evenodd">
        <path d="M456.439928,7.80574744 L684.947187,58.7037467 C712.038444,64.7380878 731.45497,88.5659121 731.894857,116.317596 L743.672762,859.364368 C743.974357,878.391482 732.618002,895.148609 715.866371,902.353342 C711.164611,915.516719 697.931736,924.262757 683.415672,922.728611 L680.407,922.414576 C653.961918,919.690064 631.002455,918.276257 611.569787,918.158002 L531.144839,929.036171 L528.056457,929.851428 L524.961245,930.682919 C507.242084,935.482635 486.470058,941.777238 462.680837,949.564837 C433.288551,959.185932 401.22963,956.104514 374.222762,941.092724 L372.401921,940.066557 C363.036246,934.781788 354.371771,930.247924 346.420456,926.46489 L304.286607,911.995871 C292.643298,909.946628 280.770618,909.550461 268.638842,910.80684 C267.812521,910.892365 266.98235,910.935224 266.151637,910.935224 C253.335118,910.935224 242.850298,900.952033 242.049196,888.33767 C229.933568,879.460554 222.417129,865.190417 222.417129,849.613918 L222.417129,133.624974 C222.417129,116.301994 231.383684,100.213268 246.116471,91.1011527 L352.360234,25.3901988 C383.430324,6.17358574 420.781229,-0.136916799 456.439928,7.80574744 Z M408.110235,46.0704369 L408.110235,902.553135 C415.867121,903.331084 423.714579,903.201969 431.492404,902.150009 L698.482724,866.039278 C701.494438,865.63194 703.725953,863.037076 703.680011,859.998322 L691.899881,116.951549 C691.753252,107.700988 685.281077,99.7583798 676.250658,97.7469327 L447.743399,46.8489335 C434.593412,43.9198885 421.121242,43.7045263 408.110235,46.0704369 Z M388.110844,51.913224 C383.041155,53.9889628 378.119546,56.4907232 373.40076,59.4092559 L267.156997,125.12021 C264.21044,126.942633 262.417129,130.160378 262.417129,133.624974 L262.417129,849.613918 C262.417129,853.030759 264.587197,856.070441 267.818797,857.180203 L385.610175,897.630854 C386.440622,897.916038 387.274177,898.190063 388.110844,898.452908 L388.110844,51.913224 Z M439,864 C442.313708,864 445,867.581722 445,872 C445,876.418278 442.313708,880 439,880 C435.686292,880 433,876.418278 433,872 C433,867.581722 435.686292,864 439,864 Z M364,860.305927 C366.761424,860.305927 369,863.819165 369,868.152964 C369,872.486762 366.761424,876 364,876 C361.238576,876 359,872.486762 359,868.152964 C359,863.819165 361.238576,860.305927 364,860.305927 Z M487,858.305927 C490.313708,858.305927 493,861.819165 493,866.152964 C493,870.486762 490.313708,874 487,874 C483.686292,874 481,870.486762 481,866.152964 C481,861.819165 483.686292,858.305927 487,858.305927 Z M535,853.581262 C538.313708,853.581262 541,857.032864 541,861.290631 C541,865.548398 538.313708,869 535,869 C531.686292,869 529,865.548398 529,861.290631 C529,857.032864 531.686292,853.581262 535,853.581262 Z M324,848.301205 C326.761424,848.301205 329,851.591642 329,855.650602 C329,859.709563 326.761424,863 324,863 C321.238576,863 319,859.709563 319,855.650602 C319,851.591642 321.238576,848.301205 324,848.301205 Z M583,847.917782 C586.313708,847.917782 589,851.294052 589,855.458891 C589,859.623731 586.313708,863 583,863 C579.686292,863 577,859.623731 577,855.458891 C577,851.294052 579.686292,847.917782 583,847.917782 Z M463,845.458891 C466.313708,845.458891 469,849.006371 469,853.382409 C469,857.758447 466.313708,861.305927 463,861.305927 C459.686292,861.305927 457,857.758447 457,853.382409 C457,849.006371 459.686292,845.458891 463,845.458891 Z M631,841.254302 C634.313708,841.254302 637,844.555239 637,848.627151 C637,852.699063 634.313708,856 631,856 C627.686292,856 625,852.699063 625,848.627151 C625,844.555239 627.686292,841.254302 631,841.254302 Z M344,839.919765 C346.761424,839.919765 349,843.431395 349,847.763209 C349,852.095024 346.761424,855.606654 344,855.606654 C341.238576,855.606654 339,852.095024 339,847.763209 C339,843.431395 341.238576,839.919765 344,839.919765 Z M511,839.468451 C514.313708,839.468451 517,842.940599 517,847.223709 C517,851.50682 514.313708,854.978967 511,854.978967 C507.686292,854.978967 505,851.50682 505,847.223709 C505,842.940599 507.686292,839.468451 511,839.468451 Z M559,835.386233 C562.313708,835.386233 565,838.789896 565,842.988528 C565,847.187159 562.313708,850.590822 559,850.590822 C555.686292,850.590822 553,847.187159 553,842.988528 C553,838.789896 555.686292,835.386233 559,835.386233 Z M284,835.316456 C286.761424,835.316456 289,838.603479 289,842.658228 C289,846.712977 286.761424,850 284,850 C281.238576,850 279,846.712977 279,842.658228 C279,838.603479 281.238576,835.316456 284,835.316456 Z M679,835.560229 C682.313708,835.560229 685,838.792682 685,842.780115 C685,846.767547 682.313708,850 679,850 C675.686292,850 673,846.767547 673,842.780115 C673,838.792682 675.686292,835.560229 679,835.560229 Z M439,832 C442.313708,832 445,835.581722 445,840 C445,844.418278 442.313708,848 439,848 C435.686292,848 433,844.418278 433,840 C433,835.581722 435.686292,832 439,832 Z M607,831.212237 C610.313708,831.212237 613,834.554265 613,838.676864 C613,842.799464 610.313708,846.141491 607,846.141491 C603.686292,846.141491 601,842.799464 601,838.676864 C601,834.554265 603.686292,831.212237 607,831.212237 Z M364,828.917782 C366.761424,828.917782 369,832.43102 369,836.764818 C369,841.098617 366.761424,844.611855 364,844.611855 C361.238576,844.611855 359,841.098617 359,836.764818 C359,832.43102 361.238576,828.917782 364,828.917782 Z M304,827.925926 C306.761424,827.925926 309,831.214698 309,835.271605 C309,839.328511 306.761424,842.617284 304,842.617284 C301.238576,842.617284 299,839.328511 299,835.271605 C299,831.214698 301.238576,827.925926 304,827.925926 Z M487,826.917782 C490.313708,826.917782 493,830.43102 493,834.764818 C493,839.098617 490.313708,842.611855 487,842.611855 C483.686292,842.611855 481,839.098617 481,834.764818 C481,830.43102 483.686292,826.917782 487,826.917782 Z M655,825.221797 C658.313708,825.221797 661,828.488492 661,832.518164 C661,836.547837 658.313708,839.814532 655,839.814532 C651.686292,839.814532 649,836.547837 649,832.518164 C649,828.488492 651.686292,825.221797 655,825.221797 Z M535,822.743786 C538.313708,822.743786 541,826.195388 541,830.453155 C541,834.710922 538.313708,838.162524 535,838.162524 C531.686292,838.162524 529,834.710922 529,830.453155 C529,826.195388 531.686292,822.743786 535,822.743786 Z M583,817.753346 C586.313708,817.753346 589,821.129616 589,825.294455 C589,829.459295 586.313708,832.835564 583,832.835564 C579.686292,832.835564 577,829.459295 577,825.294455 C577,821.129616 579.686292,817.753346 583,817.753346 Z M324,817.923695 C326.761424,817.923695 329,821.214132 329,825.273092 C329,829.332053 326.761424,832.62249 324,832.62249 C321.238576,832.62249 319,829.332053 319,825.273092 C319,821.214132 321.238576,817.923695 324,817.923695 Z M463,813.764818 C466.313708,813.764818 469,817.312298 469,821.688337 C469,826.064375 466.313708,829.611855 463,829.611855 C459.686292,829.611855 457,826.064375 457,821.688337 C457,817.312298 459.686292,813.764818 463,813.764818 Z M631,811.762906 C634.313708,811.762906 637,815.063843 637,819.135755 C637,823.207667 634.313708,826.508604 631,826.508604 C627.686292,826.508604 625,823.207667 625,819.135755 C625,815.063843 627.686292,811.762906 631,811.762906 Z M344,809.526419 C346.761424,809.526419 349,813.038048 349,817.369863 C349,821.701678 346.761424,825.213307 344,825.213307 C341.238576,825.213307 339,821.701678 339,817.369863 C339,813.038048 341.238576,809.526419 344,809.526419 Z M511,808.447419 C514.313708,808.447419 517,811.919566 517,816.202677 C517,820.485788 514.313708,823.957935 511,823.957935 C507.686292,823.957935 505,820.485788 505,816.202677 C505,811.919566 507.686292,808.447419 511,808.447419 Z M284,806.92827 C286.761424,806.92827 289,810.215293 289,814.270042 C289,818.324791 286.761424,821.611814 284,821.611814 C281.238576,821.611814 279,818.324791 279,814.270042 C279,810.215293 281.238576,806.92827 284,806.92827 Z M679,806.680688 C682.313708,806.680688 685,809.913141 685,813.900574 C685,817.888006 682.313708,821.120459 679,821.120459 C675.686292,821.120459 673,817.888006 673,813.900574 C673,809.913141 675.686292,806.680688 679,806.680688 Z M559,804.977055 C562.313708,804.977055 565,808.380719 565,812.57935 C565,816.777981 562.313708,820.181644 559,820.181644 C555.686292,820.181644 553,816.777981 553,812.57935 C553,808.380719 555.686292,804.977055 559,804.977055 Z M607,801.353728 C610.313708,801.353728 613,804.695756 613,808.818356 C613,812.940955 610.313708,816.282983 607,816.282983 C603.686292,816.282983 601,812.940955 601,808.818356 C601,804.695756 603.686292,801.353728 607,801.353728 Z M439,800 C442.313708,800 445,803.581722 445,808 C445,812.418278 442.313708,816 439,816 C435.686292,816 433,812.418278 433,808 C433,803.581722 435.686292,800 439,800 Z M304,799.522634 C306.761424,799.522634 309,802.811406 309,806.868313 C309,810.925219 306.761424,814.213992 304,814.213992 C301.238576,814.213992 299,810.925219 299,806.868313 C299,802.811406 301.238576,799.522634 304,799.522634 Z M364,797.529637 C366.761424,797.529637 369,801.042875 369,805.376673 C369,809.710472 366.761424,813.223709 364,813.223709 C361.238576,813.223709 359,809.710472 359,805.376673 C359,801.042875 361.238576,797.529637 364,797.529637 Z M487,795.529637 C490.313708,795.529637 493,799.042875 493,803.376673 C493,807.710472 490.313708,811.223709 487,811.223709 C483.686292,811.223709 481,807.710472 481,803.376673 C481,799.042875 483.686292,795.529637 487,795.529637 Z M655,796.036329 C658.313708,796.036329 661,799.303024 661,803.332696 C661,807.362368 658.313708,810.629063 655,810.629063 C651.686292,810.629063 649,807.362368 649,803.332696 C649,799.303024 651.686292,796.036329 655,796.036329 Z M535,791.90631 C538.313708,791.90631 541,795.357912 541,799.615679 C541,803.873446 538.313708,807.325048 535,807.325048 C531.686292,807.325048 529,803.873446 529,799.615679 C529,795.357912 531.686292,791.90631 535,791.90631 Z M324,788.526104 C326.761424,788.526104 329,791.816542 329,795.875502 C329,799.934462 326.761424,803.2249 324,803.2249 C321.238576,803.2249 319,799.934462 319,795.875502 C319,791.816542 321.238576,788.526104 324,788.526104 Z M583,787.58891 C586.313708,787.58891 589,790.96518 589,795.130019 C589,799.294859 586.313708,802.671128 583,802.671128 C579.686292,802.671128 577,799.294859 577,795.130019 C577,790.96518 579.686292,787.58891 583,787.58891 Z M463,782.070746 L463.206271,782.07534 C466.424471,782.218917 469,785.709393 469,789.994264 C469,794.370302 466.313708,797.917782 463,797.917782 C459.686292,797.917782 457,794.370302 457,789.994264 C457,785.618226 459.686292,782.070746 463,782.070746 Z M631,782.271511 C634.313708,782.271511 637,785.572447 637,789.644359 C637,793.716272 634.313708,797.017208 631,797.017208 C627.686292,797.017208 625,793.716272 625,789.644359 C625,785.572447 627.686292,782.271511 631,782.271511 Z M344,778.152642 L344.175534,778.157385 C346.855669,778.302444 349,781.756438 349,785.996086 C349,790.327901 346.761424,793.83953 344,793.83953 C341.238576,793.83953 339,790.327901 339,785.996086 C339,781.664271 341.238576,778.152642 344,778.152642 Z M284,778.540084 C286.761424,778.540084 289,781.827108 289,785.881857 C289,789.936605 286.761424,793.223629 284,793.223629 C281.238576,793.223629 279,789.936605 279,785.881857 C279,781.827108 281.238576,778.540084 284,778.540084 Z M511,777.426386 L511.206271,777.430883 C514.424471,777.571411 517,780.987765 517,785.181644 C517,789.464755 514.313708,792.936902 511,792.936902 C507.686292,792.936902 505,789.464755 505,785.181644 C505,780.898534 507.686292,777.426386 511,777.426386 Z M679,777.801147 C682.313708,777.801147 685,781.0336 685,785.021033 C685,789.008465 682.313708,792.240918 679,792.240918 C675.686292,792.240918 673,789.008465 673,785.021033 C673,781.0336 675.686292,777.801147 679,777.801147 Z M559,774.567878 L559.206271,774.572286 C562.424471,774.710042 565,778.059012 565,782.170172 C565,786.368803 562.313708,789.772467 559,789.772467 C555.686292,789.772467 553,786.368803 553,782.170172 C553,777.971541 555.686292,774.567878 559,774.567878 Z M607,771.49522 L607.210641,771.499734 C610.426803,771.637787 613,774.924962 613,778.959847 C613,783.082447 610.313708,786.424474 607,786.424474 C603.686292,786.424474 601,783.082447 601,778.959847 C601,774.837247 603.686292,771.49522 607,771.49522 Z M304,770.139918 L304.183301,770.144762 C306.859811,770.286465 309,773.518844 309,777.485597 C309,781.542503 306.761424,784.831276 304,784.831276 C301.238576,784.831276 299,781.542503 299,777.485597 C299,773.42869 301.238576,770.139918 304,770.139918 Z M439,768 L439.202079,768.004452 C442.422234,768.146541 445,771.671891 445,776 C445,780.418278 442.313708,784 439,784 C435.686292,784 433,780.418278 433,776 C433,771.581722 435.686292,768 439,768 Z M364,766.141491 L364.175534,766.146237 C366.855669,766.291362 369,769.746938 369,773.988528 C369,778.322326 366.761424,781.835564 364,781.835564 C361.238576,781.835564 359,778.322326 359,773.988528 C359,769.654729 361.238576,766.141491 364,766.141491 Z M655,766.85086 L655.210641,766.855273 C658.426803,766.990214 661,770.203293 661,774.147228 C661,778.1769 658.313708,781.443595 655,781.443595 C651.686292,781.443595 649,778.1769 649,774.147228 C649,770.117555 651.686292,766.85086 655,766.85086 Z M487,764.141491 L487.206271,764.146042 C490.424471,764.288232 493,767.745017 493,771.988528 C493,776.322326 490.313708,779.835564 487,779.835564 C483.686292,779.835564 481,776.322326 481,771.988528 C481,767.654729 483.686292,764.141491 487,764.141491 Z M535,761.068834 L535.206271,761.073304 C538.424471,761.213 541,764.609139 541,768.778203 C541,773.03597 538.313708,776.487572 535,776.487572 C531.686292,776.487572 529,773.03597 529,768.778203 C529,764.520436 531.686292,761.068834 535,761.068834 Z M324,758.148594 L324.183301,758.153441 C326.859811,758.295216 329,761.529231 329,765.497992 C329,769.556952 326.761424,772.84739 324,772.84739 C321.238576,772.84739 319,769.556952 319,765.497992 C319,761.439032 321.238576,758.148594 324,758.148594 Z M583,757.424474 L583.206271,757.428847 C586.424471,757.565494 589,760.887511 589,764.965583 C589,769.130423 586.313708,772.506692 583,772.506692 C579.686292,772.506692 577,769.130423 577,764.965583 C577,760.800744 579.686292,757.424474 583,757.424474 Z M631,752.780115 L631.210641,752.784573 C634.426803,752.920929 637,756.167688 637,760.152964 C637,764.224876 634.313708,767.525813 631,767.525813 C627.686292,767.525813 625,764.224876 625,760.152964 C625,756.081052 627.686292,752.780115 631,752.780115 Z M463,750.376673 L463.206271,750.381268 C466.424471,750.524844 469,754.01532 469,758.300191 C469,762.676229 466.313708,766.223709 463,766.223709 C459.686292,766.223709 457,762.676229 457,758.300191 C457,753.924153 459.686292,750.376673 463,750.376673 Z M284,750.151899 L284.183301,750.156741 C286.859811,750.298368 289,753.529028 289,757.493671 C289,761.54842 286.761424,764.835443 284,764.835443 C281.238576,764.835443 279,761.54842 279,757.493671 C279,753.438922 281.238576,750.151899 284,750.151899 Z M344,747.759295 L344.175534,747.764039 C346.855669,747.909098 349,751.363091 349,755.60274 C349,759.934554 346.761424,763.446184 344,763.446184 C341.238576,763.446184 339,759.934554 339,755.60274 C339,751.270925 341.238576,747.759295 344,747.759295 Z M679,748.921606 L679.210641,748.925972 C682.426803,749.059499 685,752.238898 685,756.141491 C685,760.128924 682.313708,763.361377 679,763.361377 C675.686292,763.361377 673,760.128924 673,756.141491 C673,752.154059 675.686292,748.921606 679,748.921606 Z M511,746.405354 L511.206271,746.409851 C514.424471,746.550379 517,749.966733 517,754.160612 C517,758.443723 514.313708,761.91587 511,761.91587 C507.686292,761.91587 505,758.443723 505,754.160612 C505,749.877501 507.686292,746.405354 511,746.405354 Z M559,744.1587 L559.206271,744.163108 C562.424471,744.300864 565,747.649834 565,751.760994 C565,755.959626 562.313708,759.363289 559,759.363289 C555.686292,759.363289 553,755.959626 553,751.760994 C553,747.562363 555.686292,744.1587 559,744.1587 Z M607,741.636711 L607.210641,741.641225 C610.426803,741.779279 613,745.066454 613,749.101338 C613,753.223938 610.313708,756.565966 607,756.565966 C603.686292,756.565966 601,753.223938 601,749.101338 C601,744.978739 603.686292,741.636711 607,741.636711 Z M304,740.757202 L304.183301,740.762046 C306.859811,740.903749 309,744.136128 309,748.102881 C309,752.159787 306.761424,755.44856 304,755.44856 C301.238576,755.44856 299,752.159787 299,748.102881 C299,744.045974 301.238576,740.757202 304,740.757202 Z M655,737.665392 L655.210641,737.669804 C658.426803,737.804746 661,741.017825 661,744.961759 C661,748.991431 658.313708,752.258126 655,752.258126 C651.686292,752.258126 649,748.991431 649,744.961759 C649,740.932087 651.686292,737.665392 655,737.665392 Z M439,736 L439.202079,736.004452 C442.422234,736.146541 445,739.671891 445,744 C445,748.418278 442.313708,752 439,752 C435.686292,752 433,748.418278 433,744 C433,739.581722 435.686292,736 439,736 Z M364,734.753346 L364.175534,734.758091 C366.855669,734.903217 369,738.358792 369,742.600382 C369,746.934181 366.761424,750.447419 364,750.447419 C361.238576,750.447419 359,746.934181 359,742.600382 C359,738.266584 361.238576,734.753346 364,734.753346 Z M487,732.753346 L487.206271,732.757896 C490.424471,732.900087 493,736.356871 493,740.600382 C493,744.934181 490.313708,748.447419 487,748.447419 C483.686292,748.447419 481,744.934181 481,740.600382 C481,736.266584 483.686292,732.753346 487,732.753346 Z M535,730.231358 L535.206271,730.235828 C538.424471,730.375524 541,733.771663 541,737.940727 C541,742.198494 538.313708,745.650096 535,745.650096 C531.686292,745.650096 529,742.198494 529,737.940727 C529,733.68296 531.686292,730.231358 535,730.231358 Z M324,728.751004 L324.183301,728.755851 C326.859811,728.897625 329,732.131641 329,736.100402 C329,740.159362 326.761424,743.449799 324,743.449799 C321.238576,743.449799 319,740.159362 319,736.100402 C319,732.041441 321.238576,728.751004 324,728.751004 Z M583,727.260038 L583.206271,727.264411 C586.424471,727.401058 589,730.723075 589,734.801147 C589,738.965987 586.313708,742.342256 583,742.342256 C579.686292,742.342256 577,738.965987 577,734.801147 C577,730.636308 579.686292,727.260038 583,727.260038 Z M631,723.288719 L631.210641,723.293177 C634.426803,723.429533 637,726.676292 637,730.661568 C637,734.73348 634.313708,738.034417 631,738.034417 C627.686292,738.034417 625,734.73348 625,730.661568 C625,726.589656 627.686292,723.288719 631,723.288719 Z M284,721.763713 L284.183301,721.768555 C286.859811,721.910182 289,725.140842 289,729.105485 C289,733.160234 286.761424,736.447257 284,736.447257 C281.238576,736.447257 279,733.160234 279,729.105485 C279,725.050736 281.238576,721.763713 284,721.763713 Z M463,718.6826 L463.206271,718.687195 C466.424471,718.830772 469,722.321248 469,726.606119 C469,730.982157 466.313708,734.529637 463,734.529637 C459.686292,734.529637 457,730.982157 457,726.606119 C457,722.23008 459.686292,718.6826 463,718.6826 Z M679,720.042065 L679.210641,720.046431 C682.426803,720.179958 685,723.359357 685,727.26195 C685,731.249383 682.313708,734.481836 679,734.481836 C675.686292,734.481836 673,731.249383 673,727.26195 C673,723.274518 675.686292,720.042065 679,720.042065 Z M344,717.365949 L344.175534,717.370692 C346.855669,717.515751 349,720.969745 349,725.209393 C349,729.541208 346.761424,733.052838 344,733.052838 C341.238576,733.052838 339,729.541208 339,725.209393 C339,720.877579 341.238576,717.365949 344,717.365949 Z M511,715.384321 L511.206271,715.388818 C514.424471,715.529346 517,718.9457 517,723.139579 C517,727.42269 514.313708,730.894837 511,730.894837 C507.686292,730.894837 505,727.42269 505,723.139579 C505,718.856469 507.686292,715.384321 511,715.384321 Z M559,713.749522 L559.206271,713.75393 C562.424471,713.891686 565,717.240657 565,721.351816 C565,725.550448 562.313708,728.954111 559,728.954111 C555.686292,728.954111 553,725.550448 553,721.351816 C553,717.153185 555.686292,713.749522 559,713.749522 Z M607,711.778203 L607.210641,711.782717 C610.426803,711.92077 613,715.207945 613,719.24283 C613,723.36543 610.313708,726.707457 607,726.707457 C603.686292,726.707457 601,723.36543 601,719.24283 C601,715.12023 603.686292,711.778203 607,711.778203 Z M304,711.374486 L304.183301,711.37933 C306.859811,711.521033 309,714.753412 309,718.720165 C309,722.777071 306.761424,726.065844 304,726.065844 C301.238576,726.065844 299,722.777071 299,718.720165 C299,714.663258 301.238576,711.374486 304,711.374486 Z M655,708.479924 L655.210641,708.484336 C658.426803,708.619277 661,711.832356 661,715.776291 C661,719.805963 658.313708,723.072658 655,723.072658 C651.686292,723.072658 649,719.805963 649,715.776291 C649,711.746618 651.686292,708.479924 655,708.479924 Z M439,704 L439.202079,704.004452 C442.422234,704.146541 445,707.671891 445,712 C445,716.418278 442.313708,720 439,720 C435.686292,720 433,716.418278 433,712 C433,707.581722 435.686292,704 439,704 Z M364,703.365201 L364.175534,703.369946 C366.855669,703.515072 369,706.970647 369,711.212237 C369,715.546036 366.761424,719.059273 364,719.059273 C361.238576,719.059273 359,715.546036 359,711.212237 C359,706.878439 361.238576,703.365201 364,703.365201 Z M487,701.365201 L487.206271,701.369751 C490.424471,701.511942 493,704.968726 493,709.212237 C493,713.546036 490.313708,717.059273 487,717.059273 C483.686292,717.059273 481,713.546036 481,709.212237 C481,704.878439 483.686292,701.365201 487,701.365201 Z M535,699.393881 L535.206271,699.398352 C538.424471,699.538048 541,702.934187 541,707.10325 C541,711.361017 538.313708,714.81262 535,714.81262 C531.686292,714.81262 529,711.361017 529,707.10325 C529,702.845484 531.686292,699.393881 535,699.393881 Z M324,699.353414 L324.183301,699.358261 C326.859811,699.500035 329,702.73405 329,706.702811 C329,710.761771 326.761424,714.052209 324,714.052209 C321.238576,714.052209 319,710.761771 319,706.702811 C319,702.643851 321.238576,699.353414 324,699.353414 Z M583,697.095602 L583.206271,697.099975 C586.424471,697.236622 589,700.558639 589,704.636711 C589,708.801551 586.313708,712.17782 583,712.17782 C579.686292,712.17782 577,708.801551 577,704.636711 C577,700.471872 579.686292,697.095602 583,697.095602 Z M631,693.797323 L631.210641,693.801782 C634.426803,693.938138 637,697.184896 637,701.170172 C637,705.242084 634.313708,708.543021 631,708.543021 C627.686292,708.543021 625,705.242084 625,701.170172 C625,697.09826 627.686292,693.797323 631,693.797323 Z M284,693.375527 L284.183301,693.380369 C286.859811,693.521996 289,696.752656 289,700.7173 C289,704.772048 286.761424,708.059072 284,708.059072 C281.238576,708.059072 279,704.772048 279,700.7173 C279,696.662551 281.238576,693.375527 284,693.375527 Z M679,691.162524 L679.210641,691.16689 C682.426803,691.300417 685,694.479816 685,698.382409 C685,702.369842 682.313708,705.602294 679,705.602294 C675.686292,705.602294 673,702.369842 673,698.382409 C673,694.394977 675.686292,691.162524 679,691.162524 Z M463,686.988528 L463.206271,686.993122 C466.424471,687.136699 469,690.627175 469,694.912046 C469,699.288084 466.313708,702.835564 463,702.835564 C459.686292,702.835564 457,699.288084 457,694.912046 C457,690.536008 459.686292,686.988528 463,686.988528 Z M344,686.972603 L344.175534,686.977346 C346.855669,687.122405 349,690.576399 349,694.816047 C349,699.147862 346.761424,702.659491 344,702.659491 C341.238576,702.659491 339,699.147862 339,694.816047 C339,690.484232 341.238576,686.972603 344,686.972603 Z M511,684.363289 L511.206271,684.367786 C514.424471,684.508314 517,687.924668 517,692.118547 C517,696.401658 514.313708,699.873805 511,699.873805 C507.686292,699.873805 505,696.401658 505,692.118547 C505,687.835436 507.686292,684.363289 511,684.363289 Z M559,683.340344 L559.206271,683.344752 C562.424471,683.482509 565,686.831479 565,690.942639 C565,695.14127 562.313708,698.544933 559,698.544933 C555.686292,698.544933 553,695.14127 553,690.942639 C553,686.744007 555.686292,683.340344 559,683.340344 Z M304,682.971193 L304.183301,682.976038 C306.859811,683.11774 309,686.350119 309,690.316872 C309,694.373779 306.761424,697.662551 304,697.662551 C301.238576,697.662551 299,694.373779 299,690.316872 C299,686.259966 301.238576,682.971193 304,682.971193 Z M607,681.919694 L607.210641,681.924208 C610.426803,682.062261 613,685.349436 613,689.384321 C613,693.506921 610.313708,696.848948 607,696.848948 C603.686292,696.848948 601,693.506921 601,689.384321 C601,685.261721 603.686292,681.919694 607,681.919694 Z M655,679.294455 L655.210641,679.298867 C658.426803,679.433809 661,682.646888 661,686.590822 C661,690.620494 658.313708,693.887189 655,693.887189 C651.686292,693.887189 649,690.620494 649,686.590822 C649,682.56115 651.686292,679.294455 655,679.294455 Z M439,672 L439.202079,672.004452 C442.422234,672.146541 445,675.671891 445,680 C445,684.418278 442.313708,688 439,688 C435.686292,688 433,684.418278 433,680 C433,675.581722 435.686292,672 439,672 Z M364,671.977055 L364.175534,671.981801 C366.855669,672.126926 369,675.582502 369,679.824092 C369,684.15789 366.761424,687.671128 364,687.671128 C361.238576,687.671128 359,684.15789 359,679.824092 C359,675.490293 361.238576,671.977055 364,671.977055 Z M487,669.977055 L487.206271,669.981606 C490.424471,670.123797 493,673.580581 493,677.824092 C493,682.15789 490.313708,685.671128 487,685.671128 C483.686292,685.671128 481,682.15789 481,677.824092 C481,673.490293 483.686292,669.977055 487,669.977055 Z M535,668.556405 L535.206271,668.560876 C538.424471,668.700572 541,672.096711 541,676.265774 C541,680.523541 538.313708,683.975143 535,683.975143 C531.686292,683.975143 529,680.523541 529,676.265774 C529,672.008007 531.686292,668.556405 535,668.556405 Z M324,668.975904 L324.183301,668.980751 C326.859811,669.122525 329,672.35654 329,676.325301 C329,680.384261 326.761424,683.674699 324,683.674699 C321.238576,683.674699 319,680.384261 319,676.325301 C319,672.266341 321.238576,668.975904 324,668.975904 Z M583,666.931166 L583.206271,666.935539 C586.424471,667.072187 589,670.394203 589,674.472275 C589,678.637115 586.313708,682.013384 583,682.013384 C579.686292,682.013384 577,678.637115 577,674.472275 C577,670.307436 579.686292,666.931166 583,666.931166 Z M284,664.987342 L284.183301,664.992184 C286.859811,665.133811 289,668.364471 289,672.329114 C289,676.383863 286.761424,679.670886 284,679.670886 C281.238576,679.670886 279,676.383863 279,672.329114 C279,668.274365 281.238576,664.987342 284,664.987342 Z M631,664.305927 L631.210641,664.310386 C634.426803,664.446742 637,667.693501 637,671.678776 C637,675.750688 634.313708,679.051625 631,679.051625 C627.686292,679.051625 625,675.750688 625,671.678776 C625,667.606864 627.686292,664.305927 631,664.305927 Z M679,662.282983 L679.210641,662.287349 C682.426803,662.420876 685,665.600275 685,669.502868 C685,673.490301 682.313708,676.722753 679,676.722753 C675.686292,676.722753 673,673.490301 673,669.502868 C673,665.515436 675.686292,662.282983 679,662.282983 Z M344,655.598826 C346.761424,655.598826 349,659.110455 349,663.44227 C349,667.774085 346.761424,671.285714 344,671.285714 C341.238576,671.285714 339,667.774085 339,663.44227 C339,659.110455 341.238576,655.598826 344,655.598826 Z M463,655.294455 C466.313708,655.294455 469,658.841935 469,663.217973 C469,667.594011 466.313708,671.141491 463,671.141491 C459.686292,671.141491 457,667.594011 457,663.217973 C457,658.841935 459.686292,655.294455 463,655.294455 Z M511,653.342256 C514.313708,653.342256 517,656.814404 517,661.097514 C517,665.380625 514.313708,668.852772 511,668.852772 C507.686292,668.852772 505,665.380625 505,661.097514 C505,656.814404 507.686292,653.342256 511,653.342256 Z M304,653.588477 C306.761424,653.588477 309,656.87725 309,660.934156 C309,664.991063 306.761424,668.279835 304,668.279835 C301.238576,668.279835 299,664.991063 299,660.934156 C299,656.87725 301.238576,653.588477 304,653.588477 Z M559,652.931166 C562.313708,652.931166 565,656.33483 565,660.533461 C565,664.732092 562.313708,668.135755 559,668.135755 C555.686292,668.135755 553,664.732092 553,660.533461 C553,656.33483 555.686292,652.931166 559,652.931166 Z M607,652.061185 C610.313708,652.061185 613,655.403213 613,659.525813 C613,663.648412 610.313708,666.99044 607,666.99044 C603.686292,666.99044 601,663.648412 601,659.525813 C601,655.403213 603.686292,652.061185 607,652.061185 Z M655,650.108987 C658.313708,650.108987 661,653.375681 661,657.405354 C661,661.435026 658.313708,664.701721 655,664.701721 C651.686292,664.701721 649,661.435026 649,657.405354 C649,653.375681 651.686292,650.108987 655,650.108987 Z M364,640.58891 C366.761424,640.58891 369,644.102148 369,648.435946 C369,652.769745 366.761424,656.282983 364,656.282983 C361.238576,656.282983 359,652.769745 359,648.435946 C359,644.102148 361.238576,640.58891 364,640.58891 Z M439,640 C442.313708,640 445,643.581722 445,648 C445,652.418278 442.313708,656 439,656 C435.686292,656 433,652.418278 433,648 C433,643.581722 435.686292,640 439,640 Z M487,638.58891 C490.313708,638.58891 493,642.102148 493,646.435946 C493,650.769745 490.313708,654.282983 487,654.282983 C483.686292,654.282983 481,650.769745 481,646.435946 C481,642.102148 483.686292,638.58891 487,638.58891 Z M324,639.578313 C326.761424,639.578313 329,642.868751 329,646.927711 C329,650.986671 326.761424,654.277108 324,654.277108 C321.238576,654.277108 319,650.986671 319,646.927711 C319,642.868751 321.238576,639.578313 324,639.578313 Z M535,637.718929 C538.313708,637.718929 541,641.170531 541,645.428298 C541,649.686065 538.313708,653.137667 535,653.137667 C531.686292,653.137667 529,649.686065 529,645.428298 C529,641.170531 531.686292,637.718929 535,637.718929 Z M583,636.76673 C586.313708,636.76673 589,640.143 589,644.307839 C589,648.472679 586.313708,651.848948 583,651.848948 C579.686292,651.848948 577,648.472679 577,644.307839 C577,640.143 579.686292,636.76673 583,636.76673 Z M284,636.599156 C286.761424,636.599156 289,639.886179 289,643.940928 C289,647.995677 286.761424,651.2827 284,651.2827 C281.238576,651.2827 279,647.995677 279,643.940928 C279,639.886179 281.238576,636.599156 284,636.599156 Z M631,634.814532 C634.313708,634.814532 637,638.115468 637,642.18738 C637,646.259293 634.313708,649.560229 631,649.560229 C627.686292,649.560229 625,646.259293 625,642.18738 C625,638.115468 627.686292,634.814532 631,634.814532 Z M679,633.403442 C682.313708,633.403442 685,636.635894 685,640.623327 C685,644.610759 682.313708,647.843212 679,647.843212 C675.686292,647.843212 673,644.610759 673,640.623327 C673,636.635894 675.686292,633.403442 679,633.403442 Z M344,625.205479 C346.761424,625.205479 349,628.717109 349,633.048924 C349,637.380738 346.761424,640.892368 344,640.892368 C341.238576,640.892368 339,637.380738 339,633.048924 C339,628.717109 341.238576,625.205479 344,625.205479 Z M463,623.600382 C466.313708,623.600382 469,627.147862 469,631.523901 C469,635.899939 466.313708,639.447419 463,639.447419 C459.686292,639.447419 457,635.899939 457,631.523901 C457,627.147862 459.686292,623.600382 463,623.600382 Z M304,624.205761 C306.761424,624.205761 309,627.494534 309,631.55144 C309,635.608347 306.761424,638.897119 304,638.897119 C301.238576,638.897119 299,635.608347 299,631.55144 C299,627.494534 301.238576,624.205761 304,624.205761 Z M511,622.321224 C514.313708,622.321224 517,625.793371 517,630.076482 C517,634.359593 514.313708,637.83174 511,637.83174 C507.686292,637.83174 505,634.359593 505,630.076482 C505,625.793371 507.686292,622.321224 511,622.321224 Z M559,622.521989 C562.313708,622.521989 565,625.925652 565,630.124283 C565,634.322914 562.313708,637.726577 559,637.726577 C555.686292,637.726577 553,634.322914 553,630.124283 C553,625.925652 555.686292,622.521989 559,622.521989 Z M607,622.202677 C610.313708,622.202677 613,625.544704 613,629.667304 C613,633.789904 610.313708,637.131931 607,637.131931 C603.686292,637.131931 601,633.789904 601,629.667304 C601,625.544704 603.686292,622.202677 607,622.202677 Z M655,620.923518 C658.313708,620.923518 661,624.190213 661,628.219885 C661,632.249558 658.313708,635.516252 655,635.516252 C651.686292,635.516252 649,632.249558 649,628.219885 C649,624.190213 651.686292,620.923518 655,620.923518 Z M364,609.200765 C366.761424,609.200765 369,612.714003 369,617.047801 C369,621.3816 366.761424,624.894837 364,624.894837 C361.238576,624.894837 359,621.3816 359,617.047801 C359,612.714003 361.238576,609.200765 364,609.200765 Z M439,608 C442.313708,608 445,611.581722 445,616 C445,620.418278 442.313708,624 439,624 C435.686292,624 433,620.418278 433,616 C433,611.581722 435.686292,608 439,608 Z M324,609.200803 C326.761424,609.200803 329,612.491241 329,616.550201 C329,620.609161 326.761424,623.899598 324,623.899598 C321.238576,623.899598 319,620.609161 319,616.550201 C319,612.491241 321.238576,609.200803 324,609.200803 Z M487,607.200765 C490.313708,607.200765 493,610.714003 493,615.047801 C493,619.3816 490.313708,622.894837 487,622.894837 C483.686292,622.894837 481,619.3816 481,615.047801 C481,610.714003 483.686292,607.200765 487,607.200765 Z M284,608.21097 C286.761424,608.21097 289,611.497994 289,615.552743 C289,619.607491 286.761424,622.894515 284,622.894515 C281.238576,622.894515 279,619.607491 279,615.552743 C279,611.497994 281.238576,608.21097 284,608.21097 Z M535,606.881453 C538.313708,606.881453 541,610.333055 541,614.590822 C541,618.848589 538.313708,622.300191 535,622.300191 C531.686292,622.300191 529,618.848589 529,614.590822 C529,610.333055 531.686292,606.881453 535,606.881453 Z M583,606.602294 C586.313708,606.602294 589,609.978564 589,614.143403 C589,618.308243 586.313708,621.684512 583,621.684512 C579.686292,621.684512 577,618.308243 577,614.143403 C577,609.978564 579.686292,606.602294 583,606.602294 Z M631,605.323136 C634.313708,605.323136 637,608.624073 637,612.695985 C637,616.767897 634.313708,620.068834 631,620.068834 C627.686292,620.068834 625,616.767897 625,612.695985 C625,608.624073 627.686292,605.323136 631,605.323136 Z M679,604.523901 C682.313708,604.523901 685,607.756353 685,611.743786 C685,615.731218 682.313708,618.963671 679,618.963671 C675.686292,618.963671 673,615.731218 673,611.743786 C673,607.756353 675.686292,604.523901 679,604.523901 Z M344,594.812133 C346.761424,594.812133 349,598.323763 349,602.655577 C349,606.987392 346.761424,610.499022 344,610.499022 C341.238576,610.499022 339,606.987392 339,602.655577 C339,598.323763 341.238576,594.812133 344,594.812133 Z M304,594.823045 C306.761424,594.823045 309,598.111818 309,602.168724 C309,606.225631 306.761424,609.514403 304,609.514403 C301.238576,609.514403 299,606.225631 299,602.168724 C299,598.111818 301.238576,594.823045 304,594.823045 Z M463,591.90631 C466.313708,591.90631 469,595.45379 469,599.829828 C469,604.205866 466.313708,607.753346 463,607.753346 C459.686292,607.753346 457,604.205866 457,599.829828 C457,595.45379 459.686292,591.90631 463,591.90631 Z M559,592.112811 C562.313708,592.112811 565,595.516474 565,599.715105 C565,603.913736 562.313708,607.3174 559,607.3174 C555.686292,607.3174 553,603.913736 553,599.715105 C553,595.516474 555.686292,592.112811 559,592.112811 Z M607,592.344168 C610.313708,592.344168 613,595.686196 613,599.808795 C613,603.931395 610.313708,607.273423 607,607.273423 C603.686292,607.273423 601,603.931395 601,599.808795 C601,595.686196 603.686292,592.344168 607,592.344168 Z M511,591.300191 C514.313708,591.300191 517,594.772339 517,599.055449 C517,603.33856 514.313708,606.810707 511,606.810707 C507.686292,606.810707 505,603.33856 505,599.055449 C505,594.772339 507.686292,591.300191 511,591.300191 Z M655,591.73805 C658.313708,591.73805 661,595.004745 661,599.034417 C661,603.064089 658.313708,606.330784 655,606.330784 C651.686292,606.330784 649,603.064089 649,599.034417 C649,595.004745 651.686292,591.73805 655,591.73805 Z M284,579.822785 C286.761424,579.822785 289,583.109808 289,587.164557 C289,591.219306 286.761424,594.506329 284,594.506329 C281.238576,594.506329 279,591.219306 279,587.164557 C279,583.109808 281.238576,579.822785 284,579.822785 Z M324,579.803213 C326.761424,579.803213 329,583.09365 329,587.15261 C329,591.211571 326.761424,594.502008 324,594.502008 C321.238576,594.502008 319,591.211571 319,587.15261 C319,583.09365 321.238576,579.803213 324,579.803213 Z M364,577.81262 C366.761424,577.81262 369,581.325857 369,585.659656 C369,589.993454 366.761424,593.506692 364,593.506692 C361.238576,593.506692 359,589.993454 359,585.659656 C359,581.325857 361.238576,577.81262 364,577.81262 Z M439,576 C442.313708,576 445,579.581722 445,584 C445,588.418278 442.313708,592 439,592 C435.686292,592 433,588.418278 433,584 C433,579.581722 435.686292,576 439,576 Z M583,576.437859 C586.313708,576.437859 589,579.814128 589,583.978967 C589,588.143807 586.313708,591.520076 583,591.520076 C579.686292,591.520076 577,588.143807 577,583.978967 C577,579.814128 579.686292,576.437859 583,576.437859 Z M487,575.81262 C490.313708,575.81262 493,579.325857 493,583.659656 C493,587.993454 490.313708,591.506692 487,591.506692 C483.686292,591.506692 481,587.993454 481,583.659656 C481,579.325857 483.686292,575.81262 487,575.81262 Z M535,576.043977 C538.313708,576.043977 541,579.495579 541,583.753346 C541,588.011113 538.313708,591.462715 535,591.462715 C531.686292,591.462715 529,588.011113 529,583.753346 C529,579.495579 531.686292,576.043977 535,576.043977 Z M631,575.83174 C634.313708,575.83174 637,579.132677 637,583.204589 C637,587.276501 634.313708,590.577438 631,590.577438 C627.686292,590.577438 625,587.276501 625,583.204589 C625,579.132677 627.686292,575.83174 631,575.83174 Z M679,575.644359 C682.313708,575.644359 685,578.876812 685,582.864245 C685,586.851677 682.313708,590.08413 679,590.08413 C675.686292,590.08413 673,586.851677 673,582.864245 C673,578.876812 675.686292,575.644359 679,575.644359 Z M304,566.419753 C306.761424,566.419753 309,569.708526 309,573.765432 C309,577.822339 306.761424,581.111111 304,581.111111 C301.238576,581.111111 299,577.822339 299,573.765432 C299,569.708526 301.238576,566.419753 304,566.419753 Z M344,564.418787 C346.761424,564.418787 349,567.930416 349,572.262231 C349,576.594046 346.761424,580.105675 344,580.105675 C341.238576,580.105675 339,576.594046 339,572.262231 C339,567.930416 341.238576,564.418787 344,564.418787 Z M607,562.48566 C610.313708,562.48566 613,565.827687 613,569.950287 C613,574.072887 610.313708,577.414914 607,577.414914 C603.686292,577.414914 601,574.072887 601,569.950287 C601,565.827687 603.686292,562.48566 607,562.48566 Z M655,562.552581 C658.313708,562.552581 661,565.819276 661,569.848948 C661,573.878621 658.313708,577.145315 655,577.145315 C651.686292,577.145315 649,573.878621 649,569.848948 C649,565.819276 651.686292,562.552581 655,562.552581 Z M559,561.703633 C562.313708,561.703633 565,565.107296 565,569.305927 C565,573.504559 562.313708,576.908222 559,576.908222 C555.686292,576.908222 553,573.504559 553,569.305927 C553,565.107296 555.686292,561.703633 559,561.703633 Z M463,560.212237 C466.313708,560.212237 469,563.759717 469,568.135755 C469,572.511794 466.313708,576.059273 463,576.059273 C459.686292,576.059273 457,572.511794 457,568.135755 C457,563.759717 459.686292,560.212237 463,560.212237 Z M511,560.279159 C514.313708,560.279159 517,563.751306 517,568.034417 C517,572.317528 514.313708,575.789675 511,575.789675 C507.686292,575.789675 505,572.317528 505,568.034417 C505,563.751306 507.686292,560.279159 511,560.279159 Z M284,551.434599 C286.761424,551.434599 289,554.721623 289,558.776371 C289,562.83112 286.761424,566.118143 284,566.118143 C281.238576,566.118143 279,562.83112 279,558.776371 C279,554.721623 281.238576,551.434599 284,551.434599 Z M324,549.425703 C326.761424,549.425703 329,552.71614 329,556.7751 C329,560.834061 326.761424,564.124498 324,564.124498 C321.238576,564.124498 319,560.834061 319,556.7751 C319,552.71614 321.238576,549.425703 324,549.425703 Z M364,546.424474 C366.761424,546.424474 369,549.937712 369,554.271511 C369,558.605309 366.761424,562.118547 364,562.118547 C361.238576,562.118547 359,558.605309 359,554.271511 C359,549.937712 361.238576,546.424474 364,546.424474 Z M583,546.273423 C586.313708,546.273423 589,549.649692 589,553.814532 C589,557.979371 586.313708,561.355641 583,561.355641 C579.686292,561.355641 577,557.979371 577,553.814532 C577,549.649692 579.686292,546.273423 583,546.273423 Z M679,546.764818 C682.313708,546.764818 685,549.997271 685,553.984704 C685,557.972136 682.313708,561.204589 679,561.204589 C675.686292,561.204589 673,557.972136 673,553.984704 C673,549.997271 675.686292,546.764818 679,546.764818 Z M631,546.340344 C634.313708,546.340344 637,549.641281 637,553.713193 C637,557.785105 634.313708,561.086042 631,561.086042 C627.686292,561.086042 625,557.785105 625,553.713193 C625,549.641281 627.686292,546.340344 631,546.340344 Z M535,545.206501 C538.313708,545.206501 541,548.658103 541,552.91587 C541,557.173637 538.313708,560.625239 535,560.625239 C531.686292,560.625239 529,557.173637 529,552.91587 C529,548.658103 531.686292,545.206501 535,545.206501 Z M487,544.424474 C490.313708,544.424474 493,547.937712 493,552.271511 C493,556.605309 490.313708,560.118547 487,560.118547 C483.686292,560.118547 481,556.605309 481,552.271511 C481,547.937712 483.686292,544.424474 487,544.424474 Z M439,544 C442.313708,544 445,547.581722 445,552 C445,556.418278 442.313708,560 439,560 C435.686292,560 433,556.418278 433,552 C433,547.581722 435.686292,544 439,544 Z M304,537.037037 C306.761424,537.037037 309,540.32581 309,544.382716 C309,548.439623 306.761424,551.728395 304,551.728395 C301.238576,551.728395 299,548.439623 299,544.382716 C299,540.32581 301.238576,537.037037 304,537.037037 Z M344,533.04501 C346.761424,533.04501 349,536.556639 349,540.888454 C349,545.220269 346.761424,548.731898 344,548.731898 C341.238576,548.731898 339,545.220269 339,540.888454 C339,536.556639 341.238576,533.04501 344,533.04501 Z M655,533.367113 C658.313708,533.367113 661,536.633808 661,540.66348 C661,544.693152 658.313708,547.959847 655,547.959847 C651.686292,547.959847 649,544.693152 649,540.66348 C649,536.633808 651.686292,533.367113 655,533.367113 Z M607,532.627151 C610.313708,532.627151 613,535.969178 613,540.091778 C613,544.214378 610.313708,547.556405 607,547.556405 C603.686292,547.556405 601,544.214378 601,540.091778 C601,535.969178 603.686292,532.627151 607,532.627151 Z M559,531.294455 C562.313708,531.294455 565,534.698118 565,538.89675 C565,543.095381 562.313708,546.499044 559,546.499044 C555.686292,546.499044 553,543.095381 553,538.89675 C553,534.698118 555.686292,531.294455 559,531.294455 Z M511,529.258126 C514.313708,529.258126 517,532.730274 517,537.013384 C517,541.296495 514.313708,544.768642 511,544.768642 C507.686292,544.768642 505,541.296495 505,537.013384 C505,532.730274 507.686292,529.258126 511,529.258126 Z M463,528.518164 C466.313708,528.518164 469,532.065644 469,536.441683 C469,540.817721 466.313708,544.365201 463,544.365201 C459.686292,544.365201 457,540.817721 457,536.441683 C457,532.065644 459.686292,528.518164 463,528.518164 Z M284,523.046414 C286.761424,523.046414 289,526.333437 289,530.388186 C289,534.442934 286.761424,537.729958 284,537.729958 C281.238576,537.729958 279,534.442934 279,530.388186 C279,526.333437 281.238576,523.046414 284,523.046414 Z M324,520.028112 C326.761424,520.028112 329,523.31855 329,527.37751 C329,531.43647 326.761424,534.726908 324,534.726908 C321.238576,534.726908 319,531.43647 319,527.37751 C319,523.31855 321.238576,520.028112 324,520.028112 Z M679,517.885277 C682.313708,517.885277 685,521.11773 685,525.105163 C685,529.092595 682.313708,532.325048 679,532.325048 C675.686292,532.325048 673,529.092595 673,525.105163 C673,521.11773 675.686292,517.885277 679,517.885277 Z M631,516.848948 C634.313708,516.848948 637,520.149885 637,524.221797 C637,528.293709 634.313708,531.594646 631,531.594646 C627.686292,531.594646 625,528.293709 625,524.221797 C625,520.149885 627.686292,516.848948 631,516.848948 Z M583,516.108987 C586.313708,516.108987 589,519.485256 589,523.650096 C589,527.814935 586.313708,531.191205 583,531.191205 C579.686292,531.191205 577,527.814935 577,523.650096 C577,519.485256 579.686292,516.108987 583,516.108987 Z M364,515.036329 C366.761424,515.036329 369,518.549567 369,522.883365 C369,527.217164 366.761424,530.730402 364,530.730402 C361.238576,530.730402 359,527.217164 359,522.883365 C359,518.549567 361.238576,515.036329 364,515.036329 Z M535,514.369025 C538.313708,514.369025 541,517.820627 541,522.078394 C541,526.336161 538.313708,529.787763 535,529.787763 C531.686292,529.787763 529,526.336161 529,522.078394 C529,517.820627 531.686292,514.369025 535,514.369025 Z M487,513.036329 C490.313708,513.036329 493,516.549567 493,520.883365 C493,525.217164 490.313708,528.730402 487,528.730402 C483.686292,528.730402 481,525.217164 481,520.883365 C481,516.549567 483.686292,513.036329 487,513.036329 Z M439,512 C442.313708,512 445,515.581722 445,520 C445,524.418278 442.313708,528 439,528 C435.686292,528 433,524.418278 433,520 C433,515.581722 435.686292,512 439,512 Z M304.5,508.633745 C306.985281,508.633745 309,511.484014 309,515 C309,518.515986 306.985281,521.366255 304.5,521.366255 C302.014719,521.366255 300,518.515986 300,515 C300,511.484014 302.014719,508.633745 304.5,508.633745 Z M655,505.09369 C657.899495,505.09369 660.25,507.952048 660.25,511.478011 C660.25,515.003975 657.899495,517.862333 655,517.862333 C652.100505,517.862333 649.75,515.003975 649.75,511.478011 C649.75,507.952048 652.100505,505.09369 655,505.09369 Z M344.5,503.632094 C346.985281,503.632094 349,506.70477 349,510.495108 C349,514.285445 346.985281,517.358121 344.5,517.358121 C342.014719,517.358121 340,514.285445 340,510.495108 C340,506.70477 342.014719,503.632094 344.5,503.632094 Z M607,503.701721 C609.899495,503.701721 612.25,506.625995 612.25,510.23327 C612.25,513.840544 609.899495,516.764818 607,516.764818 C604.100505,516.764818 601.75,513.840544 601.75,510.23327 C601.75,506.625995 604.100505,503.701721 607,503.701721 Z M559,501.835564 C561.899495,501.835564 564.25,504.813769 564.25,508.487572 C564.25,512.161374 561.899495,515.139579 559,515.139579 C556.100505,515.139579 553.75,512.161374 553.75,508.487572 C553.75,504.813769 556.100505,501.835564 559,501.835564 Z M511,499.206501 C513.899495,499.206501 516.25,502.24463 516.25,505.992352 C516.25,509.740074 513.899495,512.778203 511,512.778203 C508.100505,512.778203 505.75,509.740074 505.75,505.992352 C505.75,502.24463 508.100505,499.206501 511,499.206501 Z M463,497.814532 C465.899495,497.814532 468.25,500.918576 468.25,504.74761 C468.25,508.576643 465.899495,511.680688 463,511.680688 C460.100505,511.680688 457.75,508.576643 457.75,504.74761 C457.75,500.918576 460.100505,497.814532 463,497.814532 Z M284.5,495.637131 C286.985281,495.637131 289,498.485884 289,502 C289,505.514116 286.985281,508.362869 284.5,508.362869 C282.014719,508.362869 280,505.514116 280,502 C280,498.485884 282.014719,495.637131 284.5,495.637131 Z M324.5,490.630522 C326.985281,490.630522 329,493.482234 329,497 C329,500.517766 326.985281,503.369478 324.5,503.369478 C322.014719,503.369478 320,500.517766 320,497 C320,493.482234 322.014719,490.630522 324.5,490.630522 Z M679,489.908222 C681.899495,489.908222 684.25,492.736618 684.25,496.225621 C684.25,499.714625 681.899495,502.543021 679,502.543021 C676.100505,502.543021 673.75,499.714625 673.75,496.225621 C673.75,492.736618 676.100505,489.908222 679,489.908222 Z M631,488.279159 C633.899495,488.279159 636.25,491.167478 636.25,494.730402 C636.25,498.293325 633.899495,501.181644 631,501.181644 C628.100505,501.181644 625.75,498.293325 625.75,494.730402 C625.75,491.167478 628.100505,488.279159 631,488.279159 Z M583,486.887189 C585.899495,486.887189 588.25,489.841425 588.25,493.48566 C588.25,497.129894 585.899495,500.08413 583,500.08413 C580.100505,500.08413 577.75,497.129894 577.75,493.48566 C577.75,489.841425 580.100505,486.887189 583,486.887189 Z M364,484.629063 C366.416246,484.629063 368.375,487.703146 368.375,491.49522 C368.375,495.287294 366.416246,498.361377 364,498.361377 C361.583754,498.361377 359.625,495.287294 359.625,491.49522 C359.625,487.703146 361.583754,484.629063 364,484.629063 Z M535,484.49522 C537.899495,484.49522 540.25,487.515372 540.25,491.240918 C540.25,494.966464 537.899495,497.986616 535,497.986616 C532.100505,497.986616 529.75,494.966464 529.75,491.240918 C529.75,487.515372 532.100505,484.49522 535,484.49522 Z M487,482.629063 C489.899495,482.629063 492.25,485.703146 492.25,489.49522 C492.25,493.287294 489.899495,496.361377 487,496.361377 C484.100505,496.361377 481.75,493.287294 481.75,489.49522 C481.75,485.703146 484.100505,482.629063 487,482.629063 Z M439,481 C441.899495,481 444.25,484.134007 444.25,488 C444.25,491.865993 441.899495,495 439,495 C436.100505,495 433.75,491.865993 433.75,488 C433.75,484.134007 436.100505,481 439,481 Z M304,480.230453 C306.209139,480.230453 308,482.642219 308,485.617284 C308,488.592349 306.209139,491.004115 304,491.004115 C301.790861,491.004115 300,488.592349 300,485.617284 C300,482.642219 301.790861,480.230453 304,480.230453 Z M655,476.820268 C657.485281,476.820268 659.5,479.270289 659.5,482.292543 C659.5,485.314797 657.485281,487.764818 655,487.764818 C652.514719,487.764818 650.5,485.314797 650.5,482.292543 C650.5,479.270289 652.514719,476.820268 655,476.820268 Z M344,474.219178 C346.209139,474.219178 348,476.8529 348,480.101761 C348,483.350622 346.209139,485.984344 344,485.984344 C341.790861,485.984344 340,483.350622 340,480.101761 C340,476.8529 341.790861,474.219178 344,474.219178 Z M607,474.776291 C609.485281,474.776291 611.5,477.282811 611.5,480.374761 C611.5,483.466711 609.485281,485.973231 607,485.973231 C604.514719,485.973231 602.5,483.466711 602.5,480.374761 C602.5,477.282811 604.514719,474.776291 607,474.776291 Z M559,472.376673 C561.485281,472.376673 563.5,474.92942 563.5,478.078394 C563.5,481.227367 561.485281,483.780115 559,483.780115 C556.514719,483.780115 554.5,481.227367 554.5,478.078394 C554.5,474.92942 556.514719,472.376673 559,472.376673 Z M511,469.154876 C513.485281,469.154876 515.5,471.758986 515.5,474.971319 C515.5,478.183652 513.485281,480.787763 511,480.787763 C508.514719,480.787763 506.5,478.183652 506.5,474.971319 C506.5,471.758986 508.514719,469.154876 511,469.154876 Z M284,468.227848 C286.209139,468.227848 288,470.638332 288,473.611814 C288,476.585297 286.209139,478.995781 284,478.995781 C281.790861,478.995781 280,476.585297 280,473.611814 C280,470.638332 281.790861,468.227848 284,468.227848 Z M463,467.110899 C465.485281,467.110899 467.5,469.771509 467.5,473.053537 C467.5,476.335566 465.485281,478.996176 463,478.996176 C460.514719,478.996176 458.5,476.335566 458.5,473.053537 C458.5,469.771509 460.514719,467.110899 463,467.110899 Z M324,462.212851 C326.209139,462.212851 328,464.625839 328,467.60241 C328,470.57898 326.209139,472.991968 324,472.991968 C321.790861,472.991968 320,470.57898 320,467.60241 C320,464.625839 321.790861,462.212851 324,462.212851 Z M679,461.931166 C681.485281,461.931166 683.5,464.355506 683.5,467.34608 C683.5,470.336655 681.485281,472.760994 679,472.760994 C676.514719,472.760994 674.5,470.336655 674.5,467.34608 C674.5,464.355506 676.514719,461.931166 679,461.931166 Z M631,459.709369 C633.485281,459.709369 635.5,462.185072 635.5,465.239006 C635.5,468.29294 633.485281,470.768642 631,470.768642 C628.514719,470.768642 626.5,468.29294 626.5,465.239006 C626.5,462.185072 628.514719,459.709369 631,459.709369 Z M583,457.665392 C585.485281,457.665392 587.5,460.197594 587.5,463.321224 C587.5,466.444853 585.485281,468.977055 583,468.977055 C580.514719,468.977055 578.5,466.444853 578.5,463.321224 C578.5,460.197594 580.514719,457.665392 583,457.665392 Z M535,454.621415 C537.485281,454.621415 539.5,457.210116 539.5,460.403442 C539.5,463.596767 537.485281,466.185468 535,466.185468 C532.514719,466.185468 530.5,463.596767 530.5,460.403442 C530.5,457.210116 532.514719,454.621415 535,454.621415 Z M364,454.221797 C366.071068,454.221797 367.75,456.856726 367.75,460.107075 C367.75,463.357423 366.071068,465.992352 364,465.992352 C361.928932,465.992352 360.25,463.357423 360.25,460.107075 C360.25,456.856726 361.928932,454.221797 364,454.221797 Z M487,452.221797 C489.485281,452.221797 491.5,454.856726 491.5,458.107075 C491.5,461.357423 489.485281,463.992352 487,463.992352 C484.514719,463.992352 482.5,461.357423 482.5,458.107075 C482.5,454.856726 484.514719,452.221797 487,452.221797 Z M439,450 C441.485281,450 443.5,452.686292 443.5,456 C443.5,459.313708 441.485281,462 439,462 C436.514719,462 434.5,459.313708 434.5,456 C434.5,452.686292 436.514719,450 439,450 Z M304,452.806584 C305.656854,452.806584 307,454.779848 307,457.213992 C307,459.648136 305.656854,461.621399 304,461.621399 C302.343146,461.621399 301,459.648136 301,457.213992 C301,454.779848 302.343146,452.806584 304,452.806584 Z M655,448.546845 C657.071068,448.546845 658.75,450.588529 658.75,453.107075 C658.75,455.62562 657.071068,457.667304 655,457.667304 C652.928932,457.667304 651.25,455.62562 651.25,453.107075 C651.25,450.588529 652.928932,448.546845 655,448.546845 Z M607,445.85086 C609.071068,445.85086 610.75,447.939628 610.75,450.516252 C610.75,453.092877 609.071068,455.181644 607,455.181644 C604.928932,455.181644 603.25,453.092877 603.25,450.516252 C603.25,447.939628 604.928932,445.85086 607,445.85086 Z M344,443.825832 C345.656854,443.825832 347,446.0206 347,448.727984 C347,451.435368 345.656854,453.630137 344,453.630137 C342.343146,453.630137 341,451.435368 341,448.727984 C341,446.0206 342.343146,443.825832 344,443.825832 Z M559,442.917782 C561.071068,442.917782 562.75,445.045072 562.75,447.669216 C562.75,450.293361 561.071068,452.42065 559,452.42065 C556.928932,452.42065 555.25,450.293361 555.25,447.669216 C555.25,445.045072 556.928932,442.917782 559,442.917782 Z M284,440.818565 C285.656854,440.818565 287,442.790779 287,445.223629 C287,447.656478 285.656854,449.628692 284,449.628692 C282.343146,449.628692 281,447.656478 281,445.223629 C281,442.790779 282.343146,440.818565 284,440.818565 Z M511,439.10325 C513.071068,439.10325 514.75,441.273343 514.75,443.950287 C514.75,446.627231 513.071068,448.797323 511,448.797323 C508.928932,448.797323 507.25,446.627231 507.25,443.950287 C507.25,441.273343 508.928932,439.10325 511,439.10325 Z M463,436.407266 C465.071068,436.407266 466.75,438.624441 466.75,441.359465 C466.75,444.094489 465.071068,446.311663 463,446.311663 C460.928932,446.311663 459.25,444.094489 459.25,441.359465 C459.25,438.624441 460.928932,436.407266 463,436.407266 Z M679,433.954111 C681.071068,433.954111 682.75,435.974394 682.75,438.466539 C682.75,440.958685 681.071068,442.978967 679,442.978967 C676.928932,442.978967 675.25,440.958685 675.25,438.466539 C675.25,435.974394 676.928932,433.954111 679,433.954111 Z M324,432.815261 C325.656854,432.815261 327,435.008886 327,437.714859 C327,440.420833 325.656854,442.614458 324,442.614458 C322.343146,442.614458 321,440.420833 321,437.714859 C321,435.008886 322.343146,432.815261 324,432.815261 Z M631,431.139579 C633.071068,431.139579 634.75,433.202665 634.75,435.74761 C634.75,438.292555 633.071068,440.355641 631,440.355641 C628.928932,440.355641 627.25,438.292555 627.25,435.74761 C627.25,433.202665 628.928932,431.139579 631,431.139579 Z M583,428.443595 C585.071068,428.443595 586.75,430.553763 586.75,433.156788 C586.75,435.759812 585.071068,437.869981 583,437.869981 C580.928932,437.869981 579.25,435.759812 579.25,433.156788 C579.25,430.553763 580.928932,428.443595 583,428.443595 Z M535,424.74761 C537.071068,424.74761 538.75,426.904861 538.75,429.565966 C538.75,432.22707 537.071068,434.384321 535,434.384321 C532.928932,434.384321 531.25,432.22707 531.25,429.565966 C531.25,426.904861 532.928932,424.74761 535,424.74761 Z M364,423.814532 C365.72589,423.814532 367.125,426.010305 367.125,428.718929 C367.125,431.427553 365.72589,433.623327 364,433.623327 C362.27411,433.623327 360.875,431.427553 360.875,428.718929 C360.875,426.010305 362.27411,423.814532 364,423.814532 Z M487,421.814532 C489.071068,421.814532 490.75,424.010305 490.75,426.718929 C490.75,429.427553 489.071068,431.623327 487,431.623327 C484.928932,431.623327 483.25,429.427553 483.25,426.718929 C483.25,424.010305 484.928932,421.814532 487,421.814532 Z M304.5,424.403292 C305.880712,424.403292 307,425.938053 307,427.831276 C307,429.724499 305.880712,431.259259 304.5,431.259259 C303.119288,431.259259 302,429.724499 302,427.831276 C302,425.938053 303.119288,424.403292 304.5,424.403292 Z M439,419 C441.071068,419 442.75,421.238576 442.75,424 C442.75,426.761424 441.071068,429 439,429 C436.928932,429 435.25,426.761424 435.25,424 C435.25,421.238576 436.928932,419 439,419 Z M655,420.273423 C656.656854,420.273423 658,421.90677 658,423.921606 C658,425.936442 656.656854,427.56979 655,427.56979 C653.343146,427.56979 652,425.936442 652,423.921606 C652,421.90677 653.343146,420.273423 655,420.273423 Z M607,416.92543 C608.656854,416.92543 610,418.596444 610,420.657744 C610,422.719044 608.656854,424.390057 607,424.390057 C605.343146,424.390057 604,422.719044 604,420.657744 C604,418.596444 605.343146,416.92543 607,416.92543 Z M344.5,414.412916 C345.880712,414.412916 347,416.168731 347,418.334638 C347,420.500545 345.880712,422.25636 344.5,422.25636 C343.119288,422.25636 342,420.500545 342,418.334638 C342,416.168731 343.119288,414.412916 344.5,414.412916 Z M559,413.458891 C560.656854,413.458891 562,415.160723 562,417.260038 C562,419.359354 560.656854,421.061185 559,421.061185 C557.343146,421.061185 556,419.359354 556,417.260038 C556,415.160723 557.343146,413.458891 559,413.458891 Z M284.5,413.409283 C285.880712,413.409283 287,414.943227 287,416.835443 C287,418.727659 285.880712,420.261603 284.5,420.261603 C283.119288,420.261603 282,418.727659 282,416.835443 C282,414.943227 283.119288,413.409283 284.5,413.409283 Z M511,409.051625 C512.656854,409.051625 514,410.787699 514,412.929254 C514,415.07081 512.656854,416.806883 511,416.806883 C509.343146,416.806883 508,415.07081 508,412.929254 C508,410.787699 509.343146,409.051625 511,409.051625 Z M463,405.703633 C464.656854,405.703633 466,407.477373 466,409.665392 C466,411.853411 464.656854,413.627151 463,413.627151 C461.343146,413.627151 460,411.853411 460,409.665392 C460,407.477373 461.343146,405.703633 463,405.703633 Z M679,405.977055 C680.656854,405.977055 682,407.593282 682,409.586998 C682,411.580714 680.656854,413.196941 679,413.196941 C677.343146,413.196941 676,411.580714 676,409.586998 C676,407.593282 677.343146,405.977055 679,405.977055 Z M324.5,403.417671 C325.880712,403.417671 327,405.172571 327,407.337349 C327,409.502128 325.880712,411.257028 324.5,411.257028 C323.119288,411.257028 322,409.502128 322,407.337349 C322,405.172571 323.119288,403.417671 324.5,403.417671 Z M631,402.56979 C632.656854,402.56979 634,404.220258 634,406.256214 C634,408.29217 632.656854,409.942639 631,409.942639 C629.343146,409.942639 628,408.29217 628,406.256214 C628,404.220258 629.343146,402.56979 631,402.56979 Z M583,399.221797 C584.656854,399.221797 586,400.909932 586,402.992352 C586,405.074772 584.656854,406.762906 583,406.762906 C581.343146,406.762906 580,405.074772 580,402.992352 C580,400.909932 581.343146,399.221797 583,399.221797 Z M535,394.873805 C536.656854,394.873805 538,396.599606 538,398.728489 C538,400.857373 536.656854,402.583174 535,402.583174 C533.343146,402.583174 532,400.857373 532,398.728489 C532,396.599606 533.343146,394.873805 535,394.873805 Z M304,396 C305.104569,396 306,397.315509 306,398.938272 C306,400.561034 305.104569,401.876543 304,401.876543 C302.895431,401.876543 302,400.561034 302,398.938272 C302,397.315509 302.895431,396 304,396 Z M364,393.407266 C365.380712,393.407266 366.5,395.163885 366.5,397.330784 C366.5,399.497683 365.380712,401.254302 364,401.254302 C362.619288,401.254302 361.5,399.497683 361.5,397.330784 C361.5,395.163885 362.619288,393.407266 364,393.407266 Z M487,391.407266 C488.656854,391.407266 490,393.163885 490,395.330784 C490,397.497683 488.656854,399.254302 487,399.254302 C485.343146,399.254302 484,397.497683 484,395.330784 C484,393.163885 485.343146,391.407266 487,391.407266 Z M655,392 C656.242641,392 657.25,393.225011 657.25,394.736138 C657.25,396.247265 656.242641,397.472275 655,397.472275 C653.757359,397.472275 652.75,396.247265 652.75,394.736138 C652.75,393.225011 653.757359,392 655,392 Z M439,388 C440.656854,388 442,389.790861 442,392 C442,394.209139 440.656854,396 439,396 C437.343146,396 436,394.209139 436,392 C436,389.790861 437.343146,388 439,388 Z M607,388 C608.242641,388 609.25,389.25326 609.25,390.799235 C609.25,392.34521 608.242641,393.59847 607,393.59847 C605.757359,393.59847 604.75,392.34521 604.75,390.799235 C604.75,389.25326 605.757359,388 607,388 Z M284,386 C285.104569,386 286,387.095674 286,388.447257 C286,389.79884 285.104569,390.894515 284,390.894515 C282.895431,390.894515 282,389.79884 282,388.447257 C282,387.095674 282.895431,386 284,386 Z M344,385 C345.104569,385 346,386.316861 346,387.941292 C346,389.565722 345.104569,390.882583 344,390.882583 C342.895431,390.882583 342,389.565722 342,387.941292 C342,386.316861 342.895431,385 344,385 Z M559,384 C560.242641,384 561.25,385.276374 561.25,386.85086 C561.25,388.425347 560.242641,389.701721 559,389.701721 C557.757359,389.701721 556.75,388.425347 556.75,386.85086 C556.75,385.276374 557.757359,384 559,384 Z M511,379 C512.242641,379 513.25,380.302055 513.25,381.908222 C513.25,383.514388 512.242641,384.816444 511,384.816444 C509.757359,384.816444 508.75,383.514388 508.75,381.908222 C508.75,380.302055 509.757359,379 511,379 Z M679,378 C680.242641,378 681.25,379.21217 681.25,380.707457 C681.25,382.202744 680.242641,383.414914 679,383.414914 C677.757359,383.414914 676.75,382.202744 676.75,380.707457 C676.75,379.21217 677.757359,378 679,378 Z M463,375 C464.242641,375 465.25,376.330305 465.25,377.971319 C465.25,379.612334 464.242641,380.942639 463,380.942639 C461.757359,380.942639 460.75,379.612334 460.75,377.971319 C460.75,376.330305 461.757359,375 463,375 Z M324,375 C325.104569,375 326,376.316175 326,377.939759 C326,379.563343 325.104569,380.879518 324,380.879518 C322.895431,380.879518 322,379.563343 322,377.939759 C322,376.316175 322.895431,375 324,375 Z M631,374 C632.242641,374 633.25,375.237851 633.25,376.764818 C633.25,378.291785 632.242641,379.529637 631,379.529637 C629.757359,379.529637 628.75,378.291785 628.75,376.764818 C628.75,375.237851 629.757359,374 631,374 Z M583,370 C584.242641,370 585.25,371.266101 585.25,372.827916 C585.25,374.389731 584.242641,375.655832 583,375.655832 C581.757359,375.655832 580.75,374.389731 580.75,372.827916 C580.75,371.266101 581.757359,370 583,370 Z M535,365 C536.242641,365 537.25,366.294351 537.25,367.891013 C537.25,369.487676 536.242641,370.782027 535,370.782027 C533.757359,370.782027 532.75,369.487676 532.75,367.891013 C532.75,366.294351 533.757359,365 535,365 Z M364,363 C365.035534,363 365.875,364.317464 365.875,365.942639 C365.875,367.567813 365.035534,368.885277 364,368.885277 C362.964466,368.885277 362.125,367.567813 362.125,365.942639 C362.125,364.317464 362.964466,363 364,363 Z M487,361 C488.242641,361 489.25,362.317464 489.25,363.942639 C489.25,365.567813 488.242641,366.885277 487,366.885277 C485.757359,366.885277 484.75,365.567813 484.75,363.942639 C484.75,362.317464 485.757359,361 487,361 Z M439,357 C440.242641,357 441.25,358.343146 441.25,360 C441.25,361.656854 440.242641,363 439,363 C437.757359,363 436.75,361.656854 436.75,360 C436.75,358.343146 437.757359,357 439,357 Z M610.849702,208.972605 C618.115961,232.739469 608.807025,256.653243 590.05761,262.385514 C571.308195,268.117786 550.218324,253.49786 542.952064,229.730996 C535.685805,205.964132 544.994741,182.050358 563.744156,176.318086 C582.493571,170.585815 603.583442,185.205741 610.849702,208.972605 Z" id="Shape" fill="#000000" fill-rule="nonzero"></path>
    </g>
</svg>