<?xml version="1.0" encoding="utf-8"?>
<!-- Generator: Adobe Illustrator 22.1.0, SVG Export Plug-In . SVG Version: 6.00 Build 0)  -->
<svg version="1.1" baseProfile="tiny" id="Layer_1" xmlns="http://www.w3.org/2000/svg" xmlns:xlink="http://www.w3.org/1999/xlink"
	 x="0px" y="0px" viewBox="0 0 512 512" xml:space="preserve">
<g>
	<path d="M241,1c10.7,0,21.3,0,32,0c1.4,0.3,2.9,0.6,4.4,0.9c13.1,2.1,26.5,3.3,39.4,6.3C415.2,31,492.6,113.6,509.1,212.9
		c1.5,9.3,2.6,18.7,3.9,28.1c0,10.7,0,21.3,0,32c-0.3,1.5-0.6,2.9-0.9,4.4c-2.1,13.1-3.3,26.5-6.3,39.4
		c-22.8,98.4-105.4,175.9-204.8,192.4c-9.3,1.5-18.7,2.6-28.1,3.9c-10.7,0-21.3,0-32,0c-1.3-0.3-2.5-0.6-3.8-0.8
		c-15.9-2.7-32.1-4.3-47.6-8.4C94.7,478.8,20.8,397.5,4.9,301.1C3.4,291.8,2.3,282.4,1,273c0-10.7,0-21.3,0-32
		c0.3-1.5,0.6-2.9,0.9-4.4c2.1-13.1,3.3-26.5,6.3-39.4C30.9,98.9,113.7,21.3,212.9,4.9C222.2,3.4,231.6,2.3,241,1z M256.8,503
		c136,0.1,246.1-109.9,246.2-245.8C503.1,121.2,393.1,11.1,257.2,11C121.3,10.9,11.1,120.9,11,256.8
		C10.9,392.7,120.9,502.9,256.8,503z"/>
	<path d="M256.9,185.3c17.5,21.8,34.4,43.1,45.7,68c14.5,32-5.5,64.4-35.8,70c-19.3,3.6-36.2-1.9-48.8-17.3
		c-12.2-14.9-15.6-31.7-7.9-50c8.3-19.7,20.8-36.7,33.4-53.7C247.6,196.7,252.1,191.3,256.9,185.3z M256.9,203.6
		c-14.4,18.1-27.6,36.1-36.2,57.1c-1.9,4.5-3.5,9.7-3.2,14.4c1,17,9.8,29.1,25.7,35.4c14.7,5.9,31.8,1.9,42.6-10
		c11.2-12.4,13.9-26.4,6.8-42C283.4,238.7,271,221.1,256.9,203.6z"/>
	<path d="M229,273.8c3.6,0,6.9,0,10.6,0c1.5,9.6,6.8,15.8,17.1,16.8c0,3.7,0,7.1,0,10.5C242.9,303,229,289.6,229,273.8z"/>
</g>
</svg>
