<?xml version="1.0" encoding="utf-8"?>
<!-- Generator: Adobe Illustrator 22.1.0, SVG Export Plug-In . SVG Version: 6.00 Build 0)  -->
<svg version="1.1" baseProfile="tiny" id="Layer_1" xmlns="http://www.w3.org/2000/svg" xmlns:xlink="http://www.w3.org/1999/xlink"
	 x="0px" y="0px" viewBox="0 0 512 512" xml:space="preserve">
<g>
	<path d="M513,26c0,154,0,308,0,462c-3.4,13.2-11.8,21.5-25,25c-154,0-308,0-462,0c-13.2-3.5-21.6-11.8-25-25C1,334,1,180,1,26
		C4.4,12.8,12.8,4.5,26,1c154,0,308,0,462,0C501.2,4.5,509.6,12.8,513,26z M256.5,503c74.5,0,149,0,223.5,0c15.3,0,23.1-7.7,23.1-23
		c0-148.6,0-297.3,0-445.9c0-15.3-7.8-23.1-23-23.1c-148.6,0-297.3,0-445.9,0C18.8,11,11,18.8,11,34c0,148.6,0,297.3,0,445.9
		c0,15.3,7.8,23.1,23,23.1C108.2,503,182.3,503,256.5,503z"/>
	<path d="M480,258c0,66.7,0,133.3,0,200c0,15.3-7.8,23-23.1,23c-133.6,0-267.3,0-400.9,0c-15.3,0-23-7.8-23-23.1
		c0-133.6,0-267.3,0-400.9c0-15.3,7.8-23,23.1-23c133.6,0,267.3,0,400.9,0c15.3,0,23,7.8,23,23.1C480,124,480,191,480,258z M257,39
		c-66.8,0-133.6,0-200.5,0C43.4,39,38,44.3,38,57.4c0,133.5,0,267,0,400.4c0,12.7,5.5,18.2,18.3,18.2c133.5,0,267,0,400.4,0
		c12.8,0,18.3-5.4,18.3-18.1c0-133.5,0-267,0-400.4c0-13.1-5.4-18.4-18.5-18.4C390,39,323.5,39,257,39z"/>
	<path d="M207.4,224.6c18.4,0,36.4-0.5,54.3,0.2c10.3,0.4,16.5,8.6,16.5,19c0,13.1,0,26.3,0,39.4c0,1.6,0,3.2,0,5.2
		c-4.9,0-9.3,0-14.3,0c0-11.5,0-22.8,0-34.1c0-1.8,0-3.7,0-5.5c-0.2-6.8-4.5-11.3-11.2-11.5c-9-0.2-18,0-27-0.1
		c-3.4-0.1-4.2,1.3-4.1,4.5c0.1,14.1-0.1,28.3,0.1,42.4c0,3.5-1,4.8-4.5,4.6c-3.1-0.2-6.3-0.1-9.8-0.1
		C207.4,267.1,207.4,246.1,207.4,224.6z"/>
	<path d="M306.1,288.3c-4.9,0-9.4,0-14.2,0c0-21.1,0-42.3,0-63.9c4,0,7.8-0.2,11.5,0.1c1,0.1,2.6,1.7,2.6,2.6
		C306.2,247.4,306.1,267.7,306.1,288.3z"/>
	<path d="M250,288.3c-5.2,0-9.9,0-14.7,0c0-12.9,0-25.4,0-38.6c4.3,0,8.2-0.2,12.1,0.1c0.9,0.1,2.4,1.8,2.5,2.7
		C250.1,264.3,250,276.1,250,288.3z"/>
</g>
</svg>
