<?xml version="1.0" encoding="utf-8"?>
<!-- Generator: Adobe Illustrator 21.0.0, SVG Export Plug-In . SVG Version: 6.00 Build 0)  -->
<svg version="1.1" id="Layer_1" xmlns="http://www.w3.org/2000/svg" xmlns:xlink="http://www.w3.org/1999/xlink" x="0px" y="0px"
	 viewBox="0 0 117.4 207.2" style="enable-background:new 0 0 117.4 207.2;" xml:space="preserve">
<g>
	<path d="M58.7,0.9c-8.4,0-16.8,0.4-25.2,1.1C26,2.8,18.3,3.7,11.1,5.8c-2.5,0.7-5,1.6-7.2,3C2.6,9.8,1.3,11,1.2,12.8
		c0,0.8,0,1.6,0,2.3c0,5.4,0,10.8,0,16.2c0,9.2,0,18.4,0,27.6c0,11.3,0,22.6,0,33.8c0,11.7,0,23.3,0,35c0,10.3,0,20.7,0,31
		c0,7.3,0,14.6,0,21.9c0,2,0,4,0,6c0,1.5-0.1,2.9,0.8,4.4c0.3,0.5,0.7,1,1.2,1.4c0.3,0.3,0.9,0.6,1.1,1c0.2,0.4,0.3,0.9,0.6,1.3
		c0.6,0.9,1.4,1.7,2.3,2.4c2.5,1.8,5.5,3,8.4,3.9c8.8,2.8,18.2,4,27.4,4.7c10.8,0.8,21.7,0.8,32.6-0.1c9.1-0.7,18.4-1.9,27.1-4.9
		c2.8-1,5.8-2.1,8.1-4.1c0.8-0.7,1.6-1.4,2-2.4c0.3-0.6,0.4-1,0.9-1.5c0.8-0.7,1.6-1.6,2-2.7c0.5-1.2,0.4-2.5,0.4-3.8
		c0-5.2,0-10.5,0-15.7c0-9.1,0-18.2,0-27.3c0-11.2,0-22.5,0-33.7c0-11.7,0-23.3,0-35c0-10.4,0-20.8,0-31.2c0-7.4,0-14.9,0-22.3
		c0-2.1,0-4.2,0-6.2c0-0.8,0.1-1.6,0-2.4c-0.2-1.8-1.8-3-3.2-3.9c-2.3-1.4-4.9-2.2-7.4-2.9c-7.4-2.1-15.1-3-22.7-3.7
		C74.8,1.3,66.8,0.9,58.7,0.9z M58.7,200.2c-11.8,0-23.7-0.6-35.2-2.9c-3.6-0.7-7.3-1.6-10.8-2.9c-2.2-0.8-4.4-1.7-6.4-3.1
		c-0.9-0.7-2.1-1.6-2.3-2.8c-0.2-1.1,0-2.4,0-3.5c0-6.8,0-13.5,0-20.3c0-5.2,0-10.5,0-15.7c0-0.1,0-0.2,0-0.3c1.8,1.4,3.9,2.3,6,3.1
		c3,1.1,6.1,1.8,9.1,2.5c7.9,1.6,16,2.5,24.1,3c17.3,1.1,35.1,0.7,52.2-2.5c3.6-0.7,7.3-1.5,10.8-2.6c2.4-0.8,5-1.8,7-3.4
		c0,4.4,0,8.8,0,13.2c0,7.1,0,14.2,0,21.3c0,1.6,0.1,3.3,0,5c0,1-0.7,1.7-1.4,2.4c-1.5,1.4-3.5,2.3-5.3,3.1c-3.1,1.3-6.3,2.2-9.6,3
		c-10.7,2.5-21.8,3.3-32.8,3.5C62.4,200.2,60.5,200.2,58.7,200.2z M59.6,6.2c11.7,0,23.5,0.6,35.1,2.8c2.5,0.5,5,1,7.4,1.8
		c1.9,0.6,4.2,1.3,5.7,2.7c3.4,3.3-6.8,5.8-8.6,6.3c-10.9,2.7-22.3,3.5-33.5,3.7c-11,0.3-22,0-32.9-1.3c-5.8-0.7-11.8-1.5-17.4-3.3
		c-1.2-0.4-2.4-0.8-3.5-1.3c-1-0.5-2.2-1.1-2.8-2c-1.1-2,2.5-3.5,3.8-4l0,0C17,10,21.5,9.2,25.8,8.4c6.7-1.1,13.4-1.7,20.1-2
		C50.5,6.2,55.1,6.1,59.6,6.2z M110.6,13.4c-1.5-1.7-3.9-2.6-6-3.4c-3.3-1.2-6.7-1.9-10.1-2.5c-7.3-1.3-14.8-2-22.2-2.4
		c-4.4-0.2-8.8-0.3-13.3-0.3v0c-13,0-26.4,0.6-39.2,3.4c-2.5,0.6-5,1.2-7.4,2.2l0,0c-2.4,0.9-7.6,3.3-5.5,6.7
		c-1.3-0.7-3.4-1.9-2.7-3.7c0.2-0.6,0.8-1.1,1.3-1.5c1.9-1.4,4.3-2.2,6.5-2.8c8.3-2.5,17.1-3.5,25.8-4.2c12.3-1,24.6-1.1,36.9-0.3
		C84,5.1,93.4,6,102.5,8.3c2.7,0.7,5.5,1.5,7.9,2.8c1.2,0.7,3.1,1.7,2.9,3.4c-0.2,1-1.3,1.8-2.2,2.3
		C111.7,15.6,111.4,14.4,110.6,13.4z M19.4,22.3c12.4,2.4,25.2,3.1,37.8,3.1c12.9,0.1,26-0.5,38.8-2.8c3.2-0.6,6.5-1.2,9.6-2.2
		c2.7-0.8,5.7-1.8,7.8-3.7c0,1.7,0,3.5,0,5.2c0,4.6,0,9.2,0,13.8c0,6.5,0,13,0,19.6c0,7.6,0,15.2,0,22.8c0,7.7,0,15.5,0,23.2
		c0,6.9,0,13.9,0,20.8c0,5.3,0,10.6,0,15.9c0,2.7,0,5.5,0,8.2c0,1-0.8,1.4-1.6,1.9c-2.6,1.7-5.7,2.7-8.7,3.5
		c-10.9,3-22.4,3.9-33.6,4.4c-13.8,0.6-27.7,0.2-41.3-1.7c-4.8-0.7-9.5-1.5-14.2-2.8c-2.9-0.8-6-1.8-8.6-3.5
		c-0.8-0.6-1.4-0.9-1.4-1.8c0-1,0-2,0-3c0-4.2,0-8.3,0-12.5c0-6.3,0-12.6,0-18.8c0-7.5,0-15,0-22.5C4,81.7,4,74,4,66.2
		c0-7.2,0-14.3,0-21.5c0-5.6,0-11.3,0-16.9c0-3.2,0-6.4,0-9.6c0-0.4,0-0.9,0-1.3C6.9,19.4,13.6,21.2,19.4,22.3z M58.7,204.9
		c-27.2,0-46.7-4.7-51.9-9.9c5,2.7,10.7,4,16.2,5.1c7.3,1.4,14.7,2.2,22.2,2.6c15.5,0.9,31.4,0.5,46.7-2.2c6.3-1.1,13-2.5,18.7-5.5
		C105.4,200.1,85.9,204.9,58.7,204.9z"/>
	<path d="M12.4,122.2c0.7,1.1,2.5,1.5,2.5-0.1c0-0.4,0-0.8,0-1.2c0-1.7,0-3.4,0-5c0-5.9,0-11.9,0-17.8c0-7.4,0-14.8,0-22.2
		c0-6.5,0-12.9,0-19.4c0-3.1,0.2-6.2,0-9.2c0-0.3-0.1-0.7-0.2-1c-0.6-1.2-2.5-1.6-2.7,0.1c0,0.2,0,0.4,0,0.6c0,1.4,0,2.7,0,4.1
		c0,5.6,0,11.1,0,16.7c0,7.4,0,14.7,0,22.1c0,6.7,0,13.3,0,20c0,3.6,0,7.2,0,10.8C12,121.2,12.1,121.7,12.4,122.2z"/>
</g>
</svg>
