<?xml version="1.0" encoding="utf-8"?>
<!-- Generator: Adobe Illustrator 22.1.0, SVG Export Plug-In . SVG Version: 6.00 Build 0)  -->
<svg version="1.1" id="Слой_2_1_" xmlns="http://www.w3.org/2000/svg" xmlns:xlink="http://www.w3.org/1999/xlink" x="0px"
	 y="0px" viewBox="0 0 1451.3 1451.3" style="enable-background:new 0 0 1451.3 1451.3;" xml:space="preserve">
<style type="text/css">
	.st0{fill:none;stroke:#000000;stroke-width:10;stroke-miterlimit:10;}
	.st1{stroke:#000000;stroke-width:5;stroke-miterlimit:10;}
</style>
<path class="st0" d="M929,1444H367.5c-78.8,0-143.4-29.2-143.4-143.4V170.9c0-78.8,64.5-137.2,143.4-137.2L915.6,9
	c113.8,0,139.6,61.5,143.4,154.7l3.1,1136.9C1062,1379.5,1016.1,1444,929,1444z"/>
<path class="st0" d="M925.7,9.2c250.7,34.3,311.8,41,311.8,157.6l-2.1,1133.9c0,78.8-46,143.4-133.1,143.4H936"/>
<ellipse class="st1" cx="923.4" cy="1301.7" rx="87.8" ry="97"/>
<g>
	<path d="M535.6,313.3c2,1.1,4.8,2.1,7.8,2c4.4-0.1,6.9-2.5,6.8-5.8c-0.1-3.1-1.9-4.9-6.4-6.5c-5.5-1.8-8.9-4.6-9-9.3
		c-0.1-5.2,4.1-9.1,10.6-9.3c3.4-0.1,5.9,0.7,7.4,1.5l-1.1,3.5c-1.1-0.6-3.3-1.5-6.4-1.4c-4.5,0.1-6.2,2.9-6.2,5.1
		c0.1,3.1,2.1,4.6,6.8,6.3c5.7,2.1,8.6,4.7,8.7,9.6c0.1,5.1-3.6,9.7-11.5,9.9c-3.2,0.1-6.7-0.8-8.6-2L535.6,313.3z"/>
	<path d="M588.5,302.8c-0.3-4.6-0.8-10.2-0.8-14.4h-0.1c-1.1,3.9-2.3,8.2-3.9,12.7l-5.5,16.3l-3.3,0.1l-5.7-15.8
		c-1.7-4.7-3.1-8.9-4.1-12.9H565c0,4.2-0.1,9.7-0.3,14.7l-0.6,14.3l-4.1,0.1l1.6-33.4l5.5-0.1l6,16c1.5,4.1,2.7,7.7,3.6,11.2h0.1
		c0.8-3.4,1.9-7.1,3.3-11.3l5.6-16.2l5.5-0.1l2.8,33.3l-4.2,0.1L588.5,302.8z"/>
	<path d="M605.1,306.6l-3.2,10.6l-4.4,0.1l10.6-33.6l5.2-0.1l12.1,33.1l-4.6,0.1l-3.8-10.4L605.1,306.6z M616,303l-3.5-9.5
		c-0.8-2.2-1.3-4.1-1.9-6h-0.1c-0.5,2-1,4-1.6,6.1l-3.1,9.7L616,303z"/>
	<path d="M629.5,283.6c2.2-0.5,5.3-0.8,8.2-0.9c4.6-0.1,7.6,0.7,9.7,2.5c1.7,1.4,2.7,3.7,2.8,6.3c0.1,4.4-2.6,7.4-6.1,8.6v0.1
		c2.6,0.8,4.2,3.2,5,6.6c1.2,4.6,2,7.8,2.8,9.1l-4.4,0.1c-0.6-1-1.4-3.8-2.4-7.9c-1.1-4.6-2.9-6.3-6.8-6.3l-4.1,0.1l0.3,14.4
		l-4.3,0.1L629.5,283.6z M634.1,298.7l4.4-0.1c4.6-0.1,7.5-2.7,7.4-6.5c-0.1-4.3-3.2-6.1-7.8-6.1c-2.1,0-3.6,0.3-4.2,0.5
		L634.1,298.7z"/>
	<path d="M662.9,286.1l-10.1,0.2l-0.1-3.7l24.7-0.5l0.1,3.7l-10.2,0.2l0.6,29.7l-4.4,0.1L662.9,286.1z"/>
	<path d="M709.6,300.1c-0.3-4.6-0.8-10.2-0.8-14.4h-0.1c-1.1,3.9-2.3,8.2-3.9,12.7l-5.5,16.3l-3.3,0.1l-5.7-15.8
		c-1.7-4.7-3.1-8.9-4.1-12.9h-0.1c0,4.2-0.1,9.7-0.3,14.7l-0.6,14.3l-4.1,0.1l1.6-33.4l5.5-0.1l6,16c1.5,4.1,2.7,7.7,3.6,11.2h0.1
		c0.8-3.4,1.9-7.1,3.3-11.3l5.6-16.2l5.5-0.1l2.8,33.3l-4.2,0.1L709.6,300.1z"/>
	<path d="M725.1,281.1l0.7,33.3l-4.3,0.1l-0.7-33.3L725.1,281.1z"/>
</g>
</svg>
