<?xml version="1.0" encoding="utf-8"?>
<!-- Generator: Adobe Illustrator 24.0.2, SVG Export Plug-In . SVG Version: 6.00 Build 0)  -->
<svg version="1.1" id="Слой_2" xmlns="http://www.w3.org/2000/svg" xmlns:xlink="http://www.w3.org/1999/xlink" x="0px" y="0px"
	 viewBox="0 0 256 256" style="enable-background:new 0 0 256 256;" xml:space="preserve">
<style type="text/css">
	.st0{fill:none;stroke:#000000;stroke-width:5;stroke-miterlimit:10;}
	.st1{fill:none;stroke:#000000;stroke-miterlimit:10;}
</style>
<circle class="st0" cx="126.86" cy="129.03" r="122.97"/>
<circle class="st1" cx="126.86" cy="129.03" r="114.24"/>
<path class="st1" d="M15.75,102.38l12.83,0c2.44,0.01,4.84-0.65,6.94-1.9l6.4-3.81c2.8-1.67,6-2.55,9.27-2.55h42.95"/>
<path class="st1" d="M160.21,94.51l39.85-0.39c3.8,0,7.54,1.01,10.83,2.91l4.18,2.43c3.28,1.9,7,2.9,10.79,2.9h12.1"/>
<path class="st1" d="M125.93,125.96h2.57c17.41,0,31.57-14.03,31.72-31.44l0.03-3.33c0.14-16.4-13.11-29.77-29.51-29.77h-7.7
	c-15.95,0-28.89,12.93-28.89,28.89v3.87C94.13,111.72,108.37,125.96,125.93,125.96z"/>
<path class="st1" d="M110.23,47.84c-3.06,0-5.54-2.48-5.54-5.54c0-3.06,2.48-5.54,5.54-5.54"/>
<path class="st1" d="M141.81,36.76c3.06,0,5.54,2.48,5.54,5.54c0,3.06-2.48,5.54-5.54,5.54"/>
<line class="st1" x1="110.23" y1="36.76" x2="141.81" y2="36.76"/>
<line class="st1" x1="110.23" y1="47.84" x2="141.81" y2="47.84"/>
<g>
	<path d="M101.93,203.95c0.78-0.12,1.71-0.21,2.73-0.21c1.85,0,3.16,0.43,4.03,1.24c0.89,0.81,1.4,1.96,1.4,3.57
		c0,1.62-0.5,2.95-1.43,3.87c-0.93,0.93-2.47,1.43-4.4,1.43c-0.92,0-1.68-0.04-2.33-0.12V203.95z M103.22,212.75
		c0.32,0.06,0.8,0.07,1.3,0.07c2.75,0,4.24-1.54,4.24-4.22c0.01-2.35-1.31-3.84-4.03-3.84c-0.66,0-1.17,0.06-1.51,0.13V212.75z"/>
	<path d="M111.73,208.85c0-0.84-0.02-1.56-0.06-2.23h1.14l0.04,1.4h0.06c0.32-0.96,1.11-1.57,1.98-1.57c0.15,0,0.25,0.01,0.37,0.04
		v1.23c-0.13-0.03-0.27-0.04-0.44-0.04c-0.92,0-1.57,0.69-1.74,1.67c-0.03,0.18-0.06,0.38-0.06,0.6v3.81h-1.28V208.85z"/>
	<path d="M117.14,210.43c0.03,1.76,1.15,2.48,2.45,2.48c0.93,0,1.49-0.16,1.98-0.37l0.22,0.93c-0.46,0.21-1.24,0.44-2.38,0.44
		c-2.2,0-3.52-1.45-3.52-3.6s1.27-3.85,3.35-3.85c2.33,0,2.95,2.05,2.95,3.37c0,0.27-0.03,0.47-0.04,0.6H117.14z M120.95,209.5
		c0.01-0.83-0.34-2.11-1.8-2.11c-1.31,0-1.89,1.21-1.99,2.11H120.95z"/>
	<path d="M127.78,213.77l-0.1-0.9h-0.04c-0.4,0.56-1.17,1.06-2.19,1.06c-1.45,0-2.19-1.02-2.19-2.05c0-1.73,1.54-2.67,4.3-2.66
		v-0.15c0-0.59-0.16-1.65-1.62-1.65c-0.67,0-1.36,0.21-1.86,0.53l-0.29-0.86c0.59-0.38,1.45-0.64,2.35-0.64
		c2.19,0,2.72,1.49,2.72,2.92v2.67c0,0.62,0.03,1.23,0.12,1.71H127.78z M127.58,210.13c-1.42-0.03-3.03,0.22-3.03,1.61
		c0,0.84,0.56,1.24,1.23,1.24c0.93,0,1.52-0.59,1.73-1.2c0.04-0.13,0.07-0.28,0.07-0.41V210.13z"/>
	<path d="M130.94,208.56c0-0.74-0.02-1.34-0.06-1.94h1.14l0.06,1.15h0.04c0.4-0.68,1.06-1.31,2.25-1.31c0.97,0,1.71,0.59,2.02,1.43
		h0.03c0.22-0.4,0.5-0.71,0.8-0.93c0.43-0.32,0.9-0.5,1.58-0.5c0.95,0,2.35,0.62,2.35,3.1v4.21h-1.27v-4.05c0-1.37-0.5-2.2-1.55-2.2
		c-0.74,0-1.31,0.55-1.54,1.18c-0.06,0.18-0.1,0.41-0.1,0.65v4.42h-1.27v-4.28c0-1.14-0.5-1.96-1.49-1.96c-0.81,0-1.4,0.65-1.61,1.3
		c-0.07,0.19-0.1,0.41-0.1,0.64v4.31h-1.27V208.56z"/>
	<path d="M143.99,210.43c0.03,1.76,1.15,2.48,2.45,2.48c0.93,0,1.49-0.16,1.98-0.37l0.22,0.93c-0.46,0.21-1.24,0.44-2.38,0.44
		c-2.2,0-3.52-1.45-3.52-3.6s1.27-3.85,3.35-3.85c2.33,0,2.95,2.05,2.95,3.37c0,0.27-0.03,0.47-0.04,0.6H143.99z M147.8,209.5
		c0.01-0.83-0.34-2.11-1.8-2.11c-1.31,0-1.89,1.21-1.99,2.11H147.8z"/>
</g>
<rect x="110.56" y="40.85" class="st1" width="4.11" height="3.83"/>
<circle class="st1" cx="126.02" cy="42.5" r="2.15"/>
<polygon class="st1" points="141.41,41.17 141.76,42.24 142.88,42.24 141.97,42.9 142.32,43.96 141.41,43.3 140.51,43.96 
	140.85,42.9 139.95,42.24 141.07,42.24 "/>
<line class="st0" x1="186.99" y1="10.01" x2="189.19" y2="23.01"/>
<line class="st0" x1="253.62" y1="87.74" x2="241.1" y2="83.43"/>
</svg>
