<?xml version="1.0" encoding="UTF-8" standalone="no"?>
<!-- Generator: Adobe Illustrator 21.0.0, SVG Export Plug-In . SVG Version: 6.00 Build 0)  -->

<svg
   version="1.1"
   id="Layer_1"
   x="0px"
   y="0px"
   viewBox="0 0 117.4 207.2"
   style="enable-background:new 0 0 117.4 207.2;"
   xml:space="preserve"
   sodipodi:docname="icon.svg"
   inkscape:version="1.3.2 (091e20e, 2023-11-25, custom)"
   xmlns:inkscape="http://www.inkscape.org/namespaces/inkscape"
   xmlns:sodipodi="http://sodipodi.sourceforge.net/DTD/sodipodi-0.dtd"
   xmlns="http://www.w3.org/2000/svg"
   xmlns:svg="http://www.w3.org/2000/svg"><defs
   id="defs2" /><sodipodi:namedview
   id="namedview2"
   pagecolor="#ffffff"
   bordercolor="#666666"
   borderopacity="1.0"
   inkscape:showpageshadow="2"
   inkscape:pageopacity="0.0"
   inkscape:pagecheckerboard="0"
   inkscape:deskcolor="#d1d1d1"
   showgrid="false"
   inkscape:zoom="2.0015354"
   inkscape:cx="329.24724"
   inkscape:cy="282.5331"
   inkscape:window-width="2560"
   inkscape:window-height="1369"
   inkscape:window-x="-8"
   inkscape:window-y="-8"
   inkscape:window-maximized="1"
   inkscape:current-layer="g2" />
<g
   id="g2">
	<path
   id="path1"
   d="M 58.699219 0.90039062 C 50.299227 0.90039062 41.899992 1.3000007 33.5 2 C 26.000008 2.7999992 18.299602 3.7007834 11.099609 5.8007812 C 8.5996119 6.5007805 6.1003884 7.4007826 3.9003906 8.8007812 C 2.6003919 9.8007803 1.2992187 11.000783 1.1992188 12.800781 L 1.1992188 15.099609 L 1.1992188 31.300781 L 1.1992188 58.900391 L 1.1992188 92.699219 L 1.1992188 127.69922 L 1.1992188 158.69922 L 1.1992188 180.59961 L 1.1992188 186.59961 C 1.1992188 188.09961 1.1000009 189.5 2 191 C 2.2999997 191.5 2.6992193 192.00039 3.1992188 192.40039 C 3.4992184 192.70039 4.1007815 193.00039 4.3007812 193.40039 C 4.5007811 193.80039 4.6003909 194.29922 4.9003906 194.69922 C 5.50039 195.59922 6.2992197 196.39961 7.1992188 197.09961 C 9.6992163 198.89961 12.699612 200.1 15.599609 201 C 24.399601 203.8 33.800009 204.99922 43 205.69922 C 53.799989 206.49922 64.69962 206.49961 75.599609 205.59961 C 84.6996 204.89961 93.999227 203.69922 102.69922 200.69922 C 105.49922 199.69922 108.50078 198.59961 110.80078 196.59961 C 111.60078 195.89961 112.40078 195.19922 112.80078 194.19922 C 113.10078 193.59922 113.19922 193.19922 113.69922 192.69922 C 114.49922 191.99922 115.29922 191.1 115.69922 190 C 116.19922 188.8 116.09961 187.49922 116.09961 186.19922 L 116.09961 170.5 L 116.09961 143.19922 L 116.09961 109.5 L 116.09961 74.5 L 116.09961 43.300781 L 116.09961 21 L 116.09961 14.800781 C 116.09961 14.000782 116.19961 13.20039 116.09961 12.400391 C 115.89961 10.600392 114.30039 9.3999991 112.90039 8.5 C 110.60039 7.1000014 108 6.2996087 105.5 5.5996094 C 98.100007 3.4996115 90.400774 2.6003899 82.800781 1.9003906 C 74.800789 1.3003912 66.799211 0.90039062 58.699219 0.90039062 z M 56.25 4.0742188 C 62.399994 4.0242188 68.549225 4.1996098 74.699219 4.5996094 C 83.999209 5.0996089 93.400009 6.0007835 102.5 8.3007812 C 105.2 9.0007805 108.00039 9.7996107 110.40039 11.099609 C 111.60039 11.799609 113.50078 12.800002 113.30078 14.5 C 113.10078 15.499999 111.99961 16.300782 111.09961 16.800781 C 111.69961 15.600782 111.39961 14.40039 110.59961 13.400391 C 109.09961 11.700392 106.69961 10.799999 104.59961 10 C 101.29961 8.8000012 97.899997 8.0999994 94.5 7.5 C 87.200007 6.2000013 79.700774 5.499609 72.300781 5.0996094 C 67.900786 4.8996096 63.499995 4.8007813 59 4.8007812 C 46.000013 4.8007812 32.600768 5.3992216 19.800781 8.1992188 C 17.300784 8.7992181 14.800388 9.4003916 12.400391 10.400391 C 10.000393 11.30039 4.8003927 13.699613 6.9003906 17.099609 C 5.6003919 16.39961 3.4992195 15.200389 4.1992188 13.400391 C 4.3992186 12.800391 5.0000005 12.30039 5.5 11.900391 C 7.3999981 10.500392 9.8000022 9.6996088 12 9.0996094 C 20.299992 6.5996119 29.10079 5.6003899 37.800781 4.9003906 C 43.950775 4.4003911 50.100006 4.1242187 56.25 4.0742188 z M 52.787109 6.1875 C 55.074607 6.15 57.349612 6.1492188 59.599609 6.1992188 C 71.299598 6.1992188 83.09923 6.8000022 94.699219 9 C 97.199216 9.4999995 99.699612 10.000782 102.09961 10.800781 C 103.99961 11.400781 106.30078 12.100001 107.80078 13.5 C 111.20078 16.799997 100.99922 19.300782 99.199219 19.800781 C 88.29923 22.500779 76.899208 23.3 65.699219 23.5 C 54.69923 23.8 43.70077 23.499217 32.800781 22.199219 C 27.000787 21.499219 21.000385 20.700389 15.400391 18.900391 C 14.200392 18.500391 13.00039 18.099609 11.900391 17.599609 C 10.900392 17.09961 9.6996088 16.499608 9.0996094 15.599609 C 7.9996105 13.599611 11.600392 12.099609 12.900391 11.599609 C 17.000387 9.999611 21.500786 9.2003898 25.800781 8.4003906 C 32.500775 7.3003917 39.200397 6.7003903 45.900391 6.4003906 C 48.200388 6.3003907 50.499612 6.225 52.787109 6.1875 z M 113.40039 16.699219 L 113.40039 21.900391 L 113.40039 35.699219 L 113.40039 55.300781 L 113.40039 78.099609 L 113.40039 101.30078 L 113.40039 122.09961 L 113.40039 138 L 113.40039 140.39258 L 113.41211 140.39258 L 113.41211 160.75195 L 113.19922 160.75195 L 113.19922 162 L 113.19922 183.30078 C 113.19922 184.90078 113.29922 186.60078 113.19922 188.30078 C 113.19922 189.30078 112.50078 189.99922 111.80078 190.69922 C 110.30078 192.09922 108.3 193.00078 106.5 193.80078 C 103.4 195.10078 100.20039 196.00078 96.900391 196.80078 C 86.200401 199.30078 75.099598 200.10078 64.099609 200.30078 C 62.399611 200.20078 60.499217 200.19922 58.699219 200.19922 C 46.899231 200.19922 34.999989 199.60078 23.5 197.30078 C 19.900004 196.60078 16.199215 195.70039 12.699219 194.40039 C 10.499221 193.60039 8.3007792 192.70078 6.3007812 191.30078 C 5.4007822 190.60078 4.1999998 189.7 4 188.5 C 3.8000002 187.4 4 186.1 4 185 L 4 164.69922 L 4 160.75195 L 3.9960938 160.75195 L 3.9960938 140.39258 L 4 140.39258 L 4 130.69922 L 4 111.90039 L 4 89.400391 L 4 66.199219 L 4 44.699219 L 4 27.800781 L 4 18.199219 L 4 16.900391 C 6.8999971 19.400388 13.600396 21.200782 19.400391 22.300781 C 31.800378 24.700779 44.599231 25.400391 57.199219 25.400391 C 70.099206 25.500391 83.200013 24.899607 96 22.599609 C 99.199997 21.99961 102.49961 21.40039 105.59961 20.400391 C 108.29961 19.600391 111.30039 18.599217 113.40039 16.699219 z M 6.8007812 195 C 11.800776 197.7 17.500005 198.99961 23 200.09961 C 30.299993 201.49961 37.699226 202.29922 45.199219 202.69922 C 60.699203 203.59922 76.600406 203.2 91.900391 200.5 C 98.200384 199.4 104.89962 198 110.59961 195 C 105.39961 200.09999 85.899192 204.90039 58.699219 204.90039 C 31.499246 204.90039 12.000776 200.19999 6.8007812 195 z " />
	
</g>
</svg>
