<?xml version="1.0" encoding="utf-8"?>
<!-- Generator: Adobe Illustrator 24.0.2, SVG Export Plug-In . SVG Version: 6.00 Build 0)  -->
<svg version="1.1" id="Слой_2" xmlns="http://www.w3.org/2000/svg" xmlns:xlink="http://www.w3.org/1999/xlink" x="0px" y="0px"
	 viewBox="0 0 256 256" style="enable-background:new 0 0 256 256;" xml:space="preserve">
<style type="text/css">
	.st0{fill:none;stroke:#000000;stroke-width:5;stroke-miterlimit:10;}
	.st1{fill:none;stroke:#000000;stroke-miterlimit:10;}
</style>
<path class="st0" d="M103.31,22.49c-34.15,0-61.83-4.11-61.83-9.18s27.68-9.18,61.83-9.18"/>
<path class="st0" d="M103.31,248.04c-34.15,0-61.83-8.06-61.83-13.14"/>
<path class="st0" d="M161.62,4.12c34.15,0,61.83,4.11,61.83,9.18s-27.68,9.18-61.83,9.18"/>
<path class="st0" d="M223.45,234.9c0,5.07-27.68,13.14-61.83,13.14"/>
<line class="st0" x1="103.31" y1="4.12" x2="161.62" y2="4.12"/>
<line class="st0" x1="103.31" y1="22.49" x2="161.62" y2="22.49"/>
<path class="st1" d="M103.24,79.41c-34.15,0-61.83-4.11-61.83-9.18"/>
<path class="st1" d="M223.38,70.23c0,5.07-27.68,9.18-61.83,9.18"/>
<line class="st1" x1="103.24" y1="79.41" x2="161.55" y2="79.41"/>
<path class="st1" d="M103.31,84c-34.15,0-61.83-4.11-61.83-9.18"/>
<path class="st1" d="M223.45,74.82c0,5.07-27.68,9.18-61.83,9.18"/>
<line class="st1" x1="103.31" y1="84" x2="161.62" y2="84"/>
<path class="st1" d="M103.31,88.6c-34.15,0-61.83-4.11-61.83-9.18"/>
<path class="st1" d="M223.45,79.41c0,5.07-27.68,9.18-61.83,9.18"/>
<line class="st1" x1="103.31" y1="88.6" x2="161.62" y2="88.6"/>
<path class="st1" d="M103.31,93.19c-34.15,0-61.83-4.11-61.83-9.18"/>
<path class="st1" d="M223.45,84c0,5.07-27.68,9.18-61.83,9.18"/>
<line class="st1" x1="103.31" y1="93.19" x2="161.62" y2="93.19"/>
<path class="st1" d="M103.24,97.78c-34.15,0-61.83-4.11-61.83-9.18"/>
<path class="st1" d="M223.38,88.6c0,5.07-27.68,9.18-61.83,9.18"/>
<line class="st1" x1="103.24" y1="97.78" x2="161.55" y2="97.78"/>
<path class="st1" d="M103.31,102.96c-34.15,0-61.83-4.11-61.83-9.18"/>
<path class="st1" d="M223.45,93.78c0,5.07-27.68,9.18-61.83,9.18"/>
<line class="st1" x1="103.31" y1="102.96" x2="161.62" y2="102.96"/>
<path class="st1" d="M103.31,107.56c-34.15,0-61.83-4.11-61.83-9.18"/>
<path class="st1" d="M223.45,98.37c0,5.07-27.68,9.18-61.83,9.18"/>
<line class="st1" x1="103.31" y1="107.56" x2="161.62" y2="107.56"/>
<path class="st1" d="M103.31,111.55c-34.15,0-61.83-4.11-61.83-9.18"/>
<path class="st1" d="M223.45,102.37c0,5.07-27.68,9.18-61.83,9.18"/>
<line class="st1" x1="103.31" y1="111.55" x2="161.62" y2="111.55"/>
<path class="st1" d="M103.24,116.15c-34.15,0-61.83-4.11-61.83-9.18"/>
<path class="st1" d="M223.38,106.96c0,5.07-27.68,9.18-61.83,9.18"/>
<line class="st1" x1="103.24" y1="116.15" x2="161.55" y2="116.15"/>
<path class="st1" d="M103.31,120.74c-34.15,0-61.83-4.11-61.83-9.18"/>
<path class="st1" d="M223.45,111.55c0,5.07-27.68,9.18-61.83,9.18"/>
<line class="st1" x1="103.31" y1="120.74" x2="161.62" y2="120.74"/>
<path class="st1" d="M103.31,125.33c-34.15,0-61.83-4.11-61.83-9.18"/>
<path class="st1" d="M223.45,116.15c0,5.07-27.68,9.18-61.83,9.18"/>
<line class="st1" x1="103.31" y1="125.33" x2="161.62" y2="125.33"/>
<line class="st0" x1="223.45" y1="13.3" x2="223.45" y2="234.9"/>
<line class="st0" x1="41.48" y1="13.3" x2="41.48" y2="234.9"/>
<line class="st0" x1="103.31" y1="248.04" x2="161.62" y2="248.04"/>
<path class="st0" d="M106.19,251.88c-30.96,0-56.06-6.17-56.06-11.25"/>
<path class="st0" d="M215.87,240.24c0,5.07-25.84,11.64-56.81,11.64"/>
<line class="st0" x1="106.19" y1="251.88" x2="159.06" y2="251.88"/>
<circle class="st1" cx="132.39" cy="194.07" r="5.95"/>
<circle class="st1" cx="124.14" cy="188.84" r="0.24"/>
<circle class="st1" cx="132.7" cy="184" r="0.31"/>
<circle class="st1" cx="141.05" cy="188.96" r="0.12"/>
<polyline class="st1" points="135.14,219.27 135.21,217.61 132.47,219.13 129.88,217.89 129.95,221.42 "/>
<path class="st1" d="M135.05,221.75c0,1.43-1.16,2.59-2.59,2.59s-2.59-1.16-2.59-2.59"/>
<line class="st1" x1="135.17" y1="220.24" x2="135.17" y2="221.7"/>
<ellipse class="st1" cx="195.99" cy="13.3" rx="12.66" ry="1.81"/>
</svg>
