<?xml version="1.0" encoding="utf-8"?>
<!-- Generator: Adobe Illustrator 21.1.0, SVG Export Plug-In . SVG Version: 6.00 Build 0)  -->
<svg version="1.1" id="Laag_1" xmlns="http://www.w3.org/2000/svg" xmlns:xlink="http://www.w3.org/1999/xlink" x="0px" y="0px"
	 viewBox="0 0 455.7 534.8" style="enable-background:new 0 0 455.7 534.8;" xml:space="preserve">
<g id="_x23_f1ece9ff">
</g>
<path d="M142.4,1.1c6.7-0.4,13.3-1.2,20-1c27,1,53.5,6.4,80,11.2c28.6,4.7,57,10.4,85.7,14.3c19.4,3.9,39,7,58.5,10.3
	c19,3.8,38.2,6.3,57.2,9.9c3.1,0.7,6.5,1.2,9.1,3.2c1.5,4.7,0.7,9.7,0.8,14.5c0,54,0,108,0,162c0,4.7,0.6,9.3,0.8,13.9
	c0.2,81.7,0.1,163.3,0.2,245c-0.5,13,1.9,26,0.5,39c-8.2,2.4-16.8,0.8-25.1,1.7c-8.2,0.9-16.5,0.3-24.8,1.1c-9.3,0.9-18.7,0.2-28,1
	c-9,0.8-18.1,0.1-27.1,1c-9,0.9-18,0-27,0.9c-8,0.8-16,0.3-24,1c-6,0.6-12,0.6-18,0.6c-7.7-0.1-15.3,1-23,1c-9-0.1-18,1.4-27,1
	c-9-0.4-18,1.2-27,1c-8.7-0.3-17.3,1.3-26,1c-15.5-0.3-31,0.5-46.5-0.8c-6.5-0.5-13.1,0-19.6-0.6c-8.7-0.9-17.5-0.5-26.2-1.5
	c-20.3-0.5-40.5-1.9-60.8-2.6c-8.3-1-16.9,0.2-25.1-1.9c-0.7-14,0.3-28,0-42c-0.3-7.7,0.8-15.3,0.8-23c-0.1-28.3,0.1-56.7,0-85
	c0-6,0.9-12,0.9-18c-0.1-30.3,0-60.7,0.1-91c0-6,0.8-12,0.9-18c0-38.7,0-77.3,0.2-116c0-7.3,0.8-14.7,0.8-22
	c-0.1-26.7,0.1-53.3,0-80c0.1-2.7-0.1-5.7,1.2-8.2c2.2-2.1,5.4-2.4,8.2-3.1C44.7,15.7,76.2,11,107.6,5.5
	C119.2,4.2,130.7,1.7,142.4,1.1 M111,7.4c-10.8,1.9-21.6,3.5-32.4,5.4c-20.9,3.5-41.9,6.4-62.7,10.2c-3.1,0.6-6.1,1.6-9,2.7
	c0,37.6-0.4,75.1-1,112.7c-0.1,22.3,0,44.7-0.5,67c0.3,10-0.3,20-0.5,30c-0.1,27.7,0,55.3-0.2,83c0,5.7-0.6,11.3-0.7,17
	c-0.3,38.7,0.2,77.4-0.6,116c0,24.9-0.8,49.7-0.5,74.5c8.9,0.5,17.8,1.3,26.7,1.2c11.3,1,22.6,0.8,33.9,1.9
	c10.1-0.3,20,1.3,30.1,1.1c7.4-0.1,14.6,1.2,22,1c9.4-0.2,18.6,1.4,28,1c21.3-0.3,42.7,0.9,64-0.9c6.5-0.2,13,0.2,19.6-0.4
	c10.8-1.2,21.6-0.1,32.4-1.5c12,0,24-1.3,36.1-1.2c8,0,16-1.3,24-1c9.3,0.4,18.6-1.3,28-1c8.7,0.3,17.3-1.3,26-1
	c8.7,0.2,17.3-1.3,26-1c7.4,0.3,14.7-0.9,22-1c10.5,0.2,20.9-1.1,31.4-1.2c0.3-4,0.4-8.1,0.2-12.1c-5.6-0.2-11.2,0-16.7,0.5
	c-10,0.9-20,0-30,1c-10,1-20,0-30,1c-9,0.9-18,0.1-27,1c-10.6,1.1-21.4-0.1-32,1c-9,0.9-18.1,0-27.1,0.9c-6.9,0.7-13.9,0.6-20.8,0.5
	c-7.4-0.1-14.6,1.2-22,1c-6-0.1-12-0.1-18,0.5c-9,0.9-18.1,0-27.2,0.9c-8.9,0.9-17.8,0.5-26.8,0.7c-3.7-0.1-8,0.2-11-2.5
	c-3.6-3.2-4.3-8.4-4.4-12.9c0.2-43,0-86,0.5-129c0.3-33.3-0.1-66.7,0.5-100c0-20,0-40,0-60c0.7-8.3,1.1-16.6,0.8-25
	c0.1-54,0.1-108,0.1-162.1c0.1-3.2,0.7-6.8,3.3-9c2.4-2.3,6-2.4,9.1-2.1c44.4,7.1,88.8,14.3,133.1,22c3.4,0.7,6.9,0.8,10.4,0.8
	c0.4-4.3,0.4-8.6,0-12.8c-32.9-5-65.6-11.2-98.4-16.7c-20.5-3.8-41.2-7.3-62.1-6.8C141.8,2.2,126.4,5.5,111,7.4 M170.2,22.3
	c-2.2,2.5-2.2,6-2.4,9.2c-0.1,60.7,0.1,121.3-0.2,182c-0.7,49.7-0.1,99.3-0.8,149c0.1,47.4-0.2,94.7-0.4,142.1
	c-0.3,3.9,2,8.1,6.3,8.4c8.9,0.6,17.8,0.3,26.7-0.6c8.8-0.7,17.6,0.3,26.4-0.7c6.2-0.7,12.4-0.6,18.7-0.5c6,0.1,12-0.9,18-1
	c8.7-0.2,17.5,0.4,26.2-0.5c10.3-1.1,20.7,0.2,31-0.9c11.3-1.2,22.7,0.2,34-1c10-1.2,20.1,0.2,30.1-1c7.9-0.9,15.8-0.4,23.7-0.5
	c7.3,0,14.6-1.1,22-1c7.5-0.1,15.1,0.7,22.5-1.2c1.5-7.8,0.5-15.6,0.7-23.5c0.3-15.7-0.5-31.3-0.2-47c0.3-13.7-0.2-27.3,0-41
	c-0.4-49.8,0.1-99.6-0.4-149.4c-0.3-51.2-0.4-102.4-0.8-153.6c-0.2-6.5,0.5-13.1-0.4-19.6c-0.4-3.3-4.3-4-7-4.6
	c-48.8-7.6-97.4-16.4-146.1-23.9c-23.4-4.2-46.9-7.6-70.3-11.7c-15.4-3.2-31.2-4.6-46.7-7.3C177.2,21.9,173.5,21.2,170.2,22.3
	 M320.7,26.7c-0.1,4.1-0.1,8.3,0.1,12.4c2.3,0.3,4.6,0.6,7,1c0.4-4,0.4-8,0-12C325.4,27.7,323.1,27.2,320.7,26.7 M330.8,28.6
	c-0.3,4.3-0.1,8.7,0.3,13c15.2,3.5,30.7,5.1,46,7.8c15.1,2.4,30.2,5.4,45.3,7.7c9.6,1.5,19.4,2.8,28.6,5.9
	c-0.1-4.2,0.7-8.7-0.6-12.8c-1.5-1-3.2-1.4-4.9-1.8c-13.6-2.7-27.4-4.6-41.1-7C380,37,355.3,33,330.8,28.6z"/>
<path d="M401.7,103.9c5.1-0.7,10.2,2.1,12.6,6.6c4.5,8.5,5.5,19.2,1.1,28c-1.4,2.8-3.4,5.6-6.6,6.5c-5.1,1.4-10.6-1.3-13.4-5.5
	c-4.6-7.2-5.8-16.5-3.8-24.8C392.9,109.8,396.4,104.8,401.7,103.9 M402.7,105.9c-5.4,1.1-8.2,6.8-8.9,11.7c-0.8,7.4,0,15.6,4.9,21.5
	c2.5,3.1,7.4,5.2,10.9,2.5c4.2-3.4,5.6-9.1,5.9-14.2c0.1-6.5-1.1-13.6-5.8-18.3C407.8,107.4,405.4,105.6,402.7,105.9z"/>
<path d="M196.7,426.7c5.3-1.4,11,1,14.5,5.1c8,10,8.9,24.9,2.3,35.8c-2.9,4.9-8,9-14,8.6c-7,0-12.2-6-15-11.9
	c-4.1-8-3.8-17.7-0.2-25.8C186.6,433.1,191,428.3,196.7,426.7 M197.9,429c-4.6,1.4-8.4,5.1-10.4,9.5c-1.1,3.3,0.6,6.8,0.8,10.1
	c0.8,4.6-1.2,9.1-1.3,13.7c0.4,3.1,2.7,5.7,4.8,7.9c3.3,3.7,9.1,4.1,13.4,2.1c5.8-3.5,9.2-10.2,9.8-16.9c0.7-7.4-0.3-15.4-5.2-21.3
	C207,430.6,202.4,427.9,197.9,429z"/>
<path d="M234.7,426.6c6-1.3,12.2,2.3,15,7.5c5.6,10.3,5.6,23.4,0.1,33.7c-2.7,5.1-8.5,8.3-14.3,7.8c-5.6-0.6-10.3-4.8-12.5-9.8
	c-3.6-8.3-4.1-17.9-0.8-26.4C224.2,433.6,228.3,427.8,234.7,426.6 M235.8,429c-7.2,1.4-12.7,9.2-11.6,16.5c0.7,4.6-0.2,9.2-0.2,13.9
	c1.6,4.4,2.6,9.8,7.1,12.2c4.2,2.9,10.1,1.8,13.6-1.7c5.1-5,6.5-12.6,6.4-19.5c0.1-6.4-1.5-13.1-6-17.8
	C242.7,430.3,239.3,428.4,235.8,429z"/>
<path d="M269.7,426.7c6.2-1.5,12.7,2.4,15.4,7.9c5.5,10.6,5.3,24.3-1.3,34.3c-3.6,5.7-11.7,7.6-17.6,4.6c-5.4-3-8.4-8.9-9.5-14.8
	c-2-8.2-0.5-17,3.5-24.4C262.3,430.8,265.6,427.7,269.7,426.7 M271.7,429c-7.5,1.3-12.1,9.2-12.1,16.4c0,7.4-1.4,15.8,3.7,22.1
	c2.8,4.7,9.2,6.1,13.9,3.8c4.9-2.7,7.7-8,8.5-13.4c1.1-7.6,1-15.9-3.2-22.6C280.4,431.5,276.2,428.5,271.7,429z"/>
<path d="M305.7,426.7c5.7-0.8,11.1,2.9,13.6,7.8c3.5,6.6,4.5,14.4,3.2,21.8c-0.7,4.9-2.2,9.9-5.8,13.6c-3.1,3.3-7.7,5.5-12.3,4.5
	c-4.4-0.9-8-4.2-10-8.1c-5.4-10.3-4.6-23.3,1.3-33.2C298,429.5,301.7,427.2,305.7,426.7 M303.8,429.9c-3.5,1.1-5.9,4.3-7.4,7.5
	c-3.2,6.5-3.4,14.1-2,21.1c1.1,5.2,4.1,10.4,9,12.8c4.1,2,8.8-0.2,11.6-3.3c4.5-4.7,5.4-11.5,5.4-17.7c-0.1-6.4-1.3-13.3-5.9-18.1
	C311.9,429.4,307.5,428.9,303.8,429.9z"/>
<path d="M340.6,426.8c6.1-0.2,11,4.9,13.2,10.2c2.5,6.8,3.7,14.3,1.7,21.4c-1.4,5.9-4.5,12.3-10.6,14.7c-5.7,2.4-12.4-0.6-15.5-5.7
	c-6.5-10.1-5.6-23.7,0-34C331.5,429.3,336,426.8,340.6,426.8 M337.8,429.9c-3.5,1.1-6,4.2-7.5,7.4c-2.6,5.8-3.1,12.3-2.3,18.5
	c0.8,4.9,2.5,10.1,6.6,13.3c3.8,3.2,10.1,2.5,13.4-1.1c4.1-4.1,5.2-10.1,5.6-15.7c0.6-6.7-1-13.8-5.1-19.1
	C346.1,430,341.6,428.8,337.8,429.9z"/>
<path d="M368.7,427.7c5-1.9,11.2-0.5,14.3,4.1c6.4,8.9,7.4,21.2,3.1,31.3c-1.9,5.1-6.3,9.6-11.9,10.3c-5.2,0.3-10.1-3.1-12.5-7.6
	c-4.2-7.4-4.9-16.6-2.8-24.7C360.5,435.8,363.2,429.9,368.7,427.7 M369.8,430c-2.8,0.9-4.5,3.5-5.9,6c-3.6,6.5-4,14.3-2.6,21.5
	c0.9,4.4,2.8,8.8,6.5,11.4c2.6,1.7,6.3,2.8,9.2,1.1c5.3-2.8,7.7-8.8,8.6-14.4c1.3-7.8,0.1-16.4-4.8-22.7
	C378.3,429.7,373.7,428.8,369.8,430z"/>
<path d="M401.6,427.6c4.1-1.4,8.8-0.3,11.7,2.9c6.3,6.2,7.1,15.7,6.4,24c-0.5,6.8-3.5,14.2-9.9,17.4c-5.8,2.7-13-0.5-15.9-6
	c-4.3-8.1-5.1-18.1-2.1-26.8C393.4,434.2,396.3,429,401.6,427.6 M402.8,429.9c-3.4,0.8-5.7,3.8-7.1,6.8c-3.7,8.1-3.9,17.7-0.5,25.9
	c1.4,3,3.6,5.8,6.7,7.1c3.5,1.2,7.7,0.3,10.2-2.6c4.4-4.8,5.2-11.6,5.1-17.8c0-6.1-1.1-12.8-5.7-17.2
	C409.3,429.9,405.9,429.1,402.8,429.9z"/>
<path d="M431.8,427.8c3.2-1.5,7.2-0.9,10,1.2c3.7,2.7,5.5,7.2,6.7,11.5c2.2,7.9,1.5,16.6-1.9,24c-1.9,4.3-6.2,8-11.1,7.7
	c-4.8-0.3-8.7-4-10.7-8.2c-3.2-6.6-4.4-14.4-2.5-21.6C423.6,436.8,426.3,430.6,431.8,427.8 M433.9,430c-3.9,1.4-6.4,5.2-7.9,8.9
	c-2.2,6.3-2.2,13.2-0.6,19.7c1.3,5,4.8,10.3,10.2,11.3c4.1-0.1,7.3-3.7,9-7.2c3.6-8.7,3.1-19-0.9-27.5
	C442,431.5,437.9,428.6,433.9,430z"/>
</svg>
