<?xml version="1.0" encoding="UTF-8" standalone="no"?>
<svg
   data-name="Layer 1"
   viewBox="0 0 312.88971 487.00275"
   x="0px"
   y="0px"
   version="1.1"
   id="svg226"
   sodipodi:docname="icon.svg"
   width="312.88971"
   height="487.00275"
   inkscape:version="1.2.1 (9c6d41e410, 2022-07-14)"
   xmlns:inkscape="http://www.inkscape.org/namespaces/inkscape"
   xmlns:sodipodi="http://sodipodi.sourceforge.net/DTD/sodipodi-0.dtd"
   xmlns="http://www.w3.org/2000/svg"
   xmlns:svg="http://www.w3.org/2000/svg">
  <defs
     id="defs230" />
  <sodipodi:namedview
     id="namedview228"
     pagecolor="#ffffff"
     bordercolor="#666666"
     borderopacity="1.0"
     inkscape:showpageshadow="2"
     inkscape:pageopacity="0.0"
     inkscape:pagecheckerboard="0"
     inkscape:deskcolor="#d1d1d1"
     showgrid="false"
     inkscape:zoom="1.821875"
     inkscape:cx="138.31904"
     inkscape:cy="307.37564"
     inkscape:window-width="2560"
     inkscape:window-height="1369"
     inkscape:window-x="-8"
     inkscape:window-y="-8"
     inkscape:window-maximized="1"
     inkscape:current-layer="svg226" />
  <path
     d="m 225.79896,44.997839 a 11.86833,11.86833 0 1 0 16.06652,4.85645 11.8682,11.8682 0 0 0 -16.06652,-4.85645 z"
     id="path182" />
  <path
     d="m 139.61719,91.171199 a 11.86854,11.86854 0 1 0 16.06653,4.85645 11.86822,11.86822 0 0 0 -16.06653,-4.85645 z"
     id="path184" />
  <path
     d="m 53.435433,137.34454 a 11.86854,11.86854 0 1 0 16.06653,4.85694 11.8689,11.8689 0 0 0 -16.06653,-4.85694 z"
     id="path186" />
  <path
     d="m 237.00883,213.79962 a 11.86833,11.86833 0 1 0 -16.0664,-4.85644 11.86835,11.86835 0 0 0 16.0664,4.85644 z"
     id="path188" />
  <path
     d="m 150.82715,259.97345 a 11.86854,11.86854 0 1 0 -16.06665,-4.85693 11.86875,11.86875 0 0 0 16.06665,4.85693 z"
     id="path190" />
  <path
     d="m 64.645273,306.14684 a 11.86854,11.86854 0 1 0 -16.06653,-4.85645 11.86837,11.86837 0 0 0 16.06653,4.85645 z"
     id="path192" />
  <path
     d="m 173.27259,395.82648 a 11.86854,11.86854 0 1 0 -16.06653,-4.85645 11.86833,11.86833 0 0 0 16.06653,4.85645 z"
     id="path194" />
  <path
     d="m 259.45435,349.65314 a 11.86854,11.86854 0 1 0 -16.06653,-4.85694 11.86894,11.86894 0 0 0 16.06653,4.85694 z"
     id="path196" />
  <path
     d="m 87.090833,441.99984 a 11.86833,11.86833 0 1 0 -16.06653,-4.85645 11.86825,11.86825 0 0 0 16.06653,4.85645 z"
     id="path198" />
  <path
     d="m 172.79395,164.62189 h 32.52 a 3.5,3.5 0 0 0 0,-7 h -32.52 a 3.5,3.5 0 0 0 0,7 z"
     id="path200" />
  <path
     d="m 104.07569,177.99689 a 3.50017,3.50017 0 0 0 3.5,3.5 h 32.52 a 3.5,3.5 0 0 0 0,-7 h -32.52 a 3.50017,3.50017 0 0 0 -3.5,3.5 z"
     id="path202" />
  <path
     d="m 311.73096,25.535949 -10.918,-20.3789105 a 9.77283,9.77283 0 0 0 -13.23046,-3.998 l -16.719,8.9575205 A 8.908,8.908 0 0 0 260.6533,8.8582585 L 21.698253,136.88263 a 3.50022,3.50022 0 0 0 -1.84717,3.085 v 53.91992 a 3.50006,3.50006 0 0 0 3.5,3.5 H 184.77983 l -163.081537,87.374 a 3.50022,3.50022 0 0 0 -1.84717,3.085 l -4.9e-4,53.91992 a 3.50006,3.50006 0 0 0 3.5,3.5 H 184.78004 L 26.485833,430.07599 a 8.90915,8.90915 0 0 0 -4.60889,9.19678 l -16.7192401,8.95849 a 9.77316,9.77316 0 0 0 -3.999,13.23047 l 10.9184501,20.37891 a 9.71157,9.71157 0 0 0 5.78711,4.73925 9.70672,9.70672 0 0 0 7.44287,-0.74121 l 16.71912,-8.95752 a 8.89441,8.89441 0 0 0 10.21008,1.2583 L 291.19141,350.11505 a 3.50022,3.50022 0 0 0 1.84717,-3.085 v -53.91988 a 3.49,3.49 0 0 0 -3.50122,-3.49561 l 0.001,-0.004 H 128.11011 l 163.08179,-87.374 a 3.50022,3.50022 0 0 0 1.84717,-3.085 v -53.91991 a 3.48993,3.48993 0 0 0 -3.50049,-3.4956 v -0.004 h -161.429 L 286.40383,56.921689 a 8.90755,8.90755 0 0 0 4.60938,-9.19726 l 16.71826,-8.958 a 9.77277,9.77277 0 0 0 3.99951,-13.23047 z M 22.746473,453.15558 a 19.29079,19.29079 0 0 0 -10.16456,14.80469 l -5.2532901,-9.80518 a 2.77309,2.77309 0 0 1 1.13476,-3.75391 l 16.2563501,-8.71045 3.51648,6.564 a 8.771,8.771 0 0 0 -5.48974,0.90085 z M 286.03858,344.93439 48.930183,471.96954 a 1.92981,1.92981 0 0 1 -2.61377,-0.791 L 29.000983,438.8592 a 1.92953,1.92953 0 0 1 0.79,-2.61328 l 256.247557,-137.29 z m -10.44385,-48.32422 -77.74951,41.65625 H 37.294933 L 115.04468,296.61017 Z M 286.03907,197.05548 26.850593,335.92072 26.851083,289.9422 286.03908,151.07696 Z m -10.44434,-48.32422 -77.74951,41.65625 H 37.294933 l 77.749507,-41.65625 z m 8.44043,-99.123001 a 1.9175,1.9175 0 0 1 -0.936,1.14355 h -4.9e-4 L 26.851083,188.04184 V 142.06329 L 263.95948,15.028139 a 1.92981,1.92981 0 0 1 2.61377,0.791 l 17.31592,32.31934 a 1.91489,1.91489 0 0 1 0.14599,1.46974 z m 6.20825,-34.7002 a 18.15792,18.15792 0 0 0 -9.05858,13.36031 l -6.55249,-12.23 16.25635,-8.7094705 a 2.77381,2.77381 0 0 1 3.75439,1.13476 l 2.89063,5.3955105 a 10.13974,10.13974 0 0 0 -7.2903,1.04885 z"
     id="path204" />
  <path
     d="m 201.46483,67.529109 -29.60936,15.86426 a 3.49984,3.49984 0 1 0 3.30567,6.16992 l 29.60937,-15.86425 a 3.4998413,3.4998413 0 1 0 -3.30568,-6.16993 z"
     id="path206" />
  <path
     d="m 115.28321,113.70294 -29.609377,15.86328 a 3.49984,3.49984 0 1 0 3.30567,6.16992 l 29.609327,-15.8633 a 3.4998322,3.4998322 0 1 0 -3.30566,-6.16992 z"
     id="path208" />
  <path
     d="m 109.77491,419.88458 a 3.47981,3.47981 0 0 0 1.6499,-0.416 l 29.60938,-15.86426 a 3.4998345,3.4998345 0 1 0 -3.30567,-6.16992 l -29.60937,15.86424 a 3.50057,3.50057 0 0 0 1.65576,6.58594 z"
     id="path210" />
  <path
     d="m 173.51124,237.85822 a 3.47971,3.47971 0 0 0 1.6499,-0.416 l 29.60937,-15.86426 a 3.4998322,3.4998322 0 1 0 -3.30566,-6.16992 l -29.60938,15.86426 a 3.50057,3.50057 0 0 0 1.65577,6.58594 z"
     id="path212" />
  <path
     d="m 87.329603,284.03107 a 3.47971,3.47971 0 0 0 1.6499,-0.416 l 29.609327,-15.8633 a 3.4998322,3.4998322 0 1 0 -3.30566,-6.16992 l -29.609337,15.86328 a 3.50057,3.50057 0 0 0 1.65577,6.58594 z"
     id="path214" />
  <path
     d="m 195.95655,373.71075 a 3.4812,3.4812 0 0 0 1.6499,-0.416 l 29.60986,-15.86328 a 3.4998322,3.4998322 0 1 0 -3.30566,-6.16992 l -29.60982,15.86329 a 3.50056,3.50056 0 0 0 1.65576,6.58593 z"
     id="path216" />
  <path
     d="m 172.79395,312.50084 h 32.52 a 3.5,3.5 0 0 0 0,-7 h -32.52 a 3.5,3.5 0 0 0 0,7 z"
     id="path218" />
  <path
     d="m 104.07569,325.87584 a 3.50017,3.50017 0 0 0 3.5,3.5 h 32.52 a 3.5,3.5 0 0 0 0,-7 h -32.52 a 3.50017,3.50017 0 0 0 -3.5,3.5 z"
     id="path220" />
</svg>
