<?xml version="1.0" encoding="utf-8"?>
<!-- Svg Vector Icons : http://www.onlinewebfonts.com/icon -->
<!DOCTYPE svg PUBLIC "-//W3C//DTD SVG 1.1//EN" "http://www.w3.org/Graphics/SVG/1.1/DTD/svg11.dtd">
<svg version="1.1" xmlns="http://www.w3.org/2000/svg" xmlns:xlink="http://www.w3.org/1999/xlink" x="0px" y="0px" viewBox="0 0 1000 1000" enable-background="new 0 0 1000 1000" xml:space="preserve">
<metadata> Svg Vector Icons : http://www.onlinewebfonts.com/icon </metadata>
<g><path d="M121.1,953.8V46.2H48.7v907.5c0,20,16.2,36.2,36.2,36.2C104.9,990,121.1,973.8,121.1,953.8V46.2c0-48.3-72.5-48.3-72.5,0v907.5c0,20,16.2,36.2,36.2,36.2C104.9,990,121.1,973.8,121.1,953.8L121.1,953.8z"/><path d="M846.9,531c20.8,34.6,32,74.2,32,115.5c0,124.1-100.6,224.7-224.7,224.7c-124.1,0-224.7-100.6-224.7-224.7c0-41.4,11.1-80.9,31.9-115.5c10.3-17.1,4.8-39.4-12.4-49.7c-17.1-10.3-39.4-4.8-49.7,12.4c-27.5,45.8-42.3,98.2-42.3,152.8c0,164.1,133,297.1,297.1,297.1c164.1,0,297.2-133,297.2-297.1c0-54.6-14.8-107.1-42.3-152.8c-10.3-17.1-32.6-22.7-49.7-12.4C842.1,491.6,836.6,513.8,846.9,531L846.9,531z M910.1,495.7c-2.3-4.4-6.8-12.8-13.5-24.9c-11.1-20-24.7-43.3-40.8-70c-45.9-75.9-103-163-172-259.9c-11.6-16.3-34.2-20.1-50.5-8.5c-16.3,11.6-20.1,34.2-8.5,50.5c68,95.5,124.1,181,169.1,255.4c15.7,25.9,28.8,48.6,39.6,67.8c6.4,11.4,10.4,19,12.4,22.7c9.2,17.8,31,24.8,48.8,15.6C912.2,535.4,919.2,513.5,910.1,495.7L910.1,495.7z M625.1,140.3c-72.5,97.3-130.6,184.7-175.5,260.9c-15.8,26.8-28.9,50.4-39.4,70.6c-6.4,12.3-10.6,20.8-12.7,25.5c-8.3,18.2-0.3,39.7,17.9,48c18.2,8.3,39.7,0.3,48-17.9c1.6-3.5,5.2-11,11.1-22.2c9.9-19,22.3-41.5,37.5-67.2c43.6-74,100.2-159.2,171.1-254.4c12-16,8.7-38.7-7.4-50.7C659.8,120.9,637.1,124.3,625.1,140.3L625.1,140.3z"/><path d="M118.9,373.3H263c20,0,36.2-16.2,36.2-36.2c0-20-16.2-36.2-36.2-36.2H118.9c-20,0-36.2,16.2-36.2,36.2C82.6,357.1,98.9,373.3,118.9,373.3L118.9,373.3z"/><path d="M118.9,780.1H263c20,0,36.2-16.2,36.2-36.2c0-20-16.2-36.2-36.2-36.2H118.9c-20,0-36.2,16.2-36.2,36.2C82.6,763.9,98.9,780.1,118.9,780.1L118.9,780.1z"/></g>
</svg>