<svg id="Layer_1" data-name="Layer 1" xmlns="http://www.w3.org/2000/svg" viewBox="0 0 1000 1000"><title>Yeelight Meteorite</title><path d="M994.76,449.69,983.33,393.6l0-.2,0-.19c-2.64-11.06-12.16-18.54-28.31-22.24-8.59-2-19-2.93-31.84-2.94h-.17a203.91,203.91,0,0,0-42,4.56L633.45,428.91,608.14-7.92l-6,.35,25.37,437.84-30,6.83L573.91-8.07l-12,.64,23.72,447.22L215.9,523.94,243-7.6l-6-.31L209.82,525.32,26.95,566.94l-.43.1-.42.13C24,567.81,13.25,571.86,9.57,588c-2.41,10.56-6.28,37.75-6.44,38.9v.2c-.31,2.48-.24,8.82,7.12,13.95,4.42,3.08,11,5.42,20.67,7.36a125.24,125.24,0,0,0,24.4,2.22,236.19,236.19,0,0,0,28-2l.85-.1c10.82-1.26,777-143.43,864.28-159.64,23.73-4.35,37.11-10.59,43.36-20.23C995.43,463.14,996.42,456.75,994.76,449.69Zm-973.49,141c2.33-10.19,8.34-12,8.34-12l854-194.36A192.48,192.48,0,0,1,922.91,380h.16c16.54,0,45.09,1.7,48.5,16l9.9,48.56q-2.66-1-5.91-1.91c-1.34-.37-2.71-.7-4.2-1-8.62-1.69-18.28-1.73-26.46-1.24H943.8v.08h0v-.08a169.8,169.8,0,0,0-27.65,2.42h-.07C907.38,444.54,45.85,613.53,26.45,617a57.46,57.46,0,0,0-6.58,1.51l-3.53,1.07C17.69,610.52,19.8,597.11,21.27,590.68Zm906-142.19a165.23,165.23,0,0,1,18.11-2.07,87.25,87.25,0,0,1,15.23,1.39c4.9,4,3.07,8.16-1.25,11.07l-1.09.68c-5.47,3.25-14.25,6.38-28.11,9.06,0,0-836.21,158.26-846.73,159.52a222.53,222.53,0,0,1-27,2,109.18,109.18,0,0,1-21.62-2c-2.68-.55-4.94-1.11-6.87-1.66C102.13,612.11,918.75,450.17,927.25,448.49Zm19,28.64S93.53,635.39,82.79,636.64a230.81,230.81,0,0,1-27.5,2,113.28,113.28,0,0,1-22-2c-13.6-2.72-17.07-5.72-17.95-7.17a15.26,15.26,0,0,1,1.9-.71l1.82.87c.45.22.83.37,1.06.46A71.55,71.55,0,0,0,33.63,634a115.17,115.17,0,0,0,22.82,2.1,222.82,222.82,0,0,0,26.83-1.92l.85-.1c10.61-1.27,813-153.12,847.14-159.58,13.54-2.62,23.37-5.82,30.06-9.8l.06,0,.05,0,1.09-.68.09-.06.09-.06c4.21-2.84,6.63-6.58,6.81-10.55a11,11,0,0,0-1.6-6.16c.77.12,1.53.25,2.28.39,1.33.26,2.56.55,3.75.88a47.23,47.23,0,0,1,9,3.32l.11.53C984.83,459.65,984,470.22,946.28,477.12Z"/></svg>
