<?xml version="1.0" encoding="utf-8"?>
<!-- Generator: Adobe Illustrator 21.0.0, SVG Export Plug-In . SVG Version: 6.00 Build 0)  -->
<svg version="1.1" id="Layer_1" xmlns="http://www.w3.org/2000/svg" xmlns:xlink="http://www.w3.org/1999/xlink" x="0px" y="0px"
	 viewBox="0 0 1417.3 465.8" style="enable-background:new 0 0 1417.3 465.8;" xml:space="preserve">
<path d="M1272.3,96.2C1160.1,37.5,938.7,0,698.7,0C431.9,0,193.9,45.4,95.4,113.9C35.7,138.7,0,168.3,0,202.3v91
	c0,108,360.3,172.5,708.7,172.5c348.3,0,708.7-64.5,708.7-172.5v-91C1417.3,159.8,1361.4,124,1272.3,96.2z M18.6,202.3
	c0-74.3,277.3-153.9,690-153.9c412.7,0,690,79.6,690,153.9v51.9c-73.8-83.4-386.4-132.1-690-132.1c-303.6,0-616.2,48.7-690,132.1
	V202.3z M698.7,9.3c202,0,390.5,26.5,510.8,69.9c-135.3-31.9-319.7-49.4-500.8-49.4c-210.1,0-424.4,23.5-561.6,65.8
	C261.6,42.8,469.2,9.3,698.7,9.3z M1398.5,290.2c0.1,1,0.2,2.1,0.2,3.1c0,0,0,0,0,0.1c0,74.3-277.3,153.9-690,153.9
	c-412.7,0-690-79.6-690-153.9v-13.2c13.2-35.3,83.4-69.9,197.1-96.4C347.3,152.9,522.4,136,708.7,136c186.3,0,361.3,16.9,492.9,47.6
	c113.7,26.5,183.9,61.1,197.1,96.4v10L1398.5,290.2C1398.5,290.1,1398.5,290.1,1398.5,290.2C1398.5,290.1,1398.5,290.2,1398.5,290.2
	z"/>
</svg>
