<?xml version="1.0" encoding="UTF-8"?>
<!DOCTYPE svg PUBLIC "-//W3C//DTD SVG 1.1//EN" "http://www.w3.org/Graphics/SVG/1.1/DTD/svg11.dtd">
<!-- Creator: CorelDRAW X7 -->
<svg xmlns="http://www.w3.org/2000/svg" xml:space="preserve" width="164px" height="174px" version="1.1" style="shape-rendering:geometricPrecision; text-rendering:geometricPrecision; image-rendering:optimizeQuality; fill-rule:evenodd; clip-rule:evenodd" viewBox="0 0 165 176" xmlns:xlink="http://www.w3.org/1999/xlink">
 <defs>
  <style type="text/css">
   <![CDATA[
    .fil0 {fill:#2B2A29}
   ]]>
  </style>
 </defs>
 <g id="Layer_x0020_1">
  <metadata id="CorelCorpID_0Corel-Layer"/>
  <path class="fil0" d="M22 135c-1,-17 7,-27 23,-28l90 -5c16,-2 27,-12 30,-30 0,0 0,-1 0,-2 -1,-14 -7,-23 -18,-27 1,17 -7,26 -23,27l-94 6c-16,1 -27,11 -30,28 0,1 0,2 0,2 2,16 9,25 22,29z"/>
  <path class="fil0" d="M131 36c3,0 6,1 9,1 3,1 6,2 9,3 5,2 10,6 13,11 0,1 0,1 0,1l0 -13 0 0 0 -6 0 0c0,-11 -3,-19 -8,-25 -5,-5 -13,-8 -23,-8l0 0 -3 0 -125 0 0 36 125 0 0 0 1 0 2 0zm-120 -25l23 0 0 14 -23 0 0 -14zm38 0l24 0 0 14 -24 0 0 -14zm39 0l23 0 0 14 -23 0 0 -14zm38 0c4,0 8,-1 12,0 3,1 7,2 11,4 0,2 0,5 0,7 0,2 0,5 0,7 -4,-2 -8,-4 -11,-4 -4,0 -8,0 -12,0 0,-2 0,-5 0,-7 0,-2 0,-5 0,-7z"/>
  <path class="fil0" d="M162 140l-125 0 0 0 -1 0 -2 0c-10,-1 -19,-4 -25,-9 -3,-2 -5,-4 -6,-7l0 13 0 6 0 0c0,11 3,19 8,24 6,6 13,9 24,9l0 0 2 0 125 0 0 -36zm-109 10l23 0 0 15 -23 0 0 -15zm38 0l24 0 0 15 -24 0 0 -15zm39 0l23 0 0 15 -23 0 0 -15zm-91 15c-4,0 -8,0 -12,-1 -4,0 -8,-1 -12,-4 0,-2 0,-4 0,-6 0,-3 0,-5 0,-7 4,2 8,3 12,3 4,1 8,0 12,0 0,3 0,5 0,8 0,2 0,4 0,7z"/>
 </g>
</svg>