<?xml version="1.0" encoding="utf-8"?>
<!-- Generator: Adobe Illustrator 22.1.0, SVG Export Plug-In . SVG Version: 6.00 Build 0)  -->
<svg version="1.1" baseProfile="tiny" id="Layer_1" xmlns="http://www.w3.org/2000/svg" xmlns:xlink="http://www.w3.org/1999/xlink"
	 x="0px" y="0px" viewBox="0 0 512 512" xml:space="preserve">
<g>
	<path d="M1,423C1,312.3,1,201.7,1,91c0.3-0.9,0.8-1.8,0.9-2.8C7.2,47.9,35.4,15.4,74.6,4.6C80,3.1,85.5,2.2,91,1
		c110.7,0,221.3,0,332,0c0.9,0.3,1.8,0.8,2.8,0.9c40,5.2,72.6,33.3,83.4,72.2c1.5,5.5,2.5,11.3,3.8,16.9c0,110.7,0,221.3,0,332
		c-0.3,0.9-0.7,1.8-0.9,2.8c-7,42.6-31.1,70.4-72.2,83.4c-5.5,1.7-11.2,2.6-16.9,3.8c-110.7,0-221.3,0-332,0
		c-0.9-0.3-1.8-0.8-2.8-0.9c-40.4-5.4-73.2-33.9-83.8-73.2C3,433.7,2.1,428.3,1,423z M503,257c0-52,0.1-104,0-156
		c-0.2-50-40-89.9-90-90c-104-0.2-208-0.2-312,0c-50.2,0.1-90,40.2-90,90.5c-0.1,103.7-0.1,207.3,0,311c0,50.2,39.8,90.4,90,90.5
		c104,0.1,208,0.1,312-0.1c7.1,0,14.4-0.9,21.2-2.6c40.9-10,68.6-45.6,68.7-87.8C503.1,360.7,503,308.8,503,257z"/>
	<path d="M276.3,233c0,11.8-0.2,23.7,0.2,35.5c0.1,2.6,1.5,5.8,3.3,7.6c9.8,9.6,13.4,21.2,10.4,34.2c-3.1,13.5-12.2,23-25.7,26
		c-27.2,6-46.7-18.7-41.7-41.4c1.7-7.5,5.5-13.8,11.1-19.2c1.6-1.6,2.9-4.5,2.9-6.8c0.2-23.5,0.1-47,0.2-70.5
		c0-11.6,8.6-21.1,18.8-21.4c11.2-0.3,20.2,8.4,20.6,20c0,0.3,0,0.7,0,1C276.3,209.7,276.3,221.3,276.3,233z M261,278.3
		c2.1,1,3.4,1.8,4.7,2.3c10,4.2,15.8,14.3,14.1,24.4c-1.8,10.4-10.6,18.4-21,18.9c-10.6,0.5-20.1-6.3-22.9-16.4
		c-2.9-10.5,1.6-21.1,11.6-26c2.9-1.4,3.6-3,3.6-6c-0.1-18-0.1-36-0.1-54c0-1.3-0.5-3.1,0.2-3.9c1.4-1.8,3.4-4.3,5-4.3
		c2,0.1,4.2,2.4,5.6,4.2c0.8,1.1,0.4,3.1,0.5,4.7c9.9-0.8,9.9-0.8,8.4-7.5c-1.9-0.1-3.9,0.1-5.8-0.4c-1.2-0.3-2-1.6-3.1-2.5
		c1-0.8,1.8-2,2.9-2.2c2-0.4,4.2-0.3,6.2-0.5c0-2.6,0-4.6,0-7.1c-3.7,0-7,0.2-10.3-0.1c-1.3-0.1-2.5-1.5-3.8-2.3
		c1.2-0.8,2.4-2.3,3.7-2.4c3.4-0.3,6.9-0.1,10.5-0.1c0-6.9-3.1-11-8.4-13.7c-5.2-2.5-10-1.7-14.5,1.7c-4.7,3.5-6.2,8.4-6.1,14.1
		c0,23.3,0,46.6,0.1,70c0,4.4-1.4,7.5-4.7,10.4c-12.1,10.4-13.8,28.7-4,41c10.2,12.8,27.5,15.5,40.1,6.3
		c13.3-9.7,16.8-27.7,7.9-41.3C276.2,277.6,270.6,275.4,261,278.3z M262.3,226.3c0,3.4,0,5.8,0,8.9c3.1-2.1,8.5,2.9,9-3.9
		C271.9,223.4,265.3,228.7,262.3,226.3z M271,247c1-8,0.7-8.3-8.6-7.2c0,2.4,0,4.8,0,7.2C265.4,247,268,247,271,247z M262.3,259.8
		c10-0.3,10-0.3,8.4-7.4c-2.7,0-5.4,0-8.4,0C262.3,255,262.3,257.2,262.3,259.8z M262.2,272.5c3.5-1.5,8.7,2.7,9.1-3.6
		c0.5-7.8-6-2.5-9.1-4.8C262.2,267,262.2,269.3,262.2,272.5z"/>
	<path d="M255.4,399.7c-1.5-2-3.8-3.9-4.1-6.1c-0.5-3.4,2-5.6,5.5-5.4c3.2,0.1,5.6,2.3,5,5.4c-0.4,2.2-2.7,4.1-4.2,6.1
		C256.8,399.7,256.1,399.7,255.4,399.7z"/>
</g>
</svg>
