<?xml version="1.0" standalone="no"?>
<!DOCTYPE svg PUBLIC "-//W3C//DTD SVG 20010904//EN"
 "http://www.w3.org/TR/2001/REC-SVG-20010904/DTD/svg10.dtd">
<svg version="1.0" xmlns="http://www.w3.org/2000/svg"
 width="210.000000pt" height="300.000000pt" viewBox="0 0 210.000000 300.000000"
 preserveAspectRatio="xMidYMid meet">
<metadata>
Created by potrace 1.10, written by Peter Selinger 2001-2011
</metadata>
<g transform="translate(0.000000,300.000000) scale(0.100000,-0.100000)"
fill="#000000" stroke="none">
<path d="M850 2810 c-67 -9 -154 -39 -114 -40 11 0 25 5 31 11 16 16 208 31
318 24 376 -24 648 -302 633 -648 -2 -50 -8 -99 -13 -107 -5 -8 -10 -19 -11
-25 -3 -35 -19 -76 -32 -87 -12 -10 -149 -12 -660 -10 -677 4 -663 3 -675 48
-4 17 -5 17 -6 -2 -3 -52 0 -52 479 -58 245 -3 536 -5 648 -5 146 -1 202 -4
202 -13 0 -6 -12 -31 -26 -56 -20 -34 -29 -41 -36 -31 -7 10 -8 8 -3 -8 7 -26
-41 -106 -58 -96 -6 3 -7 1 -3 -6 4 -6 3 -17 -3 -24 -18 -22 -71 -135 -71
-152 0 -9 -4 -14 -8 -11 -4 2 -9 -10 -10 -27 -2 -18 -7 -49 -13 -69 -12 -48
-28 -257 -29 -381 0 -58 -4 -96 -9 -92 -5 3 -13 0 -17 -6 -4 -8 -3 -9 4 -5 25
15 10 -13 -15 -31 -16 -10 -28 -25 -28 -33 0 -24 -101 -30 -382 -24 l-253 6 0
-84 c0 -60 4 -90 16 -106 15 -21 15 -25 0 -41 -20 -22 -20 -30 1 -53 15 -17
15 -19 -2 -38 -17 -18 -17 -21 -1 -45 14 -21 15 -29 6 -41 -30 -35 32 -108 87
-102 25 3 29 -3 57 -67 l30 -71 125 1 126 1 20 49 c32 79 41 89 74 91 32 2 81
28 81 43 0 4 -22 6 -49 3 -30 -2 -51 0 -55 7 -4 6 -23 11 -42 11 -58 0 -29
-17 43 -25 111 -12 49 -28 -124 -33 -178 -5 -326 5 -316 20 4 7 1 8 -6 3 -12
-7 -46 29 -46 50 0 12 65 15 280 15 88 0 178 4 200 9 27 5 3 7 -70 4 -95 -4
-174 1 -322 22 -25 3 -31 1 -26 -10 5 -16 -14 -20 -33 -7 -17 11 -36 51 -29
62 8 13 32 13 37 0 2 -7 15 -7 38 0 19 6 112 11 205 11 94 -1 184 3 200 8 23
7 25 10 10 12 -11 1 -2 5 20 9 39 7 39 7 8 9 -18 0 -33 6 -33 11 0 6 -15 4
-36 -5 -41 -17 -164 -21 -129 -4 16 7 12 8 -14 4 -18 -3 -43 -5 -55 -5 -16 0
-18 -3 -7 -9 7 -5 59 -9 114 -10 56 -1 104 -5 107 -8 6 -7 -294 4 -363 13 -41
6 -47 5 -41 -10 3 -9 2 -16 -4 -16 -14 0 -62 51 -62 65 0 18 32 28 41 14 5 -9
17 -9 51 0 28 8 77 10 138 7 110 -7 280 3 280 15 0 5 -8 10 -17 10 -10 1 -4 4
12 8 l30 7 -33 8 c-22 5 -38 4 -45 -3 -6 -6 -38 -11 -72 -10 l-60 1 64 13 c35
8 66 17 70 20 3 4 -46 6 -109 5 -63 -1 -122 1 -131 4 -9 4 -54 0 -99 -8 -45
-9 -86 -13 -91 -10 -5 3 -9 0 -9 -6 0 -6 -4 -8 -10 -5 -5 3 -10 44 -10 91 0
77 2 84 20 84 18 0 20 -7 20 -75 l0 -75 30 0 30 0 0 75 0 76 63 -3 62 -3 3
-69 3 -69 97 6 c53 4 117 7 142 7 l45 0 -3 66 c-4 64 -3 66 20 62 21 -3 23 -8
23 -63 0 -33 4 -61 9 -62 5 -2 9 24 9 57 -1 45 3 60 13 60 10 0 14 -15 14 -57
0 -76 -8 -86 -54 -78 -24 5 -36 3 -36 -4 0 -11 11 -14 60 -15 35 -1 41 -36 6
-36 -14 0 -28 -5 -32 -11 -5 -8 1 -10 20 -7 14 3 26 1 26 -3 0 -11 27 -9 -238
-14 -123 -3 -227 -7 -231 -10 -5 -2 -29 -6 -55 -6 -25 -1 -44 -4 -42 -7 8 -8
196 -10 191 -2 -3 4 41 8 98 9 56 1 126 5 156 8 31 3 56 1 60 -5 11 -19 57 -1
75 29 14 24 15 33 5 45 -9 11 -9 21 -2 37 6 13 9 35 6 50 -9 46 6 91 47 146
l40 53 0 163 c0 165 26 361 52 392 6 7 8 13 4 13 -10 0 61 136 114 220 66 104
121 226 139 308 22 104 9 288 -26 357 -5 11 -23 47 -39 79 -64 130 -223 253
-394 307 -75 23 -300 34 -410 19z m-61 -2045 c-1 -30 -6 -55 -11 -55 -4 0 -8
25 -8 55 0 31 4 55 10 55 6 0 10 -23 9 -55z m399 43 c7 -7 12 -26 12 -44 0
-39 -9 -42 -142 -44 -63 0 -98 3 -98 10 0 5 6 10 13 11 7 0 8 2 2 5 -6 2 -9
20 -7 39 l4 35 102 0 c66 0 106 -4 114 -12z m-295 -135 c-7 -2 -21 -2 -30 0
-10 3 -4 5 12 5 17 0 24 -2 18 -5z m172 -4 c-22 -4 -57 -8 -77 -8 -21 -1 -38
-6 -38 -12 0 -7 39 -9 115 -7 63 2 115 0 115 -3 0 -9 -138 -22 -150 -14 -5 3
-48 6 -95 6 -46 0 -87 4 -90 10 -4 5 -23 9 -43 9 -25 0 -32 -3 -23 -9 9 -6 10
-11 2 -15 -12 -8 -51 10 -51 23 0 13 68 21 129 15 31 -3 67 -1 81 4 14 6 57
11 95 10 63 0 66 -1 30 -9z m-182 -86 c-7 -2 -19 -2 -25 0 -7 3 -2 5 12 5 14
0 19 -2 13 -5z m283 -256 c1 -1 -5 -19 -13 -40 -12 -28 -18 -35 -24 -25 -6 9
-8 5 -7 -12 l3 -25 -115 -3 -116 -3 -27 56 c-15 30 -27 58 -27 60 0 5 321 -3
326 -8z"/>
<path d="M658 2754 c-16 -8 -28 -17 -28 -19 0 -6 52 16 65 27 15 13 -7 9 -37
-8z"/>
<path d="M283 2175 c0 -33 2 -45 4 -27 2 18 2 45 0 60 -2 15 -4 0 -4 -33z"/>
<path d="M347 1892 c3 -12 9 -25 14 -28 14 -8 11 10 -6 32 -13 18 -14 18 -8
-4z"/>
<path d="M380 1830 c0 -5 5 -10 10 -10 6 0 10 5 10 10 0 6 -4 10 -10 10 -5 0
-10 -4 -10 -10z"/>
<path d="M521 1604 c0 -11 3 -14 6 -6 3 7 2 16 -1 19 -3 4 -6 -2 -5 -13z"/>
<path d="M551 1535 c0 -11 6 -29 14 -39 19 -25 19 -17 0 25 -10 24 -14 28 -14
14z"/>
<path d="M1015 1499 c-4 -6 -5 -12 -2 -15 2 -3 7 2 10 11 7 17 1 20 -8 4z"/>
<path d="M837 1464 c-11 -11 -8 -64 3 -64 6 0 10 5 10 10 0 6 7 10 16 10 10 0
14 7 12 22 -3 23 -27 35 -41 22z m33 -24 c0 -5 -4 -10 -10 -10 -5 0 -10 5 -10
10 0 6 5 10 10 10 6 0 10 -4 10 -10z"/>
<path d="M894 1435 c0 -19 4 -35 8 -35 4 0 8 7 8 15 0 8 5 15 10 15 6 0 10 -7
10 -15 0 -8 5 -15 10 -15 6 0 10 16 10 35 0 19 -4 35 -10 35 -5 0 -10 -7 -10
-15 0 -8 -4 -15 -10 -15 -5 0 -10 7 -10 15 0 8 -4 15 -8 15 -4 0 -8 -16 -8
-35z"/>
<path d="M969 1468 c-6 -15 -5 -68 2 -68 5 0 9 16 9 35 0 28 -6 45 -11 33z"/>
<path d="M1000 1436 c0 -27 4 -36 16 -36 13 0 14 3 4 15 -7 8 -10 21 -7 30 4
8 2 17 -3 20 -6 4 -10 -9 -10 -29z"/>
<path d="M1040 1435 c0 -19 5 -35 10 -35 6 0 10 16 10 35 0 19 -4 35 -10 35
-5 0 -10 -16 -10 -35z"/>
<path d="M1079 1468 c-6 -15 -5 -68 2 -68 5 0 9 5 9 10 0 6 6 10 14 10 8 0 16
5 18 11 4 12 38 1 38 -13 0 -6 -7 -8 -15 -4 -8 3 -15 1 -15 -4 0 -14 37 -12
46 2 4 6 -1 17 -11 25 -17 12 -17 13 -2 13 9 0 17 5 17 10 0 14 -23 13 -38 -2
-9 -9 -15 -9 -24 0 -10 10 -36 17 -39 10z m31 -28 c0 -5 -4 -10 -10 -10 -5 0
-10 5 -10 10 0 6 5 10 10 10 6 0 10 -4 10 -10z"/>
<path d="M581 1434 c0 -11 3 -14 6 -6 3 7 2 16 -1 19 -3 4 -6 -2 -5 -13z"/>
<path d="M588 1380 c2 -16 6 -30 8 -30 2 0 4 14 4 30 0 17 -4 30 -8 30 -5 0
-7 -13 -4 -30z"/>
<path d="M880 1383 c0 -5 12 -15 26 -21 14 -7 23 -8 20 -3 -4 5 -3 11 1 14 5
2 2 2 -6 0 -7 -2 -20 2 -27 8 -8 6 -14 7 -14 2z"/>
<path d="M826 1372 c-3 -6 -2 -13 4 -17 18 -11 11 -23 -10 -18 -12 3 -20 0
-20 -6 0 -7 5 -9 11 -5 6 3 14 2 18 -4 4 -6 11 -8 17 -4 8 5 7 16 -1 36 -7 16
-15 24 -19 18z"/>
<path d="M850 1370 c0 -5 5 -10 10 -10 6 0 10 5 10 10 0 6 -4 10 -10 10 -5 0
-10 -4 -10 -10z"/>
<path d="M947 1367 c-3 -7 3 -13 14 -14 12 -1 16 3 12 13 -6 18 -19 18 -26 1z"/>
<path d="M990 1369 c0 -5 5 -7 10 -4 6 3 10 8 10 11 0 2 -4 4 -10 4 -5 0 -10
-5 -10 -11z"/>
<path d="M1020 1370 c0 -5 4 -10 9 -10 6 0 13 5 16 10 3 6 -1 10 -9 10 -9 0
-16 -4 -16 -10z"/>
<path d="M1060 1371 c0 -6 5 -13 10 -16 6 -3 10 1 10 9 0 9 -4 16 -10 16 -5 0
-10 -4 -10 -9z"/>
<path d="M1095 1370 c-3 -5 1 -10 10 -10 9 0 13 5 10 10 -3 6 -8 10 -10 10 -2
0 -7 -4 -10 -10z"/>
<path d="M1133 1365 c0 -9 4 -14 9 -13 5 2 10 8 10 13 0 5 -5 11 -10 13 -5 1
-9 -4 -9 -13z"/>
<path d="M1170 1364 c0 -8 5 -12 10 -9 6 4 8 11 5 16 -9 14 -15 11 -15 -7z"/>
<path d="M870 1330 c0 -5 5 -10 10 -10 6 0 10 5 10 10 0 6 -4 10 -10 10 -5 0
-10 -4 -10 -10z"/>
<path d="M900 1330 c0 -5 7 -10 15 -10 8 0 15 5 15 10 0 6 -7 10 -15 10 -8 0
-15 -4 -15 -10z"/>
<path d="M960 1330 c0 -5 5 -10 11 -10 5 0 7 5 4 10 -3 6 -8 10 -11 10 -2 0
-4 -4 -4 -10z"/>
<path d="M1013 1326 c0 -8 6 -12 14 -9 7 3 13 9 13 14 0 5 -6 9 -13 9 -8 0
-14 -6 -14 -14z"/>
<path d="M1055 1330 c3 -5 8 -10 11 -10 2 0 4 5 4 10 0 6 -5 10 -11 10 -5 0
-7 -4 -4 -10z"/>
<path d="M1090 1324 c0 -8 5 -12 10 -9 6 3 10 10 10 16 0 5 -4 9 -10 9 -5 0
-10 -7 -10 -16z"/>
<path d="M1130 1330 c0 -5 5 -10 11 -10 5 0 7 5 4 10 -3 6 -8 10 -11 10 -2 0
-4 -4 -4 -10z"/>
<path d="M1160 1328 c0 -11 22 -10 39 1 10 7 7 9 -12 8 -15 -1 -27 -5 -27 -9z"/>
<path d="M602 1300 c0 -19 2 -27 5 -17 2 9 2 25 0 35 -3 9 -5 1 -5 -18z"/>
<path d="M970 1293 c0 -8 5 -11 10 -8 6 3 10 2 10 -2 0 -5 8 -9 19 -9 26 0 15
23 -15 29 -16 3 -24 0 -24 -10z"/>
<path d="M1054 1296 c-10 -8 -16 -18 -11 -22 4 -4 7 -2 7 4 0 7 7 12 15 12 8
0 15 5 15 10 0 13 -3 13 -26 -4z"/>
<path d="M833 1285 c0 -18 19 -15 25 3 2 7 -3 12 -10 12 -8 0 -15 -7 -15 -15z"/>
<path d="M875 1290 c3 -5 10 -10 16 -10 5 0 9 5 9 10 0 6 -7 10 -16 10 -8 0
-12 -4 -9 -10z"/>
<path d="M935 1290 c3 -5 10 -10 16 -10 5 0 9 5 9 10 0 6 -7 10 -16 10 -8 0
-12 -4 -9 -10z"/>
<path d="M1086 1283 c-6 -14 -5 -15 5 -6 7 7 10 15 7 18 -3 3 -9 -2 -12 -12z"/>
<path d="M1110 1290 c0 -5 5 -10 10 -10 6 0 10 5 10 10 0 6 -4 10 -10 10 -5 0
-10 -4 -10 -10z"/>
<path d="M1140 1289 c0 -5 9 -9 20 -9 11 0 20 4 20 8 0 4 -9 8 -20 9 -11 1
-20 -2 -20 -8z"/>
<path d="M860 1260 c0 -5 -7 -7 -15 -4 -10 4 -15 0 -15 -12 0 -11 3 -15 8 -8
4 5 17 10 30 11 38 1 45 3 40 8 -10 10 -48 14 -48 5z"/>
<path d="M971 1248 c0 -13 3 -17 6 -10 2 6 10 9 16 5 7 -4 6 1 -2 10 -18 22
-21 21 -20 -5z"/>
<path d="M938 1253 c-10 -2 -18 -8 -18 -13 0 -4 9 -6 20 -3 11 3 20 9 20 14 0
5 -1 8 -2 8 -2 -1 -11 -3 -20 -6z"/>
<path d="M1046 1251 c8 -8 74 -7 74 1 0 5 -18 7 -40 6 -22 -1 -37 -4 -34 -7z"/>
<path d="M1153 1249 c27 -16 20 -29 -13 -25 -31 4 -41 -8 -15 -18 8 -3 15 -1
15 5 0 6 6 6 18 0 16 -8 18 -6 18 20 0 23 -4 29 -20 29 -19 -1 -19 -2 -3 -11z"/>
<path d="M613 1190 c0 -25 2 -35 4 -22 2 12 2 32 0 45 -2 12 -4 2 -4 -23z"/>
<path d="M839 1219 c-8 -4 -10 -11 -6 -16 5 -4 12 -1 16 6 7 10 10 10 13 1 3
-9 14 -10 37 -5 18 4 31 9 29 10 -8 9 -78 11 -89 4z"/>
<path d="M950 1216 c0 -9 5 -16 10 -16 6 0 10 4 10 9 0 6 -4 13 -10 16 -5 3
-10 -1 -10 -9z"/>
<path d="M993 1219 c-32 -11 25 -18 62 -8 19 6 35 11 35 13 0 5 -80 1 -97 -5z"/>
<path d="M760 1181 c0 -6 5 -13 10 -16 6 -3 10 1 10 9 0 9 -4 16 -10 16 -5 0
-10 -4 -10 -9z"/>
<path d="M793 1177 c0 -8 11 -12 26 -11 36 2 38 3 21 14 -21 14 -47 12 -47 -3z"/>
<path d="M861 1174 c0 -11 3 -14 6 -6 3 7 2 16 -1 19 -3 4 -6 -2 -5 -13z"/>
<path d="M882 1178 c5 -14 108 -21 108 -7 0 9 33 4 51 -7 7 -4 10 -1 7 7 -6
17 -68 25 -68 8 0 -8 -4 -8 -13 -1 -15 12 -58 12 -51 0 3 -4 0 -8 -5 -8 -6 0
-11 5 -11 10 0 6 -5 10 -11 10 -6 0 -9 -6 -7 -12z"/>
<path d="M1076 1177 c3 -10 9 -15 12 -12 3 3 0 11 -7 18 -10 9 -11 8 -5 -6z"/>
<path d="M1100 1177 c0 -10 8 -17 18 -17 9 0 13 4 7 8 -5 4 -13 11 -17 16 -5
5 -8 2 -8 -7z"/>
<path d="M1131 1187 c2 -3 15 -10 28 -17 19 -9 22 -9 19 1 -2 7 -15 14 -28 16
-13 2 -22 2 -19 0z"/>
<path d="M1190 1180 c0 -5 5 -10 10 -10 6 0 10 5 10 10 0 6 -4 10 -10 10 -5 0
-10 -4 -10 -10z"/>
<path d="M803 1135 c0 -8 4 -12 9 -9 5 3 6 10 3 15 -9 13 -12 11 -12 -6z"/>
<path d="M895 1142 c-65 -15 -84 -65 -39 -101 55 -44 164 -14 164 44 0 13 -5
27 -10 30 -6 4 -8 9 -6 13 2 4 -7 8 -20 8 -13 1 -34 4 -47 7 -12 2 -31 2 -42
-1z m85 -25 c16 -8 25 -21 25 -37 0 -55 -144 -62 -161 -8 -14 47 75 76 136 45z"/>
<path d="M867 1103 c-4 -3 -7 -14 -7 -24 0 -15 10 -17 65 -16 36 0 65 5 65 9
0 5 -4 6 -10 3 -5 -3 -10 -1 -10 4 0 6 5 11 11 11 5 0 7 5 4 10 -5 8 -11 7
-21 -1 -10 -8 -18 -8 -27 0 -10 7 -17 7 -24 0 -8 -8 -13 -8 -17 0 -8 12 -20
14 -29 4z m33 -23 c0 -5 -7 -10 -15 -10 -8 0 -15 5 -15 10 0 6 7 10 15 10 8 0
15 -4 15 -10z"/>
<path d="M1082 1133 c-7 -3 -19 -17 -27 -33 -14 -26 -13 -29 12 -54 31 -32 56
-33 83 -4 25 28 26 52 0 78 -19 19 -42 24 -68 13z m66 -41 c4 -28 -14 -52 -38
-52 -26 0 -43 26 -36 55 6 22 11 26 39 23 25 -2 33 -8 35 -26z"/>
<path d="M1090 1082 c0 -25 34 -31 43 -7 6 15 -10 32 -20 21 -4 -3 -1 -6 6 -6
7 0 9 -5 5 -12 -5 -7 -11 -5 -21 7 -12 18 -13 18 -13 -3z"/>
<path d="M613 1050 c0 -47 2 -66 4 -42 2 23 2 61 0 85 -2 23 -4 4 -4 -43z"/>
<path d="M690 1001 c0 -5 31 -8 70 -7 91 1 91 13 0 15 -38 0 -70 -3 -70 -8z"/>
<path d="M950 1006 c0 -2 9 -6 20 -9 11 -3 20 -1 20 4 0 5 -9 9 -20 9 -11 0
-20 -2 -20 -4z"/>
<path d="M734 965 c8 -8 17 -15 20 -15 3 0 3 7 0 15 -4 8 -13 15 -21 15 -12 0
-12 -2 1 -15z"/>
<path d="M770 963 c0 -8 4 -12 9 -9 5 4 11 0 14 -6 3 -7 5 -4 4 8 -1 23 -27
29 -27 7z"/>
<path d="M815 969 c-11 -17 5 -25 16 -9 8 11 12 12 16 3 7 -18 23 -16 23 2 0
17 -45 21 -55 4z"/>
<path d="M880 965 c0 -8 7 -15 15 -15 8 0 15 7 15 15 0 8 -7 15 -15 15 -8 0
-15 -7 -15 -15z"/>
<path d="M931 964 c0 -11 3 -14 6 -6 3 7 2 16 -1 19 -3 4 -6 -2 -5 -13z"/>
<path d="M960 965 c0 -8 5 -15 10 -15 6 0 10 7 10 15 0 8 -4 15 -10 15 -5 0
-10 -7 -10 -15z"/>
<path d="M993 965 c0 -8 6 -16 14 -19 8 -3 13 2 13 14 0 11 -6 20 -13 20 -8 0
-14 -7 -14 -15z"/>
<path d="M1041 964 c0 -11 3 -14 6 -6 3 7 2 16 -1 19 -3 4 -6 -2 -5 -13z"/>
<path d="M1065 969 c-9 -14 0 -22 18 -17 13 2 13 5 2 15 -10 9 -16 9 -20 2z"/>
<path d="M1110 965 c0 -8 5 -15 10 -15 6 0 10 7 10 15 0 8 -4 15 -10 15 -5 0
-10 -7 -10 -15z"/>
<path d="M1146 965 c4 -8 10 -15 15 -15 4 0 6 7 3 15 -4 8 -10 15 -15 15 -4 0
-6 -7 -3 -15z"/>
<path d="M1180 965 c0 -8 5 -15 10 -15 6 0 10 7 10 15 0 8 -4 15 -10 15 -5 0
-10 -7 -10 -15z"/>
<path d="M1264 964 c3 -9 6 -18 6 -20 0 -2 4 -4 9 -4 5 0 7 9 4 20 -3 11 -10
20 -15 20 -6 0 -7 -7 -4 -16z"/>
<path d="M625 930 c4 -14 12 -27 17 -28 4 -2 15 -10 23 -19 27 -27 15 2 -16
37 -28 31 -30 32 -24 10z"/>
<path d="M1304 565 c4 -10 -1 -15 -15 -15 -11 0 -27 -7 -35 -15 -16 -15 -65
-19 -294 -21 -115 -1 -232 -13 -225 -23 6 -11 137 -3 148 8 12 12 31 15 24 4
-6 -9 194 -6 235 3 37 8 160 -5 153 -17 -4 -5 -1 -9 4 -9 6 0 11 -4 11 -10 0
-5 -13 -10 -30 -10 -16 0 -30 -4 -30 -10 0 -5 -12 -13 -27 -16 -25 -7 -25 -8
-8 -15 34 -13 52 -10 58 10 3 14 11 18 26 14 24 -6 28 11 10 51 -9 20 -9 28 4
41 16 16 13 45 -5 45 -6 0 -8 -7 -4 -15z m-19 -45 c-3 -5 -10 -10 -16 -10 -5
0 -9 5 -9 10 0 6 7 10 16 10 8 0 12 -4 9 -10z"/>
<path d="M1168 490 c-1 -5 -37 -12 -78 -16 -54 -4 -71 -3 -60 5 12 8 5 11 -27
11 -67 0 -59 -18 12 -25 63 -7 268 5 213 13 -16 2 -28 8 -28 13 0 12 -27 12
-32 -1z"/>
<path d="M832 423 c-46 -18 68 -31 128 -14 23 7 21 8 -15 14 -45 8 -94 8 -113
0z"/>
<path d="M1078 423 c17 -2 47 -2 65 0 17 2 3 4 -33 4 -36 0 -50 -2 -32 -4z"/>
<path d="M1280 420 c0 -5 5 -10 10 -10 6 0 10 5 10 10 0 6 -4 10 -10 10 -5 0
-10 -4 -10 -10z"/>
<path d="M730 410 c0 -5 5 -10 11 -10 5 0 7 5 4 10 -3 6 -8 10 -11 10 -2 0 -4
-4 -4 -10z"/>
<path d="M940 390 c0 -5 -20 -10 -45 -10 -25 0 -45 -3 -45 -7 0 -5 22 -8 49
-8 27 0 47 3 45 7 -8 12 56 20 124 14 54 -4 59 -3 27 4 -55 12 -155 12 -155 0z"/>
<path d="M793 383 c9 -2 23 -2 30 0 6 3 -1 5 -18 5 -16 0 -22 -2 -12 -5z"/>
</g>
</svg>
