<?xml version="1.0" encoding="utf-8"?>
<!-- Generator: Adobe Illustrator 22.1.0, SVG Export Plug-In . SVG Version: 6.00 Build 0)  -->
<svg version="1.1" baseProfile="tiny" id="Capa_1" xmlns="http://www.w3.org/2000/svg" xmlns:xlink="http://www.w3.org/1999/xlink"
	 x="0px" y="0px" viewBox="0 0 455.9 455.9" xml:space="preserve">
<g>
	<path fill="none" stroke="#000000" stroke-width="10" stroke-miterlimit="10" d="M357.1,114.9c0,28.4-9,55.4-26.2,78
		c-28.9,38.1-44,82.6-44,128.8v33.7c-2,21-4.2,53.5-12.6,70.1h-91.6c-8.6-14.9-13.5-46.3-13.5-68.4v-35.3c0-45.6-15.6-91.3-44-128.6
		c-17.5-23-26.6-50.4-26.3-79.3c0.3-33.8,13.7-52.4,37.7-76.5c27.4-21.8,55.8-28.8,89.6-29.3c34.8-0.5,68.1,8.1,92.5,28.3
		C343.4,60.7,357.1,80.1,357.1,114.9z"/>
	<line fill="none" stroke="#000000" stroke-width="10" stroke-miterlimit="10" x1="107.8" y1="162.5" x2="348" y2="162.5"/>
	<line fill="none" stroke="#000000" stroke-width="10" stroke-miterlimit="10" x1="169.2" y1="340.4" x2="286.9" y2="340.4"/>
	<polyline fill="none" stroke="#000000" stroke-width="10" stroke-miterlimit="10" points="203.1,425.4 208.6,448 245.6,448 
		253.9,425.4 	"/>
	<line fill="none" stroke="#000000" stroke-width="10" stroke-miterlimit="10" x1="286.9" y1="355.3" x2="169.4" y2="365.3"/>
	<line fill="none" stroke="#000000" stroke-width="10" stroke-miterlimit="10" x1="171.5" y1="386.7" x2="285" y2="375.2"/>
	<line fill="none" stroke="#000000" stroke-width="10" stroke-miterlimit="10" x1="175.8" y1="407.4" x2="282.4" y2="395.8"/>
	<line fill="none" stroke="#000000" stroke-width="10" stroke-miterlimit="10" x1="203.1" y1="422.6" x2="278.7" y2="413.6"/>
</g>
<g>
	<path d="M163,187c1.8-0.3,4.2-0.6,7.3-0.6c3.8,0,6.5,0.9,8.3,2.5c1.6,1.4,2.6,3.5,2.6,6.2c0,2.7-0.8,4.8-2.3,6.3
		c-2,2.1-5.3,3.2-9,3.2c-1.1,0-2.2,0-3.1-0.3v11.8H163V187z M166.8,201.2c0.8,0.2,1.9,0.3,3.2,0.3c4.6,0,7.4-2.2,7.4-6.3
		c0-3.9-2.8-5.8-7-5.8c-1.7,0-2.9,0.1-3.6,0.3V201.2z"/>
	<path d="M190.1,186.6V199h14.3v-12.4h3.9v29.5h-3.9v-13.8h-14.3v13.8h-3.8v-29.5H190.1z"/>
	<path d="M218.7,186.6v29.5h-3.8v-29.5H218.7z"/>
	<path d="M225.4,186.6h3.8v26.3h12.6v3.2h-16.4V186.6z"/>
	<path d="M249.9,186.6v29.5h-3.8v-29.5H249.9z"/>
	<path d="M256.5,187c1.8-0.3,4.3-0.6,7.3-0.6c3.8,0,6.5,0.9,8.3,2.5c1.6,1.4,2.6,3.5,2.6,6.2c0,2.7-0.8,4.8-2.3,6.3
		c-2,2.1-5.3,3.2-9,3.2c-1.1,0-2.2,0-3.1-0.3v11.8h-3.8V187z M260.4,201.2c0.8,0.2,1.9,0.3,3.2,0.3c4.6,0,7.4-2.2,7.4-6.3
		c0-3.9-2.8-5.8-7-5.8c-1.7,0-2.9,0.1-3.6,0.3V201.2z"/>
	<path d="M279.3,211.5c1.7,1.1,4.2,1.9,6.8,1.9c3.9,0,6.2-2.1,6.2-5c0-2.8-1.6-4.3-5.6-5.9c-4.8-1.7-7.8-4.2-7.8-8.4
		c0-4.6,3.8-8,9.5-8c3,0,5.2,0.7,6.5,1.4l-1.1,3.1c-1-0.5-2.9-1.4-5.6-1.4c-4,0-5.6,2.4-5.6,4.4c0,2.8,1.8,4.1,5.9,5.7
		c5,1.9,7.5,4.3,7.5,8.7c0,4.6-3.4,8.5-10.3,8.5c-2.8,0-6-0.9-7.5-1.9L279.3,211.5z"/>
</g>
</svg>
