<?xml version="1.0" encoding="utf-8"?>
<!-- Generator: Adobe Illustrator 22.1.0, SVG Export Plug-In . SVG Version: 6.00 Build 0)  -->
<svg version="1.1" baseProfile="tiny" id="Layer_1" xmlns="http://www.w3.org/2000/svg" xmlns:xlink="http://www.w3.org/1999/xlink"
	 x="0px" y="0px" viewBox="0 0 160 160" xml:space="preserve">
<g>
	<path d="M69.4,21c0,12.2,0,22.8,0,33.6c1.6,0.3,2.9,0.6,4.3,0.8c0,20.9,0,41.7,0,62.9c-1.1,0.3-2.5,0.7-4.5,1.2
		c0,10.5,0,21.2,0,33.2C46.1,130.4,23.8,109,1,87C23.6,65.3,45.9,43.7,69.4,21z"/>
	<path d="M92.9,119.5c-1.9-0.4-3.1-0.7-4.6-1c0-20.9,0-41.9,0-63.1c1.3-0.2,2.5-0.5,4.3-0.8c0-10.7,0-21.4,0-33.5
		C115.9,43.5,138.1,65,161,87c-22.5,21.7-44.9,43.3-68.1,65.7C92.9,140.9,92.9,130.3,92.9,119.5z"/>
</g>
</svg>
