<?xml version="1.0" encoding="utf-8"?>
<!-- Generator: Adobe Illustrator 22.1.0, SVG Export Plug-In . SVG Version: 6.00 Build 0)  -->
<svg version="1.1" baseProfile="tiny" id="Layer_1" xmlns="http://www.w3.org/2000/svg" xmlns:xlink="http://www.w3.org/1999/xlink"
	 x="0px" y="0px" viewBox="0 0 512 512" xml:space="preserve">
<g>
	<path d="M386,513c-3.7,0-7.3,0-11,0c0-0.7-0.1-1.3-0.1-2c0-139.3,0-278.5,0-417.8c0-1.5,0.6-3.3-0.1-4.4c-1.3-2.5-2.9-5.7-5.1-6.6
		c-2.2-0.9-5.8-0.1-8.2,1.2c-3.6,2-4.4,5.7-4.4,9.9c0.1,137.6,0.1,275.2,0.1,412.8c0,2.3-0.2,4.6-0.3,7c-3.7,0-7.3,0-11,0
		c0.1-2.2,0.3-4.3,0.3-6.5c0-137.8,0-275.7,0-413.5c0-1.3-0.1-2.7,0-4c0.2-3.7-1.9-6.4-5.1-7.1c-2.6-0.5-6.3-0.1-8.1,1.6
		c-2.2,1.9-4,5.6-4,8.5C329,232.3,329,372.7,329,513c-3.7,0-7.3,0-11,0c0-139.5,0-279,0-418.4c0-1.2,0.5-2.7-0.1-3.4
		c-2.5-3.3-4.8-7.3-8.2-9.3c-1.8-1-6.4,1-8.5,2.9c-1.6,1.5-1.8,5.1-1.8,7.8c-0.1,137.8-0.1,275.6-0.1,413.4c0,2.3-0.2,4.6-0.3,7
		c-3.7,0-7.3,0-11,0c0.2-2.3,0.4-4.6,0.4-6.9c0-137.2,0-274.3,0-411.5c0-1.3,0-2.7,0-4c0.1-4.5-2.7-7-6.3-8.7
		c-3.7-1.7-7.2-0.5-9.2,2.7c-1.6,2.6-2.9,6-2.9,9c-0.1,138.2-0.1,276.3-0.1,414.5c0,1.7,0.1,3.3,0.1,5c-3.7,0-7.3,0-11,0
		c0-2.2-0.1-4.3-0.1-6.5c0-137.3,0-274.6,0-412c0-1.3,0-2.7,0-4c-0.1-4.7-3-7.9-6.9-8.7c-2.7-0.5-6.7,0.8-8.6,2.8
		c-2,2-3.1,5.8-3.1,8.9c-0.1,137.5-0.1,275-0.1,412.5c0,2.3-0.1,4.7-0.2,7c-3.7,0-7.3,0-11,0c0.1-1,0.3-2,0.3-3
		c0-139.4,0-278.8,0.2-418.3c0-5.3-5.4-10.6-9.2-10.6c-5.1,0-8.3,3.9-8.3,10.6c0,129.4,0,258.9,0,388.3c0,11,0,22,0.1,33
		c-3.7,0-7.3,0-11,0c0-2.2,0-4.3,0-6.5c0-138.1,0-276.2,0-414.3c0-5.1-2.9-9.5-7.1-10.7c-4.9-1.4-8.2,1.3-10.3,5.1
		c-1.1,2-1.3,4.7-1.3,7.2c-0.1,137.4,0,274.9-0.1,412.3c0,2.3-0.1,4.7-0.2,7c-3.7,0-7.3,0-11,0c0.1-2.3,0.3-4.6,0.3-7
		c0-134.8,0-269.6,0-404.4c0-3.5-0.1-7,0-10.5c0.1-4.9-2.7-7.8-6.8-9.5c-4-1.7-6.9,0.6-9.6,3.4c-2.9,2.9-3.2,6.3-3.2,10.1
		c0,137.5,0,274.9,0.1,412.4c0,1.8,0.2,3.6,0.3,5.5c-3.7,0-7.3,0-11,0c-0.1-2.3-0.2-4.7-0.2-7c0-137.3,0-274.5,0-411.8
		c0-1.5-0.1-3,0-4.5c0.2-4.1-2-7.1-5.6-7.8c-2.7-0.5-6.6,0.3-8.4,2.1c-2.1,2.2-3.5,6-3.5,9.2c-0.2,137.8-0.1,275.5-0.1,413.3
		c0,2.2-0.1,4.3-0.1,6.5c-3.7,0-7.3,0-11,0c0.1-1.7,0.2-3.3,0.2-5c0-138.2,0-276.3,0-414.5c0-1.3,0.5-3.1-0.1-3.9
		c-2.2-2.9-4.3-6.6-7.4-7.8c-2.2-0.8-6.2,1.3-8.5,3.2c-1.4,1.3-1.4,4.6-1.4,7c-0.1,138.7-0.1,277.3,0,416c0,1.7,0.1,3.3,0.2,5
		c-3.7,0-7.3,0-11,0c0-2.2-0.1-4.3-0.1-6.5c0-136.8,0-273.6,0-410.5c0-1.5,0.1-3,0-4.5c-0.3-3.7-4.9-9.2-8.6-10.1
		c-4.7-1.2-7.8,1.5-10,5c-1.1,1.8-1.2,4.4-1.2,6.6c-0.1,103.3,0,206.6,0,310c0,36.7,0,73.3-0.1,110c-3.7,0-7.3,0-11,0
		c0-1.5,0.1-3,0.1-4.5c0-138.9,0-277.9,0-416.8c0-0.8,0.3-1.8-0.1-2.5c-1.4-2.4-2.5-5.8-4.7-6.8c-2.2-1.1-5.8-0.4-8.3,0.6
		c-3.6,1.5-3.3,5.3-3.3,8.7c0,138.8,0,277.5,0,416.3c0,1.7,0.1,3.3,0.2,5c-3.7,0-7.3,0-11,0c0-2.2-0.1-4.3-0.1-6.5
		c0-136.8,0-273.6,0-410.4c0-1.5,0.1-3,0-4.5c-0.3-3.7-4.9-9.2-8.6-10.1c-4.4-1.1-7.6,1.2-9.7,4.6c-1.2,1.9-1.4,4.7-1.4,7
		C6.1,230.9,6.1,368.7,6.1,506.5c0,2.2-0.1,4.3-0.1,6.5c-1.7,0-3.3,0-5,0C1,367.3,1,221.7,1,76c7.5-5.8,15.5-8.7,25-3.9
		c-1-1.7-2.1-2.8-3.4-2.9c-4.1-0.3-9.8,1.4-12-0.7C7.2,65.4,4.3,66.3,1,66c0-7.7,0-15.3,0-23c2.6-0.1,5.2-0.2,7.8-0.3
		c0-3.1,0-5.8,0-8.7c-2.9,0-5.3,0-7.8,0c0-3.3,0-6.7,0-10c43,0,85.9,0,128.9,0c0.2,3.2,0.3,5.6,0.4,8c0.1,0,0.2,0,0.3,0
		c0.1-2.6,0.3-5.1,0.4-7.8c86.6,0,172.8,0,258.9,0c-0.1,0.5-0.3,1.1-0.4,1.6c1.9,0.8,3.9,2.3,5.8,2.4c9.1,0.3,18.2,0.1,27.9,0.1
		c0,6.8,0,13.1,0,19.8c5,0,9.4,0,14,0c0.3,2.4,0.5,4.4,0.7,6.4c21.3,0,42.5,0,64.4,0c0-14.6,0-28.8,0-43.3c-37,0-74.1,0-111.3,0
		c-0.4,1.7-0.7,3.2-1.1,5.2c-2.1,0-4.1,0-6,0c-125.6,0-251.3,0-376.9,0c-2,0-4-0.3-5.9-0.4c0-3.3,0-6.7,0-10
		c1.8,0.1,3.6,0.4,5.4,0.4c122.7,0,245.5,0,368.2,0c1.8,0,3.6,0,5.4,0c0.4-2.2,0.7-3.8,1-5.4c44,0,88,0,132,0c0,12.4,0,24.7,0,37
		c-0.4,2.2-1,4.4-1,6.6c0,153.5,0,307,0,460.5c0,2.1,0,4.2,0,6.6c-28.2,0-56,0-84.4,0c0-151.3,0-302.3,0-453.9c-5.1,0-9.5,0-14.5,0
		c0-6.8,0-13,0-19.6c-9.4,0-18.2,0-27,0c-3.1,0-6.2,0.4-6-3.9c-11.3,0-22.2,0-33.2,0c-0.2,2.8-0.3,5.3-0.4,8.1
		c-1.5,0.3-2.9,0.5-4.4,0.8c0,6.2,0.3,12-0.1,17.8c-0.3,5.6-0.1,10.5,6.6,12.3c1.5,0.4,2.7,1.8,4.1,2.8c1.2-0.9,2.2-1.7,3.3-2.5
		c6.3-4.4,13-5.1,19.7-1.3c6.6,3.7,10.2,9.4,10.2,17.1c0,139,0,278,0,417C385.9,508.7,386,510.8,386,513z M501.6,449
		c0-128,0-255.4,0-382.7c-21.4,0-42.5,0-63.5,0c0,127.7,0,255.1,0,382.7C459.4,449,480.3,449,501.6,449z M58.9,76.1
		c12.6-8.4,16.1-8.3,29.4,0.5c11.7-8.9,17-8.9,29.3,0c5.6-2.3,7.2-6.5,6.7-12.3c-0.5-5.1-0.4-10.3,0-15.5c0.2-3.4-0.7-5.3-4.6-5.4
		c0-3.3,0-6.2,0-9.1c-20.9,0-41.3,0-62.3,0c0,11.7,0,23.1,0,35.5c-7.2,0-13.8,0-20.3,0c0,0.6,0,1.2,0,1.7
		C45.5,68.1,52.7,70.5,58.9,76.1z M501.7,502c0-10.5,0-20.2,0-30.3c-21.3,0-42.4,0-63.6,0c0,10.2,0,20.1,0,30.3c19.7,0,39,0,58.3,0
		C498,502,499.6,502,501.7,502z M47.2,58.9c0-8.6,0-16.6,0-24.5c-9.5,0-18.5,0-27.6,0c0,8.4,0,16.4,0,24.7c8,0,15.7,0,23.3,0
		C44.2,59.1,45.5,59,47.2,58.9z M228.6,34.2c-1.2,3.7,1.2,8-3.5,9.8c-0.2,0.1-0.1,1.2-0.1,1.9c0,7.3-0.1,14.6,0.1,21.9
		c0,1.1,0.6,2.7,1.4,3.3c2.8,2,5.8,3.6,8.5,5.3c2.5-1.6,5-2.9,7.1-4.7c1.2-1,2.5-2.7,2.6-4.1c0.2-8,0.1-15.9,0.1-24.1
		c-1.6-0.4-2.9-0.7-4.3-1.1c-0.2-2.9-0.4-5.4-0.5-8.1C236,34.2,232.4,34.2,228.6,34.2z M147.6,76.3c5.6-2.5,8.4-6.5,7.6-13.2
		c-0.7-5.1-0.1-10.3-0.2-15.5c0-1.2-0.5-2.4-0.9-3.6c-0.6-1.6-1.8-3-2.2-4.6c-0.4-1.7-0.1-3.5-0.1-5.2c-4.1,0-7.3,0-10.7,0
		c-0.2,3.2-0.3,6.2-0.4,9.3c-1.9,0.3-3.4,0.5-5.4,0.7c0,7.9-0.1,15.5,0.1,23.1c0,1.1,1.1,2.6,2.2,3.2
		C140.6,72.6,144,74.3,147.6,76.3z M195.4,44.5c0,5.3,0.2,10.6-0.1,15.9c-0.3,5.9-0.5,11.3,6.9,13.1c1.3,0.3,2.4,1.6,3.6,2.6
		c1.2-0.9,2.1-2.1,3.3-2.5c4.4-1.6,5.1-4.8,4.9-9c-0.3-5.3,0.4-10.7-0.2-16c-0.6-4.9-2.5-9.6-3.9-14.5c-3.2,0-6.4,0-9.4,0
		C198.3,37.7,203.1,43.8,195.4,44.5z M316.6,34.2c-0.7,3-1.1,5.8-1.9,8.5c-0.4,1.3-2,2.5-2,3.7c-0.2,7-0.2,13.9,0,20.9
		c0,1.4,0.9,3.1,2,4c2.7,2.1,5.7,3.8,8.6,5.7c7.9-6.2,7.9-6.2,7.9-15.9c0-1.2,0.2-2.4,0-3.5c-1-5.4,2.7-11.6-2.9-16.3
		c-0.5-0.4-0.1-1.9-0.2-2.9c-0.1-1.4-0.2-2.8-0.3-4.2C323.6,34.2,320,34.2,316.6,34.2z M165.9,44.3c0,8-0.1,15.6,0.1,23.2
		c0,1.1,0.6,2.7,1.5,3.3c3.1,2.1,6.5,3.8,9.3,5.5c7.7-2.6,8.7-8.4,7.8-15.1c-0.1-0.7,0.1-1.4,0-2c-1.3-5.5,3-12-3.2-16.6
		c-0.5-0.4-0.2-1.9-0.2-2.9c0-1.8,0-3.5,0-5.3c-3.6,0-6.5,0-9.7,0c-0.1,3.2-0.3,6.1-0.4,9.3C169.4,43.8,168,44,165.9,44.3z
		 M293.4,76.2c8.2-6.1,7.9-6.1,8.3-14.1c0.5-9.5-0.4-18.6-4.9-27.7c-2.3,0-5.7,0-9.1,0c-0.4,2.9,0.1,7-1.2,7.7
		c-3.4,1.7-2.4,4.2-2.5,6.6c-0.1,3.5,0.2,7-0.1,10.5c-0.5,6.8-0.4,13.2,7.7,15.8C292.2,75.1,292.7,75.6,293.4,76.2z M271.7,34.3
		c-5.2,0-9.2,0-12.9,0c-1.1,4.3-2.7,8.2-3,12.2c-0.5,7.1-0.2,14.3,0,21.4c0,1.4,0.9,3.2,1.9,4.1c2.1,1.8,4.6,3.1,7,4.7
		c1.3-1.1,2.4-2.5,3.9-3c4.3-1.5,4.8-4.7,4.5-8.6C272.5,54.8,272.2,44.6,271.7,34.3z M503.7,460.9c-7.3-2.8-65.8-2-68.4,0
		C458.3,460.9,481,460.9,503.7,460.9z"/>
	<path d="M482.3,46.7c0-11.6,0-22.9,0-34.4c3.5,0,6.7,0,10.4,0c0,11.3,0,22.6,0,34.4C489.4,46.7,486.1,46.7,482.3,46.7z"/>
</g>
</svg>
