<?xml version="1.0" encoding="utf-8"?>
<!-- Generator: Adobe Illustrator 23.0.5, SVG Export Plug-In . SVG Version: 6.00 Build 0)  -->
<svg version="1.1" id="Слой_2" xmlns="http://www.w3.org/2000/svg" xmlns:xlink="http://www.w3.org/1999/xlink" x="0px" y="0px"
	 viewBox="0 0 512 512" style="enable-background:new 0 0 512 512;" xml:space="preserve">
<style type="text/css">
	.st0{stroke:#000000;stroke-width:5;stroke-miterlimit:10;}
	.st1{fill:none;stroke:#000000;stroke-width:10;stroke-miterlimit:10;}
	.st2{fill:none;stroke:#000000;stroke-width:5;stroke-miterlimit:10;}
	.st3{fill:none;stroke:#000000;stroke-width:3;stroke-miterlimit:10;}
</style>
<rect x="35.33" y="24.31" class="st0" width="201.61" height="11.55"/>
<path class="st1" d="M491.02,504H22.98c-3.67,0-6.65-2.98-6.65-6.65V16.65c0-3.67,2.98-6.65,6.65-6.65h468.04
	c3.67,0,6.65,2.98,6.65,6.65v480.71C497.67,501.02,494.69,504,491.02,504z"/>
<line class="st1" x1="257" y1="504" x2="257" y2="10"/>
<line class="st2" x1="26.89" y1="30.06" x2="41.67" y2="30.06"/>
<line class="st2" x1="226.39" y1="30.58" x2="243.28" y2="30.58"/>
<path class="st2" d="M246.44,30.58"/>
<path class="st2" d="M230.61,30.58"/>
<rect x="35.86" y="46.42" class="st2" width="199.5" height="262.83"/>
<line class="st3" x1="44.31" y1="60.14" x2="227.97" y2="60.14"/>
<line class="st3" x1="43.78" y1="74.92" x2="227.44" y2="74.92"/>
<line class="st3" x1="43.78" y1="89.69" x2="227.44" y2="89.69"/>
<line class="st3" x1="44.31" y1="104.47" x2="227.97" y2="104.47"/>
<line class="st3" x1="43.78" y1="119.25" x2="227.44" y2="119.25"/>
<line class="st3" x1="43.78" y1="134.03" x2="227.44" y2="134.03"/>
<line class="st3" x1="44.31" y1="148.81" x2="227.97" y2="148.81"/>
<line class="st3" x1="43.78" y1="163.58" x2="227.44" y2="163.58"/>
<line class="st3" x1="43.78" y1="178.36" x2="227.44" y2="178.36"/>
<line class="st3" x1="44.31" y1="193.14" x2="227.97" y2="193.14"/>
<line class="st3" x1="43.78" y1="207.92" x2="227.44" y2="207.92"/>
<line class="st3" x1="43.78" y1="222.69" x2="227.44" y2="222.69"/>
<line class="st3" x1="44.31" y1="237.47" x2="227.97" y2="237.47"/>
<line class="st3" x1="43.78" y1="252.25" x2="227.44" y2="252.25"/>
<line class="st3" x1="43.78" y1="267.03" x2="227.44" y2="267.03"/>
<line class="st3" x1="44.31" y1="281.81" x2="227.97" y2="281.81"/>
<line class="st3" x1="43.78" y1="296.58" x2="227.44" y2="296.58"/>
<rect x="271.25" y="23.19" class="st2" width="212.17" height="465.5"/>
<rect x="257.53" y="207.92" class="st0" width="13.72" height="73.89"/>
</svg>
