<?xml version="1.0" encoding="utf-8"?>
<!-- Generator: Adobe Illustrator 22.1.0, SVG Export Plug-In . SVG Version: 6.00 Build 0)  -->
<svg version="1.1" baseProfile="tiny" id="Layer_1" xmlns="http://www.w3.org/2000/svg" xmlns:xlink="http://www.w3.org/1999/xlink"
	 x="0px" y="0px" viewBox="0 0 512 512" xml:space="preserve">
<g>
	<path d="M370.9,255.6c0,66.3,0,132.6,0,198.9c0,10-3,13.5-12.7,15c-9,1.4-18.1,3.2-27.2,3.8c-3.5,0.2-7.4-2.1-10.9-3.7
		c-2.7-1.3-4.6-1.9-7.3,0.7c-4.1,4-9,3.2-13.8,0.6c-27.5-14.5-55.1-29-82.6-43.4c-24-12.6-48-25.4-72.1-37.7
		c-7.1-3.6-9.7-8.9-9.3-16.5c1.8-38.3,3.6-76.5,5.4-114.8c1.9-39.9,3.8-79.9,5.6-119.8c0.8-17.3,1.5-34.6,2.4-51.9
		c0.6-12,3.2-14.6,14.8-16.7c54.5-10.1,108.9-20.5,163.5-30.2c8.1-1.4,16.9,0.4,25.3,0.8c3,0.1,6,0.5,9,0.6
		c8.6,0.3,13.1,4.9,13,13.6c-0.5,67-1.1,133.9-1.6,200.9C371.9,255.6,371.4,255.6,370.9,255.6z M320.5,255.8
		c1.5-24.3,3-48.6,4.4-72.8c2.6-42.6,5.1-85.2,7.6-127.7c0.3-5.7-0.7-6.9-6.5-6.1c-5.4,0.8-10.8,2-16.2,3
		c-48.8,9.1-97.5,18.1-146.3,27.2c-3.5,0.6-5.5,1.7-5.7,5.9c-2.1,48.6-4.5,97.2-6.8,145.8c-2.2,47.3-4.3,94.6-6.7,141.8
		c-0.2,4.4,1,7,5,9.1c50.8,26.5,101.4,53.1,152.1,79.7c5.8,3.1,6.4,2.8,6.8-3.7c2.3-36.9,4.5-73.8,6.7-110.8
		C316.8,316.7,318.7,286.2,320.5,255.8z M344,50c-3,138.3-5.9,276-8.9,414.3c7.3-1,13.9-2.3,20.7-2.7c5.2-0.3,6.4-2.4,6.4-7.4
		c0.7-132.3,1.5-264.6,2.3-396.9c0-1,0.4-2.2-0.1-2.9c-0.8-1.3-2-3.1-3.2-3.2C355.8,50.5,350.3,50.3,344,50z M325.8,461.1
		c1.4-65.8,2.8-131.5,4.2-197.1c-1.6,15.3-2.5,30.5-3.4,45.8c-2.9,47.2-5.8,94.4-8.6,141.6C317.6,458.9,317.8,459,325.8,461.1z"/>
</g>
<g>
	<path d="M351.6,447.1l5.2,1.5v2l-16.5-5v-2.3l16.5-5v2l-5.2,1.6V447.1z M349.9,442.2l-4.8,1.4c-1.1,0.3-2.1,0.5-3,0.8v0
		c1,0.2,2,0.5,3,0.7l4.8,1.4V442.2z"/>
	<path d="M359.2,424.2c-0.6,2-1.3,3.9-1.9,5.7c-0.1,0.3-0.2,0.6-0.2,0.9c-0.1,3.5-3,6.5-8.4,6.5c-5.3,0-8.7-2.9-8.7-6.9
		c0-4,3.5-6.6,8.4-6.6c4.2,0,7,1.8,7.9,4.2h0.1c0.4-1.5,0.8-3.1,1.1-4.3L359.2,424.2z M355.3,430.5c0-3-3.1-4.7-6.9-4.7
		c-3.3,0-6.7,1.5-6.7,4.7c0,3.2,3.3,4.8,6.9,4.8C352.1,435.2,355.3,433.5,355.3,430.5L355.3,430.5z"/>
	<path d="M351.6,419.2l5.2,1.5v2l-16.5-5v-2.3l16.5-5v2l-5.2,1.6V419.2z M349.9,414.3l-4.8,1.4c-1.1,0.3-2.1,0.5-3,0.8v0
		c1,0.2,2,0.5,3,0.7l4.8,1.4V414.3z"/>
	<path d="M340.5,408.1c-0.2-1-0.3-2.3-0.3-3.7c0-2,0.4-3.4,1.3-4.3c0.7-0.7,1.9-1.2,3.1-1.2c2.2,0,3.6,1.2,4.2,2.8h0.1
		c0.4-1.1,1.6-1.8,3.3-2.2c2.3-0.5,3.9-0.8,4.5-1.1v2c-0.5,0.2-1.9,0.6-3.9,1c-2.3,0.4-3.1,1.2-3.2,3v1.8h7.2v1.9H340.5z M348,406.2
		v-2c0-2-1.3-3.3-3.1-3.3c-2.1,0-3.1,1.4-3.1,3.4c0,0.9,0.1,1.6,0.2,1.9H348z"/>
	<path d="M351.6,393.8l5.2,1.5v2l-16.5-5V390l16.5-5v2l-5.2,1.6V393.8z M349.9,389l-4.8,1.4c-1.1,0.3-2.1,0.5-3,0.8v0
		c1,0.2,2,0.5,3,0.7l4.8,1.4V389z"/>
</g>
</svg>
