<?xml version="1.0" encoding="utf-8"?>
<!-- Generator: Adobe Illustrator 22.1.0, SVG Export Plug-In . SVG Version: 6.00 Build 0)  -->
<svg version="1.1" baseProfile="tiny" id="Layer_1" xmlns="http://www.w3.org/2000/svg" xmlns:xlink="http://www.w3.org/1999/xlink"
	 x="0px" y="0px" viewBox="0 0 512 512" xml:space="preserve">
<g>
	<path d="M495.9,224.2c1.9,0.8,4.3,1,5,2.2c2.3,4.1,8.4,5.1,7.4,12.2c-1.3,9.2-0.4,18.6-0.3,28c0.1,3.5-0.3,6.2-3.7,8.3
		c-2.5,1.5-4.2,4.3-7.3,7.5C486.4,404,377.4,505.3,243.7,497.6C118.8,490.5,20.3,389,17.2,264.4c-3.1-124,87-229.6,207.8-245.3
		C364.9,0.9,480.7,101.9,495.9,224.2z M257.5,488C384.9,488,488,384.9,488,257.6C488,130.3,385,27.1,257.7,27
		C130.2,26.9,26.9,130.1,27,257.7C27.1,385,130.2,488,257.5,488z"/>
	<path d="M252.1,432c7.3,0,14.6-0.1,21.9,0c8.8,0.1,15.1,6.4,15,14.7c-0.1,8-6.3,14.2-14.8,14.3c-14.8,0.1-29.6,0.1-44.4,0
		c-8.5-0.1-14.7-6.3-14.7-14.4c0-8,6.2-14.2,14.6-14.6c0.3,0,0.7,0,1,0C237.8,432,244.9,432,252.1,432z M240.2,451
		c11,0,22.7,0.2,34.3-0.2c1.5,0,3-2.8,4.5-4.2c-1.5-1.5-2.9-4.3-4.4-4.3c-11.9-0.4-23.7-0.2-35.1-0.2
		C239.7,445.2,239.9,447.9,240.2,451z M231.2,442.1c-3.2-0.4-6.2,0.4-6.1,4.7c0.1,3.4,2.7,4.7,5.3,4.1
		C230.7,447.9,231,445.2,231.2,442.1z"/>
	<path d="M239.7,197.1c4.7,1.4,8.8,2.2,12.6,3.9c3.3,1.5,6.1,1.3,9.4,0c3.8-1.6,8-2.5,12-3.7c2.2,9.5,1.7,10.6-5.2,12.6
		c-0.3-1.4-0.5-2.8-0.8-4.2c-10.3,2.6-10.3,2.6-21.9,0.1c0,3.2-0.2,6.3,0.1,9.4c0.4,4.4-1.5,6.5-6.2,6.7
		C239.7,214.2,239.7,206.5,239.7,197.1z"/>
	<path d="M274.3,213.5c1.4,12.2-3,20.5-12,23.3c-8.5,2.6-16.6-0.9-21.1-9.5c1.5-0.8,3.1-1.6,4.9-2.5c0.9,0.9,1.6,1.8,2.4,2.6
		c3.4,3.6,7.6,4.9,12.2,3.2c4.8-1.8,7.8-5.4,7.3-10.7C267.7,215.2,270.4,214.2,274.3,213.5z"/>
	<ellipse cx="256" cy="252.6" rx="95.9" ry="0.8"/>
	<path d="M191.2,282.9c0-6.5,0-12.5,0-18.4c3.4-0.2,3.4-0.2,4.6,6.4c0.7,0.1,1.5,0.3,2.3,0.3c1.3,0.1,2.6,0,3.2,0
		c3.3-1.8-1.3-8,5.4-7c0,6.1,0,12.2,0,18.2c-3.2,0.3-3.2,0.3-4.5-7.2c-2.1,0-4.2,0-6.1,0C193.2,277,198.4,283.4,191.2,282.9z"/>
	<path d="M270.7,269.5c4.1-0.2,4.1-0.2,5.9,8.3c0.9-2.7,1.2-4.6,2-6.2c0.5-1,1.6-1.7,2.4-2.5c0.7,0.8,1.6,1.5,2,2.4
		c0.7,1.7,1,3.5,1.7,6.5c0.7-3,0.9-5,1.7-6.7c0.6-1.2,2.1-1.9,3.3-2.8c0.4,0.3,0.7,0.7,1.1,1c-1,3.4-1.8,7-3.1,10.3
		c-0.5,1.3-1.9,2.1-2.9,3.2c-0.9-1.1-2-2.1-2.7-3.4c-0.6-1-0.7-2.2-1.1-3.4c-0.4,0.2-0.7,0.2-0.7,0.4c-1.2,2.1-2.1,5.9-3.6,6.1
		c-4.1,0.6-2.8-3.9-3.9-6.1C271.8,274.5,271.5,272.1,270.7,269.5z"/>
	<path d="M304,277.5c-3,0.2-5.5,0.4-8.1,0.6c0,0.3-0.1,0.7-0.1,1c2.4,0.4,4.7,0.9,7.1,1.3c0,0.5,0.1,1,0.1,1.5c-2.8,1.5-6,1.6-9-0.2
		c-3.2-1.9-3.6-5-2.3-8.3c1.3-3.3,4-5,7.5-4.2C303.4,270.2,304,273.6,304,277.5z"/>
	<path d="M253.8,277.8c-2.9,0-5.3,0-7.8,0c-0.1,0.4-0.1,0.8-0.2,1.2c2.3,0.5,4.6,0.9,8.1,1.7c-3.1,2.9-6,2.6-8.8,1.6
		c-3.9-1.4-4.7-4.5-3.7-8.1c1-3.4,3.4-5.5,7-5C253,269.7,254.1,273,253.8,277.8z"/>
	<path d="M255.3,269.4c6.9-1.7,4.5,4.9,7.1,6.9c2.6-1.7-0.3-8.9,6.8-6.8c-3.4,6.6-3.1,15.1-11.4,19.4c-0.5-1.4-1.1-2.9-0.9-3
		c5.4-3.5,1.7-7.4,0.4-11.1C256.7,273,256,271.3,255.3,269.4z"/>
	<path d="M239,282.4c-3.9,1.6-4.1-0.4-4.2-3.2c-0.1-2.3,1.6-5.8-2.5-6.3c-0.4-0.1-1.8,4-2,6.2c-0.3,2.6-0.2,4.8-4,3.4
		c0-4.4,0-8.8,0-13c2.7-0.2,5.2-0.5,7.7-0.5c3.3,0,4.8,2.1,5,5.1C239.1,276.8,239,279.5,239,282.4z"/>
	<path d="M223.2,276c0,4-3,7.1-6.8,7c-3.9-0.1-6.6-3.1-6.5-7.2c0.1-4.1,3-6.8,7-6.6C220.7,269.2,223.2,272,223.2,276z M220,276
		c-1.4-1.8-2.4-2.9-3.3-4.1c-0.9,1.3-2.4,2.6-2.5,4c-0.1,1.2,1.3,2.6,2.1,3.9C217.4,278.7,218.5,277.6,220,276z"/>
	<path d="M219.6,365.2c-2,1.2-4.1,3.4-6,3.3c-1.7-0.2-4.1-2.8-4.5-4.7c-0.6-3,1.8-5.3,4.8-4.7c2.1,0.4,3.8,2.5,5.8,3.8
		C219.7,363.6,219.6,364.4,219.6,365.2z"/>
	<path d="M162.7,204.3c-2,1.3-4.1,3.7-5.8,3.5c-1.8-0.3-4.3-3-4.6-4.9c-0.2-1.3,2.8-4.3,4.5-4.4c1.9-0.1,3.9,2.2,5.9,3.4
		C162.7,202.7,162.7,203.5,162.7,204.3z"/>
	<path d="M349.5,181c-1.9,1.4-3.9,3.9-5.7,3.7c-1.8-0.2-4.4-2.9-4.7-4.8c-0.2-1.3,2.6-4.4,4.3-4.5c1.9-0.1,4,2.1,6,3.3
		C349.5,179.4,349.5,180.2,349.5,181z"/>
	<path d="M310.9,153.3c-2,1.3-3.8,3.3-5.9,3.6c-3.1,0.5-5.3-2-4.7-4.9c0.4-1.9,2.9-4.4,4.6-4.5c1.9-0.1,3.9,2.1,5.9,3.4
		C310.9,151.7,310.9,152.5,310.9,153.3z"/>
	<path d="M191.6,357.9c-1.2-2-3.6-4.2-3.3-5.9c0.4-1.8,3.1-4.2,5.1-4.4c1.3-0.2,4.2,3,4.2,4.7c0.1,1.9-2.3,3.8-3.6,5.8
		C193.2,357.9,192.4,357.9,191.6,357.9z"/>
	<path d="M373.7,222.1c-1.9,1.3-3.9,3.6-5.8,3.6c-1.7-0.1-4.7-3-4.6-4.3c0.3-1.9,2.6-4.7,4.5-5c1.7-0.3,3.9,2.2,5.9,3.4
		C373.6,220.6,373.7,221.4,373.7,222.1z"/>
	<path d="M153.7,226.1c-1.9,1.3-3.9,3.9-5.7,3.7c-1.8-0.2-4.4-2.8-4.8-4.7c-0.2-1.3,2.6-4.4,4.3-4.6c1.9-0.2,4,2,6,3.2
		C153.7,224.6,153.7,225.4,153.7,226.1z"/>
	<path d="M206.8,159.8c-1.3-1.9-3.6-3.9-3.6-5.8c0.1-1.7,3-4.7,4.3-4.6c1.9,0.3,4.7,2.6,5,4.5c0.3,1.7-2.2,3.9-3.4,5.9
		C208.4,159.8,207.6,159.8,206.8,159.8z"/>
	<path d="M333.4,350.7c-1.9,1.3-4,3.8-5.7,3.6c-1.8-0.3-4.3-2.9-4.6-4.9c-0.2-1.3,2.7-4.3,4.4-4.4c1.9-0.1,3.9,2.1,5.9,3.4
		C333.3,349.1,333.3,349.9,333.4,350.7z"/>
	<path d="M306.1,367.7c-1.3-1.9-3.7-3.9-3.7-5.7c0-1.7,2.5-4.3,4.3-4.8c2.9-0.8,5.4,1.4,5.1,4.5c-0.2,2.1-2.2,4-3.5,6
		C307.6,367.6,306.9,367.6,306.1,367.7z"/>
	<path d="M324.7,169.8c-1.3-1.9-3.6-4-3.5-5.8c0.1-1.7,3-4.8,4.3-4.6c2,0.3,4.7,2.7,5,4.5c0.3,1.7-2.2,3.9-3.5,5.8
		C326.3,169.8,325.5,169.8,324.7,169.8z"/>
	<path d="M188.6,161c1.3,1.9,3.7,3.8,3.7,5.7c0,1.7-2.5,4.3-4.3,4.8c-2.9,0.8-5.5-1.3-5.1-4.4c0.2-2.1,2.2-4,3.4-6
		C187,161,187.8,161,188.6,161z"/>
	<path d="M353.2,312.4c2-1.2,4-3.1,6.1-3.3c3.1-0.3,5.2,2.3,4.4,5.2c-0.5,1.8-3.2,4.2-4.9,4.2c-1.9,0-3.8-2.4-5.7-3.7
		C353.2,314,353.2,313.2,353.2,312.4z"/>
	<path d="M363.6,200.4c-1.9,1.3-3.9,3.6-5.8,3.5c-1.7-0.1-4.8-3-4.6-4.3c0.3-2,2.7-4.7,4.5-5c1.7-0.3,3.9,2.2,5.9,3.4
		C363.6,198.8,363.6,199.6,363.6,200.4z"/>
	<path d="M307.2,282.4c0-6.2,0-12.5,0-18.9c2.6-0.8,4.1-0.6,4,2.6c-0.1,4.6,0.1,9.3-0.1,13.9c-0.1,1.2-1.5,2.4-2.3,3.6
		C308.2,283.1,307.7,282.7,307.2,282.4z"/>
	<path d="M255.9,148.6c-1.2-2-3.4-4.1-3.2-6c0.2-1.7,2.8-4,4.7-4.4c3-0.6,5.3,1.8,4.7,4.8c-0.4,2.1-2.5,3.8-3.9,5.7
		C257.4,148.6,256.6,148.6,255.9,148.6z"/>
	<path d="M259.6,378.3c-1.3-1.9-3.3-3.8-3.6-5.9c-0.5-3.1,2-5.3,4.9-4.6c1.9,0.4,4.4,2.9,4.5,4.6c0.1,1.9-2.2,3.9-3.4,5.9
		C261.1,378.3,260.3,378.3,259.6,378.3z"/>
	<path d="M148.7,301.8c-1.3-2-3.6-4-3.4-5.9c0.1-1.7,3.1-4.7,4.4-4.5c1.9,0.3,4.7,2.7,4.9,4.6c0.3,1.7-2.2,3.9-3.5,5.8
		C150.3,301.8,149.5,301.8,148.7,301.8z"/>
	<path d="M283.7,139.2c1.2,2,3.6,4.2,3.3,5.9c-0.4,1.8-3.2,4.2-5.1,4.4c-1.3,0.1-4.2-3-4.2-4.7c0-1.9,2.3-3.8,3.7-5.7
		C282.1,139.1,282.9,139.2,283.7,139.2z"/>
	<path d="M371.9,274.1c-1.2-2-3.5-4-3.4-5.9c0.1-1.7,3.1-4.7,4.4-4.5c1.9,0.3,4.6,2.8,4.8,4.6c0.2,1.7-2.2,3.8-3.5,5.7
		C373.5,274.1,372.7,274.1,371.9,274.1z"/>
	<path d="M318.8,263.7c0,6.2,0,12.5,0,18.8c-2.8,1-4.1,0.4-4-2.7c0.1-4.6-0.1-9.3,0.2-13.9c0.1-1.2,1.6-2.3,2.5-3.4
		C317.9,262.9,318.3,263.3,318.8,263.7z"/>
	<path d="M142.4,254.6c-1.2-2-3.5-4-3.4-5.9c0.1-1.7,3.1-4.7,4.4-4.4c1.9,0.3,4.6,2.8,4.9,4.6c0.2,1.7-2.3,3.8-3.6,5.8
		C144,254.6,143.2,254.6,142.4,254.6z"/>
	<path d="M378.7,245.6c-2,1.3-3.9,3.6-5.8,3.5c-1.7-0.1-4.7-3-4.5-4.3c0.3-1.9,2.7-4.7,4.5-4.9c1.7-0.3,3.9,2.2,5.8,3.4
		C378.7,244,378.7,244.8,378.7,245.6z"/>
	<path d="M176.1,184.5c-2,1.2-4.1,3.7-5.8,3.4c-1.8-0.3-4.3-3-4.5-4.9c-0.2-1.3,2.8-4.2,4.5-4.3c1.9-0.1,3.9,2.2,5.8,3.5
		C176.1,183,176.1,183.7,176.1,184.5z"/>
	<path d="M229.4,151.6c-1.3-1.9-3.7-3.8-3.7-5.7c0-1.7,2.4-4.3,4.3-4.8c2.9-0.8,5.4,1.3,5.1,4.4c-0.2,2.1-2.2,4-3.4,6
		C231,151.5,230.2,151.6,229.4,151.6z"/>
	<path d="M180.6,337.6c-1.9,1.3-3.8,3.7-5.7,3.7c-1.7,0-4.2-2.5-4.8-4.3c-0.8-2.9,1.4-5.4,4.4-5.1c2.1,0.2,4,2.2,6,3.4
		C180.6,336,180.6,336.8,180.6,337.6z"/>
	<path d="M346.6,327.7c1.2,2,3.1,3.9,3.3,6.1c0.3,3.1-2.3,5.2-5.2,4.4c-1.8-0.5-4.2-3.1-4.3-4.8c0-1.9,2.4-3.8,3.7-5.7
		C345,327.6,345.8,327.7,346.6,327.7z"/>
	<path d="M154.4,316.6c1.9-1.3,3.9-3.6,5.8-3.6c1.7,0,4.8,2.9,4.6,4.2c-0.3,2-2.6,4.7-4.4,5.1c-1.7,0.3-3.9-2.1-5.9-3.3
		C154.5,318.2,154.5,317.4,154.4,316.6z"/>
	<path d="M367.3,297.6c-1.3-2-3.7-4.1-3.4-5.8c0.3-1.8,3-4.2,5-4.5c1.3-0.2,4.2,2.9,4.3,4.5c0.1,1.9-2.3,3.9-3.5,5.8
		C368.8,297.6,368,297.6,367.3,297.6z"/>
	<path d="M150.1,273.6c-1.9,1.4-3.9,4-5.6,3.8c-1.9-0.2-4.4-2.8-4.8-4.8c-0.3-1.3,2.6-4.3,4.3-4.5c1.9-0.2,4,2,6,3.2
		C150,272.1,150.1,272.9,150.1,273.6z"/>
	<path d="M242.6,371.6c-1.9,1.3-4,3.8-5.7,3.6c-1.8-0.2-4.3-2.9-4.7-4.8c-0.2-1.3,2.8-4.3,4.4-4.4c1.9-0.1,3.9,2.1,5.9,3.3
		C242.6,370.1,242.6,370.9,242.6,371.6z"/>
	<path d="M283.2,375.5c-1.2-2-3.5-4-3.3-5.9c0.1-1.7,2.7-4.1,4.5-4.5c3-0.7,5.3,1.6,4.9,4.7c-0.3,2.1-2.4,3.9-3.7,5.8
		C284.7,375.5,284,375.5,283.2,375.5z"/>
	<path d="M263.5,112.2c-1.9,1.2-3.9,3.5-5.5,3.3c-1.8-0.3-4.4-3-4.3-4.6c0-1.6,2.8-4.2,4.6-4.4c1.7-0.2,3.6,2.3,5.4,3.6
		C263.5,110.8,263.5,111.5,263.5,112.2z"/>
	<path d="M173.4,143c-1.3-1.8-3.7-3.6-3.6-5.3c0.1-1.7,2.7-4.5,4.3-4.6c1.6-0.1,4.4,2.5,4.6,4.2c0.3,1.6-2,3.7-3.2,5.6
		C174.8,142.9,174.1,143,173.4,143z"/>
	<path d="M162,153c-1.8,1.3-3.6,3.8-5.3,3.6c-1.8-0.1-4.5-2.7-4.6-4.3c-0.1-1.6,2.5-4.4,4.2-4.7c1.6-0.3,3.7,2,5.5,3.2
		C161.9,151.6,162,152.3,162,153z"/>
	<path d="M132.3,229.6c-1.2-1.9-3.4-3.9-3.2-5.5c0.3-1.8,2.9-3.2,4.5-4.7c1.5,1.6,4.1,3.1,4.3,4.9c0.2,1.7-2.2,3.6-3.5,5.4
		C133.7,229.6,133,229.6,132.3,229.6z"/>
	<path d="M111.1,260.5c-1.3-1.8-3.7-3.7-3.5-5.4c0.2-1.8,2.8-3.3,4.4-4.9c1.6,1.6,4.3,3,4.5,4.7c0.2,1.7-2.1,3.7-3.3,5.5
		C112.5,260.5,111.8,260.5,111.1,260.5z"/>
	<path d="M349.5,140.2c-1.8,1.2-3.9,3.6-5.5,3.3c-1.8-0.2-4.4-2.9-4.4-4.5c0-1.6,2.8-4.2,4.5-4.4c1.7-0.2,3.6,2.2,5.4,3.5
		C349.5,138.8,349.5,139.5,349.5,140.2z"/>
	<path d="M118.9,279c-1.8,1.2-3.8,3.6-5.4,3.4c-1.7-0.2-4.4-2.9-4.4-4.5c0-1.6,2.7-4.3,4.4-4.5c1.6-0.2,3.6,2.2,5.4,3.5
		C118.9,277.6,118.9,278.3,118.9,279z"/>
	<path d="M402,303.7c-1.8,1.3-3.6,3.8-5.3,3.6c-1.8-0.1-4.5-2.7-4.6-4.3c-0.1-1.6,2.5-4.4,4.2-4.7c1.6-0.3,3.7,2,5.5,3.2
		C402,302.3,402,303,402,303.7z"/>
	<path d="M365.9,361.8c-1.8,1.3-3.7,3.7-5.3,3.5c-1.7-0.2-4.5-2.8-4.5-4.4c0-1.6,2.6-4.3,4.3-4.6c1.6-0.2,3.6,2.1,5.5,3.3
		C365.9,360.4,365.9,361.1,365.9,361.8z"/>
	<path d="M309,137.1c-1.8,1.3-3.7,3.7-5.4,3.5c-1.7-0.2-4.4-2.8-4.5-4.4c0-1.6,2.6-4.3,4.3-4.5c1.6-0.2,3.6,2.1,5.4,3.4
		C309,135.7,309,136.4,309,137.1z"/>
	<path d="M158.3,183.8c-1.8,1.2-3.8,3.5-5.5,3.3c-1.8-0.2-3.2-2.9-4.8-4.4c1.6-1.6,3.1-4.2,4.9-4.4c1.6-0.2,3.6,2.2,5.4,3.4
		C158.3,182.4,158.3,183.1,158.3,183.8z"/>
	<path d="M402.4,213.8c-1.9,1.1-4,3.4-5.6,3.1c-1.7-0.3-3.1-3-4.6-4.6c1.7-1.5,3.3-4,5-4.2c1.7-0.1,3.5,2.3,5.3,3.6
		C402.5,212.3,402.5,213,402.4,213.8z"/>
	<path d="M132.6,323c-1.9,1.1-4,3.3-5.6,3c-1.7-0.3-3-3-4.5-4.7c1.7-1.5,3.3-4,5-4.1c1.7-0.1,3.5,2.3,5.3,3.7
		C132.7,321.6,132.6,322.3,132.6,323z"/>
	<path d="M174.2,351.7c-1.8,1.3-3.7,3.7-5.3,3.5c-1.8-0.2-3.3-2.7-4.9-4.3c1.5-1.6,2.9-4.3,4.6-4.6c1.6-0.3,3.7,2,5.5,3.2
		C174.2,350.2,174.2,350.9,174.2,351.7z"/>
	<path d="M195,120.4c1.2,1.8,3.6,3.8,3.4,5.5c-0.2,1.7-2.9,4.4-4.5,4.4c-1.6,0-4.2-2.7-4.4-4.5c-0.2-1.7,2.2-3.6,3.5-5.4
		C193.7,120.3,194.4,120.3,195,120.4z"/>
	<path d="M154.8,353.5c1.2,1.9,3.4,3.9,3.2,5.5c-0.3,1.8-2.9,3.2-4.5,4.7c-1.5-1.6-4.1-3.2-4.3-4.9c-0.2-1.7,2.2-3.6,3.5-5.4
		C153.4,353.5,154.1,353.5,154.8,353.5z"/>
	<path d="M407.6,281.6c-1.8,1.2-3.8,3.6-5.4,3.4c-1.8-0.2-3.3-2.8-4.9-4.3c1.6-1.6,3-4.2,4.8-4.5c1.7-0.2,3.7,2.1,5.5,3.3
		C407.5,280.1,407.6,280.8,407.6,281.6z"/>
	<path d="M286.9,131.1c-1.8,1.3-3.7,3.7-5.4,3.5c-1.7-0.2-4.4-2.8-4.4-4.4c0-1.6,2.6-4.3,4.3-4.5c1.6-0.2,3.6,2.1,5.5,3.3
		C286.8,129.7,286.9,130.4,286.9,131.1z"/>
	<path d="M386.4,278.4c1.2,1.9,3.5,3.9,3.3,5.5c-0.2,1.7-2.9,3.1-4.5,4.7c-1.5-1.6-4.1-3.1-4.3-4.9c-0.2-1.7,2.2-3.6,3.5-5.4
		C385,278.4,385.7,278.4,386.4,278.4z"/>
	<path d="M391.9,239.5c-1.9,1.2-3.9,3.5-5.5,3.2c-1.7-0.3-4.3-3-4.2-4.6c0-1.6,2.8-4.1,4.6-4.3c1.6-0.1,3.5,2.3,5.3,3.6
		C392,238,392,238.8,391.9,239.5z"/>
	<path d="M373.7,327.3c-1.8,1.3-3.7,3.6-5.4,3.5c-1.8-0.2-3.3-2.8-4.9-4.3c1.6-1.6,3-4.2,4.7-4.5c1.7-0.2,3.7,2,5.5,3.2
		C373.6,325.9,373.7,326.6,373.7,327.3z"/>
	<path d="M144.4,342.3c-1.8,1.3-3.6,3.7-5.3,3.6c-1.8-0.2-3.3-2.7-5-4.2c1.5-1.6,2.9-4.3,4.6-4.6c1.6-0.3,3.7,2,5.6,3.1
		C144.3,340.8,144.3,341.5,144.4,342.3z"/>
	<path d="M379.4,300.3c1.3,1.8,3.7,3.7,3.5,5.3c-0.2,1.8-2.7,3.3-4.2,5c-1.6-1.5-4.3-2.9-4.6-4.6c-0.3-1.7,2-3.7,3.1-5.6
		C378,300.4,378.7,300.4,379.4,300.3z"/>
	<path d="M362.7,148.6c1.2,1.9,3.4,3.9,3.2,5.6c-0.3,1.8-2.9,3.1-4.6,4.7c-1.5-1.6-4.1-3.2-4.2-5c-0.2-1.7,2.2-3.6,3.5-5.4
		C361.3,148.6,362,148.6,362.7,148.6z"/>
	<path d="M323.5,373.4c-1.8,1.3-3.7,3.6-5.4,3.5c-1.8-0.2-3.3-2.8-4.9-4.3c1.6-1.6,3-4.3,4.7-4.5c1.7-0.2,3.7,2,5.6,3.2
		C323.5,372,323.5,372.7,323.5,373.4z"/>
	<path d="M170.1,379.6c-1.3-1.8-3.8-3.6-3.7-5.3c0.1-1.8,2.7-4.6,4.3-4.6c1.6-0.1,4.4,2.5,4.6,4.3c0.3,1.7-2,3.7-3.2,5.6
		C171.5,379.6,170.8,379.6,170.1,379.6z"/>
	<path d="M207.9,370.8c1.2,1.8,3.5,3.8,3.3,5.4c-0.2,1.8-2.9,3.2-4.5,4.8c-1.6-1.6-4.2-3.1-4.4-4.8c-0.2-1.6,2.2-3.6,3.4-5.4
		C206.5,370.8,207.2,370.8,207.9,370.8z"/>
	<path d="M348.4,376.7c-1.8,1.3-3.7,3.6-5.4,3.5c-1.8-0.2-3.3-2.8-4.9-4.3c1.6-1.6,3-4.3,4.7-4.6c1.7-0.2,3.7,2.1,5.5,3.3
		C348.4,375.3,348.4,376,348.4,376.7z"/>
	<path d="M360,170.4c1.2,1.8,3.6,3.8,3.4,5.5c-0.2,1.7-2.9,4.4-4.5,4.4c-1.6,0-4.2-2.7-4.4-4.4c-0.2-1.7,2.2-3.6,3.4-5.4
		C358.6,170.4,359.3,170.4,360,170.4z"/>
	<path d="M119.7,233.1c-1.8,1.2-3.8,3.6-5.4,3.4c-1.7-0.2-4.4-2.9-4.4-4.5c0-1.6,2.7-4.2,4.4-4.5c1.7-0.2,3.6,2.2,5.4,3.4
		C119.7,231.8,119.7,232.5,119.7,233.1z"/>
	<path d="M386.6,216.8c-1.8,1.3-3.7,3.7-5.4,3.5c-1.8-0.2-3.3-2.8-4.9-4.3c1.6-1.6,3-4.3,4.7-4.6c1.7-0.2,3.7,2.1,5.5,3.3
		C386.6,215.4,386.6,216.1,386.6,216.8z"/>
	<path d="M386.8,266.6c-1.2-1.8-3.6-3.8-3.4-5.5c0.2-1.7,2.9-3.2,4.5-4.8c1.6,1.6,4.2,3.1,4.4,4.8c0.2,1.7-2.2,3.6-3.4,5.4
		C388.2,266.6,387.5,266.6,386.8,266.6z"/>
	<path d="M225.9,137.3c-1.1-1.9-3.4-4-3.1-5.6c0.3-1.7,3-3.1,4.7-4.6c1.5,1.7,4.1,3.3,4.2,5c0.1,1.7-2.4,3.5-3.7,5.3
		C227.3,137.4,226.6,137.3,225.9,137.3z"/>
	<path d="M143.1,308.3c1.2,1.9,3.4,3.9,3.2,5.6c-0.3,1.7-3.1,4.3-4.6,4.2c-1.6-0.1-4.1-2.9-4.3-4.6c-0.1-1.7,2.3-3.5,3.7-5.3
		C141.8,308.3,142.5,308.3,143.1,308.3z"/>
	<path d="M387.4,196.7c-1.3-1.8-3.7-3.7-3.5-5.3c0.1-1.8,2.7-3.3,4.2-5c1.6,1.5,4.3,2.9,4.6,4.6c0.3,1.6-2,3.7-3.2,5.6
		C388.9,196.6,388.1,196.7,387.4,196.7z"/>
	<path d="M393.1,325.2c-1.8,1.2-3.8,3.6-5.4,3.3c-1.8-0.3-4.4-2.9-4.4-4.5c0-1.6,2.7-4.2,4.5-4.4c1.6-0.2,3.6,2.2,5.3,3.5
		C393.1,323.8,393.1,324.5,393.1,325.2z"/>
	<path d="M342.1,164.9c-1.3-1.8-3.8-3.6-3.6-5.3c0.1-1.7,2.7-4.5,4.3-4.5c1.6-0.1,4.3,2.5,4.6,4.2c0.3,1.6-2,3.7-3.2,5.5
		C343.5,164.8,342.8,164.8,342.1,164.9z"/>
	<path d="M281.9,107.4c1.2,1.8,3.6,3.8,3.4,5.4c-0.2,1.7-2.9,4.4-4.4,4.4c-1.6,0-4.3-2.7-4.5-4.4c-0.2-1.7,2.2-3.6,3.4-5.4
		C280.5,107.4,281.2,107.4,281.9,107.4z"/>
	<path d="M325.2,140.5c1.3,1.8,3.7,3.7,3.5,5.4c-0.2,1.8-2.8,3.3-4.3,4.9c-1.6-1.5-4.3-2.9-4.5-4.7c-0.3-1.6,2-3.7,3.2-5.5
		C323.8,140.5,324.5,140.5,325.2,140.5z"/>
	<path d="M409.4,258.9c-1.9,1.2-3.9,3.4-5.5,3.2c-1.8-0.3-3.2-2.9-4.7-4.5c1.6-1.5,3.2-4.1,4.9-4.3c1.7-0.2,3.6,2.2,5.4,3.5
		C409.5,257.4,409.5,258.1,409.4,258.9z"/>
	<path d="M304.4,112.8c1.2,1.8,3.5,3.8,3.3,5.5c-0.3,1.8-2.9,3.2-4.5,4.7c-1.5-1.6-4.1-3.1-4.3-4.9c-0.2-1.6,2.2-3.6,3.4-5.4
		C303,112.8,303.7,112.8,304.4,112.8z"/>
	<path d="M325.3,121.5c1.3,1.8,3.7,3.7,3.5,5.3c-0.2,1.8-2.7,3.3-4.2,5c-1.6-1.5-4.3-2.9-4.6-4.7c-0.3-1.7,2-3.7,3.1-5.6
		C323.9,121.5,324.6,121.5,325.3,121.5z"/>
	<path d="M260,128.8c-1.7,1.3-3.6,3.8-5.2,3.7c-1.7-0.1-4.4-2.7-4.6-4.3c-0.1-1.6,2.4-4.4,4.1-4.7c1.6-0.3,3.7,2,5.6,3.2
		C259.9,127.4,260,128.1,260,128.8z"/>
	<path d="M307.5,397c-1.8,1.3-3.6,3.8-5.3,3.7c-1.8-0.1-3.4-2.7-5-4.2c1.5-1.7,2.8-4.4,4.6-4.7c1.6-0.3,3.7,2,5.6,3.1
		C307.4,395.6,307.4,396.3,307.5,397z"/>
	<path d="M239.1,402.2c-1.9,1.2-3.9,3.4-5.6,3.2c-1.8-0.3-4.3-3.1-4.2-4.7c0.1-1.6,2.9-4.1,4.6-4.3c1.6-0.1,3.5,2.3,5.3,3.6
		C239.2,400.8,239.2,401.5,239.1,402.2z"/>
	<path d="M262,404.1c-1.8,1.2-3.8,3.6-5.4,3.4c-1.8-0.2-4.4-2.9-4.4-4.5c0-1.6,2.7-4.2,4.5-4.4c1.6-0.2,3.6,2.2,5.4,3.5
		C262.1,402.6,262.1,403.3,262,404.1z"/>
	<path d="M119.1,215.3c-1.3-1.8-3.8-3.6-3.7-5.2c0.1-1.8,2.7-3.4,4.2-5.1c1.7,1.5,4.4,2.8,4.7,4.5c0.3,1.6-1.9,3.7-3.1,5.6
		C120.5,215.3,119.8,215.3,119.1,215.3z"/>
	<path d="M135.1,286.9c1.1,1.9,3.4,3.9,3.1,5.5c-0.3,1.7-3,3.1-4.6,4.6c-1.5-1.6-4.1-3.2-4.2-5c-0.1-1.6,2.3-3.5,3.6-5.3
		C133.7,286.9,134.4,286.9,135.1,286.9z"/>
	<path d="M129.8,183.2c1.3,1.8,3.7,3.6,3.6,5.3c-0.1,1.7-2.7,4.5-4.3,4.5c-1.6,0.1-4.3-2.5-4.6-4.2c-0.3-1.6,2.1-3.7,3.2-5.5
		C128.4,183.3,129.1,183.2,129.8,183.2z"/>
	<path d="M173.1,166.2c-1.8,1.2-3.7,3.6-5.4,3.4c-1.8-0.2-4.4-2.8-4.5-4.4c0-1.6,2.6-4.2,4.4-4.5c1.6-0.2,3.6,2.1,5.4,3.3
		C173.1,164.8,173.1,165.5,173.1,166.2z"/>
	<path d="M279.8,386.9c-1.8,1.3-3.7,3.7-5.3,3.6c-1.7-0.2-4.5-2.8-4.5-4.3c0-1.6,2.5-4.3,4.3-4.6c1.6-0.2,3.7,2.1,5.5,3.3
		C279.7,385.5,279.8,386.2,279.8,386.9z"/>
	<path d="M192.1,366.1c-1.8,1.3-3.6,3.7-5.3,3.6c-1.8-0.2-4.5-2.7-4.6-4.3c-0.1-1.6,2.5-4.3,4.2-4.6c1.6-0.3,3.7,2,5.5,3.1
		C192,364.6,192.1,365.4,192.1,366.1z"/>
	<path d="M342.8,361.4c-1.8,1.2-3.8,3.5-5.5,3.3c-1.7-0.2-4.3-2.9-4.3-4.5c0-1.6,2.7-4.2,4.5-4.4c1.6-0.2,3.6,2.2,5.4,3.5
		C342.8,359.9,342.8,360.6,342.8,361.4z"/>
	<path d="M377.4,195.6c-1.8,1.3-3.6,3.7-5.3,3.6c-1.8-0.1-3.3-2.7-5-4.2c1.5-1.7,2.9-4.4,4.6-4.7c1.6-0.3,3.7,2,5.6,3.2
		C377.3,194.2,377.3,194.9,377.4,195.6z"/>
	<path d="M298,375.8c1.2,1.9,3.4,3.9,3.2,5.5c-0.3,1.8-2.9,3.1-4.6,4.7c-1.5-1.6-4.1-3.2-4.3-4.9c-0.2-1.6,2.2-3.5,3.5-5.3
		C296.5,375.8,297.2,375.8,298,375.8z"/>
	<path d="M328.8,388.5c-1.8,1.3-3.7,3.6-5.4,3.5c-1.8-0.2-3.3-2.8-4.9-4.3c1.5-1.6,2.9-4.3,4.7-4.5c1.6-0.2,3.7,2,5.5,3.2
		C328.7,387.1,328.8,387.8,328.8,388.5z"/>
	<path d="M142.2,197c1.3,1.8,3.7,3.7,3.6,5.3c-0.2,1.8-2.7,4.5-4.3,4.6c-1.6,0.1-4.3-2.5-4.6-4.3c-0.3-1.6,2-3.7,3.2-5.5
		C140.7,197.1,141.4,197,142.2,197z"/>
	<path d="M243.2,113.4c-1.8,1.3-3.7,3.6-5.4,3.5c-1.8-0.2-3.3-2.8-4.9-4.3c1.6-1.6,2.9-4.3,4.7-4.5c1.6-0.3,3.7,2,5.5,3.2
		C243.2,111.9,243.2,112.7,243.2,113.4z"/>
	<path d="M403.3,229.3c1.3,1.8,3.6,3.7,3.5,5.4c-0.2,1.7-2.8,3.2-4.4,4.8c-1.6-1.6-4.2-3-4.5-4.7c-0.2-1.7,2.1-3.7,3.3-5.5
		C401.9,229.3,402.6,229.3,403.3,229.3z"/>
	<path d="M252.6,381.3c1.2,1.9,3.4,3.9,3.2,5.6c-0.3,1.7-3,4.3-4.6,4.2c-1.6-0.1-4.1-2.8-4.2-4.6c-0.1-1.7,2.3-3.5,3.6-5.3
		C251.2,381.2,251.9,381.3,252.6,381.3z"/>
	<path d="M353.1,350c-1.2-1.8-3.5-3.8-3.3-5.4c0.3-1.7,2.9-4.4,4.5-4.4c1.6,0,4.2,2.7,4.4,4.5c0.2,1.6-2.2,3.6-3.5,5.4
		C354.5,350,353.8,350,353.1,350z"/>
	<path d="M135,247.6c-1.8,1.3-3.6,3.7-5.3,3.6c-1.7-0.2-4.5-2.7-4.6-4.3c-0.1-1.6,2.5-4.3,4.2-4.6c1.6-0.3,3.7,2,5.6,3.2
		C134.9,246.1,135,246.9,135,247.6z"/>
	<path d="M195.8,387.6c-1.8,1.2-3.8,3.5-5.5,3.3c-1.7-0.2-4.4-2.9-4.3-4.5c0-1.6,2.7-4.2,4.5-4.3c1.7-0.2,3.6,2.2,5.4,3.4
		C195.8,386.1,195.8,386.9,195.8,387.6z"/>
	<path d="M142.1,163.9c1.3,1.7,3.8,3.6,3.6,5.2c-0.1,1.8-2.7,3.3-4.2,5c-1.7-1.5-4.4-2.8-4.7-4.5c-0.3-1.6,1.9-3.7,3-5.6
		C140.7,164,141.4,163.9,142.1,163.9z"/>
	<path d="M130.8,264.2c1.2,1.8,3.5,3.8,3.2,5.5c-0.2,1.7-2.9,3.1-4.5,4.7c-1.6-1.6-4.2-3.1-4.3-4.8c-0.2-1.6,2.2-3.6,3.5-5.4
		C129.3,264.2,130.1,264.2,130.8,264.2z"/>
	<path d="M124,301.3c-1.8,1.3-3.7,3.6-5.3,3.5c-1.8-0.2-4.5-2.8-4.5-4.3c0-1.6,2.6-4.3,4.3-4.5c1.6-0.2,3.6,2.1,5.5,3.2
		C124,299.9,124,300.6,124,301.3z"/>
	<path d="M216.2,111.9c1.3,1.7,3.8,3.6,3.6,5.2c-0.1,1.8-2.7,3.3-4.2,5c-1.7-1.5-4.3-2.8-4.7-4.5c-0.3-1.6,1.9-3.7,3-5.6
		C214.7,112,215.4,112,216.2,111.9z"/>
	<path d="M227.4,388.9c-1.2-1.8-3.5-3.8-3.3-5.5c0.2-1.7,2.9-4.4,4.5-4.4c1.6,0,4.2,2.7,4.4,4.5c0.2,1.6-2.2,3.6-3.4,5.4
		C228.9,389,228.2,388.9,227.4,388.9z"/>
	<path d="M159.1,334.7c-1.9,1.2-3.9,3.4-5.5,3.2c-1.7-0.3-3.1-2.9-4.7-4.5c1.6-1.5,3.1-4.1,4.9-4.3c1.6-0.2,3.5,2.2,5.3,3.5
		C159.1,333.2,159.1,334,159.1,334.7z"/>
	<path d="M380.9,344.8c-1.9,1.2-3.9,3.4-5.5,3.2c-1.7-0.3-4.3-3-4.3-4.6c0.1-1.6,2.8-4.1,4.6-4.3c1.6-0.2,3.5,2.2,5.3,3.5
		C381,343.3,381,344.1,380.9,344.8z"/>
	<path d="M377.2,166c1.3,1.8,3.7,3.6,3.6,5.2c-0.1,1.8-2.6,4.5-4.2,4.6c-1.6,0.1-4.3-2.4-4.6-4.2c-0.3-1.6,1.9-3.7,3.1-5.6
		C375.7,166.1,376.5,166.1,377.2,166z"/>
	<path d="M206,394.3c1.8-1.2,3.8-3.6,5.4-3.4c1.7,0.2,4.4,2.9,4.4,4.4c0,1.6-2.7,4.2-4.4,4.4c-1.6,0.2-3.6-2.1-5.4-3.4
		C206,395.7,206,395,206,394.3z"/>
	<path d="M186.4,145.1c1.3,1.8,3.7,3.7,3.5,5.3c-0.2,1.8-2.7,3.3-4.3,4.9c-1.6-1.5-4.3-2.9-4.5-4.6c-0.3-1.6,2-3.7,3.2-5.5
		C185,145.1,185.7,145.1,186.4,145.1z"/>
	<path d="M285,402.7c-1.9,1.1-3.9,3.4-5.6,3.1c-1.7-0.3-4.3-3-4.2-4.6c0.1-1.6,2.9-4.1,4.6-4.2c1.6-0.1,3.5,2.3,5.3,3.6
		C285,401.3,285,402,285,402.7z"/>
	<path d="M206.5,133.9c1.2,1.8,3.6,3.8,3.4,5.4c-0.2,1.8-2.8,3.2-4.4,4.8c-1.6-1.6-4.2-3-4.5-4.7c-0.2-1.6,2.1-3.6,3.3-5.5
		C205.1,133.9,205.8,133.9,206.5,133.9z"/>
</g>
</svg>
