<?xml version="1.0" standalone="no"?>
<!DOCTYPE svg PUBLIC "-//W3C//DTD SVG 20010904//EN"
 "http://www.w3.org/TR/2001/REC-SVG-20010904/DTD/svg10.dtd">
<svg version="1.0" xmlns="http://www.w3.org/2000/svg"
 width="900.000000pt" height="900.000000pt" viewBox="0 0 900.000000 900.000000"
 preserveAspectRatio="xMidYMid meet">
<metadata>
Created by potrace 1.10, written by Peter Selinger 2001-2011
</metadata>
<g transform="translate(0.000000,900.000000) scale(0.100000,-0.100000)"
fill="#000000" stroke="none">
<path d="M4179 8277 c-3 -4 -80 -7 -172 -7 -91 -1 -203 -6 -249 -10 -310 -32
-333 -36 -478 -66 -77 -16 -152 -46 -182 -71 -16 -14 -17 -214 -16 -3099 0
-1806 4 -3086 9 -3090 5 -3 9 -12 9 -20 0 -21 49 -62 90 -74 112 -35 250 -61
425 -80 50 -5 131 -14 182 -20 50 -5 257 -13 460 -16 724 -12 1316 41 1524
137 38 17 49 28 58 59 11 38 17 1571 6 1582 -8 7 -6 4512 1 4558 5 32 2 41
-22 64 -16 14 -36 26 -44 26 -9 0 -24 6 -35 14 -11 7 -36 16 -55 19 -19 3 -53
10 -75 15 -61 15 -180 33 -285 42 -52 5 -126 13 -165 19 -77 11 -977 27 -986
18z m636 -72 c154 -4 296 -11 316 -16 20 -5 86 -11 145 -14 60 -3 129 -10 154
-15 25 -5 79 -14 120 -21 102 -16 117 -23 134 -64 8 -19 21 -35 29 -35 37 0
40 -25 45 -318 6 -327 6 -333 -1 -387 -2 -22 0 -54 6 -72 7 -21 7 -36 1 -45
-8 -11 -9 -123 -3 -248 1 -14 1 -95 1 -180 0 -85 0 -166 0 -180 0 -14 0 -122
0 -240 -1 -118 1 -285 3 -370 9 -326 10 -505 2 -517 -4 -6 -5 -46 -2 -90 10
-118 14 -676 5 -693 -7 -14 0 -78 16 -158 5 -24 2 -38 -10 -51 -10 -11 -13
-22 -8 -25 12 -7 16 -402 5 -420 -11 -15 -11 -80 -1 -293 4 -100 13 -194 20
-208 10 -22 8 -30 -11 -56 l-23 -31 -4 -686 c-4 -788 -6 -840 -37 -862 -38
-27 -179 -56 -382 -80 -49 -6 -130 -15 -180 -21 -197 -23 -919 -31 -1235 -14
-349 20 -640 66 -722 115 l-34 19 -1 448 c-2 369 -6 632 -17 1053 l-1 35 60 0
c33 -1 107 -6 165 -13 58 -6 161 -12 230 -14 69 -1 145 -6 170 -10 25 -5 65
-6 90 -2 40 6 42 8 20 14 -64 19 -168 33 -310 41 -85 5 -184 14 -220 20 -36 6
-89 12 -119 13 -53 1 -54 2 -56 31 -3 42 -6 261 -5 440 1 83 1 508 1 945 0
437 2 1261 5 1830 3 569 5 1082 5 1140 0 120 11 154 46 145 16 -4 23 -1 23 10
0 8 4 15 9 15 5 0 14 14 21 30 7 17 22 32 34 35 70 15 136 27 171 31 22 2 101
11 175 19 119 14 803 37 855 29 11 -1 146 -6 300 -9z"/>
<path d="M5250 3472 c-94 -4 -106 -15 -25 -23 90 -8 347 0 360 12 5 5 -34 9
-95 10 -58 1 -121 2 -140 3 -19 0 -64 0 -100 -2z"/>
<path d="M3930 3430 c-11 -7 -2 -10 33 -10 26 0 47 5 47 10 0 13 -60 13 -80 0z"/>
<path d="M4395 3390 c-14 -22 15 -34 97 -41 64 -6 90 -4 121 8 30 12 44 14 57
5 14 -9 20 -8 24 5 4 9 4 18 1 21 -3 3 -70 8 -149 10 -105 3 -145 1 -151 -8z"/>
<path d="M4320 3380 c0 -5 7 -10 15 -10 8 0 15 5 15 10 0 6 -7 10 -15 10 -8 0
-15 -4 -15 -10z"/>
<path d="M4287 2653 c-4 -3 -7 -28 -7 -54 0 -43 3 -49 36 -68 20 -12 45 -23
57 -24 31 -3 32 22 0 34 -35 13 -64 39 -57 50 10 16 62 9 98 -13 30 -19 36
-28 33 -51 -4 -29 15 -53 33 -42 5 3 10 23 10 44 0 33 4 39 35 54 20 9 47 17
61 17 38 0 27 -31 -18 -53 -43 -21 -49 -37 -14 -37 27 0 83 29 90 46 2 6 2 31
-1 57 -6 52 -14 56 -62 32 -17 -8 -45 -22 -62 -30 -17 -8 -41 -15 -54 -15 -22
0 -35 5 -113 44 -36 17 -55 20 -65 9z"/>
</g>
</svg>
