<?xml version="1.0" encoding="utf-8"?>
<!-- Generator: Adobe Illustrator 21.0.0, SVG Export Plug-In . SVG Version: 6.00 Build 0)  -->
<svg version="1.1" id="Layer_1" xmlns="http://www.w3.org/2000/svg" xmlns:xlink="http://www.w3.org/1999/xlink" x="0px" y="0px"
	 viewBox="0 0 251 585.1" style="enable-background:new 0 0 251 585.1;" xml:space="preserve">
<style type="text/css">
	.st0{fill:#191A18;}
</style>
<g>
	<path class="st0" d="M212.1,6.4C188.9,2.3,158.2,0,125.5,0S62.1,2.3,38.9,6.4C22.2,9.4,0,14.6,0,25.7v535.7l0.1,4h1.5
		c3,4.3,11.9,9.5,38.8,13.9c23,3.7,53.3,5.8,85.2,5.8s62.2-2.1,85.2-5.8c26.9-4.4,35.8-9.6,38.8-13.9h1.5V25.7
		C251,14.6,228.8,9.4,212.1,6.4z M208.5,571.5c-22.5,3.6-51.9,5.5-83,5.5c-31.1,0-60.5-2-83-5.5c-26.7-4.2-34-9.3-34.5-10.9V429.3
		c5.5,1.4,16.4,2.9,38.7,4.2c23.1,1.4,52.3,2.3,78.3,2.3v-4c-52,0-104.8-3.1-117-6.5V25.7c0-0.1,2-6.1,33-11.5
		c22.6-4,52.6-6.2,84.5-6.2s61.8,2.2,84.5,6.2c31,5.4,33,11.5,33,11.5v399.4c-11.2,3.5-64.7,6.7-117.5,6.7v4c26,0,55.2-0.8,78.3-2.3
		c23-1.4,33.9-3,39.2-4.4v131.5C242.4,562.3,235.2,567.3,208.5,571.5z"/>
	<polygon class="st0" points="124.6,501.5 109.7,499.3 109.7,511 119.1,512.4 119.1,509 113.1,508.1 113.1,503.2 123.3,504.8 
		123.3,513.1 126.7,513.1 126.7,507.6 126.7,507.6 126.7,504.8 136.9,503.2 136.9,508.1 130.8,509 130.8,512.4 140.2,511 
		140.2,499.3 125.4,501.5 	"/>
</g>
</svg>
