<svg xmlns="http://www.w3.org/2000/svg" viewBox="0 0 664.15 1000"><title>xiaomi</title><g id="Layer_2" data-name="Layer 2"><path d="M280.76,468.8V778.37a50.93,50.93,0,0,0,101.85,0V468.8a50.93,50.93,0,1,0-101.85,0Zm96,0V778.37a45.11,45.11,0,0,1-90.22,0V468.8a45.11,45.11,0,1,1,90.22,0Z"/><path d="M292.43,468.8V778.37a39.26,39.26,0,0,0,78.51,0V468.8a39.26,39.26,0,0,0-78.51,0Zm75.6,0V778.37a36.35,36.35,0,0,1-72.69,0V468.8a36.35,36.35,0,0,1,72.69,0Z"/><path d="M334.6,729.33V516.82a2.91,2.91,0,1,0-5.82,0V729.33a2.91,2.91,0,0,0,5.82,0Z"/><path d="M343.14,473.4a11.64,11.64,0,0,1-21.53,3.72,1.45,1.45,0,1,0-2.52,1.46A14.55,14.55,0,0,0,346,473.93a1.45,1.45,0,0,0-2.86-.52Z"/><path d="M317.82,466.91a14.58,14.58,0,0,0-.5,2.14,1.46,1.46,0,0,0,1.21,1.66l.23,0a1.45,1.45,0,0,0,1.44-1.23A11.64,11.64,0,0,1,342,465.83a1.45,1.45,0,0,0,2.57-1.37,14.55,14.55,0,0,0-26.71,2.45Z"/><path d="M330.24,756.71v14.91a1.45,1.45,0,1,0,2.91,0V756.71a1.45,1.45,0,1,0-2.91,0Z"/><path d="M341.25,763.07a1.45,1.45,0,1,0-1.91,2.19,11.64,11.64,0,1,1-15.3,0,1.45,1.45,0,0,0-1.91-2.19,14.55,14.55,0,1,0,19.12,0Z"/><path d="M663.35,303.35c-.32-71.47-.62-139-.62-193,0-14.77-1.19-33.78-10.5-49.83-8.72-15-23.83-26.5-46.19-35C560,7.85,475.59,0,332.46,0V11.63c141.64,0,224.74,7.61,269.44,24.68,41.15,15.71,49.2,39,49.2,74,0,54.09.3,121.61.62,193.09.74,167.8,1.65,373.17-.81,522.68-19.32,9.08-106.18,43.28-318.44,43.28h-.77c-70.11,0-171-3.94-253.59-22.74-36.48-8.3-56.69-16.68-64.85-20.53-2.47-149.51-1.56-354.88-.81-522.69.32-71.49.62-139,.62-193.09,0-35,8.05-58.28,49.2-74C107,19.25,190,11.63,331.69,11.63V0C188.57,0,104.19,7.85,58.1,25.44c-22.36,8.54-37.47,20-46.19,35C7,68.91,1.41,82.19,1.41,110.3c0,54.06-.3,121.57-.62,193C0,486.7-1,714.89,2.39,866.23c.56,24.78,6.91,61,55.39,88.84,24.37,14,57.71,24.88,99.08,32.28,46.89,8.39,105.72,12.65,174.84,12.65h.77c69.12,0,127.94-4.26,174.84-12.65,41.37-7.4,74.71-18.27,99.08-32.28,48.48-27.88,54.83-64.06,55.39-88.84C665.18,714.89,664.17,486.7,663.35,303.35ZM600.58,945c-50,28.79-140.26,43.38-268.12,43.38h-.77c-127.86,0-218.07-14.6-268.12-43.38-42.9-24.68-49-55.19-49.56-79-.24-10.75-.46-21.91-.66-33.4,9.68,4.35,29.44,12,62.87,19.59,83.2,19,184.84,23,255.46,23h.77c70.62,0,172.26-4,255.46-23,33.43-7.64,53.19-15.25,62.87-19.59-.2,11.49-.42,22.64-.66,33.4C649.6,889.79,643.48,920.31,600.58,945Z"/></g></svg>
