<?xml version="1.0" encoding="utf-8"?>
<!-- Generator: Adobe Illustrator 21.0.0, SVG Export Plug-In . SVG Version: 6.00 Build 0)  -->
<svg version="1.1" id="Layer_1" xmlns="http://www.w3.org/2000/svg" xmlns:xlink="http://www.w3.org/1999/xlink" x="0px" y="0px"
	 viewBox="0 0 605.7 278.4" style="enable-background:new 0 0 605.7 278.4;" xml:space="preserve">
<style type="text/css">
	.st0{fill:#191A18;}
</style>
<path class="st0" d="M605.6,105.1l0-0.2c-1.2-23.1-31.7-44.8-85.9-61.1c-12.4-3.7-25.7-7.1-40-10C451.2,13.5,379.5,0,297.5,0
	c-85.1,0-159.7,14.8-185.5,36.3c-6.8,1.5-13.5,3.1-19.9,4.8C60,49.6,7,67.7,0.7,95.3H0v96.2c0,12.7,8.6,24.8,25.5,35.9
	c15.4,10.1,37.3,19.1,65.2,26.8c56.7,15.7,132.1,24.3,212.1,24.3s155.4-8.6,212.1-24.3c27.8-7.7,49.8-16.7,65.2-26.8
	c16.9-11,25.5-23.1,25.5-35.9l0-81L605.6,105.1z M178.3,16c34.2-7.2,75.4-11,119.1-11c69.9,0,133.9,10.3,167.1,25.9
	c-47.4-8.6-102.9-13.2-161.8-13.2c-64.3,0-126,5.6-177.7,15.9C137.5,26.8,155.7,20.8,178.3,16z M9,100.1
	c1.8-34.7,122.9-73.4,293.8-73.4c82.8,0,158.9,9.2,214.3,25.8c48.8,14.6,78.5,34.4,79.5,52.8l0,5.2l0,56
	c-12.6-16.9-40.6-32.2-82-44.4C458,105.5,382.8,96.4,302.8,96.4c-80,0-155.2,9.2-211.8,25.8c-41.4,12.2-69.5,27.5-82,44.3v-65.6
	L9,100.1z M554.5,230.8c-11.8,5.2-25.8,10.1-42,14.6c-1.2,0.3-2.4,0.6-3.5,1c50.5-14.9,78.3-34.6,78.3-55.6
	c0-21.8-29.9-42.2-84.3-57.3c-53.8-15-125.2-23.2-201.2-23.2c-76,0-147.5,8.2-201.2,23.2c-54.3,15.1-84.3,35.5-84.3,57.3
	c0,18.1,20.7,35.2,58.8,49.2c-8.8-2.9-16.8-6-23.9-9.1c-21.3-10-35.4-21.2-40.9-32.7C9.4,196,9,193.7,9,191.5v-12.7
	c6.8-18.8,36.5-37,83.7-50.9c56.1-16.5,130.7-25.6,210.1-25.6c79.4,0,154,9.1,210.1,25.6c47.3,13.9,76.9,32.1,83.7,50.9l0,12.6
	c0,2.2-0.4,4.5-1.2,6.7C589.8,209.7,575.8,220.8,554.5,230.8z M301.8,268.3c-75.7,0-146.9-8.2-200.4-23.1
	c-52.2-14.5-82.1-34.3-82.1-54.4s29.9-39.9,82.1-54.4c53.5-14.9,124.7-23.1,200.4-23.1s146.9,8.2,200.4,23.1
	c52.2,14.5,82.1,34.3,82.1,54.4s-29.9,39.9-82.1,54.4C448.7,260.1,377.5,268.3,301.8,268.3z"/>
</svg>
