<?xml version="1.0" standalone="no"?>
<!DOCTYPE svg PUBLIC "-//W3C//DTD SVG 20010904//EN"
 "http://www.w3.org/TR/2001/REC-SVG-20010904/DTD/svg10.dtd">
<svg version="1.0" xmlns="http://www.w3.org/2000/svg"
 width="300.000000pt" height="300.000000pt" viewBox="0 0 300.000000 300.000000"
 preserveAspectRatio="xMidYMid meet">
<metadata>
Created by potrace 1.10, written by Peter Selinger 2001-2011
</metadata>
<g transform="translate(0.000000,300.000000) scale(0.050000,-0.050000)"
fill="#000000" stroke="none">
<path d="M2304 4029 c-325 -46 -597 -121 -794 -218 -99 -49 -225 -100 -280
-113 -505 -124 -698 -310 -704 -676 -3 -206 0 -240 18 -187 12 36 28 65 36 65
8 0 10 24 4 53 -7 40 -3 49 16 37 17 -11 21 -8 12 7 -30 49 -32 108 -3 84 22
-19 26 -16 21 13 -4 20 -8 43 -8 52 -1 9 -12 10 -25 2 -15 -9 -18 -5 -9 9 8
13 24 18 35 11 13 -8 16 11 10 50 -7 46 -2 62 21 62 16 0 34 18 40 40 6 22 16
40 23 40 7 0 39 23 71 50 32 28 80 50 106 50 40 0 46 8 36 40 -11 34 -7 37 33
23 34 -13 55 -7 86 25 45 46 167 97 194 80 9 -6 17 4 17 22 0 26 7 27 42 9 30
-16 39 -16 29 -1 -8 13 2 22 25 22 21 0 54 18 74 40 217 239 2447 261 3035 30
19 -8 35 -6 35 5 0 53 -479 197 -850 257 -285 46 -1074 56 -1346 17z"/>
<path d="M4491 3721 c-6 -10 9 -24 34 -31 86 -25 215 -80 215 -92 0 -7 23 -10
50 -7 40 4 50 -4 50 -38 0 -24 7 -34 15 -23 21 28 85 36 85 12 0 -12 25 -34
55 -51 30 -16 42 -30 27 -30 -16 -1 -23 -7 -16 -14 7 -7 26 -2 42 12 24 19 35
16 55 -16 19 -31 32 -35 51 -20 19 16 26 15 26 -6 0 -15 27 -50 60 -77 33 -27
60 -59 60 -70 0 -11 17 -31 38 -44 30 -19 36 -43 31 -119 -3 -52 0 -105 7
-116 23 -38 24 -91 1 -91 -14 0 -12 -12 6 -33 15 -18 37 -77 49 -130 25 -107
31 -107 -100 -1 -913 735 -4832 572 -4832 -201 0 -804 3785 -1049 4811 -312
160 115 166 135 168 562 2 524 -29 581 -409 766 -229 111 -556 207 -579 170z
m-1011 -561 c1618 -113 2362 -598 1532 -1000 -1067 -516 -3905 -379 -4337 210
-344 470 1189 901 2805 790z"/>
</g>
</svg>
