<?xml version="1.0" encoding="utf-8"?>
<!-- Generator: Adobe Illustrator 21.0.0, SVG Export Plug-In . SVG Version: 6.00 Build 0)  -->
<svg version="1.1" id="Layer_1" xmlns="http://www.w3.org/2000/svg" xmlns:xlink="http://www.w3.org/1999/xlink" x="0px" y="0px"
	 viewBox="0 0 1000 1000" style="enable-background:new 0 0 1000 1000;" xml:space="preserve">
<path d="M1000,946.6v-3H848.2v-3h-13.1v-1.9H808v-5.4c0-5.9-6.5-10.1-21-13.9c-10.6-2.7-25.4-5.1-43-6.8l-3.9-619.6
	c21.2,1.2,33,13.8,45.5,27c7.2,7.6,14.7,15.5,24.1,21.4c8.5,5.3,17.7,8.1,26.4,8.1c6.1,0,12-1.3,17.3-4
	c11.5-5.9,18.7-17.4,19.7-31.6c1.8-26.2-25.4-42.5-35-47.4c1-3.7,1.3-6.6,1.3-6.8l0.2-3.2L93.1,16.2l-4-1.3L88,19
	c-4.3,16.3-0.1,27.9,0.1,28.4l0.7,1.8l631.7,201c-4.8,1.1-10.6,2.9-14.5,5.3l-1.8,1.2V910c-11.2-0.4-22.8-0.7-34.5-0.7
	c-17.1,0-33.7,0.5-49.2,1.4c0,0,0,0,0,0c-1.6-0.1-3.1-0.1-4.3-0.1c-4.3,0-12.2,0.2-17.5,1.7c-8.8,0.8-17.1,1.8-24.6,2.9
	c-37.9,5.6-42.8,12.6-42.8,18.1v27.2c0,5.2,4.4,12.9,42.7,19c25.6,4,59.6,6.3,95.7,6.3s70.1-2.2,95.7-6.3
	c38.3-6.1,42.7-13.7,42.7-19v-4.4h27.1v-1.9h13.1v-2.2H1000v-3H848.2v-2.5H1000z M94.8,25.2l736.1,237c-0.4,2-1.1,4.7-2.4,7.2
	c-0.7,1.4-2.9,3.6-4.8,5.2l-312.1-99.3c-0.1-1-0.4-1.9-0.8-2.8c-1-1.9-2.6-3.2-4.6-3.9L122,46.4c-3.1-1-6.3,0-8.3,2.3l-18.6-5.9
	C94.4,39.8,93.4,33.5,94.8,25.2z M823.3,282.8l2,0.6l1.7-1.3c0.9-0.7,4.4-3.5,6.9-6.6c8.3,4.4,30.6,18,29.3,37.6
	c-0.8,10.8-5.8,19.1-14.3,23.4c-9.7,4.9-22.4,3.6-33.9-3.6c-8.3-5.2-15-12.3-22.1-19.8c-13.4-14.3-27.3-29-52.8-30.2L740,257
	c0-0.2,0-0.4,0-0.7L823.3,282.8z M712.2,261.2c4.8-2.3,12.4-3.9,15.7-4.1c1.5-0.1,3.3,0.2,4.2,0.5l4.2,668.8c-2,0.5-6,1.1-12,1.1
	c-6,0-10.1-0.6-12-1.1V261.2z M638.5,914.8c-0.1-0.1-0.2-0.2-0.4-0.4C638.2,914.6,638.4,914.7,638.5,914.8z M639.2,916.7
	c0-0.2,0-0.3,0-0.5C639.2,916.4,639.2,916.5,639.2,916.7z M639.1,916.1c0-0.1-0.1-0.2-0.1-0.3C639.1,915.9,639.1,916,639.1,916.1z
	 M639,915.6c0-0.1-0.1-0.2-0.1-0.3C638.9,915.5,638.9,915.6,639,915.6z M638.7,915.2c-0.1-0.1-0.1-0.2-0.2-0.3
	C638.6,915,638.7,915.1,638.7,915.2z M597,920.6C597,920.5,597.1,920.5,597,920.6c0.4,0.1,0.6,0.2,0.9,0.3c0.1,0,0.2,0.1,0.2,0.1
	c0.3,0.1,0.5,0.2,0.8,0.2c0.1,0,0.1,0,0.2,0c0.3,0.1,0.7,0.2,1.1,0.2c0.1,0,0.1,0,0.2,0c0.3,0.1,0.6,0.1,0.9,0.2
	c0.1,0,0.2,0,0.3,0.1c0.4,0.1,0.7,0.1,1.1,0.2c0,0,0.1,0,0.1,0c0.4,0.1,0.8,0.1,1.2,0.2c0.1,0,0.2,0,0.3,0c0.3,0,0.7,0.1,1,0.1
	c0.1,0,0.2,0,0.3,0c0.8,0.1,1.6,0.2,2.4,0.2c0.1,0,0.2,0,0.3,0c0.3,0,0.7,0,1,0.1c0.1,0,0.2,0,0.2,0c0.4,0,0.8,0,1.2,0.1
	c0.1,0,0.1,0,0.2,0c0.3,0,0.6,0,1,0c0.1,0,0.2,0,0.3,0c0.3,0,0.6,0,0.9,0c0,0,0.1,0,0.1,0c0.3,0,0.7,0,1,0c0.1,0,0.2,0,0.2,0
	c0.2,0,0.5,0,0.7,0c0.1,0,0.2,0,0.2,0c0.3,0,0.6,0,0.8,0s0.6,0,0.8,0c0.1,0,0.2,0,0.2,0c0.2,0,0.5,0,0.7,0c0.1,0,0.2,0,0.2,0
	c0.3,0,0.7,0,1,0c0,0,0.1,0,0.1,0c0.3,0,0.6,0,0.9,0c0.1,0,0.2,0,0.3,0c0.3,0,0.6,0,1,0c0.1,0,0.1,0,0.2,0c0.4,0,0.8,0,1.2-0.1
	c0.1,0,0.2,0,0.2,0c0.3,0,0.6,0,1-0.1c0.1,0,0.2,0,0.3,0c0.8-0.1,1.6-0.1,2.4-0.2c0.1,0,0.2,0,0.3,0c0.3,0,0.7-0.1,1-0.1
	c0.1,0,0.2,0,0.3,0c0.4-0.1,0.8-0.1,1.2-0.2c0,0,0.1,0,0.1,0c0.4-0.1,0.7-0.1,1.1-0.2c0.1,0,0.2,0,0.3-0.1c0.3-0.1,0.6-0.1,0.9-0.2
	c0.1,0,0.1,0,0.2,0c0.4-0.1,0.7-0.2,1.1-0.2c0.1,0,0.1,0,0.2,0c0.3-0.1,0.6-0.2,0.8-0.2c0.1,0,0.2,0,0.2-0.1
	c0.3-0.1,0.6-0.2,0.9-0.3c0,0,0,0,0,0v8.1c-1.3,1-7.9,2.8-19.1,2.8s-17.8-1.8-19.1-2.8V920.6z M634.6,912.7c0.2,0.1,0.4,0.1,0.5,0.2
	C634.9,912.8,634.8,912.7,634.6,912.7z M633.8,912.4c0.2,0,0.3,0.1,0.5,0.1C634.2,912.5,634,912.5,633.8,912.4z M621.2,910.8
	C621.2,910.8,621.1,910.8,621.2,910.8C621.1,910.8,621.2,910.8,621.2,910.8z M638.1,914.4c-0.1-0.1-0.2-0.2-0.4-0.3
	C637.8,914.2,637.9,914.3,638.1,914.4z M637.5,914c-0.1-0.1-0.2-0.1-0.3-0.2C637.3,913.9,637.4,914,637.5,914z M637,913.7
	c-0.1-0.1-0.2-0.1-0.4-0.2C636.8,913.6,636.9,913.7,637,913.7z M636.5,913.4c-0.1-0.1-0.3-0.1-0.5-0.2
	C636.2,913.3,636.3,913.3,636.5,913.4z M635.9,913.1c-0.2-0.1-0.4-0.2-0.6-0.3C635.5,913,635.7,913.1,635.9,913.1z M633.6,912.4
	c-0.2,0-0.3-0.1-0.5-0.1C633.2,912.3,633.4,912.3,633.6,912.4z M632.8,912.2c-0.2,0-0.4-0.1-0.6-0.1
	C632.4,912.1,632.6,912.1,632.8,912.2z M632,912c-0.3-0.1-0.5-0.1-0.8-0.2C631.5,911.9,631.8,911.9,632,912z M630.9,911.8
	c-0.2,0-0.4-0.1-0.6-0.1C630.6,911.7,630.7,911.7,630.9,911.8z M630,911.6c-0.2,0-0.3-0.1-0.5-0.1
	C629.7,911.5,629.9,911.6,630,911.6z M629.1,911.5c-0.2,0-0.3,0-0.5-0.1C628.8,911.4,629,911.4,629.1,911.5z M628.3,911.3
	c-0.2,0-0.4,0-0.5-0.1C627.9,911.3,628.1,911.3,628.3,911.3z M627.1,911.2c-0.2,0-0.3,0-0.5-0.1
	C626.7,911.2,626.9,911.2,627.1,911.2z M626.1,911.1c-0.1,0-0.3,0-0.4,0C625.8,911.1,625.9,911.1,626.1,911.1z M625.2,911
	c-0.1,0-0.2,0-0.3,0C625,911,625.1,911,625.2,911z M624.3,911c-0.1,0-0.2,0-0.3,0C624.1,910.9,624.2,910.9,624.3,911z M634.1,916.7
	c-0.1,0-0.2,0.1-0.3,0.1c-0.1,0-0.1,0-0.2,0.1c-0.2,0.1-0.4,0.1-0.7,0.2c-0.1,0-0.2,0-0.3,0.1c-0.2,0-0.4,0.1-0.6,0.1
	c-0.1,0-0.2,0.1-0.3,0.1c-0.2,0-0.4,0.1-0.6,0.1c-0.1,0-0.2,0-0.4,0.1c-0.3,0.1-0.5,0.1-0.8,0.2c-0.1,0-0.1,0-0.2,0
	c-0.4,0.1-0.7,0.1-1.1,0.2c-0.1,0-0.3,0-0.4,0.1c-0.3,0-0.6,0.1-0.9,0.1c-0.2,0-0.3,0-0.5,0.1c-0.3,0-0.6,0.1-1,0.1
	c-0.2,0-0.3,0-0.5,0c-0.4,0-0.9,0.1-1.4,0.1c0,0-0.1,0-0.1,0c-0.5,0-1.1,0.1-1.6,0.1c-0.2,0-0.3,0-0.5,0c-0.4,0-0.8,0-1.2,0.1
	c-0.2,0-0.4,0-0.6,0c-0.4,0-0.9,0-1.3,0c-0.2,0-0.4,0-0.6,0c-0.6,0-1.3,0-2,0s-1.3,0-2,0c-0.2,0-0.4,0-0.6,0c-0.4,0-0.9,0-1.3,0
	c-0.2,0-0.4,0-0.6,0c-0.4,0-0.8,0-1.2-0.1c-0.2,0-0.3,0-0.5,0c-0.6,0-1.1-0.1-1.6-0.1c0,0-0.1,0-0.1,0c-0.5,0-0.9-0.1-1.4-0.1
	c-0.2,0-0.3,0-0.5,0c-0.3,0-0.6-0.1-1-0.1c-0.2,0-0.3,0-0.5-0.1c-0.3,0-0.6-0.1-0.9-0.1c-0.1,0-0.3,0-0.4-0.1
	c-0.4-0.1-0.8-0.1-1.1-0.2c-0.1,0-0.1,0-0.2,0c-0.3-0.1-0.6-0.1-0.8-0.2c-0.1,0-0.2,0-0.4-0.1c-0.2,0-0.4-0.1-0.6-0.1
	c-0.1,0-0.2-0.1-0.3-0.1c-0.2,0-0.4-0.1-0.6-0.1c-0.1,0-0.2,0-0.3-0.1c-0.2-0.1-0.5-0.1-0.7-0.2c-0.1,0-0.1,0-0.2-0.1
	c-0.1,0-0.2-0.1-0.3-0.1c2.6-0.9,8.7-2,18-2S631.6,915.8,634.1,916.7z M597.4,912.8c0,0,0.1,0,0.1,0
	C597.4,912.7,597.4,912.7,597.4,912.8z M596.4,913.1C596.4,913.1,596.4,913.1,596.4,913.1C596.4,913.1,596.4,913.1,596.4,913.1z
	 M595.5,913.6c0,0-0.1,0.1-0.1,0.1C595.4,913.6,595.4,913.6,595.5,913.6z M594.6,914.1C594.6,914.1,594.6,914.1,594.6,914.1
	C594.6,914.1,594.6,914.1,594.6,914.1z M594,914.6c0,0-0.1,0.1-0.1,0.1C593.9,914.7,593.9,914.6,594,914.6z M593.4,915.3
	C593.4,915.3,593.4,915.3,593.4,915.3C593.4,915.3,593.4,915.3,593.4,915.3z M593.2,915.9c0,0.1,0,0.1,0,0.2
	C593.1,916,593.1,915.9,593.2,915.9z M578.3,922.7c4.7-0.6,9.6-1.2,14.7-1.8v8c0,5.9,17.7,6.4,23.1,6.4s23.1-0.5,23.1-6.4v-11.1
	c9.9-0.3,20.1-0.5,30.4-0.5c11.7,0,23.3,0.2,34.5,0.7v10.4c0,1.7,0,7.1,20,7.1c20,0,20-5.3,20-7.1l0-7.7
	c40.9,4.1,53.8,10.2,55.7,12.6c0,0,0,0,0,0c0,0,0,0,0,0c0,0-0.1,0.1-0.1,0.1c0,0,0,0,0,0c0,0-0.1,0.1-0.1,0.1c0,0,0,0-0.1,0
	c-0.1,0-0.1,0.1-0.2,0.1c0,0,0,0-0.1,0.1c-0.1,0.1-0.1,0.1-0.2,0.2c0,0-0.1,0-0.1,0.1c-0.1,0.1-0.2,0.1-0.3,0.2c0,0,0,0-0.1,0
	c-0.3,0.2-0.5,0.4-0.9,0.6c0,0-0.1,0-0.1,0c-0.1,0.1-0.3,0.2-0.5,0.2c-0.1,0-0.1,0.1-0.2,0.1c-0.1,0.1-0.3,0.2-0.5,0.2
	c-0.1,0-0.1,0.1-0.2,0.1c-0.2,0.1-0.3,0.2-0.5,0.2c-0.1,0-0.2,0.1-0.2,0.1c-0.2,0.1-0.4,0.2-0.6,0.3c-0.1,0-0.2,0.1-0.2,0.1
	c-0.2,0.1-0.5,0.2-0.7,0.3c-0.1,0-0.1,0.1-0.2,0.1c-0.6,0.3-1.4,0.5-2.1,0.8c0,0,0,0-0.1,0c-0.4,0.1-0.7,0.3-1.1,0.4
	c-0.1,0-0.2,0.1-0.3,0.1c-0.3,0.1-0.7,0.2-1,0.3c-0.1,0-0.3,0.1-0.4,0.1c-0.3,0.1-0.7,0.2-1,0.3c-0.2,0-0.3,0.1-0.5,0.1
	c-0.4,0.1-0.7,0.2-1.1,0.3c-0.2,0-0.3,0.1-0.5,0.1c-0.4,0.1-0.8,0.2-1.3,0.3c-0.1,0-0.3,0.1-0.4,0.1c-0.5,0.1-1.1,0.3-1.7,0.4
	c-0.1,0-0.1,0-0.2,0c-1.3,0.3-2.7,0.6-4.2,0.9c-0.2,0-0.3,0.1-0.5,0.1c-0.6,0.1-1.1,0.2-1.7,0.3c-0.2,0-0.5,0.1-0.7,0.1
	c-0.6,0.1-1.1,0.2-1.7,0.3c-0.3,0.1-0.6,0.1-0.9,0.2c-0.6,0.1-1.1,0.2-1.7,0.3c-0.3,0.1-0.6,0.1-0.9,0.2c-0.6,0.1-1.2,0.2-1.9,0.3
	c-0.3,0.1-0.6,0.1-0.9,0.2c-0.7,0.1-1.4,0.2-2.1,0.3c-0.3,0-0.5,0.1-0.8,0.1c-1,0.2-2.1,0.3-3.1,0.5c-24.8,3.5-57.2,5.4-91.3,5.4
	s-66.5-1.9-91.3-5.4c-1.1-0.1-2.1-0.3-3.1-0.4c-0.3,0-0.6-0.1-0.8-0.1c-0.7-0.1-1.4-0.2-2.1-0.3c-0.3-0.1-0.6-0.1-1-0.2
	c-0.6-0.1-1.2-0.2-1.9-0.3c-0.3-0.1-0.6-0.1-0.9-0.2c-0.6-0.1-1.2-0.2-1.7-0.3c-0.3-0.1-0.6-0.1-0.8-0.2c-0.6-0.1-1.1-0.2-1.7-0.3
	c-0.2,0-0.5-0.1-0.7-0.1c-0.6-0.1-1.2-0.2-1.8-0.4c-0.1,0-0.3-0.1-0.4-0.1c-1.5-0.3-2.9-0.6-4.2-0.9c-0.1,0-0.2-0.1-0.3-0.1
	c-0.5-0.1-1-0.2-1.5-0.4c-0.2,0-0.3-0.1-0.5-0.1c-0.4-0.1-0.8-0.2-1.2-0.3c-0.2,0-0.3-0.1-0.5-0.1c-0.4-0.1-0.8-0.2-1.1-0.3
	c-0.2,0-0.3-0.1-0.5-0.1c-0.4-0.1-0.7-0.2-1.1-0.3c-0.1,0-0.2-0.1-0.4-0.1c-0.4-0.1-0.8-0.2-1.2-0.4c-0.1,0-0.1,0-0.2-0.1
	c-0.9-0.3-1.6-0.6-2.4-0.8c-0.1,0-0.1,0-0.2-0.1c-0.3-0.1-0.6-0.2-0.8-0.3c-0.1,0-0.2-0.1-0.3-0.1c-0.2-0.1-0.4-0.2-0.7-0.3
	c-0.1,0-0.2-0.1-0.3-0.1c-0.2-0.1-0.4-0.2-0.6-0.3c-0.1,0-0.2-0.1-0.2-0.1c-0.2-0.1-0.4-0.2-0.5-0.2c-0.1,0-0.1-0.1-0.2-0.1
	c-0.2-0.1-0.4-0.2-0.5-0.3c0,0-0.1,0-0.1,0c-0.4-0.2-0.7-0.4-1-0.6c0,0-0.1,0-0.1-0.1c-0.1-0.1-0.2-0.1-0.3-0.2c0,0-0.1-0.1-0.1-0.1
	c-0.1-0.1-0.2-0.1-0.2-0.2c0,0-0.1,0-0.1-0.1c-0.1-0.1-0.1-0.1-0.2-0.1c0,0-0.1,0-0.1-0.1c-0.1,0-0.1-0.1-0.2-0.1c0,0,0,0-0.1-0.1
	c-0.1,0-0.1-0.1-0.1-0.1c0,0,0,0,0,0c-0.1,0-0.1-0.1-0.1-0.1C540.5,932.1,546.8,927.1,578.3,922.7z M800,960.4
	c-0.7,1.8-8.9,7.1-38.4,11.5c-24.9,3.7-57.6,5.8-92,5.8s-67.1-2.1-92-5.8c-29.6-4.4-37.7-9.8-38.4-11.5v-17.7c0.1,0,0.1,0.1,0.2,0.1
	c0.2,0.1,0.4,0.2,0.6,0.3c0.2,0.1,0.4,0.2,0.6,0.3c0.2,0.1,0.4,0.2,0.7,0.3c0.2,0.1,0.5,0.2,0.7,0.3c0.2,0.1,0.5,0.2,0.7,0.3
	c0.2,0.1,0.5,0.2,0.8,0.3c0.3,0.1,0.5,0.2,0.8,0.3c0.3,0.1,0.5,0.2,0.8,0.3c0.3,0.1,0.6,0.2,0.9,0.3c0.3,0.1,0.6,0.2,0.9,0.3
	c0.3,0.1,0.6,0.2,0.9,0.3c0.3,0.1,0.6,0.2,0.9,0.3c0.3,0.1,0.7,0.2,1,0.3c0.3,0.1,0.7,0.2,1,0.3c0.4,0.1,0.7,0.2,1.1,0.3
	c0.3,0.1,0.7,0.2,1,0.3c0.4,0.1,0.8,0.2,1.2,0.3c0.4,0.1,0.7,0.2,1.1,0.3c0.4,0.1,0.9,0.2,1.3,0.3c0.4,0.1,0.7,0.2,1.1,0.2
	c0.5,0.1,0.9,0.2,1.4,0.3c0.4,0.1,0.8,0.2,1.1,0.2c0.5,0.1,1,0.2,1.6,0.3c0.4,0.1,0.8,0.1,1.1,0.2c0.6,0.1,1.1,0.2,1.7,0.3
	c0.3,0.1,0.7,0.1,1.1,0.2c0.7,0.1,1.3,0.2,2,0.3c0.3,0,0.6,0.1,0.8,0.1c1.8,0.3,3.7,0.6,5.7,0.9c25.6,3.8,59.5,5.9,95.6,5.9
	s70.1-2.1,95.6-5.9c2-0.3,3.9-0.6,5.7-0.9c0.3,0,0.6-0.1,0.8-0.1c0.7-0.1,1.3-0.2,2-0.3c0.3-0.1,0.7-0.1,1.1-0.2
	c0.6-0.1,1.2-0.2,1.7-0.3c0.4-0.1,0.8-0.1,1.1-0.2c0.5-0.1,1-0.2,1.6-0.3c0.4-0.1,0.8-0.2,1.1-0.2c0.5-0.1,1-0.2,1.4-0.3
	c0.4-0.1,0.8-0.2,1.1-0.2c0.4-0.1,0.9-0.2,1.3-0.3c0.4-0.1,0.7-0.2,1.1-0.3c0.4-0.1,0.8-0.2,1.2-0.3c0.3-0.1,0.7-0.2,1-0.3
	c0.4-0.1,0.7-0.2,1.1-0.3c0.3-0.1,0.7-0.2,1-0.3c0.3-0.1,0.7-0.2,1-0.3c0.3-0.1,0.6-0.2,0.9-0.3c0.3-0.1,0.6-0.2,0.9-0.3
	c0.3-0.1,0.6-0.2,0.9-0.3c0.3-0.1,0.6-0.2,0.9-0.3c0.3-0.1,0.5-0.2,0.8-0.3c0.3-0.1,0.5-0.2,0.8-0.3c0.3-0.1,0.5-0.2,0.8-0.3
	c0.2-0.1,0.5-0.2,0.7-0.3c0.2-0.1,0.5-0.2,0.7-0.3c0.2-0.1,0.4-0.2,0.7-0.3c0.2-0.1,0.4-0.2,0.6-0.3c0.2-0.1,0.4-0.2,0.6-0.3
	c0.1,0,0.1-0.1,0.2-0.1V960.4z M808,941.8h24.1v11.4H808V941.8z M835.1,943.7h10.1v7.6h-10.1V943.7z"/>
</svg>
