<?xml version="1.0" encoding="utf-8"?>
<!-- Generator: Adobe Illustrator 21.0.0, SVG Export Plug-In . SVG Version: 6.00 Build 0)  -->
<svg version="1.1" id="Layer_1" xmlns="http://www.w3.org/2000/svg" xmlns:xlink="http://www.w3.org/1999/xlink" x="0px" y="0px"
	 viewBox="0 0 98.6 201" style="enable-background:new 0 0 98.6 201;" xml:space="preserve">
<style type="text/css">
	.st0{fill:#1A1A18;}
</style>
<g>
	<path class="st0" d="M95.5,14.2c-0.1-1.1-0.4-1.5-1-2.3l-0.1-0.1C86.8,1.3,62.5,1,50.8,0.8h-3c-11.7,0.1-36,0.4-43.6,11l-0.1,0.1
		c-0.6,0.9-0.9,1.2-1,2.3c-1.7,15.5-2.4,28.3-2,38.1l0,0.2l0.2-0.1c2.4-1.5,7.1-2.8,14-3.8c21.6-3.1,46.5-3.1,68.1,0
		c6.9,1,11.6,2.3,14,3.8l0.2,0.1l0-0.2C97.9,42.6,97.3,29.8,95.5,14.2z"/>
	<path class="st0" d="M97.5,55.9l-0.3-0.4c-1-1.3-3.5-3.1-14.8-4.7c-21-3-45.2-3-66.2,0C5,52.5,2.4,54.2,1.4,55.6l-0.3,0.4l0,0.4
		C0.8,75.1,2.6,88.9,6.5,97.6c8.2,17.6,12.7,37.1,11.8,50.8l0.1,0.2c1.6,3.2,3.4,5.7,5.4,7.4l0,0H24c0.2,2.3,0.4,5.3,0.5,7.3l0,0.4
		c0.4,5.8,0.7,12.4,1.5,16.7l0.6,3.4l0,0c0.3,0.6,1.7,2.2,3.6,4c0.7,0.6,1.5,1.4,2.5,2.3l-0.2,0l3.9,3.2c1.2,1,2.5,2,4,3.2
		c1.2,1,2.5,1.9,4,3c0.7,0.5,3,0.7,4.9,0.7c0.1,0,0.2,0,0.3,0c0.1,0,0.2,0,0.2,0l0.1,0l0.1,0c0.1,0,0.2,0,0.3,0c0.1,0,0.2,0,0.3,0
		c1.9-0.1,4.2-0.3,4.9-0.8c1.2-0.9,2.6-2,3.9-3.1c1.3-1.1,2.7-2.2,3.9-3.3l3.8-3.3l-0.2,0c0.9-0.8,1.6-1.5,2.3-2.2l0.1-0.1
		c1.8-1.8,3.2-3.4,3.5-4l0.6-3.6c0.7-4.3,0.9-10.8,1.2-16.6l0.1-2.3c0.1-1.7,0.1-3.6,0.2-4.9l0,0c1.7-1.4,3.3-3.4,4.7-6l0,0l0,0
		c0.3-0.4,0.5-0.9,0.7-1.4l0-0.1c-1-13.6,3.6-33.1,11.8-50.8c3.9-8.6,5.7-22.5,5.3-41.2V55.9z M80.3,53.5c0,13.2-0.1,29.2-4,39.4
		L75.9,94c-9.3,24.3-11.4,29.8-11.5,52.8c-1.5,0-3,0-4.5-0.1c0.1-23.6,1.6-30,9.5-53.1c3.4-10,3.4-26.5,3.4-41.1
		C75.3,52.8,77.8,53.1,80.3,53.5z M48.2,184.3l-0.2,0l-0.9,0c-3.9,0-7-0.3-9.6-0.7c-2.9-0.4-5.4-1.1-8-2.1c-0.3-0.7-0.5-1.8-0.8-3.3
		c5.7,0.8,12.8,1.2,20.3,1.2l1.7,0l0-2l-0.1,0c-0.4,0-0.7,0-1.1,0c-0.3,0-0.7,0-1,0c-7.9,0-14.6-0.4-19.9-1.2
		c-0.1-1-0.2-2.2-0.4-3.6c5.8,0.9,13.1,1.3,20.9,1.3l1.7,0l0-2l-0.1,0c-0.4,0-0.7,0-1.1,0c-8.5,0.1-15.7-0.4-21.4-1.3
		c-0.1-1.1-0.2-2.3-0.3-3.7c5.8,0.9,13.3,1.4,21.2,1.3l1.7,0l0-2l-0.1,0c-0.4,0-0.7,0-1.1,0c-8.7,0-16-0.4-21.7-1.4l-0.2-3.2
		c5.8,0.9,13.5,1.4,21.5,1.4l1.7,0l0-2l-0.1,0c-0.4,0-0.7,0-1.1,0c-0.3,0-0.7,0-1,0c-8.4,0-15.5-0.5-21-1.4
		c-0.1-0.9-0.2-2.3-0.2-3.7H72c0,1.2-0.1,3-0.2,4.4l-0.1,1.6c-0.3,7.1-0.6,16-1.7,19.1c-2.6,1.1-5.1,1.8-8,2.3
		c-2.7,0.5-5.7,0.8-9.6,0.9L48.2,184.3z M57.1,193.2l0-0.1h0L57.1,193.2l0.3,0l0-0.1h0l0.1,0.1l0.2,0l0-0.1h0l0.1,0.1l0.1,0
		l-0.2,0.1c-1.1,0.9-2.4,1.9-3.8,3c-0.2,0.1-1.5,0.2-3.3,0.3l-0.5,0l-0.5,0c-2.3-0.1-3.2-0.2-3.3-0.2c-1.4-1-2.7-2-3.9-3l-0.2-0.1
		l0.2,0l0-0.1h0h0l0.1,0.1l0.4,0l0-0.1h0h0l0,0.2l0.2,0l0-0.1h0l0.1,0.1c2.1,0.1,4.4,0.2,7,0.1c2.5,0,4.8-0.1,6.9-0.3l0-0.1l0.1,0.1
		L57.1,193.2z M57.8,193l0,0.1l0,0L57.8,193L57.8,193z M57.8,193L57.8,193L57.8,193L57.8,193z M41.9,193.2l0,0.1L41.9,193.2
		L41.9,193.2L41.9,193.2z M42.5,193.2L42.5,193.2L42.5,193.2L42.5,193.2z M42.5,193.2L42.5,193.2L42.5,193.2L42.5,193.2z
		 M42.3,193.2L42.3,193.2L42.3,193.2L42.3,193.2L42.3,193.2z M42.1,193.2L42.1,193.2L42.1,193.2L42.1,193.2z M41.9,193.2L41.9,193.2
		L41.9,193.2L41.9,193.2L41.9,193.2z M57.5,193L57.5,193L57.5,193L57.5,193z M57.2,193.1L57.2,193.1L57.2,193.1L57.2,193.1
		L57.2,193.1z M57.1,193.1L57.1,193.1L57.1,193.1L57.1,193.1z M68.8,93.5c-7.9,23.1-9.4,29.6-9.5,53.2c-1.5,0-3,0-4.5,0
		c0.1-20.3,2.2-36.8,6.3-50.5c2-6.6,1.9-27.7,1.9-41.7l0-2.6c3.1,0.2,6.2,0.4,9.2,0.7C72.2,67.1,72.2,83.6,68.8,93.5z M62.3,54.4
		c0,13.9,0.1,35-1.9,41.6c-4.1,13.8-6.2,30.4-6.3,50.7c-1.5,0-3,0-4.6,0V86.7l1,0v-4.2h0v-2.2l7.8-1.2v3.8l-4.6,0.7v2.6l7.3-1.1
		v-9.1l-11.5,1.7V51.5c4.3,0,8.5,0.1,12.7,0.3L62.3,54.4z M49,77.8l-11.5-1.7v9.1l7.2,1.1v-2.6l-4.6-0.7v-3.8l7.8,1.2v3.8l0,0l0,2.6
		l1,0v59.9c-0.6,0-1.2,0-1.7,0c-0.9,0-1.9,0-2.8,0c-0.1-20.3-2.2-36.9-6.3-50.7c-2-6.5-1.9-27.6-1.9-41.5l0-2.6
		c4.2-0.2,8.5-0.3,12.7-0.3V77.8z M37.6,96.1c4.1,13.7,6.1,30.3,6.3,50.5c-1.5,0-3,0-4.5,0c-0.1-23.7-1.6-30.1-9.5-53.2
		c-3.4-9.9-3.4-26.4-3.4-40.9c3-0.3,6.1-0.5,9.2-0.7l0,2.6C35.7,68.4,35.7,89.5,37.6,96.1z M29.3,93.6c7.9,23,9.4,29.5,9.5,53
		c-1.5,0-3,0-4.5,0C34.1,123.9,32,118.3,22.7,94l-0.4-1.1c-3.9-10.2-4-26.2-4-39.4c2.5-0.3,5-0.6,7.6-0.9
		C25.9,67.2,25.9,83.7,29.3,93.6z M24.6,146.9c-0.1-21.2-2.5-27.5-10.1-47.2c-0.9-2.2-1.8-4.6-2.7-7.1C8,82.9,8,69.5,8,55.4
		c1-0.3,2.3-0.6,4-0.9l0,0.6c0,14.3,0,27.9,3.8,37.7c1,2.6,1.9,4.9,2.7,7.1c7.6,19.6,10,25.8,10.1,46.9
		C27.2,146.8,25.9,146.9,24.6,146.9z M70.1,146.9c0.1-21.1,2.5-27.3,10.1-46.9c0.9-2.2,1.8-4.6,2.7-7.1c3.8-9.8,3.8-23.4,3.8-37.7
		l0-0.6c1.6,0.3,2.9,0.6,4,0.9c0,14.2,0,27.6-3.7,37.3c-1,2.6-1.9,4.9-2.7,7.1c-7.6,19.7-10,26-10.1,47.2
		C72.7,146.9,71.4,146.9,70.1,146.9z M86.1,54.4v0.7c0,14.3,0,27.8-3.7,37.5c-1,2.6-1.9,4.9-2.7,7.1c-7.6,19.7-10,25.9-10.1,47.1
		c-1.5,0-3.1-0.1-4.6-0.1c0.1-22.8,2.2-28.3,11.5-52.6l0.4-1.1c3.9-10.3,4-26.3,4-39.6c0.4,0.1,0.8,0.1,1.1,0.2
		C83.6,53.9,84.9,54.1,86.1,54.4z M16.6,53.7c0.4-0.1,0.8-0.1,1.1-0.2c0,13.2,0.1,29.3,4,39.6l0.4,1.1c9.3,24.2,11.4,29.7,11.5,52.5
		c-1.5,0-3,0-4.6,0.1C29,125.7,26.6,119.4,19,99.7c-0.9-2.2-1.8-4.6-2.7-7.1c-3.7-9.8-3.7-23.2-3.7-37.5l0-0.7
		C13.7,54.1,15.1,53.9,16.6,53.7z M9.1,96.4C5.4,88.2,3.7,75,4,57c0.4-0.3,1.4-0.9,3.4-1.5c0,14.2,0,27.5,3.8,37.3
		c1,2.6,1.9,4.9,2.7,7.1c7.6,19.6,10,25.9,10.1,47c-0.9,0-1.9,0-2.8,0.1C21.7,133,17.2,113.8,9.1,96.4z M89.5,96.4
		c-8.1,17.5-12.7,36.7-12.2,50.7c-0.9,0-1.9,0-2.8-0.1c0.1-21.2,2.5-27.4,10.1-47c0.9-2.2,1.8-4.6,2.7-7.1
		c3.7-9.8,3.8-23.1,3.8-37.3c2.1,0.6,3,1.1,3.4,1.5C94.9,75,93.2,88.2,89.5,96.4z"/>
</g>
</svg>
