<?xml version="1.0" encoding="utf-8"?>
<!-- Generator: Adobe Illustrator 22.1.0, SVG Export Plug-In . SVG Version: 6.00 Build 0)  -->
<svg version="1.1" id="Слой_1" xmlns="http://www.w3.org/2000/svg" xmlns:xlink="http://www.w3.org/1999/xlink" x="0px" y="0px"
	 viewBox="0 0 725.7 725.7" style="enable-background:new 0 0 725.7 725.7;" xml:space="preserve">
<style type="text/css">
	.st0{fill:none;stroke:#000000;stroke-width:10;stroke-miterlimit:10;}
	.st1{fill:none;stroke:#000000;stroke-width:5;stroke-miterlimit:10;}
	.st2{fill:none;stroke:#000000;stroke-miterlimit:10;}
</style>
<image style="display:none;overflow:visible;" width="1000" height="527" xlink:href="D5A08F4B.jpg"  transform="matrix(1.1796 0 0 1.1796 105.433 52.0024)">
</image>
<g>
	<path class="st0" d="M532.2,703.9H215.5c-3.6,0-6.5-2.9-6.5-6.5v-682c0-3.6,2.9-6.5,6.5-6.5h316.7c3.6,0,6.5,2.9,6.5,6.5v682
		C538.7,700.9,535.8,703.9,532.2,703.9z"/>
	<path class="st0" d="M526.5,702c0,12.4-9.2,11.2-21.5,11.2H244.6c-12.4,0-23.4,1.1-23.4-11.2"/>
	<path class="st0" d="M251.1,713.3c0,4.1-3.3,7.3-7.3,7.3s-7.3-3.3-7.3-7.3"/>
	<path class="st0" d="M514,713.3c0,4.1-3.3,7.3-7.3,7.3s-7.3-3.3-7.3-7.3"/>
	<circle class="st0" cx="373.8" cy="129.2" r="36.3"/>
	<circle class="st1" cx="241.2" cy="680.8" r="0.6"/>
	<circle class="st1" cx="258.9" cy="680.8" r="0.6"/>
	<circle class="st1" cx="278.1" cy="680.8" r="0.6"/>
	<circle class="st1" cx="295.8" cy="680.8" r="0.6"/>
	<circle class="st1" cx="314.4" cy="680.8" r="0.6"/>
	<circle class="st1" cx="332.1" cy="680.8" r="0.6"/>
	<circle class="st1" cx="351.3" cy="680.8" r="0.6"/>
	<circle class="st1" cx="369" cy="680.8" r="0.6"/>
	<circle class="st1" cx="388.3" cy="680.8" r="0.6"/>
	<circle class="st1" cx="406" cy="680.8" r="0.6"/>
	<circle class="st1" cx="425.2" cy="680.8" r="0.6"/>
	<circle class="st1" cx="442.8" cy="680.8" r="0.6"/>
	<circle class="st1" cx="461.5" cy="680.8" r="0.6"/>
	<circle class="st1" cx="479.2" cy="680.8" r="0.6"/>
	<circle class="st1" cx="498.4" cy="680.8" r="0.6"/>
	<circle class="st1" cx="516.1" cy="680.8" r="0.6"/>
	<circle class="st1" cx="231.6" cy="667.4" r="0.6"/>
	<circle class="st1" cx="249.2" cy="667.4" r="0.6"/>
	<circle class="st1" cx="268.4" cy="667.4" r="0.6"/>
	<circle class="st1" cx="286.1" cy="667.4" r="0.6"/>
	<circle class="st1" cx="304.8" cy="667.4" r="0.6"/>
	<circle class="st1" cx="322.5" cy="667.4" r="0.6"/>
	<circle class="st1" cx="341.6" cy="667.4" r="0.6"/>
	<circle class="st1" cx="359.3" cy="667.4" r="0.6"/>
	<circle class="st1" cx="378.6" cy="667.4" r="0.6"/>
	<circle class="st1" cx="396.3" cy="667.4" r="0.6"/>
	<circle class="st1" cx="415.5" cy="667.4" r="0.6"/>
	<circle class="st1" cx="433.2" cy="667.4" r="0.6"/>
	<circle class="st1" cx="451.8" cy="667.4" r="0.6"/>
	<circle class="st1" cx="469.5" cy="667.4" r="0.6"/>
	<circle class="st1" cx="488.7" cy="667.4" r="0.6"/>
	<circle class="st1" cx="506.4" cy="667.4" r="0.6"/>
	<circle class="st1" cx="240.2" cy="652.5" r="0.6"/>
	<circle class="st1" cx="257.9" cy="652.5" r="0.6"/>
	<circle class="st1" cx="277" cy="652.5" r="0.6"/>
	<circle class="st1" cx="294.7" cy="652.5" r="0.6"/>
	<circle class="st1" cx="313.4" cy="652.5" r="0.6"/>
	<circle class="st1" cx="331.1" cy="652.5" r="0.6"/>
	<circle class="st1" cx="350.3" cy="652.5" r="0.6"/>
	<circle class="st1" cx="367.9" cy="652.5" r="0.6"/>
	<circle class="st1" cx="387.3" cy="652.5" r="0.6"/>
	<circle class="st1" cx="405" cy="652.5" r="0.6"/>
	<circle class="st1" cx="424.1" cy="652.5" r="0.6"/>
	<circle class="st1" cx="441.8" cy="652.5" r="0.6"/>
	<circle class="st1" cx="460.5" cy="652.5" r="0.6"/>
	<circle class="st1" cx="478.2" cy="652.5" r="0.6"/>
	<circle class="st1" cx="497.3" cy="652.5" r="0.6"/>
	<circle class="st1" cx="515" cy="652.5" r="0.6"/>
	<circle class="st1" cx="232.4" cy="637.2" r="0.6"/>
	<circle class="st1" cx="250.1" cy="637.2" r="0.6"/>
	<circle class="st1" cx="269.3" cy="637.2" r="0.6"/>
	<circle class="st1" cx="287" cy="637.2" r="0.6"/>
	<circle class="st1" cx="305.6" cy="637.2" r="0.6"/>
	<circle class="st1" cx="323.3" cy="637.2" r="0.6"/>
	<circle class="st1" cx="342.5" cy="637.2" r="0.6"/>
	<circle class="st1" cx="360.2" cy="637.2" r="0.6"/>
	<circle class="st1" cx="379.5" cy="637.2" r="0.6"/>
	<circle class="st1" cx="397.2" cy="637.2" r="0.6"/>
	<circle class="st1" cx="416.3" cy="637.2" r="0.6"/>
	<circle class="st1" cx="434" cy="637.2" r="0.6"/>
	<circle class="st1" cx="452.7" cy="637.2" r="0.6"/>
	<circle class="st1" cx="470.4" cy="637.2" r="0.6"/>
	<circle class="st1" cx="489.6" cy="637.2" r="0.6"/>
	<circle class="st1" cx="507.2" cy="637.2" r="0.6"/>
	<circle class="st1" cx="241.7" cy="621.2" r="0.6"/>
	<circle class="st1" cx="259.4" cy="621.2" r="0.6"/>
	<circle class="st1" cx="278.6" cy="621.2" r="0.6"/>
	<circle class="st1" cx="296.3" cy="621.2" r="0.6"/>
	<circle class="st1" cx="314.9" cy="621.2" r="0.6"/>
	<circle class="st1" cx="332.6" cy="621.2" r="0.6"/>
	<circle class="st1" cx="351.8" cy="621.2" r="0.6"/>
	<circle class="st1" cx="369.5" cy="621.2" r="0.6"/>
	<circle class="st1" cx="388.8" cy="621.2" r="0.6"/>
	<circle class="st1" cx="406.5" cy="621.2" r="0.6"/>
	<circle class="st1" cx="425.7" cy="621.2" r="0.6"/>
	<circle class="st1" cx="443.3" cy="621.2" r="0.6"/>
	<circle class="st1" cx="462" cy="621.2" r="0.6"/>
	<circle class="st1" cx="479.7" cy="621.2" r="0.6"/>
	<circle class="st1" cx="498.9" cy="621.2" r="0.6"/>
	<circle class="st1" cx="516.6" cy="621.2" r="0.6"/>
	<circle class="st1" cx="232" cy="605.9" r="0.6"/>
	<circle class="st1" cx="249.7" cy="605.9" r="0.6"/>
	<circle class="st1" cx="268.9" cy="605.9" r="0.6"/>
	<circle class="st1" cx="286.6" cy="605.9" r="0.6"/>
	<circle class="st1" cx="305.3" cy="605.9" r="0.6"/>
	<circle class="st1" cx="323" cy="605.9" r="0.6"/>
	<circle class="st1" cx="342.1" cy="605.9" r="0.6"/>
	<circle class="st1" cx="359.8" cy="605.9" r="0.6"/>
	<circle class="st1" cx="379.1" cy="605.9" r="0.6"/>
	<circle class="st1" cx="396.8" cy="605.9" r="0.6"/>
	<circle class="st1" cx="416" cy="605.9" r="0.6"/>
	<circle class="st1" cx="433.7" cy="605.9" r="0.6"/>
	<circle class="st1" cx="452.3" cy="605.9" r="0.6"/>
	<circle class="st1" cx="470" cy="605.9" r="0.6"/>
	<circle class="st1" cx="489.2" cy="605.9" r="0.6"/>
	<circle class="st1" cx="506.9" cy="605.9" r="0.6"/>
	<circle class="st1" cx="240.7" cy="589.1" r="0.6"/>
	<circle class="st1" cx="258.4" cy="589.1" r="0.6"/>
	<circle class="st1" cx="277.5" cy="589.1" r="0.6"/>
	<circle class="st1" cx="295.2" cy="589.1" r="0.6"/>
	<circle class="st1" cx="313.9" cy="589.1" r="0.6"/>
	<circle class="st1" cx="331.6" cy="589.1" r="0.6"/>
	<circle class="st1" cx="350.8" cy="589.1" r="0.6"/>
	<circle class="st1" cx="368.4" cy="589.1" r="0.6"/>
	<circle class="st1" cx="387.8" cy="589.1" r="0.6"/>
	<circle class="st1" cx="405.5" cy="589.1" r="0.6"/>
	<circle class="st1" cx="424.6" cy="589.1" r="0.6"/>
	<circle class="st1" cx="442.3" cy="589.1" r="0.6"/>
	<circle class="st1" cx="461" cy="589.1" r="0.6"/>
	<circle class="st1" cx="478.7" cy="589.1" r="0.6"/>
	<circle class="st1" cx="497.8" cy="589.1" r="0.6"/>
	<circle class="st1" cx="515.5" cy="589.1" r="0.6"/>
	<circle class="st1" cx="231" cy="571.9" r="0.6"/>
	<circle class="st1" cx="248.7" cy="571.9" r="0.6"/>
	<circle class="st1" cx="267.9" cy="571.9" r="0.6"/>
	<circle class="st1" cx="285.6" cy="571.9" r="0.6"/>
	<circle class="st1" cx="304.2" cy="571.9" r="0.6"/>
	<circle class="st1" cx="321.9" cy="571.9" r="0.6"/>
	<circle class="st1" cx="341.1" cy="571.9" r="0.6"/>
	<circle class="st1" cx="358.8" cy="571.9" r="0.6"/>
	<circle class="st1" cx="378.1" cy="571.9" r="0.6"/>
	<circle class="st1" cx="395.8" cy="571.9" r="0.6"/>
	<circle class="st1" cx="415" cy="571.9" r="0.6"/>
	<circle class="st1" cx="432.7" cy="571.9" r="0.6"/>
	<circle class="st1" cx="451.3" cy="571.9" r="0.6"/>
	<circle class="st1" cx="469" cy="571.9" r="0.6"/>
	<circle class="st1" cx="488.2" cy="571.9" r="0.6"/>
	<circle class="st1" cx="505.9" cy="571.9" r="0.6"/>
	<circle class="st1" cx="239.5" cy="554.2" r="0.6"/>
	<circle class="st1" cx="257.1" cy="554.2" r="0.6"/>
	<circle class="st1" cx="276.3" cy="554.2" r="0.6"/>
	<circle class="st1" cx="294" cy="554.2" r="0.6"/>
	<circle class="st1" cx="312.7" cy="554.2" r="0.6"/>
	<circle class="st1" cx="330.4" cy="554.2" r="0.6"/>
	<circle class="st1" cx="349.5" cy="554.2" r="0.6"/>
	<circle class="st1" cx="367.2" cy="554.2" r="0.6"/>
	<circle class="st1" cx="386.5" cy="554.2" r="0.6"/>
	<circle class="st1" cx="404.2" cy="554.2" r="0.6"/>
	<circle class="st1" cx="423.4" cy="554.2" r="0.6"/>
	<circle class="st1" cx="441.1" cy="554.2" r="0.6"/>
	<circle class="st1" cx="459.7" cy="554.2" r="0.6"/>
	<circle class="st1" cx="477.4" cy="554.2" r="0.6"/>
	<circle class="st1" cx="496.6" cy="554.2" r="0.6"/>
	<circle class="st1" cx="514.3" cy="554.2" r="0.6"/>
	<circle class="st1" cx="231.7" cy="537.1" r="0.6"/>
	<circle class="st1" cx="249.4" cy="537.1" r="0.6"/>
	<circle class="st1" cx="268.5" cy="537.1" r="0.6"/>
	<circle class="st1" cx="286.2" cy="537.1" r="0.6"/>
	<circle class="st1" cx="304.9" cy="537.1" r="0.6"/>
	<circle class="st1" cx="322.6" cy="537.1" r="0.6"/>
	<circle class="st1" cx="341.7" cy="537.1" r="0.6"/>
	<circle class="st1" cx="359.4" cy="537.1" r="0.6"/>
	<circle class="st1" cx="378.7" cy="537.1" r="0.6"/>
	<circle class="st1" cx="396.4" cy="537.1" r="0.6"/>
	<circle class="st1" cx="415.6" cy="537.1" r="0.6"/>
	<circle class="st1" cx="433.3" cy="537.1" r="0.6"/>
	<circle class="st1" cx="452" cy="537.1" r="0.6"/>
	<circle class="st1" cx="469.6" cy="537.1" r="0.6"/>
	<circle class="st1" cx="488.8" cy="537.1" r="0.6"/>
	<circle class="st1" cx="506.5" cy="537.1" r="0.6"/>
	<circle class="st1" cx="240.3" cy="520.3" r="0.6"/>
	<circle class="st1" cx="258" cy="520.3" r="0.6"/>
	<circle class="st1" cx="277.2" cy="520.3" r="0.6"/>
	<circle class="st1" cx="294.9" cy="520.3" r="0.6"/>
	<circle class="st1" cx="313.5" cy="520.3" r="0.6"/>
	<circle class="st1" cx="331.2" cy="520.3" r="0.6"/>
	<circle class="st1" cx="350.4" cy="520.3" r="0.6"/>
	<circle class="st1" cx="368.1" cy="520.3" r="0.6"/>
	<circle class="st1" cx="387.4" cy="520.3" r="0.6"/>
	<circle class="st1" cx="405.1" cy="520.3" r="0.6"/>
	<circle class="st1" cx="424.2" cy="520.3" r="0.6"/>
	<circle class="st1" cx="441.9" cy="520.3" r="0.6"/>
	<circle class="st1" cx="460.6" cy="520.3" r="0.6"/>
	<circle class="st1" cx="478.3" cy="520.3" r="0.6"/>
	<circle class="st1" cx="497.5" cy="520.3" r="0.6"/>
	<circle class="st1" cx="515.1" cy="520.3" r="0.6"/>
	<circle class="st1" cx="232.5" cy="503.1" r="0.6"/>
	<circle class="st1" cx="250.2" cy="503.1" r="0.6"/>
	<circle class="st1" cx="269.4" cy="503.1" r="0.6"/>
	<circle class="st1" cx="287.1" cy="503.1" r="0.6"/>
	<circle class="st1" cx="305.7" cy="503.1" r="0.6"/>
	<circle class="st1" cx="323.4" cy="503.1" r="0.6"/>
	<circle class="st1" cx="342.6" cy="503.1" r="0.6"/>
	<circle class="st1" cx="360.3" cy="503.1" r="0.6"/>
	<circle class="st1" cx="379.6" cy="503.1" r="0.6"/>
	<circle class="st1" cx="397.3" cy="503.1" r="0.6"/>
	<circle class="st1" cx="416.5" cy="503.1" r="0.6"/>
	<circle class="st1" cx="434.2" cy="503.1" r="0.6"/>
	<circle class="st1" cx="452.8" cy="503.1" r="0.6"/>
	<circle class="st1" cx="470.5" cy="503.1" r="0.6"/>
	<circle class="st1" cx="489.7" cy="503.1" r="0.6"/>
	<circle class="st1" cx="507.4" cy="503.1" r="0.6"/>
	<circle class="st1" cx="241.8" cy="485.2" r="0.6"/>
	<circle class="st1" cx="259.5" cy="485.2" r="0.6"/>
	<circle class="st1" cx="278.7" cy="485.2" r="0.6"/>
	<circle class="st1" cx="296.4" cy="485.2" r="0.6"/>
	<circle class="st1" cx="315" cy="485.2" r="0.6"/>
	<circle class="st1" cx="332.7" cy="485.2" r="0.6"/>
	<circle class="st1" cx="351.9" cy="485.2" r="0.6"/>
	<circle class="st1" cx="369.6" cy="485.2" r="0.6"/>
	<circle class="st1" cx="388.9" cy="485.2" r="0.6"/>
	<circle class="st1" cx="406.6" cy="485.2" r="0.6"/>
	<circle class="st1" cx="425.8" cy="485.2" r="0.6"/>
	<circle class="st1" cx="443.5" cy="485.2" r="0.6"/>
	<circle class="st1" cx="462.1" cy="485.2" r="0.6"/>
	<circle class="st1" cx="479.8" cy="485.2" r="0.6"/>
	<circle class="st1" cx="499" cy="485.2" r="0.6"/>
	<circle class="st1" cx="516.7" cy="485.2" r="0.6"/>
	<circle class="st1" cx="232.2" cy="466.2" r="0.6"/>
	<circle class="st1" cx="249.9" cy="466.2" r="0.6"/>
	<circle class="st1" cx="269" cy="466.2" r="0.6"/>
	<circle class="st1" cx="286.7" cy="466.2" r="0.6"/>
	<circle class="st1" cx="305.4" cy="466.2" r="0.6"/>
	<circle class="st1" cx="323.1" cy="466.2" r="0.6"/>
	<circle class="st1" cx="342.2" cy="466.2" r="0.6"/>
	<circle class="st1" cx="359.9" cy="466.2" r="0.6"/>
	<circle class="st1" cx="379.2" cy="466.2" r="0.6"/>
	<circle class="st1" cx="396.9" cy="466.2" r="0.6"/>
	<circle class="st1" cx="416.1" cy="466.2" r="0.6"/>
	<circle class="st1" cx="433.8" cy="466.2" r="0.6"/>
	<circle class="st1" cx="452.5" cy="466.2" r="0.6"/>
	<circle class="st1" cx="470.1" cy="466.2" r="0.6"/>
	<circle class="st1" cx="489.3" cy="466.2" r="0.6"/>
	<circle class="st1" cx="507" cy="466.2" r="0.6"/>
	<circle class="st1" cx="240.8" cy="447.5" r="0.6"/>
	<circle class="st1" cx="258.5" cy="447.5" r="0.6"/>
	<circle class="st1" cx="277.7" cy="447.5" r="0.6"/>
	<circle class="st1" cx="295.4" cy="447.5" r="0.6"/>
	<circle class="st1" cx="314" cy="447.5" r="0.6"/>
	<circle class="st1" cx="331.7" cy="447.5" r="0.6"/>
	<circle class="st1" cx="350.9" cy="447.5" r="0.6"/>
	<circle class="st1" cx="368.6" cy="447.5" r="0.6"/>
	<circle class="st1" cx="387.9" cy="447.5" r="0.6"/>
	<circle class="st1" cx="405.6" cy="447.5" r="0.6"/>
	<circle class="st1" cx="424.7" cy="447.5" r="0.6"/>
	<circle class="st1" cx="442.4" cy="447.5" r="0.6"/>
	<circle class="st1" cx="461.1" cy="447.5" r="0.6"/>
	<circle class="st1" cx="478.8" cy="447.5" r="0.6"/>
	<circle class="st1" cx="498" cy="447.5" r="0.6"/>
	<circle class="st1" cx="515.6" cy="447.5" r="0.6"/>
	<circle class="st1" cx="231.1" cy="428.4" r="0.6"/>
	<circle class="st1" cx="248.8" cy="428.4" r="0.6"/>
	<circle class="st1" cx="268" cy="428.4" r="0.6"/>
	<circle class="st1" cx="285.7" cy="428.4" r="0.6"/>
	<circle class="st1" cx="304.4" cy="428.4" r="0.6"/>
	<circle class="st1" cx="322" cy="428.4" r="0.6"/>
	<circle class="st1" cx="341.2" cy="428.4" r="0.6"/>
	<circle class="st1" cx="358.9" cy="428.4" r="0.6"/>
	<circle class="st1" cx="378.2" cy="428.4" r="0.6"/>
	<circle class="st1" cx="395.9" cy="428.4" r="0.6"/>
	<circle class="st1" cx="415.1" cy="428.4" r="0.6"/>
	<circle class="st1" cx="432.8" cy="428.4" r="0.6"/>
	<circle class="st1" cx="451.4" cy="428.4" r="0.6"/>
	<circle class="st1" cx="469.1" cy="428.4" r="0.6"/>
	<circle class="st1" cx="488.3" cy="428.4" r="0.6"/>
	<circle class="st1" cx="506" cy="428.4" r="0.6"/>
	<circle class="st1" cx="239.4" cy="409.7" r="0.6"/>
	<circle class="st1" cx="257.1" cy="409.7" r="0.6"/>
	<circle class="st1" cx="276.3" cy="409.7" r="0.6"/>
	<circle class="st1" cx="293.9" cy="409.7" r="0.6"/>
	<circle class="st1" cx="312.6" cy="409.7" r="0.6"/>
	<circle class="st1" cx="330.3" cy="409.7" r="0.6"/>
	<circle class="st1" cx="349.5" cy="409.7" r="0.6"/>
	<circle class="st1" cx="367.2" cy="409.7" r="0.6"/>
	<circle class="st1" cx="386.5" cy="409.7" r="0.6"/>
	<circle class="st1" cx="404.2" cy="409.7" r="0.6"/>
	<circle class="st1" cx="423.3" cy="409.7" r="0.6"/>
	<circle class="st1" cx="441" cy="409.7" r="0.6"/>
	<circle class="st1" cx="459.7" cy="409.7" r="0.6"/>
	<circle class="st1" cx="477.4" cy="409.7" r="0.6"/>
	<circle class="st1" cx="496.5" cy="409.7" r="0.6"/>
	<circle class="st1" cx="514.2" cy="409.7" r="0.6"/>
	<circle class="st1" cx="231.6" cy="392.6" r="0.6"/>
	<circle class="st1" cx="249.3" cy="392.6" r="0.6"/>
	<circle class="st1" cx="268.5" cy="392.6" r="0.6"/>
	<circle class="st1" cx="286.2" cy="392.6" r="0.6"/>
	<circle class="st1" cx="304.8" cy="392.6" r="0.6"/>
	<circle class="st1" cx="322.5" cy="392.6" r="0.6"/>
	<circle class="st1" cx="341.7" cy="392.6" r="0.6"/>
	<circle class="st1" cx="359.4" cy="392.6" r="0.6"/>
	<circle class="st1" cx="378.7" cy="392.6" r="0.6"/>
	<circle class="st1" cx="396.4" cy="392.6" r="0.6"/>
	<circle class="st1" cx="415.5" cy="392.6" r="0.6"/>
	<circle class="st1" cx="433.2" cy="392.6" r="0.6"/>
	<circle class="st1" cx="451.9" cy="392.6" r="0.6"/>
	<circle class="st1" cx="469.6" cy="392.6" r="0.6"/>
	<circle class="st1" cx="488.8" cy="392.6" r="0.6"/>
	<circle class="st1" cx="506.4" cy="392.6" r="0.6"/>
	<circle class="st1" cx="231.9" cy="355.8" r="0.6"/>
	<circle class="st1" cx="249.6" cy="355.8" r="0.6"/>
	<circle class="st1" cx="268.8" cy="355.8" r="0.6"/>
	<circle class="st1" cx="286.5" cy="355.8" r="0.6"/>
	<circle class="st1" cx="305.2" cy="355.8" r="0.6"/>
	<circle class="st1" cx="322.8" cy="355.8" r="0.6"/>
	<circle class="st1" cx="342" cy="355.8" r="0.6"/>
	<circle class="st1" cx="359.7" cy="355.8" r="0.6"/>
	<circle class="st1" cx="379" cy="355.8" r="0.6"/>
	<circle class="st1" cx="396.7" cy="355.8" r="0.6"/>
	<circle class="st1" cx="415.9" cy="355.8" r="0.6"/>
	<circle class="st1" cx="433.6" cy="355.8" r="0.6"/>
	<circle class="st1" cx="452.2" cy="355.8" r="0.6"/>
	<circle class="st1" cx="469.9" cy="355.8" r="0.6"/>
	<circle class="st1" cx="489.1" cy="355.8" r="0.6"/>
	<circle class="st1" cx="506.8" cy="355.8" r="0.6"/>
	<circle class="st1" cx="240.2" cy="375.8" r="0.6"/>
	<circle class="st1" cx="257.9" cy="375.8" r="0.6"/>
	<circle class="st1" cx="277.1" cy="375.8" r="0.6"/>
	<circle class="st1" cx="294.8" cy="375.8" r="0.6"/>
	<circle class="st1" cx="313.5" cy="375.8" r="0.6"/>
	<circle class="st1" cx="331.1" cy="375.8" r="0.6"/>
	<circle class="st1" cx="350.3" cy="375.8" r="0.6"/>
	<circle class="st1" cx="368" cy="375.8" r="0.6"/>
	<circle class="st1" cx="387.3" cy="375.8" r="0.6"/>
	<circle class="st1" cx="405" cy="375.8" r="0.6"/>
	<circle class="st1" cx="424.2" cy="375.8" r="0.6"/>
	<circle class="st1" cx="441.9" cy="375.8" r="0.6"/>
	<circle class="st1" cx="460.5" cy="375.8" r="0.6"/>
	<circle class="st1" cx="478.2" cy="375.8" r="0.6"/>
	<circle class="st1" cx="497.4" cy="375.8" r="0.6"/>
	<circle class="st1" cx="515.1" cy="375.8" r="0.6"/>
	<circle class="st1" cx="230.6" cy="332.4" r="0.6"/>
	<circle class="st1" cx="265.6" cy="332.4" r="0.6"/>
	<circle class="st1" cx="301.9" cy="332.4" r="0.6"/>
	<circle class="st1" cx="336.9" cy="332.4" r="0.6"/>
	<circle class="st1" cx="373.9" cy="332.4" r="0.6"/>
	<circle class="st1" cx="410.8" cy="332.4" r="0.6"/>
	<circle class="st1" cx="447.1" cy="332.4" r="0.6"/>
	<circle class="st1" cx="484" cy="332.4" r="0.6"/>
	<circle class="st1" cx="518.5" cy="332.1" r="0.6"/>
	<circle class="st1" cx="247.4" cy="314.5" r="0.6"/>
	<circle class="st1" cx="282.4" cy="314.5" r="0.6"/>
	<circle class="st1" cx="318.7" cy="314.5" r="0.6"/>
	<circle class="st1" cx="355.6" cy="314.5" r="0.6"/>
	<circle class="st1" cx="392.6" cy="314.5" r="0.6"/>
	<circle class="st1" cx="429.5" cy="314.5" r="0.6"/>
	<circle class="st1" cx="465.8" cy="314.5" r="0.6"/>
	<circle class="st1" cx="502.7" cy="314.5" r="0.6"/>
	<circle class="st1" cx="230.2" cy="297.3" r="0.6"/>
	<circle class="st1" cx="263.3" cy="297.3" r="0.6"/>
	<circle class="st1" cx="299.7" cy="297.3" r="0.6"/>
	<circle class="st1" cx="336.6" cy="297.3" r="0.6"/>
	<circle class="st1" cx="373.6" cy="297.3" r="0.6"/>
	<circle class="st1" cx="410.4" cy="297.3" r="0.6"/>
	<circle class="st1" cx="446.8" cy="297.3" r="0.6"/>
	<circle class="st1" cx="483.6" cy="297.3" r="0.6"/>
	<circle class="st1" cx="518.5" cy="297.3" r="0.6"/>
	<circle class="st1" cx="246.4" cy="278.6" r="0.6"/>
	<circle class="st1" cx="283.2" cy="278.6" r="0.6"/>
	<circle class="st1" cx="319.6" cy="278.6" r="0.6"/>
	<circle class="st1" cx="356.4" cy="278.6" r="0.6"/>
	<circle class="st1" cx="393.4" cy="278.6" r="0.6"/>
	<circle class="st1" cx="430.3" cy="278.6" r="0.6"/>
	<circle class="st1" cx="466.6" cy="278.6" r="0.6"/>
	<circle class="st1" cx="503.5" cy="278.6" r="0.6"/>
	<circle class="st1" cx="231.1" cy="261.4" r="0.6"/>
	<circle class="st1" cx="262.3" cy="261.4" r="0.6"/>
	<circle class="st1" cx="298.7" cy="261.4" r="0.6"/>
	<circle class="st1" cx="335.5" cy="261.4" r="0.6"/>
	<circle class="st1" cx="372.5" cy="261.4" r="0.6"/>
	<circle class="st1" cx="409.4" cy="261.4" r="0.6"/>
	<circle class="st1" cx="447.6" cy="261.4" r="0.6"/>
	<path class="st1" d="M483,261.8c-0.2,0.2,1.3,0.2,1.1,0s-0.2-0.6,0-0.8s0.6-0.2,0.8,0S483.2,261.6,483,261.8z"/>
	<circle class="st1" cx="517.2" cy="261.4" r="0.6"/>
</g>
<g>
	<path d="M357.3,128.8v-2l2.5-2.4c6-5.7,8.7-8.7,8.7-12.3c0-2.4-1.2-4.6-4.7-4.6c-2.1,0-3.9,1.1-5,2l-1-2.2c1.6-1.4,3.9-2.4,6.7-2.4
		c5.1,0,7.2,3.5,7.2,6.8c0,4.3-3.1,7.8-8.1,12.6l-1.9,1.7v0.1h10.6v2.6H357.3z"/>
	<path d="M389.9,108h-9l-0.9,6c0.5-0.1,1-0.1,1.9-0.1c1.8,0,3.6,0.4,5.1,1.3c1.8,1,3.4,3.1,3.4,6c0,4.6-3.7,8-8.7,8
		c-2.6,0-4.7-0.7-5.9-1.4l0.8-2.4c1,0.6,2.9,1.3,5,1.3c3,0,5.6-2,5.6-5.1c0-3-2.1-5.2-6.8-5.2c-1.3,0-2.4,0.1-3.3,0.3l1.5-11.3h11.2
		V108z"/>
</g>
<line class="st2" x1="339.4" y1="140.7" x2="408.3" y2="140.7"/>
<g>
	<path d="M354.5,151.3v-0.6l0.8-0.8c2-1.9,2.9-2.9,2.9-4.1c0-0.8-0.4-1.5-1.5-1.5c-0.7,0-1.3,0.4-1.7,0.7l-0.3-0.7
		c0.5-0.5,1.3-0.8,2.2-0.8c1.7,0,2.4,1.2,2.4,2.3c0,1.4-1,2.6-2.7,4.2l-0.6,0.6v0h3.5v0.9H354.5z"/>
	<path d="M364,151.3v-2.1h-3.6v-0.7l3.5-5h1.1v4.8h1.1v0.8H365v2.1H364z M364,148.4v-2.6c0-0.4,0-0.8,0-1.2h0
		c-0.2,0.5-0.4,0.8-0.6,1.2l-1.9,2.7v0H364z"/>
	<path d="M370.3,143.5l-1.1,1.5v0l1.8-0.2v0.8l-1.8-0.2v0l1.2,1.4l-0.8,0.4l-0.7-1.7h0l-0.8,1.7l-0.7-0.4l1.1-1.5v0l-1.8,0.2v-0.8
		l1.8,0.2v0l-1.1-1.5l0.7-0.4l0.7,1.7h0l0.7-1.7L370.3,143.5z"/>
	<path d="M377.6,151.3v-2.1H374v-0.7l3.5-5h1.1v4.8h1.1v0.8h-1.1v2.1H377.6z M377.6,148.4v-2.6c0-0.4,0-0.8,0-1.2h0
		c-0.2,0.5-0.4,0.8-0.6,1.2l-1.9,2.7v0H377.6z"/>
	<path d="M385.7,147.4c0,2.7-1,4.1-2.7,4.1c-1.5,0-2.6-1.4-2.6-4c0-2.6,1.1-4.1,2.7-4.1C384.8,143.4,385.7,144.9,385.7,147.4z
		 M381.5,147.5c0,2,0.6,3.2,1.6,3.2c1.1,0,1.6-1.3,1.6-3.3c0-1.9-0.5-3.2-1.6-3.2C382.2,144.2,381.5,145.3,381.5,147.5z"/>
	<path d="M388.4,143.4c1.1,0,1.8,0.8,1.8,2.3c0,1.6-0.9,2.5-1.9,2.5c-1,0-1.8-0.8-1.8-2.4C386.5,144.3,387.4,143.4,388.4,143.4
		L388.4,143.4z M388.3,144c-0.6,0-1,0.8-1,1.8c0,1,0.3,1.8,1,1.8c0.7,0,1-0.7,1-1.8C389.4,144.8,389.1,144,388.3,144L388.3,144z
		 M388.3,151.5l4.6-8.1h0.7l-4.6,8.1H388.3z M393.5,146.6c1.1,0,1.8,0.8,1.8,2.3c0,1.6-0.9,2.5-1.9,2.5c-1,0-1.8-0.8-1.8-2.3
		C391.6,147.5,392.4,146.6,393.5,146.6L393.5,146.6z M393.4,147.3c-0.6,0-1,0.8-1,1.8c0,1,0.4,1.8,1,1.8c0.7,0,1-0.7,1-1.8
		C394.4,148.1,394.2,147.3,393.4,147.3L393.4,147.3z"/>
</g>
</svg>
