<?xml version="1.0" encoding="utf-8"?>
<!-- Generator: Adobe Illustrator 21.0.0, SVG Export Plug-In . SVG Version: 6.00 Build 0)  -->
<svg version="1.1" id="Layer_1" xmlns="http://www.w3.org/2000/svg" xmlns:xlink="http://www.w3.org/1999/xlink" x="0px" y="0px"
	 viewBox="0 0 533.9 1417.3" style="enable-background:new 0 0 533.9 1417.3;" xml:space="preserve">
<g>
	<path d="M266.9,510.6c134.4,0,243.7-109.3,243.7-243.7S401.3,23.2,266.9,23.2S23.2,132.5,23.2,266.9S132.5,510.6,266.9,510.6z
		 M266.9,27.1c132.3,0,239.9,107.6,239.9,239.9S399.2,506.8,266.9,506.8S27.1,399.2,27.1,266.9S134.7,27.1,266.9,27.1z"/>
	<path d="M266.9,482.6c118.9,0,215.7-96.8,215.7-215.7S385.9,51.2,266.9,51.2S51.2,148,51.2,266.9S148,482.6,266.9,482.6z
		 M58.9,270.7c1,0.8,2.1,1.5,3.3,2c1.3,0.5,2.7,1.1,4,1.6c1,28.8,8,56.3,20.8,82c-2.5,1.3-4.3,2.9-5.5,5
		C67.6,334,59.5,303.2,58.9,270.7z M370.6,183.9c-10.3,2.6-24.2,5.8-38.8,9.2c-10.3,2.4-20.9,4.8-30.2,7.1c0,0-0.1,0-0.1-0.1
		c2.1-5.1,4.3-9.2,6.8-12.1c11.6-13.9,49.3-48.9,65.2-62.5c1.9-1.6,3.7-3.1,5.4-4.5c4-3.3,7.4-6.1,10-8.8
		c21.5,17,39.4,38.5,52.2,62.6C414.2,176.6,385.1,180.3,370.6,183.9z M266.9,134.1c-4.4,9.7-10.6,22.5-17.1,36
		c-4.6,9.5-9.3,19.3-13.4,28c-0.3,0.1-0.6,0.3-0.9,0.4c-2.8-4.8-4.6-9.1-5.4-12.8c-3.8-17.7-8.2-68.9-9.1-89.9
		c-0.1-2.5-0.2-4.8-0.2-7c-0.2-5.2-0.3-9.6-0.8-13.3c27.2-6.7,56.1-7.4,83.7-2.2C288.4,95.5,273.1,120.5,266.9,134.1z M162.2,185.2
		c4.9,9.4,11.2,22.2,17.9,35.7c4.7,9.5,9.5,19.3,13.9,27.8c0,0,0,0,0,0.1c-5.5-0.8-10-2.1-13.4-3.8c-16.2-8.1-58.9-36.7-75.9-49.1
		c-2-1.5-3.9-2.9-5.6-4.2c-4.1-3.1-7.7-5.8-10.9-7.7c11.5-24.8,28.3-47.2,48.9-65.2C145,144.5,155.4,171.9,162.2,185.2z M94.5,197.9
		c1.8,1.3,3.7,2.8,5.7,4.2c17.1,12.5,60.4,41.4,77,49.7c4.9,2.5,11.4,4.1,19.4,5l3.5,0.4l0.7-3.5c0.3-1.5,0.6-3,1.1-4.5l0.4-1.4
		l-0.7-1.3c-4.5-8.9-9.6-19.1-14.5-29.1c-6.7-13.5-13-26.3-17.9-35.8c-7.3-14.1-19.2-46.2-27.1-73.1c-0.7-2.3,0.2-4.7,2.2-6.1
		l0.2-0.2c0.2-0.2,24.7-19.8,58.3-30.7c3.7-1.2,6.4-1.4,7.6-0.6c2.4,1.7,2.6,9.7,2.9,18.2c0.1,2.2,0.1,4.6,0.3,7.1
		c0.9,21.2,5.4,73.1,9.3,91.1c1.2,5.4,3.9,11.5,8.2,18.2l1.9,3l3.1-1.6c1.8-0.9,3.4-1.7,4.9-2.3l1.4-0.6l0.6-1.3
		c4.2-9,9.2-19.3,14-29.3c6.5-13.6,12.7-26.4,17.2-36.2c6.6-14.4,24.6-43.5,40.9-66.4c1.4-1.9,3.8-2.8,6.1-2l0.3,0.1
		c0.3,0.1,30.8,7.3,60.1,27c3.2,2.2,5.1,4.2,5.2,5.6c0.2,2.9-6,8.1-12.6,13.5c-1.7,1.4-3.5,2.9-5.4,4.6
		c-16.1,13.8-54.3,49.2-66.1,63.4c-3.5,4.2-6.7,10.2-9.3,17.7l-1.2,3.3l3.2,1.5c1.6,0.7,3,1.4,4.2,2.1l1.3,0.7l1.4-0.3
		c9.6-2.3,20.8-4.9,31.6-7.4c14.7-3.4,28.6-6.6,39-9.2c15.4-3.8,49.4-8,77.4-9.5c2.4-0.1,4.6,1.3,5.4,3.5l0.1,0.3
		c0.1,0.3,13.5,28.6,16.5,63.8v0c0.3,3.9-0.1,6.6-1.1,7.5c-2.2,1.9-10.1,0.3-18.4-1.4c-2.2-0.4-4.5-0.9-7-1.4
		c-20.8-4-72.3-11.6-90.8-12c-5.5-0.1-12.1,1.1-19.6,3.8l-3.3,1.1l0.8,3.4c0.4,1.4,0.7,2.9,1,4.5l0.3,1.5l1.2,0.9
		c7.9,6.1,16.9,13.2,25.6,20.1c11.8,9.3,23,18.2,31.5,24.7c12.6,9.6,37.1,33.5,55.8,54.5c1.6,1.8,1.8,4.4,0.6,6.4l-0.1,0.3
		c-0.1,0.3-13.9,28.5-39.5,52.7c-2.8,2.7-5.2,4.1-6.6,3.8c-2.9-0.5-6.5-7.6-10.4-15.2c-1-2-2.1-4.1-3.3-6.3
		c-9.9-18.8-36.1-63.7-47.4-78.4c-3.3-4.4-8.5-8.8-15.3-13l-3-1.9l-2.1,2.8c-0.9,1.2-1.9,2.3-2.9,3.5l-1,1.1l0,1.5
		c0.1,9.9,0.2,21.4,0.3,32.6c0.1,15.1,0.2,29.3,0.4,40c0.4,15.8-3,49.9-7.7,77.6c-0.4,2.3-2.3,4.2-4.6,4.5l-0.3,0.1
		c-0.3,0.1-30.9,6.9-65.9,2.1c-3.9-0.5-6.4-1.5-7.1-2.8c-1.4-2.6,1.9-9.9,5.4-17.6c0.9-2,1.9-4.2,2.9-6.5c8.5-19.5,27.2-68,31.6-86
		c1.3-5.4,1.5-12.1,0.6-20.1l-0.4-3.5l-4.2,0.1c-1.3,0-2.6,0-3.9-0.1l-1.5-0.1l-1.1,0.9c-7.7,6.3-16.6,13.6-25.3,20.6
		c-11.7,9.5-22.8,18.5-31,25.3c-12.1,10.2-40.9,28.8-65.4,42.5c-2.1,1.2-4.7,0.8-6.4-0.8l-0.2-0.2c-0.2-0.2-24.7-19.8-42.8-50.1
		c-2-3.4-2.8-5.9-2.3-7.3c1.1-2.7,8.9-4.7,17.1-6.8c2.2-0.6,4.5-1.1,6.9-1.8c20.5-5.6,70.1-21.3,86.9-29c5-2.3,10.4-6.4,16.1-12
		l2.5-2.5l-2.3-2.7c-1-1.2-1.9-2.4-2.8-3.6l-0.9-1.2l-1.4-0.3c-9.7-2-20.9-4.5-31.8-6.9c-14.7-3.2-28.7-6.3-39.2-8.4
		c-15.5-3.1-48-13.9-74-24.5c-2.2-0.9-3.6-3.1-3.4-5.5l0-0.2l0-0.2c0-0.3,0-31.6,12.4-64.7c1.4-3.7,2.9-5.9,4.2-6.3
		C81.2,187.9,87.7,192.8,94.5,197.9z M463.9,266.9c0,27.3-5.5,53.6-16.2,78.4c-18.2-19.8-39.3-40.1-51.2-49.2
		c-8.5-6.4-19.6-15.2-31.4-24.6c-8.3-6.6-16.9-13.3-24.5-19.3c0,0,0,0,0-0.1c5.3-1.6,9.9-2.3,13.7-2.3c18.1,0.4,68.9,7.9,89.6,11.9
		c2.4,0.5,4.7,0.9,6.9,1.4c5.1,1,9.4,1.9,13.1,2.3C463.9,265.9,463.9,266.4,463.9,266.9z M210.1,387.1c8.1-6.8,19.2-15.8,30.9-25.2
		c8.2-6.7,16.8-13.6,24.2-19.7c0,0,0,0,0,0c0.4,5.5,0.1,10.2-0.8,13.9c-4.4,17.6-22.9,65.5-31.2,84.8c-1,2.3-1.9,4.4-2.8,6.4
		c-2.1,4.7-3.9,8.7-5.1,12.3c-26.7-5.8-52.2-17.2-74.3-33.3C174.2,412.8,198.7,396.7,210.1,387.1z M143.5,430.4
		c1.3-0.7,2.5-1.4,3.8-2.1c22.8,16.9,49.3,29,77,35c-0.5,2.8-0.5,5.2,0.4,7.4c-31.4-6.5-60.2-20.1-84.7-39
		C141.2,431.4,142.4,431,143.5,430.4z M325.2,386.4c-0.2-10.6-0.3-24.8-0.4-39.9c-0.1-10.6-0.1-21.5-0.3-31.2c0,0,0,0,0,0
		c4.6,3.1,8.1,6.3,10.4,9.3c11,14.4,36.9,58.8,46.7,77.3c1.2,2.2,2.2,4.3,3.2,6.2c2.3,4.6,4.4,8.5,6.4,11.6
		c-21.3,17.3-46.1,30.1-72.5,37.3C322.8,430.5,325.5,401.3,325.2,386.4z M317.4,465.4c0.2-1.4,0.5-2.8,0.7-4.3
		c27.4-7.2,53.3-20.4,75.4-38.3c1.8,2.1,3.7,3.6,6,4.3c-23.9,19.8-52.2,34.3-83.3,41.9C316.7,467.9,317.2,466.7,317.4,465.4z
		 M137.7,297.6c10.4,2.1,24.3,5.1,39,8.3c10.3,2.3,21,4.6,30.4,6.6c0,0,0,0,0,0c-4.1,3.8-7.9,6.5-11.4,8.1
		c-16.5,7.6-65.4,23.1-85.7,28.6c-2.4,0.6-4.6,1.2-6.8,1.8c-5,1.3-9.3,2.4-12.8,3.7c-12.3-24.7-19.2-51.2-20.4-78.9
		C95.1,285.7,123,294.7,137.7,297.6z M455.5,354.7c-0.5-1.1-1.2-2.2-2.1-3.2c-0.9-1.1-1.9-2.1-2.9-3.2
		c11.4-25.7,17.2-53.1,17.2-81.5c0-0.5,0-0.9,0-1.4c2.8-0.1,5.2-0.7,7.2-2.1c0,1.1,0,2.3,0,3.4C475,298.3,468,328,455.5,354.7z
		 M453.3,174.6c-1.2-0.3-2.5-0.4-3.8-0.4c-1.4,0.1-2.8,0.2-4.3,0.2c-13.1-25.2-31.6-47.6-53.9-65.2c1.7-2.2,2.7-4.4,2.8-6.8
		C418.9,121.6,439.2,146.3,453.3,174.6z M311.3,63.7c-1,0.8-2,1.7-2.7,2.8c-0.8,1.1-1.6,2.3-2.5,3.5c-28.6-5.7-58.6-5-86.9,1.9
		c-0.7-2.7-1.9-4.9-3.7-6.5c16.4-4.2,33.7-6.4,51.4-6.4C282.2,58.9,297,60.5,311.3,63.7z M134.1,107c0,1.2,0.2,2.5,0.5,3.7
		c0.4,1.4,0.8,2.7,1.2,4.1c-21.5,18.6-39.1,41.8-51.1,67.5c-2.6-1.1-5-1.6-7.3-1.2C90.5,152.3,110,127,134.1,107z"/>
	<path d="M509.5,1321.5c-1-0.7-2.1-1.4-3.4-2c-1.7-0.9-3.7-1.8-5.8-2.7c-30.5-12.3-105.7-21-197.5-22.8V531.4
		C433.1,513.9,533.9,402,533.9,266.9C533.9,119.7,414.1,0,266.9,0C119.7,0,0,119.7,0,266.9c0,135,100.8,247,231.1,264.5V1294
		c-91.8,1.8-167,10.5-197.5,22.8c-2.2,0.9-4.1,1.8-5.9,2.7c-1.2,0.7-2.4,1.3-3.4,2c-5.5,3.7-8.4,8.1-8.4,13.1c0,1,0.1,2.1,0.4,3.1
		c0.2,0.6,0.4,1.1,0.5,1.5l9.2,36.4c0.1,0.4,0.2,0.8,0.4,1.2l0.3,0.7c0,0,0,0,0,0l0.6,1.3l0.3,0.4c0.3,0.5,0.5,0.9,0.9,1.4l0.3,0.4
		c0.3,0.4,0.7,0.9,1.1,1.3l0.2,0.2c0.3,0.4,0.7,0.7,1.1,1.1l0.3,0.3c0.3,0.3,0.6,0.5,0.9,0.8l0.4,0.3c0.4,0.4,0.9,0.7,1.4,1.1
		l0.3,0.2c0.4,0.3,0.8,0.6,1.2,0.8l0.2,0.1c0.5,0.3,1.1,0.7,1.7,1.1c0.5,0.3,1,0.6,1.6,0.9l0.5,0.3c0.5,0.3,1,0.5,1.5,0.8
		c0.5,0.2,0.9,0.5,1.4,0.7l0.6,0.3c12.2,5.6,31.3,10.5,56.7,14.7l0.2,0c1.2,0.2,2.4,0.4,3.8,0.6l0.2,0c1.1,0.2,2.3,0.3,3.4,0.5
		l20.9,2.8l33.1,3.3l42.1,2.6l57.5,1.4c2,0,4,0,6,0c2,0,4,0,6,0l5.9,0l43.1-1l-0.3-7.7l0.6,7.7l37.8-2l39.4-3.5l23.1-2.9
		c1.1-0.2,2.2-0.3,3.2-0.5l0.7-0.1c1.1-0.2,2.3-0.3,3.4-0.5l4.1-0.7c25.5-4.1,44.6-9.1,56.8-14.7l0.2-0.1c0.6-0.3,1.2-0.6,1.8-0.9
		c0.5-0.3,1.1-0.5,1.6-0.8l0.7-0.4c0.5-0.3,1-0.5,1.3-0.8l0.3-0.2c0.5-0.3,1-0.6,1.5-0.9l0.2-0.1c0.4-0.2,0.7-0.5,1.1-0.8l0.4-0.3
		c0.5-0.4,1-0.7,1.4-1.1l0,0c0,0,0,0,0,0l0.3-0.2c0.3-0.2,0.6-0.5,0.9-0.8l0.3-0.3c0.4-0.4,0.7-0.7,1.1-1.1l0.4-0.5
		c0.3-0.3,0.6-0.7,0.8-1l0.5-0.7l0-0.1c0.2-0.3,0.4-0.7,0.6-1l0.8-1.7c0,0,0-0.1,0.1-0.1l0.6-1.4l9.3-36.9c0.2-0.4,0.4-0.9,0.5-1.5
		c0.3-1,0.4-2.1,0.4-3.1C517.8,1329.7,515,1325.2,509.5,1321.5z M31.8,1335.2c0.3-0.2,0.6-0.5,1.2-0.9c0.6-0.4,1.3-0.8,2.1-1.2
		c1.2-0.7,2.7-1.3,4.4-2c28.4-11.5,103.1-19.9,191.7-21.7v23.3c0,8,8.5,8.6,15.4,9c5.5,0.4,12.7,0.6,20.4,0.6
		c11.1,0,19.1-0.2,24.6-0.9c2.7-0.3,5.3-0.8,7.3-1.9c2.8-1.4,3.9-3.6,3.9-6.8v-23.3c88.6,1.8,163.4,10.2,191.7,21.7
		c1.7,0.7,3.2,1.4,4.4,2c0.8,0.4,1.5,0.8,2.1,1.2l0,0c0.5,0.3,0.9,0.6,1.2,0.9l-1.1,4.2c-7.1,3.9-23.7,9.7-62.6,15
		c-45.8,6.3-106.7,9.7-171.5,9.7c-64.8,0-125.7-3.4-171.5-9.7c-39-5.3-55.5-11.1-62.6-15L31.8,1335.2z M287.4,1293.8v32.6
		c-2.1,0.2-4.7,0.3-7.8,0.4V533.5c2.6-0.1,5.2-0.3,7.8-0.5V1293.8z M15.4,266.9c0-138.7,112.9-251.6,251.6-251.6
		s251.6,112.9,251.6,251.6c0,129.6-98.5,236.6-224.6,250.1c-2,0.2-4.1,0.4-6.1,0.6c-0.2,0-0.3,0-0.5,0c-13.6,1.1-27.2,1.1-40.8,0
		c-0.2,0-0.3,0-0.5,0c-2-0.2-4.1-0.4-6.1-0.6C113.9,503.5,15.4,396.5,15.4,266.9z M255.9,533.6c0.5,0,1.1,0,1.6,0.1
		c3.1,0.1,6.2,0.2,9.4,0.2c2.3,0,4.6,0,6.9-0.1v793.1c-2.1,0-4.4,0.1-6.9,0.1c-9,0-16.1-0.3-20.5-0.6v-32.6V533.1
		C249.6,533.3,252.7,533.5,255.9,533.6z M493.1,1370.6l-0.9,0.9v1c-0.1,0.1-0.2,0.2-0.3,0.3l-0.1,0.1c-0.2,0.2-0.4,0.3-0.4,0.4
		l-0.4,0.3c-0.1,0.1-0.3,0.2-0.4,0.3l-0.2,0.1c-0.3,0.2-0.6,0.4-0.9,0.6l-0.2,0.1c-0.3,0.2-0.6,0.4-1,0.6l-0.1,0
		c-0.4,0.2-0.8,0.5-1.2,0.7l-0.2,0.1c-0.4,0.2-0.8,0.4-1.3,0.6c-0.5,0.2-1,0.5-1.5,0.7l-0.1,0.1c-10.8,4.9-29,9.6-52.5,13.4
		l-4.2,0.7c-1.1,0.2-2.2,0.3-3.3,0.5l-20.4,2.7l-32.6,3.2l-41.5,2.6l-56.8,1.4c-3.9,0-7.9,0-11.9,0l-5.8,0l-40-0.9l-45.2-2.5
		l-38.3-3.6l-22-2.9c-1.1-0.2-2.2-0.3-3.5-0.5l-0.2,0c-1.2-0.2-2.3-0.4-3.5-0.6l-0.2,0c-23.7-3.8-41.9-8.5-52.6-13.4l-0.1-0.1
		c-0.5-0.2-1-0.5-1.6-0.8c-0.5-0.2-0.9-0.5-1.4-0.7l-0.2-0.1c-0.4-0.2-0.7-0.4-1.1-0.6c-0.3-0.2-0.7-0.4-1-0.6l-0.2-0.1
		c-0.3-0.2-0.6-0.4-0.8-0.5l-0.4-0.3c-0.1-0.1-0.2-0.2-0.3-0.2l-0.3-0.3c-0.2-0.1-0.3-0.3-0.4-0.3l-0.3-0.3
		c-0.1-0.1-0.1-0.1-0.2-0.2l-0.1-0.1c0,0-0.1-0.1-0.1-0.1l-0.4-1.4l-0.2-0.2l-5.5-21.6c12.2,5,31.7,9.2,59.2,13
		c46.1,6.3,107.4,9.8,172.5,9.8c65.1,0,126.4-3.5,172.5-9.8c27.5-3.8,47-8,59.2-13L493.1,1370.6z"/>
	<path d="M266.9,325.9c32.5,0,58.9-26.4,58.9-58.9S299.4,208,266.9,208S208,234.4,208,266.9S234.4,325.9,266.9,325.9z M266.9,219.5
		c26.1,0,47.4,21.3,47.4,47.4c0,26.1-21.3,47.4-47.4,47.4s-47.4-21.3-47.4-47.4C219.5,240.8,240.8,219.5,266.9,219.5z"/>
</g>
</svg>
