<?xml version="1.0" encoding="utf-8"?>
<!-- Generator: Adobe Illustrator 21.0.0, SVG Export Plug-In . SVG Version: 6.00 Build 0)  -->
<svg version="1.1" id="Layer_1" xmlns="http://www.w3.org/2000/svg" xmlns:xlink="http://www.w3.org/1999/xlink" x="0px" y="0px"
	 viewBox="0 0 984.5 328.2" style="enable-background:new 0 0 984.5 328.2;" xml:space="preserve">
<style type="text/css">
	.st0{fill:#1A1A18;}
</style>
<g>
	<path class="st0" d="M917,3.8H171.8c-35.4,0-64.1,28.8-64.1,64.1v71.8H40.6v12.1H3.4v2.3h37.2v20.1H3.4v2.3h37.2v10.8h67.1v73
		c0,35.4,28.8,64.1,64.1,64.1H917c35.4,0,64.1-28.8,64.1-64.1V67.9C981.1,32.5,952.3,3.8,917,3.8z M45.2,182.7v-38.4h62.5v38.4H45.2
		z M971.9,260.3c0,30.3-24.7,55-55,55H171.8c-30.3,0-55-24.7-55-55V67.9c0-30.3,24.7-55,55-55H917c30.3,0,55,24.7,55,55V260.3z"/>
	<path class="st0" d="M185.9,214.5c-16.8,0-30.5,13.7-30.5,30.5c0,16.8,13.7,30.5,30.5,30.5s30.5-13.7,30.5-30.5
		C216.4,228.2,202.7,214.5,185.9,214.5z M185.9,270.9c-14.3,0-25.9-11.6-25.9-25.9c0-14.3,11.6-25.9,25.9-25.9
		c14.3,0,25.9,11.6,25.9,25.9C211.8,259.3,200.2,270.9,185.9,270.9z"/>
	<path class="st0" d="M374.5,76.6h9.7v4.6h9.5v-4.6V53v-4.6h-9.5V53h-9.7c-6.5,0-11.8,5.3-11.8,11.8S368,76.6,374.5,76.6z"/>
	<path class="st0" d="M459.2,53h-9.7v-4.6H440V53v23.6v4.6h9.5v-4.6h9.7c6.5,0,11.8-5.3,11.8-11.8S465.8,53,459.2,53z"/>
	<path class="st0" d="M384.2,209.4h9.5v-4.6v-23.6v-4.6h-9.5v4.6h-9.7c-6.5,0-11.8,5.3-11.8,11.8s5.3,11.8,11.8,11.8h9.7V209.4z"/>
	<path class="st0" d="M459.2,181.2h-9.7v-4.6H440v4.6v23.6v4.6h9.5v-4.6h9.7c6.5,0,11.8-5.3,11.8-11.8S465.8,181.2,459.2,181.2z"/>
	<rect x="413.2" y="182.2" class="st0" width="7.3" height="29.3"/>
	<rect x="382.3" y="244.2" transform="matrix(0.866 -0.5 0.5 0.866 -77.7302 227.6894)" class="st0" width="7.3" height="29.3"/>
	<rect x="432.7" y="255.2" transform="matrix(0.5 -0.866 0.866 0.5 -0.5255 516.8572)" class="st0" width="29.3" height="7.3"/>
	<path class="st0" d="M188.2,236v1.9c1.2,0.4,2.2,1,3,1.8c1.4,1.4,2.2,3.2,2.2,5.3c0,2.1-0.8,3.9-2.2,5.3c-1.4,1.4-3.2,2.2-5.3,2.2
		c-2.1,0-3.9-0.8-5.3-2.2c-1.4-1.4-2.2-3.2-2.2-5.3c0-2.1,0.8-3.9,2.2-5.3c0.8-0.8,1.9-1.5,3-1.8V236c-1.7,0.4-3.1,1.3-4.3,2.5
		c-1.7,1.7-2.7,4-2.7,6.6c0,2.6,1,4.9,2.7,6.6c1.7,1.7,4,2.7,6.6,2.7c2.6,0,4.9-1,6.6-2.7c1.7-1.7,2.7-4,2.7-6.6
		c0-2.6-1-4.9-2.7-6.6C191.3,237.2,189.9,236.4,188.2,236z"/>
	<rect x="185" y="234.2" class="st0" width="1.8" height="10.8"/>
	<circle class="st0" cx="249" cy="230.8" r="3.1"/>
	<circle class="st0" cx="249" cy="259.6" r="3.1"/>
	<path class="st0" d="M582.4,76.6h9.7v4.6h9.5v-4.6V53v-4.6h-9.5V53h-9.7c-6.5,0-11.8,5.3-11.8,11.8S575.9,76.6,582.4,76.6z"/>
	<path class="st0" d="M667.1,53h-9.7v-4.6h-9.5V53v23.6v4.6h9.5v-4.6h9.7c6.5,0,11.8-5.3,11.8-11.8S673.6,53,667.1,53z"/>
	<path class="st0" d="M592.1,209.4h9.5v-4.6v-23.6v-4.6h-9.5v4.6h-9.7c-6.5,0-11.8,5.3-11.8,11.8s5.3,11.8,11.8,11.8h9.7V209.4z"/>
	<path class="st0" d="M667.1,181.2h-9.7v-4.6h-9.5v4.6v23.6v4.6h9.5v-4.6h9.7c6.5,0,11.8-5.3,11.8-11.8S673.6,181.2,667.1,181.2z"/>
	<rect x="621.1" y="182.2" class="st0" width="7.3" height="29.3"/>
	<rect x="590.2" y="244.2" transform="matrix(0.866 -0.5 0.5 0.866 -49.878 331.6277)" class="st0" width="7.3" height="29.3"/>
	<rect x="640.6" y="255.2" transform="matrix(0.5 -0.866 0.866 0.5 103.4131 696.8829)" class="st0" width="29.3" height="7.3"/>
	<path class="st0" d="M790.3,76.6h9.7v4.6h9.5v-4.6V53v-4.6H800V53h-9.7c-6.5,0-11.8,5.3-11.8,11.8S783.8,76.6,790.3,76.6z"/>
	<path class="st0" d="M875,53h-9.7v-4.6h-9.5V53v23.6v4.6h9.5v-4.6h9.7c6.5,0,11.8-5.3,11.8-11.8S881.5,53,875,53z"/>
	<path class="st0" d="M800,209.4h9.5v-4.6v-23.6v-4.6H800v4.6h-9.7c-6.5,0-11.8,5.3-11.8,11.8s5.3,11.8,11.8,11.8h9.7V209.4z"/>
	<path class="st0" d="M875,181.2h-9.7v-4.6h-9.5v4.6v23.6v4.6h9.5v-4.6h9.7c6.5,0,11.8-5.3,11.8-11.8S881.5,181.2,875,181.2z"/>
	<rect x="829" y="182.2" class="st0" width="7.3" height="29.3"/>
	<rect x="798.1" y="244.2" transform="matrix(0.866 -0.5 0.5 0.866 -22.027 435.5639)" class="st0" width="7.3" height="29.3"/>
	<rect x="848.4" y="255.2" transform="matrix(0.5 -0.866 0.866 0.5 207.3682 876.9261)" class="st0" width="29.3" height="7.3"/>
	<path class="st0" d="M172.6,68.6c-0.3,0.1-0.7,0.2-1.2,0.2c-0.5,0-1-0.1-1.4-0.3c-0.4-0.2-0.7-0.4-0.9-0.7
		c-0.2-0.3-0.3-0.7-0.4-1.1l-1.1,0.1c0,0.6,0.2,1.1,0.5,1.6c0.3,0.5,0.7,0.8,1.3,1.1c0.5,0.2,1.2,0.4,2,0.4c0.6,0,1.2-0.1,1.7-0.4
		c0.5-0.2,0.9-0.6,1.2-1c0.3-0.4,0.4-0.9,0.4-1.3c0-0.5-0.1-0.9-0.4-1.3c-0.2-0.4-0.6-0.7-1.2-0.9c-0.4-0.2-1-0.4-2-0.6
		c-1-0.2-1.6-0.4-1.8-0.6c-0.2-0.2-0.3-0.5-0.3-0.8c0-0.4,0.2-0.7,0.5-1c0.3-0.3,0.9-0.4,1.6-0.4c0.7,0,1.2,0.1,1.6,0.4
		c0.4,0.3,0.6,0.7,0.6,1.3l1.1-0.1c0-0.5-0.2-1-0.4-1.4c-0.3-0.4-0.7-0.7-1.2-0.9c-0.5-0.2-1.1-0.3-1.8-0.3c-0.6,0-1.2,0.1-1.6,0.3
		c-0.5,0.2-0.9,0.5-1.1,0.9c-0.3,0.4-0.4,0.8-0.4,1.3c0,0.4,0.1,0.8,0.3,1.1c0.2,0.3,0.5,0.6,1,0.8c0.3,0.2,0.9,0.4,1.7,0.6
		c0.8,0.2,1.4,0.3,1.6,0.4c0.4,0.1,0.6,0.3,0.8,0.5c0.2,0.2,0.2,0.5,0.2,0.7c0,0.3-0.1,0.5-0.3,0.8
		C173.2,68.3,172.9,68.5,172.6,68.6z"/>
	<path class="st0" d="M177.3,66.4c0-0.6,0.1-1,0.2-1.4c0.1-0.3,0.3-0.6,0.6-0.7c0.3-0.2,0.6-0.2,0.9-0.2c0.4,0,0.7,0.1,0.9,0.4
		c0.2,0.2,0.3,0.6,0.3,1.1v4.2h1.1V66c0-0.7,0.2-1.2,0.5-1.5c0.3-0.3,0.7-0.5,1.1-0.5c0.3,0,0.5,0.1,0.7,0.2
		c0.2,0.1,0.3,0.3,0.4,0.5c0.1,0.2,0.1,0.5,0.1,1v4.1h1.1v-4.5c0-0.7-0.2-1.3-0.5-1.7c-0.3-0.4-0.8-0.5-1.5-0.5
		c-0.8,0-1.5,0.4-2,1.1c-0.1-0.4-0.3-0.6-0.7-0.8c-0.3-0.2-0.7-0.3-1.2-0.3c-0.4,0-0.8,0.1-1.2,0.3c-0.3,0.2-0.6,0.4-0.8,0.8v-0.9
		h-1v6.5h1.1V66.4z"/>
	<path class="st0" d="M188.9,66c-0.4,0.1-0.8,0.1-1,0.2c-0.3,0.1-0.6,0.2-0.8,0.4c-0.2,0.2-0.4,0.4-0.6,0.6
		c-0.1,0.3-0.2,0.6-0.2,0.9c0,0.5,0.2,1,0.6,1.3c0.4,0.3,0.9,0.5,1.7,0.5c0.4,0,0.8-0.1,1.2-0.2c0.4-0.1,0.8-0.4,1.2-0.7
		c0,0.3,0.1,0.6,0.2,0.8h1.2c-0.1-0.3-0.2-0.5-0.3-0.8c0-0.3-0.1-0.9-0.1-1.9v-1.5c0-0.5,0-0.8-0.1-1c-0.1-0.3-0.2-0.6-0.3-0.8
		c-0.2-0.2-0.4-0.4-0.8-0.5c-0.3-0.1-0.8-0.2-1.4-0.2c-0.6,0-1.1,0.1-1.5,0.2c-0.4,0.2-0.8,0.4-1,0.7c-0.2,0.3-0.4,0.7-0.5,1.1
		l1.1,0.2c0.1-0.5,0.3-0.8,0.6-1c0.2-0.2,0.6-0.3,1.2-0.3c0.6,0,1,0.1,1.3,0.4c0.2,0.2,0.3,0.5,0.3,0.9c0,0,0,0.1,0,0.3
		C190.4,65.8,189.8,65.9,188.9,66z M190.9,66.9c0,0.5-0.1,0.9-0.2,1.1c-0.2,0.3-0.4,0.6-0.7,0.8c-0.3,0.2-0.7,0.3-1.1,0.3
		c-0.4,0-0.8-0.1-1-0.3c-0.2-0.2-0.3-0.4-0.3-0.7c0-0.2,0.1-0.4,0.2-0.5c0.1-0.2,0.2-0.3,0.4-0.4c0.2-0.1,0.5-0.2,1-0.2
		c0.8-0.1,1.4-0.3,1.8-0.4L190.9,66.9z"/>
	<path class="st0" d="M194.8,66.3c0-0.5,0.1-0.9,0.2-1.3c0.1-0.3,0.2-0.5,0.4-0.6c0.2-0.1,0.4-0.2,0.6-0.2c0.3,0,0.5,0.1,0.8,0.2
		l0.4-1c-0.4-0.2-0.8-0.3-1.1-0.3c-0.3,0-0.5,0.1-0.7,0.2c-0.2,0.1-0.4,0.5-0.7,0.9v-1h-1v6.5h1.1V66.3z"/>
	<path class="st0" d="M198,67.8c0,0.7,0,1.1,0.1,1.3c0.1,0.2,0.2,0.4,0.5,0.5c0.2,0.1,0.5,0.2,0.9,0.2c0.2,0,0.5,0,0.8-0.1l-0.2-1
		c-0.2,0-0.4,0-0.5,0c-0.2,0-0.3,0-0.4-0.1c-0.1-0.1-0.2-0.1-0.2-0.2c0-0.1-0.1-0.3-0.1-0.6v-3.8h1.1v-0.9h-1.1v-2.3l-1.1,0.7v1.6
		h-0.8v0.9h0.8V67.8z"/>
	<path class="st0" d="M206.2,66.1h2.3c1.3,0,2.2-0.3,2.6-0.8c0.5-0.5,0.7-1.2,0.7-1.9c0-0.4-0.1-0.9-0.3-1.2
		c-0.2-0.4-0.4-0.7-0.7-0.9c-0.3-0.2-0.7-0.3-1.1-0.4c-0.3-0.1-0.8-0.1-1.4-0.1H205v9h1.2V66.1z M206.2,61.8h2.3
		c0.5,0,0.9,0,1.1,0.1c0.3,0.1,0.6,0.3,0.8,0.5c0.2,0.3,0.3,0.6,0.3,1c0,0.5-0.2,0.9-0.5,1.2c-0.3,0.3-0.9,0.4-1.6,0.4h-2.3V61.8z"
		/>
	<path class="st0" d="M215.9,63.1c-0.8,0-1.5,0.2-2,0.7c-0.7,0.6-1,1.5-1,2.7c0,1.1,0.3,1.9,0.8,2.5c0.6,0.6,1.3,0.9,2.2,0.9
		c0.6,0,1.1-0.1,1.6-0.4c0.5-0.3,0.8-0.6,1.1-1.1c0.3-0.5,0.4-1.1,0.4-2c0-1-0.3-1.8-0.9-2.4C217.5,63.4,216.7,63.1,215.9,63.1z
		 M217.2,68.4c-0.4,0.4-0.8,0.6-1.4,0.6c-0.6,0-1-0.2-1.4-0.6c-0.4-0.4-0.5-1-0.5-1.9c0-0.8,0.2-1.5,0.5-1.9
		c0.4-0.4,0.8-0.6,1.4-0.6c0.5,0,1,0.2,1.4,0.6c0.4,0.4,0.6,1,0.6,1.8C217.8,67.3,217.6,67.9,217.2,68.4z"/>
	<path class="st0" d="M226.1,67l-0.4,1.3l-0.3-1.2l-1-3.8h-1.1l-1,3.8c-0.2,0.8-0.3,1.3-0.3,1.3l-0.4-1.4l-1-3.8h-1.2l2,6.5h1.2
		l1.3-5l0.3,1.1l1,3.9h1.1l2-6.5h-1.1L226.1,67z"/>
	<path class="st0" d="M231.9,63.1c-0.9,0-1.6,0.3-2.2,0.9c-0.6,0.6-0.8,1.5-0.8,2.5c0,1.1,0.3,1.9,0.8,2.5c0.6,0.6,1.3,0.9,2.3,0.9
		c0.8,0,1.4-0.2,1.9-0.6c0.5-0.4,0.8-0.9,1-1.5l-1.1-0.2c-0.2,0.5-0.4,0.8-0.7,1c-0.3,0.2-0.6,0.3-1,0.3c-0.5,0-1-0.2-1.4-0.6
		c-0.4-0.4-0.6-0.9-0.6-1.6h4.9c0-0.1,0-0.2,0-0.3c0-1.1-0.3-1.9-0.8-2.5C233.5,63.4,232.8,63.1,231.9,63.1z M230.1,65.9
		c0-0.6,0.2-1,0.6-1.4c0.3-0.3,0.8-0.5,1.3-0.5c0.6,0,1,0.2,1.4,0.6c0.2,0.3,0.4,0.7,0.4,1.2H230.1z"/>
	<path class="st0" d="M237.9,63.3c-0.2,0.1-0.4,0.5-0.7,0.9v-1h-1v6.5h1.1v-3.4c0-0.5,0.1-0.9,0.2-1.3c0.1-0.3,0.2-0.5,0.4-0.6
		c0.2-0.1,0.4-0.2,0.6-0.2c0.3,0,0.5,0.1,0.8,0.2l0.4-1c-0.4-0.2-0.8-0.3-1.1-0.3C238.4,63.1,238.2,63.2,237.9,63.3z"/>
	<path class="st0" d="M249.2,69.5c0.5-0.2,0.9-0.6,1.2-1c0.3-0.4,0.4-0.9,0.4-1.3c0-0.5-0.1-0.9-0.4-1.3c-0.2-0.4-0.6-0.7-1.2-0.9
		c-0.4-0.2-1-0.4-2-0.6c-1-0.2-1.6-0.4-1.8-0.6c-0.2-0.2-0.3-0.5-0.3-0.8c0-0.4,0.2-0.7,0.5-1c0.3-0.3,0.9-0.4,1.6-0.4
		c0.7,0,1.2,0.1,1.6,0.4c0.4,0.3,0.6,0.7,0.6,1.3l1.1-0.1c0-0.5-0.2-1-0.4-1.4c-0.3-0.4-0.7-0.7-1.2-0.9c-0.5-0.2-1.1-0.3-1.8-0.3
		c-0.6,0-1.2,0.1-1.6,0.3c-0.5,0.2-0.9,0.5-1.1,0.9c-0.3,0.4-0.4,0.8-0.4,1.3c0,0.4,0.1,0.8,0.3,1.1c0.2,0.3,0.5,0.6,1,0.8
		c0.3,0.2,0.9,0.4,1.7,0.6c0.8,0.2,1.4,0.3,1.6,0.4c0.4,0.1,0.6,0.3,0.8,0.5c0.2,0.2,0.2,0.5,0.2,0.7c0,0.3-0.1,0.5-0.3,0.8
		c-0.2,0.2-0.4,0.4-0.8,0.6c-0.3,0.1-0.7,0.2-1.2,0.2c-0.5,0-1-0.1-1.4-0.3c-0.4-0.2-0.7-0.4-0.9-0.7c-0.2-0.3-0.3-0.7-0.4-1.1
		l-1.1,0.1c0,0.6,0.2,1.1,0.5,1.6c0.3,0.5,0.7,0.8,1.3,1.1c0.5,0.2,1.2,0.4,2,0.4C248.1,69.9,248.7,69.8,249.2,69.5z"/>
	<path class="st0" d="M254.2,68.8c-0.2,0-0.3,0-0.4-0.1c-0.1-0.1-0.2-0.1-0.2-0.2c0-0.1-0.1-0.3-0.1-0.6v-3.8h1.1v-0.9h-1.1v-2.3
		l-1.1,0.7v1.6h-0.8v0.9h0.8v3.8c0,0.7,0,1.1,0.1,1.3c0.1,0.2,0.2,0.4,0.5,0.5c0.2,0.1,0.5,0.2,0.9,0.2c0.2,0,0.5,0,0.8-0.1l-0.2-1
		C254.5,68.8,254.3,68.8,254.2,68.8z"/>
	<path class="st0" d="M257.5,63.3c-0.2,0.1-0.5,0.5-0.7,0.9v-1h-1v6.5h1.1v-3.4c0-0.5,0.1-0.9,0.2-1.3c0.1-0.3,0.2-0.5,0.4-0.6
		c0.2-0.1,0.4-0.2,0.6-0.2c0.3,0,0.5,0.1,0.8,0.2l0.4-1c-0.4-0.2-0.8-0.3-1.1-0.3C257.9,63.1,257.7,63.2,257.5,63.3z"/>
	<rect x="260" y="63.2" class="st0" width="1.1" height="6.5"/>
	<rect x="260" y="60.7" class="st0" width="1.1" height="1.3"/>
	<path class="st0" d="M263.9,69.1c0.2,0.2,0.4,0.4,0.7,0.6c0.3,0.2,0.6,0.2,1,0.2c0.5,0,1-0.1,1.4-0.4c0.5-0.3,0.8-0.7,1-1.2
		c0.2-0.5,0.4-1.1,0.4-1.8c0-0.6-0.1-1.2-0.3-1.7c-0.2-0.5-0.5-0.9-1-1.2c-0.4-0.3-0.9-0.4-1.5-0.4c-0.4,0-0.8,0.1-1.1,0.2
		c-0.3,0.2-0.6,0.4-0.8,0.7v-0.9h-1v9h1.1V69.1z M264.3,64.6c0.4-0.4,0.8-0.7,1.2-0.7c0.5,0,0.9,0.2,1.2,0.6c0.3,0.4,0.5,1,0.5,1.9
		c0,0.9-0.2,1.5-0.5,1.9c-0.3,0.4-0.8,0.6-1.3,0.6c-0.5,0-0.9-0.2-1.2-0.6c-0.3-0.4-0.5-1-0.5-1.9C263.8,65.7,264,65,264.3,64.6z"/>
	<circle class="st0" cx="270.4" cy="233.9" r="1"/>
	<path class="st0" d="M263.7,226.9l1.3,1.3c2.8-2.8,8.3-2.2,10.9,0l1.2-1.4C273.8,224,267.3,223.4,263.7,226.9z"/>
	<path class="st0" d="M265.8,229l1.3,1.3c1.7-1.7,5.1-1.4,6.7,0l1.2-1.4C272.7,226.9,268.3,226.5,265.8,229z"/>
	<path class="st0" d="M272.8,230.9c-1.2-1-3.5-1.2-4.8,0l1.3,1.3c0.6-0.6,1.8-0.4,2.3,0L272.8,230.9z"/>
	<polygon class="st0" points="271.6,251.7 266,260.7 271,260.3 268.7,267.6 274.6,257.9 269.5,258.4 	"/>
</g>
</svg>
