<?xml version="1.0" encoding="utf-8"?>
<!-- Generator: Adobe Illustrator 22.1.0, SVG Export Plug-In . SVG Version: 6.00 Build 0)  -->
<svg version="1.1" id="Layer_1" xmlns="http://www.w3.org/2000/svg" xmlns:xlink="http://www.w3.org/1999/xlink" x="0px" y="0px"
	 viewBox="0 0 512 512" style="enable-background:new 0 0 512 512;" xml:space="preserve">
<style type="text/css">
	.st0{stroke:#000000;stroke-width:0.5;stroke-miterlimit:10;}
</style>
<g>
	<path d="M372.5,255.6c0,66.5-1.6,132.8-1.6,199.3c0,9.5-3.1,13.1-12.6,14.6c-9,1.4-18.1,3.2-27.2,3.8c-3.4,0.2-7.1-1.9-10.4-3.5
		c-3.1-1.4-5.2-2.3-8.2,0.7c-3.9,3.8-8.8,2.8-13.4,0.4c-27.5-14.5-55.1-29-82.6-43.4c-24-12.6-48-25.3-72.1-37.7
		c-6.9-3.5-9.7-8.5-9.3-16c1.8-38.6,3.6-77.2,5.4-115.8c1.9-39.9,3.7-79.9,5.6-119.8c0.8-17.3,1.5-34.6,2.4-51.9
		c0.6-11.5,3.3-14.2,14.8-16.3c54.2-10,108.3-20.3,162.5-29.9c8.5-1.5,17.5,0.2,26.3,0.5c3,0.1,6,0.5,9,0.6
		c8.6,0.3,13.1,4.9,13,13.5C373.6,121.7,373,188.6,372.5,255.6C371.9,255.5,373,255.6,372.5,255.6z M244.8,64.2
		c-1.3,22.7-2.6,44.8-3.7,67c-2.1,40.1-4.2,80.2-6.3,120.3c-3,55.2-5.9,110.5-9,165.7c-0.2,3.6,1,5.3,4,6.9
		c24.1,12.5,48.1,25.2,72.1,37.8c5.4,2.8,6,2.6,6.4-3.8c1.3-20.1,2.5-40.2,3.7-60.4c2.1-35.8,4.2-71.5,6.4-107.3
		c2.5-41.9,5.1-83.8,7.6-125.7c2.2-36.3,4.3-72.5,6.5-108.8c0.4-6.6-0.7-7.8-7.3-6.7c-6.7,1.2-13.4,2.5-20.1,3.8
		C285.2,56.7,265.2,60.4,244.8,64.2z M218.7,418c6.4-117.9,12.7-234.8,19-352c-1.4,0-2.3-0.1-3.1,0c-24,4.5-48.1,9-72.1,13.4
		c-3.6,0.7-4.5,2.4-4.7,5.7c-0.6,15.1-1.3,30.3-2.1,45.4c-3.8,81-7.6,162.1-11.5,243.1c-0.2,3.8,1.1,6.1,4.6,7.8
		c14.2,7.3,28.3,14.8,42.5,22.2C200.2,408.4,209,413,218.7,418z M335.1,464.4c7.8-1.1,14.8-2.4,21.9-3c4.1-0.4,5.1-2,5.1-5.9
		c0.7-133,1.6-266,2.4-398.9c0-1,0.2-2.1-0.1-3c-0.3-0.9-1.2-2.3-1.9-2.4c-6.1-0.5-12.1-0.8-18.6-1.2
		C341,188.3,338.1,325.9,335.1,464.4z M325.8,461.3c1.4-65.9,2.8-131.5,4.2-197c-1.6,15.1-2.4,30.2-3.4,45.4
		c-2.9,47.2-5.8,94.4-8.6,141.6C317.7,458.7,317.8,458.7,325.8,461.3z"/>
</g>
<g>
	<path d="M351.5,448.3l5.2,1.5v2l-16.5-5v-2.3l16.5-5v2l-5.2,1.6V448.3z M349.9,443.5l-4.8,1.4c-1.1,0.3-2.1,0.5-3,0.8l0,0
		c1,0.2,2,0.5,3,0.7l4.8,1.4V443.5z"/>
	<path d="M359.2,425.4c-0.6,2-1.3,3.9-1.9,5.7c-0.1,0.3-0.2,0.6-0.2,0.9c-0.1,3.5-3,6.5-8.4,6.5c-5.3,0-8.7-2.9-8.7-6.9
		s3.5-6.6,8.4-6.6c4.2,0,7,1.8,7.9,4.2h0.1c0.4-1.5,0.8-3.1,1.1-4.3L359.2,425.4z M355.3,431.8c0-3-3.1-4.7-6.9-4.7
		c-3.3,0-6.7,1.5-6.7,4.7s3.3,4.8,6.9,4.8C352.1,436.5,355.3,434.8,355.3,431.8L355.3,431.8z"/>
	<path d="M351.5,420.4l5.2,1.5v2l-16.5-5v-2.3l16.5-5v2l-5.2,1.6V420.4z M349.9,415.6l-4.8,1.4c-1.1,0.3-2.1,0.5-3,0.8l0,0
		c1,0.2,2,0.5,3,0.7l4.8,1.4V415.6z"/>
	<path d="M340.4,409.4c-0.2-1-0.3-2.3-0.3-3.7c0-2,0.4-3.4,1.3-4.3c0.7-0.7,1.9-1.2,3.1-1.2c2.2,0,3.6,1.2,4.2,2.8h0.1
		c0.4-1.1,1.6-1.8,3.3-2.2c2.3-0.5,3.9-0.8,4.5-1.1v2c-0.5,0.2-1.9,0.6-3.9,1c-2.3,0.4-3.1,1.2-3.2,3v1.8h7.2v1.9L340.4,409.4
		L340.4,409.4z M348,407.5v-2c0-2-1.3-3.3-3.1-3.3c-2.1,0-3.1,1.4-3.1,3.4c0,0.9,0.1,1.6,0.2,1.9H348z"/>
	<path d="M351.5,395.1l5.2,1.5v2l-16.5-5v-2.3l16.5-5v2l-5.2,1.6V395.1z M349.9,390.2l-4.8,1.4c-1.1,0.3-2.1,0.5-3,0.8l0,0
		c1,0.2,2,0.5,3,0.7l4.8,1.4V390.2z"/>
</g>
<g>
	<path class="st0" d="M455.7,87.1c0-2.5-0.4-4.7-1.2-6.5c-0.8-1.8-1.8-3.4-3.2-4.6c-1.3-1.2-2.9-2.1-4.7-2.7
		c-1.8-0.6-3.8-0.9-5.9-0.9c-1.8,0-3.6,0.2-5.3,0.7c-1.7,0.5-3.4,1.2-5.1,2c-1.6,0.9-3.2,1.9-4.8,3.1c-1.5,1.2-3,2.5-4.3,4v-10
		c2.6-2.5,5.5-4.5,8.8-5.8c3.2-1.3,7.2-2,11.8-2c3.3,0,6.4,0.5,9.2,1.4s5.3,2.4,7.4,4.2c2.1,1.9,3.7,4.1,4.9,6.9s1.8,5.8,1.8,9.3
		c0,3.2-0.4,6.1-1.1,8.7s-1.9,5.1-3.3,7.4c-1.5,2.3-3.4,4.5-5.6,6.6c-2.3,2.1-4.9,4.3-8,6.5c-3.8,2.7-7,5-9.4,7
		c-2.5,1.9-4.4,3.7-5.9,5.4c-1.5,1.7-2.5,3.4-3.1,5c-0.6,1.7-0.9,3.6-0.9,5.8h40.4v8.3h-50.1v-4c0-3.5,0.4-6.5,1.1-9.2
		c0.8-2.6,2-5.2,3.7-7.5c1.7-2.4,4-4.8,6.8-7.1c2.8-2.4,6.3-5.1,10.3-8c2.9-2.1,5.4-4.1,7.4-6.1s3.6-3.9,4.8-5.8
		c1.2-1.9,2.1-3.9,2.6-5.9S455.7,89.3,455.7,87.1z"/>
	<path class="st0" d="M469.7,206.1c0,6.8-0.6,12.8-1.8,18.1c-1.2,5.2-3,9.7-5.3,13.3c-2.3,3.6-5.2,6.3-8.6,8.2
		c-3.4,1.9-7.2,2.8-11.5,2.8c-4.1,0-7.7-0.9-10.9-2.7c-3.2-1.8-5.9-4.4-8.1-7.8c-2.2-3.4-3.9-7.7-5-12.7c-1.1-5-1.7-10.7-1.7-17.2
		c0-7.1,0.6-13.4,1.8-18.8s2.9-10,5.2-13.7c2.3-3.7,5.2-6.5,8.6-8.3c3.4-1.9,7.3-2.8,11.8-2.8C461.2,164.5,469.7,178.3,469.7,206.1z
		 M460.2,207c0-23.1-5.5-34.7-16.5-34.7c-11.6,0-17.4,11.8-17.4,35.3c0,21.9,5.7,32.9,17,32.9C454.6,240.5,460.2,229.4,460.2,207z"
		/>
	<path class="st0" d="M452.9,347h-9.3v-70.2c-0.7,0.7-1.8,1.5-3.1,2.5c-1.4,0.9-2.9,1.8-4.6,2.7c-1.7,0.9-3.5,1.8-5.4,2.5
		c-1.9,0.8-3.8,1.4-5.6,1.9v-9.4c2-0.6,4.2-1.3,6.5-2.3c2.3-1,4.5-2,6.7-3.2s4.3-2.4,6.3-3.7c2-1.3,3.7-2.6,5.1-3.8h3.5V347z"/>
	<path class="st0" d="M417,424.4c0-2.2,0.3-4.3,1-6.5c0.7-2.2,1.7-4.2,2.9-6.1c1.3-1.9,2.8-3.6,4.7-5.2c1.9-1.5,4-2.8,6.4-3.7
		c-3.5-2-6.3-4.5-8.4-7.6c-2.1-3.1-3.1-6.5-3.1-10.2c0-3,0.6-5.7,1.7-8.3c1.2-2.5,2.7-4.7,4.8-6.6c2-1.8,4.5-3.3,7.3-4.3
		c2.8-1,5.8-1.6,9.1-1.6c3.3,0,6.3,0.5,9.1,1.6c2.8,1.1,5.2,2.5,7.3,4.4c2,1.9,3.6,4,4.8,6.6c1.1,2.5,1.7,5.3,1.7,8.2
		c0,3.7-1,7.1-3.1,10.2c-2.1,3.1-4.8,5.6-8.3,7.6c2.3,0.9,4.4,2.1,6.3,3.7c1.8,1.5,3.4,3.3,4.7,5.2c1.3,1.9,2.2,3.9,2.9,6.1
		c0.7,2.2,1,4.3,1,6.5c0,3.5-0.6,6.8-1.9,9.7c-1.3,2.9-3.1,5.5-5.4,7.6s-5.1,3.7-8.3,4.9s-6.8,1.8-10.7,1.8c-3.9,0-7.4-0.6-10.6-1.8
		c-3.2-1.2-6-2.8-8.3-4.9c-2.3-2.1-4.2-4.6-5.5-7.6S417,427.9,417,424.4z M427.1,423.6c0,2.5,0.4,4.8,1.2,6.9c0.8,2,1.9,3.8,3.3,5.2
		c1.4,1.4,3.1,2.5,5.2,3.3c2,0.8,4.3,1.2,6.7,1.2c2.4,0,4.6-0.4,6.6-1.2c2-0.8,3.7-1.9,5.2-3.3c1.5-1.4,2.6-3.2,3.4-5.2
		c0.8-2,1.2-4.3,1.2-6.8c0-2.3-0.4-4.4-1.2-6.4c-0.8-2-1.9-3.7-3.3-5.2c-1.4-1.5-3.2-2.7-5.2-3.6c-2-0.9-4.2-1.3-6.7-1.3
		c-2.3,0-4.5,0.4-6.5,1.2c-2,0.8-3.7,1.9-5.2,3.4c-1.5,1.5-2.6,3.2-3.4,5.2C427.5,419,427.1,421.2,427.1,423.6z M430,385.9
		c0,1.9,0.3,3.7,1,5.4c0.7,1.6,1.7,3.1,2.9,4.3c1.2,1.2,2.7,2.2,4.3,2.9c1.6,0.7,3.4,1,5.2,1c1.8,0,3.6-0.4,5.2-1.1
		c1.6-0.7,3.1-1.7,4.3-2.9c1.2-1.2,2.2-2.7,2.9-4.3c0.7-1.6,1.1-3.4,1.1-5.3c0-2-0.3-3.8-1-5.4c-0.7-1.7-1.7-3.1-2.9-4.3
		c-1.2-1.2-2.6-2.2-4.3-2.9c-1.6-0.7-3.4-1-5.3-1c-2,0-3.8,0.4-5.5,1.1c-1.6,0.7-3.1,1.7-4.2,2.9c-1.2,1.2-2.1,2.7-2.7,4.3
		C430.3,382.3,430,384,430,385.9z"/>
</g>
</svg>
