<?xml version="1.0" encoding="utf-8"?>
<!-- Generator: Adobe Illustrator 23.0.5, SVG Export Plug-In . SVG Version: 6.00 Build 0)  -->
<svg version="1.1" id="Слой_1" xmlns="http://www.w3.org/2000/svg" xmlns:xlink="http://www.w3.org/1999/xlink" x="0px" y="0px"
	 viewBox="0 0 725.7 725.7" style="enable-background:new 0 0 725.7 725.7;" xml:space="preserve">
<style type="text/css">
	.st0{fill:none;stroke:#000000;stroke-width:10;stroke-miterlimit:10;}
	.st1{fill:none;stroke:#000000;stroke-width:5;stroke-miterlimit:10;}
	.st2{fill:none;stroke:#000000;stroke-miterlimit:10;}
	.st3{stroke:#000000;stroke-width:5;stroke-miterlimit:10;}
</style>
<g>
	<g>
		<path class="st0" d="M288.4,159.2c6.1,16.7,38.2,29.4,77,29.4c36.4,0,67-11.2,75.6-26.4"/>
		<path class="st0" d="M439.8,142.8c2.4,3.4,3.7,6.9,3.7,10.7c0,3-0.1,4.5-1.7,7.3c5.1,5.2,7.9,12.4,8.1,18.5
			c1.1,23-37.4,40.6-84.8,40.6c-47.4,0-85.8-18.2-85.8-40.6c0-7.3,2.1-14.1,9.2-20c-0.7-1.9-1-3.8-1-5.7c0-3.8,1.4-7.5,3.9-10.9
			C153.4,157.4,50.9,213.6,50.9,280.7c0,78.4,140.3,142,313.3,142s313.3-63.6,313.3-142C677.6,214,576.3,158.1,439.8,142.8z"/>
	</g>
	<path class="st0" d="M439.8,142.8c-10-14.2-39.5-24.5-74.4-24.5c-34.6,0-63.9,10.1-74.2,24.2"/>
</g>
<line class="st0" x1="364.4" y1="188.6" x2="364.6" y2="218.6"/>
<path class="st0" d="M417.9,123.1c171.9,12.1,303.8,81.9,303.8,166.1c0,92.8-159.7,168-356.8,168S8.2,382,8.2,289.3
	c0-85.8,136.7-156.6,313.1-166.7"/>
<path class="st0" d="M721,392.6c0,92.8-159.7,168-356.8,168S7.5,485.3,7.5,392.6"/>
<path class="st0" d="M417.2,226.4"/>
<line class="st0" x1="321.2" y1="122.5" x2="345.9" y2="119.4"/>
<line class="st0" x1="417.9" y1="123.1" x2="395.1" y2="121"/>
<line class="st0" x1="8.2" y1="289.3" x2="7.5" y2="392.6"/>
<line class="st0" x1="721.7" y1="289.3" x2="721" y2="392.6"/>
<path class="st1" d="M368.4,401.2H361c-6.2,0-13.6-5-13.6-11.2l-1.2-17.4c0-6.2,6.2-11.2,12.4-11.2h12.1c6.2,0,11.2,5,12.4,11.2
	L382,390C380.8,396.2,374.6,401.2,368.4,401.2z"/>
<path class="st1" d="M370.3,374.5c0,3.2-2.3,4.6-5.6,4.6c-3.2,0-6.1-1.4-6.1-4.6c0-3.2,2.9-4.5,6.1-4.5
	C367.9,370,370.3,371.3,370.3,374.5z"/>
<path class="st1" d="M370.1,390.5c0,3.2-1.9,4.4-5.2,4.4c-3.2,0-6.5-1.2-6.5-4.4s2.6-4.1,5.9-4.1
	C367.5,386.4,370.1,387.3,370.1,390.5z"/>
<path class="st0" d="M404.2,536.3h-80.3c-12.4,0-22.5-10.1-22.5-22.5v-7.7c0-12.4,10.1-22.5,22.5-22.5h80.3
	c12.4,0,22.5,10.1,22.5,22.5v7.7C426.7,526.1,416.5,536.3,404.2,536.3z"/>
<line class="st0" x1="8.2" y1="269.1" x2="33" y2="269.1"/>
<line class="st0" x1="31.8" y1="280.7" x2="50.9" y2="280.7"/>
<line class="st0" x1="716.6" y1="270.1" x2="697.5" y2="270.1"/>
<line class="st0" x1="700.2" y1="281.4" x2="681.1" y2="281.4"/>
<line class="st0" x1="136.9" y1="540.4" x2="135" y2="521.3"/>
<line class="st0" x1="41.3" y1="496.5" x2="61.2" y2="481.3"/>
<line class="st2" x1="134.6" y1="540" x2="141" y2="580.2"/>
<line class="st2" x1="143.7" y1="579.4" x2="135.6" y2="538.6"/>
<line class="st2" x1="146" y1="578.2" x2="136.8" y2="538.9"/>
<line class="st2" x1="148" y1="576.5" x2="137.8" y2="538.2"/>
<line class="st2" x1="149.7" y1="575.8" x2="139.8" y2="539.6"/>
<path class="st2" d="M41.3,494.4c0,1-17.6,7.6-40.2,2"/>
<path class="st2" d="M41.1,493.3c0,1-17.3,6.9-40,1.3"/>
<path class="st2" d="M41.7,495.3c0,1-17.9,8.8-40.6,3.2"/>
<path class="st2" d="M43.1,497.6c0,1-19.3,10.3-42,4.7"/>
<path class="st2" d="M42.8,496.1c0,1-19,10-41.7,4.5"/>
<path class="st1" d="M426.7,128.6c155.6,13.4,273.5,77.3,273.5,154.2c0,86.6-149.6,156.8-334.2,156.8S31.8,369.3,31.8,282.8
	c0-76.8,117.8-140.7,273.2-154.1"/>
<path d="M349.8,138.6c-0.2,0.3-0.1,14.2,0.2,14.3c0.1,0.1,1.3-0.2,2.8-0.6l2.6-0.8l-0.1-4.3c-0.1-5.1-0.3-4.9,3.5-3.7
	c6.9,2.2,5.7,2.1,11,0.5c2.3-0.7,4.3-1.3,4.4-1.3c0.3,0,0.4,0.1,0.3,1.8c-0.1,1.3,0,1.4,1.4,0.9c0.5-0.2,1.6-0.5,2.5-0.8l1.6-0.5
	v-2.9v-2.9l-2.7,0c-2.1,0-3,0.1-4.4,0.5c-9.1,2.7-6.9,2.6-14,0.6C355.1,138.4,350.4,137.9,349.8,138.6"/>
<path d="M377.7,147.9c-1.2,0.3-2.3,0.7-2.6,0.8c-0.4,0.1-0.5,0.7-0.6,2.5c-0.2,2.7-0.8,3.8-2.7,5.2c-4.2,2.9-11.8,2.5-14.7-0.9
	c-1-1.1-1-1.1-3.5-0.4c-2.6,0.8-2.5,0.7-1.8,1.8c4.3,6,16.9,7.1,23.9,2.2c3.3-2.3,4.3-4.6,4.2-9l-0.1-2.8L377.7,147.9"/>
<ellipse class="st3" cx="362.6" cy="326.5" rx="18.4" ry="10.5"/>
<line class="st1" x1="279.2" y1="179.2" x2="139.6" y2="179.2"/>
<line class="st1" x1="449.9" y1="179.2" x2="583.5" y2="179.2"/>
</svg>
