<?xml version="1.0" encoding="utf-8"?>
<!-- Generator: Adobe Illustrator 22.1.0, SVG Export Plug-In . SVG Version: 6.00 Build 0)  -->
<svg version="1.1" baseProfile="tiny" id="Layer_1" xmlns="http://www.w3.org/2000/svg" xmlns:xlink="http://www.w3.org/1999/xlink"
	 x="0px" y="0px" viewBox="0 0 512 512" xml:space="preserve">
<g>
	<path d="M367.6,85.6c14.4,1.9,27.9,3.7,41.5,5.3c10.5,1.3,16.1,7.3,15.9,18c-0.4,26-0.9,52-1.4,78c-0.2,9.7-0.3,19.3-0.6,29
		c-0.1,5.1-2,7-7,7c-6.5,0-9.6,2.4-9.8,9.3c-0.5,13.1-0.6,26.3-0.6,39.5c0,4.4,4.2,7.9,9,8.3c5.8,0.4,7.2,1.9,7.1,7.8
		c-0.6,30.8-1.1,61.6-1.8,92.5c-0.2,9.6-5.1,15.1-14.7,16.3c-13.1,1.5-26.1,2.7-39.9,4.1c-0.1,1.8-0.3,3.7-0.3,5.6
		c-0.2,28.7-0.3,57.3-0.5,86c-0.1,9.1-4.5,14-13.6,15.3c-9.1,1.3-18.2,2.5-27.1,4.2c-8,1.5-14.7-1.5-21.3-5.2
		c-2.8-1.5-4.9-2.2-7.9,0.4c-4.2,3.6-8.9,2.2-13.5-0.2c-25-13.2-50-26.4-75.1-39.6c-35.3-18.6-70.6-37.3-106.1-55.7
		c-7.2-3.7-10.2-8.9-9.9-16.7c1.8-38.8,3.6-77.6,5.4-116.3c1.5-32.6,3-65.2,4.6-97.9c2-42.3,3.9-84.5,6-126.8
		c0.4-8.3,4.1-12.2,12.4-13.7c65.1-12.2,130.2-24.5,195.3-36.3c7.4-1.3,15.3-0.3,22.9,0c6.2,0.2,12.3,0.8,18.5,1.2
		c7.4,0.5,13,6.2,12.9,13.8c-0.1,20.3-0.2,40.7-0.4,61C367.6,81.5,367.6,83.4,367.6,85.6z M305.5,255.8c2.5-42.2,5-84.5,7.6-126.7
		c2.2-36.1,4.3-72.2,6.5-108.3c0.5-7.8-0.6-8.9-8.3-7.4c-63.3,11.8-126.6,23.7-190,35.4c-4.3,0.8-6,2.4-6.2,6.7
		c-2.3,51.6-4.7,103.2-7.1,154.8c-1.5,32.6-3.1,65.2-4.6,97.9c-1.4,29-2.7,57.9-4,86.9c-0.2,3.4,0.7,5.9,4.1,7.7
		c60.4,31.7,120.8,63.5,181.2,95.3c4.9,2.6,6.1,1.9,6.4-3.6c2.7-43.7,5.3-87.5,7.9-131.2C301.2,327.3,303.3,291.5,305.5,255.8z
		 M332.9,15c-3.5,162.3-6.9,324.1-10.4,486.5c9.1-1.3,17.3-2.7,25.5-3.4c4.9-0.4,6.2-2.2,6.2-7.1c0.7-136.1,1.5-272.2,2.4-408.3
		c0.1-20.5,0.2-41,0.4-61.5c0-2.4,0.3-4.8-3.3-4.9C347.1,15.9,340.4,15.4,332.9,15z M410.1,310.4c-1.3-0.1-2.5-0.3-3.6-0.3
		c-8.7,0.3-17.3,0.6-26,0.8c-4,0.1-6.4-1.8-6.5-5.9c-0.1-4.1,2.3-6,6.3-6.1c2.8,0,5.7-0.1,8.5-0.2c7.3-0.3,14.5-0.6,21.7-0.9
		c0-3,0-5.3,0-7.3c-8.3-3.7-15.4-8.2-15.6-17.9c-0.3-13.2-0.1-26.3,0.4-39.5c0.4-10,5.1-20.4,16.9-22.3c0-5.2,0-10.5,0-15.8
		c-1.5-0.1-2.6-0.2-3.8-0.2c-8.8,0-17.7,0-26.5,0c-3.8,0-5.9-2.1-6-5.9c0-3.8,2-5.9,5.8-6c2.2-0.1,4.3,0,6.5,0c8.1,0,16.2,0,24.4,0
		c0-5,0-9.3,0-14c-1.8,0-3.5,0-5.1,0c-8.5,0-17,0-25.5,0c-3.8,0-6-1.9-6.1-5.7c-0.1-4,2.1-6.2,6.1-6.2c1.7,0,3.3,0,5,0
		c8.6,0,17.2,0,26.1,0c0-4.6,0-8.5,0-13c-1.8,0-3.4,0-5,0c-8.7,0-17.3,0.3-26-0.2c-2.1-0.1-5.2-2.3-5.7-4.1c-0.6-1.9,1-4.9,2.5-6.7
		c0.8-1,3.4-0.9,5.2-0.9c9.8-0.1,19.5,0,29.5,0c0-5,0-9.4,0-14c-9.7,0-19,0-28.3,0c-5.1,0-7.4-2-7.3-6.1c0.1-4,2.4-5.8,7.5-5.9
		c3.3,0,6.7,0,10,0c6,0,12,0,18.5,0c-2.9-4.5-37.5-10.2-46.8-8.1c0,2.2,0,4.5,0,6.8c-0.6,82.7-1.1,165.3-1.7,248
		c-0.1,10.5,0,21-0.1,31.5c-0.1,3.9,1.3,5.3,5.3,4.9c11.1-1.2,22.2-2,33.3-3.3c1.9-0.2,3.6-2.2,5.3-3.4c-0.3-0.6-0.6-1.1-0.9-1.7
		c-8.9,1-17.8,2.1-26.7,3.1c-4.9,0.5-7.7-1.4-7.9-5.4c-0.2-4.4,2.3-6.1,6.5-6.5c7-0.7,13.9-1.5,20.8-2.5c8.6-1.2,8.6-1.2,8-10
		c0-0.3-0.3-0.6-0.7-1.1c-1.3,0.1-2.8,0.1-4.3,0.2c-8.2,0.5-16.3,1-24.5,1.3c-3.8,0.1-5.8-2.2-5.9-5.9c-0.1-3.6,1.8-5.6,5.4-6
		c1.2-0.1,2.3-0.1,3.5-0.2c8.9-0.6,17.8-1.2,26.8-1.7c0-4.3,0-7.9,0-11.6c-1.7,0-3.2-0.1-4.6,0c-8.2,0.4-16.3,1.1-24.5,1.4
		c-4.8,0.2-8.2-3.6-6.3-7.6c1-2,4-3.9,6.4-4.2c9.7-1,19.4-1.4,29.4-2C410.1,317.8,410.1,314.2,410.1,310.4z M311.7,498.5
		c2-94.8,4-188.5,6.1-283.1c-0.5,5.5-1.1,10-1.4,14.6c-2.1,35.2-4.2,70.5-6.3,105.7c-1.9,31.2-3.8,62.5-5.6,93.7
		c-1.2,19.8-2.3,39.6-3.4,59.4c-0.1,1.7,0.5,4.2,1.7,5.1C305.1,495.7,308.1,496.7,311.7,498.5z"/>
</g>
<g>
	<path d="M341.6,483.2l5.9,1.5v2l-18.6-5v-2.3l18.6-5v2l-5.9,1.6V483.2z M339.7,478.3l-5.4,1.4c-1.2,0.3-2.3,0.5-3.4,0.8v0
		c1.1,0.2,2.2,0.5,3.4,0.7l5.4,1.4V478.3z"/>
	<path d="M350.2,460.3c-0.7,2-1.4,3.9-2.2,5.7c-0.1,0.3-0.3,0.6-0.3,0.9c-0.2,3.5-3.4,6.5-9.4,6.5c-6,0-9.8-2.9-9.8-6.9
		c0-4,3.9-6.6,9.4-6.6c4.8,0,7.8,1.8,8.9,4.2h0.1c0.5-1.5,0.9-3.1,1.2-4.3L350.2,460.3z M345.8,466.6c0-3-3.5-4.7-7.7-4.7
		c-3.7,0-7.6,1.5-7.6,4.7c0,3.2,3.8,4.8,7.8,4.8C342.2,471.3,345.8,469.6,345.8,466.6L345.8,466.6z"/>
	<path d="M341.6,455.3l5.9,1.5v2l-18.6-5v-2.3l18.6-5v2l-5.9,1.6V455.3z M339.7,450.4l-5.4,1.4c-1.2,0.3-2.3,0.5-3.4,0.8v0
		c1.1,0.2,2.2,0.5,3.4,0.7l5.4,1.4V450.4z"/>
	<path d="M329.1,444.2c-0.2-1-0.4-2.3-0.4-3.7c0-2,0.5-3.4,1.5-4.3c0.8-0.7,2.1-1.2,3.5-1.2c2.5,0,4.1,1.2,4.8,2.8h0.1
		c0.5-1.1,1.8-1.8,3.8-2.2c2.6-0.5,4.4-0.8,5.1-1.1v2c-0.6,0.2-2.1,0.6-4.4,1c-2.6,0.4-3.5,1.2-3.6,3v1.8h8.1v1.9H329.1z
		 M337.5,442.3v-2c0-2-1.4-3.3-3.5-3.3c-2.4,0-3.5,1.4-3.5,3.4c0,0.9,0.1,1.6,0.2,1.9H337.5z"/>
	<path d="M341.6,429.9l5.9,1.5v2l-18.6-5v-2.3l18.6-5v2l-5.9,1.6V429.9z M339.7,425.1l-5.4,1.4c-1.2,0.3-2.3,0.5-3.4,0.8v0
		c1.1,0.2,2.2,0.5,3.4,0.7l5.4,1.4V425.1z"/>
</g>
</svg>
