<?xml version="1.0" encoding="utf-8"?>
<!-- Generator: Adobe Illustrator 22.1.0, SVG Export Plug-In . SVG Version: 6.00 Build 0)  -->
<svg version="1.1" baseProfile="tiny" id="Layer_1" xmlns="http://www.w3.org/2000/svg" xmlns:xlink="http://www.w3.org/1999/xlink"
	 x="0px" y="0px" viewBox="0 0 512 512" xml:space="preserve">
<g>
	<path d="M252,1c2.8,0.8,5.7,1.6,8.5,2.5c21.4,7.2,34.5,25.8,34.5,49.1c0,136.2,0,272.5,0,408.7c0,3.1-0.2,6.3-0.7,9.4
		c-3.6,21.5-18.6,36.9-40,41.3c-0.8,0.2-1.5,0.6-2.3,0.9c-60.7,0-121.3,0-182,0c-0.6-0.3-1.1-0.7-1.8-0.8
		c-25.5-5.5-41.2-24.8-41.2-50.8c0-16,0-32,0-48c0-120.6,0-241.1,0-361.7c0-22.1,13-40.5,33.5-47.8C63.7,2.8,66.8,2,70,1
		C130.7,1,191.3,1,252,1z M285,257.4c0-67.8,0-135.7,0-203.5c0-26.1-16.7-42.9-42.7-42.9c-54.3,0-108.7,0-163,0C54,11,37,28,37,53.4
		c0,135.7,0,271.3,0,407c0,25.8,16.8,42.6,42.5,42.7c54.3,0,108.7,0,163,0c25.7,0,42.5-16.9,42.5-42.6
		C285,392.7,285,325.1,285,257.4z"/>
	<path d="M349,256.4c0-36.8,0-73.7,0-110.5c0-26.1,16.7-42.9,42.7-42.9c17.2,0,34.3,0,51.5,0c24.7,0.1,41.8,17.1,41.8,41.8
		c0,74.5,0,149,0,223.5c0,24.4-17.1,41.6-41.4,41.7c-17.8,0-35.7,0-53.5,0c-23.7-0.1-41-17.3-41-41.1
		C348.9,331.4,349,293.9,349,256.4z M475,256.8c0-37.3,0-74.6,0-111.9c0-19.2-12.7-31.8-32-31.8c-17.5,0-35,0-52.5,0
		c-18.6,0-31.5,12.8-31.5,31.3c0,74.8,0,149.6,0,224.4c0,18.5,12.9,31.3,31.5,31.3c17.3,0,34.6,0,52,0c20,0,32.5-12.4,32.5-32.3
		C475,330.7,475,293.7,475,256.8z"/>
	<path d="M161.2,401c5.4,0,7.9,2.8,7.8,8.4c-0.1,5.1-2.8,7.6-8.2,7.6c-5.3,0-7.9-2.8-7.8-8.4C153.1,403.5,155.8,401,161.2,401z"/>
</g>
</svg>
