<?xml version="1.0" encoding="utf-8"?>
<!-- Generator: Adobe Illustrator 21.0.0, SVG Export Plug-In . SVG Version: 6.00 Build 0)  -->
<svg version="1.1" id="Layer_1" xmlns="http://www.w3.org/2000/svg" xmlns:xlink="http://www.w3.org/1999/xlink" x="0px" y="0px"
	 viewBox="0 0 803.4 1417.1" style="enable-background:new 0 0 803.4 1417.1;" xml:space="preserve">
<g>
	<path d="M604.1,987.6c-109.2,6.3-219.8,3.8-329.1,2.3c-9.2-0.1-80-6.1-80.4,2.3c-0.6,9.8,68.7,7.4,77.5,7.6
		c52.8,0.8,105.7,0.5,158.5,0.5c32,0,63.9,0,95.9-0.5c16.6-0.2,33.2-0.5,49.9-1.1c7.3-0.3,14.8-0.2,22.1-0.9c2.6-0.3,5.7,0.6,8-1.2
		C609.8,994.1,610.7,987.3,604.1,987.6z"/>
	<path d="M737.9,580.1c79.7-112.4,87.5-262.6,18.6-382.3C667,42.3,475.3-29.4,303.3,11.2C134.2,51.1-2.1,200,0,378.2
		C0.8,440.3,18,501.5,49.7,554.9c15.8,26.6,34.5,51.5,50.3,78.2c23.4,39.5,43.9,81.3,55.8,125.8c13.5,50.6,10.4,102.9,10.4,154.8
		c0,39.5-8.2,90.6,14.2,125.8c11.2,17.5,30.2,31.4,45.8,44.9c1.8,55.4,2.6,110.6,8.6,165.8c1.8,16.1,3.3,33.8,7.6,49.6
		c5,18.4,29,34.6,42.9,46.9c-0.4,0-0.7-0.1-1.1-0.1c14.4,12,28.6,24.1,43.2,35.8c12.7,10.1,27.4,25.3,42.5,31.1
		c10,3.9,23.7,3.8,34.3,3.7c10.3-0.1,23-0.5,32.7-4c15.5-5.5,30.3-21.7,42.9-32.1c14.6-12.1,28.8-24.7,43-37.2
		c-0.4,0-0.7,0.1-1.1,0.1c17-15.7,39.3-32.1,43-55.7c4.1-26.3,6.6-52.6,8-79.2c2.2-41.6,3.4-83.2,4.9-124.8
		c18.2-15.7,40.9-32,50.9-54.5c5.7-12.7,8.7-26.8,9.1-40.7c0.6-24.5,0-49,0-73.5c0-62-2.5-122,18.1-181.7
		C674.7,679.2,704.6,627.2,737.9,580.1z M402,19.6c198.8,0,386.5,154.7,382,362c-0.9,39.7-8.8,79.1-23.5,115.9
		c-95.9,7.1-192.9,5.9-288.9,6.7c-92.6,0.8-185.1-0.1-277.7-1.9c-50.1-0.9-100.4-1.2-150.3-4.9c-30.4-76.2-31.4-162.4-2.6-239.3
		c33.9-90.7,106.6-163.4,194.4-203C287.5,31.6,344.7,19.6,402,19.6z M348.7,1368.7C348.7,1368.7,348.7,1368.7,348.7,1368.7
		C348.7,1368.7,348.7,1368.7,348.7,1368.7C348.7,1368.7,348.7,1368.7,348.7,1368.7z M349.2,1369.4c0-0.2,0-0.4,0-0.6
		c0.1,0.3,0.2,0.6,0.3,0.8C349.4,1369.6,349.3,1369.5,349.2,1369.4z M457.7,1369.4c-8.7,7.2-19.3,18.9-30.2,21.5
		c-7.3,1.8-16.2,1.7-23.8,1.7c-7.2,0-18,0.9-24.9-1.5c-10.1-3.5-20.6-14.8-29.1-21.4c0.4,0,0.8,0.1,1.2,0.1c0-0.3,0-0.7-0.1-1
		c0,0,0,0,0,0c0.1,0.3,0.2,0.7,0.4,1c1,0.1,2,0.1,2.9,0.2c0.1-0.3,0.2-0.7,0.2-1c0,0.4,0,0.7,0.1,1.1c0.4,0,0.8,0,1.3,0
		c0-0.3,0-0.7-0.1-1c0,0,0,0,0,0c0.1,0.3,0.3,0.7,0.4,1c32,1.7,64.3,1.3,96.2-1.1c0-0.3,0-0.7-0.1-1c0.1,0.3,0.2,0.6,0.4,1
		c0.5,0,1-0.1,1.5-0.1c0-0.3,0-0.7,0.1-1c0.1,0.3,0.2,0.7,0.2,1c0.5,0,1-0.1,1.5-0.1c0-0.3,0-0.7,0-1c0.2,0.3,0.3,0.7,0.5,1
		c0.4,0,0.8-0.1,1.2-0.1c0-0.3,0-0.7,0-1c0.1,0.3,0.2,0.7,0.4,1c0.3,0,0.6-0.1,0.9-0.1C458.4,1368.9,458,1369.2,457.7,1369.4z
		 M352.8,1369C352.8,1369,352.8,1369,352.8,1369C352.8,1369,352.8,1369,352.8,1369C352.8,1369,352.8,1369,352.8,1369z M454,1368
		C454,1368,454,1368,454,1368C454,1368,454,1368,454,1368C454,1368,454,1368,454,1368z M455,1367.9
		C455,1367.9,455,1367.9,455,1367.9C455,1367.9,455,1367.9,455,1367.9C455,1367.9,455,1367.9,455,1367.9z M456.8,1367.7
		C456.8,1367.7,456.8,1367.7,456.8,1367.7C456.8,1367.7,456.8,1367.7,456.8,1367.7C456.8,1367.7,456.8,1367.7,456.8,1367.7z
		 M458.8,1368.5c0-0.3,0-0.6,0-0.9c0.1,0.2,0.2,0.5,0.3,0.7C458.9,1368.4,458.9,1368.5,458.8,1368.5z M555.6,1152.4
		c-0.9,24.7-1.8,49.4-3.6,74.1c-1.3,19-1.8,40.1-8.2,58.2c-44.9,18.7-93.1,21.7-141.1,22.4c-47.4,0.7-95.6-1.9-140.2-19.3
		c-2.7-7.2-4-15-5.2-22.5c50.1,7.2,101.1,8.7,151.7,8c0-4.6-0.1-9.2-0.1-13.8c-51,1.4-103-0.6-153.5-8.3c-1-8.3-1.8-16.6-2.6-24.9
		c51.4,7.8,103.8,9.3,155.8,8.6c-0.1-4.6-0.1-9.2-0.2-13.8c-52.1,1.4-105.3-0.6-156.8-8.8c-0.7-8.6-1.3-17.2-1.8-25.8
		c52.2,8.2,105.5,9.7,158.3,9c0-4.6-0.1-9.2-0.1-13.8c-52.8,1.4-106.9-0.6-159-9.2c-0.5-7.4-0.9-14.8-1.4-22.2
		c52.8,8.5,106.8,10,160.2,9.3c0-4.6-0.1-9.2-0.1-13.8c-53.4,1.4-108.1-0.6-160.9-9.5c-1-15.6-1.6-30.9-1.4-46.5
		c51.7,6.8,104.2,5.8,156.3,5.8c52,0,104.5,1,156.2-5.8C557.1,1110.6,556.3,1131.5,555.6,1152.4z M617.9,834.9c0,31.6,0,63.2,0,94.7
		c0,20.4,1.1,41.1,0,61.5c-0.8,15.1-5.4,31.7-15.4,43.3c-6.8,7.9-15.1,14.8-22.9,21.8c-3.2,2.9-6.4,5.7-9.6,8.5
		c-0.6,0.5-11.6,8.1-11.4,4.8c-44.9,6.2-90.5,6.1-135.8,6.1c0,0,0,0,0,0c-14.1,0-28.2,0-42.3,0c0,0,0,0,0,0
		c-38.2,0-76.6,0-114.7-3.6c-10.9-1-23.6-0.1-31.9-7.3c-12.1-10.6-27-21.6-36.2-35c-19.4-28.5-11.7-74.8-11.7-107.2
		c0-26.2,0-52.4,0-78.7c0-59-14.9-114.4-40.3-167.5c-15.8-33.1-34.8-64.6-55-95.2c-15.8-23.9-31.4-46.9-42.9-73.3
		c95.3,6.2,191.4,5.6,286.8,6.4c90.3,0.7,180.6-0.1,270.9-1.8c50.2-0.9,100.5-1.4,150.6-4.7c-21.9,49.9-57.9,92.8-83.8,140.6
		C641.4,705.9,617.9,768.9,617.9,834.9z"/>
</g>
</svg>
