<?xml version="1.0" encoding="utf-8"?>
<!-- Generator: Adobe Illustrator 21.0.0, SVG Export Plug-In . SVG Version: 6.00 Build 0)  -->
<svg version="1.1" id="Layer_1" xmlns="http://www.w3.org/2000/svg" xmlns:xlink="http://www.w3.org/1999/xlink" x="0px" y="0px"
	 viewBox="0 0 927.3 1417.3" style="enable-background:new 0 0 927.3 1417.3;" xml:space="preserve">
<path d="M927.3,1307.7l-1.9,1c-3.1-14.4-24.7-25.5-67.4-34.8c-39.7-8.7-95-14.7-155.5-16.9c0.1-94.1,0.5-540.1-1.2-723.7
	c-1-103.5-19.3-190.2-54.5-257.9c-34.9-67.2-85.6-114.1-150.7-139.3c-52.4-20.3-183-66.5-377.7-133.5c-0.7-0.2-1.3-0.4-2-0.4
	c-3.7-1.4-7.6-2.1-11.8-2.1H34.2C15.4,0,0,15.4,0,34.2c0,13.9,8.4,26,20.4,31.3c0.7,0.6,1.5,1,2.3,1.3C60.9,80,107,95.6,155.9,112.2
	C260,147.6,367.7,184.2,415.2,202c33.1,12.4,61.2,32.8,83.6,60.6c20,24.7,36,56.1,47.8,93.2c23.7,74.8,26.4,162.4,26.4,221.8
	c0,182.5,0.9,590.1,1.1,680.3c-0.8,0-1.7,0.1-2.5,0.1c-55.1,2.9-104.8,9.2-139.8,17.5c-38.1,9.1-57.4,19.7-60.2,33.3l-1-0.5l0.8,1.2
	c-0.1,0.9-0.2,1.9-0.2,2.8c0,8.1,5.7,15.4,17,21.7c0.5,0.3,1,0.5,1.5,0.8c5.5,8.1,9.2,18.3,9.7,26.5h0c0,0.2,0,0.4,0,0.6
	c0,0.4,0.1,0.9,0.1,1.2v0.6l0.1,0.7c1.8,9.1,10.2,16.8,25.9,23.8c13.2,5.8,31.3,11,53.8,15.4c45.7,8.9,105.7,13.8,169.1,13.8
	c63.3,0,123.4-4.9,169.2-13.8c22.6-4.4,40.7-9.6,53.9-15.4c15.7-6.9,24.2-14.7,25.9-23.8l0.1-0.7v-0.7c0-7,3.1-18.4,10-28.5
	c12.1-6.5,18.1-13.8,18.1-22.2c0-0.8-0.1-1.5-0.2-2.3L927.3,1307.7z M633.4,282.3c34.1,65.5,51.8,150,52.8,251
	c0.3,31,0.5,69.5,0.7,112.5c-3.9,0.8-9.9,1.7-18.1,2.5c0-26,0-49.6,0-70.2c0-92.8-10.7-167.2-32.8-227.4
	c-14.4-39.2-33.8-72.7-57.8-99.7c-26.4-29.6-58.9-52.1-96.8-66.9c3-2.3,5.6-5,7.8-8.1c6.2-8.8,9.7-16.2,10.6-22.3
	C556.8,178.5,601.8,221.6,633.4,282.3z M253.3,105.3c-43.8-14.8-88.9-30-128.3-43.5c8.4-6.2,13.9-16.3,13.9-27.5
	c0-3.2-0.4-6.2-1.3-9.2c181.2,62.5,303,105.6,353,125c0.7,0.3,1.5,0.6,2.2,0.9c0,4.8-3.4,12.3-9.6,21c-2.7,3.8-6.1,6.8-10.1,9
	C426.6,163.8,338.5,134.1,253.3,105.3z M160.7,97.9c-30.3-10.3-59.6-20.2-86.6-29.5h30.5c4.2,0,8.2-0.8,11.9-2.1
	c40.9,14,88.4,30.1,134.5,45.6c80.4,27.2,163.4,55.1,211.5,72.6l-36.2,5.5c-1.9-0.8-3.8-1.5-5.7-2.2
	C372.8,169.9,265,133.3,160.7,97.9z M561,351.2c-12.3-38.9-29.3-71.9-50.4-98.1c-20-24.8-44.3-44.1-72.4-57.6l25.7-3.9
	c3.4-0.5,6.6-1.5,9.7-2.8c0.6,0.2,1.2,0.4,1.8,0.7c38.3,14.3,71.1,36.7,97.5,66.3c23.4,26.3,42.4,59.1,56.5,97.4
	c21.8,59.5,32.4,133.1,32.4,225c0,20.6,0,44.2,0,70.2c-12.7-1.1-53.6-4.6-73.6-6.3c0-23.6,0-45.3,0-64.5
	C588.1,517.1,585.3,428,561,351.2z M395.6,1320.7c-7.3-4.1-9.2-7.2-9.2-8.5c0-2.9,8.8-12.5,48.9-22.1c34.2-8.1,82.9-14.2,137.1-17.1
	c0.6,0,1.2-0.1,1.7-0.1c0,1.6,0,2.6,0,2.8c0,4.7-1.7,22-9.7,22c-4.2,0-7.6,3.4-7.6,7.6c0,4.2,3.4,7.6,7.6,7.6
	c19.6,0,24.8-23.3,24.8-37.1c0-4.4-0.9-397.7-1.1-626.6c20.5,1.8,61.8,5.3,73.6,6.3c0.2,233.9,1.1,641.6,1.1,646.2
	c0,1.9,1.6,3.5,3.5,3.5c0,0,0,0,0,0c1.9,0,3.5-1.6,3.5-3.5c0-4.6-0.9-412.4-1.1-646.2c8.1-0.8,13.9-1.6,18.1-2.4
	c1,240.3,0.5,613.6,0.5,621.4c0,2.2,0,17.5,9.4,27.2c4.8,4.9,11.2,7.5,18.6,7.5c4.2,0,7.6-3.4,7.6-7.6c0-4.2-3.4-7.6-7.6-7.6
	c-3.4,0-5.8-0.9-7.8-2.9c-4.4-4.5-5.2-13.4-5.2-16.4l0-0.2c0-0.2,0-1,0-2.5c59.4,2.2,113.5,8.1,152.3,16.5
	c45.8,10,55.9,20.5,55.9,23.7c0,1.5-2.6,5.1-11.6,9.7c-0.5,0.2-0.9,0.5-1.4,0.7c-0.2,0.1-0.4,0.2-0.6,0.3c-0.4,0.2-0.8,0.4-1.2,0.6
	c-0.5,0.2-1,0.4-1.5,0.7c-0.2,0.1-0.3,0.1-0.5,0.2c-12.9,5.5-32.3,10.7-56.1,15c-18.8,3.4-39.8,6.2-62.6,8.4
	c-0.7,0.1-1.5,0.1-2.2,0.2c-0.6,0.1-1.3,0.1-1.9,0.2c-32.1,3-67.9,4.8-105.3,5.2c-0.9,0-1.7,0-2.6,0c-1,0-1.9,0-2.9,0
	c-1.2,0-2.4,0-3.6,0c-0.8,0-1.5,0-2.3,0c-2,0-4,0-6,0c-98.2,0-188.7-9.9-234.3-24.9c-0.1,0-0.2-0.1-0.3-0.1
	c-0.6-0.2-1.1-0.4-1.7-0.6c-0.6-0.2-1.1-0.4-1.7-0.6c-0.1,0-0.1-0.1-0.2-0.1c-4.6-1.6-8.6-3.3-12.1-5.1l-1.2-0.6
	C396.5,1321.3,396.1,1321,395.6,1320.7z"/>
</svg>
