<?xml version="1.0" standalone="no"?>
<!DOCTYPE svg PUBLIC "-//W3C//DTD SVG 20010904//EN"
 "http://www.w3.org/TR/2001/REC-SVG-20010904/DTD/svg10.dtd">
<svg version="1.0" xmlns="http://www.w3.org/2000/svg"
 width="300.000000pt" height="363.000000pt" viewBox="0 0 300.000000 363.000000"
 preserveAspectRatio="xMidYMid meet">
<metadata>
Created by potrace 1.10, written by Peter Selinger 2001-2011
</metadata>
<g transform="translate(0.000000,363.000000) scale(0.100000,-0.100000)"
fill="#000000" stroke="none">
<path d="M630 3508 c-30 -32 -27 -82 6 -96 29 -14 211 -15 235 -1 9 4 22 22
29 39 10 25 10 34 -4 55 -16 24 -20 25 -131 25 -105 0 -116 -2 -135 -22z m225
-8 c4 -6 10 -8 15 -5 13 8 19 -33 6 -50 -9 -13 -31 -15 -126 -13 l-115 3 -3
27 c-4 33 8 37 123 41 44 2 83 4 87 5 4 1 10 -3 13 -8z"/>
<path d="M930 3490 c0 -5 11 -10 25 -10 14 0 25 -5 25 -12 0 -6 3 -9 6 -5 3 3
26 -3 51 -14 24 -10 51 -19 60 -19 8 0 29 -7 46 -15 47 -21 214 -84 272 -102
28 -8 55 -18 60 -22 6 -4 37 -15 70 -26 33 -10 64 -22 69 -27 14 -11 48 -10
41 2 -3 5 -21 12 -40 16 -20 3 -38 10 -41 15 -3 5 -12 9 -21 9 -8 0 -29 6 -46
14 -45 19 -563 206 -573 206 -2 0 -4 -4 -4 -10z"/>
<path d="M845 3390 c-47 -8 -46 -9 25 -16 30 -4 124 -30 210 -59 413 -142 495
-171 497 -180 1 -6 -23 -9 -58 -8 -62 3 -89 11 -502 153 -115 39 -211 70 -213
67 -5 -5 218 -82 546 -189 344 -112 360 -119 431 -188 112 -111 199 -316 240
-570 8 -47 13 -96 12 -110 -2 -22 -2 -23 6 -5 5 13 -1 71 -17 160 -14 77 -25
150 -26 162 -1 12 -3 19 -6 17 -7 -8 -29 79 -23 89 3 6 1 7 -5 3 -8 -4 -12 0
-12 11 0 10 -7 29 -16 41 -8 12 -12 27 -8 34 5 7 3 8 -6 3 -10 -6 -12 -3 -8
12 3 13 -1 24 -14 32 -10 6 -16 16 -13 20 3 5 2 11 -2 13 -14 6 -83 96 -83
108 0 6 -4 9 -9 5 -5 -3 -12 -1 -16 5 -3 5 -1 10 4 10 6 0 11 5 11 11 0 8 -5
7 -16 -2 -10 -8 -18 -9 -22 -3 -4 6 -24 20 -44 33 -21 12 -38 27 -38 33 0 6
-6 8 -14 5 -8 -3 -31 -1 -50 4 -32 9 -35 12 -22 25 8 7 21 14 28 14 27 0 -43
37 -117 60 -54 18 -74 29 -70 39 4 11 2 11 -9 2 -10 -9 -32 -5 -97 20 -46 17
-115 41 -154 54 -38 13 -108 37 -155 53 -110 39 -117 40 -165 32z"/>
<path d="M741 3368 c23 -10 44 -16 47 -13 3 3 0 5 -6 5 -19 0 -14 18 6 22 9 2
-7 4 -36 4 l-54 -1 43 -17z"/>
<path d="M1670 3219 c0 -7 2 -10 5 -7 3 3 33 -5 68 -17 64 -22 67 -27 52 -75
-7 -22 -6 -23 9 -11 9 7 16 24 16 37 l0 24 53 -21 c28 -11 54 -25 55 -30 2 -5
10 -9 18 -9 8 0 14 -4 14 -10 0 -5 6 -10 13 -10 18 0 60 -48 52 -60 -4 -6 1
-7 11 -3 11 4 15 3 10 -5 -3 -6 3 -13 14 -17 11 -3 20 -11 20 -16 0 -12 52
-93 63 -97 4 -2 7 -14 7 -27 0 -13 7 -30 15 -39 16 -16 21 -41 6 -32 -5 4 -7
-3 -4 -14 5 -17 8 -18 21 -8 14 11 15 9 9 -22 -5 -25 -4 -31 3 -20 8 12 10 9
10 -13 0 -16 4 -26 10 -22 6 3 10 0 10 -7 3 -75 10 -121 24 -149 10 -21 13
-35 6 -37 -5 -2 -10 -11 -10 -20 0 -15 2 -15 10 -2 15 24 25 -18 25 -104 0
-42 2 -76 5 -76 3 0 5 -20 5 -45 0 -25 3 -45 7 -45 3 0 5 -59 5 -130 l-2 -131
-127 2 c-85 1 -129 5 -132 13 -2 6 -5 3 -5 -6 -1 -16 14 -18 131 -20 l132 -3
-1 -65 c-2 -112 -2 -1177 0 -1337 2 -128 0 -154 -13 -159 -12 -4 -12 -7 4 -16
14 -8 21 -7 27 3 5 8 7 447 5 979 -3 997 -4 1017 -45 1215 -16 82 -70 234
-107 304 -46 89 -131 199 -185 239 -24 18 -49 36 -54 40 -6 5 -19 11 -30 14
-11 4 -58 21 -105 38 -109 41 -130 46 -130 29z m577 -611 c-3 -8 -6 -5 -6 6
-1 11 2 17 5 13 3 -3 4 -12 1 -19z"/>
<path d="M1638 3123 c7 -3 16 -2 19 1 4 3 -2 6 -13 5 -11 0 -14 -3 -6 -6z"/>
<path d="M1678 3108 c5 -5 16 -8 23 -6 8 3 3 7 -10 11 -17 4 -21 3 -13 -5z"/>
<path d="M1730 3090 c8 -5 25 -10 37 -10 12 0 25 -4 28 -10 3 -5 14 -10 23
-10 25 0 -26 25 -68 33 -25 5 -31 4 -20 -3z"/>
<path d="M1818 3013 c7 -3 16 -2 19 1 4 3 -2 6 -13 5 -11 0 -14 -3 -6 -6z"/>
<path d="M2210 2659 c0 -5 5 -7 10 -4 6 3 10 8 10 11 0 2 -4 4 -10 4 -5 0 -10
-5 -10 -11z"/>
<path d="M2044 2150 c0 -58 1 -81 3 -52 2 28 2 76 0 105 -2 28 -3 5 -3 -53z"/>
<path d="M2042 1910 c0 -14 2 -19 5 -12 2 6 2 18 0 25 -3 6 -5 1 -5 -13z"/>
<path d="M2043 1765 c0 -44 2 -61 4 -37 2 23 2 59 0 80 -2 20 -4 1 -4 -43z"/>
<path d="M2044 1465 c0 -71 1 -99 3 -62 2 37 2 96 0 130 -2 34 -3 4 -3 -68z"/>
<path d="M2042 1110 c0 -14 2 -19 5 -12 2 6 2 18 0 25 -3 6 -5 1 -5 -13z"/>
<path d="M2043 910 c0 -30 2 -43 4 -27 2 15 2 39 0 55 -2 15 -4 2 -4 -28z"/>
<path d="M2043 685 c0 -33 2 -45 4 -27 2 18 2 45 0 60 -2 15 -4 0 -4 -33z"/>
<path d="M1945 403 c-43 -3 -214 -22 -255 -28 -58 -10 -144 -41 -153 -57 -18
-28 9 -45 104 -68 113 -26 205 -34 244 -21 25 9 20 10 -34 7 -38 -3 -82 1
-110 10 -25 7 -54 11 -65 8 -10 -3 -16 -2 -13 2 3 5 -11 10 -31 11 -21 1 -42
9 -49 19 -9 13 -13 14 -13 4 0 -11 -3 -11 -12 -2 -18 18 7 40 64 57 72 21 282
47 352 43 40 -2 61 1 63 9 3 8 -5 12 -24 10 -15 -1 -46 -3 -68 -4z"/>
<path d="M2340 405 c0 -2 9 -9 20 -15 15 -8 20 -8 20 3 0 7 -9 13 -20 14 -11
1 -20 0 -20 -2z"/>
<path d="M2390 399 c0 -3 37 -9 83 -13 45 -3 118 -13 162 -21 44 -8 86 -14 93
-15 7 0 10 -5 6 -12 -4 -7 -3 -8 4 -4 19 11 64 -5 58 -21 -3 -8 -2 -11 3 -8
20 11 19 -13 0 -33 -23 -25 -9 -30 15 -6 19 19 21 48 3 63 -26 21 -143 49
-247 60 -159 16 -180 18 -180 10z"/>
<path d="M2078 383 c12 -2 30 -2 40 0 9 3 -1 5 -23 4 -22 0 -30 -2 -17 -4z"/>
<path d="M2350 347 c0 -20 30 -37 64 -37 34 0 33 15 -1 18 -14 1 -35 9 -45 19
-16 15 -18 15 -18 0z"/>
<path d="M2321 324 c0 -11 3 -14 6 -6 3 7 2 16 -1 19 -3 4 -6 -2 -5 -13z"/>
<path d="M1940 311 c8 -6 18 -8 22 -5 4 3 17 0 28 -6 23 -13 83 -4 74 11 -3 5
-35 9 -72 9 -45 0 -62 -3 -52 -9z"/>
<path d="M2080 308 c0 -5 6 -11 13 -13 22 -8 156 -11 151 -3 -3 4 -28 8 -55 8
-28 0 -48 3 -46 8 3 4 -10 7 -29 8 -19 0 -34 -3 -34 -8z"/>
<path d="M2065 280 c3 -5 10 -10 16 -10 5 0 9 5 9 10 0 6 -7 10 -16 10 -8 0
-12 -4 -9 -10z"/>
<path d="M1575 219 c16 -50 23 -64 41 -80 27 -24 100 -46 212 -66 134 -24 564
-24 702 0 184 32 221 50 246 125 15 42 13 47 -13 34 -29 -16 -177 -40 -308
-52 -305 -26 -747 2 -869 55 -16 7 -17 5 -11 -16z m115 -36 c25 -2 52 -6 60
-9 33 -13 198 -19 470 -18 222 1 307 5 385 18 130 23 137 23 142 9 7 -18 -72
-65 -111 -66 -20 0 -33 -3 -30 -6 25 -25 -489 -50 -641 -32 -49 6 -105 11
-123 11 -24 -1 -31 3 -26 11 4 8 3 9 -4 5 -15 -9 -132 13 -132 25 0 5 -7 6
-15 3 -11 -4 -15 1 -15 17 0 19 -2 21 -10 9 -9 -13 -14 -7 -11 13 0 4 -3 7 -9
7 -5 0 -10 5 -10 11 0 7 7 8 18 4 9 -4 37 -9 62 -12z"/>
<path d="M1905 220 c-21 -5 -4 -8 54 -9 46 0 82 1 80 3 -9 8 -106 12 -134 6z"/>
<path d="M2748 83 c7 -3 16 -2 19 1 4 3 -2 6 -13 5 -11 0 -14 -3 -6 -6z"/>
<path d="M2588 63 c7 -3 16 -2 19 1 4 3 -2 6 -13 5 -11 0 -14 -3 -6 -6z"/>
<path d="M2528 53 c7 -3 16 -2 19 1 4 3 -2 6 -13 5 -11 0 -14 -3 -6 -6z"/>
<path d="M2433 43 c9 -2 23 -2 30 0 6 3 -1 5 -18 5 -16 0 -22 -2 -12 -5z"/>
<path d="M2132 33 c48 -2 129 -2 180 0 51 1 12 3 -87 3 -99 0 -141 -2 -93 -3z"/>
</g>
</svg>
