<?xml version="1.0" encoding="utf-8"?>
<!-- Generator: Adobe Illustrator 22.1.0, SVG Export Plug-In . SVG Version: 6.00 Build 0)  -->
<svg version="1.1" baseProfile="tiny" id="Слой_1"
	 xmlns="http://www.w3.org/2000/svg" xmlns:xlink="http://www.w3.org/1999/xlink" x="0px" y="0px" viewBox="0 0 1451.3 1451.3"
	 xml:space="preserve">
<g>
	<path fill="#060606" d="M2.8,788c0-40.6,0-81.3,0-121.9c4.6-1.4,2.8-5.4,3.1-8.3c3.5-28.6,7.8-57,13.7-85.2
		c60.7-289.7,308.4-521,601.6-562c16-2.2,32.5-1.3,47.8-7.8c37.8,0,75.6,0,113.4,0c0.9,3.1,3.4,2.5,5.7,2.7
		c32.1,2.1,63.7,7.3,95.1,14c292,61.9,521.6,307.3,563.2,601.8c2.2,15.9,1.3,32.4,7.8,47.7c0,40.6,0,81.3,0,121.9
		c-4.6,1.4-2.7,5.4-3.1,8.3c-4,25.6-6.5,51.5-11.9,76.9c-63,299.3-302.5,524.9-604.7,570.4c-17.4,2.6-35.2,1.9-52.1,7.7
		c-37.8,0-75.6,0-113.4,0c-0.8-3-3.4-2.6-5.7-2.9c-30.6-2.8-60.8-7.7-90.8-14c-289.1-60.2-520.6-308.2-561.8-601.5
		C8.4,819.9,9.4,803.3,2.8,788z M31.2,727.7c-0.6,384.1,312.2,697.6,696.5,698.1c384.1,0.5,697.5-312.2,698.1-696.5
		c0.6-384.1-312.1-697.5-696.5-698.1C345.3,30.6,31.8,343.4,31.2,727.7z"/>
	<path fill="#060606" d="M804.5,679.6c0-12.5,0-23.7,0-36.7c-22.4,9.4-43.7,17.9-64.5,27.4c-7.9,3.6-14.3,4.1-22.3,0.3
		c-17.4-8.2-35.8-14.5-53.1-23c-11.9-5.8-12.7-1.5-12.4,9c0.6,26-0.2,51.9,0.4,77.9c0.2,8.6-2.6,12.8-10.5,15.4
		c-8,2.7-15.8,6.2-23.4,10c-8.5,4.3-11.9,1.9-11.8-7.3c0.1-17,0-34,0-51c0-32.1,0.3-64.2-0.2-96.3c-0.1-8.6,2.2-10.2,10.7-11.3
		c35.6-4.7,65,12.5,95.3,25.9c11.2,5,20.7,5.4,31.7,0c16.9-8.2,34.4-15.3,51.9-22.3c16.3-6.6,33.6-2.1,50.4-2.9
		c4.1-0.2,3.6,3.5,3.6,6.2c0,6.6,0,13.2,0,19.8C850.2,665.2,850.2,665.2,804.5,679.6z"/>
	<path fill="#060606" d="M850.3,697.2c-1.1,30.9,3.8,62.2-8.5,92c-19.7,47.7-56.2,74.6-107,77.5c-48.6,2.8-86.1-19.2-112-60.9
		c-5.6-8.9-5.4-14.2,5.7-16.6c1.8-0.4,3.5-1.4,5.2-2.1c7.4-3.2,14.8-9,22-8.8c8.1,0.2,9.5,11.4,14.6,17.2
		c21.7,24.2,54.9,33,84.9,21.8c30.2-11.3,49.3-39.2,49.5-72.2c0.2-30.7,0.1-30.7,28.7-42.6C838.6,700.4,843.2,696.7,850.3,697.2z"/>
</g>
</svg>
