<?xml version="1.0" encoding="UTF-8"?>
<svg width="327px" height="500px" viewBox="0 0 327 500" version="1.1" xmlns="http://www.w3.org/2000/svg" xmlns:xlink="http://www.w3.org/1999/xlink">
    <!-- Generator: Sketch 52.5 (67469) - http://www.bohemiancoding.com/sketch -->
    <title>humidifier</title>
    <desc>Created with Sketch.</desc>
    <g id="Page-1" stroke="none" stroke-width="1" fill="none" fill-rule="evenodd">
        <g id="humidifier" fill="#000000" fill-rule="nonzero">
            <path d="M326.93133,17.4892704 C326.716738,16.0586552 325.894134,14.5922747 324.391989,13.0901288 L324.320458,13.018598 C324.0701,12.7682403 317.775393,6.93848355 314.735336,4.25608011 C310.336195,0.39341917 306.294707,0 292.274678,0 L34.7639485,0 C20.7439199,0 16.7381974,0.429184549 12.3032904,4.25608011 C9.26323319,6.90271817 2.96852647,12.7682403 2.71816881,13.018598 L2.64663805,13.0901288 C1.14449213,14.5922747 0.286123033,16.0228898 0.107296137,17.453505 L0.107296137,17.4892704 C0.0357653791,17.9184549 0.0715307582,18.3118741 0.107296137,18.7410587 L3.96995708,471.816881 L3.96995708,472.925608 L4.68526466,473.783977 C5.32904149,474.499285 19.8855508,491.02289 50.3218884,493.168813 L50.3218884,494.921316 C50.286123,495.135908 50.2503577,495.314735 50.2503577,495.529328 C50.3934192,499.105866 58.8340486,499.713877 64.3061516,499.713877 C65.7010014,499.713877 66.9170243,499.678112 67.7753934,499.642346 C72.1030043,499.463519 76.1444921,498.927039 79.1845494,498.1402 C81.6523605,497.496423 84.90701,496.387697 84.8354793,494.062947 L84.8354793,493.955651 C119.027182,494.384835 160.336195,494.384835 160.908441,494.384835 L166.130186,494.384835 C166.702432,494.384835 207.97568,494.384835 242.167382,493.955651 L242.167382,494.062947 C242.060086,498.533619 255.221745,499.463519 259.263233,499.642346 C260.37196,499.678112 261.480687,499.713877 262.589413,499.713877 C265.665236,499.713877 268.490701,499.499285 270.779685,499.141631 C273.319027,498.712446 276.680973,497.889843 276.788269,495.529328 C276.788269,495.314735 276.788269,495.135908 276.716738,494.921316 L276.716738,493.168813 C307.153076,491.02289 321.709585,474.499285 322.353362,473.783977 L323.06867,472.925608 L326.93133,18.7052933 C327.002861,18.3118741 327.002861,17.9184549 326.93133,17.4892704 Z M11.4449213,471.852647 C10.8726753,471.351931 10.4077253,470.886981 10.0500715,470.565093 L8.44062947,280.65093 C12.4463519,281.366237 19.8497854,282.474964 30.472103,283.440629 L30.472103,476.144492 C22.0672389,474.856938 15.6294707,473.211731 11.4449213,471.852647 Z M31.8311874,479.434907 C33.0114449,480.793991 34.9785408,482.939914 37.4105866,484.942775 C29.2560801,482.868383 22.925608,479.792561 18.3476395,476.895565 C21.9599428,477.7897 26.4306152,478.683834 31.8311874,479.434907 Z M32.0457797,283.547926 C38.304721,284.084406 45.6008584,284.549356 53.9341917,284.799714 C85.5865522,285.801144 160.193133,285.83691 160.944206,285.83691 L166.165951,285.83691 C166.917024,285.83691 241.523605,285.83691 273.175966,284.799714 C281.652361,284.513591 289.091559,284.048641 295.422031,283.51216 L295.422031,476.287554 C289.020029,477.217454 281.545064,477.932761 273.06867,478.218884 C241.452074,479.220315 166.917024,479.25608 166.165951,479.25608 L160.944206,479.25608 C160.193133,479.25608 85.658083,479.25608 54.0414878,478.218884 C45.7081545,477.968526 38.3762518,477.253219 32.0457797,476.359084 L32.0457797,283.547926 Z M295.386266,23.211731 L295.386266,280.472103 C289.055794,281.008584 281.58083,281.509299 273.032904,281.759657 C241.416309,282.761087 166.881259,282.796853 166.130186,282.796853 L160.908441,282.796853 C160.157368,282.796853 85.6223176,282.796853 54.0057225,281.759657 C45.6366237,281.509299 38.2689557,281.044349 32.0100143,280.507868 L32.0100143,23.211731 L295.386266,23.211731 Z M34.4062947,16.9527897 C34.7281831,16.6666667 35.0143062,16.416309 35.2646638,16.2017167 C38.2689557,13.5908441 40.9155937,13.1616595 54.148784,13.1616595 L272.889843,13.1616595 C286.158798,13.1616595 288.805436,13.5908441 291.773963,16.2017167 C292.02432,16.416309 292.310443,16.6666667 292.632332,16.9527897 L34.4062947,16.9527897 Z M308.726753,476.93133 C304.25608,479.72103 298.06867,482.761087 290.200286,484.835479 C292.596567,482.832618 294.527897,480.722461 295.672389,479.399142 C300.822604,478.648069 305.18598,477.753934 308.726753,476.93133 Z M316.988555,470.565093 C316.630901,470.886981 316.165951,471.351931 315.593705,471.852647 C311.480687,473.211731 305.18598,474.785408 296.924177,476.072961 L296.924177,283.404864 C307.367668,282.474964 314.663805,281.366237 318.597997,280.65093 L316.988555,470.565093 Z M319.849785,23.211731 C320.100143,23.211731 320.422031,23.211731 320.779685,23.1759657 L318.633763,277.539342 C314.949928,278.183119 307.653791,279.363376 296.924177,280.329041 L296.924177,23.211731 L319.778255,23.211731 C319.81402,23.211731 319.81402,23.211731 319.849785,23.211731 Z M16.4520744,9.01287554 C18.9914163,6.79542203 20.9942775,6.29470672 34.7639485,6.29470672 L292.274678,6.29470672 C306.080114,6.29470672 308.082976,6.79542203 310.586552,9.01287554 C312.947067,11.0872675 317.48927,15.2718169 319.277539,16.9170243 L297.2103,16.9170243 C295.779685,15.5937053 294.635193,14.5565093 293.812589,13.8412017 C289.878398,10.4077253 286.337625,10.0500715 272.889843,10.0500715 L54.148784,10.0500715 C40.7367668,10.0500715 37.1959943,10.4077253 33.2260372,13.8412017 C32.4034335,14.5565093 31.2589413,15.5937053 29.8283262,16.9170243 L7.76108727,16.9170243 C9.54935622,15.2718169 14.0915594,11.0872675 16.4520744,9.01287554 Z M7.22460658,23.211731 L30.472103,23.211731 L30.472103,280.364807 C19.5636624,279.399142 12.1244635,278.218884 8.40486409,277.539342 L6.25894134,23.1759657 C6.61659514,23.211731 6.93848355,23.211731 7.1888412,23.211731 C7.22460658,23.211731 7.22460658,23.211731 7.22460658,23.211731 Z M67.6680973,496.602289 C59.5493562,496.959943 54.5779685,495.886981 53.397711,495.171674 L53.397711,493.347639 C53.5407725,493.347639 53.7195994,493.347639 53.8626609,493.383405 C61.3018598,493.633763 71.0658083,493.812589 81.7238913,493.955651 C80.6151645,494.778255 75.7868383,496.244635 67.6680973,496.602289 Z M160.908441,488.268956 C160.157368,488.268956 85.6223176,488.268956 54.0414878,487.267525 C49.3204578,487.124464 44.9928469,486.587983 41.0586552,485.801144 C38.2689557,483.941345 35.8369099,481.545064 34.1559371,479.756795 C39.8426323,480.472103 46.3876967,481.044349 53.8984263,481.258941 C85.5507868,482.260372 160.157368,482.296137 160.908441,482.296137 L166.130186,482.296137 C166.881259,482.296137 241.48784,482.296137 273.1402,481.258941 C280.829757,481.008584 287.553648,480.436338 293.311874,479.685265 C291.666667,481.437768 289.270386,483.798283 286.516452,485.693848 C282.439199,486.552217 277.932761,487.124464 272.997139,487.267525 C241.416309,488.268956 166.881259,488.268956 166.130186,488.268956 L160.908441,488.268956 Z M273.640916,495.207439 C272.460658,495.922747 267.525036,496.995708 259.370529,496.638054 C251.251788,496.280401 246.387697,494.778255 245.27897,493.955651 C255.937053,493.812589 265.701001,493.633763 273.1402,493.383405 C273.283262,493.383405 273.462089,493.383405 273.60515,493.347639 L273.60515,495.207439 L273.640916,495.207439 Z" id="Shape"></path>
        </g>
    </g>
</svg>