<?xml version="1.0" encoding="utf-8"?>
<!-- Generator: Adobe Illustrator 22.1.0, SVG Export Plug-In . SVG Version: 6.00 Build 0)  -->
<svg version="1.1" baseProfile="tiny" id="Layer_1" xmlns="http://www.w3.org/2000/svg" xmlns:xlink="http://www.w3.org/1999/xlink"
	 x="0px" y="0px" viewBox="0 0 512 512" xml:space="preserve">
<g>
	<path d="M471,256.2c0,63-0.1,126,0.1,189c0,9.4-3.5,16.3-10.5,22c-11.4,9.2-24.7,14.4-38.3,18.8c-28,9.1-56.9,13.8-86.1,16.9
		c-39.5,4.2-79.1,5.2-118.8,3c-44.3-2.5-88.3-7.4-130.6-21.9c-11.7-4-22.9-9-32.6-16.9c-7-5.7-10.6-12.6-10.4-22
		c0.4-24.3,0.4-48.7,0-73c-0.1-8.6,3-15.4,9.5-20.4c5.8-4.4,12.4-7.7,18.5-11.8c1.4-1,3-3.1,3-4.7C75,273.1,75,211,75.1,148.8
		c0-2.9-1.3-3.8-3.5-5.1c-6.6-3.9-13.2-7.8-19.2-12.4c-5.9-4.6-8.6-11-8.5-18.8c0.3-15.2,0.5-30.3,0-45.5
		c-0.3-9.7,3.6-16.7,10.8-22.4C66,35.5,79.4,30.3,93,25.9c27.8-9,56.6-13.7,85.6-16.8c39.7-4.3,79.5-5.2,119.3-3
		c43.3,2.4,86.3,7.1,127.7,21.2c10.9,3.7,21.4,9.2,31.4,15c9.9,5.6,14.3,14.4,14.2,26.6C470.8,131.3,471,193.7,471,256.2z M461,80
		c-11.3,8.8-23.2,14-35.8,18.1c-41.4,13.5-84.1,18.5-127.3,20.9c-42.5,2.3-85,1.3-127.2-4c-40.5-5.1-80.7-11.8-116.7-34.3
		c0,10.3,0.4,20.2-0.1,30.1c-0.5,8,3.7,12.7,9.5,16.7c3.6,2.4,7.2,5,11.2,6.5c13.4,4.9,26.7,10.4,40.5,13.8
		c46.3,11.7,93.6,14.9,141.2,15.1c2.1,0,4.2,0,6.2,0c0,88,0,175.4,0,263c-1.9,0-3.4,0.1-4.9,0c-29.8-1.7-59.6-2.6-89.2-5.4
		c-28.9-2.7-57.3-8.5-84.5-18.8c-10.3-3.9-20-9.4-30-14.2c0,0.8,0,2.1,0,3.4c0.1,17.7,0.6,35.3-0.1,53c-0.3,7.8,2.5,13.2,8.6,16.7
		c8.4,4.9,17.1,9.9,26.2,13.2c41.8,15,85.5,19.7,129.5,22.1c39,2.1,78,1.2,116.8-3c28.2-3,56.2-7.2,83.1-16.3
		c11.7-4,22.8-9.8,33.8-15.6c6.5-3.4,9.2-9.3,9.2-17.4c-0.3-110.3-0.2-220.6-0.2-331C461,102.2,461,91.7,461,80z M251.9,173.2
		C195.6,171.9,140,167.7,86,150c0,2.6,0,4.5,0,6.5c0,61.1,0,122.3,0.1,183.4c0,3.8-1,5.6-4.5,6.9c-4.2,1.5-8.3,3.5-12.1,5.8
		c-6.5,3.9-15.1,7.4-15,15.9c0.1,8.2,8.4,11.8,14.8,15.6c4.6,2.7,9.4,5,14.4,6.9c25.9,10.1,52.8,16,80.3,18.8
		c27.3,2.8,54.8,4.1,82.1,6c1.9,0.1,3.8,0,5.8,0C251.9,334.7,251.9,254.2,251.9,173.2z M251.6,110c42.1,0,78.5-2.2,114.5-8.2
		c22.2-3.6,44.2-8.2,65.1-16.6c9.4-3.8,18.7-8,25.9-15.6c5-5.3,5.4-9.4,0-14.2c-4.9-4.4-10.3-8.8-16.4-11.2
		C426.1,38.6,411.2,33,396,29.2c-35.5-8.9-71.8-12.2-108.4-13.6C234,13.6,180.7,16.2,128,27c-19.9,4.1-39.6,9.2-57.6,19.1
		c-5,2.8-9.6,6.6-13.7,10.6c-4,3.9-4,7.5,0,11.4c4.1,4,8.7,7.8,13.7,10.6c13.8,7.9,29,12.4,44.4,16.1
		C161.6,106.4,209.2,109.7,251.6,110z"/>
	<path d="M308,329.5c0,4.6-3.9,8.6-8.6,8.5c-4.7-0.1-8.5-4-8.4-8.7c0.1-4.5,3.8-8.2,8.3-8.2C304,320.9,308,324.8,308,329.5z"/>
	<path d="M298.5,72.9c-6.6,0-12.6,0.6-18.4-0.3c-2.8-0.4-5.3-3.6-7.6-6.7c2.6-0.3,5.3-0.5,9.2-0.9c-3.3-3.1-5.7-5.7-8.5-7.7
		c-3.3-2.4-4-4.9-1.6-8.3c1.1-1.6,1.6-3.5,2.5-5.6c-7.6,0-14.7,0-21.7,0c-5.3,0-5.3,0-9.1-5.1c0.7-0.2,1.3-0.5,1.8-0.5
		c11.7-0.2,23.3-0.5,35-0.6c5.2,0,7.3,3.2,5.5,8.2c-2.9,8.1-2.9,8.1,3.9,14C296.3,65.5,296.3,65.5,298.5,72.9z"/>
	<path d="M240.3,43.3c-4.2,2.5-7,3.7-9.2,5.6c-4,3.5-4.1,7.5-0.1,11.1c6,5.5,13.5,7.2,21.3,6.2c6.7-0.8,12.1,0.3,15.5,7.3
		c-15.8,0.7-31.6,2.6-45.6-7.2c-9.7-6.9-9.6-15.4,0.2-22c2.8-1.9,6.2-3.6,9.5-4.1C234.1,39.9,236.6,41.9,240.3,43.3z"/>
</g>
</svg>
