<?xml version="1.0" encoding="utf-8"?>
<!-- Generator: Adobe Illustrator 20.0.0, SVG Export Plug-In . SVG Version: 6.00 Build 0)  -->
<svg version="1.1" id="Layer_1" xmlns="http://www.w3.org/2000/svg" xmlns:xlink="http://www.w3.org/1999/xlink" x="0px" y="0px"
	 viewBox="0 0 452.4 450.8" style="enable-background:new 0 0 452.4 450.8;" xml:space="preserve">
<g>
	<path d="M229,338.7c-6.9,0-12.5,5.6-12.5,12.5v23.8c0,6.9,5.6,12.5,12.5,12.5s12.5-5.6,12.5-12.5v-23.8
		C241.5,344.3,235.9,338.7,229,338.7z M240.1,374.9c0,6.1-5,11.1-11.1,11.1s-11.1-5-11.1-11.1v-23.8c0-6.1,5-11.1,11.1-11.1
		s11.1,5,11.1,11.1V374.9z"/>
	<path d="M229,341.5c-5.3,0-9.7,4.3-9.7,9.7v23.8c0,5.3,4.3,9.7,9.7,9.7c5.3,0,9.7-4.3,9.7-9.7v-23.8
		C238.7,345.8,234.4,341.5,229,341.5z M237.3,374.9c0,4.6-3.7,8.3-8.3,8.3s-8.3-3.7-8.3-8.3v-23.8c0-4.6,3.7-8.3,8.3-8.3
		s8.3,3.7,8.3,8.3V374.9z"/>
	<path d="M229,356.5c2.4,0,4.3-1.9,4.3-4.3c0-1.6-0.9-3-2.2-3.8c-0.2-0.1-0.4,0-0.5,0.1c-0.1,0.2,0,0.4,0.1,0.5
		c1.1,0.6,1.9,1.8,1.9,3.1c0,2-1.6,3.6-3.6,3.6s-3.6-1.6-3.6-3.6c0-1.3,0.7-2.5,1.9-3.2c0.2-0.1,0.2-0.3,0.1-0.5
		c-0.1-0.2-0.3-0.2-0.5-0.1c-1.4,0.8-2.2,2.2-2.2,3.8C224.7,354.5,226.7,356.5,229,356.5z"/>
	<path d="M229,350.3c0.2,0,0.4-0.2,0.4-0.4v-2.7c0-0.2-0.2-0.4-0.4-0.4s-0.4,0.2-0.4,0.4v2.7C228.7,350.2,228.8,350.3,229,350.3z"/>
	<path d="M229.2,370.4c-0.1-0.1-0.2-0.1-0.3,0l-5.2,3.2c-0.1,0.1-0.2,0.2-0.1,0.3c0,0.1,0.1,0.2,0.3,0.2h1.6v3.5
		c0,0.2,0.1,0.3,0.3,0.3h6.6c0.2,0,0.3-0.1,0.3-0.3v-3.5h1.6c0.1,0,0.2-0.1,0.3-0.2c0-0.1,0-0.3-0.1-0.3L229.2,370.4z M232.3,373.5
		c-0.2,0-0.3,0.1-0.3,0.3v3.5h-6v-3.5c0-0.2-0.1-0.3-0.3-0.3h-0.9l4.2-2.6l4.2,2.6H232.3z"/>
</g>
<path d="M452.2,219.4l-0.1-4l-3.8,1.5c-3.7,1.5-6.9,2.9-9.9,4.3c-0.1-2.9-0.2-5.8-0.4-9c3.1-1.5,6.1-3.4,8.8-5.7l1.1-1l-0.1-1.5
	c-4.7-50.9-27.2-99-63.5-135.3C355.5,40,320,20.1,281.4,10.7l1-3.8c-33.5-8.6-73.9-9.1-105.7-1.2l0.9,3.5
	c-41.2,8.7-79,29.2-109.5,59.6C31.8,105.1,9.2,153.1,4.5,204.1l-0.1,1.5l1.1,1c2.7,2.3,5.7,4.2,8.8,5.7c-0.2,3-0.3,6-0.4,9
	c-3.1-1.4-6.2-2.8-9.9-4.3l-3.8-1.5l-0.1,4c-0.1,3.1-0.2,5.7-0.2,7.7c0,59.8,23.3,115.9,65.5,158.2c42.3,42.3,98.4,65.5,158.2,65.5
	c0.8,0,1.7,0,2.4,0c0.8,0,1.7,0,2.5,0c59.8,0,115.9-23.3,158.2-65.5c42.3-42.3,65.5-98.4,65.5-158.2
	C452.4,225.1,452.3,222.6,452.2,219.4z M10.3,203.1c4.9-49.1,26.8-95.3,61.8-130.3C112.6,32.3,166.5,10,223.7,10c0.8,0,1.6,0,2.4,0
	l0,0l0,0c0.8,0,1.6,0,2.4,0c57.3,0,111.1,22.3,151.6,62.8c35,35,56.9,81.2,61.8,130.3c-2.2,1.7-4.4,3-6.8,4.2
	c-2.3-24.2-8.9-47.5-19.5-69.1c-10.1-21.9-24.1-42-41.4-59.4c-38.9-38.9-90.6-60.3-145.6-60.3c-0.8,0-1.7,0-2.4,0
	c-0.8,0-1.7,0-2.5,0c-55,0-106.7,21.4-145.6,60.3c-17.4,17.4-31.3,37.5-41.4,59.4c-10.6,21.6-17.3,44.9-19.5,69.1
	C14.8,206.1,12.5,204.7,10.3,203.1z M228.7,40c-31.1,0-56.4,24.9-57.2,55.8H83.9c1.4-1.5,2.9-2.9,4.3-4.4
	c37.2-36,86.2-55.8,138-55.8c51.8,0,100.8,19.8,138,55.8c1.5,1.4,2.9,2.9,4.3,4.4h-82.7C285.1,64.9,259.7,40,228.7,40z M280.2,97.2
	c0,28.4-23.1,51.5-51.5,51.5c-28.4,0-51.5-23.1-51.5-51.5s23.1-51.5,51.5-51.5C257.1,45.6,280.2,68.8,280.2,97.2z M171.5,98.6
	c0.8,30.9,26.1,55.8,57.2,55.8c31.1,0,56.4-24.9,57.2-55.8h85.4c32.8,35.1,50.7,79.9,50.7,127.3c0,50.6-20.5,98.4-57.8,134.4
	c-37.2,36-86.2,55.8-138,55.8c-51.8,0-100.8-19.8-138-55.8C51,324.2,30.5,276.5,30.5,225.9c0-47.3,17.9-92.1,50.7-127.3H171.5z
	 M382.9,381.3c-41.2,41.2-95.9,63.9-154.2,63.9c-0.8,0-1.6,0-2.5,0c-0.8,0-1.6,0-2.4,0c-58.2,0-113-22.7-154.2-63.9
	C28.4,340.1,5.7,285.4,5.7,227.1c0-1,0-2.1,0-3.4c3.8,1.6,7,3.1,10.6,4.8c0.3,20.5,3.7,40.6,10,59.7c9.8,31.7,27.2,60.8,51.4,84.9
	c39,39,90.9,60.5,146.1,60.5c0.8,0,1.7,0,2.4,0c0.8,0,1.7,0,2.5,0c55.2,0,107-21.5,146.1-60.5c24.1-24.1,41.6-53.2,51.3-84.9
	c6.3-19.1,9.7-39.2,10-59.7c3.6-1.7,6.8-3.2,10.6-4.8c0,1.3,0,2.4,0,3.4C446.7,285.4,424,340.1,382.9,381.3z"/>
<g>
	<path d="M220.2,97.7V87.2l1.5,0.1c1.7,0.1,3.1,0.9,4.6,1.7c0.7,0.4,1.3,0.7,2,1c0.2,0.1,0.3,0.1,0.3,0.1c0,0,0.1,0,0.3-0.1l0,0
		c0.6-0.3,1.3-0.6,2-1c1.4-0.8,2.9-1.5,4.6-1.7l1.5-0.1v5l-2.8,1.3v-2.9c-0.6,0.3-1.3,0.6-2,1c-0.7,0.4-1.4,0.8-2.2,1.1l0,0
		c-0.5,0.2-0.9,0.3-1.4,0.3c-0.4,0-0.8-0.1-1.3-0.3l0,0c-0.8-0.3-1.6-0.7-2.3-1.1c-0.7-0.4-1.3-0.7-2-1v7.1H220.2z"/>
</g>
<g>
	<path d="M223.2,100.7c0,0.9,0.6,1.7,1.4,2.3c1,0.8,2.4,1.3,3.7,1.3c2.1,0,3.5-0.4,4.4-1.3c0.9-0.8,1.3-2.2,1.4-4.2c0-0.6,0-1.3,0-2
		c0-0.6,0-0.5,0-0.6l2.8-1.4l0,2c0,0.7,0,1.5,0,2c-0.1,2.7-0.8,4.8-2.3,6.2c-1.5,1.4-3.5,2-6.4,2c-1.9,0-3.9-0.7-5.4-1.9
		c-1.5-1.1-2.5-2.7-2.5-4.6H223.2z"/>
</g>
</svg>
