<?xml version="1.0" encoding="utf-8"?>
<!-- Generator: Adobe Illustrator 22.1.0, SVG Export Plug-In . SVG Version: 6.00 Build 0)  -->
<svg version="1.1" baseProfile="tiny" id="Layer_1" xmlns="http://www.w3.org/2000/svg" xmlns:xlink="http://www.w3.org/1999/xlink"
	 x="0px" y="0px" viewBox="0 0 512 512" xml:space="preserve">
<g>
	<path d="M426.6,85.6c14.4,1.9,27.9,3.7,41.5,5.3c10.5,1.3,16.1,7.3,15.9,18c-0.4,26-0.9,52-1.4,78c-0.2,9.7-0.3,19.3-0.6,29
		c-0.1,5.1-2,7-7,7c-6.5,0-9.6,2.4-9.8,9.3c-0.5,13.1-0.6,26.3-0.6,39.5c0,4.4,4.2,7.9,9,8.3c5.8,0.4,7.2,1.9,7.1,7.8
		c-0.6,30.8-1.1,61.6-1.8,92.5c-0.2,9.6-5.1,15.1-14.7,16.3c-13.1,1.5-26.1,2.7-39.9,4.1c-0.1,1.8-0.3,3.7-0.3,5.6
		c-0.2,28.7-0.3,57.3-0.5,86c-0.1,9.1-4.5,14-13.6,15.3c-9.1,1.3-18.2,2.5-27.1,4.2c-8,1.5-14.7-1.5-21.3-5.2
		c-2.8-1.5-4.9-2.2-7.9,0.4c-4.2,3.6-8.9,2.2-13.5-0.2c-25-13.2-50-26.4-75.1-39.6c-35.3-18.6-70.6-37.3-106.1-55.7
		c-7.2-3.7-10.3-8.9-9.9-16.7c1.8-38.8,3.6-77.6,5.4-116.3c1.5-32.5,3-64.9,4.6-97.4c2-42.4,3.9-84.9,6-127.3
		c0.4-8.3,4.1-12.2,12.4-13.7c65.1-12.2,130.2-24.5,195.3-36.3c7.4-1.3,15.3-0.3,22.9,0c6.2,0.2,12.3,0.8,18.5,1.2
		c7.4,0.5,13,6.2,13,13.8c-0.1,20.3-0.2,40.7-0.4,61C426.6,81.5,426.6,83.4,426.6,85.6z M276.2,31c-0.2,1-0.3,1.7-0.4,2.3
		c-2.7,47.7-5.4,95.5-8,143.2c-2.1,39.1-4.1,78.2-6.2,117.3c-2.7,50.9-5.5,101.8-8.3,152.7c-0.2,3,0.9,4.4,3.4,5.8
		c29,15.2,58,30.5,87,45.8c4.9,2.6,6.1,1.9,6.4-3.7c2.7-43.9,5.3-87.8,7.9-131.7c2.1-35.4,4.2-70.8,6.3-106.2
		c2.5-42.4,5.1-84.8,7.6-127.2c2.2-35.9,4.2-71.8,6.4-107.7c0.5-8.5-0.4-9.5-8.7-8c-19.1,3.6-38.3,7.1-57.4,10.7
		C300.3,26.4,288.3,28.7,276.2,31z M245.1,445.8c7.4-138.1,14.8-275.4,22.2-412.9c-2.1,0.2-3.2,0.2-4.4,0.4
		c-27.6,5.2-55.2,10.5-82.9,15.4c-4.4,0.8-5.9,2.6-6.1,6.8c-2.6,57.1-5.3,114.1-7.9,171.2c-2.6,55.7-5.1,111.5-7.8,167.2
		c-0.2,4.2,0.8,7,5,9.1c25.7,13.3,51.3,26.9,76.9,40.3C241.5,444.1,242.9,444.7,245.1,445.8z M381.5,501.5
		c9.2-1.3,17.5-2.7,25.9-3.5c4.3-0.4,5.8-1.8,5.8-6.4C414,335.7,415,180,416,24.2c0-1.7,0.3-3.4-0.1-5c-0.3-1.1-1.6-2.8-2.5-2.9
		c-6.9-0.6-13.8-1-21.4-1.4C388.5,177.2,385,339,381.5,501.5z M469.1,310.3c-3.2,0-6-0.1-8.8,0c-6.8,0.2-13.7,0.4-20.5,0.7
		c-4,0.1-6.5-1.6-6.7-5.7c-0.2-4.4,2.4-6.3,6.6-6.3c1.7,0,3.3,0,5-0.1c8.3-0.3,16.5-0.6,25-0.9c0-2.9,0-5.2,0-7.3
		c-8.1-3.4-15.3-7.8-15.6-17.2c-0.5-13.6-0.4-27.4,0.4-41c0.8-12.2,6.5-19.9,16.8-21.3c0-5.2,0-10.4,0-16.2c-9.8,0-19.4-0.1-29,0
		c-3.3,0-6-0.8-7-4.3c-1.3-4.2,1.6-7.7,6.5-7.7c9.9-0.1,19.9,0,30,0c0-5,0-9.4,0-14c-2.8,0-5.3,0-7.8,0c-7.7,0-15.3,0-23,0
		c-3.6,0-5.6-2-5.8-5.5c-0.2-3.5,1.4-5.8,5-6.3c1.5-0.2,3-0.1,4.5-0.1c9.1,0,18.3,0,27.7,0c0-4.6,0-8.6,0-13c-10.5,0-20.6,0-30.8,0
		c-4,0-6.4-1.9-6.4-6c0-4.1,2.4-6,6.4-6c6.8,0,13.7,0,20.5,0c3.6,0,7.2,0,10.8,0c0-5.1,0-9.4,0-14c-9.7,0-19.2-0.1-28.7,0
		c-3.6,0-6.2-1.1-7-4.9c-0.8-4.2,1.9-7,6.8-7.1c9.6-0.1,19.1,0,28.7,0c0.2-0.5,0.3-1.1,0.5-1.6c-1.8-0.9-3.6-2.4-5.5-2.7
		c-7.2-1.1-14.5-2-21.8-2.8c-6.2-0.7-12.4-1.3-19.4-2.1c0,3,0,5.3,0,7.6c-0.5,64.2-1,128.3-1.4,192.5c-0.2,29-0.2,58-0.4,87
		c0,4.2,1.6,5.5,5.6,5.1c10.9-1.2,21.9-2,32.8-3.3c1.9-0.2,3.7-2.1,5.5-3.2c-0.2-0.6-0.5-1.2-0.7-1.7c-2.3,0.2-4.5,0.3-6.8,0.6
		c-6.8,0.8-13.6,1.6-20.3,2.5c-4.1,0.5-7-0.9-7.5-5.2c-0.5-4.4,2-6.3,6.2-6.7c8.4-0.9,16.9-2.1,25.3-2.9c2.7-0.3,4-1.1,3.8-3.9
		c-0.1-2.1,0-4.2,0-6.8c-9.4,0.6-18.3,1.1-27.2,1.6c-5.5,0.3-8-1.5-8.1-5.7c-0.2-4.1,2.2-6,7.7-6.3c9.3-0.5,18.5-1.2,27.9-1.7
		c0-4.3,0-8,0-11.9c-9.5,0.6-18.6,1.1-27.8,1.7c-4.2,0.3-7.4-0.8-7.8-5.5c-0.4-4.1,2.1-6.2,7.5-6.5c9.4-0.6,18.8-1.2,28.5-1.8
		C469.1,318,469.1,314.4,469.1,310.3z M370.7,498.5c2-94.8,4-188.5,6.1-283.1c-0.5,5.5-1.1,10-1.4,14.6
		c-2.1,35.4-4.2,70.8-6.3,106.2c-1.9,31.1-3.8,62.2-5.6,93.2c-1.2,19.8-2.3,39.6-3.4,59.4c-0.1,1.7,0.4,4.2,1.6,5.1
		C364,495.7,367.1,496.7,370.7,498.5z"/>
	<path d="M30.2,330.4c0,1.8,0,3.5,0,5.3c0,31.5,0,63,0,94.5c0,6.5-0.5,7-7.2,7c-6.5,0-7.1-0.5-7.1-7.2c0-40.8,0-81.6,0-122.4
		c0-3-0.7-6.7,3.3-7.3c3.7-0.6,7.4-0.9,10.5,3.3c24,33,48.3,65.7,72.5,98.5c1,1.3,2,2.6,4.1,5.3c0-3.1,0-4.7,0-6.4
		c0-31.2,0-62.3,0-93.5c0-6.8,6.3-10.6,12.2-7c1.4,0.9,2.4,3.6,2.4,5.5c0.1,41.6,0.1,83.3,0,124.9c0,2-1.6,5.4-3.1,5.8
		c-3.3,0.8-6.9,1.4-9.7-2.5c-12.1-16.9-24.6-33.6-36.9-50.3C57.8,366,44.5,348,31.3,330.1C30.9,330.2,30.5,330.3,30.2,330.4z"/>
	<path d="M53.8,197.5c15.6,0,30.4,0,45.2,0c7.1,0,9.8,3.4,7.5,10.2c-0.5,1.5-3,3.3-4.7,3.3c-19.3,0.2-38.6,0.2-58,0.1
		c-4,0-4.8-2.6-4.8-6c0.1-19.5,0-39,0-58.5c0-21.5,0-43,0-64.5c0-7.5,0.6-8.1,7.2-8.1c6.9,0,7.4,0.5,7.4,7.9c0,36.3,0,72.6,0,109
		C53.8,192.9,53.8,194.8,53.8,197.5z"/>
</g>
<g>
	<path d="M400,483.4l5.9,1.5v2l-18.6-5v-2.3l18.6-5v2l-5.9,1.6V483.4z M398.1,478.5l-5.4,1.4c-1.2,0.3-2.3,0.5-3.4,0.8v0
		c1.1,0.2,2.2,0.5,3.4,0.7l5.4,1.4V478.5z"/>
	<path d="M408.6,460.5c-0.7,2-1.4,3.9-2.2,5.7c-0.1,0.3-0.3,0.6-0.3,0.9c-0.2,3.5-3.4,6.5-9.4,6.5c-6,0-9.8-2.9-9.8-6.9
		c0-4,3.9-6.6,9.4-6.6c4.8,0,7.8,1.8,8.9,4.2h0.1c0.5-1.5,0.9-3.1,1.2-4.3L408.6,460.5z M404.2,466.8c0-3-3.5-4.7-7.7-4.7
		c-3.7,0-7.6,1.5-7.6,4.7c0,3.2,3.8,4.8,7.8,4.8C400.6,471.5,404.2,469.8,404.2,466.8L404.2,466.8z"/>
	<path d="M400,455.5l5.9,1.5v2l-18.6-5v-2.3l18.6-5v2l-5.9,1.6V455.5z M398.1,450.6l-5.4,1.4c-1.2,0.3-2.3,0.5-3.4,0.8v0
		c1.1,0.2,2.2,0.5,3.4,0.7l5.4,1.4V450.6z"/>
	<path d="M387.5,444.4c-0.2-1-0.4-2.3-0.4-3.7c0-2,0.5-3.4,1.5-4.3c0.8-0.7,2.1-1.2,3.5-1.2c2.5,0,4.1,1.2,4.8,2.8h0.1
		c0.5-1.1,1.8-1.8,3.8-2.2c2.6-0.5,4.4-0.8,5.1-1.1v2c-0.6,0.2-2.1,0.6-4.4,1c-2.6,0.4-3.5,1.2-3.6,3v1.8h8.1v1.9H387.5z M396,442.5
		v-2c0-2-1.4-3.3-3.5-3.3c-2.4,0-3.5,1.4-3.5,3.4c0,0.9,0.1,1.6,0.2,1.9H396z"/>
	<path d="M400,430.1l5.9,1.5v2l-18.6-5v-2.3l18.6-5v2l-5.9,1.6V430.1z M398.1,425.3l-5.4,1.4c-1.2,0.3-2.3,0.5-3.4,0.8v0
		c1.1,0.2,2.2,0.5,3.4,0.7l5.4,1.4V425.3z"/>
</g>
</svg>
