<?xml version="1.0" encoding="UTF-8" standalone="no"?>
<svg
   width="472.50201pt"
   height="525.00049pt"
   version="1.1"
   viewBox="0 0 472.50201 525.00049"
   id="svg213"
   sodipodi:docname="icon.svg"
   inkscape:version="1.2.1 (9c6d41e410, 2022-07-14)"
   xmlns:inkscape="http://www.inkscape.org/namespaces/inkscape"
   xmlns:sodipodi="http://sodipodi.sourceforge.net/DTD/sodipodi-0.dtd"
   xmlns="http://www.w3.org/2000/svg"
   xmlns:svg="http://www.w3.org/2000/svg">
  <sodipodi:namedview
     id="namedview215"
     pagecolor="#ffffff"
     bordercolor="#666666"
     borderopacity="1.0"
     inkscape:showpageshadow="2"
     inkscape:pageopacity="0.0"
     inkscape:pagecheckerboard="0"
     inkscape:deskcolor="#d1d1d1"
     inkscape:document-units="pt"
     showgrid="false"
     inkscape:zoom="1.2492857"
     inkscape:cx="315.38022"
     inkscape:cy="507.48999"
     inkscape:window-width="2560"
     inkscape:window-height="1369"
     inkscape:window-x="-8"
     inkscape:window-y="-8"
     inkscape:window-maximized="1"
     inkscape:current-layer="g211" />
  <defs
     id="defs161">
    <symbol
       id="p"
       overflow="visible">
      <path
         d="m 29.312,-1.75 c -1.5117,0.78125 -3.0898,1.3711 -4.7344,1.7656 -1.6367,0.40625 -3.3398,0.60938 -5.1094,0.60938 -5.3125,0 -9.5273,-1.4844 -12.641,-4.4531 -3.1055,-2.9688 -4.6562,-7 -4.6562,-12.094 0,-5.094 1.5508,-9.125 4.6562,-12.094 3.1133,-2.9688 7.3281,-4.4531 12.641,-4.4531 1.7695,0 3.4727,0.19922 5.1094,0.59375 1.6445,0.39844 3.2227,0.99219 4.7344,1.7812 v 6.5938 c -1.5312,-1.0391 -3.0391,-1.8008 -4.5156,-2.2812 -1.4805,-0.48828 -3.0391,-0.73438 -4.6719,-0.73438 -2.9375,0 -5.2461,0.94531 -6.9219,2.8281 -1.6797,1.875 -2.5156,4.4648 -2.5156,7.7656 0,3.293 0.83594,5.8828 2.5156,7.7656 1.6758,1.875 3.9844,2.8125 6.9219,2.8125 1.6328,0 3.1914,-0.23828 4.6719,-0.71875 1.4766,-0.48828 2.9844,-1.2539 4.5156,-2.2969 z"
         id="path113" />
    </symbol>
    <symbol
       id="c"
       overflow="visible">
      <path
         d="m 21.453,-17.406 c -0.67969,-0.3125 -1.3516,-0.53906 -2.0156,-0.6875 -0.65625,-0.15625 -1.3203,-0.23438 -1.9844,-0.23438 -1.9688,0 -3.4844,0.63281 -4.5469,1.8906 -1.0547,1.2617 -1.5781,3.0703 -1.5781,5.4219 V 6.2e-4 H 3.6718 v -23.922 h 7.6562 v 3.9219 c 0.97656,-1.5625 2.1016,-2.7031 3.375,-3.4219 1.2812,-0.71875 2.8125,-1.0781 4.5938,-1.0781 0.25,0 0.52344,0.01172 0.82812,0.03125 0.30078,0.02344 0.73438,0.07031 1.2969,0.14062 z"
         id="path116" />
    </symbol>
    <symbol
       id="a"
       overflow="visible">
      <path
         d="m 27.562,-12.031 v 2.1875 H 9.671 c 0.1875,1.793 0.83203,3.1367 1.9375,4.0312 1.1133,0.89844 2.6719,1.3438 4.6719,1.3438 1.6016,0 3.25,-0.23438 4.9375,-0.70312 1.6875,-0.47656 3.4219,-1.2031 5.2031,-2.1719 v 5.8906 c -1.8047,0.6875 -3.6094,1.2031 -5.4219,1.5469 -1.8125,0.35156 -3.6211,0.53125 -5.4219,0.53125 -4.3359,0 -7.7031,-1.0977 -10.109,-3.2969 -2.3984,-2.207 -3.5938,-5.2969 -3.5938,-9.2656 0,-3.9062 1.1758,-6.9727 3.5312,-9.2031 2.3633,-2.2383 5.6094,-3.3594 9.7344,-3.3594 3.7578,0 6.7695,1.1367 9.0312,3.4062 2.2578,2.2617 3.3906,5.2812 3.3906,9.0625 z m -7.8594,-2.5312 c 0,-1.457 -0.42969,-2.6289 -1.2812,-3.5156 -0.84375,-0.89453 -1.9492,-1.3438 -3.3125,-1.3438 -1.4922,0 -2.6992,0.41797 -3.625,1.25 -0.91797,0.83594 -1.4922,2.0391 -1.7188,3.6094 z"
         id="path119" />
    </symbol>
    <symbol
       id="i"
       overflow="visible">
      <path
         d="m 14.391,-10.766 c -1.5938,0 -2.793,0.27344 -3.5938,0.8125 -0.80469,0.54297 -1.2031,1.3398 -1.2031,2.3906 0,0.96875 0.32031,1.7305 0.96875,2.2812 0.64453,0.54297 1.5469,0.8125 2.7031,0.8125 1.4375,0 2.6445,-0.51562 3.625,-1.5469 0.98828,-1.0312 1.4844,-2.3203 1.4844,-3.875 v -0.875 z m 11.688,-2.8906 V -6e-4 h -7.7031 v -3.5469 c -1.0312,1.4492 -2.1875,2.5078 -3.4688,3.1719 -1.2813,0.6641 -2.8398,1 -4.6719,1 -2.4805,0 -4.4961,-0.72266 -6.0469,-2.1719 -1.543,-1.4453 -2.3125,-3.3203 -2.3125,-5.625 0,-2.8125 0.96094,-4.8672 2.8906,-6.1719 1.9375,-1.3125 4.9688,-1.9688 9.0938,-1.9688 h 4.5156 v -0.60938 c 0,-1.207 -0.48047,-2.0938 -1.4375,-2.6562 -0.94922,-0.5625 -2.4375,-0.84375 -4.4688,-0.84375 -1.6367,0 -3.1562,0.16797 -4.5625,0.5 -1.4062,0.32422 -2.7188,0.8125 -3.9375,1.4688 v -5.8281 c 1.6445,-0.40625 3.2891,-0.70703 4.9375,-0.90625 1.6562,-0.20703 3.3047,-0.3125 4.9531,-0.3125 4.3203,0 7.4375,0.85547 9.3438,2.5625 1.9141,1.6992 2.875,4.4609 2.875,8.2812 z"
         id="path122" />
    </symbol>
    <symbol
       id="b"
       overflow="visible">
      <path
         d="m 12.031,-30.719 v 6.7969 h 7.875 v 5.4688 h -7.875 v 10.141 c 0,1.1172 0.21875,1.8711 0.65625,2.2656 0.4375,0.38672 1.3125,0.57812 2.625,0.57812 h 3.9375 v 5.4688 h -6.5625 c -3.0234,0 -5.1641,-0.62891 -6.4219,-1.8906 -1.2617,-1.2578 -1.8906,-3.3984 -1.8906,-6.4219 v -10.141 h -3.7969 v -5.4688 h 3.7969 v -6.7969 z"
         id="path125" />
    </symbol>
    <symbol
       id="h"
       overflow="visible">
      <path
         d="m 19.953,-20.422 v -12.812 h 7.6875 V 0 H 19.953 v -3.4531 c -1.0547,1.4062 -2.2148,2.4375 -3.4844,3.0938 -1.2734,0.65625 -2.7422,0.98438 -4.4062,0.98438 -2.9492,0 -5.3711,-1.1719 -7.2656,-3.5156 -1.8867,-2.3438 -2.8281,-5.3594 -2.8281,-9.0469 0,-3.6875 0.94141,-6.7031 2.8281,-9.0469 1.8945,-2.3438 4.3164,-3.5156 7.2656,-3.5156 1.6562,0 3.1172,0.33594 4.3906,1 1.2812,0.65625 2.4453,1.6836 3.5,3.0781 z m -5.0469,15.484 c 1.6445,0 2.8945,-0.59766 3.75,-1.7969 0.86328,-1.1953 1.2969,-2.9297 1.2969,-5.2031 0,-2.2812 -0.43359,-4.0195 -1.2969,-5.2188 -0.85547,-1.1953 -2.1055,-1.7969 -3.75,-1.7969 -1.625,0 -2.8711,0.60156 -3.7344,1.7969 -0.85547,1.1992 -1.2812,2.9375 -1.2812,5.2188 0,2.2734 0.42578,4.0078 1.2812,5.2031 0.86328,1.1992 2.1094,1.7969 3.7344,1.7969 z"
         id="path128" />
    </symbol>
    <symbol
       id="g"
       overflow="visible">
      <path
         d="m 16.406,-4.9375 c 1.6328,0 2.8828,-0.59766 3.75,-1.7969 0.86328,-1.1953 1.2969,-2.9297 1.2969,-5.2031 0,-2.2812 -0.43359,-4.0195 -1.2969,-5.2188 -0.86719,-1.1953 -2.1172,-1.7969 -3.75,-1.7969 -1.6367,0 -2.8906,0.60547 -3.7656,1.8125 -0.875,1.1992 -1.3125,2.9336 -1.3125,5.2031 0,2.2617 0.4375,3.9961 1.3125,5.2031 0.875,1.1992 2.1289,1.7969 3.7656,1.7969 z m -5.0781,-15.484 c 1.0508,-1.3945 2.2188,-2.4219 3.5,-3.0781 1.2812,-0.66406 2.7539,-1 4.4219,-1 2.9453,0 5.3672,1.1719 7.2656,3.5156 1.8945,2.3438 2.8438,5.3594 2.8438,9.0469 0,3.6875 -0.94922,6.7031 -2.8438,9.0469 -1.8984,2.3438 -4.3203,3.5156 -7.2656,3.5156 -1.668,0 -3.1406,-0.33594 -4.4219,-1 -1.2813,-0.66406 -2.4492,-1.6914 -3.5,-3.0781 V 4e-4 H 3.6717 v -33.234 h 7.6562 z"
         id="path131" />
    </symbol>
    <symbol
       id="f"
       overflow="visible">
      <path
         d="m 0.53125,-23.922 h 7.6562 l 6.4219,16.234 5.4688,-16.234 h 7.6562 l -10.062,26.188 c -1.0117,2.6641 -2.1953,4.5234 -3.5469,5.5781 -1.3438,1.0625 -3.1211,1.5938 -5.3281,1.5938 H 4.37545 V 4.4223 h 2.3906 c 1.3008,0 2.2422,-0.21094 2.8281,-0.625 0.59375,-0.40625 1.0547,-1.1484 1.3906,-2.2188 l 0.20312,-0.65625 z"
         id="path134" />
    </symbol>
    <symbol
       id="e"
       overflow="visible">
      <path
         d="m 4.0156,-31.891 h 8.2188 v 11.641 l 11.859,-11.641 h 9.5469 L 18.2813,-16.797 35.2193,0 H 24.9383 L 12.2353,-12.562 V 0 H 4.0165 Z"
         id="path137" />
    </symbol>
    <symbol
       id="d"
       overflow="visible">
      <path
         d="m 15.062,-19.031 c -1.6992,0 -2.9961,0.60938 -3.8906,1.8281 -0.88672,1.2188 -1.3281,2.9766 -1.3281,5.2656 0,2.293 0.44141,4.0469 1.3281,5.2656 0.89453,1.2188 2.1914,1.8281 3.8906,1.8281 1.6641,0 2.9375,-0.60938 3.8125,-1.8281 0.88281,-1.2188 1.3281,-2.9727 1.3281,-5.2656 0,-2.2891 -0.44531,-4.0469 -1.3281,-5.2656 -0.875,-1.2188 -2.1484,-1.8281 -3.8125,-1.8281 z m 0,-5.4688 c 4.1133,0 7.3281,1.1094 9.6406,3.3281 2.3125,2.2187 3.4688,5.2969 3.4688,9.2344 0,3.9297 -1.1562,7.0078 -3.4688,9.2344 -2.3125,2.2188 -5.5273,3.3281 -9.6406,3.3281 -4.1367,0 -7.3711,-1.1094 -9.7031,-3.3281 -2.3242,-2.2266 -3.4844,-5.3047 -3.4844,-9.2344 0,-3.9375 1.1602,-7.0156 3.4844,-9.2344 2.332,-2.2188 5.5664,-3.3281 9.7031,-3.3281 z"
         id="path140" />
    </symbol>
    <symbol
       id="o"
       overflow="visible">
      <path
         d="m 25.844,-19.953 c 0.96875,-1.4766 2.1172,-2.6016 3.4531,-3.375 1.332,-0.78125 2.7969,-1.1719 4.3906,-1.1719 2.75,0 4.8438,0.85156 6.2812,2.5469 1.4375,1.6875 2.1562,4.1523 2.1562,7.3906 V -4e-4 h -7.6875 v -12.469 c 0.0078,-0.1875 0.01953,-0.37891 0.03125,-0.57812 0.0078,-0.19531 0.01563,-0.48438 0.01563,-0.85938 0,-1.6953 -0.25,-2.9258 -0.75,-3.6875 -0.5,-0.75781 -1.3086,-1.1406 -2.4219,-1.1406 -1.4492,0 -2.5703,0.60156 -3.3594,1.7969 -0.79297,1.1992 -1.2031,2.9297 -1.2344,5.1875 v 11.75 h -7.6875 v -12.469 c 0,-2.6562 -0.23047,-4.3633 -0.6875,-5.125 -0.44922,-0.75781 -1.2578,-1.1406 -2.4219,-1.1406 -1.4688,0 -2.6055,0.60547 -3.4062,1.8125 -0.79297,1.1992 -1.1875,2.918 -1.1875,5.1562 V -5e-4 h -7.7031 v -23.922 h 7.7031 v 3.5 c 0.9375,-1.3516 2.0156,-2.3672 3.2344,-3.0469 1.2188,-0.6875 2.5547,-1.0312 4.0156,-1.0312 1.6562,0 3.1133,0.40234 4.375,1.2031 1.2695,0.79297 2.2344,1.9062 2.8906,3.3438 z"
         id="path143" />
    </symbol>
    <symbol
       id="n"
       overflow="visible">
      <path
         d="m 3.6719,-33.234 h 7.6562 v 18.094 l 8.7969,-8.7812 h 8.8906 l -11.688,10.969 12.594,12.953 H 20.656 L 11.3279,-9.968 V 8e-4 H 3.6717 Z"
         id="path146" />
    </symbol>
    <symbol
       id="m"
       overflow="visible">
      <path
         d="m 3.6719,-23.922 h 7.6562 V 0 H 3.6719 Z m 0,-9.3125 h 7.6562 v 6.2344 H 3.6719 Z"
         id="path149" />
    </symbol>
    <symbol
       id="l"
       overflow="visible">
      <path
         d="m 4.0156,-31.891 h 9.1875 l 11.594,21.875 V -31.891 H 32.594 V 0 H 23.4065 L 11.8125,-21.875 V 0 H 4.0156 Z"
         id="path152" />
    </symbol>
    <symbol
       id="k"
       overflow="visible">
      <path
         d="M 27.734,-14.562 V 0 h -7.7031 v -11.156 c 0,-2.0625 -0.04687,-3.4844 -0.14062,-4.2656 -0.08594,-0.78125 -0.24219,-1.3594 -0.46875,-1.7344 -0.30469,-0.5 -0.71094,-0.88281 -1.2188,-1.1562 -0.51172,-0.28125 -1.0938,-0.42188 -1.75,-0.42188 -1.5938,0 -2.8516,0.61719 -3.7656,1.8438 -0.90625,1.2305 -1.3594,2.9375 -1.3594,5.125 v 11.766 h -7.6562 v -23.922 h 7.6562 v 3.5 c 1.1445,-1.3945 2.3633,-2.4219 3.6562,-3.0781 1.3008,-0.66406 2.7383,-1 4.3125,-1 2.7578,0 4.8516,0.85156 6.2812,2.5469 1.4375,1.6875 2.1562,4.1523 2.1562,7.3906 z"
         id="path155" />
    </symbol>
    <symbol
       id="j"
       overflow="visible">
      <path
         d="M 11.328,-3.4531 V 9.0939 H 3.6718 v -33.016 h 7.6562 v 3.5 c 1.0508,-1.3945 2.2188,-2.4219 3.5,-3.0781 1.2812,-0.66406 2.7539,-1 4.4219,-1 2.9453,0 5.3672,1.1719 7.2656,3.5156 1.8945,2.3438 2.8438,5.3594 2.8438,9.0469 0,3.6875 -0.94922,6.7031 -2.8438,9.0469 -1.8984,2.3438 -4.3203,3.5156 -7.2656,3.5156 -1.668,0 -3.1406,-0.33594 -4.4219,-1 -1.2813,-0.66406 -2.4492,-1.6914 -3.5,-3.0781 z m 5.0781,-15.5 c -1.6367,0 -2.8906,0.60547 -3.7656,1.8125 -0.875,1.1992 -1.3125,2.9336 -1.3125,5.2031 0,2.2617 0.4375,3.9961 1.3125,5.2031 0.875,1.1992 2.1289,1.7969 3.7656,1.7969 1.6328,0 2.8828,-0.59766 3.75,-1.7969 0.86328,-1.1953 1.2969,-2.9297 1.2969,-5.2031 0,-2.2812 -0.43359,-4.0195 -1.2969,-5.2188 -0.86719,-1.1953 -2.1172,-1.7969 -3.75,-1.7969 z"
         id="path158" />
    </symbol>
  </defs>
  <g
     id="g211"
     transform="translate(-113.75,-17.5)">
    <path
       d="m 472.5,17.5 h -245 c -30.16,0.02734 -59.078,12.02 -80.402,33.348 -21.328,21.324 -33.32,50.242 -33.348,80.402 v 350 c 0.0195,6.957 2.793,13.621 7.7109,18.539 4.918,4.918 11.582,7.6914 18.539,7.7109 h 8.75 v 26.25 c 0,2.3203 0.92188,4.5469 2.5625,6.1875 1.64062,1.6406 3.8672,2.5625 6.1875,2.5625 h 52.5 c 3.3086,0.0391 6.3398,-1.8359 7.7891,-4.8125 l 15.137,-30.188 h 234.15 l 15.137,30.188 c 1.4492,2.9766 4.4805,4.8516 7.7891,4.8125 h 52.5 c 2.3203,0 4.5469,-0.92188 6.1875,-2.5625 1.6406,-1.64062 2.5625,-3.8672 2.5625,-6.1875 v -26.25 h 8.75 c 6.957,-0.0195 13.621,-2.793 18.539,-7.7109 4.918,-4.918 7.6914,-11.582 7.7109,-18.539 v -350 C 586.22466,101.09 574.232,72.172 552.904,50.848 531.58,29.52 502.662,17.528 472.502,17.5 Z M 204.57,525 h -38.324 v -17.5 h 47.074 z m 329.18,0 h -38.324 l -8.75,-17.5 h 47.074 z m 35,-43.75 c 0,2.3203 -0.92188,4.5469 -2.5625,6.1875 C 564.54688,489.0781 562.3203,490 560,490 H 140 c -4.832,0 -8.75,-3.918 -8.75,-8.75 V 280 h 140 v 26.25 c 0.0195,6.957 2.793,13.621 7.7109,18.539 4.918,4.918 11.582,7.6914 18.539,7.7109 h 8.75 v 78.75 c 0,15.629 8.3398,30.074 21.875,37.887 13.535,7.8164 30.215,7.8164 43.75,0 13.535,-7.8125 21.875,-22.258 21.875,-37.887 v -78.75 h 8.75 c 6.957,-0.0195 13.621,-2.793 18.539,-7.7109 4.918,-4.918 7.6914,-11.582 7.7109,-18.539 V 280 h 140 z M 367.5,245 h -35 c -6.957,0.0195 -13.621,2.793 -18.539,7.7109 -4.918,4.918 -7.6914,11.582 -7.7109,18.539 v 43.75 h -8.75 c -4.832,0 -8.75,-3.918 -8.75,-8.75 v -70 c 0,-4.832 3.918,-8.75 8.75,-8.75 h 105 c 2.3203,0 4.5469,0.92188 6.1875,2.5625 1.6406,1.64062 2.5625,3.8672 2.5625,6.1875 v 70 c 0,2.3203 -0.92188,4.5469 -2.5625,6.1875 -1.64062,1.6406 -3.8672,2.5625 -6.1875,2.5625 h -8.75 v -43.75 c -0.0195,-6.957 -2.793,-13.621 -7.7109,-18.539 -4.918,-4.918 -11.582,-7.6914 -18.539,-7.7109 z m 8.75,26.25 v 140 c 0,9.3789 -5.0039,18.043 -13.125,22.734 -8.1211,4.6875 -18.129,4.6875 -26.25,0 -8.1211,-4.6914 -13.125,-13.355 -13.125,-22.734 v -140 c 0,-4.832 3.918,-8.75 8.75,-8.75 h 35 c 2.3203,0 4.5469,0.92188 6.1875,2.5625 1.6406,1.64062 2.5625,3.8672 2.5625,6.1875 z m 192.5,-8.75 h -140 v -26.25 c -0.0195,-6.957 -2.793,-13.621 -7.7109,-18.539 -4.918,-4.918 -11.582,-7.6914 -18.539,-7.7109 h -105 c -6.957,0.0195 -13.621,2.793 -18.539,7.7109 -4.918,4.918 -7.6914,11.582 -7.7109,18.539 v 26.25 h -140 V 131.25 c 0.0156,-25.523 10.16,-49.996 28.207,-68.043 18.047,-18.047 42.52,-28.191 68.043,-28.207 h 245 c 25.523,0.01563 49.996,10.16 68.043,28.207 18.047,18.047 28.191,42.52 28.207,68.043 z"
       id="path163" />
    <path
       d="m 227.5,157.5 c 11.602,0 22.73,-4.6094 30.938,-12.812 8.2031,-8.207 12.812,-19.336 12.812,-30.938 0,-11.602 -4.6094,-22.73 -12.812,-30.938 C 250.231,74.6089 239.102,70 227.5,70 c -11.602,0 -22.73,4.6094 -30.938,12.812 -8.2031,8.207 -12.812,19.336 -12.812,30.938 0.0156,11.598 4.6289,22.719 12.828,30.922 8.2031,8.1992 19.324,12.812 30.922,12.828 z m 0,-70 c 6.9609,0 13.641,2.7656 18.562,7.6875 4.921,4.9219 7.6875,11.602 7.6875,18.562 0,6.96 -2.7656,13.641 -7.6875,18.562 -4.9219,4.921 -11.602,7.6875 -18.562,7.6875 -6.96,0 -13.641,-2.7656 -18.562,-7.6875 -4.921,-4.9219 -7.6875,-11.602 -7.6875,-18.562 0,-6.96 2.7656,-13.641 7.6875,-18.562 C 213.8599,90.2665 220.54,87.5 227.5,87.5 Z"
       id="path165" />
    <path
       d="M 490,87.5 H 332.5 c -9.3789,0 -18.043,5.0039 -22.734,13.125 -4.6875,8.1211 -4.6875,18.129 0,26.25 C 314.4574,134.9961 323.121,140 332.5,140 H 490 c 9.3789,0 18.043,-5.0039 22.734,-13.125 4.6875,-8.1211 4.6875,-18.129 0,-26.25 C 508.0426,92.5039 499.379,87.5 490,87.5 Z m -77.176,35 H 332.5 c -4.832,0 -8.75,-3.918 -8.75,-8.75 0,-4.832 3.918,-8.75 8.75,-8.75 h 80.324 c -2.0977,5.6445 -2.0977,11.855 0,17.5 z m 24.676,0 c -3.5391,0 -6.7305,-2.1328 -8.082,-5.4023 -1.3555,-3.2695 -0.60938,-7.0312 1.8945,-9.5352 2.50388,-2.504 6.2656,-3.25 9.5352,-1.8945 3.2695,1.3516 5.4023,4.543 5.4023,8.082 0,2.3203 -0.92188,4.5469 -2.5625,6.1875 -1.64062,1.6406 -3.8672,2.5625 -6.1875,2.5625 z m 52.5,0 h -27.824 c 2.0977,-5.6445 2.0977,-11.855 0,-17.5 H 490 c 4.832,0 8.75,3.918 8.75,8.75 0,4.832 -3.918,8.75 -8.75,8.75 z"
       id="path167" />
  </g>
</svg>
