<?xml version="1.0" encoding="utf-8"?>
<!-- Generator: Adobe Illustrator 21.0.0, SVG Export Plug-In . SVG Version: 6.00 Build 0)  -->
<svg version="1.1" id="Layer_1" xmlns="http://www.w3.org/2000/svg" xmlns:xlink="http://www.w3.org/1999/xlink" x="0px" y="0px"
	 viewBox="0 0 1417.3 1417.3" style="enable-background:new 0 0 1417.3 1417.3;" xml:space="preserve">
<g>
	<path d="M1181-0.3H235.5C105.4-0.3-0.4,105.5-0.4,235.6v945.5c0,130.1,105.8,235.9,235.9,235.9H1181
		c130.1,0,235.9-105.8,235.9-235.9V235.6C1416.9,105.5,1311.1-0.3,1181-0.3z M1392.2,1181.1c0,116.5-94.7,211.2-211.2,211.2H235.5
		c-116.5,0-211.2-94.7-211.2-211.2V235.6c0-116.5,94.7-211.2,211.2-211.2H1181c116.5,0,211.2,94.7,211.2,211.2V1181.1z"/>
	<path d="M1174.4,43.4H242.1c-109.6,0-198.8,89.2-198.8,198.8v932.3c0,109.6,89.2,198.8,198.8,198.8h932.3
		c109.6,0,198.8-89.2,198.8-198.8V242.2C1373.2,132.6,1284,43.4,1174.4,43.4z M1356.7,1174.5c0,100.6-81.8,182.4-182.4,182.4H242.1
		c-100.6,0-182.4-81.8-182.4-182.4V242.2c0-100.6,81.8-182.4,182.4-182.4h932.3c100.6,0,182.4,81.8,182.4,182.4V1174.5z"/>
	<path d="M621.7,307.4h173.1c7.9,0,14.4-6.5,14.4-14.4s-6.5-14.4-14.4-14.4H621.7c-7.9,0-14.4,6.5-14.4,14.4
		S613.8,307.4,621.7,307.4z"/>
	<path d="M520.1,773.8c56.2,0,91.8-61.5,91.8-131.7v-0.7c0-70.2-35-131-91.2-131c-56.2,0-91.8,61.5-91.8,131.7v0.7
		C429,713.1,464,773.8,520.1,773.8z M446,641.4c0-59.3,28.4-113.9,74.1-113.9s74.8,55.3,74.8,114.6v0.7
		c0,58.9-28.4,113.9-74.1,113.9S446,701.1,446,642.1V641.4z"/>
	<path d="M647.6,755.3v14.2h150.8v-18.2H673.5l67.5-70.6c38.8-40.8,55.2-64,55.2-99V581c0-39.7-28.1-69.9-65.6-69.9
		c-38.8,0-59.3,20.7-78.6,54.6l12.3,9.5c18.3-30.6,36.6-47.3,64.7-47.3c26.5,0,49.8,21.5,49.8,54.6c0,26.9-12.6,48.8-48.9,87
		L647.6,755.3z"/>
	<path d="M913.9,773.8c44.5,0,77-33.8,77-81.9v-0.7c0-45.5-33.1-76.8-75.7-76.8c-20.5,0-34.7,5.8-48.9,13.8l5.4-95.3h109.5v-18.2
		h-124l-6.3,123.3l12.6,9.5c13.9-8.7,29.3-16,49.8-16c35.7,0,60.6,25.1,60.6,60.4v0.7c0,35.7-24.3,64-59.3,64
		c-23.3,0-46.4-14.6-66.3-37.5l-11.7,13.5C855.9,755.3,884,773.8,913.9,773.8z"/>
	<path d="M449.5,850.1h-24.1v76.6h4.9v-28.6h17.9c13.9,0,25.9-8.3,25.9-24.4v-0.2C474.2,858.7,464.1,850.1,449.5,850.1z
		 M469.2,874.1c0,11.4-8.3,18.8-20.7,18.8h-18.2v-37.5h18.8c12,0,20.1,6.4,20.1,18.5V874.1z"/>
	<polygon points="520.1,895.4 493.4,850.1 488.8,850.1 488.8,926.7 493.5,926.7 493.5,860.1 519.8,904.3 520.2,904.3 546.5,860.1 
		546.5,926.7 551.4,926.7 551.4,850.1 546.8,850.1 	"/>
	<path d="M593.9,900c11.7-12.3,16.6-19.3,16.6-29.8V870c0-11.9-8.4-21-19.7-21c-11.7,0-17.8,6.2-23.6,16.4l3.7,2.8
		c5.5-9.2,11-14.2,19.4-14.2c8,0,15,6.5,15,16.4c0,8.1-3.8,14.7-14.7,26.1l-24.8,25.8v4.3h45.3v-5.5h-37.6L593.9,900z"/>
	<rect x="625.1" y="917.4" width="6.3" height="9.3"/>
	<path d="M668.1,880.1c-6.2,0-10.4,1.8-14.7,4.2l1.6-28.7H688v-5.5h-37.3l-1.9,37.1l3.8,2.8c4.2-2.6,8.8-4.8,15-4.8
		c10.7,0,18.2,7.6,18.2,18.2v0.2c0,10.7-7.3,19.3-17.8,19.3c-7,0-13.9-4.4-19.9-11.3l-3.5,4c5.8,6.8,14.2,12.4,23.2,12.4
		c13.4,0,23.1-10.2,23.1-24.6v-0.2C690.9,889.5,680.9,880.1,668.1,880.1z"/>
	<path d="M979.9,857.9h-78c-3.5,0-6.4,2.9-6.4,6.4v10.8h-9.7c-0.3,0-0.5,0.2-0.5,0.5v26.1c0,0.3,0.2,0.5,0.5,0.5h9.7V913
		c0,3.5,2.9,6.4,6.4,6.4h78c3.5,0,6.4-2.9,6.4-6.4v-48.6C986.3,860.8,983.4,857.9,979.9,857.9z M978.9,912h-76v-46.6h76V912z"/>
	<rect x="910" y="869.3" width="12" height="39.3"/>
	<rect x="959.9" y="869.3" width="12" height="39.3"/>
	<rect x="943.2" y="869.3" width="12" height="39.3"/>
	<rect x="926.6" y="869.3" width="12" height="39.3"/>
	<circle cx="791.1" cy="919.5" r="7.2"/>
	<path d="M806.3,898.4c-8.9-6.4-21.5-6.4-30.4,0c-1.6,1.2-2,3.4-0.8,5.1c1.2,1.6,3.4,2,5.1,0.8c6.4-4.6,15.5-4.6,21.9,0
		c0.6,0.5,1.4,0.7,2.1,0.7c1.1,0,2.2-0.5,2.9-1.5C808.3,901.8,807.9,899.6,806.3,898.4z"/>
	<path d="M818.1,882c-7.9-5.7-17.2-8.7-27-8.7c-9.8,0-19.1,3-27,8.7c-1.6,1.2-2,3.4-0.8,5.1c0.7,1,1.8,1.5,2.9,1.5
		c0.7,0,1.5-0.2,2.1-0.7c13.3-9.6,32.2-9.6,45.5,0c1.6,1.2,3.9,0.8,5.1-0.8C820.1,885.4,819.8,883.1,818.1,882z"/>
	<path d="M830.1,865.5c-11.4-8.2-24.9-12.6-38.9-12.6c-14.1,0-27.6,4.3-38.9,12.6c-1.6,1.2-2,3.4-0.8,5.1c1.2,1.6,3.4,2,5.1,0.8
		c10.1-7.3,22.1-11.2,34.7-11.2c12.6,0,24.6,3.9,34.7,11.2c0.6,0.5,1.4,0.7,2.1,0.7c1.1,0,2.2-0.5,2.9-1.5
		C832.1,868.9,831.7,866.7,830.1,865.5z"/>
	<path d="M1004.7,818.3H412.6c-2,0-3.7,1.7-3.7,3.7c0,2,1.7,3.7,3.7,3.7h592.2c2,0,3.7-1.7,3.7-3.7
		C1008.4,820,1006.8,818.3,1004.7,818.3z"/>
</g>
</svg>
