<?xml version="1.0" encoding="utf-8"?>
<!-- Generator: Adobe Illustrator 21.0.0, SVG Export Plug-In . SVG Version: 6.00 Build 0)  -->
<svg version="1.1" id="Layer_1" xmlns="http://www.w3.org/2000/svg" xmlns:xlink="http://www.w3.org/1999/xlink" x="0px" y="0px"
	 viewBox="0 0 76.2 98.7" style="enable-background:new 0 0 76.2 98.7;" xml:space="preserve">
<style type="text/css">
	.st0{fill-rule:evenodd;clip-rule:evenodd;}
</style>
<g>
	<path class="st0" d="M57.8,0.3H18.3c-9.8,0-17.9,8-17.9,17.9v62.4c0,9.8,8,17.9,17.9,17.9h39.5c9.8,0,17.9-8,17.9-17.9V18.2
		C75.7,8.3,67.7,0.3,57.8,0.3z M74,80.5c0,8.9-7.2,16.2-16.2,16.2H18.3c-8.9,0-16.2-7.2-16.2-16.2V18.2C2.2,9.3,9.4,2,18.3,2h39.5
		C66.7,2,74,9.3,74,18.2V80.5z"/>
	<path class="st0" d="M24.9,43.2h4v-1.9v-10v-1.9h-4v1.9h-4.1c-2.8,0-5,2.2-5,5c0,2.8,2.2,5,5,5h4.1V43.2z"/>
	<path class="st0" d="M56.5,31.2h-4.1v-1.9h-4v1.9v10v1.9h4v-1.9h4.1c2.8,0,5-2.2,5-5C61.4,33.5,59.2,31.2,56.5,31.2z"/>
	<rect x="37.1" y="31.7" class="st0" width="3.1" height="12.4"/>
	<rect x="24" y="57.8" transform="matrix(0.866 -0.5 0.5 0.866 -28.5719 21.3661)" class="st0" width="3.1" height="12.4"/>
	<rect x="45.3" y="62.5" transform="matrix(0.5 -0.866 0.866 0.5 -29.7054 76.5451)" class="st0" width="12.4" height="3.1"/>
</g>
</svg>
