<?xml version="1.0" encoding="utf-8"?>
<!-- Generator: Adobe Illustrator 13.0.0, SVG Export Plug-In . SVG Version: 6.00 Build 14948)  -->
<!DOCTYPE svg PUBLIC "-//W3C//DTD SVG 1.1//EN" "http://www.w3.org/Graphics/SVG/1.1/DTD/svg11.dtd">
<svg version="1.1" id="Layer_1" xmlns="http://www.w3.org/2000/svg" xmlns:xlink="http://www.w3.org/1999/xlink" x="0px" y="0px"
	 width="372.486px" height="448.168px" viewBox="0 0 372.486 448.168" enable-background="new 0 0 372.486 448.168"
	 xml:space="preserve">
<g>
	<g>
		<path fill-rule="evenodd" clip-rule="evenodd" d="M102.038,0.327c51.403-3.801,88.847,26.102,106,61
			c9.695,19.725,11,41.449,11,72.5c0,58.475,0,106.901,0,166.5c0,29.602,0.978,56.357-6.5,76.5
			c-14.713,39.636-49.192,67.576-95.5,71c-52.27,3.865-88.315-25.59-105.5-60.5c-4.841-9.834-8.077-19.856-10-32
			c-1.912-12.074-1.5-25.173-1.5-40c0-57.992,0-108.374,0-166.5c0-28.493-0.847-56.196,6.5-76.5c7.588-20.969,19.075-35.825,35-48.5
			C56.474,11.939,76.227,2.235,102.038,0.327z M61.538,23.327c-19.173,11.18-33.639,25.966-42,45c-4.235,9.641-8.853,20.793-10,32.5
			c-1.768,18.039,0,39.685,0,61.5c0,40.896,0,82.551,0,123c0,21.274-1.895,42.158,0,61.5c1.238,12.638,5.842,24.438,10.5,34
			c14.096,28.932,44.292,55.501,87,55.5c16.874,0,27.981-1.842,40.5-7c31.855-13.123,57.314-48.46,61-79c3.5-29,0.5-41.475,0.5-62
			c0-45.556,0-80.068,0-125.5c0-20.684,1.674-43.559-0.5-62.5c-3.202-27.902-16.064-48.364-34-64.5
			c-18.786-16.901-45.954-27.71-79-24C83.214,13.21,71.107,17.747,61.538,23.327z"/>
		<path fill-rule="evenodd" clip-rule="evenodd" d="M324.038,136.827c24.573-2.83,45.318,14.725,47.5,38c2.134,22.75,0,49.85,0,74
			c0,11.188,0,24.506,0,37c0,21.687,0.41,36.55-6.5,48c-10.873,18.02-34.162,26.829-56,15.5c-11.058-5.736-21.467-17.147-23-33.5
			c-2.014-21.48,0-48.128,0-74c0-13.302,0-25.614,0-37c0-12.967-1.224-26.692,1-36C290.812,153.03,304.32,139.098,324.038,136.827z
			 M294.538,172.327c-1.836,8.197-0.5,21.7-0.5,35.5c0,22.65,0,53.54,0,74c0,11.332-1.466,28.044,0.5,36
			c2.923,11.825,13.908,24.017,24,26.5c24.226,5.963,40.762-10.312,44.5-27c2.148-9.587,0.5-23.521,0.5-35.5c0-26.447,0-47.66,0-74
			c0-12.152,1.317-27.387-0.5-35.5c-2.377-10.612-12.617-24.198-24-27c-4.809-1.184-16.359-0.634-19.5,0
			C307.532,147.753,297.013,161.276,294.538,172.327z"/>
		<path fill-rule="evenodd" clip-rule="evenodd" d="M84.538,196.327c11.794-1.294,17.238,3.763,25,6.5
			c7.815-2.518,12.828-7.839,24.5-6.5c0,4.667,0,9.333,0,14c-3.291,0.875-6.007,2.327-9,3.5c0-2.333,0-4.667,0-7
			c-6.19-0.121-9.683,5.776-15,6c-5.64,0.238-9.554-5.284-15.5-6.5c-1.165,5.835-0.168,13.832-0.5,20.5
			c-3.007,1.16-5.496,2.837-9,3.5C83.88,219.985,84.865,207.5,84.538,196.327z"/>
		<path fill-rule="evenodd" clip-rule="evenodd" d="M133.538,216.827c0.333,0,0.667,0,1,0c0.243,14.401-1.767,24.938-10.5,31
			c-12.754,8.854-32.819,2.458-37.5-10.5c1.824-2.176,5.687-2.313,8-4c6.951,15.56,36.005,10.384,30.5-13
			C128.023,219.312,130.896,218.185,133.538,216.827z"/>
		<path fill-rule="evenodd" clip-rule="evenodd" d="M105.538,370.827c4.245-1.522,5.774,0.779,6,3.5
			C112.489,385.793,95.22,374.527,105.538,370.827z"/>
	</g>
</g>
</svg>
