<?xml version="1.0" encoding="utf-8"?>
<!-- Generator: Adobe Illustrator 22.1.0, SVG Export Plug-In . SVG Version: 6.00 Build 0)  -->
<svg version="1.1" id="Слой_1" xmlns="http://www.w3.org/2000/svg" xmlns:xlink="http://www.w3.org/1999/xlink" x="0px" y="0px"
	 viewBox="0 0 725.7 725.7" style="enable-background:new 0 0 725.7 725.7;" xml:space="preserve">
<style type="text/css">
	.st0{fill:none;stroke:#000000;stroke-width:10;stroke-miterlimit:10;}
</style>
<image style="display:none;overflow:visible;" width="500" height="500" xlink:href="CDAB07C6.jpg"  transform="matrix(1.4513 0 0 1.4513 0 0)">
</image>
<rect x="128.9" y="8.8" class="st0" width="467.9" height="663.2"/>
<line class="st0" x1="128.9" y1="387.5" x2="596.8" y2="387.5"/>
<path class="st0" d="M128.9,672.1c20.3,28.9,57,28.8,86.4,28.8c0,0,294.8-0.9,294.8-0.9c38.9,0,74.6,1,86.7-27.9"/>
<g>
	<path d="M292.5,207.4v-3.3c0.4,0.3,0.8,0.6,1.3,0.9c0.5,0.3,1.1,0.5,1.6,0.7c0.6,0.2,1.2,0.3,1.7,0.4c0.6,0.1,1.1,0.1,1.6,0.1
		c1.7,0,3-0.3,3.8-0.9c0.8-0.6,1.3-1.5,1.3-2.7c0-0.6-0.1-1.2-0.4-1.7c-0.3-0.5-0.7-0.9-1.2-1.3c-0.5-0.4-1.1-0.8-1.8-1.1
		c-0.7-0.4-1.4-0.7-2.2-1.1c-0.8-0.4-1.6-0.8-2.3-1.3c-0.7-0.4-1.3-0.9-1.9-1.4c-0.5-0.5-0.9-1.1-1.2-1.8s-0.5-1.4-0.5-2.3
		c0-1.1,0.2-2,0.7-2.8c0.5-0.8,1.1-1.5,1.9-2c0.8-0.5,1.6-0.9,2.6-1.2c1-0.3,2-0.4,3-0.4c2.3,0,4,0.3,5.1,0.8v3.1
		c-1.4-1-3.2-1.5-5.4-1.5c-0.6,0-1.2,0.1-1.8,0.2c-0.6,0.1-1.1,0.3-1.6,0.6s-0.9,0.7-1.2,1.1c-0.3,0.5-0.4,1-0.4,1.6
		c0,0.6,0.1,1.1,0.3,1.6c0.2,0.4,0.6,0.8,1,1.2c0.4,0.4,1,0.7,1.6,1.1c0.6,0.3,1.4,0.7,2.2,1.1c0.8,0.4,1.6,0.9,2.4,1.3
		c0.8,0.5,1.4,1,2,1.5c0.6,0.6,1,1.2,1.4,1.9c0.3,0.7,0.5,1.5,0.5,2.3c0,1.2-0.2,2.2-0.7,3c-0.5,0.8-1.1,1.5-1.8,2s-1.7,0.9-2.7,1.1
		c-1,0.2-2.1,0.3-3.2,0.3c-0.4,0-0.8,0-1.4-0.1s-1.1-0.1-1.7-0.3c-0.6-0.1-1.1-0.3-1.6-0.4S292.8,207.7,292.5,207.4z"/>
	<path d="M335.7,208.4h-2.8v-15.9c0-1.3,0.1-2.8,0.2-4.6h-0.1c-0.3,1.1-0.5,1.8-0.7,2.3l-8.1,18.2h-1.4l-8.1-18
		c-0.2-0.5-0.5-1.3-0.7-2.4h-0.1c0.1,0.9,0.1,2.5,0.1,4.6v15.8h-2.7v-23.6h3.7l7.3,16.5c0.6,1.3,0.9,2.2,1.1,2.8h0.1
		c0.5-1.3,0.9-2.3,1.1-2.9l7.4-16.4h3.5V208.4z"/>
	<path d="M360.2,208.4h-3.1l-2.5-6.6h-10l-2.4,6.6h-3.1l9.1-23.6h2.9L360.2,208.4z M353.7,199.3l-3.7-10.1c-0.1-0.3-0.2-0.9-0.4-1.6
		h-0.1c-0.1,0.7-0.2,1.2-0.4,1.6l-3.7,10.1H353.7z"/>
	<path d="M380.6,208.4h-3.3l-4-6.6c-0.4-0.6-0.7-1.1-1.1-1.6c-0.3-0.4-0.7-0.8-1-1.1c-0.4-0.3-0.7-0.5-1.2-0.6
		c-0.4-0.1-0.9-0.2-1.4-0.2h-2.3v10.1h-2.8v-23.6h7.1c1,0,2,0.1,2.9,0.4s1.6,0.7,2.3,1.2c0.6,0.5,1.1,1.2,1.5,2
		c0.4,0.8,0.5,1.7,0.5,2.8c0,0.8-0.1,1.6-0.4,2.3c-0.2,0.7-0.6,1.3-1.1,1.8s-1,1-1.6,1.4c-0.6,0.4-1.4,0.7-2.2,0.9v0.1
		c0.4,0.2,0.7,0.4,1,0.6c0.3,0.2,0.6,0.5,0.8,0.8s0.5,0.7,0.8,1s0.5,0.8,0.9,1.4L380.6,208.4z M366.4,187.3v8.6h3.8
		c0.7,0,1.3-0.1,1.9-0.3c0.6-0.2,1.1-0.5,1.5-0.9s0.8-0.9,1-1.4c0.2-0.6,0.4-1.2,0.4-1.9c0-1.3-0.4-2.3-1.2-3
		c-0.8-0.7-2-1.1-3.6-1.1H366.4z"/>
	<path d="M396.3,187.3h-6.8v21.1h-2.8v-21.1h-6.8v-2.5h16.4V187.3z"/>
	<path d="M424.2,208.4h-2.8v-15.9c0-1.3,0.1-2.8,0.2-4.6h-0.1c-0.3,1.1-0.5,1.8-0.7,2.3l-8.1,18.2h-1.4l-8.1-18
		c-0.2-0.5-0.5-1.3-0.7-2.4h-0.1c0.1,0.9,0.1,2.5,0.1,4.6v15.8h-2.7v-23.6h3.7l7.3,16.5c0.6,1.3,0.9,2.2,1.1,2.8h0.1
		c0.5-1.3,0.9-2.3,1.1-2.9l7.4-16.4h3.5V208.4z"/>
	<path d="M433.2,208.4h-2.8v-23.6h2.8V208.4z"/>
</g>
<path class="st0" d="M248.2,700.9c0,8.8-13.6,15.9-30.5,15.9s-30.5-7.1-30.5-15.9"/>
<path class="st0" d="M542,700.9c0,8.8-13.6,15.9-30.5,15.9s-30.5-7.1-30.5-15.9"/>
</svg>
