<?xml version="1.0" encoding="utf-8"?>
<!-- Generator: Adobe Illustrator 22.1.0, SVG Export Plug-In . SVG Version: 6.00 Build 0)  -->
<svg version="1.1" id="Слой_1" xmlns="http://www.w3.org/2000/svg" xmlns:xlink="http://www.w3.org/1999/xlink" x="0px" y="0px"
	 viewBox="0 0 725.7 725.7" style="enable-background:new 0 0 725.7 725.7;" xml:space="preserve">
<style type="text/css">
	.st0{fill:none;stroke:#000000;stroke-width:10;stroke-miterlimit:10;}
	.st1{fill:none;stroke:#000000;stroke-width:5;stroke-miterlimit:10;}
	.st2{fill:none;stroke:#000000;stroke-miterlimit:10;}
</style>
<path class="st0" d="M479.5,703.2H254.6c-3.2,0-5.7-2.9-5.7-6.5v-682c0-3.6,2.6-6.5,5.7-6.5h224.9c3.2,0,5.7,2.9,5.7,6.5v682
	C485.2,700.3,482.7,703.2,479.5,703.2z"/>
<path class="st0" d="M481.7,701.3c0,12.4-6.9,11.2-16.2,11.2H269.9c-9.2,0-17.6,1.1-17.6-11.2"/>
<path class="st0" d="M274.8,712.6c0,4.1-2.5,7.3-5.5,7.3c-3.1,0-5.5-3.3-5.5-7.3"/>
<path class="st0" d="M472.3,712.6c0,4.1-2.5,7.3-5.5,7.3c-3.1,0-5.5-3.3-5.5-7.3"/>
<ellipse class="st1" cx="274.6" cy="680.2" rx="0.5" ry="0.6"/>
<ellipse class="st1" cx="290.2" cy="680.2" rx="0.5" ry="0.6"/>
<ellipse class="st1" cx="307.1" cy="680.2" rx="0.5" ry="0.6"/>
<ellipse class="st1" cx="322.7" cy="680.2" rx="0.5" ry="0.6"/>
<ellipse class="st1" cx="339" cy="680.2" rx="0.5" ry="0.6"/>
<ellipse class="st1" cx="354.6" cy="680.2" rx="0.5" ry="0.6"/>
<ellipse class="st1" cx="371.5" cy="680.2" rx="0.5" ry="0.6"/>
<ellipse class="st1" cx="387.1" cy="680.2" rx="0.5" ry="0.6"/>
<ellipse class="st1" cx="404.1" cy="680.2" rx="0.5" ry="0.6"/>
<ellipse class="st1" cx="419.7" cy="680.2" rx="0.5" ry="0.6"/>
<ellipse class="st1" cx="436.6" cy="680.2" rx="0.5" ry="0.6"/>
<ellipse class="st1" cx="452.2" cy="680.2" rx="0.5" ry="0.6"/>
<ellipse class="st1" cx="468.6" cy="680.2" rx="0.5" ry="0.6"/>
<ellipse class="st1" cx="486.8" cy="680.2" rx="0.5" ry="0.6"/>
<ellipse class="st1" cx="266.1" cy="666.7" rx="0.5" ry="0.6"/>
<ellipse class="st1" cx="281.7" cy="666.7" rx="0.5" ry="0.6"/>
<ellipse class="st1" cx="298.5" cy="666.7" rx="0.5" ry="0.6"/>
<ellipse class="st1" cx="314.1" cy="666.7" rx="0.5" ry="0.6"/>
<ellipse class="st1" cx="330.6" cy="666.7" rx="0.5" ry="0.6"/>
<ellipse class="st1" cx="346.2" cy="666.7" rx="0.5" ry="0.6"/>
<ellipse class="st1" cx="363.1" cy="666.7" rx="0.5" ry="0.6"/>
<ellipse class="st1" cx="378.6" cy="666.7" rx="0.5" ry="0.6"/>
<ellipse class="st1" cx="395.7" cy="666.7" rx="0.5" ry="0.6"/>
<ellipse class="st1" cx="411.2" cy="666.7" rx="0.5" ry="0.6"/>
<ellipse class="st1" cx="428.1" cy="666.7" rx="0.5" ry="0.6"/>
<ellipse class="st1" cx="443.7" cy="666.7" rx="0.5" ry="0.6"/>
<ellipse class="st1" cx="460.1" cy="666.7" rx="0.5" ry="0.6"/>
<ellipse class="st1" cx="273.7" cy="651.8" rx="0.5" ry="0.6"/>
<ellipse class="st1" cx="289.3" cy="651.8" rx="0.5" ry="0.6"/>
<ellipse class="st1" cx="306.2" cy="651.8" rx="0.5" ry="0.6"/>
<ellipse class="st1" cx="321.8" cy="651.8" rx="0.5" ry="0.6"/>
<ellipse class="st1" cx="338.2" cy="651.8" rx="0.5" ry="0.6"/>
<ellipse class="st1" cx="353.8" cy="651.8" rx="0.5" ry="0.6"/>
<ellipse class="st1" cx="370.7" cy="651.8" rx="0.5" ry="0.6"/>
<ellipse class="st1" cx="386.2" cy="651.8" rx="0.5" ry="0.6"/>
<ellipse class="st1" cx="403.2" cy="651.8" rx="0.5" ry="0.6"/>
<ellipse class="st1" cx="418.8" cy="651.8" rx="0.5" ry="0.6"/>
<ellipse class="st1" cx="435.7" cy="651.8" rx="0.5" ry="0.6"/>
<ellipse class="st1" cx="451.2" cy="651.8" rx="0.5" ry="0.6"/>
<ellipse class="st1" cx="467.7" cy="651.8" rx="0.5" ry="0.6"/>
<ellipse class="st1" cx="485.9" cy="651.8" rx="0.5" ry="0.6"/>
<ellipse class="st1" cx="266.8" cy="636.5" rx="0.5" ry="0.6"/>
<ellipse class="st1" cx="282.4" cy="636.5" rx="0.5" ry="0.6"/>
<ellipse class="st1" cx="299.3" cy="636.5" rx="0.5" ry="0.6"/>
<ellipse class="st1" cx="314.9" cy="636.5" rx="0.5" ry="0.6"/>
<ellipse class="st1" cx="331.3" cy="636.5" rx="0.5" ry="0.6"/>
<ellipse class="st1" cx="346.9" cy="636.5" rx="0.5" ry="0.6"/>
<ellipse class="st1" cx="363.8" cy="636.5" rx="0.5" ry="0.6"/>
<ellipse class="st1" cx="379.4" cy="636.5" rx="0.5" ry="0.6"/>
<ellipse class="st1" cx="396.4" cy="636.5" rx="0.5" ry="0.6"/>
<ellipse class="st1" cx="412" cy="636.5" rx="0.5" ry="0.6"/>
<ellipse class="st1" cx="428.9" cy="636.5" rx="0.5" ry="0.6"/>
<ellipse class="st1" cx="444.5" cy="636.5" rx="0.5" ry="0.6"/>
<ellipse class="st1" cx="460.8" cy="636.5" rx="0.5" ry="0.6"/>
<ellipse class="st1" cx="275" cy="620.5" rx="0.5" ry="0.6"/>
<ellipse class="st1" cx="290.6" cy="620.5" rx="0.5" ry="0.6"/>
<ellipse class="st1" cx="307.5" cy="620.5" rx="0.5" ry="0.6"/>
<ellipse class="st1" cx="323.1" cy="620.5" rx="0.5" ry="0.6"/>
<ellipse class="st1" cx="339.5" cy="620.5" rx="0.5" ry="0.6"/>
<ellipse class="st1" cx="355.1" cy="620.5" rx="0.5" ry="0.6"/>
<ellipse class="st1" cx="372" cy="620.5" rx="0.5" ry="0.6"/>
<ellipse class="st1" cx="387.6" cy="620.5" rx="0.5" ry="0.6"/>
<ellipse class="st1" cx="404.6" cy="620.5" rx="0.5" ry="0.6"/>
<ellipse class="st1" cx="420.2" cy="620.5" rx="0.5" ry="0.6"/>
<ellipse class="st1" cx="437.1" cy="620.5" rx="0.5" ry="0.6"/>
<ellipse class="st1" cx="452.7" cy="620.5" rx="0.5" ry="0.6"/>
<ellipse class="st1" cx="469" cy="620.5" rx="0.5" ry="0.6"/>
<ellipse class="st1" cx="487.3" cy="620.5" rx="0.5" ry="0.6"/>
<ellipse class="st1" cx="266.6" cy="605.2" rx="0.5" ry="0.6"/>
<ellipse class="st1" cx="282.2" cy="605.2" rx="0.5" ry="0.6"/>
<ellipse class="st1" cx="299" cy="605.2" rx="0.5" ry="0.6"/>
<ellipse class="st1" cx="314.6" cy="605.2" rx="0.5" ry="0.6"/>
<ellipse class="st1" cx="331" cy="605.2" rx="0.5" ry="0.6"/>
<ellipse class="st1" cx="346.6" cy="605.2" rx="0.5" ry="0.6"/>
<ellipse class="st1" cx="363.4" cy="605.2" rx="0.5" ry="0.6"/>
<ellipse class="st1" cx="379" cy="605.2" rx="0.5" ry="0.6"/>
<ellipse class="st1" cx="396.1" cy="605.2" rx="0.5" ry="0.6"/>
<ellipse class="st1" cx="411.6" cy="605.2" rx="0.5" ry="0.6"/>
<ellipse class="st1" cx="428.5" cy="605.2" rx="0.5" ry="0.6"/>
<ellipse class="st1" cx="444.1" cy="605.2" rx="0.5" ry="0.6"/>
<ellipse class="st1" cx="460.6" cy="605.2" rx="0.5" ry="0.6"/>
<ellipse class="st1" cx="274.1" cy="588.4" rx="0.5" ry="0.6"/>
<ellipse class="st1" cx="289.7" cy="588.4" rx="0.5" ry="0.6"/>
<ellipse class="st1" cx="306.6" cy="588.4" rx="0.5" ry="0.6"/>
<ellipse class="st1" cx="322.2" cy="588.4" rx="0.5" ry="0.6"/>
<ellipse class="st1" cx="338.6" cy="588.4" rx="0.5" ry="0.6"/>
<ellipse class="st1" cx="354.2" cy="588.4" rx="0.5" ry="0.6"/>
<ellipse class="st1" cx="371.1" cy="588.4" rx="0.5" ry="0.6"/>
<ellipse class="st1" cx="386.7" cy="588.4" rx="0.5" ry="0.6"/>
<ellipse class="st1" cx="403.7" cy="588.4" rx="0.5" ry="0.6"/>
<ellipse class="st1" cx="419.3" cy="588.4" rx="0.5" ry="0.6"/>
<ellipse class="st1" cx="436.2" cy="588.4" rx="0.5" ry="0.6"/>
<ellipse class="st1" cx="451.7" cy="588.4" rx="0.5" ry="0.6"/>
<ellipse class="st1" cx="468.2" cy="588.4" rx="0.5" ry="0.6"/>
<ellipse class="st1" cx="486.4" cy="588.4" rx="0.5" ry="0.6"/>
<ellipse class="st1" cx="265.7" cy="571.2" rx="0.5" ry="0.6"/>
<ellipse class="st1" cx="281.2" cy="571.2" rx="0.5" ry="0.6"/>
<ellipse class="st1" cx="298.1" cy="571.2" rx="0.5" ry="0.6"/>
<ellipse class="st1" cx="313.7" cy="571.2" rx="0.5" ry="0.6"/>
<ellipse class="st1" cx="330.1" cy="571.2" rx="0.5" ry="0.6"/>
<ellipse class="st1" cx="345.7" cy="571.2" rx="0.5" ry="0.6"/>
<ellipse class="st1" cx="362.6" cy="571.2" rx="0.5" ry="0.6"/>
<ellipse class="st1" cx="378.1" cy="571.2" rx="0.5" ry="0.6"/>
<ellipse class="st1" cx="395.1" cy="571.2" rx="0.5" ry="0.6"/>
<ellipse class="st1" cx="410.7" cy="571.2" rx="0.5" ry="0.6"/>
<ellipse class="st1" cx="427.6" cy="571.2" rx="0.5" ry="0.6"/>
<ellipse class="st1" cx="443.2" cy="571.2" rx="0.5" ry="0.6"/>
<ellipse class="st1" cx="459.6" cy="571.2" rx="0.5" ry="0.6"/>
<ellipse class="st1" cx="273.1" cy="553.6" rx="0.5" ry="0.6"/>
<ellipse class="st1" cx="288.7" cy="553.6" rx="0.5" ry="0.6"/>
<ellipse class="st1" cx="305.5" cy="553.6" rx="0.5" ry="0.6"/>
<ellipse class="st1" cx="321.1" cy="553.6" rx="0.5" ry="0.6"/>
<ellipse class="st1" cx="337.5" cy="553.6" rx="0.5" ry="0.6"/>
<ellipse class="st1" cx="353.1" cy="553.6" rx="0.5" ry="0.6"/>
<ellipse class="st1" cx="370" cy="553.6" rx="0.5" ry="0.6"/>
<ellipse class="st1" cx="385.5" cy="553.6" rx="0.5" ry="0.6"/>
<ellipse class="st1" cx="402.6" cy="553.6" rx="0.5" ry="0.6"/>
<ellipse class="st1" cx="418.1" cy="553.6" rx="0.5" ry="0.6"/>
<ellipse class="st1" cx="435" cy="553.6" rx="0.5" ry="0.6"/>
<ellipse class="st1" cx="450.6" cy="553.6" rx="0.5" ry="0.6"/>
<ellipse class="st1" cx="467.1" cy="553.6" rx="0.5" ry="0.6"/>
<ellipse class="st1" cx="485.3" cy="553.6" rx="0.5" ry="0.6"/>
<ellipse class="st1" cx="266.2" cy="536.4" rx="0.5" ry="0.6"/>
<ellipse class="st1" cx="281.8" cy="536.4" rx="0.5" ry="0.6"/>
<ellipse class="st1" cx="298.7" cy="536.4" rx="0.5" ry="0.6"/>
<ellipse class="st1" cx="314.2" cy="536.4" rx="0.5" ry="0.6"/>
<ellipse class="st1" cx="330.7" cy="536.4" rx="0.5" ry="0.6"/>
<ellipse class="st1" cx="346.3" cy="536.4" rx="0.5" ry="0.6"/>
<ellipse class="st1" cx="363.2" cy="536.4" rx="0.5" ry="0.6"/>
<ellipse class="st1" cx="378.8" cy="536.4" rx="0.5" ry="0.6"/>
<ellipse class="st1" cx="395.8" cy="536.4" rx="0.5" ry="0.6"/>
<ellipse class="st1" cx="411.3" cy="536.4" rx="0.5" ry="0.6"/>
<ellipse class="st1" cx="428.2" cy="536.4" rx="0.5" ry="0.6"/>
<ellipse class="st1" cx="443.8" cy="536.4" rx="0.5" ry="0.6"/>
<ellipse class="st1" cx="460.2" cy="536.4" rx="0.5" ry="0.6"/>
<ellipse class="st1" cx="273.8" cy="519.6" rx="0.5" ry="0.6"/>
<ellipse class="st1" cx="289.4" cy="519.6" rx="0.5" ry="0.6"/>
<ellipse class="st1" cx="306.3" cy="519.6" rx="0.5" ry="0.6"/>
<ellipse class="st1" cx="321.9" cy="519.6" rx="0.5" ry="0.6"/>
<ellipse class="st1" cx="338.3" cy="519.6" rx="0.5" ry="0.6"/>
<ellipse class="st1" cx="353.8" cy="519.6" rx="0.5" ry="0.6"/>
<ellipse class="st1" cx="370.7" cy="519.6" rx="0.5" ry="0.6"/>
<ellipse class="st1" cx="386.3" cy="519.6" rx="0.5" ry="0.6"/>
<ellipse class="st1" cx="403.3" cy="519.6" rx="0.5" ry="0.6"/>
<ellipse class="st1" cx="418.9" cy="519.6" rx="0.5" ry="0.6"/>
<ellipse class="st1" cx="435.8" cy="519.6" rx="0.5" ry="0.6"/>
<ellipse class="st1" cx="451.4" cy="519.6" rx="0.5" ry="0.6"/>
<ellipse class="st1" cx="467.8" cy="519.6" rx="0.5" ry="0.6"/>
<ellipse class="st1" cx="486" cy="519.6" rx="0.5" ry="0.6"/>
<ellipse class="st1" cx="266.9" cy="502.4" rx="0.5" ry="0.6"/>
<ellipse class="st1" cx="282.5" cy="502.4" rx="0.5" ry="0.6"/>
<ellipse class="st1" cx="299.4" cy="502.4" rx="0.5" ry="0.6"/>
<ellipse class="st1" cx="315" cy="502.4" rx="0.5" ry="0.6"/>
<ellipse class="st1" cx="331.5" cy="502.4" rx="0.5" ry="0.6"/>
<ellipse class="st1" cx="347" cy="502.4" rx="0.5" ry="0.6"/>
<ellipse class="st1" cx="363.9" cy="502.4" rx="0.5" ry="0.6"/>
<ellipse class="st1" cx="379.5" cy="502.4" rx="0.5" ry="0.6"/>
<ellipse class="st1" cx="396.5" cy="502.4" rx="0.5" ry="0.6"/>
<ellipse class="st1" cx="412.1" cy="502.4" rx="0.5" ry="0.6"/>
<ellipse class="st1" cx="429" cy="502.4" rx="0.5" ry="0.6"/>
<ellipse class="st1" cx="444.6" cy="502.4" rx="0.5" ry="0.6"/>
<ellipse class="st1" cx="460.9" cy="502.4" rx="0.5" ry="0.6"/>
<ellipse class="st1" cx="275.1" cy="484.5" rx="0.5" ry="0.6"/>
<ellipse class="st1" cx="290.7" cy="484.5" rx="0.5" ry="0.6"/>
<ellipse class="st1" cx="307.6" cy="484.5" rx="0.5" ry="0.6"/>
<ellipse class="st1" cx="323.2" cy="484.5" rx="0.5" ry="0.6"/>
<ellipse class="st1" cx="339.7" cy="484.5" rx="0.5" ry="0.6"/>
<ellipse class="st1" cx="355.2" cy="484.5" rx="0.5" ry="0.6"/>
<ellipse class="st1" cx="372.1" cy="484.5" rx="0.5" ry="0.6"/>
<ellipse class="st1" cx="387.7" cy="484.5" rx="0.5" ry="0.6"/>
<ellipse class="st1" cx="404.7" cy="484.5" rx="0.5" ry="0.6"/>
<ellipse class="st1" cx="420.2" cy="484.5" rx="0.5" ry="0.6"/>
<ellipse class="st1" cx="437.2" cy="484.5" rx="0.5" ry="0.6"/>
<ellipse class="st1" cx="452.7" cy="484.5" rx="0.5" ry="0.6"/>
<ellipse class="st1" cx="469.1" cy="484.5" rx="0.5" ry="0.6"/>
<ellipse class="st1" cx="266.7" cy="465.5" rx="0.5" ry="0.6"/>
<ellipse class="st1" cx="282.2" cy="465.5" rx="0.5" ry="0.6"/>
<ellipse class="st1" cx="299.1" cy="465.5" rx="0.5" ry="0.6"/>
<ellipse class="st1" cx="314.6" cy="465.5" rx="0.5" ry="0.6"/>
<ellipse class="st1" cx="331.1" cy="465.5" rx="0.5" ry="0.6"/>
<ellipse class="st1" cx="346.7" cy="465.5" rx="0.5" ry="0.6"/>
<ellipse class="st1" cx="363.6" cy="465.5" rx="0.5" ry="0.6"/>
<ellipse class="st1" cx="379.2" cy="465.5" rx="0.5" ry="0.6"/>
<ellipse class="st1" cx="396.2" cy="465.5" rx="0.5" ry="0.6"/>
<ellipse class="st1" cx="411.8" cy="465.5" rx="0.5" ry="0.6"/>
<ellipse class="st1" cx="428.6" cy="465.5" rx="0.5" ry="0.6"/>
<ellipse class="st1" cx="444.2" cy="465.5" rx="0.5" ry="0.6"/>
<ellipse class="st1" cx="460.7" cy="465.5" rx="0.5" ry="0.6"/>
<ellipse class="st1" cx="486.5" cy="446.8" rx="0.5" ry="0.6"/>
<ellipse class="st1" cx="485.2" cy="409.1" rx="0.5" ry="0.6"/>
<ellipse class="st1" cx="485.9" cy="375.1" rx="0.5" ry="0.6"/>
<ellipse class="st1" cx="272" cy="449.4" rx="0.5" ry="0.6"/>
<ellipse class="st1" cx="302.8" cy="449.4" rx="0.5" ry="0.6"/>
<ellipse class="st1" cx="334.8" cy="449.4" rx="0.5" ry="0.6"/>
<ellipse class="st1" cx="365.6" cy="449.4" rx="0.5" ry="0.6"/>
<ellipse class="st1" cx="398.2" cy="449.4" rx="0.5" ry="0.6"/>
<ellipse class="st1" cx="430.6" cy="449.4" rx="0.5" ry="0.6"/>
<ellipse class="st1" cx="462.7" cy="449.4" rx="0.5" ry="0.6"/>
<path class="st1" d="M490.7,332.1"/>
<ellipse class="st1" cx="286.8" cy="431.5" rx="0.5" ry="0.6"/>
<ellipse class="st1" cx="317.6" cy="431.5" rx="0.5" ry="0.6"/>
<ellipse class="st1" cx="349.6" cy="431.5" rx="0.5" ry="0.6"/>
<ellipse class="st1" cx="382.1" cy="431.5" rx="0.5" ry="0.6"/>
<ellipse class="st1" cx="414.7" cy="431.5" rx="0.5" ry="0.6"/>
<ellipse class="st1" cx="447.1" cy="431.5" rx="0.5" ry="0.6"/>
<ellipse class="st1" cx="271.7" cy="414.3" rx="0.5" ry="0.6"/>
<ellipse class="st1" cx="300.8" cy="414.3" rx="0.5" ry="0.6"/>
<ellipse class="st1" cx="332.9" cy="414.3" rx="0.5" ry="0.6"/>
<ellipse class="st1" cx="365.3" cy="414.3" rx="0.5" ry="0.6"/>
<ellipse class="st1" cx="397.9" cy="414.3" rx="0.5" ry="0.6"/>
<ellipse class="st1" cx="430.4" cy="414.3" rx="0.5" ry="0.6"/>
<ellipse class="st1" cx="462.3" cy="414.3" rx="0.5" ry="0.6"/>
<ellipse class="st1" cx="285.8" cy="395.6" rx="0.5" ry="0.6"/>
<ellipse class="st1" cx="318.3" cy="395.6" rx="0.5" ry="0.6"/>
<ellipse class="st1" cx="350.3" cy="395.6" rx="0.5" ry="0.6"/>
<ellipse class="st1" cx="382.8" cy="395.6" rx="0.5" ry="0.6"/>
<ellipse class="st1" cx="415.4" cy="395.6" rx="0.5" ry="0.6"/>
<ellipse class="st1" cx="447.9" cy="395.6" rx="0.5" ry="0.6"/>
<ellipse class="st1" cx="272.5" cy="378.4" rx="0.5" ry="0.6"/>
<ellipse class="st1" cx="299.9" cy="378.4" rx="0.5" ry="0.6"/>
<ellipse class="st1" cx="331.9" cy="378.4" rx="0.5" ry="0.6"/>
<ellipse class="st1" cx="364.4" cy="378.4" rx="0.5" ry="0.6"/>
<ellipse class="st1" cx="397" cy="378.4" rx="0.5" ry="0.6"/>
<ellipse class="st1" cx="429.5" cy="378.4" rx="0.5" ry="0.6"/>
<ellipse class="st1" cx="463.1" cy="378.4" rx="0.5" ry="0.6"/>
<path class="st1" d="M490.2,261.2"/>
<g>
	<path d="M356,128.2v-2l2.5-2.4c6-5.7,8.7-8.7,8.7-12.3c0-2.4-1.2-4.6-4.7-4.6c-2.1,0-3.9,1.1-5,2l-1-2.2c1.6-1.4,3.9-2.4,6.7-2.4
		c5.1,0,7.2,3.5,7.2,6.8c0,4.3-3.1,7.8-8.1,12.6l-1.9,1.7v0.1H371v2.6L356,128.2L356,128.2z"/>
	<path d="M388.7,107.3h-9l-0.9,6c0.5-0.1,1-0.1,1.9-0.1c1.8,0,3.6,0.4,5.1,1.3c1.8,1,3.4,3.1,3.4,6c0,4.6-3.7,8-8.7,8
		c-2.6,0-4.7-0.7-5.9-1.4l0.8-2.4c1,0.6,2.9,1.3,5,1.3c3,0,5.6-2,5.6-5.1c0-3-2.1-5.2-6.8-5.2c-1.3,0-2.4,0.1-3.3,0.3l1.5-11.3h11.2
		L388.7,107.3L388.7,107.3z"/>
</g>
<line class="st2" x1="338.6" y1="146" x2="407.5" y2="146"/>
<g>
	<path d="M352.7,156.7V156l0.8-0.8c2-1.9,2.9-2.9,2.9-4.1c0-0.8-0.4-1.5-1.5-1.5c-0.7,0-1.3,0.4-1.7,0.7l-0.3-0.7
		c0.5-0.5,1.3-0.8,2.2-0.8c1.7,0,2.4,1.2,2.4,2.3c0,1.4-1,2.6-2.7,4.2l-0.6,0.6l0,0h3.5v0.9L352.7,156.7L352.7,156.7z"/>
	<path d="M362.1,156.7v-2.1h-3.6v-0.7l3.5-5h1.1v4.8h1.1v0.8h-1.1v2.1L362.1,156.7L362.1,156.7z M362.1,153.7v-2.6
		c0-0.4,0-0.8,0-1.2l0,0c-0.2,0.5-0.4,0.8-0.6,1.2l-1.9,2.7l0,0L362.1,153.7L362.1,153.7z"/>
	<path d="M368.4,148.8l-1.1,1.5l0,0l1.8-0.2v0.8l-1.8-0.2l0,0l1.2,1.4l-0.8,0.4l-0.7-1.7l0,0l-0.8,1.7l-0.7-0.4l1.1-1.5l0,0
		l-1.8,0.2V150l1.8,0.2l0,0l-1.1-1.5l0.7-0.4l0.7,1.7l0,0l0.7-1.7L368.4,148.8z"/>
	<path d="M375.8,156.7v-2.1h-3.6v-0.7l3.5-5h1.1v4.8h1.1v0.8h-1.1v2.1L375.8,156.7L375.8,156.7z M375.8,153.7v-2.6
		c0-0.4,0-0.8,0-1.2l0,0c-0.2,0.5-0.4,0.8-0.6,1.2l-1.9,2.7l0,0L375.8,153.7L375.8,153.7z"/>
	<path d="M383.9,152.7c0,2.7-1,4.1-2.7,4.1c-1.5,0-2.6-1.4-2.6-4s1.1-4.1,2.7-4.1C383,148.7,383.9,150.2,383.9,152.7z M379.7,152.8
		c0,2,0.6,3.2,1.6,3.2c1.1,0,1.6-1.3,1.6-3.3c0-1.9-0.5-3.2-1.6-3.2C380.3,149.5,379.7,150.7,379.7,152.8z"/>
	<path d="M386.6,148.7c1.1,0,1.8,0.8,1.8,2.3c0,1.6-0.9,2.5-1.9,2.5s-1.8-0.8-1.8-2.4C384.7,149.6,385.5,148.7,386.6,148.7
		L386.6,148.7z M386.5,149.4c-0.6,0-1,0.8-1,1.8s0.3,1.8,1,1.8s1-0.7,1-1.8C387.5,150.2,387.3,149.4,386.5,149.4L386.5,149.4z
		 M386.4,156.8l4.6-8.1h0.7l-4.6,8.1H386.4z M391.7,152c1.1,0,1.8,0.8,1.8,2.3c0,1.6-0.9,2.5-1.9,2.5s-1.8-0.8-1.8-2.3
		C389.8,152.8,390.6,152,391.7,152L391.7,152z M391.6,152.6c-0.6,0-1,0.8-1,1.8s0.4,1.8,1,1.8c0.7,0,1-0.7,1-1.8
		C392.6,153.4,392.4,152.6,391.6,152.6L391.6,152.6z"/>
</g>
<line class="st0" x1="249.1" y1="359.9" x2="484.7" y2="359.9"/>
<circle class="st0" cx="372.6" cy="128.2" r="40.4"/>
</svg>
