<?xml version="1.0" encoding="iso-8859-1"?>
<!-- Uploaded to: SVG Repo, www.svgrepo.com, Generator: SVG Repo Mixer Tools -->
<!DOCTYPE svg PUBLIC "-//W3C//DTD SVG 1.1//EN" "http://www.w3.org/Graphics/SVG/1.1/DTD/svg11.dtd">
<svg fill="#000000" height="800px" width="800px" version="1.1" id="Capa_1" xmlns="http://www.w3.org/2000/svg" xmlns:xlink="http://www.w3.org/1999/xlink" 
	 viewBox="0 0 298.666 298.666" xml:space="preserve">
<g>
	<path d="M162.466,137.052c7.732-7.119,39.268-38.192,36.846-69.387c-2.057-26.462-32.63-34.426-49.585-34.426
		c-16.956,0-47.464,7.964-49.52,34.426c-2.373,30.564,27.901,61.014,36.41,68.928c3.257-3.25,7.751-5.26,12.716-5.26
		C154.52,131.333,159.182,133.54,162.466,137.052z"/>
	<path d="M131.332,149.333c0-3.023,0.754-5.867,2.07-8.369c-11.169-3.415-52.577-14.314-77.824,3
		c-21.89,15.012-13.499,45.469-5.021,60.154c8.479,14.684,30.628,37.122,54.573,25.672c25.487-12.189,37.025-48.342,40.714-62.802
		C137.573,165.362,131.332,158.08,131.332,149.333z"/>
	<path d="M243.072,144.464c-25.053-17.181-66.036-6.541-77.584-3.028c1.169,2.387,1.844,5.061,1.844,7.897
		c0,8.808-6.33,16.125-14.686,17.682c3.546,14.076,15.072,50.938,40.874,63.275c23.944,11.452,46.128-11.043,54.606-25.729
		C256.604,189.878,264.961,159.477,243.072,144.464z"/>
	<path d="M149.333,0C66.99,0,0,66.99,0,149.333s66.99,149.333,149.333,149.333s149.333-66.99,149.333-149.333S231.676,0,149.333,0z
		 M149.333,282.666C75.812,282.666,16,222.854,16,149.333S75.812,16,149.333,16s133.333,59.813,133.333,133.333
		S222.853,282.666,149.333,282.666z"/>
</g>
</svg>