<?xml version="1.0" encoding="UTF-8" standalone="no"?>
<!-- Uploaded to: SVG Repo, www.svgrepo.com, Generator: SVG Repo Mixer Tools -->

<svg
   fill="#000000"
   data-name="Layer 1"
   viewBox="0 0 59.466976 49.846977"
   width="475.73581"
   height="398.77582"
   version="1.1"
   id="svg39"
   sodipodi:docname="food-quantity.svg"
   inkscape:version="1.2.1 (9c6d41e410, 2022-07-14)"
   xmlns:inkscape="http://www.inkscape.org/namespaces/inkscape"
   xmlns:sodipodi="http://sodipodi.sourceforge.net/DTD/sodipodi-0.dtd"
   xmlns="http://www.w3.org/2000/svg"
   xmlns:svg="http://www.w3.org/2000/svg">
  <defs
     id="defs43" />
  <sodipodi:namedview
     id="namedview41"
     pagecolor="#ffffff"
     bordercolor="#666666"
     borderopacity="1.0"
     inkscape:showpageshadow="2"
     inkscape:pageopacity="0.0"
     inkscape:pagecheckerboard="0"
     inkscape:deskcolor="#d1d1d1"
     showgrid="false"
     inkscape:zoom="1.4575"
     inkscape:cx="238.0789"
     inkscape:cy="199.65695"
     inkscape:window-width="2560"
     inkscape:window-height="1369"
     inkscape:window-x="-8"
     inkscape:window-y="-8"
     inkscape:window-maximized="1"
     inkscape:current-layer="svg39" />
  <path
     d="m 56.736978,33.416978 h -20.53 a 1.63,1.63 0 0 0 -1.63,1.63 v 0 1.64 a 1.65,1.65 0 0 0 1.63,1.64 h 20.53 a 1.65,1.65 0 0 0 1.63,-1.64 v -1.64 a 1.63,1.63 0 0 0 -1.63,-1.63 z"
     id="path27" />
  <path
     d="m 56.736978,44.936978 h -20.53 a 1.65,1.65 0 0 0 -1.63,1.64 v 1.64 a 1.63,1.63 0 0 0 1.63,1.63 h 20.53 a 1.63,1.63 0 0 0 1.63,-1.63 v -1.65 a 1.64,1.64 0 0 0 -1.63,-1.63 z"
     id="path29" />
  <path
     d="M 23.286978,33.416978 H 2.7369778 a 1.65,1.65 0 0 0 -1.64,1.63 v 1.64 a 1.66,1.66 0 0 0 1.64,1.64 H 23.286978 a 1.66,1.66 0 0 0 1.64,-1.64 v -1.64 a 1.65,1.65 0 0 0 -1.64,-1.63 z"
     id="path31" />
  <path
     d="M 23.286978,44.936978 H 2.7369778 a 1.66,1.66 0 0 0 -1.64,1.64 v 1.64 a 1.64,1.64 0 0 0 1.64,1.62 H 23.286978 a 1.65,1.65 0 0 0 1.64,-1.63 v -1.64 a 1.65,1.65 0 0 0 -1.64,-1.63 z"
     id="path33" />
  <path
     d="m 46.466978,0.07697781 a 13,13 0 1 0 13,13.00000019 13,13 0 0 0 -13,-13.00000019 z m 6.44,13.86000019 a 0.82,0.82 0 0 1 -0.82,0.7 h -11.24 a 0.78,0.78 0 0 1 -0.81,-0.7 11.3,11.3 0 0 1 0,-1.84 0.82,0.82 0 0 1 0.81,-0.7 h 11.24 a 0.82,0.82 0 0 1 0.82,0.7 11.3,11.3 0 0 1 0,1.84 z"
     id="path35" />
  <path
     d="M 22.246978,3.8169778 A 13.031978,13.031978 0 0 0 3.8169778,22.246978 v 0 A 13.031978,13.031978 0 0 0 22.246978,3.8169778 Z m -0.51,10.2900002 a 0.51,0.51 0 0 1 -0.47,0.55 h -6.07 a 0.58,0.58 0 0 0 -0.54,0.54 v 6 a 0.58,0.58 0 0 1 -0.54,0.54 h -2.17 a 0.5,0.5 0 0 1 -0.54,-0.46 v -6.08 a 0.51,0.51 0 0 0 -0.48,-0.54 H 4.8569778 a 0.52,0.52 0 0 1 -0.54,-0.5 v -2.22 a 0.59,0.59 0 0 1 0.54,-0.55 h 6.0000002 a 0.51,0.51 0 0 0 0.55,-0.47 V 4.9369778 a 0.58,0.58 0 0 1 0.54,-0.54 h 2.17 a 0.54,0.54 0 0 1 0.54,0.54 v 0 6.0000002 a 0.5,0.5 0 0 0 0.46,0.54 h 6.08 a 0.6,0.6 0 0 1 0.54,0.46 z"
     id="path37" />
</svg>
