<?xml version="1.0" encoding="UTF-8" standalone="no"?>
<svg
   viewBox="0 0 87.992325 73.330002"
   x="0px"
   y="0px"
   version="1.1"
   id="svg39"
   sodipodi:docname="heatlevel.svg"
   width="87.992325"
   height="73.330002"
   inkscape:version="1.2.1 (9c6d41e410, 2022-07-14)"
   xmlns:inkscape="http://www.inkscape.org/namespaces/inkscape"
   xmlns:sodipodi="http://sodipodi.sourceforge.net/DTD/sodipodi-0.dtd"
   xmlns="http://www.w3.org/2000/svg"
   xmlns:svg="http://www.w3.org/2000/svg">
  <defs
     id="defs43" />
  <sodipodi:namedview
     id="namedview41"
     pagecolor="#ffffff"
     bordercolor="#666666"
     borderopacity="1.0"
     inkscape:showpageshadow="2"
     inkscape:pageopacity="0.0"
     inkscape:pagecheckerboard="0"
     inkscape:deskcolor="#d1d1d1"
     showgrid="false"
     inkscape:zoom="9.328"
     inkscape:cx="43.953688"
     inkscape:cy="49.20669"
     inkscape:window-width="2560"
     inkscape:window-height="1369"
     inkscape:window-x="-8"
     inkscape:window-y="-8"
     inkscape:window-maximized="1"
     inkscape:current-layer="svg39" />
  <path
     d="m 13.013978,16 c 1.23,0.83 2.9,0.51 3.73,-0.73 l 2.39,-3.54 c -0.08,1.39 -0.19,2.76 -0.35,4.09 -0.54,4.44 -1.5,7.68 -2.95,9.9 -2.13,3.27 -3.11,6.59 -3,10.16 0.1,3.23 1.08,6.63 3.07,10.7 3,6.11 1.79,13.39 1.78,13.46 -0.25,1.46 0.72,2.85 2.18,3.11 0.16,0.03 0.32,0.04 0.47,0.04 1.28,0 2.42,-0.92 2.65,-2.22 0.06,-0.37 1.54,-9.04 -2.25,-16.76 -3.26,-6.64 -3.37,-11 -0.4,-15.56 2.74,-4.21 3.78,-10.2 4.15,-16.44 l 1.74,2.93 c 0.5,0.85 1.4,1.32 2.32,1.32 0.47,0 0.94,-0.12 1.37,-0.38 1.28,-0.76 1.7,-2.41 0.94,-3.69 l -6.56,-11.07 v 0 c -0.02,-0.05 -0.05,-0.09 -0.07,-0.12 l -0.02,-0.03 c 0,0 -0.05,-0.07 -0.08,-0.11 -0.02,-0.02 -0.03,-0.04 -0.05,-0.06 -0.01,-0.02 -0.03,-0.04 -0.04,-0.05 -0.02,-0.02 -0.04,-0.04 -0.06,-0.07 l -0.03,-0.04 c -0.07,-0.08 -0.15,-0.15 -0.24,-0.22 l -0.03,-0.03 c 0,0 -0.05,-0.04 -0.08,-0.06 l -0.04,-0.03 c 0,0 -0.05,-0.04 -0.08,-0.05 h -0.02 c -0.05,-0.05 -0.1,-0.08 -0.15,-0.11 -0.02,-0.01 -0.04,-0.02 -0.06,-0.04 -0.02,-0.01 -0.04,-0.02 -0.07,-0.03 -0.02,-0.01 -0.05,-0.02 -0.07,-0.03 -0.02,0 -0.04,-0.02 -0.06,-0.03 -0.03,-0.01 -0.07,-0.03 -0.1,-0.04 l -0.04,-0.02 c 0,0 -0.09,-0.03 -0.14,-0.05 h -0.05 c 0,0 -0.06,-0.03 -0.1,-0.04 h -0.06 c 0,0 -0.06,-0.03 -0.1,-0.03 -0.02,0 -0.04,0 -0.06,0 -0.05,0 -0.09,-0.01 -0.14,-0.02 h -0.05 c 0,0 -0.08,0 -0.12,-0.01 h -0.02 c 0,0 -0.03,0 -0.04,0 -0.02,0 -0.04,0 -0.06,0 h -0.1 c 0,0 -0.08,0 -0.12,0.01 h -0.03 c -0.17,0.02 -0.33,0.05 -0.49,0.1 v 0 c -0.16,0.05 -0.32,0.11 -0.46,0.19 v 0 c 0,0 -0.09,0.05 -0.14,0.08 h -0.01 c -0.09,0.06 -0.18,0.12 -0.26,0.19 l -0.03,0.02 c 0,0 -0.06,0.05 -0.09,0.08 l -0.04,0.03 c 0,0 -0.06,0.05 -0.09,0.08 l -0.03,0.03 c 0,0 -0.07,0.07 -0.1,0.11 l -0.02,0.03 c 0,0 -0.05,0.06 -0.08,0.09 l -0.03,0.03 c 0,0 -0.05,0.07 -0.08,0.11 v 0 0.02 h -0.02 l -7.45,11.06 c -0.83,1.23 -0.51,2.9 0.73,3.73 v 0 z"
     id="path27" />
  <path
     d="m 35.823978,16 c 1.23,0.83 2.9,0.51 3.73,-0.73 l 2.39,-3.54 c -0.08,1.39 -0.19,2.76 -0.35,4.09 -0.54,4.44 -1.5,7.68 -2.95,9.9 -2.13,3.27 -3.11,6.59 -3,10.16 0.1,3.23 1.08,6.63 3.07,10.7 2.98,6.08 1.8,13.33 1.78,13.46 -0.26,1.46 0.72,2.85 2.18,3.11 0.16,0.03 0.32,0.04 0.47,0.04 1.28,0 2.42,-0.92 2.65,-2.22 0.06,-0.37 1.54,-9.04 -2.25,-16.76 -3.26,-6.64 -3.37,-11 -0.4,-15.56 2.74,-4.21 3.78,-10.2 4.15,-16.44 l 1.74,2.93 c 0.5,0.85 1.4,1.32 2.32,1.32 0.47,0 0.94,-0.12 1.37,-0.38 1.28,-0.76 1.7,-2.41 0.94,-3.69 l -6.56,-11.07 v 0 c -0.06,-0.1 -0.12,-0.19 -0.18,-0.27 l -0.02,-0.03 c 0,0 -0.05,-0.06 -0.08,-0.09 l -0.03,-0.03 c 0,0 -0.06,-0.07 -0.1,-0.1 v 0 c 0,0 -0.07,-0.08 -0.11,-0.11 l -0.03,-0.03 c 0,0 -0.06,-0.05 -0.09,-0.07 l -0.03,-0.02 c 0,0 -0.08,-0.06 -0.12,-0.09 v 0 c 0,0 -0.09,-0.06 -0.14,-0.09 v 0 c 0,0 -0.09,-0.05 -0.14,-0.08 h -0.01 c -0.15,-0.08 -0.3,-0.14 -0.46,-0.19 v 0 c 0,0 -0.1,-0.03 -0.15,-0.04 h -0.01 c -0.11,-0.03 -0.21,-0.04 -0.32,-0.05 h -0.03 c 0,0 -0.08,0 -0.13,0 h -0.02 c 0,0 -0.02,0 -0.03,0 h -0.17 c 0,0 -0.08,0 -0.12,0 h -0.04 c -0.11,0.01 -0.21,0.03 -0.32,0.06 h -0.02 c 0,0 -0.09,0.03 -0.14,0.04 h -0.02 c -0.16,0.05 -0.3,0.11 -0.45,0.18 h -0.03 c 0,0 -0.07,0.05 -0.11,0.08 l -0.03,0.02 c 0,0 -0.08,0.05 -0.12,0.08 h -0.01 c 0,0 -0.08,0.07 -0.12,0.1 l -0.04,0.03 c 0,0 -0.05,0.04 -0.08,0.06 l -0.04,0.04 c 0,0 -0.05,0.05 -0.08,0.07 l -0.03,0.03 c 0,0 -0.07,0.07 -0.1,0.11 l -0.03,0.03 c 0,0 -0.05,0.06 -0.07,0.09 l -0.03,0.03 c 0,0 -0.05,0.07 -0.08,0.11 v 0 0.02 h -0.02 l -7.45,11.06 c -0.83,1.23 -0.51,2.9 0.73,3.73 v 0 z"
     id="path29" />
  <path
     d="m 58.633978,16 c 1.23,0.83 2.9,0.51 3.73,-0.73 l 2.39,-3.54 c -0.08,1.39 -0.19,2.76 -0.35,4.09 -0.54,4.44 -1.5,7.68 -2.95,9.9 -2.13,3.27 -3.11,6.59 -3,10.16 0.1,3.23 1.08,6.63 3.07,10.7 2.98,6.08 1.8,13.33 1.78,13.46 -0.26,1.46 0.72,2.85 2.18,3.11 0.16,0.03 0.32,0.04 0.47,0.04 1.28,0 2.42,-0.92 2.65,-2.22 0.06,-0.37 1.54,-9.04 -2.25,-16.76 -3.26,-6.64 -3.37,-11 -0.4,-15.56 2.74,-4.21 3.78,-10.2 4.15,-16.44 l 1.74,2.93 c 0.5,0.85 1.4,1.32 2.32,1.32 0.47,0 0.94,-0.12 1.37,-0.38 1.28,-0.76 1.7,-2.41 0.94,-3.69 l -6.56,-11.07 c -0.06,-0.1 -0.12,-0.19 -0.19,-0.28 v 0 c 0,0 -0.06,-0.09 -0.1,-0.12 l -0.02,-0.02 c -0.07,-0.08 -0.15,-0.16 -0.23,-0.23 v 0 c 0,0 -0.08,-0.07 -0.12,-0.1 h -0.02 c -0.3,-0.24 -0.66,-0.41 -1.04,-0.5 h -0.02 c 0,0 -0.1,-0.02 -0.14,-0.03 h -0.02 c -0.1,-0.02 -0.21,-0.03 -0.32,-0.03 h -0.02 c 0,0 -0.02,0 -0.04,0 -0.02,0 -0.04,0 -0.06,0 h -0.1 c 0,0 -0.07,0 -0.1,0 -0.02,0 -0.04,0 -0.06,0 -0.05,0 -0.1,0.01 -0.15,0.02 h -0.02 c 0,0 -0.09,0.02 -0.13,0.03 h -0.05 c 0,0 -0.07,0.03 -0.11,0.04 h -0.05 c 0,0 -0.07,0.04 -0.11,0.05 h -0.03 c 0,0 -0.1,0.05 -0.14,0.07 h -0.03 c 0,0 -0.07,0.05 -0.11,0.06 l -0.05,0.03 c 0,0 -0.06,0.03 -0.08,0.05 -0.02,0.01 -0.04,0.02 -0.05,0.03 -0.03,0.02 -0.06,0.04 -0.09,0.05 -0.02,0.01 -0.04,0.03 -0.06,0.04 -0.03,0.02 -0.06,0.05 -0.1,0.07 -0.02,0.01 -0.04,0.03 -0.05,0.04 -0.02,0.02 -0.04,0.03 -0.06,0.05 -0.02,0.02 -0.04,0.03 -0.05,0.05 -0.02,0.02 -0.04,0.04 -0.07,0.06 -0.01,0.01 -0.03,0.03 -0.04,0.04 -0.03,0.03 -0.07,0.07 -0.1,0.11 -0.01,0.01 -0.02,0.02 -0.03,0.03 -0.02,0.03 -0.05,0.06 -0.07,0.09 l -0.03,0.04 c 0,0 -0.05,0.07 -0.08,0.11 v 0 0.02 h -0.02 l -7.45,11.06 c -0.83,1.23 -0.51,2.9 0.73,3.73 v 0 z"
     id="path31" />
  <path
     d="m 87.803978,69.66 -5.47,-13.94 c -0.54,-1.38 -2.1,-2.06 -3.49,-1.52 -1.38,0.54 -2.06,2.1 -1.52,3.49 l 4.03,10.27 H 6.6339782 L 10.663978,57.69 c 0.54,-1.38 -0.14,-2.94 -1.5199998,-3.49 -1.38,-0.54 -2.94,0.14 -3.49,1.52 L 0.18397818,69.66 c -0.32,0.83 -0.22,1.76 0.28,2.5 0.5,0.73 1.33000002,1.17 2.22000002,1.17 H 85.303978 c 0.89,0 1.72,-0.44 2.22,-1.17 0.5,-0.74 0.61,-1.67 0.28,-2.5 z"
     id="path33" />
</svg>
