<?xml version="1.0" encoding="UTF-8"?>
<svg width="1418px" height="1418px" viewBox="0 0 1418 1418" version="1.1" xmlns="http://www.w3.org/2000/svg" xmlns:xlink="http://www.w3.org/1999/xlink">
    <!-- Generator: Sketch 57 (83077) - https://sketch.com -->
    <title>Artboard</title>
    <desc>Created with Sketch.</desc>
    <g id="Artboard" stroke="none" stroke-width="1" fill="none" fill-rule="evenodd" stroke-linecap="square">
        <path d="M227,645.325874 C371.786348,662.549516 444.795611,672.539343 446.027791,675.295356 C447.876061,679.429376 447.876061,687.31589 448.239675,689.905104 C476.884305,893.877119 665.331795,1035.9904 869.148926,1007.324 C1072.96606,978.657607 1214.97143,790.066912 1186.3268,586.094896 C1182.30125,557.4299 1175.11964,529.986602 1165.18282,504.067313 C1104.41207,345.552259 940.591447,244.0382 765.417545,268.675995 M992.666667,989.667883 L1083.33333,1171.33212 M1213,217 L1083,365 M1033.25946,618.237288 C1022.77934,498.391066 917.175893,409.73643 797.387561,420.221616 C677.599229,430.706802 588.987416,536.361283 599.467536,656.207504 C600.941056,673.049907 604.291829,689.276406 609.297328,704.698224 C639.909548,799.013709 732.385055,863.230517 835.339436,854.223176 M138.5,727 C187.3772,727 227,687.3772 227,638.5 C227,589.6228 187.3772,550 138.5,550 C89.6227996,550 50,589.6228 50,638.5 C50,687.3772 89.6227996,727 138.5,727 Z M1278.5,246 C1327.3772,246 1367,206.3772 1367,157.5 C1367,108.6228 1327.3772,69 1278.5,69 C1229.6228,69 1190,108.6228 1190,157.5 C1190,206.3772 1229.6228,246 1278.5,246 Z M1114.5,1348 C1163.3772,1348 1203,1308.3772 1203,1259.5 C1203,1210.6228 1163.3772,1171 1114.5,1171 C1065.6228,1171 1026,1210.6228 1026,1259.5 C1026,1308.3772 1065.6228,1348 1114.5,1348 Z" id="Combined-Shape" stroke="#000000" stroke-width="61"></path>
    </g>
</svg>