<?xml version="1.0" encoding="utf-8"?>
<!-- Generator: Adobe Illustrator 22.1.0, SVG Export Plug-In . SVG Version: 6.00 Build 0)  -->
<svg version="1.1" baseProfile="tiny" id="Layer_1" xmlns="http://www.w3.org/2000/svg" xmlns:xlink="http://www.w3.org/1999/xlink"
	 x="0px" y="0px" viewBox="0 0 128 128" xml:space="preserve">
<g>
	<path d="M57,1c5.3,0,10.7,0,16,0c0.6,0.3,1.1,0.7,1.7,0.8c28.1,5.4,45.5,22,52.8,49.5c0.5,1.9,1,3.7,1.5,5.6c0,5.3,0,10.7,0,16
		c-0.3,0.7-0.8,1.4-0.9,2.2c-4.7,25-19.1,41.7-42.8,50.4c-4,1.5-8.2,2.3-12.3,3.4c-5.3,0-10.7,0-16,0c-0.7-0.3-1.4-0.8-2.2-0.9
		c-25-4.7-41.7-19.1-50.4-42.8C2.9,81.3,2.1,77.1,1,73c0-5.3,0-10.7,0-16c0.3-0.7,0.8-1.4,0.9-2.2C6.6,29.8,21,13.1,44.7,4.4
		C48.7,2.9,52.9,2.1,57,1z M22.1,24C4.8,40.4,0.4,69.1,11.5,91.5c11.6,23.4,37,36.5,63,32.4c25.2-4,46.1-25,49.5-49.6
		c3.3-24.2-8.7-50.5-26.8-58.9c-0.8,8.4-3.2,11.8-9,12.9c-4.7,0.9-9.3-1.1-11-5.6c-1-2.4-1.2-5.6-0.5-8.1c0.7-2.4,3-4.4,4.6-6.6
		c-13.7-5.7-35.9-2.4-49,7.5c6.3,3.7,8,6.6,6.7,11.2c-1.1,3.8-3.8,6-7.7,6.1C25.9,33,23.2,29.6,22.1,24z M92.6,18.2
		c0.1-3.5-2.8-6.4-6.3-6.3c-3.7,0.1-5.9,2.2-6.3,5.8c-0.4,3.5,2.4,6.4,6,6.6C89.6,24.4,92.6,21.7,92.6,18.2z M30.8,18.6
		c-1.8,2.7-3.9,4.3-3.8,5.8c0.1,1.5,2.3,2.9,3.6,4.3c1.4-1.4,3.7-2.7,4.1-4.4C35,23,32.7,21.2,30.8,18.6z"/>
	<path d="M43.8,75.8c10.5,0.1,19.1,8.7,19,19.1c0,10.6-8.9,19.3-19.6,19.1c-10.5-0.2-18.8-8.9-18.7-19.4
		C24.8,84,33.2,75.7,43.8,75.8z M28.9,94.9c0,8.3,6.6,15,14.8,15c8.1,0,14.9-6.9,14.9-15c0-8.2-6.7-14.9-14.9-14.9
		C35.4,80,28.9,86.6,28.9,94.9z"/>
	<path d="M41.7,30.8c0.1-9.6,7.7-17,17.3-16.8c9.2,0.2,16.8,7.8,16.7,17c-0.1,9.4-8,17.1-17.4,16.9C49,47.7,41.6,40.1,41.7,30.8z
		 M71.3,30.9c0-6.9-5.8-12.8-12.6-12.8c-6.8,0-12.7,6-12.7,12.8c0,6.8,5.9,12.8,12.6,12.8C65.3,43.7,71.2,37.7,71.3,30.9z"/>
	<path d="M105.5,71.3c-8.3,0-14.8-6.6-14.7-15c0.1-8.3,6.7-14.8,15.1-14.6c8.1,0.2,14.5,6.6,14.5,14.7
		C120.4,64.7,113.8,71.3,105.5,71.3z M116,56.6c0.1-5.7-4.5-10.5-10.3-10.6c-5.9-0.2-10.9,4.8-10.8,10.6c0.1,5.6,4.9,10.4,10.5,10.4
		C111.2,67,116,62.3,116,56.6z"/>
	<path d="M11.8,50c0-6.8,6-12.8,12.8-12.7c6.7,0.1,12.6,6.1,12.5,12.9c0,6.8-6,12.8-12.8,12.7C17.6,62.8,11.8,56.8,11.8,50z
		 M24.7,41.7c-4.7-0.1-8.7,3.7-8.6,8.4c0,4.5,3.8,8.2,8.2,8.3c4.7,0.1,8.7-3.8,8.6-8.4C32.9,45.6,29.2,41.8,24.7,41.7z"/>
	<path d="M75.6,73.4c-6.8,0-12.7-6-12.6-12.8c0-6.8,6-12.7,12.8-12.6c6.8,0,12.6,5.9,12.6,12.8C88.3,67.7,82.4,73.5,75.6,73.4z
		 M84,60.8c0-4.7-4-8.7-8.6-8.6c-4.3,0.1-8.3,4.1-8.3,8.4c0,4.4,3.7,8.3,8.2,8.4C80.1,69.3,84,65.6,84,60.8z"/>
	<path d="M101.1,73.7c6.9-0.1,12.8,5.7,12.9,12.5c0.1,6.8-5.7,12.8-12.6,12.9c-6.8,0.1-12.8-5.7-12.9-12.5
		C88.5,79.7,94.2,73.8,101.1,73.7z M101.1,94.8c4.3,0.1,8.4-3.7,8.6-8c0.3-4.5-3.6-8.7-8.3-8.8c-4.6-0.1-8.3,3.4-8.5,8
		C92.7,90.6,96.4,94.7,101.1,94.8z"/>
	<path d="M47.7,73.3c-5.7-0.1-10.4-4.9-10.3-10.6c0.1-5.6,5-10.5,10.5-10.5c5.8,0,10.7,5.1,10.5,10.9C58.2,69,53.5,73.4,47.7,73.3z
		 M41.7,62.6c-0.2,3.6,2.4,6.4,6,6.5c3.6,0.1,6.4-2.5,6.4-6.1c0-3.7-2.1-5.9-5.7-6.2C44.8,56.3,41.9,59,41.7,62.6z"/>
	<path d="M86.1,88.4c0,5.7-4.6,10.5-10.3,10.6c-5.8,0.1-10.9-5-10.8-10.7c0.1-5.7,5-10.4,10.6-10.3C81.5,78,86.1,82.7,86.1,88.4z
		 M82,88.7c0.1-3.4-2.8-6.5-6.2-6.6c-3.3-0.1-6.6,3.1-6.4,6.4c0.3,3.6,2.3,5.9,6,6.3C78.7,95.1,81.8,92.1,82,88.7z"/>
	<path d="M69.4,122.5c-4.7,0.1-8.6-3.7-8.5-8.5c0-4.6,3.5-8.1,8.2-8.2c4.8-0.1,8.7,3.7,8.6,8.4C77.7,118.5,73.9,122.4,69.4,122.5z
		 M69.4,108c-2.1,2.8-4.2,4.5-4.1,5.9c0.1,1.5,2.3,3.8,3.8,3.9c1.3,0.1,3.7-2.2,3.9-3.7C73.3,112.7,71.3,111,69.4,108z"/>
	<path d="M103.5,39.2c-3.5,0-6.6-2.8-6.4-6.3c0.2-3.6,2.2-5.9,6-6.1c3.6-0.2,6.5,2.5,6.7,6C109.9,36.2,107,39.2,103.5,39.2z"/>
	<path d="M14,77.9c-0.1-3.5,2.7-6.4,6.3-6.3c3.7,0.1,5.8,2.2,6.2,5.9c0.3,3.5-2.5,6.5-6,6.6C16.9,84.1,14,81.4,14,77.9z"/>
</g>
</svg>
