<?xml version="1.0" encoding="utf-8"?>
<!-- Svg Vector Icons : http://www.onlinewebfonts.com/icon -->
<!DOCTYPE svg PUBLIC "-//W3C//DTD SVG 1.1//EN" "http://www.w3.org/Graphics/SVG/1.1/DTD/svg11.dtd">
<svg version="1.1" xmlns="http://www.w3.org/2000/svg" xmlns:xlink="http://www.w3.org/1999/xlink" x="0px" y="0px" viewBox="0 0 256 256" enable-background="new 0 0 256 256" xml:space="preserve">
<metadata> Svg Vector Icons : http://www.onlinewebfonts.com/icon </metadata>
<g><g><g><path fill="#000000" d="M237.4,10.8c-1,1.1-21.1,24.6-44.7,52.2c-23.6,27.6-43.1,50.2-43.3,50.2c-0.2,0.1-9-7.4-19.7-16.5c-22.2-19.1-24.5-20.6-31.5-20.5c-4.8,0.1-8.7,1.3-11.9,3.7c-1.1,0.9-4.8,4.7-8.2,8.7c-7.1,8.2-7.4,9.3-4.1,12.7c1,1.2,16.3,14.4,33.9,29.4c17.6,15,41.2,35.1,52.4,44.7c11.2,9.6,21.1,17.8,21.9,18.1c2.6,1,4.3-0.2,10.5-7.6c7.3-8.6,9-12,8.9-17.7c-0.1-9.5-0.7-10.4-24.6-30.9c-17.7-15.1-20.2-17.5-19.5-18.3c0.7-0.9,60-70.4,80.6-94.4c6.6-7.8,7.8-9.4,7.8-11.2C246,8.7,240.7,7.1,237.4,10.8z"/><path fill="#000000" d="M69.4,108.6c-5,1.4-8.2,5.7-10.6,14.3l-1,3.8l-4.5,2c-6.5,2.8-10.1,6.3-13.2,12.7l-2.5,5.2l-6.3,3c-7,3.3-10.6,6.4-13.5,11.5c-1,1.7-3.1,4.3-4.7,5.9c-2.4,2.4-3,3.3-3,5c0,3.3,2,5,5.7,4.7c1.7-0.1,7.6-6,9.6-9.5c2.6-4.6,4.9-6.5,12.5-10.2l6.9-3.4l2.8-5.7c1.5-3.1,3.4-6.2,4-6.9c0.7-0.7,3.8-2.5,6.8-4c3.1-1.5,6.2-3.4,6.9-4.3c0.7-0.9,1.8-3.6,2.6-6c1.5-4.7,3-7.4,5-8.5c0.7-0.4,3.5-0.8,6.3-1l5-0.4l-5.2-4.4c-2.9-2.5-5.5-4.5-5.8-4.4C72.7,107.8,71,108.2,69.4,108.6z"/><path fill="#000000" d="M82.3,121c-4.6,1.6-7.1,5-9.6,13.2l-1.5,4.5l-4.4,2c-2.5,1.1-5.4,2.8-6.6,3.6c-2.6,2-6.5,7.7-7.7,11.3c-0.8,2.6-1,2.8-7.2,5.6c-6.9,3.3-11.9,7.4-14.3,12.2c-0.7,1.4-2.6,3.9-4.4,5.5c-2.6,2.5-3.1,3.4-3.1,5.2c0,2.7,1.9,4.7,4.5,4.7c2.5,0,8.1-4.9,10.4-9.2c2.8-5,5.9-7.6,11.6-10c6.7-2.8,9.3-5,11.1-9.8c1.8-5,5.7-8.9,10.7-10.8c5.9-2.3,7.4-3.8,9-8.9c2.6-8.7,4.8-10.9,11.1-10.9c6.5,0,6.5-0.2,1-5C87.6,119.7,86.6,119.4,82.3,121z"/><path fill="#000000" d="M98,132.4c-1.5,0.2-3.6,1-4.6,1.7c-2.6,1.5-5.7,6.7-7.4,12.4c-1.2,4.1-1.5,4.6-3.5,5.4c-8.5,3.4-12.5,7-15.7,14c-1.2,2.5-2.5,4.7-2.9,5.1c-0.4,0.3-3,1.5-5.7,2.6c-5.7,2.5-10.3,6.4-13.8,11.9c-1.3,2.1-3.6,4.9-4.9,6.1c-2.2,1.9-2.5,2.6-2.5,4.7c0,1.9,0.4,2.7,1.6,3.7c0.9,0.7,2.3,1.3,3,1.3c2.2,0,7.5-4.9,10.3-9.4c3.3-5.3,6.2-7.9,12.4-10.3c6-2.5,8.9-5.1,10.5-9.8c1.5-4.6,6.1-9,11.3-10.9c4.8-1.8,7.1-4.1,8.1-7.9c1-4.1,3-8.5,4.4-9.8c0.8-0.7,3.1-1.2,7.4-1.7l6.2-0.7l-5.3-4.5c-2.9-2.4-5.5-4.4-5.7-4.4C100.8,131.8,99.4,132.1,98,132.4z"/><path fill="#000000" d="M109.4,145c-4.7,1.5-8.1,6.3-10.4,15.3c-0.7,2.5-0.9,2.7-5.8,4.9c-6.3,2.8-9.8,6.4-13,13c-2,4.2-2.5,4.7-5,5.8c-9.3,4-13.6,7.3-17,13.1c-1,1.7-3.1,4.4-4.7,5.9c-2.5,2.3-3,3.1-3,5c0,3,1.7,4.7,4.6,4.7c1.7,0,2.8-0.6,5.3-2.9c1.7-1.6,3.9-4.3,4.9-6c2.6-4.7,5.5-7.1,13-10.8l6.9-3.4l2.9-5.8c1.5-3.2,3.4-6.3,4.1-7c0.7-0.7,3.8-2.5,7-4.1c6.2-3.1,8.1-5,8.8-9.2c0.6-3.3,2.8-7.6,4.7-9c1.3-0.9,3-1.3,6.9-1.5c2.9-0.2,5.4-0.5,5.5-0.7c0.2-0.2-1.8-2.3-4.5-4.5C115.5,143.6,114.7,143.4,109.4,145z"/><path fill="#000000" d="M122.6,157.1c-4.2,1.6-7.7,6.5-9.8,14l-1,3.8l-4.5,2c-2.5,1.2-5.4,2.8-6.6,3.7c-2.6,2-6.8,8.2-7.8,11.5c-0.7,2.3-1,2.6-7,5.4c-7.1,3.3-11,6.6-14,11.6c-1.1,1.9-3.3,4.7-4.9,6.3c-2.4,2.3-2.9,3.3-2.9,5.1c0,2.8,1.8,4.7,4.4,4.7c2.6,0,7.9-4.7,11-10c3-5,4.7-6.3,12.3-9.9c6.7-3.1,8.1-4.4,9.8-9.1c2-5.3,5.3-8.7,10.6-10.8c5.8-2.3,7.9-4.5,9.3-9.5c2.2-7.8,4.7-10.4,10.2-10.4c1.2,0,3.6-0.2,5.4-0.4l3.1-0.4l-4.9-4.2c-4.6-4-5.1-4.2-7.8-4.2C125.9,156.4,123.7,156.7,122.6,157.1z"/><path fill="#000000" d="M137.2,168.1c-3.5,1.8-5.7,5-7.9,11.9l-1.8,5.3l-4.4,1.8c-6.1,2.6-9.9,6.2-13.2,12.7c-1.4,2.9-3,5.4-3.5,5.7c-0.4,0.2-3.2,1.6-6.1,2.9c-5.8,2.8-10,6.3-12.6,11.1c-0.9,1.6-3.1,4.2-4.7,5.8c-2.6,2.5-3,3.3-3,5.3c0,3.1,2.3,5.3,5.2,4.7c2.3-0.5,7.8-5.8,10.1-10c2.4-4.2,6-7.2,11.6-9.5c6.9-2.8,7.9-3.7,10.5-9.5c2.9-6.3,5.6-9,11.2-11.1c5.5-2.2,7.3-4.3,9.2-10.4c0.9-3.1,2-5.4,3.3-6.8c1.7-1.8,2.4-2,6.6-2.4l4.7-0.5l-4.9-4.2c-2.9-2.5-5.5-4.2-6.3-4.2C140.5,166.7,138.7,167.4,137.2,168.1z"/><path fill="#000000" d="M152.3,179.3c-1.3,0.4-3.2,1.6-4.2,2.6c-2.1,2-4.9,7.5-6,12.3c-0.8,3.1-0.8,3.1-5,4.8c-5.8,2.3-10.7,6.8-13.3,12.4c-1.1,2.3-2.2,4.5-2.5,5c-0.2,0.5-2.6,1.8-5.3,3c-6.5,2.7-10.4,5.8-13.6,10.6c-1.4,2.2-3.9,5.4-5.7,7.1c-2.6,2.6-3.1,3.5-3.1,5.4c0,2.9,1.7,4.7,4.5,4.7c1.7,0,2.8-0.7,5.8-3.6c2-1.9,4.2-4.7,4.9-6c1.9-3.8,6.6-7.7,11.9-9.8c6-2.5,8.1-4.4,10.8-10.1c2.8-6.1,3.9-7.1,10.1-10c2.9-1.4,5.8-3,6.6-3.7c0.8-0.7,2-3.4,3-6.3c2.4-8,4-9.4,11.1-10l4.5-0.4l-5.2-4.5c-2.8-2.4-5.5-4.4-6-4.4C155.1,178.5,153.7,178.8,152.3,179.3z"/></g></g></g>
</svg>