<?xml version="1.0" encoding="UTF-8" standalone="no"?>
<svg
   version="1.1"
   x="0px"
   y="0px"
   viewBox="0 0 91.713356 68.699997"
   xml:space="preserve"
   id="svg27"
   sodipodi:docname="oscillation.svg"
   width="91.713356"
   height="68.699997"
   inkscape:version="1.2.1 (9c6d41e410, 2022-07-14)"
   xmlns:inkscape="http://www.inkscape.org/namespaces/inkscape"
   xmlns:sodipodi="http://sodipodi.sourceforge.net/DTD/sodipodi-0.dtd"
   xmlns="http://www.w3.org/2000/svg"
   xmlns:svg="http://www.w3.org/2000/svg"><defs
     id="defs31" /><sodipodi:namedview
     id="namedview29"
     pagecolor="#ffffff"
     bordercolor="#666666"
     borderopacity="1.0"
     inkscape:showpageshadow="2"
     inkscape:pageopacity="0.0"
     inkscape:pagecheckerboard="0"
     inkscape:deskcolor="#d1d1d1"
     showgrid="false"
     inkscape:zoom="9.328"
     inkscape:cx="45.776158"
     inkscape:cy="46.848199"
     inkscape:window-width="2560"
     inkscape:window-height="1369"
     inkscape:window-x="-8"
     inkscape:window-y="-8"
     inkscape:window-maximized="1"
     inkscape:current-layer="svg27" /><path
     d="m 91.25,28.8 -4.6,-4.6 c -0.6,-0.6 -1.5,-0.6 -2.1,0 l -19.9,20 c -2.4,-7.8 -9.6,-13.5 -18.2,-13.5 -8.3,0 -15.3,5.3 -17.9,12.7 L 7.15,22 c -0.6,-0.6 -1.5,-0.6 -2.1,0 l -4.6,4.6 c -0.6,0.6 -0.6,1.5 0,2.1 l 28.8,28.8 c 3,6.6 9.6,11.2 17.3,11.2 6.8,0 12.8,-3.6 16.1,-9 L 91.35,31 c 0.5,-0.7 0.5,-1.6 -0.1,-2.2 z m -44.8,8.7 c 6.7,0 12.1,5.4 12.1,12.1 0,0.2 0,0.4 0,0.7 -0.3,6.4 -5.6,11.4 -12,11.4 -6.7,0 -12.1,-5.4 -12.1,-12.1 0,-0.1 0,-0.3 0,-0.4 0.2,-6.4 5.5,-11.7 12,-11.7 z m 12.8,-20.1 4.1,-6 c -10.4,-4.1 -22,-4.1 -32.4,0 l 4.1,6 -21,1.5 9.2,-18.9 4.3,6.3 c 12.5,-5.4 26.8,-5.4 39.3,0 l 4.3,-6.3 9.2,18.9 z"
     id="path21" /></svg>
