<?xml version="1.0" encoding="UTF-8" standalone="no"?>
<svg
   version="1.1"
   x="0px"
   y="0px"
   viewBox="0 0 64 90"
   xml:space="preserve"
   id="svg27"
   sodipodi:docname="icon.svg"
   width="64"
   height="90"
   inkscape:version="1.2.1 (9c6d41e410, 2022-07-14)"
   xmlns:inkscape="http://www.inkscape.org/namespaces/inkscape"
   xmlns:sodipodi="http://sodipodi.sourceforge.net/DTD/sodipodi-0.dtd"
   xmlns="http://www.w3.org/2000/svg"
   xmlns:svg="http://www.w3.org/2000/svg"><defs
     id="defs31" /><sodipodi:namedview
     id="namedview29"
     pagecolor="#ffffff"
     bordercolor="#666666"
     borderopacity="1.0"
     inkscape:showpageshadow="2"
     inkscape:pageopacity="0.0"
     inkscape:pagecheckerboard="0"
     inkscape:deskcolor="#d1d1d1"
     showgrid="false"
     inkscape:zoom="9.328"
     inkscape:cx="31.946827"
     inkscape:cy="42.774443"
     inkscape:window-width="2560"
     inkscape:window-height="1369"
     inkscape:window-x="-8"
     inkscape:window-y="-8"
     inkscape:window-maximized="1"
     inkscape:current-layer="svg27" /><path
     d="M 62,0 H 2 C 0.9,0 0,0.9 0,2 v 76 c 0,6.62 5.38,12 12,12 h 1 38 1 c 6.62,0 12,-5.38 12,-12 V 2 C 64,0.9 63.1,0 62,0 Z M 60,28 H 54 V 4 h 6 z M 14,28 V 4 H 50 V 28 Z M 10,4 V 28 H 4 V 4 Z m 5.74,82 3.19,-10 H 24 40 45.07 l 3.19,10 z M 21,69 c 0,-1.65 1.35,-3 3,-3 h 3.1 c 0.95,0 1.77,-0.67 1.96,-1.6 0.28,-1.39 1.52,-2.4 2.94,-2.4 1.42,0 2.66,1.01 2.94,2.4 0.19,0.93 1.01,1.6 1.96,1.6 H 40 c 1.65,0 3,1.35 3,3 0,1.65 -1.35,3 -3,3 H 24 c -1.65,0 -3,-1.35 -3,-3 z M 52.45,85.98 48.43,73.39 C 48.17,72.56 47.4,72 46.53,72 h -0.21 c 0.43,-0.91 0.69,-1.93 0.69,-3 0,-3.86 -3.14,-7 -7,-7 h -1.68 c -1.14,-2.39 -3.58,-4 -6.32,-4 -2.74,0 -5.19,1.61 -6.32,4 H 24 c -3.86,0 -7,3.14 -7,7 0,1.07 0.25,2.09 0.69,3 h -0.21 c -0.87,0 -1.64,0.56 -1.91,1.39 L 11.55,85.98 C 7.35,85.74 4,82.26 4,78 V 32 h 56 v 46 c 0,4.26 -3.35,7.74 -7.55,7.98 z M 32,38 c -3.86,0 -7,3.14 -7,7 0,3.86 3.14,7 7,7 3.86,0 7,-3.14 7,-7 0,-3.86 -3.14,-7 -7,-7 z m 0,10 c -1.65,0 -3,-1.35 -3,-3 0,-1.65 1.35,-3 3,-3 1.65,0 3,1.35 3,3 0,1.65 -1.35,3 -3,3 z M 53.41,38.59 C 53.79,38.96 54,39.47 54,40 c 0,0.53 -0.21,1.04 -0.59,1.42 -0.09,0.09 -0.19,0.17 -0.3,0.24 -0.11,0.07 -0.22,0.14 -0.35,0.19 -0.12,0.05 -0.24,0.09 -0.37,0.11 C 52.26,41.99 52.13,42 52,42 51.47,42 50.96,41.79 50.59,41.42 50.21,41.04 50,40.53 50,40 c 0,-0.53 0.21,-1.04 0.59,-1.41 0.73,-0.75 2.08,-0.75 2.82,0 z m 0,10 C 53.79,48.96 54,49.47 54,50 c 0,0.27 -0.05,0.52 -0.15,0.77 -0.1,0.24 -0.25,0.46 -0.44,0.64 -0.09,0.1 -0.19,0.18 -0.3,0.25 -0.11,0.08 -0.23,0.14 -0.34,0.19 -0.12,0.05 -0.25,0.09 -0.38,0.11 C 52.26,51.99 52.13,52 52,52 51.47,52 50.96,51.79 50.59,51.41 50.4,51.23 50.25,51.01 50.15,50.77 50.05,50.52 50,50.27 50,50 c 0,-0.53 0.21,-1.04 0.59,-1.41 0.46,-0.47 1.15,-0.68 1.8,-0.55 0.13,0.02 0.25,0.06 0.37,0.11 0.13,0.05 0.24,0.12 0.35,0.19 0.11,0.07 0.21,0.15 0.3,0.25 z"
     id="path21" /></svg>
