<?xml version='1.0' encoding='utf-8'?>
<!DOCTYPE svg PUBLIC '-//W3C//DTD SVG 1.1//EN' 'http://www.w3.org/Graphics/SVG/1.1/DTD/svg11.dtd'>
<!-- Uploaded to: SVG Repo, www.svgrepo.com, Generator: SVG Repo Mixer Tools -->
<svg fill="#000000" height="800px" width="800px" version="1.1" xmlns="http://www.w3.org/2000/svg" viewBox="0 0 512 512" xmlns:xlink="http://www.w3.org/1999/xlink" enable-background="new 0 0 512 512">
  <g>
    <g>
      <path d="m207.8,265.8v-183.8c0-39.1-31.5-71-70.2-71-38.6,0-70.1,31.8-70.1,71v183.9c-35.1,23.6-56.5,63.5-56.5,106.7 0,70.8 56.8,128.4 126.7,128.4 69.8,0 126.7-57.6 126.7-128.4-0.1-43.2-21.4-83.1-56.6-106.8zm-70.1,194.4c-47.3,0-85.8-39.3-85.8-87.5 0-32.5 17.5-62.1 45.8-77.4 6.6-3.6 10.7-10.5 10.7-18v-195.3c0-16.6 13.2-30.1 29.3-30.1 16.2,0 29.3,13.5 29.3,30.1v195.3c0,7.5 4.1,14.4 10.7,18 28.2,15.2 45.8,44.9 45.8,77.4 0,48.2-38.5,87.5-85.8,87.5z"/>
      <path d="m493.1,340.5c-8.9-6.9-21.7-5.3-28.6,3.6l-49.3,63.5v-362.9c0-11.3-9.1-20.4-20.4-20.4s-20.4,9.1-20.4,20.4v362.9l-49.3-63.5c-6.9-8.9-19.7-10.5-28.6-3.6-8.9,6.9-10.5,19.7-3.6,28.7l85.8,110.6c3.9,5 9.8,7.9 16.1,7.9s12.3-2.9 16.1-7.9l85.8-110.6c6.9-8.9 5.3-21.8-3.6-28.7z"/>
    </g>
  </g>
</svg>