<?xml version="1.0" encoding="utf-8"?>
<!-- Generator: Adobe Illustrator 22.1.0, SVG Export Plug-In . SVG Version: 6.00 Build 0)  -->
<svg version="1.1" id="Слой_1" xmlns="http://www.w3.org/2000/svg" xmlns:xlink="http://www.w3.org/1999/xlink" x="0px" y="0px"
	 viewBox="0 0 725.7 725.7" style="enable-background:new 0 0 725.7 725.7;" xml:space="preserve">
<style type="text/css">
	.st0{fill:none;stroke:#000000;stroke-width:10;stroke-miterlimit:10;}
	.st1{stroke:#000000;stroke-width:3;stroke-miterlimit:10;}
</style>
<circle class="st0" cx="362.8" cy="363.2" r="353"/>
<path class="st0" d="M437.2,651.7c-24,0-50.4,6.6-74.4,6.6c-26.2,0-49.8-6.6-76-6.6c0-192,0-384,0-576c25.3,0,50.7-6.6,76-6.6
	c24.8,0,49.6,6.6,74.4,6.6C437.2,267.7,437.2,459.7,437.2,651.7z"/>
<g>
	<path class="st1" d="M386.3,203.4v-36.2h-42.2v36.2h-7.2V126h7.2v34.7h42.2V126h7.2v77.4H386.3z"/>
	<path class="st1" d="M342.3,336.1v-77.4H380v6.6h-30.5v28.4h28.3v6.5h-28.3v29.4h32.3v6.5H342.3z"/>
	<path class="st1" d="M349.7,438.6v30.1h-7.2v-77.4h20c4.1,0,7.7,0.5,10.8,1.5c3.1,1,5.8,2.5,7.9,4.4c2.2,1.9,3.8,4.2,4.9,7
		c1.1,2.8,1.7,5.9,1.7,9.5c0,3.6-0.6,6.9-1.9,10c-1.3,3-3.1,5.7-5.4,7.9c-2.4,2.2-5.2,3.9-8.6,5.2c-3.4,1.2-7.2,1.9-11.5,1.9H349.7z
		 M349.7,397.9V432H360c6.7,0,11.7-1.5,15.2-4.6c3.5-3.1,5.2-7.5,5.2-13.1c0-10.9-6.4-16.4-19.1-16.4H349.7z"/>
	<path class="st1" d="M387.9,601.4l-8.5-22.9h-33.2l-8.3,22.9h-8l29.5-77.4h7.2l29.3,77.4H387.9z M364.3,537.5
		c-0.3-0.7-0.5-1.5-0.8-2.4c-0.3-0.9-0.5-1.9-0.7-3.1h-0.2c-0.2,1.2-0.5,2.2-0.7,3.1c-0.3,0.9-0.5,1.7-0.8,2.4L348.6,572h28.3
		L364.3,537.5z"/>
</g>
<polyline class="st0" points="483.3,179.3 516,179.3 516,215 582,164.7 516,116 516,150.3 485,150.3 "/>
<path class="st0" d="M483.3,179.3"/>
<path class="st0" d="M485,150.3"/>
<path class="st0" d="M486.1,179.1c-8,0-14.4-6.5-14.4-14.4s6.5-14.4,14.4-14.4"/>
<polyline class="st0" points="483.3,576.4 516,576.4 516,612.2 582,561.9 516,513.2 516,547.4 485,547.4 "/>
<path class="st0" d="M483.3,576.4"/>
<path class="st0" d="M485,547.4"/>
<path class="st0" d="M486.1,576.3c-8,0-14.4-6.5-14.4-14.4c0-8,6.5-14.4,14.4-14.4"/>
<polyline class="st0" points="482.2,311.1 583.9,311.1 583.9,346.9 649.9,296.6 583.9,247.9 583.9,282.1 483.9,282.1 "/>
<path class="st0" d="M482.2,311.1"/>
<path class="st0" d="M483.9,282.1"/>
<path class="st0" d="M485,311c-8,0-14.4-6.5-14.4-14.4c0-8,6.5-14.4,14.4-14.4"/>
<polyline class="st0" points="483.3,443.8 585,443.8 585,479.5 651,429.3 585,380.5 585,414.8 485,414.8 "/>
<path class="st0" d="M483.3,443.8"/>
<path class="st0" d="M485,414.8"/>
<path class="st0" d="M486.1,443.7c-8,0-14.4-6.5-14.4-14.4s6.5-14.4,14.4-14.4"/>
<circle class="st0" cx="200.7" cy="164.7" r="18.3"/>
<circle class="st0" cx="200.7" cy="233.3" r="18.3"/>
<circle class="st0" cx="200.7" cy="297.4" r="18.3"/>
<circle class="st0" cx="200.7" cy="361.4" r="18.3"/>
<circle class="st0" cx="200.7" cy="429.2" r="18.3"/>
<circle class="st0" cx="200.7" cy="497" r="18.3"/>
<circle class="st0" cx="124.3" cy="231.9" r="18.3"/>
<circle class="st0" cx="124.3" cy="295.9" r="18.3"/>
<circle class="st0" cx="124.3" cy="360" r="18.3"/>
<circle class="st0" cx="124.3" cy="427.8" r="18.3"/>
<circle class="st0" cx="124.3" cy="495.5" r="18.3"/>
<circle class="st0" cx="200.7" cy="561.9" r="18.3"/>
<circle class="st0" cx="87.3" cy="262.7" r="14.9"/>
<circle class="st0" cx="87.3" cy="329.2" r="14.9"/>
<circle class="st0" cx="87.3" cy="395.8" r="14.9"/>
<circle class="st0" cx="87.3" cy="462.3" r="14.9"/>
<circle class="st0" cx="162.5" cy="261.6" r="14.9"/>
<circle class="st0" cx="162.5" cy="198.6" r="14.9"/>
<circle class="st0" cx="236.2" cy="198.6" r="14.9"/>
<circle class="st0" cx="236.2" cy="130.9" r="14.9"/>
<circle class="st0" cx="162.5" cy="328.2" r="14.9"/>
<circle class="st0" cx="162.5" cy="394.7" r="14.9"/>
<circle class="st0" cx="162.5" cy="461.3" r="14.9"/>
<circle class="st0" cx="162.5" cy="527.8" r="14.9"/>
<circle class="st0" cx="236.2" cy="527.8" r="14.9"/>
<circle class="st0" cx="236.2" cy="594.4" r="14.9"/>
<circle class="st0" cx="236.2" cy="261.6" r="14.9"/>
<circle class="st0" cx="236.2" cy="328.2" r="14.9"/>
<circle class="st0" cx="236.2" cy="394.7" r="14.9"/>
<circle class="st0" cx="236.2" cy="461.3" r="14.9"/>
</svg>
