<svg id="Layer_1" data-name="Layer 1" xmlns="http://www.w3.org/2000/svg" viewBox="0 0 200 200">
  <title>产品页icon</title>
  <g>
    <path d="M100,198.84A98.84,98.84,0,1,1,198.84,100,99,99,0,0,1,100,198.84ZM100,5.5A94.5,94.5,0,1,0,194.5,100,94.6,94.6,0,0,0,100,5.5Z" style="stroke: #000;stroke-miterlimit: 10;stroke-width: 2px"/>
    <g>
      <g>
        <path d="M76.37,149.07a6.37,6.37,0,1,1,4.5-1.86A6.34,6.34,0,0,1,76.37,149.07Zm0-8.4a2,2,0,1,0,1.44.6A2,2,0,0,0,76.37,140.67Z"/>
        <path d="M100,149.07a6.37,6.37,0,1,1,4.5-1.86A6.34,6.34,0,0,1,100,149.07Zm0-8.4a2,2,0,1,0,1.44.6A2,2,0,0,0,100,140.67Z"/>
        <path d="M123.63,149.07a6.37,6.37,0,1,1,4.5-1.86A6.34,6.34,0,0,1,123.63,149.07Zm0-8.4a2,2,0,1,0,1.44.6A2,2,0,0,0,123.63,140.67Z"/>
        <path d="M88.19,163.49a6.37,6.37,0,1,1,0-12.74h0a6.29,6.29,0,0,1,4.5,1.87,6.37,6.37,0,0,1,0,9,6.29,6.29,0,0,1-4.5,1.87Zm0-8.4a2,2,0,0,0-1.44.59,2,2,0,0,0,0,2.88,2,2,0,0,0,1.44.59h0a2,2,0,0,0,1.43-3.47h0a2,2,0,0,0-1.43-.59Z"/>
        <path d="M111.81,163.49a6.37,6.37,0,1,1,4.51-1.87A6.33,6.33,0,0,1,111.81,163.49Zm0-8.4a2,2,0,0,0-1.43,3.47,2,2,0,0,0,2.87-2.88A2.06,2.06,0,0,0,111.81,155.09Z"/>
      </g>
      <path d="M87.82,121.63c-3.7,0-7.06-1.68-10-5a9.49,9.49,0,0,0-7-3.65c-5.3,0-10.41,4.87-10.46,4.92a2.17,2.17,0,0,1-3.11-3c.24-.26,6.12-6.24,13.35-6.24h.3c3.82.08,7.24,1.8,10.16,5.11,2.1,2.35,4.3,3.5,6.73,3.5h.06c5.18,0,9.73-5.25,9.78-5.29s4.42-5.43,11-5.61c4.44,0,8.77,2.08,12.77,6.54,2.66,3,5.31,4.36,8.19,4.16,5.4-.41,9.7-6.72,9.74-6.79a2.2,2.2,0,0,1,3-.62,2.17,2.17,0,0,1,.61,3c-.21.33-5.44,8.15-13,8.72-4.13.36-8.12-1.55-11.74-5.57-3.12-3.48-6.34-5.25-9.42-5.11-4.52.13-7.75,4-7.79,4-.27.32-5.89,6.8-13.06,6.87Z" style="stroke: #000;stroke-miterlimit: 10"/>
      <path d="M87.82,132.53c-3.7,0-7.06-1.67-10-5a9.49,9.49,0,0,0-7-3.65c-5.3,0-10.41,4.87-10.46,4.92a2.17,2.17,0,0,1-3.11-3c.24-.26,6.12-6.23,13.35-6.23h.3a13.77,13.77,0,0,1,10.16,5.11c2.11,2.38,4.22,3.67,6.79,3.51,5.18,0,9.73-5.25,9.78-5.3s4.42-5.42,11-5.61c4.44.06,8.77,2.08,12.77,6.54,2.66,3,5.48,4.35,8.17,4.16,5.47-.4,9.72-6.72,9.76-6.78a2.2,2.2,0,0,1,3-.62,2.17,2.17,0,0,1,.61,3c-.21.33-5.44,8.15-13,8.72-4.22.33-8.12-1.56-11.74-5.58-3.12-3.48-6.34-5.19-9.42-5.1-4.52.12-7.75,4-7.79,4-.27.33-5.89,6.81-13.06,6.87Z" style="stroke: #000;stroke-miterlimit: 10"/>
      <path d="M102.64,82.16H97.36c-4.69,0-8.51-4.16-8.51-9.29V38.68a2.17,2.17,0,1,1,4.34,0V72.87c0,2.73,1.87,5,4.17,5h5.28c2.3,0,4.17-2.23,4.17-5V38.68a2.17,2.17,0,1,1,4.34,0V72.87C111.15,78,107.33,82.16,102.64,82.16Z" style="stroke: #000;stroke-miterlimit: 10;stroke-width: 2px"/>
      <path d="M148.77,99.24H51.23a8.92,8.92,0,0,1-8.91-8.9V72.81a8.92,8.92,0,0,1,8.91-8.91h97.54a8.92,8.92,0,0,1,8.91,8.91V90.34A8.92,8.92,0,0,1,148.77,99.24Zm-97.54-31a4.58,4.58,0,0,0-4.57,4.57V90.34a4.58,4.58,0,0,0,4.57,4.57h97.54a4.58,4.58,0,0,0,4.57-4.57V72.81a4.58,4.58,0,0,0-4.57-4.57Z" style="stroke: #000;stroke-miterlimit: 10;stroke-width: 2px"/>
    </g>
  </g>
</svg>
