<?xml version="1.0" encoding="utf-8"?>
<!-- Generator: Adobe Illustrator 22.1.0, SVG Export Plug-In . SVG Version: 6.00 Build 0)  -->
<svg version="1.1" id="Слой_1" xmlns="http://www.w3.org/2000/svg" xmlns:xlink="http://www.w3.org/1999/xlink" x="0px" y="0px"
	 viewBox="0 0 725.7 725.7" style="enable-background:new 0 0 725.7 725.7;" xml:space="preserve">
<style type="text/css">
	.st0{fill:none;stroke:#000000;stroke-width:10;stroke-miterlimit:10;}
</style>
<image style="display:none;overflow:visible;" width="694" height="631" xlink:href="B0E696E5.jpg"  transform="matrix(1 0 0 1 16 47.6693)">
</image>
<line class="st0" x1="614.1" y1="480.7" x2="100.1" y2="480.7"/>
<line class="st0" x1="100.1" y1="319.5" x2="614.1" y2="319.5"/>
<path class="st0" d="M100.1,480.7c-44.5,0-80.6-36.1-80.6-80.6s36.1-80.6,80.6-80.6"/>
<path class="st0" d="M614.1,319.5c44.5,0,80.6,36.1,80.6,80.6s-36.1,80.6-80.6,80.6"/>
<g>
	<g>
		<path class="st0" d="M299.2,205.4c14.8-14.8,35.3-24,57.9-24c23.1,0,43.9,9.6,58.8,24.9"/>
		<path class="st0" d="M453.3,170.2c-24.3-25.1-58.4-40.8-96.2-40.8c-37,0-70.4,15-94.7,39.2"/>
		<path class="st0" d="M337.8,244c4.9-4.9,11.8-8,19.3-8c7.7,0,14.6,3.2,19.6,8.3"/>
		<path class="st0" d="M415.9,206.4c-14.9-15.4-35.7-24.9-58.8-24.9c-22.6,0-43,9.2-57.9,24"/>
	</g>
	<path class="st0" d="M337.8,244"/>
	<path class="st0" d="M376.7,244.3"/>
</g>
<path class="st0" d="M398.7,223"/>
<path class="st0" d="M302.5,206.4"/>
<circle class="st0" cx="362.8" cy="400.1" r="53"/>
<circle class="st0" cx="156.8" cy="400.1" r="21.2"/>
<circle class="st0" cx="224.8" cy="400.1" r="21.2"/>
<circle class="st0" cx="600" cy="400.1" r="28.2"/>
<path class="st0" d="M534.7,407.1H453c-3.9,0-7-3.2-7-7v0c0-3.9,3.2-7,7-7h81.6c3.9,0,7,3.2,7,7v0
	C541.7,403.9,538.5,407.1,534.7,407.1z"/>
<rect x="308.6" y="480.7" class="st0" width="108.5" height="78.3"/>
<path class="st0" d="M463.7,642H262c-18.6,0-33.7-15.1-33.7-33.7v-15.7c0-18.6,15.1-33.7,33.7-33.7h201.7
	c18.6,0,33.7,15.1,33.7,33.7v15.7C497.3,626.9,482.3,642,463.7,642z"/>
</svg>
