<?xml version="1.0" encoding="utf-8"?>
<!-- Generator: Adobe Illustrator 22.1.0, SVG Export Plug-In . SVG Version: 6.00 Build 0)  -->
<svg version="1.1" id="Слой_1" xmlns="http://www.w3.org/2000/svg" xmlns:xlink="http://www.w3.org/1999/xlink" x="0px" y="0px"
	 viewBox="0 0 725.7 725.7" style="enable-background:new 0 0 725.7 725.7;" xml:space="preserve">
<style type="text/css">
	.st0{fill:none;stroke:#000000;stroke-width:10;stroke-miterlimit:10;}
</style>
<image style="display:none;overflow:visible;" width="113" height="430" xlink:href="BA8E4D51.jpg"  transform="matrix(1.6667 0 0 1.6667 268.6687 4.5039)">
</image>
<g>
	<path class="st0" d="M643.9,7.2L643.9,7.2c-4.1,0-8.1,0.6-11.9,1.9c-14,4.8-23.3,15-29.6,29.4c-16.8,38.6-34.2,77.1-51.3,115.6
		c-7.2,16.2-14.4,32.4-21.7,48.6c-0.5,1.2-0.5,2.8-2.9,2.4c-8.2-1.3-12.9,1.4-16.4,9c-2.8,6.1-6.1,11.9-10,17.3
		c-16.4,22.7-36.6,41.6-57.8,59.4c-37,31.1-77,57.8-118.8,81.8c-28.9,16.6-58.9,31-90,42.9c-8.7,3.3-12.4,11.2-9.4,18.9
		c3,7.7,11,10.9,19.5,7.6c6.7-2.6,13.4-5.2,20-8.1c70.4-30.5,135.3-70.6,194.6-119.8c26.9-22.3,52.4-46.2,71.1-76.6
		c1-1.6,1.9-1.1,3-0.7c17.5,6.3,34.5,13.9,50.7,23.3c1.8,1.1,2.3,1.9,1.7,4.1c-6,19.5-8.1,39.6-9.1,59.9c-1.5,30.2,0,60.3,2.7,90.3
		c3.9,42.9,10.7,85.3,21.1,127.1c12.5,50.5,27.8,99.9,56.9,143.6c1.5,2.2,0.1,3.5-0.4,5.2c-0.5,1.8-2,1.5-3.4,1.5
		c-32-0.9-63.8-4.3-95.4-10.1c-1.8-0.3-2.8-1-3.2-3c-2.4-12.4-5.2-24.7-7.4-37.2c-6.1-33.8-10.4-67.8-12.2-102.1
		c-1.8-34-1.9-67.9,5-101.4c0.9-4.4-0.2-8.3-2.9-11.7c-3.5-4.3-8.2-6.2-13.6-5c-5.6,1.2-9.2,4.9-10.5,10.5
		c-3.4,14.6-5,29.4-5.9,44.4c-1.6,26.6-0.7,53.2,1.2,79.8c2.8,38.7,8.3,77,16.3,114.9c0.7,3.5-0.2,3.6-3.1,2.9
		c-39.6-9.5-78-22.8-115.4-39c-2.7-1.2-2.8-2.1-1.7-4.6c12.5-28,25-56.1,37.5-84.1c5.9-13.3,11.9-26.6,17.7-40
		c3.9-8.9-0.4-17.7-9.5-20.1c-6.3-1.7-12.9,2-16,9.1c-18.3,41-36.6,82.1-54.7,123.1c-1.3,2.8-2.1,3.3-5,1.9
		c-32.1-15.7-62.6-34.2-92.2-54.4c-5.1-3.5-10-7.1-15.4-10.9c1.4-0.9,2.4-1.5,3.3-2c49.1-28.1,95.5-60.1,137.8-98.3
		c16.5-14.9,32-30.7,45.2-48.8c5.2-7.1,4.3-15.7-2-20.6c-6.6-5.1-14.9-3.8-20.2,3.5c-12.5,17.2-27.3,32.2-43,46.2
		c-43.7,39.1-91.9,71.6-143,99.8c-1.9,1-3.1,1.1-4.8-0.4c-6.3-5.5-12.7-10.9-19.3-16.1c-6.2-4.9-14.4-3.8-19.3,2.3
		c-4.7,5.8-4,14.2,1.5,19.5c1.9,1.8,4,3.4,6,5.1c62.5,53.5,132.2,94.7,208.1,125c71.8,28.6,146.1,46.2,223.2,49.9
		c0,0.5,26.6,0.5,27.7,0.5l1.1-0.3c4.8-1.5,7.4-5,9.3-9.9c2.4-6.2,5.1-12.2,8.1-18.2c2.7-5.4,2.3-10.6-1.1-15.4
		c-1.9-2.7-3.9-5.2-5.8-7.9c-15.5-22.7-25.9-47.9-34.9-73.8c-16.9-49-27.5-99.4-34.3-150.8c-5.5-41.4-8.4-82.9-5.8-124.7
		c1.2-19.8,3.5-39.6,11.8-58c2.2-4.8,2.1-10.6-1.8-13.8c-5.5-4.5-2.9-8.1-0.9-12.4c0.9-1.8,1.7-3.7,2.5-5.5
		c23.3-52.3,46.6-104.6,69.7-156.9C695.7,49,686.7,23,664.7,12c-0.5-0.3-1.1-0.5-1.6-0.8C657.1,8.5,650.5,7.2,643.9,7.2z"/>
	<g>
		<path d="M197.6,502.6h-18.4V396.3c0-8.4,0.5-18.7,1.5-30.8h-0.4c-1.8,7.1-3.4,12.3-4.8,15.4l-54.1,121.7h-9.1l-54-120.9
			c-1.5-3.5-3.1-8.9-4.8-16.2h-0.4c0.6,6.3,0.9,16.7,0.9,31v106.1H36.1V344.2h24.5l48.6,110.5c3.8,8.5,6.2,14.8,7.3,19h0.7
			c3.2-8.7,5.7-15.2,7.6-19.4l49.6-110h23.2V502.6z"/>
	</g>
</g>
</svg>
