<?xml version="1.0" encoding="utf-8"?>
<!-- Generator: Adobe Illustrator 24.0.2, SVG Export Plug-In . SVG Version: 6.00 Build 0)  -->
<svg version="1.1" id="Слой_1" xmlns="http://www.w3.org/2000/svg" xmlns:xlink="http://www.w3.org/1999/xlink" x="0px" y="0px"
	 viewBox="0 0 256 256" style="enable-background:new 0 0 256 256;" xml:space="preserve">
<style type="text/css">
	.st0{fill:none;stroke:#000000;stroke-width:5;stroke-miterlimit:10;}
	.st1{fill:none;stroke:#000000;stroke-miterlimit:10;}
	.st2{font-family:'MyriadPro-Regular';}
	.st3{font-size:6.2925px;}
</style>
<ellipse class="st0" cx="128.04" cy="34.13" rx="62.43" ry="23.9"/>
<path class="st0" d="M189.62,221.43c0,15.14-27.95,27.42-62.43,27.42s-62.43-12.28-62.43-27.42"/>
<line class="st0" x1="65.61" y1="34.13" x2="64.75" y2="221.43"/>
<line class="st0" x1="189.62" y1="221.43" x2="190.47" y2="34.13"/>
<ellipse class="st1" cx="127.4" cy="41.04" rx="47.39" ry="13.23"/>
<path class="st1" d="M87.49,48.17c11.4-5.92,25.43-9.41,40.6-9.41c14.7,0,28.33,3.28,39.53,8.87"/>
<path class="st1" d="M109.41,53.28c-1.29-0.9-2.02-1.92-2.02-2.99c0-3.77,8.99-6.83,20.07-6.83c11.09,0,20.07,3.06,20.07,6.83
	c0,0.94-0.56,1.84-1.58,2.66"/>
<polyline class="st1" points="131.52,122.42 131.52,120.23 127.19,121.72 123.28,120.23 123.28,125.38 "/>
<path class="st1" d="M131.21,123.91c0.07,2.74-0.6,3.72-2.27,4.54c-1.63,0.8-3.85-0.02-5.13-1.34"/>
<text transform="matrix(1.907 0 0 1 120.4608 53.7425)" class="st2 st3">60</text>
</svg>
