<?xml version="1.0" encoding="utf-8"?>
<!-- Generator: Adobe Illustrator 21.0.0, SVG Export Plug-In . SVG Version: 6.00 Build 0)  -->
<svg version="1.1" id="Layer_1" xmlns="http://www.w3.org/2000/svg" xmlns:xlink="http://www.w3.org/1999/xlink" x="0px" y="0px"
	 viewBox="0 0 301.7 301.7" style="enable-background:new 0 0 301.7 301.7;" xml:space="preserve">
<style type="text/css">
	.st0{fill-rule:evenodd;clip-rule:evenodd;}
	.st1{fill:#1A1A18;}
</style>
<g>
	<g>
		<path class="st0" d="M189.9,150.9c-0.1,0.9,0.5,1.8,1.4,1.9c0.9,0.1,1.8-0.5,1.9-1.4c0.1-0.9-0.5-1.8-1.4-1.9
			C190.9,149.4,190,150,189.9,150.9"/>
	</g>
	<g>
		<path class="st0" d="M178.8,150.9c-0.1,0.9,0.5,1.8,1.4,1.9c0.9,0.1,1.8-0.5,1.9-1.4c0.1-0.9-0.5-1.8-1.4-1.9
			C179.8,149.4,179,150,178.8,150.9"/>
	</g>
	<g>
		<path class="st0" d="M201,150.9c-0.1,0.9,0.5,1.8,1.4,1.9c0.9,0.1,1.8-0.5,1.9-1.4c0.1-0.9-0.5-1.8-1.4-1.9
			C202,149.4,201.1,150,201,150.9"/>
	</g>
	<g>
		<path class="st0" d="M212.2,150.9c-0.1,0.9,0.5,1.8,1.4,1.9c0.9,0.1,1.8-0.5,1.9-1.4c0.1-0.9-0.5-1.8-1.4-1.9
			C213.2,149.4,212.4,150,212.2,150.9"/>
	</g>
	<g>
		<path class="st0" d="M224.1,150.9c-0.1,0.9,0.5,1.8,1.4,1.9c0.9,0.1,1.8-0.5,1.9-1.4c0.1-0.9-0.5-1.8-1.4-1.9
			C225,149.4,224.2,150,224.1,150.9"/>
	</g>
	<g>
		<path class="st0" d="M236.9,150.9c-0.1,0.9,0.5,1.8,1.4,1.9c0.9,0.1,1.8-0.5,1.9-1.4c0.1-0.9-0.5-1.8-1.4-1.9
			C237.9,149.4,237,150,236.9,150.9"/>
	</g>
	<g>
		<path class="st0" d="M249.3,150.9c-0.1,0.9,0.5,1.8,1.4,1.9c0.9,0.1,1.8-0.5,1.9-1.4c0.1-0.9-0.5-1.8-1.4-1.9
			C250.3,149.4,249.4,150,249.3,150.9"/>
	</g>
	<g>
		<path class="st0" d="M260.5,150.9c-0.1,0.9,0.5,1.8,1.4,1.9c0.9,0.1,1.8-0.5,1.9-1.4c0.1-0.9-0.5-1.8-1.4-1.9
			C261.5,149.4,260.6,150,260.5,150.9"/>
	</g>
	<g>
		<path class="st0" d="M188.7,141.2c0.1,0.9,0.9,1.6,1.8,1.5c0.9-0.1,1.6-0.9,1.5-1.8c-0.1-0.9-0.9-1.6-1.8-1.5
			C189.3,139.5,188.6,140.3,188.7,141.2"/>
	</g>
	<g>
		<path class="st0" d="M178,143.9c0.1,0.9,0.9,1.6,1.8,1.5c0.9-0.1,1.6-0.9,1.5-1.8c-0.1-0.9-0.9-1.6-1.8-1.5
			C178.5,142.2,177.9,143,178,143.9"/>
	</g>
	<g>
		<path class="st0" d="M199.4,138.4c0.1,0.9,0.9,1.6,1.8,1.5c0.9-0.1,1.6-0.9,1.5-1.8c-0.1-0.9-0.9-1.6-1.8-1.5
			C200,136.7,199.3,137.5,199.4,138.4"/>
	</g>
	<g>
		<path class="st0" d="M210.3,135.6c0.1,0.9,0.9,1.6,1.8,1.5c0.9-0.1,1.6-0.9,1.5-1.8c-0.1-0.9-0.9-1.6-1.8-1.5
			C210.9,133.9,210.2,134.7,210.3,135.6"/>
	</g>
	<g>
		<path class="st0" d="M221.8,132.7c0.1,0.9,0.9,1.6,1.8,1.5c0.9-0.1,1.6-0.9,1.5-1.8c-0.1-0.9-0.9-1.6-1.8-1.5
			C222.3,131,221.7,131.8,221.8,132.7"/>
	</g>
	<g>
		<path class="st0" d="M234.2,129.5c0.1,0.9,0.9,1.6,1.8,1.5c0.9-0.1,1.6-0.9,1.5-1.8c-0.1-0.9-0.9-1.6-1.8-1.5
			C234.8,127.8,234.1,128.6,234.2,129.5"/>
	</g>
	<g>
		<path class="st0" d="M246.2,126.4c0.1,0.9,0.9,1.6,1.8,1.5c0.9-0.1,1.6-0.9,1.5-1.8c-0.1-0.9-0.9-1.6-1.8-1.5
			C246.8,124.7,246.1,125.5,246.2,126.4"/>
	</g>
	<g>
		<path class="st0" d="M257.1,123.6c0.1,0.9,0.9,1.6,1.8,1.5c0.9-0.1,1.6-0.9,1.5-1.8c-0.1-0.9-0.9-1.6-1.8-1.5
			C257.6,121.9,257,122.7,257.1,123.6"/>
	</g>
	<g>
		<path class="st0" d="M185.1,132.1c0.3,0.9,1.3,1.3,2.1,1c0.9-0.3,1.3-1.3,1-2.1c-0.3-0.9-1.3-1.3-2.1-1
			C185.2,130.3,184.8,131.2,185.1,132.1"/>
	</g>
	<g>
		<path class="st0" d="M175.4,137.4c0.3,0.9,1.3,1.3,2.1,1s1.3-1.3,1-2.1c-0.3-0.9-1.3-1.3-2.1-1
			C175.5,135.6,175.1,136.6,175.4,137.4"/>
	</g>
	<g>
		<path class="st0" d="M194.8,126.7c0.3,0.9,1.3,1.3,2.1,1c0.9-0.3,1.3-1.3,1-2.1c-0.3-0.9-1.3-1.3-2.1-1
			C194.9,124.9,194.5,125.9,194.8,126.7"/>
	</g>
	<g>
		<path class="st0" d="M204.7,121.3c0.3,0.9,1.3,1.3,2.1,1c0.9-0.3,1.3-1.3,1-2.1c-0.3-0.9-1.3-1.3-2.1-1
			C204.8,119.5,204.3,120.5,204.7,121.3"/>
	</g>
	<g>
		<path class="st0" d="M215,115.6c0.3,0.9,1.3,1.3,2.1,1c0.9-0.3,1.3-1.3,1-2.1c-0.3-0.9-1.3-1.3-2.1-1
			C215.1,113.8,214.7,114.8,215,115.6"/>
	</g>
	<g>
		<path class="st0" d="M226.2,109.5c0.3,0.9,1.3,1.3,2.1,1c0.9-0.3,1.3-1.3,1-2.1c-0.3-0.9-1.3-1.3-2.1-1
			C226.4,107.6,225.9,108.6,226.2,109.5"/>
	</g>
	<g>
		<path class="st0" d="M237.1,103.5c0.3,0.9,1.3,1.3,2.1,1c0.9-0.3,1.3-1.3,1-2.1c-0.3-0.9-1.3-1.3-2.1-1
			C237.2,101.7,236.8,102.6,237.1,103.5"/>
	</g>
	<g>
		<path class="st0" d="M247,98.1c0.3,0.9,1.3,1.3,2.1,1c0.9-0.3,1.3-1.3,1-2.1c-0.3-0.9-1.3-1.3-2.1-1
			C247.1,96.3,246.6,97.2,247,98.1"/>
	</g>
	<g>
		<path class="st0" d="M179.3,124.2c0.5,0.8,1.6,1,2.3,0.4c0.8-0.5,1-1.6,0.4-2.3c-0.5-0.8-1.6-1-2.3-0.4
			C179,122.4,178.8,123.4,179.3,124.2"/>
	</g>
	<g>
		<path class="st0" d="M171.3,131.8c0.5,0.8,1.6,1,2.3,0.4c0.8-0.5,1-1.6,0.4-2.3c-0.5-0.8-1.6-1-2.3-0.4
			C170.9,130,170.7,131,171.3,131.8"/>
	</g>
	<g>
		<path class="st0" d="M187.4,116.6c0.5,0.8,1.6,1,2.3,0.4c0.8-0.5,1-1.6,0.4-2.3c-0.5-0.8-1.6-1-2.3-0.4
			C187.1,114.8,186.9,115.8,187.4,116.6"/>
	</g>
	<g>
		<path class="st0" d="M195.6,108.9c0.5,0.8,1.6,1,2.3,0.4c0.8-0.5,1-1.6,0.4-2.3c-0.5-0.8-1.6-1-2.3-0.4
			C195.3,107.1,195.1,108.1,195.6,108.9"/>
	</g>
	<g>
		<path class="st0" d="M204.2,100.8c0.5,0.8,1.6,1,2.3,0.4c0.8-0.5,1-1.6,0.4-2.3c-0.5-0.8-1.6-1-2.3-0.4
			C203.9,99,203.7,100,204.2,100.8"/>
	</g>
	<g>
		<path class="st0" d="M213.6,92c0.5,0.8,1.6,1,2.3,0.4c0.8-0.5,1-1.6,0.4-2.3c-0.5-0.8-1.6-1-2.3-0.4
			C213.3,90.2,213.1,91.3,213.6,92"/>
	</g>
	<g>
		<path class="st0" d="M222.6,83.5c0.5,0.8,1.6,1,2.3,0.4c0.8-0.5,1-1.6,0.4-2.3c-0.5-0.8-1.6-1-2.3-0.4
			C222.3,81.7,222.1,82.8,222.6,83.5"/>
	</g>
	<g>
		<path class="st0" d="M230.8,75.8c0.5,0.8,1.6,1,2.3,0.4c0.8-0.5,1-1.6,0.4-2.3c-0.5-0.8-1.6-1-2.3-0.4
			C230.5,74,230.3,75.1,230.8,75.8"/>
	</g>
	<g>
		<path class="st0" d="M171.8,117.9c0.7,0.6,1.7,0.5,2.4-0.2c0.6-0.7,0.5-1.7-0.2-2.4c-0.7-0.6-1.7-0.5-2.4,0.2
			C171,116.3,171.1,117.3,171.8,117.9"/>
	</g>
	<g>
		<path class="st0" d="M165.9,127.3c0.7,0.6,1.7,0.5,2.4-0.2c0.6-0.7,0.5-1.7-0.2-2.4c-0.7-0.6-1.7-0.5-2.4,0.2
			C165.1,125.6,165.2,126.7,165.9,127.3"/>
	</g>
	<g>
		<path class="st0" d="M177.8,108.6c0.7,0.6,1.7,0.5,2.4-0.2c0.6-0.7,0.5-1.7-0.2-2.4c-0.7-0.6-1.7-0.5-2.4,0.2
			C177,106.9,177.1,108,177.8,108.6"/>
	</g>
	<g>
		<path class="st0" d="M183.8,99.1c0.7,0.6,1.7,0.5,2.4-0.2c0.6-0.7,0.5-1.7-0.2-2.4c-0.7-0.6-1.7-0.5-2.4,0.2
			C183,97.4,183.1,98.5,183.8,99.1"/>
	</g>
	<g>
		<path class="st0" d="M190.1,89.1c0.7,0.6,1.7,0.5,2.4-0.2c0.6-0.7,0.5-1.7-0.2-2.4c-0.7-0.6-1.7-0.5-2.4,0.2
			C189.3,87.4,189.4,88.5,190.1,89.1"/>
	</g>
	<g>
		<path class="st0" d="M197,78.3c0.7,0.6,1.7,0.5,2.4-0.2c0.6-0.7,0.5-1.7-0.2-2.4s-1.7-0.5-2.4,0.2C196.2,76.6,196.3,77.7,197,78.3
			"/>
	</g>
	<g>
		<path class="st0" d="M203.6,67.8c0.7,0.6,1.7,0.5,2.4-0.2c0.6-0.7,0.5-1.7-0.2-2.4c-0.7-0.6-1.7-0.5-2.4,0.2
			C202.9,66.1,202.9,67.2,203.6,67.8"/>
	</g>
	<g>
		<path class="st0" d="M209.6,58.3c0.7,0.6,1.7,0.5,2.4-0.2c0.6-0.7,0.5-1.7-0.2-2.4c-0.7-0.6-1.7-0.5-2.4,0.2
			C208.9,56.7,208.9,57.7,209.6,58.3"/>
	</g>
	<g>
		<path class="st0" d="M163,113.7c0.8,0.4,1.8,0.1,2.2-0.7c0.4-0.8,0.1-1.8-0.7-2.2c-0.8-0.4-1.8-0.1-2.2,0.7
			C161.8,112.3,162.1,113.3,163,113.7"/>
	</g>
	<g>
		<path class="st0" d="M159.5,124.3c0.8,0.4,1.8,0.1,2.2-0.7c0.4-0.8,0.1-1.8-0.7-2.2s-1.8-0.1-2.2,0.7
			C158.4,122.9,158.7,123.9,159.5,124.3"/>
	</g>
	<g>
		<path class="st0" d="M166.4,103.2c0.8,0.4,1.8,0.1,2.2-0.7s0.1-1.8-0.7-2.2c-0.8-0.4-1.8-0.1-2.2,0.7
			C165.2,101.8,165.6,102.8,166.4,103.2"/>
	</g>
	<g>
		<path class="st0" d="M169.9,92.5c0.8,0.4,1.8,0.1,2.2-0.7c0.4-0.8,0.1-1.8-0.7-2.2c-0.8-0.4-1.8-0.1-2.2,0.7
			C168.7,91.1,169,92.1,169.9,92.5"/>
	</g>
	<g>
		<path class="st0" d="M173.5,81.3c0.8,0.4,1.8,0.1,2.2-0.7s0.1-1.8-0.7-2.2c-0.8-0.4-1.8-0.1-2.2,0.7
			C172.4,79.8,172.7,80.9,173.5,81.3"/>
	</g>
	<g>
		<path class="st0" d="M177.5,69.1c0.8,0.4,1.8,0.1,2.2-0.7s0.1-1.8-0.7-2.2c-0.8-0.4-1.8-0.1-2.2,0.7
			C176.3,67.7,176.7,68.7,177.5,69.1"/>
	</g>
	<g>
		<path class="st0" d="M181.3,57.3c0.8,0.4,1.8,0.1,2.2-0.7c0.4-0.8,0.1-1.8-0.7-2.2c-0.8-0.4-1.8-0.1-2.2,0.7
			C180.2,55.9,180.5,56.9,181.3,57.3"/>
	</g>
	<g>
		<path class="st0" d="M184.8,46.6c0.8,0.4,1.8,0.1,2.2-0.7c0.4-0.8,0.1-1.8-0.7-2.2c-0.8-0.4-1.8-0.1-2.2,0.7
			C183.6,45.2,184,46.2,184.8,46.6"/>
	</g>
	<g>
		<path class="st0" d="M153.4,111.9c0.9,0.2,1.8-0.4,2-1.3c0.2-0.9-0.4-1.8-1.3-2c-0.9-0.2-1.8,0.4-2,1.3
			C151.9,110.8,152.5,111.7,153.4,111.9"/>
	</g>
	<g>
		<path class="st0" d="M152.7,123c0.9,0.2,1.8-0.4,2-1.3c0.2-0.9-0.4-1.8-1.3-2c-0.9-0.2-1.8,0.4-2,1.3
			C151.2,121.9,151.8,122.8,152.7,123"/>
	</g>
	<g>
		<path class="st0" d="M154,100.8c0.9,0.2,1.8-0.4,2-1.3c0.2-0.9-0.4-1.8-1.3-2c-0.9-0.2-1.8,0.4-2,1.3
			C152.6,99.8,153.1,100.6,154,100.8"/>
	</g>
	<g>
		<path class="st0" d="M154.8,89.6c0.9,0.2,1.8-0.4,2-1.3c0.2-0.9-0.4-1.8-1.3-2c-0.9-0.2-1.8,0.4-2,1.3
			C153.3,88.5,153.9,89.4,154.8,89.6"/>
	</g>
	<g>
		<path class="st0" d="M155.5,77.8c0.9,0.2,1.8-0.4,2-1.3c0.2-0.9-0.4-1.8-1.3-2c-0.9-0.2-1.8,0.4-2,1.3
			C154,76.7,154.6,77.6,155.5,77.8"/>
	</g>
	<g>
		<path class="st0" d="M156.3,65c0.9,0.2,1.8-0.4,2-1.3c0.2-0.9-0.4-1.8-1.3-2s-1.8,0.4-2,1.3C154.8,63.9,155.4,64.8,156.3,65"/>
	</g>
	<g>
		<path class="st0" d="M157.1,52.7c0.9,0.2,1.8-0.4,2-1.3c0.2-0.9-0.4-1.8-1.3-2c-0.9-0.2-1.8,0.4-2,1.3S156.2,52.5,157.1,52.7"/>
	</g>
	<g>
		<path class="st0" d="M157.8,41.4c0.9,0.2,1.8-0.4,2-1.3c0.2-0.9-0.4-1.8-1.3-2c-0.9-0.2-1.8,0.4-2,1.3
			C156.3,40.4,156.9,41.2,157.8,41.4"/>
	</g>
	<g>
		<path class="st0" d="M143.6,112.5c0.9,0,1.6-0.8,1.6-1.7c0-0.9-0.8-1.6-1.7-1.6c-0.9,0-1.6,0.8-1.6,1.7
			C141.9,111.8,142.7,112.5,143.6,112.5"/>
	</g>
	<g>
		<path class="st0" d="M145.7,123.4c0.9,0,1.6-0.8,1.6-1.7c0-0.9-0.8-1.6-1.7-1.6c-0.9,0-1.6,0.8-1.6,1.7
			C144,122.7,144.7,123.4,145.7,123.4"/>
	</g>
	<g>
		<path class="st0" d="M141.5,101.6c0.9,0,1.6-0.8,1.6-1.7c0-0.9-0.8-1.6-1.7-1.6c-0.9,0-1.6,0.8-1.6,1.7
			C139.8,100.9,140.6,101.7,141.5,101.6"/>
	</g>
	<g>
		<path class="st0" d="M139.4,90.6c0.9,0,1.6-0.8,1.6-1.7c0-0.9-0.8-1.6-1.7-1.6c-0.9,0-1.6,0.8-1.6,1.7
			C137.7,89.9,138.5,90.6,139.4,90.6"/>
	</g>
	<g>
		<path class="st0" d="M137.2,79c0.9,0,1.6-0.8,1.6-1.7c0-0.9-0.8-1.6-1.7-1.6c-0.9,0-1.6,0.8-1.6,1.7C135.5,78.3,136.3,79,137.2,79
			"/>
	</g>
	<g>
		<path class="st0" d="M134.8,66.4c0.9,0,1.6-0.8,1.6-1.7c0-0.9-0.8-1.6-1.7-1.6c-0.9,0-1.6,0.8-1.6,1.7
			C133.1,65.7,133.9,66.4,134.8,66.4"/>
	</g>
	<g>
		<path class="st0" d="M132.5,54.2c0.9,0,1.6-0.8,1.6-1.7c0-0.9-0.8-1.6-1.7-1.6c-0.9,0-1.6,0.8-1.6,1.7
			C130.8,53.5,131.5,54.2,132.5,54.2"/>
	</g>
	<g>
		<path class="st0" d="M130.4,43.2c0.9,0,1.6-0.8,1.6-1.7c0-0.9-0.8-1.6-1.7-1.6c-0.9,0-1.6,0.8-1.6,1.7
			C128.7,42.5,129.4,43.2,130.4,43.2"/>
	</g>
	<g>
		<path class="st0" d="M134.3,115.5c0.9-0.3,1.4-1.2,1.1-2.1c-0.3-0.9-1.2-1.4-2.1-1.1c-0.9,0.3-1.4,1.2-1.1,2.1
			C132.5,115.3,133.4,115.8,134.3,115.5"/>
	</g>
	<g>
		<path class="st0" d="M139,125.6c0.9-0.3,1.4-1.2,1.1-2.1c-0.3-0.9-1.2-1.4-2.1-1.1c-0.9,0.3-1.4,1.2-1.1,2.1
			C137.2,125.3,138.1,125.8,139,125.6"/>
	</g>
	<g>
		<path class="st0" d="M129.6,105.5c0.9-0.3,1.4-1.2,1.1-2.1c-0.3-0.9-1.2-1.4-2.1-1.1c-0.9,0.3-1.4,1.2-1.1,2.1
			C127.7,105.3,128.7,105.8,129.6,105.5"/>
	</g>
	<g>
		<path class="st0" d="M124.8,95.3c0.9-0.3,1.4-1.2,1.1-2.1c-0.3-0.9-1.2-1.4-2.1-1.1c-0.9,0.3-1.4,1.2-1.1,2.1
			C123,95.1,123.9,95.6,124.8,95.3"/>
	</g>
	<g>
		<path class="st0" d="M119.7,84.6c0.9-0.3,1.4-1.2,1.1-2.1c-0.3-0.9-1.2-1.4-2.1-1.1c-0.9,0.3-1.4,1.2-1.1,2.1
			C117.9,84.4,118.8,84.9,119.7,84.6"/>
	</g>
	<g>
		<path class="st0" d="M114.3,73c0.9-0.3,1.4-1.2,1.1-2.1c-0.3-0.9-1.2-1.4-2.1-1.1c-0.9,0.3-1.4,1.2-1.1,2.1S113.4,73.3,114.3,73"
			/>
	</g>
	<g>
		<path class="st0" d="M109,61.8c0.9-0.3,1.4-1.2,1.1-2.1c-0.3-0.9-1.2-1.4-2.1-1.1c-0.9,0.3-1.4,1.2-1.1,2.1
			C107.2,61.6,108.1,62.1,109,61.8"/>
	</g>
	<g>
		<path class="st0" d="M104.2,51.6c0.9-0.3,1.4-1.2,1.1-2.1c-0.3-0.9-1.2-1.4-2.1-1.1c-0.9,0.3-1.4,1.2-1.1,2.1
			C102.4,51.4,103.3,51.9,104.2,51.6"/>
	</g>
	<g>
		<path class="st0" d="M126,120.8c0.8-0.5,1-1.5,0.6-2.3c-0.5-0.8-1.5-1-2.3-0.6c-0.8,0.5-1,1.5-0.6,2.3
			C124.2,121,125.2,121.2,126,120.8"/>
	</g>
	<g>
		<path class="st0" d="M133.1,129.3c0.8-0.5,1-1.5,0.6-2.3c-0.5-0.8-1.5-1-2.3-0.6c-0.8,0.5-1,1.5-0.6,2.3
			C131.3,129.5,132.3,129.8,133.1,129.3"/>
	</g>
	<g>
		<path class="st0" d="M118.9,112.2c0.8-0.5,1-1.5,0.6-2.3c-0.5-0.8-1.5-1-2.3-0.6c-0.8,0.5-1,1.5-0.6,2.3
			C117.1,112.4,118.2,112.7,118.9,112.2"/>
	</g>
	<g>
		<path class="st0" d="M111.8,103.6c0.8-0.5,1-1.5,0.6-2.3c-0.5-0.8-1.5-1-2.3-0.6c-0.8,0.5-1,1.5-0.6,2.3
			C110,103.8,111,104,111.8,103.6"/>
	</g>
	<g>
		<path class="st0" d="M104.2,94.4c0.8-0.5,1-1.5,0.6-2.3c-0.5-0.8-1.5-1-2.3-0.6c-0.8,0.5-1,1.5-0.6,2.3
			C102.4,94.7,103.4,94.9,104.2,94.4"/>
	</g>
	<g>
		<path class="st0" d="M96.1,84.6c0.8-0.5,1-1.5,0.6-2.3c-0.5-0.8-1.5-1-2.3-0.6c-0.8,0.5-1,1.5-0.6,2.3
			C94.3,84.8,95.3,85,96.1,84.6"/>
	</g>
	<g>
		<path class="st0" d="M88.2,75c0.8-0.5,1-1.5,0.6-2.3c-0.5-0.8-1.5-1-2.3-0.6c-0.8,0.5-1,1.5-0.6,2.3C86.4,75.2,87.4,75.5,88.2,75"
			/>
	</g>
	<g>
		<path class="st0" d="M81,66.4c0.8-0.5,1-1.5,0.6-2.3c-0.5-0.8-1.5-1-2.3-0.6c-0.8,0.5-1,1.5-0.6,2.3C79.2,66.6,80.2,66.8,81,66.4"
			/>
	</g>
	<g>
		<path class="st0" d="M119.3,127.9c0.6-0.7,0.6-1.7,0-2.4c-0.7-0.6-1.7-0.6-2.4,0c-0.6,0.7-0.6,1.7,0,2.4
			C117.6,128.5,118.7,128.5,119.3,127.9"/>
	</g>
	<g>
		<path class="st0" d="M128.3,134.4c0.6-0.7,0.6-1.7,0-2.4c-0.7-0.6-1.7-0.6-2.4,0c-0.6,0.7-0.6,1.7,0,2.4
			C126.6,135.1,127.6,135.1,128.3,134.4"/>
	</g>
	<g>
		<path class="st0" d="M110.3,121.4c0.6-0.7,0.6-1.7,0-2.4c-0.7-0.6-1.7-0.6-2.4,0c-0.6,0.7-0.6,1.7,0,2.4
			C108.6,122,109.7,122,110.3,121.4"/>
	</g>
	<g>
		<path class="st0" d="M101.2,114.8c0.6-0.7,0.6-1.7,0-2.4c-0.7-0.6-1.7-0.6-2.4,0c-0.6,0.7-0.6,1.7,0,2.4
			C99.5,115.4,100.6,115.4,101.2,114.8"/>
	</g>
	<g>
		<path class="st0" d="M91.7,107.8c0.6-0.7,0.6-1.7,0-2.4c-0.7-0.6-1.7-0.6-2.4,0c-0.6,0.7-0.6,1.7,0,2.4
			C90,108.5,91,108.5,91.7,107.8"/>
	</g>
	<g>
		<path class="st0" d="M81.3,100.3c0.6-0.7,0.6-1.7,0-2.4c-0.7-0.6-1.7-0.6-2.4,0c-0.6,0.7-0.6,1.7,0,2.4
			C79.6,100.9,80.7,100.9,81.3,100.3"/>
	</g>
	<g>
		<path class="st0" d="M71.3,93c0.6-0.7,0.6-1.7,0-2.4c-0.7-0.6-1.7-0.6-2.4,0c-0.6,0.7-0.6,1.7,0,2.4C69.6,93.7,70.6,93.6,71.3,93"
			/>
	</g>
	<g>
		<path class="st0" d="M62.2,86.4c0.6-0.7,0.6-1.7,0-2.4c-0.7-0.6-1.7-0.6-2.4,0c-0.6,0.7-0.6,1.7,0,2.4
			C60.5,87.1,61.5,87,62.2,86.4"/>
	</g>
	<g>
		<path class="st0" d="M114.6,136.5c0.5-0.8,0.2-1.8-0.6-2.3c-0.8-0.5-1.8-0.2-2.3,0.6c-0.5,0.8-0.2,1.8,0.6,2.3
			C113.1,137.5,114.1,137.3,114.6,136.5"/>
	</g>
	<g>
		<path class="st0" d="M124.9,140.5c0.5-0.8,0.2-1.8-0.6-2.3s-1.8-0.2-2.3,0.6c-0.5,0.8-0.2,1.8,0.6,2.3
			C123.4,141.6,124.4,141.3,124.9,140.5"/>
	</g>
	<g>
		<path class="st0" d="M104.3,132.4c0.5-0.8,0.2-1.8-0.6-2.3c-0.8-0.5-1.8-0.2-2.3,0.6c-0.5,0.8-0.2,1.8,0.6,2.3
			C102.8,133.4,103.8,133.2,104.3,132.4"/>
	</g>
	<g>
		<path class="st0" d="M93.8,128.2c0.5-0.8,0.2-1.8-0.6-2.3c-0.8-0.5-1.8-0.2-2.3,0.6c-0.5,0.8-0.2,1.8,0.6,2.3
			C92.3,129.3,93.4,129,93.8,128.2"/>
	</g>
	<g>
		<path class="st0" d="M82.8,123.9c0.5-0.8,0.2-1.8-0.6-2.3c-0.8-0.5-1.8-0.2-2.3,0.6c-0.5,0.8-0.2,1.8,0.6,2.3
			C81.3,124.9,82.4,124.7,82.8,123.9"/>
	</g>
	<g>
		<path class="st0" d="M70.9,119.2c0.5-0.8,0.2-1.8-0.6-2.3c-0.8-0.5-1.8-0.2-2.3,0.6c-0.5,0.8-0.2,1.8,0.6,2.3
			C69.4,120.2,70.4,120,70.9,119.2"/>
	</g>
	<g>
		<path class="st0" d="M59.4,114.6c0.5-0.8,0.2-1.8-0.6-2.3c-0.8-0.5-1.8-0.2-2.3,0.6c-0.5,0.8-0.2,1.8,0.6,2.3
			C57.9,115.7,58.9,115.4,59.4,114.6"/>
	</g>
	<g>
		<path class="st0" d="M48.9,110.5c0.5-0.8,0.2-1.8-0.6-2.3c-0.8-0.5-1.8-0.2-2.3,0.6s-0.2,1.8,0.6,2.3
			C47.5,111.5,48.5,111.3,48.9,110.5"/>
	</g>
	<g>
		<path class="st0" d="M112.1,145.9c0.3-0.9-0.3-1.8-1.1-2.1c-0.9-0.3-1.8,0.3-2.1,1.1c-0.3,0.9,0.3,1.8,1.1,2.1
			C111,147.3,111.9,146.8,112.1,145.9"/>
	</g>
	<g>
		<path class="st0" d="M123.1,147.3c0.3-0.9-0.3-1.8-1.1-2.1c-0.9-0.3-1.8,0.3-2.1,1.1c-0.3,0.9,0.3,1.8,1.1,2.1
			C122,148.7,122.9,148.2,123.1,147.3"/>
	</g>
	<g>
		<path class="st0" d="M101.1,144.5c0.3-0.9-0.3-1.8-1.1-2.1c-0.9-0.3-1.8,0.3-2.1,1.1c-0.3,0.9,0.3,1.8,1.1,2.1
			C100,145.9,100.9,145.4,101.1,144.5"/>
	</g>
	<g>
		<path class="st0" d="M90,143.1c0.3-0.9-0.3-1.8-1.1-2.1c-0.9-0.3-1.8,0.3-2.1,1.1c-0.3,0.9,0.3,1.8,1.1,2.1
			C88.8,144.5,89.7,144,90,143.1"/>
	</g>
	<g>
		<path class="st0" d="M78.3,141.7c0.3-0.9-0.3-1.8-1.1-2.1c-0.9-0.3-1.8,0.3-2.1,1.1c-0.3,0.9,0.3,1.8,1.1,2.1
			C77.1,143.1,78,142.5,78.3,141.7"/>
	</g>
	<g>
		<path class="st0" d="M65.5,140c0.3-0.9-0.3-1.8-1.1-2.1c-0.9-0.3-1.8,0.3-2.1,1.1c-0.3,0.9,0.3,1.8,1.1,2.1
			C64.4,141.4,65.3,140.9,65.5,140"/>
	</g>
	<g>
		<path class="st0" d="M53.2,138.5c0.3-0.9-0.3-1.8-1.1-2.1c-0.9-0.3-1.8,0.3-2.1,1.1c-0.3,0.9,0.3,1.8,1.1,2.1
			C52.1,139.9,53,139.4,53.2,138.5"/>
	</g>
	<g>
		<path class="st0" d="M42.1,137.1c0.3-0.9-0.3-1.8-1.1-2.1c-0.9-0.3-1.8,0.3-2.1,1.1c-0.3,0.9,0.3,1.8,1.1,2.1
			C40.9,138.5,41.8,138,42.1,137.1"/>
	</g>
	<g>
		<path class="st0" d="M112.1,155.7c0-0.9-0.7-1.7-1.6-1.7c-0.9,0-1.7,0.7-1.7,1.6c0,0.9,0.7,1.7,1.6,1.7
			C111.3,157.4,112.1,156.6,112.1,155.7"/>
	</g>
	<g>
		<path class="st0" d="M123.1,154.3c0-0.9-0.7-1.7-1.6-1.7c-0.9,0-1.7,0.7-1.7,1.6c0,0.9,0.7,1.7,1.6,1.7
			C122.3,156,123.1,155.3,123.1,154.3"/>
	</g>
	<g>
		<path class="st0" d="M101.1,157.1c0-0.9-0.7-1.7-1.6-1.7c-0.9,0-1.7,0.7-1.7,1.6c0,0.9,0.7,1.7,1.6,1.7
			C100.3,158.8,101.1,158,101.1,157.1"/>
	</g>
	<g>
		<path class="st0" d="M90,158.5c0-0.9-0.7-1.7-1.6-1.7c-0.9,0-1.7,0.7-1.7,1.6c0,0.9,0.7,1.7,1.6,1.7C89.2,160.2,90,159.4,90,158.5
			"/>
	</g>
	<g>
		<path class="st0" d="M78.2,160c0-0.9-0.7-1.7-1.6-1.7c-0.9,0-1.7,0.7-1.7,1.6c0,0.9,0.7,1.7,1.6,1.7
			C77.5,161.6,78.2,160.9,78.2,160"/>
	</g>
	<g>
		<path class="st0" d="M65.5,161.6c0-0.9-0.7-1.7-1.6-1.7c-0.9,0-1.7,0.7-1.7,1.6c0,0.9,0.7,1.7,1.6,1.7
			C64.7,163.3,65.5,162.5,65.5,161.6"/>
	</g>
	<g>
		<path class="st0" d="M53.2,163.2c0-0.9-0.7-1.7-1.6-1.7c-0.9,0-1.7,0.7-1.7,1.6c0,0.9,0.7,1.7,1.6,1.7
			C52.4,164.8,53.2,164.1,53.2,163.2"/>
	</g>
	<g>
		<path class="st0" d="M42.1,164.6c0-0.9-0.7-1.7-1.6-1.7c-0.9,0-1.7,0.7-1.7,1.6c0,0.9,0.7,1.7,1.6,1.7
			C41.3,166.2,42.1,165.5,42.1,164.6"/>
	</g>
	<g>
		<path class="st0" d="M114.6,165.2c-0.2-0.9-1.1-1.5-2-1.3c-0.9,0.2-1.5,1.1-1.3,2c0.2,0.9,1.1,1.5,2,1.3
			C114.2,167,114.8,166.1,114.6,165.2"/>
	</g>
	<g>
		<path class="st0" d="M124.9,161.1c-0.2-0.9-1.1-1.5-2-1.3c-0.9,0.2-1.5,1.1-1.3,2c0.2,0.9,1.1,1.5,2,1.3
			C124.5,162.9,125.1,162,124.9,161.1"/>
	</g>
	<g>
		<path class="st0" d="M104.2,169.3c-0.2-0.9-1.1-1.5-2-1.3c-0.9,0.2-1.5,1.1-1.3,2c0.2,0.9,1.1,1.5,2,1.3
			C103.9,171.1,104.5,170.2,104.2,169.3"/>
	</g>
	<g>
		<path class="st0" d="M93.8,173.4c-0.2-0.9-1.1-1.5-2-1.3c-0.9,0.2-1.5,1.1-1.3,2c0.2,0.9,1.1,1.5,2,1.3
			C93.4,175.2,94,174.3,93.8,173.4"/>
	</g>
	<g>
		<path class="st0" d="M82.8,177.8c-0.2-0.9-1.1-1.5-2-1.3c-0.9,0.2-1.5,1.1-1.3,2c0.2,0.9,1.1,1.5,2,1.3
			C82.4,179.6,83,178.7,82.8,177.8"/>
	</g>
	<g>
		<path class="st0" d="M70.9,182.5c-0.2-0.9-1.1-1.5-2-1.3c-0.9,0.2-1.5,1.1-1.3,2c0.2,0.9,1.1,1.5,2,1.3
			C70.5,184.3,71.1,183.4,70.9,182.5"/>
	</g>
	<g>
		<path class="st0" d="M59.4,187.1c-0.2-0.9-1.1-1.5-2-1.3c-0.9,0.2-1.5,1.1-1.3,2c0.2,0.9,1.1,1.5,2,1.3
			C59,188.8,59.6,188,59.4,187.1"/>
	</g>
	<g>
		<path class="st0" d="M48.9,191.2c-0.2-0.9-1.1-1.5-2-1.3c-0.9,0.2-1.5,1.1-1.3,2c0.2,0.9,1.1,1.5,2,1.3
			C48.6,193,49.1,192.1,48.9,191.2"/>
	</g>
	<g>
		<path class="st0" d="M119.3,173.8c-0.4-0.8-1.4-1.1-2.2-0.7c-0.8,0.4-1.1,1.4-0.7,2.2c0.4,0.8,1.4,1.1,2.2,0.7
			C119.4,175.6,119.7,174.6,119.3,173.8"/>
	</g>
	<g>
		<path class="st0" d="M128.2,167.3c-0.4-0.8-1.4-1.1-2.2-0.7c-0.8,0.4-1.1,1.4-0.7,2.2c0.4,0.8,1.4,1.1,2.2,0.7
			C128.3,169.1,128.6,168.1,128.2,167.3"/>
	</g>
	<g>
		<path class="st0" d="M110.3,180.3c-0.4-0.8-1.4-1.1-2.2-0.7c-0.8,0.4-1.1,1.4-0.7,2.2c0.4,0.8,1.4,1.1,2.2,0.7
			C110.4,182.1,110.7,181.1,110.3,180.3"/>
	</g>
	<g>
		<path class="st0" d="M101.2,186.9c-0.4-0.8-1.4-1.1-2.2-0.7c-0.8,0.4-1.1,1.4-0.7,2.2c0.4,0.8,1.4,1.1,2.2,0.7
			C101.3,188.7,101.6,187.7,101.2,186.9"/>
	</g>
	<g>
		<path class="st0" d="M91.6,193.9c-0.4-0.8-1.4-1.1-2.2-0.7c-0.8,0.4-1.1,1.4-0.7,2.2c0.4,0.8,1.4,1.1,2.2,0.7
			C91.7,195.7,92,194.7,91.6,193.9"/>
	</g>
	<g>
		<path class="st0" d="M81.3,201.4c-0.4-0.8-1.4-1.1-2.2-0.7c-0.8,0.4-1.1,1.4-0.7,2.2c0.4,0.8,1.4,1.1,2.2,0.7
			C81.4,203.2,81.7,202.2,81.3,201.4"/>
	</g>
	<g>
		<path class="st0" d="M71.2,208.7c-0.4-0.8-1.4-1.1-2.2-0.7c-0.8,0.4-1.1,1.4-0.7,2.2c0.4,0.8,1.4,1.1,2.2,0.7
			C71.3,210.5,71.7,209.5,71.2,208.7"/>
	</g>
	<g>
		<path class="st0" d="M62.1,215.3c-0.4-0.8-1.4-1.1-2.2-0.7c-0.8,0.4-1.1,1.4-0.7,2.2c0.4,0.8,1.4,1.1,2.2,0.7
			C62.2,217.1,62.6,216.1,62.1,215.3"/>
	</g>
	<g>
		<path class="st0" d="M125.9,180.9c-0.6-0.7-1.7-0.7-2.4-0.1c-0.7,0.6-0.7,1.7-0.1,2.4c0.6,0.7,1.7,0.7,2.4,0.1
			C126.5,182.7,126.6,181.6,125.9,180.9"/>
	</g>
	<g>
		<path class="st0" d="M133,172.4c-0.6-0.7-1.7-0.7-2.4-0.1c-0.7,0.6-0.7,1.7-0.1,2.4c0.6,0.7,1.7,0.7,2.4,0.1
			C133.6,174.1,133.6,173.1,133,172.4"/>
	</g>
	<g>
		<path class="st0" d="M118.9,189.5c-0.6-0.7-1.7-0.7-2.4-0.1c-0.7,0.6-0.7,1.7-0.1,2.4c0.6,0.7,1.7,0.7,2.4,0.1
			C119.4,191.2,119.5,190.1,118.9,189.5"/>
	</g>
	<g>
		<path class="st0" d="M111.7,198.1c-0.6-0.7-1.7-0.7-2.4-0.1c-0.7,0.6-0.7,1.7-0.1,2.4c0.6,0.7,1.7,0.7,2.4,0.1
			C112.3,199.9,112.3,198.8,111.7,198.1"/>
	</g>
	<g>
		<path class="st0" d="M104.2,207.2c-0.6-0.7-1.7-0.7-2.4-0.1c-0.7,0.6-0.7,1.7-0.1,2.4c0.6,0.7,1.7,0.7,2.4,0.1
			C104.7,209,104.8,207.9,104.2,207.2"/>
	</g>
	<g>
		<path class="st0" d="M96,217.1c-0.6-0.7-1.7-0.7-2.4-0.1c-0.7,0.6-0.7,1.7-0.1,2.4c0.6,0.7,1.7,0.7,2.4,0.1
			C96.6,218.8,96.6,217.8,96,217.1"/>
	</g>
	<g>
		<path class="st0" d="M88.1,226.7c-0.6-0.7-1.7-0.7-2.4-0.1c-0.7,0.6-0.7,1.7-0.1,2.4c0.6,0.7,1.7,0.7,2.4,0.1
			C88.7,228.4,88.7,227.3,88.1,226.7"/>
	</g>
	<g>
		<path class="st0" d="M81,235.3c-0.6-0.7-1.7-0.7-2.4-0.1c-0.7,0.6-0.7,1.7-0.1,2.4c0.6,0.7,1.7,0.7,2.4,0.1
			C81.5,237.1,81.6,236,81,235.3"/>
	</g>
	<g>
		<path class="st0" d="M134.2,186.2c-0.8-0.5-1.8-0.3-2.3,0.5c-0.5,0.8-0.3,1.8,0.5,2.3c0.8,0.5,1.8,0.3,2.3-0.5
			C135.2,187.7,135,186.7,134.2,186.2"/>
	</g>
	<g>
		<path class="st0" d="M138.9,176.1c-0.8-0.5-1.8-0.3-2.3,0.5c-0.5,0.8-0.3,1.8,0.5,2.3c0.8,0.5,1.8,0.3,2.3-0.5
			C139.9,177.7,139.7,176.7,138.9,176.1"/>
	</g>
	<g>
		<path class="st0" d="M129.5,196.2c-0.8-0.5-1.8-0.3-2.3,0.5c-0.5,0.8-0.3,1.8,0.5,2.3c0.8,0.5,1.8,0.3,2.3-0.5
			C130.5,197.8,130.3,196.7,129.5,196.2"/>
	</g>
	<g>
		<path class="st0" d="M124.7,206.4c-0.8-0.5-1.8-0.3-2.3,0.5c-0.5,0.8-0.3,1.8,0.5,2.3c0.8,0.5,1.8,0.3,2.3-0.5
			C125.7,207.9,125.5,206.9,124.7,206.4"/>
	</g>
	<g>
		<path class="st0" d="M119.7,217.1c-0.8-0.5-1.8-0.3-2.3,0.5c-0.5,0.8-0.3,1.8,0.5,2.3c0.8,0.5,1.8,0.3,2.3-0.5
			C120.6,218.6,120.4,217.6,119.7,217.1"/>
	</g>
	<g>
		<path class="st0" d="M114.2,228.7c-0.8-0.5-1.8-0.3-2.3,0.5s-0.3,1.8,0.5,2.3c0.8,0.5,1.8,0.3,2.3-0.5
			C115.2,230.2,115,229.2,114.2,228.7"/>
	</g>
	<g>
		<path class="st0" d="M108.9,239.9c-0.8-0.5-1.8-0.3-2.3,0.5c-0.5,0.8-0.3,1.8,0.5,2.3c0.8,0.5,1.8,0.3,2.3-0.5
			C109.9,241.4,109.7,240.4,108.9,239.9"/>
	</g>
	<g>
		<path class="st0" d="M104.1,250.1c-0.8-0.5-1.8-0.3-2.3,0.5s-0.3,1.8,0.5,2.3c0.8,0.5,1.8,0.3,2.3-0.5
			C105.1,251.6,104.9,250.6,104.1,250.1"/>
	</g>
	<g>
		<path class="st0" d="M143.5,189.2c-0.9-0.3-1.8,0.1-2.1,1c-0.3,0.9,0.1,1.8,1,2.1c0.9,0.3,1.8-0.1,2.1-1
			C144.8,190.5,144.4,189.5,143.5,189.2"/>
	</g>
	<g>
		<path class="st0" d="M145.6,178.3c-0.9-0.3-1.8,0.1-2.1,1c-0.3,0.9,0.1,1.8,1,2.1c0.9,0.3,1.8-0.1,2.1-1
			C146.9,179.6,146.5,178.6,145.6,178.3"/>
	</g>
	<g>
		<path class="st0" d="M141.4,200.1c-0.9-0.3-1.8,0.1-2.1,1c-0.3,0.9,0.1,1.8,1,2.1c0.9,0.3,1.8-0.1,2.1-1
			C142.8,201.4,142.3,200.4,141.4,200.1"/>
	</g>
	<g>
		<path class="st0" d="M139.3,211.1c-0.9-0.3-1.8,0.1-2.1,1c-0.3,0.9,0.1,1.8,1,2.1c0.9,0.3,1.8-0.1,2.1-1
			C140.7,212.4,140.2,211.4,139.3,211.1"/>
	</g>
	<g>
		<path class="st0" d="M137.1,222.8c-0.9-0.3-1.8,0.1-2.1,1c-0.3,0.9,0.1,1.8,1,2.1c0.9,0.3,1.8-0.1,2.1-1
			C138.4,224,138,223.1,137.1,222.8"/>
	</g>
	<g>
		<path class="st0" d="M134.7,235.3c-0.9-0.3-1.8,0.1-2.1,1c-0.3,0.9,0.1,1.8,1,2.1c0.9,0.3,1.8-0.1,2.1-1
			C136,236.6,135.6,235.6,134.7,235.3"/>
	</g>
	<g>
		<path class="st0" d="M132.4,247.5c-0.9-0.3-1.8,0.1-2.1,1c-0.3,0.9,0.1,1.8,1,2.1c0.9,0.3,1.8-0.1,2.1-1
			C133.7,248.8,133.3,247.8,132.4,247.5"/>
	</g>
	<g>
		<path class="st0" d="M130.3,258.6c-0.9-0.3-1.8,0.1-2.1,1c-0.3,0.9,0.1,1.8,1,2.1c0.9,0.3,1.8-0.1,2.1-1
			C131.6,259.8,131.2,258.9,130.3,258.6"/>
	</g>
	<g>
		<path class="st0" d="M153.3,189.8c-0.9-0.1-1.7,0.6-1.8,1.5c-0.1,0.9,0.6,1.7,1.5,1.8c0.9,0.1,1.7-0.6,1.8-1.5
			C154.9,190.7,154.2,189.9,153.3,189.8"/>
	</g>
	<g>
		<path class="st0" d="M152.6,178.8c-0.9-0.1-1.7,0.6-1.8,1.5c-0.1,0.9,0.6,1.7,1.5,1.8c0.9,0.1,1.7-0.6,1.8-1.5
			C154.2,179.7,153.5,178.8,152.6,178.8"/>
	</g>
	<g>
		<path class="st0" d="M154,200.9c-0.9-0.1-1.7,0.6-1.8,1.5c-0.1,0.9,0.6,1.7,1.5,1.8c0.9,0.1,1.7-0.6,1.8-1.5
			C155.6,201.8,154.9,201,154,200.9"/>
	</g>
	<g>
		<path class="st0" d="M154.7,212.1c-0.9-0.1-1.7,0.6-1.8,1.5c-0.1,0.9,0.6,1.7,1.5,1.8c0.9,0.1,1.7-0.6,1.8-1.5
			C156.3,213,155.6,212.2,154.7,212.1"/>
	</g>
	<g>
		<path class="st0" d="M155.4,223.9c-0.9-0.1-1.7,0.6-1.8,1.5c-0.1,0.9,0.6,1.7,1.5,1.8c0.9,0.1,1.7-0.6,1.8-1.5
			C157,224.8,156.3,224,155.4,223.9"/>
	</g>
	<g>
		<path class="st0" d="M156.2,236.7c-0.9-0.1-1.7,0.6-1.8,1.5c-0.1,0.9,0.6,1.7,1.5,1.8c0.9,0.1,1.7-0.6,1.8-1.5
			C157.8,237.6,157.1,236.8,156.2,236.7"/>
	</g>
	<g>
		<path class="st0" d="M157,249.1c-0.9-0.1-1.7,0.6-1.8,1.5c-0.1,0.9,0.6,1.7,1.5,1.8c0.9,0.1,1.7-0.6,1.8-1.5
			C158.6,250,157.9,249.2,157,249.1"/>
	</g>
	<g>
		<path class="st0" d="M157.7,260.3c-0.9-0.1-1.7,0.6-1.8,1.5c-0.1,0.9,0.6,1.7,1.5,1.8c0.9,0.1,1.7-0.6,1.8-1.5
			C159.3,261.2,158.6,260.4,157.7,260.3"/>
	</g>
	<g>
		<path class="st0" d="M162.9,188c-0.9,0.1-1.5,1-1.4,1.9c0.1,0.9,1,1.5,1.9,1.4c0.9-0.1,1.5-1,1.4-1.9
			C164.7,188.5,163.8,187.9,162.9,188"/>
	</g>
	<g>
		<path class="st0" d="M159.5,177.5c-0.9,0.1-1.5,1-1.4,1.9c0.1,0.9,1,1.5,1.9,1.4c0.9-0.1,1.5-1,1.4-1.9
			C161.2,177.9,160.4,177.3,159.5,177.5"/>
	</g>
	<g>
		<path class="st0" d="M166.3,198.5c-0.9,0.1-1.5,1-1.4,1.9c0.1,0.9,1,1.5,1.9,1.4c0.9-0.1,1.5-1,1.4-1.9
			C168.1,199,167.2,198.4,166.3,198.5"/>
	</g>
	<g>
		<path class="st0" d="M169.8,209.2c-0.9,0.1-1.5,1-1.4,1.9c0.1,0.9,1,1.5,1.9,1.4c0.9-0.1,1.5-1,1.4-1.9
			C171.6,209.7,170.7,209.1,169.8,209.2"/>
	</g>
	<g>
		<path class="st0" d="M173.4,220.5c-0.9,0.1-1.5,1-1.4,1.9c0.1,0.9,1,1.5,1.9,1.4c0.9-0.1,1.5-1,1.4-1.9S174.4,220.3,173.4,220.5"
			/>
	</g>
	<g>
		<path class="st0" d="M177.4,232.7c-0.9,0.1-1.5,1-1.4,1.9c0.1,0.9,1,1.5,1.9,1.4c0.9-0.1,1.5-1,1.4-1.9S178.3,232.5,177.4,232.7"
			/>
	</g>
	<g>
		<path class="st0" d="M181.2,244.5c-0.9,0.1-1.5,1-1.4,1.9c0.1,0.9,1,1.5,1.9,1.4c0.9-0.1,1.5-1,1.4-1.9
			C183,244.9,182.1,244.3,181.2,244.5"/>
	</g>
	<g>
		<path class="st0" d="M184.7,255.1c-0.9,0.1-1.5,1-1.4,1.9c0.1,0.9,1,1.5,1.9,1.4c0.9-0.1,1.5-1,1.4-1.9
			C186.5,255.6,185.6,255,184.7,255.1"/>
	</g>
	<g>
		<path class="st0" d="M171.8,183.8c-0.8,0.4-1.2,1.4-0.9,2.2c0.4,0.8,1.4,1.2,2.2,0.9c0.8-0.4,1.2-1.4,0.9-2.2
			C173.6,183.9,172.6,183.5,171.8,183.8"/>
	</g>
	<g>
		<path class="st0" d="M165.8,174.5c-0.8,0.4-1.2,1.4-0.9,2.2c0.4,0.8,1.4,1.2,2.2,0.9c0.8-0.4,1.2-1.4,0.9-2.2
			C167.6,174.5,166.7,174.1,165.8,174.5"/>
	</g>
	<g>
		<path class="st0" d="M177.7,193.2c-0.8,0.4-1.2,1.4-0.9,2.2c0.4,0.8,1.4,1.2,2.2,0.9c0.8-0.4,1.2-1.4,0.9-2.2
			C179.5,193.2,178.5,192.8,177.7,193.2"/>
	</g>
	<g>
		<path class="st0" d="M183.7,202.7c-0.8,0.4-1.2,1.4-0.9,2.2c0.4,0.8,1.4,1.2,2.2,0.9c0.8-0.4,1.2-1.4,0.9-2.2
			C185.5,202.7,184.6,202.3,183.7,202.7"/>
	</g>
	<g>
		<path class="st0" d="M190.1,212.7c-0.8,0.4-1.2,1.4-0.9,2.2c0.4,0.8,1.4,1.2,2.2,0.9c0.8-0.4,1.2-1.4,0.9-2.2
			C191.9,212.7,190.9,212.3,190.1,212.7"/>
	</g>
	<g>
		<path class="st0" d="M196.9,223.5c-0.8,0.4-1.2,1.4-0.9,2.2c0.4,0.8,1.4,1.2,2.2,0.9c0.8-0.4,1.2-1.4,0.9-2.2
			C198.7,223.5,197.8,223.1,196.9,223.5"/>
	</g>
	<g>
		<path class="st0" d="M203.6,234c-0.8,0.4-1.2,1.4-0.9,2.2c0.4,0.8,1.4,1.2,2.2,0.9c0.8-0.4,1.2-1.4,0.9-2.2
			C205.4,234,204.4,233.6,203.6,234"/>
	</g>
	<g>
		<path class="st0" d="M209.6,243.5c-0.8,0.4-1.2,1.4-0.9,2.2c0.4,0.8,1.4,1.2,2.2,0.9c0.8-0.4,1.2-1.4,0.9-2.2
			C211.4,243.5,210.4,243.1,209.6,243.5"/>
	</g>
	<g>
		<path class="st0" d="M179.3,177.6c-0.7,0.6-0.9,1.6-0.3,2.3c0.6,0.7,1.6,0.9,2.3,0.3c0.7-0.6,0.9-1.6,0.3-2.3
			C181.1,177.2,180,177,179.3,177.6"/>
	</g>
	<g>
		<path class="st0" d="M171.2,170c-0.7,0.6-0.9,1.6-0.3,2.3c0.6,0.7,1.6,0.9,2.3,0.3c0.7-0.6,0.9-1.6,0.3-2.3
			C173,169.6,171.9,169.5,171.2,170"/>
	</g>
	<g>
		<path class="st0" d="M187.4,185.2c-0.7,0.6-0.9,1.6-0.3,2.3c0.6,0.7,1.6,0.9,2.3,0.3c0.7-0.6,0.9-1.6,0.3-2.3
			C189.1,184.8,188.1,184.6,187.4,185.2"/>
	</g>
	<g>
		<path class="st0" d="M195.6,192.9c-0.7,0.6-0.9,1.6-0.3,2.3c0.6,0.7,1.6,0.9,2.3,0.3c0.7-0.6,0.9-1.6,0.3-2.3
			C197.3,192.5,196.3,192.3,195.6,192.9"/>
	</g>
	<g>
		<path class="st0" d="M204.2,201c-0.7,0.6-0.9,1.6-0.3,2.3c0.6,0.7,1.6,0.9,2.3,0.3c0.7-0.6,0.9-1.6,0.3-2.3
			C206,200.6,204.9,200.4,204.2,201"/>
	</g>
	<g>
		<path class="st0" d="M213.5,209.8c-0.7,0.6-0.9,1.6-0.3,2.3c0.6,0.7,1.6,0.9,2.3,0.3c0.7-0.6,0.9-1.6,0.3-2.3
			C215.3,209.3,214.3,209.2,213.5,209.8"/>
	</g>
	<g>
		<path class="st0" d="M222.6,218.2c-0.7,0.6-0.9,1.6-0.3,2.3c0.6,0.7,1.6,0.9,2.3,0.3c0.7-0.6,0.9-1.6,0.3-2.3
			C224.3,217.8,223.3,217.7,222.6,218.2"/>
	</g>
	<g>
		<path class="st0" d="M230.8,225.9c-0.7,0.6-0.9,1.6-0.3,2.3c0.6,0.7,1.6,0.9,2.3,0.3c0.7-0.6,0.9-1.6,0.3-2.3
			C232.5,225.5,231.5,225.4,230.8,225.9"/>
	</g>
	<g>
		<path class="st0" d="M185.1,169.7c-0.6,0.7-0.4,1.8,0.3,2.3c0.7,0.6,1.8,0.4,2.3-0.3c0.6-0.7,0.4-1.8-0.3-2.3
			C186.7,168.8,185.6,169,185.1,169.7"/>
	</g>
	<g>
		<path class="st0" d="M175.3,164.4c-0.6,0.7-0.4,1.8,0.3,2.3c0.7,0.6,1.8,0.4,2.3-0.3c0.6-0.7,0.4-1.8-0.3-2.3
			C177,163.5,175.9,163.6,175.3,164.4"/>
	</g>
	<g>
		<path class="st0" d="M194.8,175c-0.6,0.7-0.4,1.8,0.3,2.3c0.7,0.6,1.8,0.4,2.3-0.3c0.6-0.7,0.4-1.8-0.3-2.3
			C196.4,174.2,195.3,174.3,194.8,175"/>
	</g>
	<g>
		<path class="st0" d="M204.6,180.5c-0.6,0.7-0.4,1.8,0.3,2.3c0.7,0.6,1.8,0.4,2.3-0.3c0.6-0.7,0.4-1.8-0.3-2.3
			C206.2,179.6,205.2,179.7,204.6,180.5"/>
	</g>
	<g>
		<path class="st0" d="M215,186.2c-0.6,0.7-0.4,1.8,0.3,2.3c0.7,0.6,1.8,0.4,2.3-0.3c0.6-0.7,0.4-1.8-0.3-2.3
			C216.6,185.3,215.5,185.4,215,186.2"/>
	</g>
	<g>
		<path class="st0" d="M226.2,192.3c-0.6,0.7-0.4,1.8,0.3,2.3c0.7,0.6,1.8,0.4,2.3-0.3c0.6-0.7,0.4-1.8-0.3-2.3
			C227.8,191.5,226.8,191.6,226.2,192.3"/>
	</g>
	<g>
		<path class="st0" d="M237.1,198.3c-0.6,0.7-0.4,1.8,0.3,2.3c0.7,0.6,1.8,0.4,2.3-0.3c0.6-0.7,0.4-1.8-0.3-2.3
			C238.7,197.4,237.6,197.6,237.1,198.3"/>
	</g>
	<g>
		<path class="st0" d="M246.9,203.7c-0.6,0.7-0.4,1.8,0.3,2.3c0.7,0.6,1.8,0.4,2.3-0.3c0.6-0.7,0.4-1.8-0.3-2.3
			C248.5,202.8,247.5,203,246.9,203.7"/>
	</g>
	<g>
		<path class="st0" d="M188.7,160.6c-0.4,0.8,0,1.8,0.9,2.2c0.8,0.4,1.8,0,2.2-0.9c0.4-0.8,0-1.8-0.9-2.2
			C190,159.4,189,159.8,188.7,160.6"/>
	</g>
	<g>
		<path class="st0" d="M177.9,157.9c-0.4,0.8,0,1.8,0.9,2.2c0.8,0.4,1.8,0,2.2-0.9c0.4-0.8,0-1.8-0.9-2.2
			C179.3,156.6,178.3,157,177.9,157.9"/>
	</g>
	<g>
		<path class="st0" d="M199.4,163.4c-0.4,0.8,0,1.8,0.9,2.2c0.8,0.4,1.8,0,2.2-0.9c0.4-0.8,0-1.8-0.9-2.2
			C200.7,162.1,199.8,162.5,199.4,163.4"/>
	</g>
	<g>
		<path class="st0" d="M210.3,166.2c-0.4,0.8,0,1.8,0.9,2.2c0.8,0.4,1.8,0,2.2-0.9c0.4-0.8,0-1.8-0.9-2.2
			C211.6,164.9,210.6,165.3,210.3,166.2"/>
	</g>
	<g>
		<path class="st0" d="M221.7,169.1c-0.4,0.8,0,1.8,0.9,2.2c0.8,0.4,1.8,0,2.2-0.9c0.4-0.8,0-1.8-0.9-2.2
			C223.1,167.9,222.1,168.3,221.7,169.1"/>
	</g>
	<g>
		<path class="st0" d="M234.2,172.3c-0.4,0.8,0,1.8,0.9,2.2c0.8,0.4,1.8,0,2.2-0.9c0.4-0.8,0-1.8-0.9-2.2
			C235.5,171,234.5,171.4,234.2,172.3"/>
	</g>
	<g>
		<path class="st0" d="M246.2,175.4c-0.4,0.8,0,1.8,0.9,2.2c0.8,0.4,1.8,0,2.2-0.9c0.4-0.8,0-1.8-0.9-2.2
			C247.5,174.1,246.5,174.5,246.2,175.4"/>
	</g>
	<g>
		<path class="st0" d="M257,178.2c-0.4,0.8,0,1.8,0.9,2.2c0.8,0.4,1.8,0,2.2-0.9c0.4-0.8,0-1.8-0.9-2.2
			C258.4,176.9,257.4,177.3,257,178.2"/>
	</g>
	<g>
		<path class="st0" d="M195.7,146.2c0,0.9,0.7,1.7,1.6,1.7c0.9,0,1.7-0.7,1.7-1.6c0-0.9-0.7-1.7-1.6-1.7
			C196.5,144.6,195.7,145.3,195.7,146.2"/>
	</g>
	<g>
		<path class="st0" d="M184.7,147.6c0,0.9,0.7,1.7,1.6,1.7c0.9,0,1.7-0.7,1.7-1.6c0-0.9-0.7-1.7-1.6-1.7
			C185.5,145.9,184.7,146.7,184.7,147.6"/>
	</g>
	<g>
		<path class="st0" d="M206.7,144.8c0,0.9,0.7,1.7,1.6,1.7c0.9,0,1.7-0.7,1.7-1.6c0-0.9-0.7-1.7-1.6-1.7
			C207.4,143.2,206.7,143.9,206.7,144.8"/>
	</g>
	<g>
		<path class="st0" d="M217.8,143.4c0,0.9,0.7,1.7,1.6,1.7c0.9,0,1.7-0.7,1.7-1.6c0-0.9-0.7-1.7-1.6-1.7
			C218.6,141.8,217.8,142.5,217.8,143.4"/>
	</g>
	<g>
		<path class="st0" d="M229.5,141.9c0,0.9,0.7,1.7,1.6,1.7c0.9,0,1.7-0.7,1.7-1.6c0-0.9-0.7-1.7-1.6-1.7
			C230.3,140.3,229.6,141,229.5,141.9"/>
	</g>
	<g>
		<path class="st0" d="M242.3,140.3c0,0.9,0.7,1.7,1.6,1.7c0.9,0,1.7-0.7,1.7-1.6c0-0.9-0.7-1.7-1.6-1.7
			C243,138.7,242.3,139.4,242.3,140.3"/>
	</g>
	<g>
		<path class="st0" d="M254.6,138.8c0,0.9,0.7,1.7,1.6,1.7c0.9,0,1.7-0.7,1.7-1.6c0-0.9-0.7-1.7-1.6-1.7
			C255.3,137.1,254.6,137.8,254.6,138.8"/>
	</g>
	<g>
		<path class="st0" d="M265.7,137.4c0,0.9,0.7,1.7,1.6,1.7c0.9,0,1.7-0.7,1.7-1.6c0-0.9-0.7-1.7-1.6-1.7S265.7,136.4,265.7,137.4"/>
	</g>
	<g>
		<path class="st0" d="M193.1,135.2c0.2,0.9,1.1,1.5,2,1.3c0.9-0.2,1.5-1.1,1.3-2c-0.2-0.9-1.1-1.5-2-1.3
			C193.5,133.4,192.9,134.3,193.1,135.2"/>
	</g>
	<g>
		<path class="st0" d="M182.8,139.3c0.2,0.9,1.1,1.5,2,1.3c0.9-0.2,1.5-1.1,1.3-2c-0.2-0.9-1.1-1.5-2-1.3
			C183.1,137.5,182.6,138.4,182.8,139.3"/>
	</g>
	<g>
		<path class="st0" d="M203.4,131.1c0.2,0.9,1.1,1.5,2,1.3c0.9-0.2,1.5-1.1,1.3-2c-0.2-0.9-1.1-1.5-2-1.3
			C203.8,129.3,203.2,130.2,203.4,131.1"/>
	</g>
	<g>
		<path class="st0" d="M213.9,127c0.2,0.9,1.1,1.5,2,1.3c0.9-0.2,1.5-1.1,1.3-2c-0.2-0.9-1.1-1.5-2-1.3
			C214.2,125.2,213.6,126.1,213.9,127"/>
	</g>
	<g>
		<path class="st0" d="M224.9,122.6c0.2,0.9,1.1,1.5,2,1.3c0.9-0.2,1.5-1.1,1.3-2c-0.2-0.9-1.1-1.5-2-1.3
			C225.2,120.8,224.6,121.7,224.9,122.6"/>
	</g>
	<g>
		<path class="st0" d="M236.8,117.9c0.2,0.9,1.1,1.5,2,1.3c0.9-0.2,1.5-1.1,1.3-2c-0.2-0.9-1.1-1.5-2-1.3
			C237.1,116.1,236.6,117,236.8,117.9"/>
	</g>
	<g>
		<path class="st0" d="M248.3,113.4c0.2,0.9,1.1,1.5,2,1.3c0.9-0.2,1.5-1.1,1.3-2c-0.2-0.9-1.1-1.5-2-1.3
			C248.6,111.6,248.1,112.5,248.3,113.4"/>
	</g>
	<g>
		<path class="st0" d="M258.7,109.2c0.2,0.9,1.1,1.5,2,1.3c0.9-0.2,1.5-1.1,1.3-2c-0.2-0.9-1.1-1.5-2-1.3
			C259.1,107.4,258.5,108.3,258.7,109.2"/>
	</g>
	<g>
		<path class="st0" d="M187.9,125.2c0.4,0.8,1.4,1.1,2.2,0.7c0.8-0.4,1.1-1.4,0.7-2.2c-0.4-0.8-1.4-1.1-2.2-0.7
			C187.8,123.4,187.5,124.4,187.9,125.2"/>
	</g>
	<g>
		<path class="st0" d="M178.9,131.7c0.4,0.8,1.4,1.1,2.2,0.7c0.8-0.4,1.1-1.4,0.7-2.2c-0.4-0.8-1.4-1.1-2.2-0.7
			C178.8,129.9,178.5,130.9,178.9,131.7"/>
	</g>
	<g>
		<path class="st0" d="M196.8,118.7c0.4,0.8,1.4,1.1,2.2,0.7c0.8-0.4,1.1-1.4,0.7-2.2c-0.4-0.8-1.4-1.1-2.2-0.7
			C196.7,116.9,196.4,117.9,196.8,118.7"/>
	</g>
	<g>
		<path class="st0" d="M205.9,112.1c0.4,0.8,1.4,1.1,2.2,0.7c0.8-0.4,1.1-1.4,0.7-2.2c-0.4-0.8-1.4-1.1-2.2-0.7
			C205.8,110.3,205.5,111.3,205.9,112.1"/>
	</g>
	<g>
		<path class="st0" d="M215.5,105.1c0.4,0.8,1.4,1.1,2.2,0.7c0.8-0.4,1.1-1.4,0.7-2.2c-0.4-0.8-1.4-1.1-2.2-0.7
			C215.4,103.3,215.1,104.3,215.5,105.1"/>
	</g>
	<g>
		<path class="st0" d="M225.9,97.6c0.4,0.8,1.4,1.1,2.2,0.7c0.8-0.4,1.1-1.4,0.7-2.2c-0.4-0.8-1.4-1.1-2.2-0.7
			C225.8,95.8,225.5,96.8,225.9,97.6"/>
	</g>
	<g>
		<path class="st0" d="M235.9,90.3c0.4,0.8,1.4,1.1,2.2,0.7c0.8-0.4,1.1-1.4,0.7-2.2c-0.4-0.8-1.4-1.1-2.2-0.7
			C235.8,88.5,235.5,89.5,235.9,90.3"/>
	</g>
	<g>
		<path class="st0" d="M245,83.7c0.4,0.8,1.4,1.1,2.2,0.7c0.8-0.4,1.1-1.4,0.7-2.2c-0.4-0.8-1.4-1.1-2.2-0.7
			C244.9,81.9,244.6,82.9,245,83.7"/>
	</g>
	<g>
		<path class="st0" d="M180.3,116.8c0.6,0.7,1.7,0.7,2.4,0.1c0.7-0.6,0.7-1.7,0.1-2.4c-0.6-0.7-1.7-0.7-2.4-0.1
			C179.8,115.1,179.7,116.1,180.3,116.8"/>
	</g>
	<g>
		<path class="st0" d="M173.3,125.3c0.6,0.7,1.7,0.7,2.4,0.1c0.7-0.6,0.7-1.7,0.1-2.4c-0.6-0.7-1.7-0.7-2.4-0.1
			C172.7,123.6,172.7,124.7,173.3,125.3"/>
	</g>
	<g>
		<path class="st0" d="M187.4,108.3c0.6,0.7,1.7,0.7,2.4,0.1c0.7-0.6,0.7-1.7,0.1-2.4c-0.6-0.7-1.7-0.7-2.4-0.1
			C186.8,106.5,186.8,107.6,187.4,108.3"/>
	</g>
	<g>
		<path class="st0" d="M194.6,99.6c0.6,0.7,1.7,0.7,2.4,0.1c0.7-0.6,0.7-1.7,0.1-2.4c-0.6-0.7-1.7-0.7-2.4-0.1
			C194,97.9,193.9,98.9,194.6,99.6"/>
	</g>
	<g>
		<path class="st0" d="M202.1,90.5c0.6,0.7,1.7,0.7,2.4,0.1c0.7-0.6,0.7-1.7,0.1-2.4c-0.6-0.7-1.7-0.7-2.4-0.1
			C201.6,88.7,201.5,89.8,202.1,90.5"/>
	</g>
	<g>
		<path class="st0" d="M210.3,80.6c0.6,0.7,1.7,0.7,2.4,0.1c0.7-0.6,0.7-1.7,0.1-2.4c-0.6-0.7-1.7-0.7-2.4-0.1
			C209.7,78.9,209.7,79.9,210.3,80.6"/>
	</g>
	<g>
		<path class="st0" d="M218.2,71.1c0.6,0.7,1.7,0.7,2.4,0.1c0.7-0.6,0.7-1.7,0.1-2.4c-0.6-0.7-1.7-0.7-2.4-0.1
			C217.6,69.3,217.6,70.4,218.2,71.1"/>
	</g>
	<g>
		<path class="st0" d="M225.3,62.4c0.6,0.7,1.7,0.7,2.4,0.1c0.7-0.6,0.7-1.7,0.1-2.4c-0.6-0.7-1.7-0.7-2.4-0.1
			C224.8,60.7,224.7,61.7,225.3,62.4"/>
	</g>
	<g>
		<path class="st0" d="M170.9,110.5c0.8,0.5,1.8,0.3,2.3-0.5c0.5-0.8,0.3-1.8-0.5-2.3c-0.8-0.5-1.8-0.3-2.3,0.5
			C170,109,170.2,110,170.9,110.5"/>
	</g>
	<g>
		<path class="st0" d="M166.2,120.6c0.8,0.5,1.8,0.3,2.3-0.5c0.5-0.8,0.3-1.8-0.5-2.3c-0.8-0.5-1.8-0.3-2.3,0.5
			C165.3,119,165.5,120.1,166.2,120.6"/>
	</g>
	<g>
		<path class="st0" d="M175.7,100.5c0.8,0.5,1.8,0.3,2.3-0.5c0.5-0.8,0.3-1.8-0.5-2.3c-0.8-0.5-1.8-0.3-2.3,0.5
			C174.7,99,174.9,100,175.7,100.5"/>
	</g>
	<g>
		<path class="st0" d="M180.4,90.3c0.8,0.5,1.8,0.3,2.3-0.5c0.5-0.8,0.3-1.8-0.5-2.3c-0.8-0.5-1.8-0.3-2.3,0.5
			C179.5,88.8,179.7,89.8,180.4,90.3"/>
	</g>
	<g>
		<path class="st0" d="M185.5,79.6c0.8,0.5,1.8,0.3,2.3-0.5c0.5-0.8,0.3-1.8-0.5-2.3c-0.8-0.5-1.8-0.3-2.3,0.5
			C184.5,78.1,184.7,79.1,185.5,79.6"/>
	</g>
	<g>
		<path class="st0" d="M190.9,68c0.8,0.5,1.8,0.3,2.3-0.5c0.5-0.8,0.3-1.8-0.5-2.3c-0.8-0.5-1.8-0.3-2.3,0.5
			C190,66.5,190.2,67.5,190.9,68"/>
	</g>
	<g>
		<path class="st0" d="M196.2,56.8c0.8,0.5,1.8,0.3,2.3-0.5c0.5-0.8,0.3-1.8-0.5-2.3c-0.8-0.5-1.8-0.3-2.3,0.5
			C195.2,55.3,195.4,56.3,196.2,56.8"/>
	</g>
	<g>
		<path class="st0" d="M201,46.7c0.8,0.5,1.8,0.3,2.3-0.5c0.5-0.8,0.3-1.8-0.5-2.3c-0.8-0.5-1.8-0.3-2.3,0.5
			C200,45.1,200.2,46.2,201,46.7"/>
	</g>
	<g>
		<path class="st0" d="M160.3,106.8c0.9,0.3,1.8-0.1,2.1-1c0.3-0.9-0.1-1.8-1-2.1c-0.9-0.3-1.8,0.1-2.1,1
			C159,105.6,159.4,106.5,160.3,106.8"/>
	</g>
	<g>
		<path class="st0" d="M158.2,117.7c0.9,0.3,1.8-0.1,2.1-1c0.3-0.9-0.1-1.8-1-2.1c-0.9-0.3-1.8,0.1-2.1,1
			C156.9,116.4,157.3,117.4,158.2,117.7"/>
	</g>
	<g>
		<path class="st0" d="M162.4,95.9c0.9,0.3,1.8-0.1,2.1-1c0.3-0.9-0.1-1.8-1-2.1c-0.9-0.3-1.8,0.1-2.1,1
			C161,94.7,161.5,95.6,162.4,95.9"/>
	</g>
	<g>
		<path class="st0" d="M164.5,84.9c0.9,0.3,1.8-0.1,2.1-1c0.3-0.9-0.1-1.8-1-2.1c-0.9-0.3-1.8,0.1-2.1,1
			C163.1,83.6,163.6,84.6,164.5,84.9"/>
	</g>
	<g>
		<path class="st0" d="M166.7,73.3c0.9,0.3,1.8-0.1,2.1-1c0.3-0.9-0.1-1.8-1-2.1c-0.9-0.3-1.8,0.1-2.1,1
			C165.4,72,165.8,73,166.7,73.3"/>
	</g>
	<g>
		<path class="st0" d="M169.1,60.7c0.9,0.3,1.8-0.1,2.1-1c0.3-0.9-0.1-1.8-1-2.1c-0.9-0.3-1.8,0.1-2.1,1
			C167.8,59.4,168.2,60.4,169.1,60.7"/>
	</g>
	<g>
		<path class="st0" d="M171.4,48.5c0.9,0.3,1.8-0.1,2.1-1c0.3-0.9-0.1-1.8-1-2.1c-0.9-0.3-1.8,0.1-2.1,1
			C170.1,47.2,170.5,48.2,171.4,48.5"/>
	</g>
	<g>
		<path class="st0" d="M173.5,37.5c0.9,0.3,1.8-0.1,2.1-1c0.3-0.9-0.1-1.8-1-2.1c-0.9-0.3-1.8,0.1-2.1,1
			C172.2,36.2,172.6,37.2,173.5,37.5"/>
	</g>
	<g>
		<path class="st0" d="M149,105.9c0.9,0.1,1.7-0.6,1.8-1.5c0.1-0.9-0.6-1.7-1.5-1.8c-0.9-0.1-1.7,0.6-1.8,1.5
			C147.4,105,148.1,105.8,149,105.9"/>
	</g>
	<g>
		<path class="st0" d="M149.7,116.9c0.9,0.1,1.7-0.6,1.8-1.5c0.1-0.9-0.6-1.7-1.5-1.8c-0.9-0.1-1.7,0.6-1.8,1.5
			C148.1,116,148.8,116.8,149.7,116.9"/>
	</g>
	<g>
		<path class="st0" d="M148.3,94.8c0.9,0.1,1.7-0.6,1.8-1.5c0.1-0.9-0.6-1.7-1.5-1.8c-0.9-0.1-1.7,0.6-1.8,1.5
			C146.7,93.9,147.4,94.7,148.3,94.8"/>
	</g>
	<g>
		<path class="st0" d="M147.6,83.6c0.9,0.1,1.7-0.6,1.8-1.5c0.1-0.9-0.6-1.7-1.5-1.8c-0.9-0.1-1.7,0.6-1.8,1.5
			C146,82.7,146.7,83.5,147.6,83.6"/>
	</g>
	<g>
		<path class="st0" d="M146.9,71.8c0.9,0.1,1.7-0.6,1.8-1.5c0.1-0.9-0.6-1.7-1.5-1.8c-0.9-0.1-1.7,0.6-1.8,1.5
			C145.3,70.9,146,71.7,146.9,71.8"/>
	</g>
	<g>
		<path class="st0" d="M146.1,59c0.9,0.1,1.7-0.6,1.8-1.5c0.1-0.9-0.6-1.7-1.5-1.8c-0.9-0.1-1.7,0.6-1.8,1.5
			C144.5,58.1,145.2,58.9,146.1,59"/>
	</g>
	<g>
		<path class="st0" d="M145.3,46.6c0.9,0.1,1.7-0.6,1.8-1.5c0.1-0.9-0.6-1.7-1.5-1.8c-0.9-0.1-1.7,0.6-1.8,1.5
			C143.7,45.7,144.4,46.5,145.3,46.6"/>
	</g>
	<g>
		<path class="st0" d="M144.6,35.4c0.9,0.1,1.7-0.6,1.8-1.5c0.1-0.9-0.6-1.7-1.5-1.8c-0.9-0.1-1.7,0.6-1.8,1.5
			C143,34.5,143.7,35.3,144.6,35.4"/>
	</g>
	<g>
		<path class="st0" d="M137.9,107.7c0.9-0.1,1.5-1,1.4-1.9c-0.1-0.9-1-1.5-1.9-1.4c-0.9,0.1-1.5,1-1.4,1.9
			C136.1,107.3,137,107.9,137.9,107.7"/>
	</g>
	<g>
		<path class="st0" d="M141.3,118.3c0.9-0.1,1.5-1,1.4-1.9c-0.1-0.9-1-1.5-1.9-1.4c-0.9,0.1-1.5,1-1.4,1.9
			C139.6,117.8,140.4,118.4,141.3,118.3"/>
	</g>
	<g>
		<path class="st0" d="M134.5,97.2c0.9-0.1,1.5-1,1.4-1.9c-0.1-0.9-1-1.5-1.9-1.4c-0.9,0.1-1.5,1-1.4,1.9
			C132.7,96.7,133.6,97.3,134.5,97.2"/>
	</g>
	<g>
		<path class="st0" d="M131,86.5c0.9-0.1,1.5-1,1.4-1.9c-0.1-0.9-1-1.5-1.9-1.4c-0.9,0.1-1.5,1-1.4,1.9
			C129.2,86,130.1,86.7,131,86.5"/>
	</g>
	<g>
		<path class="st0" d="M127.3,75.2c0.9-0.1,1.5-1,1.4-1.9c-0.1-0.9-1-1.5-1.9-1.4c-0.9,0.1-1.5,1-1.4,1.9
			C125.6,74.8,126.4,75.4,127.3,75.2"/>
	</g>
	<g>
		<path class="st0" d="M123.4,63.1c0.9-0.1,1.5-1,1.4-1.9c-0.1-0.9-1-1.5-1.9-1.4c-0.9,0.1-1.5,1-1.4,1.9
			C121.6,62.6,122.5,63.2,123.4,63.1"/>
	</g>
	<g>
		<path class="st0" d="M119.6,51.3c0.9-0.1,1.5-1,1.4-1.9c-0.1-0.9-1-1.5-1.9-1.4c-0.9,0.1-1.5,1-1.4,1.9
			C117.8,50.8,118.6,51.4,119.6,51.3"/>
	</g>
	<g>
		<path class="st0" d="M116.1,40.6c0.9-0.1,1.5-1,1.4-1.9c-0.1-0.9-1-1.5-1.9-1.4c-0.9,0.1-1.5,1-1.4,1.9
			C114.3,40.1,115.2,40.7,116.1,40.6"/>
	</g>
	<g>
		<path class="st0" d="M127.6,112.3c0.8-0.4,1.2-1.4,0.9-2.2c-0.4-0.8-1.4-1.2-2.2-0.9c-0.8,0.4-1.2,1.4-0.9,2.2
			C125.7,112.3,126.7,112.7,127.6,112.3"/>
	</g>
	<g>
		<path class="st0" d="M133.5,121.7c0.8-0.4,1.2-1.4,0.9-2.2c-0.4-0.8-1.4-1.2-2.2-0.9c-0.8,0.4-1.2,1.4-0.9,2.2
			C131.7,121.7,132.7,122,133.5,121.7"/>
	</g>
	<g>
		<path class="st0" d="M121.6,103c0.8-0.4,1.2-1.4,0.9-2.2c-0.4-0.8-1.4-1.2-2.2-0.9c-0.8,0.4-1.2,1.4-0.9,2.2
			C119.8,102.9,120.8,103.3,121.6,103"/>
	</g>
	<g>
		<path class="st0" d="M115.6,93.5c0.8-0.4,1.2-1.4,0.9-2.2c-0.4-0.8-1.4-1.2-2.2-0.9c-0.8,0.4-1.2,1.4-0.9,2.2
			C113.8,93.5,114.8,93.8,115.6,93.5"/>
	</g>
	<g>
		<path class="st0" d="M109.3,83.5c0.8-0.4,1.2-1.4,0.9-2.2c-0.4-0.8-1.4-1.2-2.2-0.9c-0.8,0.4-1.2,1.4-0.9,2.2
			C107.4,83.5,108.4,83.8,109.3,83.5"/>
	</g>
	<g>
		<path class="st0" d="M102.4,72.7c0.8-0.4,1.2-1.4,0.9-2.2c-0.4-0.8-1.4-1.2-2.2-0.9c-0.8,0.4-1.2,1.4-0.9,2.2
			C100.6,72.6,101.6,73,102.4,72.7"/>
	</g>
	<g>
		<path class="st0" d="M95.8,62.2c0.8-0.4,1.2-1.4,0.9-2.2c-0.4-0.8-1.4-1.2-2.2-0.9c-0.8,0.4-1.2,1.4-0.9,2.2
			C93.9,62.2,94.9,62.6,95.8,62.2"/>
	</g>
	<g>
		<path class="st0" d="M89.7,52.7c0.8-0.4,1.2-1.4,0.9-2.2c-0.4-0.8-1.4-1.2-2.2-0.9c-0.8,0.4-1.2,1.4-0.9,2.2
			C87.9,52.7,88.9,53.1,89.7,52.7"/>
	</g>
	<g>
		<path class="st0" d="M118.7,119.3c0.7-0.6,0.9-1.6,0.3-2.3c-0.6-0.7-1.6-0.9-2.3-0.3c-0.7,0.6-0.9,1.6-0.3,2.3
			C116.9,119.8,118,119.9,118.7,119.3"/>
	</g>
	<g>
		<path class="st0" d="M126.8,126.9c0.7-0.6,0.9-1.6,0.3-2.3c-0.6-0.7-1.6-0.9-2.3-0.3c-0.7,0.6-0.9,1.6-0.3,2.3
			C125,127.3,126.1,127.5,126.8,126.9"/>
	</g>
	<g>
		<path class="st0" d="M110.6,111.7c0.7-0.6,0.9-1.6,0.3-2.3c-0.6-0.7-1.6-0.9-2.3-0.3c-0.7,0.6-0.9,1.6-0.3,2.3
			C108.9,112.2,109.9,112.3,110.6,111.7"/>
	</g>
	<g>
		<path class="st0" d="M102.4,104c0.7-0.6,0.9-1.6,0.3-2.3c-0.6-0.7-1.6-0.9-2.3-0.3c-0.7,0.6-0.9,1.6-0.3,2.3
			C100.7,104.5,101.7,104.6,102.4,104"/>
	</g>
	<g>
		<path class="st0" d="M93.8,95.9c0.7-0.6,0.9-1.6,0.3-2.3c-0.6-0.7-1.6-0.9-2.3-0.3c-0.7,0.6-0.9,1.6-0.3,2.3
			C92.1,96.4,93.1,96.5,93.8,95.9"/>
	</g>
	<g>
		<path class="st0" d="M84.5,87.2c0.7-0.6,0.9-1.6,0.3-2.3c-0.6-0.7-1.6-0.9-2.3-0.3c-0.7,0.6-0.9,1.6-0.3,2.3
			C82.7,87.6,83.8,87.7,84.5,87.2"/>
	</g>
	<g>
		<path class="st0" d="M75.4,78.7c0.7-0.6,0.9-1.6,0.3-2.3c-0.6-0.7-1.6-0.9-2.3-0.3c-0.7,0.6-0.9,1.6-0.3,2.3
			C73.7,79.1,74.7,79.2,75.4,78.7"/>
	</g>
	<g>
		<path class="st0" d="M67.3,71c0.7-0.6,0.9-1.6,0.3-2.3c-0.6-0.7-1.6-0.9-2.3-0.3c-0.7,0.6-0.9,1.6-0.3,2.3
			C65.5,71.4,66.5,71.6,67.3,71"/>
	</g>
	<g>
		<path class="st0" d="M111.9,128.3c0.6-0.7,0.4-1.8-0.3-2.3c-0.7-0.6-1.8-0.4-2.3,0.3c-0.6,0.7-0.4,1.8,0.3,2.3
			C110.3,129.2,111.3,129,111.9,128.3"/>
	</g>
	<g>
		<path class="st0" d="M121.6,133.6c0.6-0.7,0.4-1.8-0.3-2.3c-0.7-0.6-1.8-0.4-2.3,0.3c-0.6,0.7-0.4,1.8,0.3,2.3
			C120,134.5,121,134.4,121.6,133.6"/>
	</g>
	<g>
		<path class="st0" d="M102.2,123c0.6-0.7,0.4-1.8-0.3-2.3c-0.7-0.6-1.8-0.4-2.3,0.3c-0.6,0.7-0.4,1.8,0.3,2.3
			C100.6,123.8,101.6,123.7,102.2,123"/>
	</g>
	<g>
		<path class="st0" d="M92.3,117.5c0.6-0.7,0.4-1.8-0.3-2.3c-0.7-0.6-1.8-0.4-2.3,0.3c-0.6,0.7-0.4,1.8,0.3,2.3
			C90.7,118.4,91.8,118.3,92.3,117.5"/>
	</g>
	<g>
		<path class="st0" d="M82,111.8c0.6-0.7,0.4-1.8-0.3-2.3c-0.7-0.6-1.8-0.4-2.3,0.3c-0.6,0.7-0.4,1.8,0.3,2.3
			C80.3,112.7,81.4,112.6,82,111.8"/>
	</g>
	<g>
		<path class="st0" d="M70.7,105.7c0.6-0.7,0.4-1.8-0.3-2.3c-0.7-0.6-1.8-0.4-2.3,0.3c-0.6,0.7-0.4,1.8,0.3,2.3
			C69.1,106.5,70.2,106.4,70.7,105.7"/>
	</g>
	<g>
		<path class="st0" d="M59.9,99.7c0.6-0.7,0.4-1.8-0.3-2.3c-0.7-0.6-1.8-0.4-2.3,0.3c-0.6,0.7-0.4,1.8,0.3,2.3
			C58.3,100.6,59.3,100.4,59.9,99.7"/>
	</g>
	<g>
		<path class="st0" d="M50,94.3c0.6-0.7,0.4-1.8-0.3-2.3c-0.7-0.6-1.8-0.4-2.3,0.3C46.8,93,47,94,47.7,94.6
			C48.4,95.2,49.5,95,50,94.3"/>
	</g>
	<g>
		<path class="st0" d="M107.5,138.7c0.4-0.8,0-1.8-0.9-2.2c-0.8-0.4-1.8,0-2.2,0.9c-0.4,0.8,0,1.8,0.9,2.2
			C106.2,139.9,107.1,139.5,107.5,138.7"/>
	</g>
	<g>
		<path class="st0" d="M118.2,141.5c0.4-0.8,0-1.8-0.9-2.2c-0.8-0.4-1.8,0-2.2,0.9c-0.4,0.8,0,1.8,0.9,2.2
			C116.9,142.7,117.9,142.3,118.2,141.5"/>
	</g>
	<g>
		<path class="st0" d="M96.8,135.9c0.4-0.8,0-1.8-0.9-2.2c-0.8-0.4-1.8,0-2.2,0.9c-0.4,0.8,0,1.8,0.9,2.2
			C95.4,137.2,96.4,136.8,96.8,135.9"/>
	</g>
	<g>
		<path class="st0" d="M85.9,133.1c0.4-0.8,0-1.8-0.9-2.2c-0.8-0.4-1.8,0-2.2,0.9c-0.4,0.8,0,1.8,0.9,2.2
			C84.5,134.4,85.5,134,85.9,133.1"/>
	</g>
	<g>
		<path class="st0" d="M74.4,130.2c0.4-0.8,0-1.8-0.9-2.2c-0.8-0.4-1.8,0-2.2,0.9c-0.4,0.8,0,1.8,0.9,2.2
			C73.1,131.4,74.1,131.1,74.4,130.2"/>
	</g>
	<g>
		<path class="st0" d="M62,127c0.4-0.8,0-1.8-0.9-2.2c-0.8-0.4-1.8,0-2.2,0.9c-0.4,0.8,0,1.8,0.9,2.2C60.7,128.3,61.6,127.9,62,127"
			/>
	</g>
	<g>
		<path class="st0" d="M50,123.9c0.4-0.8,0-1.8-0.9-2.2c-0.8-0.4-1.8,0-2.2,0.9c-0.4,0.8,0,1.8,0.9,2.2
			C48.7,125.2,49.6,124.8,50,123.9"/>
	</g>
	<g>
		<path class="st0" d="M39.1,121.1c0.4-0.8,0-1.8-0.9-2.2c-0.8-0.4-1.8,0-2.2,0.9c-0.4,0.8,0,1.8,0.9,2.2
			C37.8,122.4,38.8,122,39.1,121.1"/>
	</g>
	<g>
		<path class="st0" d="M105.8,149.9c0.1-0.9-0.5-1.8-1.4-1.9c-0.9-0.1-1.8,0.5-1.9,1.4c-0.1,0.9,0.5,1.8,1.4,1.9
			C104.8,151.4,105.7,150.8,105.8,149.9"/>
	</g>
	<g>
		<path class="st0" d="M116.9,149.9c0.1-0.9-0.5-1.8-1.4-1.9c-0.9-0.1-1.8,0.5-1.9,1.4c-0.1,0.9,0.5,1.8,1.4,1.9
			C115.9,151.4,116.8,150.8,116.9,149.9"/>
	</g>
	<g>
		<path class="st0" d="M94.7,149.9c0.1-0.9-0.5-1.8-1.4-1.9c-0.9-0.1-1.8,0.5-1.9,1.4c-0.1,0.9,0.5,1.8,1.4,1.9
			C93.8,151.4,94.6,150.8,94.7,149.9"/>
	</g>
	<g>
		<path class="st0" d="M83.5,149.9c0.1-0.9-0.5-1.8-1.4-1.9c-0.9-0.1-1.8,0.5-1.9,1.4c-0.1,0.9,0.5,1.8,1.4,1.9
			C82.5,151.4,83.4,150.8,83.5,149.9"/>
	</g>
	<g>
		<path class="st0" d="M71.7,149.9c0.1-0.9-0.5-1.8-1.4-1.9c-0.9-0.1-1.8,0.5-1.9,1.4c-0.1,0.9,0.5,1.8,1.4,1.9
			C70.7,151.4,71.5,150.8,71.7,149.9"/>
	</g>
	<g>
		<path class="st0" d="M58.9,149.9c0.1-0.9-0.5-1.8-1.4-1.9c-0.9-0.1-1.8,0.5-1.9,1.4c-0.1,0.9,0.5,1.8,1.4,1.9
			C57.9,151.4,58.7,150.8,58.9,149.9"/>
	</g>
	<g>
		<path class="st0" d="M46.5,149.9c0.1-0.9-0.5-1.8-1.4-1.9c-0.9-0.1-1.8,0.5-1.9,1.4c-0.1,0.9,0.5,1.8,1.4,1.9
			C45.5,151.4,46.3,150.8,46.5,149.9"/>
	</g>
	<g>
		<path class="st0" d="M35.2,149.9c0.1-0.9-0.5-1.8-1.4-1.9c-0.9-0.1-1.8,0.5-1.9,1.4c-0.1,0.9,0.5,1.8,1.4,1.9
			C34.2,151.4,35.1,150.8,35.2,149.9"/>
	</g>
	<g>
		<path class="st0" d="M107,161.1c-0.1-0.9-0.9-1.6-1.8-1.5c-0.9,0.1-1.6,0.9-1.5,1.8c0.1,0.9,0.9,1.6,1.8,1.5
			C106.4,162.8,107.1,162,107,161.1"/>
	</g>
	<g>
		<path class="st0" d="M117.7,158.3c-0.1-0.9-0.9-1.6-1.8-1.5c-0.9,0.1-1.6,0.9-1.5,1.8c0.1,0.9,0.9,1.6,1.8,1.5
			C117.2,160.1,117.8,159.3,117.7,158.3"/>
	</g>
	<g>
		<path class="st0" d="M96.3,163.9c-0.1-0.9-0.9-1.6-1.8-1.5c-0.9,0.1-1.6,0.9-1.5,1.8c0.1,0.9,0.9,1.6,1.8,1.5
			C95.7,165.6,96.4,164.8,96.3,163.9"/>
	</g>
	<g>
		<path class="st0" d="M85.4,166.6c-0.1-0.9-0.9-1.6-1.8-1.5c-0.9,0.1-1.6,0.9-1.5,1.8c0.1,0.9,0.9,1.6,1.8,1.5
			C84.8,168.4,85.5,167.6,85.4,166.6"/>
	</g>
	<g>
		<path class="st0" d="M73.9,169.6c-0.1-0.9-0.9-1.6-1.8-1.5c-0.9,0.1-1.6,0.9-1.5,1.8c0.1,0.9,0.9,1.6,1.8,1.5
			C73.3,171.3,74,170.5,73.9,169.6"/>
	</g>
	<g>
		<path class="st0" d="M61.5,172.8c-0.1-0.9-0.9-1.6-1.8-1.5c-0.9,0.1-1.6,0.9-1.5,1.8c0.1,0.9,0.9,1.6,1.8,1.5
			C60.9,174.5,61.6,173.7,61.5,172.8"/>
	</g>
	<g>
		<path class="st0" d="M49.5,175.9c-0.1-0.9-0.9-1.6-1.8-1.5c-0.9,0.1-1.6,0.9-1.5,1.8c0.1,0.9,0.9,1.6,1.8,1.5
			C48.9,177.6,49.6,176.8,49.5,175.9"/>
	</g>
	<g>
		<path class="st0" d="M38.6,178.7c-0.1-0.9-0.9-1.6-1.8-1.5c-0.9,0.1-1.6,0.9-1.5,1.8c0.1,0.9,0.9,1.6,1.8,1.5
			C38,180.4,38.7,179.6,38.6,178.7"/>
	</g>
	<g>
		<path class="st0" d="M110.9,171.7c-0.3-0.9-1.3-1.3-2.1-1c-0.9,0.3-1.3,1.3-1,2.1c0.3,0.9,1.3,1.3,2.1,1
			C110.8,173.5,111.2,172.5,110.9,171.7"/>
	</g>
	<g>
		<path class="st0" d="M120.6,166.3c-0.3-0.9-1.3-1.3-2.1-1c-0.9,0.3-1.3,1.3-1,2.1c0.3,0.9,1.3,1.3,2.1,1
			C120.5,168.2,121,167.2,120.6,166.3"/>
	</g>
	<g>
		<path class="st0" d="M101.2,177c-0.3-0.9-1.3-1.3-2.1-1c-0.9,0.3-1.3,1.3-1,2.1c0.3,0.9,1.3,1.3,2.1,1
			C101.1,178.8,101.5,177.9,101.2,177"/>
	</g>
	<g>
		<path class="st0" d="M91.4,182.4c-0.3-0.9-1.3-1.3-2.1-1c-0.9,0.3-1.3,1.3-1,2.1c0.3,0.9,1.3,1.3,2.1,1
			C91.2,184.3,91.7,183.3,91.4,182.4"/>
	</g>
	<g>
		<path class="st0" d="M81,188.1c-0.3-0.9-1.3-1.3-2.1-1c-0.9,0.3-1.3,1.3-1,2.1c0.3,0.9,1.3,1.3,2.1,1C80.9,190,81.3,189,81,188.1"
			/>
	</g>
	<g>
		<path class="st0" d="M69.8,194.3c-0.3-0.9-1.3-1.3-2.1-1c-0.9,0.3-1.3,1.3-1,2.1c0.3,0.9,1.3,1.3,2.1,1
			C69.6,196.1,70.1,195.2,69.8,194.3"/>
	</g>
	<g>
		<path class="st0" d="M58.9,200.3c-0.3-0.9-1.3-1.3-2.1-1c-0.9,0.3-1.3,1.3-1,2.1c0.3,0.9,1.3,1.3,2.1,1
			C58.8,202.1,59.2,201.1,58.9,200.3"/>
	</g>
	<g>
		<path class="st0" d="M49.1,205.7c-0.3-0.9-1.3-1.3-2.1-1c-0.9,0.3-1.3,1.3-1,2.1c0.3,0.9,1.3,1.3,2.1,1
			C48.9,207.5,49.4,206.6,49.1,205.7"/>
	</g>
	<g>
		<path class="st0" d="M117.4,181c-0.5-0.8-1.6-1-2.3-0.4c-0.8,0.5-1,1.6-0.4,2.3c0.5,0.8,1.6,1,2.3,0.4
			C117.7,182.8,117.9,181.7,117.4,181"/>
	</g>
	<g>
		<path class="st0" d="M125.4,173.4c-0.5-0.8-1.6-1-2.3-0.4c-0.8,0.5-1,1.6-0.4,2.3c0.5,0.8,1.6,1,2.3,0.4
			C125.8,175.2,126,174.1,125.4,173.4"/>
	</g>
	<g>
		<path class="st0" d="M109.3,188.6c-0.5-0.8-1.6-1-2.3-0.4c-0.8,0.5-1,1.6-0.4,2.3c0.5,0.8,1.6,1,2.3,0.4
			C109.6,190.3,109.8,189.3,109.3,188.6"/>
	</g>
	<g>
		<path class="st0" d="M101.1,196.2c-0.5-0.8-1.6-1-2.3-0.4c-0.8,0.5-1,1.6-0.4,2.3c0.5,0.8,1.6,1,2.3,0.4
			C101.4,198,101.6,197,101.1,196.2"/>
	</g>
	<g>
		<path class="st0" d="M92.5,204.3c-0.5-0.8-1.6-1-2.3-0.4c-0.8,0.5-1,1.6-0.4,2.3c0.5,0.8,1.6,1,2.3,0.4
			C92.8,206.1,93,205.1,92.5,204.3"/>
	</g>
	<g>
		<path class="st0" d="M83.1,213.1c-0.5-0.8-1.6-1-2.3-0.4c-0.8,0.5-1,1.6-0.4,2.3c0.5,0.8,1.6,1,2.3,0.4
			C83.5,214.9,83.6,213.9,83.1,213.1"/>
	</g>
	<g>
		<path class="st0" d="M74.1,221.6c-0.5-0.8-1.6-1-2.3-0.4c-0.8,0.5-1,1.6-0.4,2.3c0.5,0.8,1.6,1,2.3,0.4
			C74.4,223.4,74.6,222.4,74.1,221.6"/>
	</g>
	<g>
		<path class="st0" d="M65.9,229.3c-0.5-0.8-1.6-1-2.3-0.4c-0.8,0.5-1,1.6-0.4,2.3c0.5,0.8,1.6,1,2.3,0.4
			C66.2,231.1,66.4,230,65.9,229.3"/>
	</g>
	<g>
		<path class="st0" d="M125.9,188.4c-0.7-0.6-1.7-0.5-2.4,0.2c-0.6,0.7-0.5,1.7,0.2,2.4c0.7,0.6,1.7,0.5,2.4-0.2
			C126.7,190,126.6,189,125.9,188.4"/>
	</g>
	<g>
		<path class="st0" d="M131.8,179c-0.7-0.6-1.7-0.5-2.4,0.2s-0.5,1.7,0.2,2.4c0.7,0.6,1.7,0.5,2.4-0.2
			C132.6,180.7,132.5,179.6,131.8,179"/>
	</g>
	<g>
		<path class="st0" d="M120,197.7c-0.7-0.6-1.7-0.5-2.4,0.2c-0.6,0.7-0.5,1.7,0.2,2.4c0.7,0.6,1.7,0.5,2.4-0.2
			C120.7,199.4,120.6,198.3,120,197.7"/>
	</g>
	<g>
		<path class="st0" d="M113.9,207.2c-0.7-0.6-1.7-0.5-2.4,0.2c-0.6,0.7-0.5,1.7,0.2,2.4c0.7,0.6,1.7,0.5,2.4-0.2
			C114.7,208.9,114.6,207.8,113.9,207.2"/>
	</g>
	<g>
		<path class="st0" d="M107.6,217.2c-0.7-0.6-1.7-0.5-2.4,0.2c-0.6,0.7-0.5,1.7,0.2,2.4c0.7,0.6,1.7,0.5,2.4-0.2
			C108.4,218.8,108.3,217.8,107.6,217.2"/>
	</g>
	<g>
		<path class="st0" d="M100.7,228c-0.7-0.6-1.7-0.5-2.4,0.2c-0.6,0.7-0.5,1.7,0.2,2.4c0.7,0.6,1.7,0.5,2.4-0.2
			C101.5,229.7,101.4,228.6,100.7,228"/>
	</g>
	<g>
		<path class="st0" d="M94.1,238.5c-0.7-0.6-1.7-0.5-2.4,0.2c-0.6,0.7-0.5,1.7,0.2,2.4c0.7,0.6,1.7,0.5,2.4-0.2
			C94.9,240.1,94.8,239.1,94.1,238.5"/>
	</g>
	<g>
		<path class="st0" d="M88.1,248c-0.7-0.6-1.7-0.5-2.4,0.2c-0.6,0.7-0.5,1.7,0.2,2.4c0.7,0.6,1.7,0.5,2.4-0.2
			C88.8,249.6,88.8,248.6,88.1,248"/>
	</g>
	<g>
		<path class="st0" d="M136,193.4c-0.8-0.4-1.8-0.1-2.2,0.7c-0.4,0.8-0.1,1.8,0.7,2.2c0.8,0.4,1.8,0.1,2.2-0.7
			S136.8,193.8,136,193.4"/>
	</g>
	<g>
		<path class="st0" d="M139.4,182.8c-0.8-0.4-1.8-0.1-2.2,0.7c-0.4,0.8-0.1,1.8,0.7,2.2c0.8,0.4,1.8,0.1,2.2-0.7
			C140.6,184.3,140.2,183.3,139.4,182.8"/>
	</g>
	<g>
		<path class="st0" d="M132.6,203.9c-0.8-0.4-1.8-0.1-2.2,0.7c-0.4,0.8-0.1,1.8,0.7,2.2c0.8,0.4,1.8,0.1,2.2-0.7
			C133.7,205.3,133.4,204.3,132.6,203.9"/>
	</g>
	<g>
		<path class="st0" d="M129.1,214.6c-0.8-0.4-1.8-0.1-2.2,0.7c-0.4,0.8-0.1,1.8,0.7,2.2c0.8,0.4,1.8,0.1,2.2-0.7
			C130.3,216,129.9,215,129.1,214.6"/>
	</g>
	<g>
		<path class="st0" d="M125.4,225.9c-0.8-0.4-1.8-0.1-2.2,0.7c-0.4,0.8-0.1,1.8,0.7,2.2c0.8,0.4,1.8,0.1,2.2-0.7
			C126.6,227.3,126.3,226.3,125.4,225.9"/>
	</g>
	<g>
		<path class="st0" d="M121.5,238c-0.8-0.4-1.8-0.1-2.2,0.7c-0.4,0.8-0.1,1.8,0.7,2.2c0.8,0.4,1.8,0.1,2.2-0.7
			C122.6,239.5,122.3,238.5,121.5,238"/>
	</g>
	<g>
		<path class="st0" d="M117.7,249.8c-0.8-0.4-1.8-0.1-2.2,0.7c-0.4,0.8-0.1,1.8,0.7,2.2c0.8,0.4,1.8,0.1,2.2-0.7
			C118.8,251.3,118.5,250.3,117.7,249.8"/>
	</g>
	<g>
		<path class="st0" d="M114.2,260.5c-0.8-0.4-1.8-0.1-2.2,0.7c-0.4,0.8-0.1,1.8,0.7,2.2c0.8,0.4,1.8,0.1,2.2-0.7
			C115.3,261.9,115,260.9,114.2,260.5"/>
	</g>
	<g>
		<path class="st0" d="M147,195.7c-0.9-0.2-1.8,0.4-2,1.3c-0.2,0.9,0.4,1.8,1.3,2c0.9,0.2,1.8-0.4,2-1.3S147.9,195.9,147,195.7"/>
	</g>
	<g>
		<path class="st0" d="M147.7,184.7c-0.9-0.2-1.8,0.4-2,1.3c-0.2,0.9,0.4,1.8,1.3,2c0.9,0.2,1.8-0.4,2-1.3
			C149.2,185.8,148.6,184.9,147.7,184.7"/>
	</g>
	<g>
		<path class="st0" d="M146.3,206.8c-0.9-0.2-1.8,0.4-2,1.3c-0.2,0.9,0.4,1.8,1.3,2c0.9,0.2,1.8-0.4,2-1.3
			C147.8,207.9,147.2,207,146.3,206.8"/>
	</g>
	<g>
		<path class="st0" d="M145.6,218c-0.9-0.2-1.8,0.4-2,1.3c-0.2,0.9,0.4,1.8,1.3,2c0.9,0.2,1.8-0.4,2-1.3S146.5,218.2,145.6,218"/>
	</g>
	<g>
		<path class="st0" d="M144.9,229.8c-0.9-0.2-1.8,0.4-2,1.3c-0.2,0.9,0.4,1.8,1.3,2c0.9,0.2,1.8-0.4,2-1.3S145.8,230,144.9,229.8"/>
	</g>
	<g>
		<path class="st0" d="M144.1,242.6c-0.9-0.2-1.8,0.4-2,1.3c-0.2,0.9,0.4,1.8,1.3,2c0.9,0.2,1.8-0.4,2-1.3
			C145.6,243.7,145,242.8,144.1,242.6"/>
	</g>
	<g>
		<path class="st0" d="M143.3,255c-0.9-0.2-1.8,0.4-2,1.3c-0.2,0.9,0.4,1.8,1.3,2c0.9,0.2,1.8-0.4,2-1.3
			C144.8,256.1,144.2,255.2,143.3,255"/>
	</g>
	<g>
		<path class="st0" d="M142.6,266.2c-0.9-0.2-1.8,0.4-2,1.3c-0.2,0.9,0.4,1.8,1.3,2c0.9,0.2,1.8-0.4,2-1.3
			C144.1,267.3,143.5,266.4,142.6,266.2"/>
	</g>
	<g>
		<path class="st0" d="M158.3,195.3c-0.9,0-1.6,0.8-1.6,1.7c0,0.9,0.8,1.6,1.7,1.6c0.9,0,1.6-0.8,1.6-1.7
			C160,196,159.2,195.2,158.3,195.3"/>
	</g>
	<g>
		<path class="st0" d="M156.2,184.4c-0.9,0-1.6,0.8-1.6,1.7c0,0.9,0.8,1.6,1.7,1.6c0.9,0,1.6-0.8,1.6-1.7
			C157.9,185.1,157.2,184.4,156.2,184.4"/>
	</g>
	<g>
		<path class="st0" d="M160.4,206.2c-0.9,0-1.6,0.8-1.6,1.7c0,0.9,0.8,1.6,1.7,1.6c0.9,0,1.6-0.8,1.6-1.7
			C162.1,206.9,161.3,206.1,160.4,206.2"/>
	</g>
	<g>
		<path class="st0" d="M162.5,217.2c-0.9,0-1.6,0.8-1.6,1.7c0,0.9,0.8,1.6,1.7,1.6c0.9,0,1.6-0.8,1.6-1.7
			C164.2,217.9,163.4,217.2,162.5,217.2"/>
	</g>
	<g>
		<path class="st0" d="M164.7,228.8c-0.9,0-1.6,0.8-1.6,1.7c0,0.9,0.8,1.6,1.7,1.6c0.9,0,1.6-0.8,1.6-1.7
			C166.4,229.5,165.6,228.8,164.7,228.8"/>
	</g>
	<g>
		<path class="st0" d="M167.1,241.4c-0.9,0-1.6,0.8-1.6,1.7c0,0.9,0.8,1.6,1.7,1.6c0.9,0,1.6-0.8,1.6-1.7
			C168.8,242.1,168,241.4,167.1,241.4"/>
	</g>
	<g>
		<path class="st0" d="M169.4,253.6c-0.9,0-1.6,0.8-1.6,1.7c0,0.9,0.8,1.6,1.7,1.6c0.9,0,1.6-0.8,1.6-1.7
			C171.1,254.3,170.4,253.6,169.4,253.6"/>
	</g>
	<g>
		<path class="st0" d="M171.6,264.6c-0.9,0-1.6,0.8-1.6,1.7c0,0.9,0.8,1.6,1.7,1.6c0.9,0,1.6-0.8,1.6-1.7
			C173.2,265.3,172.5,264.6,171.6,264.6"/>
	</g>
	<g>
		<path class="st0" d="M169.1,192c-0.9,0.3-1.4,1.2-1.1,2.1c0.3,0.9,1.2,1.4,2.1,1.1c0.9-0.3,1.4-1.2,1.1-2.1
			C170.9,192.3,170,191.8,169.1,192"/>
	</g>
	<g>
		<path class="st0" d="M164.4,182c-0.9,0.3-1.4,1.2-1.1,2.1c0.3,0.9,1.2,1.4,2.1,1.1c0.9-0.3,1.4-1.2,1.1-2.1
			C166.2,182.2,165.3,181.7,164.4,182"/>
	</g>
	<g>
		<path class="st0" d="M173.9,202.1c-0.9,0.3-1.4,1.2-1.1,2.1c0.3,0.9,1.2,1.4,2.1,1.1c0.9-0.3,1.4-1.2,1.1-2.1
			C175.7,202.3,174.7,201.8,173.9,202.1"/>
	</g>
	<g>
		<path class="st0" d="M178.6,212.2c-0.9,0.3-1.4,1.2-1.1,2.1c0.3,0.9,1.2,1.4,2.1,1.1c0.9-0.3,1.4-1.2,1.1-2.1
			C180.4,212.5,179.5,212,178.6,212.2"/>
	</g>
	<g>
		<path class="st0" d="M183.7,222.9c-0.9,0.3-1.4,1.2-1.1,2.1c0.3,0.9,1.2,1.4,2.1,1.1c0.9-0.3,1.4-1.2,1.1-2.1
			C185.5,223.2,184.6,222.7,183.7,222.9"/>
	</g>
	<g>
		<path class="st0" d="M189.1,234.5c-0.9,0.3-1.4,1.2-1.1,2.1c0.3,0.9,1.2,1.4,2.1,1.1c0.9-0.3,1.4-1.2,1.1-2.1
			C190.9,234.8,190,234.3,189.1,234.5"/>
	</g>
	<g>
		<path class="st0" d="M194.4,245.7c-0.9,0.3-1.4,1.2-1.1,2.1c0.3,0.9,1.2,1.4,2.1,1.1c0.9-0.3,1.4-1.2,1.1-2.1
			C196.2,246,195.3,245.5,194.4,245.7"/>
	</g>
	<g>
		<path class="st0" d="M199.2,255.9c-0.9,0.3-1.4,1.2-1.1,2.1c0.3,0.9,1.2,1.4,2.1,1.1c0.9-0.3,1.4-1.2,1.1-2.1
			C201,256.2,200.1,255.6,199.2,255.9"/>
	</g>
	<g>
		<path class="st0" d="M178.8,186.2c-0.8,0.5-1,1.5-0.6,2.3c0.5,0.8,1.5,1,2.3,0.6c0.8-0.5,1-1.5,0.6-2.3
			C180.6,186,179.6,185.7,178.8,186.2"/>
	</g>
	<g>
		<path class="st0" d="M171.7,177.7c-0.8,0.5-1,1.5-0.6,2.3c0.5,0.8,1.5,1,2.3,0.6c0.8-0.5,1-1.5,0.6-2.3
			C173.5,177.4,172.5,177.2,171.7,177.7"/>
	</g>
	<g>
		<path class="st0" d="M185.9,194.7c-0.8,0.5-1,1.5-0.6,2.3c0.5,0.8,1.5,1,2.3,0.6c0.8-0.5,1-1.5,0.6-2.3
			C187.7,194.5,186.7,194.3,185.9,194.7"/>
	</g>
	<g>
		<path class="st0" d="M193,203.4c-0.8,0.5-1,1.5-0.6,2.3c0.5,0.8,1.5,1,2.3,0.6c0.8-0.5,1-1.5,0.6-2.3
			C194.8,203.2,193.8,202.9,193,203.4"/>
	</g>
	<g>
		<path class="st0" d="M200.6,212.5c-0.8,0.5-1,1.5-0.6,2.3c0.5,0.8,1.5,1,2.3,0.6c0.8-0.5,1-1.5,0.6-2.3
			C202.4,212.3,201.4,212,200.6,212.5"/>
	</g>
	<g>
		<path class="st0" d="M208.7,222.4c-0.8,0.5-1,1.5-0.6,2.3c0.5,0.8,1.5,1,2.3,0.6c0.8-0.5,1-1.5,0.6-2.3
			C210.5,222.2,209.5,221.9,208.7,222.4"/>
	</g>
	<g>
		<path class="st0" d="M216.6,231.9c-0.8,0.5-1,1.5-0.6,2.3c0.5,0.8,1.5,1,2.3,0.6c0.8-0.5,1-1.5,0.6-2.3
			C218.5,231.7,217.4,231.5,216.6,231.9"/>
	</g>
	<g>
		<path class="st0" d="M223.8,240.6c-0.8,0.5-1,1.5-0.6,2.3c0.5,0.8,1.5,1,2.3,0.6c0.8-0.5,1-1.5,0.6-2.3
			C225.6,240.4,224.6,240.1,223.8,240.6"/>
	</g>
	<g>
		<path class="st0" d="M186.7,178.1c-0.6,0.7-0.6,1.7,0,2.4c0.7,0.6,1.7,0.6,2.4,0c0.6-0.7,0.6-1.7,0-2.4
			C188.4,177.5,187.4,177.5,186.7,178.1"/>
	</g>
	<g>
		<path class="st0" d="M177.7,171.6c-0.6,0.7-0.6,1.7,0,2.4c0.7,0.6,1.7,0.6,2.4,0c0.6-0.7,0.6-1.7,0-2.4
			C179.4,171,178.4,171,177.7,171.6"/>
	</g>
	<g>
		<path class="st0" d="M195.7,184.7c-0.6,0.7-0.6,1.7,0,2.4c0.7,0.6,1.7,0.6,2.4,0c0.6-0.7,0.6-1.7,0-2.4
			C197.4,184,196.3,184,195.7,184.7"/>
	</g>
	<g>
		<path class="st0" d="M204.8,191.3c-0.6,0.7-0.6,1.7,0,2.4c0.7,0.6,1.7,0.6,2.4,0c0.6-0.7,0.6-1.7,0-2.4
			C206.5,190.6,205.4,190.6,204.8,191.3"/>
	</g>
	<g>
		<path class="st0" d="M214.3,198.2c-0.6,0.7-0.6,1.7,0,2.4c0.7,0.6,1.7,0.6,2.4,0c0.6-0.7,0.6-1.7,0-2.4
			C216,197.6,215,197.6,214.3,198.2"/>
	</g>
	<g>
		<path class="st0" d="M224.7,205.7c-0.6,0.7-0.6,1.7,0,2.4c0.7,0.6,1.7,0.6,2.4,0c0.6-0.7,0.6-1.7,0-2.4
			C226.4,205.1,225.3,205.1,224.7,205.7"/>
	</g>
	<g>
		<path class="st0" d="M234.7,213c-0.6,0.7-0.6,1.7,0,2.4c0.7,0.6,1.7,0.6,2.4,0c0.6-0.7,0.6-1.7,0-2.4
			C236.4,212.4,235.4,212.4,234.7,213"/>
	</g>
	<g>
		<path class="st0" d="M243.8,219.6c-0.6,0.7-0.6,1.7,0,2.4c0.7,0.6,1.7,0.6,2.4,0c0.6-0.7,0.6-1.7,0-2.4
			C245.5,219,244.5,219,243.8,219.6"/>
	</g>
	<g>
		<path class="st0" d="M192.4,168.4c-0.5,0.8-0.2,1.8,0.6,2.3c0.8,0.5,1.8,0.2,2.3-0.6c0.5-0.8,0.2-1.8-0.6-2.3
			C193.9,167.3,192.8,167.6,192.4,168.4"/>
	</g>
	<g>
		<path class="st0" d="M182.1,164.3c-0.5,0.8-0.2,1.8,0.6,2.3c0.8,0.5,1.8,0.2,2.3-0.6c0.5-0.8,0.2-1.8-0.6-2.3
			C183.5,163.2,182.5,163.5,182.1,164.3"/>
	</g>
	<g>
		<path class="st0" d="M202.7,172.4c-0.5,0.8-0.2,1.8,0.6,2.3c0.8,0.5,1.8,0.2,2.3-0.6c0.5-0.8,0.2-1.8-0.6-2.3
			C204.2,171.4,203.1,171.7,202.7,172.4"/>
	</g>
	<g>
		<path class="st0" d="M213.1,176.6c-0.5,0.8-0.2,1.8,0.6,2.3c0.8,0.5,1.8,0.2,2.3-0.6c0.5-0.8,0.2-1.8-0.6-2.3
			C214.6,175.5,213.6,175.8,213.1,176.6"/>
	</g>
	<g>
		<path class="st0" d="M224.1,180.9c-0.5,0.8-0.2,1.8,0.6,2.3c0.8,0.5,1.8,0.2,2.3-0.6c0.5-0.8,0.2-1.8-0.6-2.3
			C225.6,179.9,224.6,180.1,224.1,180.9"/>
	</g>
	<g>
		<path class="st0" d="M236,185.7c-0.5,0.8-0.2,1.8,0.6,2.3c0.8,0.5,1.8,0.2,2.3-0.6c0.5-0.8,0.2-1.8-0.6-2.3
			C237.5,184.6,236.5,184.9,236,185.7"/>
	</g>
	<g>
		<path class="st0" d="M247.6,190.2c-0.5,0.8-0.2,1.8,0.6,2.3c0.8,0.5,1.8,0.2,2.3-0.6c0.5-0.8,0.2-1.8-0.6-2.3
			C249,189.2,248,189.4,247.6,190.2"/>
	</g>
	<g>
		<path class="st0" d="M258,194.4c-0.5,0.8-0.2,1.8,0.6,2.3c0.8,0.5,1.8,0.2,2.3-0.6c0.5-0.8,0.2-1.8-0.6-2.3
			C259.5,193.3,258.5,193.6,258,194.4"/>
	</g>
	<g>
		<path class="st0" d="M195.4,157.5c-0.3,0.9,0.3,1.8,1.1,2.1c0.9,0.3,1.8-0.3,2.1-1.1c0.3-0.9-0.3-1.8-1.1-2.1
			C196.6,156.1,195.7,156.6,195.4,157.5"/>
	</g>
	<g>
		<path class="st0" d="M184.4,156.1c-0.3,0.9,0.3,1.8,1.1,2.1c0.9,0.3,1.8-0.3,2.1-1.1c0.3-0.9-0.3-1.8-1.1-2.1
			C185.6,154.7,184.7,155.2,184.4,156.1"/>
	</g>
	<g>
		<path class="st0" d="M206.4,158.9c-0.3,0.9,0.3,1.8,1.1,2.1c0.9,0.3,1.8-0.3,2.1-1.1c0.3-0.9-0.3-1.8-1.1-2.1
			C207.6,157.5,206.7,158,206.4,158.9"/>
	</g>
	<g>
		<path class="st0" d="M217.6,160.3c-0.3,0.9,0.3,1.8,1.1,2.1c0.9,0.3,1.8-0.3,2.1-1.1c0.3-0.9-0.3-1.8-1.1-2.1
			C218.7,158.9,217.8,159.4,217.6,160.3"/>
	</g>
	<g>
		<path class="st0" d="M229.3,161.8c-0.3,0.9,0.3,1.8,1.1,2.1c0.9,0.3,1.8-0.3,2.1-1.1c0.3-0.9-0.3-1.8-1.1-2.1
			C230.5,160.4,229.5,160.9,229.3,161.8"/>
	</g>
	<g>
		<path class="st0" d="M242,163.4c-0.3,0.9,0.3,1.8,1.1,2.1c0.9,0.3,1.8-0.3,2.1-1.1c0.3-0.9-0.3-1.8-1.1-2.1
			C243.2,162,242.3,162.5,242,163.4"/>
	</g>
	<g>
		<path class="st0" d="M254.3,164.9c-0.3,0.9,0.3,1.8,1.1,2.1c0.9,0.3,1.8-0.3,2.1-1.1c0.3-0.9-0.3-1.8-1.1-2.1
			C255.5,163.5,254.6,164,254.3,164.9"/>
	</g>
	<g>
		<path class="st0" d="M265.5,166.3c-0.3,0.9,0.3,1.8,1.1,2.1c0.9,0.3,1.8-0.3,2.1-1.1c0.3-0.9-0.3-1.8-1.1-2.1
			C266.6,164.9,265.7,165.5,265.5,166.3"/>
	</g>
</g>
<g>
	<path d="M150.9,167.4c-5.5,0-10.4-3.3-12.5-8.4l-0.3-0.6l5.8-2.5l0.3,0.7c1.1,2.8,3.8,4.5,6.8,4.5c3.8,0,7.1-3,7.3-6.8l0-0.5v-4
		l6.3-2.7v6.7c0,0.2,0,0.3,0,0.5C164.1,161.7,158.2,167.4,150.9,167.4z M139.9,159.1c2,4.2,6.2,6.8,10.9,6.8
		c6.6,0,11.9-5.1,12.1-11.7c0-0.2,0-0.3,0-0.5v-4.6l-3.4,1.5v4.1h-0.1c-0.5,4.4-4.2,7.7-8.7,7.7c-3.3,0-6.3-1.8-7.8-4.8L139.9,159.1
		z M137.6,156.6l-0.1-0.9c-0.1-0.5-0.1-0.9-0.1-1.4c0-0.2,0-0.3,0-0.5V137h5.7l0.2,0.1l7.9,3.2l7.7-3.2l0.2,0h5.5v8.2l-6.3,2.7v-4
		l-7.1,3.2l-7.5-3.2v10.2L137.6,156.6z M138.7,138.4v15.4c0,0.2,0,0.3,0,0.5c0,0.1,0,0.2,0,0.3l3.4-1.4v-11.4l8.9,3.9l8.6-3.9v4
		l3.4-1.5v-5.8h-4l-8,3.3l-8.3-3.3H138.7z"/>
</g>
<g>
	<path class="st1" d="M150.9,300C68.6,300,1.7,233.1,1.7,150.9S68.6,1.7,150.9,1.7S300,68.6,300,150.9S233.1,300,150.9,300z
		 M150.9,4.6C70.2,4.6,4.6,70.2,4.6,150.9c0,80.7,65.6,146.3,146.3,146.3c80.7,0,146.3-65.6,146.3-146.3
		C297.2,70.2,231.5,4.6,150.9,4.6z"/>
</g>
</svg>
